<?xml version="1.0" encoding="UTF-8" standalone="no"?>
<!-- Created with Inkscape (http://www.inkscape.org/) -->

<svg
   xmlns:dc="http://purl.org/dc/elements/1.1/"
   xmlns:cc="http://creativecommons.org/ns#"
   xmlns:rdf="http://www.w3.org/1999/02/22-rdf-syntax-ns#"
   xmlns:svg="http://www.w3.org/2000/svg"
   xmlns="http://www.w3.org/2000/svg"
   xmlns:sodipodi="http://sodipodi.sourceforge.net/DTD/sodipodi-0.dtd"
   xmlns:inkscape="http://www.inkscape.org/namespaces/inkscape"
   width="600mm"
   height="120mm"
   viewBox="0 0 1714.2857 60"
   version="1.1"
   id="svg8"
   inkscape:version="0.92.5 (2060ec1f9f, 2020-04-08)"
   sodipodi:docname="quiqqer_logo.svg">
  <defs
     id="defs2">
    <style
       id="style3713">.cls-1{isolation:isolate;}.cls-2{mix-blend-mode:multiply;}.cls-3,.cls-4,.cls-5,.cls-6{fill:none;stroke-miterlimit:10;stroke-width:14px;}.cls-3{stroke:#ec125f;}.cls-4{stroke:#72be44;}.cls-5{stroke:#f9a51a;}.cls-6{stroke:#2483c5;}.cls-7{fill:#f9a51a;}.cls-8{fill:#72be44;}</style>
  </defs>
  <sodipodi:namedview
     id="base"
     pagecolor="#ffffff"
     bordercolor="#666666"
     borderopacity="1.0"
     inkscape:pageopacity="0.0"
     inkscape:pageshadow="2"
     inkscape:zoom="0.35"
     inkscape:cx="400"
     inkscape:cy="560"
     inkscape:document-units="mm"
     inkscape:current-layer="layer1"
     showgrid="false"
     inkscape:window-width="1920"
     inkscape:window-height="1007"
     inkscape:window-x="1920"
     inkscape:window-y="0"
     inkscape:window-maximized="1"
     viewbox-width="600" />
  <metadata
     id="metadata5">
    <rdf:RDF>
      <cc:Work
         rdf:about="">
        <dc:format>image/svg+xml</dc:format>
        <dc:type
           rdf:resource="http://purl.org/dc/dcmitype/StillImage" />
        <dc:title></dc:title>
      </cc:Work>
    </rdf:RDF>
  </metadata>
  <g
     inkscape:label="Layer 1"
     inkscape:groupmode="layer"
     id="layer1"
     transform="translate(0,-696.99954)">
    <g
       id="g3920"
       class="cls-1"
       transform="matrix(1.1288559,0,0,1.1288559,18.391944,596.26219)"
       style="isolation:isolate">
      <g
         data-name="Ebene 1"
         id="Ebene_1">
        <g
           id="g3729"
           class="cls-2"
           style="mix-blend-mode:multiply">
          <g
             id="g3727"
             class="cls-2"
             style="mix-blend-mode:multiply">
            <line
               id="line3719"
               y2="120.61"
               x2="1334.35"
               y1="44.849998"
               x1="1334.35"
               class="cls-3"
               style="fill:none;stroke:#ec125f;stroke-width:14px;stroke-miterlimit:10" />
            <path
               id="path3721"
               transform="translate(-19.98,-42.89)"
               d="m 1354.34,189.48 v 69.44 c 0,11.63 -9,11.83 -20,11.83 -11,0 -20,-0.2 -20,-11.83 V 75.81 c 0,-11.63 9,-21.05 20,-21.05"
               class="cls-3"
               inkscape:connector-curvature="0"
               style="fill:none;stroke:#ec125f;stroke-width:14px;stroke-miterlimit:10" />
            <path
               id="path3723"
               transform="translate(-19.98,-42.89)"
               d="M 1354.34,197"
               class="cls-3"
               inkscape:connector-curvature="0"
               style="fill:none;stroke:#ec125f;stroke-width:14px;stroke-miterlimit:10" />
            <path
               id="path3725"
               transform="translate(-19.98,-42.89)"
               d="M 1354.34,156"
               class="cls-3"
               inkscape:connector-curvature="0"
               style="fill:none;stroke:#ec125f;stroke-width:14px;stroke-miterlimit:10" />
          </g>
        </g>
        <g
           id="g3735"
           class="cls-2"
           style="mix-blend-mode:multiply">
          <line
             id="line3731"
             y2="113.6"
             x2="1393.1"
             y1="113.6"
             x1="1341.33"
             class="cls-4"
             style="fill:none;stroke:#72be44;stroke-width:14px;stroke-miterlimit:10" />
          <line
             id="line3733"
             y2="153.60001"
             x2="1341.35"
             y1="153.66"
             x1="1385.8"
             class="cls-4"
             style="fill:none;stroke:#72be44;stroke-width:14px;stroke-miterlimit:10" />
        </g>
        <g
           id="g3741"
           class="cls-2"
           style="mix-blend-mode:multiply">
          <line
             id="line3737"
             y2="11.87"
             x2="1398.1"
             y1="11.87"
             x1="1314.35"
             class="cls-5"
             style="fill:none;stroke:#f9a51a;stroke-width:14px;stroke-miterlimit:10" />
          <line
             id="line3739"
             y2="51.869999"
             x2="1341.38"
             y1="51.869999"
             x1="1398.1"
             class="cls-5"
             style="fill:none;stroke:#f9a51a;stroke-width:14px;stroke-miterlimit:10" />
        </g>
        <g
           id="g3745"
           class="cls-2"
           style="mix-blend-mode:multiply">
          <path
             id="path3743"
             transform="translate(-19.98,-42.89)"
             d="m 1446.94,185.27 52,76.8 c 0.93,1.47 -0.52,-0.94 -0.47,-0.85 5,8.54 -3.81,7.62 -18.77,7.78 -22.24,0.22 -21.57,1.3 -27.37,-5.7 l -40.75,-63.69"
             class="cls-5"
             inkscape:connector-curvature="0"
             style="fill:none;stroke:#f9a51a;stroke-width:14px;stroke-miterlimit:10" />
        </g>
        <g
           id="g3751"
           class="cls-2"
           style="mix-blend-mode:multiply">
          <path
             id="path3747"
             transform="translate(-19.98,-42.89)"
             d="m 1413.09,156.49 h 5 a 30.87,30.87 0 0 0 0,-61.73"
             class="cls-6"
             inkscape:connector-curvature="0"
             style="fill:none;stroke:#2483c5;stroke-width:14px;stroke-miterlimit:10" />
          <path
             id="path3749"
             transform="translate(-19.98,-42.89)"
             d="m 1418.09,54.76 c 3.68,0 36.36,-1.1 57,24.24 15,18.46 14.79,39.74 14.62,46.25 -0.49,18.15 -7.71,31.21 -11,37 -7.47,13.14 -16.3,20.94 -22.09,24.86"
             class="cls-6"
             inkscape:connector-curvature="0"
             style="fill:none;stroke:#2483c5;stroke-width:14px;stroke-miterlimit:10" />
        </g>
        <polygon
           id="polygon3753"
           points="1397.5,152.99 1393.48,146.69 1385.83,160.68 "
           class="cls-7"
           style="fill:#f9a51a" />
        <polygon
           id="polygon3755"
           points="1393.48,146.69 1385.64,146.69 1385.78,160.67 1385.86,160.67 "
           class="cls-8"
           style="fill:#72be44" />
        <path
           id="path3757"
           transform="translate(-19.98,-42.89)"
           d="m 1141.46,268.76 a 20,20 0 0 1 -20,-20 v -174 a 20,20 0 0 1 20,-20"
           class="cls-6"
           inkscape:connector-curvature="0"
           style="fill:none;stroke:#2483c5;stroke-width:14px;stroke-miterlimit:10" />
        <line
           id="line3759"
           y2="192.78"
           x2="1141.48"
           y1="131.88"
           x1="1141.48"
           class="cls-6"
           style="fill:none;stroke:#2483c5;stroke-width:14px;stroke-miterlimit:10" />
        <path
           id="path3761"
           transform="translate(-19.98,-42.89)"
           d="M 1161.46,181.76"
           class="cls-6"
           inkscape:connector-curvature="0"
           style="fill:none;stroke:#2483c5;stroke-width:14px;stroke-miterlimit:10" />
        <path
           id="path3763"
           transform="translate(-19.98,-42.89)"
           d="M 1161.46,141.76"
           class="cls-6"
           inkscape:connector-curvature="0"
           style="fill:none;stroke:#2483c5;stroke-width:14px;stroke-miterlimit:10" />
        <line
           id="line3765"
           y2="105.91"
           x2="1141.48"
           y1="44.830002"
           x1="1141.48"
           class="cls-6"
           style="fill:none;stroke:#2483c5;stroke-width:14px;stroke-miterlimit:10" />
        <g
           id="g3775"
           class="cls-2"
           style="mix-blend-mode:multiply">
          <path
             id="path3767"
             transform="translate(-19.98,-42.89)"
             d="m 1141.46,54.76 h 125 c 11.62,0 10.61,8.7 10.74,20 0.13,11 1,20 -10.39,20 h -98.34"
             class="cls-3"
             inkscape:connector-curvature="0"
             style="fill:none;stroke:#ec125f;stroke-width:14px;stroke-miterlimit:10" />
          <path
             id="path3769"
             transform="translate(-19.98,-42.89)"
             d="M 1141.46,54.76"
             class="cls-3"
             inkscape:connector-curvature="0"
             style="fill:none;stroke:#ec125f;stroke-width:14px;stroke-miterlimit:10" />
          <path
             id="path3771"
             transform="translate(-19.98,-42.89)"
             d="M 1121.46,74.76"
             class="cls-3"
             inkscape:connector-curvature="0"
             style="fill:none;stroke:#ec125f;stroke-width:14px;stroke-miterlimit:10" />
          <path
             id="path3773"
             transform="translate(-19.98,-42.89)"
             d="M 1121.46,74.76"
             class="cls-3"
             inkscape:connector-curvature="0"
             style="fill:none;stroke:#ec125f;stroke-width:14px;stroke-miterlimit:10" />
        </g>
        <g
           id="g3779"
           class="cls-2"
           style="mix-blend-mode:multiply">
          <path
             id="path3777"
             transform="translate(-19.98,-42.89)"
             d="m 1168.44,228.76 h 97.85 c 11.89,0 10.94,9 10.94,20 0,11 1,20 -10.94,20 h -124.83"
             class="cls-4"
             inkscape:connector-curvature="0"
             style="fill:none;stroke:#72be44;stroke-width:14px;stroke-miterlimit:10" />
        </g>
        <g
           id="g3783"
           class="cls-2"
           style="mix-blend-mode:multiply">
          <path
             id="path3781"
             transform="translate(-19.98,-42.89)"
             d="m 1168.41,141.76 h 83.67 c 9.42,0 9,9 9,20 0,11 0.5,20 -9.08,20 h -83.54"
             class="cls-5"
             inkscape:connector-curvature="0"
             style="fill:none;stroke:#f9a51a;stroke-width:14px;stroke-miterlimit:10" />
        </g>
        <g
           id="g3795"
           class="cls-2"
           style="mix-blend-mode:multiply">
          <path
             id="path3785"
             transform="translate(-19.98,-42.89)"
             d="M 1020,109.67 A 67,67 0 0 0 1005.33,98.33 69.6,69.6 0 0 0 937.83,98.08 68,68 0 0 0 922.33,110"
             class="cls-3"
             inkscape:connector-curvature="0"
             style="fill:none;stroke:#ec125f;stroke-width:14px;stroke-miterlimit:10" />
          <path
             id="path3787"
             transform="translate(-19.98,-42.89)"
             d="M 1034.05,115.9"
             class="cls-3"
             inkscape:connector-curvature="0"
             style="fill:none;stroke:#ec125f;stroke-width:14px;stroke-miterlimit:10" />
          <path
             id="path3789"
             transform="translate(-19.98,-42.89)"
             d="M 1047.31,110.41"
             class="cls-3"
             inkscape:connector-curvature="0"
             style="fill:none;stroke:#ec125f;stroke-width:14px;stroke-miterlimit:10" />
          <path
             id="path3791"
             transform="translate(-19.98,-42.89)"
             d="m 894.3,82.05 a 109.86,109.86 0 0 1 23.7,-17.94 110.46,110.46 0 0 1 108.36,0 109.67,109.67 0 0 1 23.73,18"
             class="cls-3"
             inkscape:connector-curvature="0"
             style="fill:none;stroke:#ec125f;stroke-width:14px;stroke-miterlimit:10" />
          <path
             id="path3793"
             transform="translate(-19.98,-42.89)"
             d="M 897,110.41"
             class="cls-3"
             inkscape:connector-curvature="0"
             style="fill:none;stroke:#ec125f;stroke-width:14px;stroke-miterlimit:10" />
        </g>
        <g
           id="g3809"
           class="cls-2"
           style="mix-blend-mode:multiply">
          <path
             id="path3797"
             transform="translate(-19.98,-42.89)"
             d="M 923.55,110.41"
             class="cls-6"
             inkscape:connector-curvature="0"
             style="fill:none;stroke:#2483c5;stroke-width:14px;stroke-miterlimit:10" />
          <path
             id="path3799"
             transform="translate(-19.98,-42.89)"
             d="M 923.55,83.88"
             class="cls-6"
             inkscape:connector-curvature="0"
             style="fill:none;stroke:#2483c5;stroke-width:14px;stroke-miterlimit:10" />
          <path
             id="path3801"
             transform="translate(-19.98,-42.89)"
             d="M 893.92,236 A 109.67,109.67 0 0 1 862.73,158.88 111.49,111.49 0 0 1 894.3,82.05"
             class="cls-6"
             inkscape:connector-curvature="0"
             style="fill:none;stroke:#2483c5;stroke-width:14px;stroke-miterlimit:10" />
          <path
             id="path3803"
             transform="translate(-19.98,-42.89)"
             d="M 910.29,239.66"
             class="cls-6"
             inkscape:connector-curvature="0"
             style="fill:none;stroke:#2483c5;stroke-width:14px;stroke-miterlimit:10" />
          <path
             id="path3805"
             transform="translate(-19.98,-42.89)"
             d="M 923.55,234.17"
             class="cls-6"
             inkscape:connector-curvature="0"
             style="fill:none;stroke:#2483c5;stroke-width:14px;stroke-miterlimit:10" />
          <path
             id="path3807"
             transform="translate(-19.98,-42.89)"
             d="m 922.33,110 a 70.67,70.67 0 0 0 -14,20.67 68.31,68.31 0 0 0 15.17,76.91"
             class="cls-6"
             inkscape:connector-curvature="0"
             style="fill:none;stroke:#2483c5;stroke-width:14px;stroke-miterlimit:10" />
        </g>
        <g
           id="g3819"
           class="cls-2"
           style="mix-blend-mode:multiply">
          <path
             id="path3811"
             transform="translate(-19.98,-42.89)"
             d="m 923.5,207.58 a 70.07,70.07 0 0 0 35.87,18.42 69.29,69.29 0 0 0 28.67,-0.92 q 6.38,8 13.5,16.25 8.19,9.48 16.21,17.92 a 110.35,110.35 0 0 1 -37.46,9.58 108.55,108.55 0 0 1 -36.08,-3.33 114.76,114.76 0 0 1 -29.34,-13 119.49,119.49 0 0 1 -21,-16.5"
             class="cls-4"
             inkscape:connector-curvature="0"
             style="fill:none;stroke:#72be44;stroke-width:14px;stroke-miterlimit:10" />
          <path
             id="path3813"
             transform="translate(-19.98,-42.89)"
             d="m 1050,82.06 a 109.93,109.93 0 0 1 32.45,76.59 v 0 a 104.71,104.71 0 0 1 -2.45,24.85 78.68,78.68 0 0 1 -6,16.5 l -33.87,-36.07 a 70,70 0 0 0 -1.71,-21 72.1,72.1 0 0 0 -18.42,-33.26"
             class="cls-4"
             inkscape:connector-curvature="0"
             style="fill:none;stroke:#72be44;stroke-width:14px;stroke-miterlimit:10" />
          <path
             id="path3815"
             transform="translate(-19.98,-42.89)"
             d="M 1020.78,83.88"
             class="cls-4"
             inkscape:connector-curvature="0"
             style="fill:none;stroke:#72be44;stroke-width:14px;stroke-miterlimit:10" />
          <path
             id="path3817"
             transform="translate(-19.98,-42.89)"
             d="M 1020.78,110.41"
             class="cls-4"
             inkscape:connector-curvature="0"
             style="fill:none;stroke:#72be44;stroke-width:14px;stroke-miterlimit:10" />
        </g>
        <g
           id="g3855"
           class="cls-2"
           style="mix-blend-mode:multiply">
          <path
             id="path3821"
             transform="translate(-19.98,-42.89)"
             d="m 665.15,208.44 a 70,70 0 0 0 35.85,18.41 69.31,69.31 0 0 0 28.67,-0.92 q 6.38,8 13.5,16.25 8.19,9.49 16.21,17.93 a 110.45,110.45 0 0 1 -37.46,9.57 108.38,108.38 0 0 1 -36.09,-3.33 114.52,114.52 0 0 1 -29.33,-13 118.66,118.66 0 0 1 -21,-16.49"
             class="cls-4"
             inkscape:connector-curvature="0"
             style="fill:none;stroke:#72be44;stroke-width:14px;stroke-miterlimit:10" />
          <path
             id="path3823"
             transform="translate(-19.98,-42.89)"
             d="m 791.69,82.91 a 110.1,110.1 0 0 1 32.45,76.59 v 0 a 104.83,104.83 0 0 1 -2.49,24.86 79.46,79.46 0 0 1 -6,16.5 l -33.88,-36.08 a 69.55,69.55 0 0 0 -1.7,-21 72.14,72.14 0 0 0 -18.42,-33.23"
             class="cls-4"
             inkscape:connector-curvature="0"
             style="fill:none;stroke:#72be44;stroke-width:14px;stroke-miterlimit:10" />
          <path
             id="path3825"
             transform="translate(-19.98,-42.89)"
             d="M 762.43,84.74"
             class="cls-4"
             inkscape:connector-curvature="0"
             style="fill:none;stroke:#72be44;stroke-width:14px;stroke-miterlimit:10" />
          <path
             id="path3827"
             transform="translate(-19.98,-42.89)"
             d="M 762.43,111.26"
             class="cls-4"
             inkscape:connector-curvature="0"
             style="fill:none;stroke:#72be44;stroke-width:14px;stroke-miterlimit:10" />
          <g
             id="g3839"
             class="cls-2"
             style="mix-blend-mode:multiply">
            <path
               id="path3829"
               transform="translate(-19.98,-42.89)"
               d="M 761.65,110.52 A 67,67 0 0 0 747,99.19 69.6,69.6 0 0 0 679.5,98.94 67.74,67.74 0 0 0 664,110.86"
               class="cls-3"
               inkscape:connector-curvature="0"
               style="fill:none;stroke:#ec125f;stroke-width:14px;stroke-miterlimit:10" />
            <path
               id="path3831"
               transform="translate(-19.98,-42.89)"
               d="M 775.7,116.76"
               class="cls-3"
               inkscape:connector-curvature="0"
               style="fill:none;stroke:#ec125f;stroke-width:14px;stroke-miterlimit:10" />
            <path
               id="path3833"
               transform="translate(-19.98,-42.89)"
               d="M 789,111.26"
               class="cls-3"
               inkscape:connector-curvature="0"
               style="fill:none;stroke:#ec125f;stroke-width:14px;stroke-miterlimit:10" />
            <path
               id="path3835"
               transform="translate(-19.98,-42.89)"
               d="m 636,82.91 a 110,110 0 0 1 23.64,-18 110.28,110.28 0 0 1 132.1,18"
               class="cls-3"
               inkscape:connector-curvature="0"
               style="fill:none;stroke:#ec125f;stroke-width:14px;stroke-miterlimit:10" />
            <path
               id="path3837"
               transform="translate(-19.98,-42.89)"
               d="M 638.67,111.26"
               class="cls-3"
               inkscape:connector-curvature="0"
               style="fill:none;stroke:#ec125f;stroke-width:14px;stroke-miterlimit:10" />
          </g>
          <g
             id="g3853"
             class="cls-2"
             style="mix-blend-mode:multiply">
            <path
               id="path3841"
               transform="translate(-19.98,-42.89)"
               d="M 665.2,111.26"
               class="cls-6"
               inkscape:connector-curvature="0"
               style="fill:none;stroke:#2483c5;stroke-width:14px;stroke-miterlimit:10" />
            <path
               id="path3843"
               transform="translate(-19.98,-42.89)"
               d="M 665.2,84.74"
               class="cls-6"
               inkscape:connector-curvature="0"
               style="fill:none;stroke:#2483c5;stroke-width:14px;stroke-miterlimit:10" />
            <path
               id="path3845"
               transform="translate(-19.98,-42.89)"
               d="M 635.57,236.86 A 109.72,109.72 0 0 1 604.38,159.73 111.32,111.32 0 0 1 636,82.91"
               class="cls-6"
               inkscape:connector-curvature="0"
               style="fill:none;stroke:#2483c5;stroke-width:14px;stroke-miterlimit:10" />
            <path
               id="path3847"
               transform="translate(-19.98,-42.89)"
               d="M 651.94,240.52"
               class="cls-6"
               inkscape:connector-curvature="0"
               style="fill:none;stroke:#2483c5;stroke-width:14px;stroke-miterlimit:10" />
            <path
               id="path3849"
               transform="translate(-19.98,-42.89)"
               d="M 665.2,235"
               class="cls-6"
               inkscape:connector-curvature="0"
               style="fill:none;stroke:#2483c5;stroke-width:14px;stroke-miterlimit:10" />
            <path
               id="path3851"
               transform="translate(-19.98,-42.89)"
               d="m 664,110.86 a 70.46,70.46 0 0 0 -14,20.66 69.28,69.28 0 0 0 -6,28.34 68.58,68.58 0 0 0 5.65,26.14 69.54,69.54 0 0 0 15.5,22.42"
               class="cls-6"
               inkscape:connector-curvature="0"
               style="fill:none;stroke:#2483c5;stroke-width:14px;stroke-miterlimit:10" />
          </g>
        </g>
        <g
           id="g3861"
           class="cls-2"
           style="mix-blend-mode:multiply">
          <g
             id="g3859"
             class="cls-2"
             style="mix-blend-mode:multiply">
            <path
               id="path3857"
               transform="translate(-19.98,-42.89)"
               d="m 540,271.44 c -11,0 -20,1 -20,-11.31 V 65.72 c 0,-12.34 9,-10.92 20,-10.92 11,0 20,-1.42 20,10.92 v 194.41 c 0,12.35 -8.95,11.31 -20,11.31 z"
               class="cls-3"
               inkscape:connector-curvature="0"
               style="fill:none;stroke:#ec125f;stroke-width:14px;stroke-miterlimit:10" />
          </g>
        </g>
        <g
           id="g3865"
           class="cls-2"
           style="mix-blend-mode:multiply">
          <path
             id="path3863"
             transform="translate(-19.98,-42.89)"
             d="M 288.91,186.09 V 65.83 c 0,-12 8.95,-11.37 20,-11.37 10.84,0 20,-0.34 20,11.37 v 120.26"
             class="cls-3"
             inkscape:connector-curvature="0"
             style="fill:none;stroke:#ec125f;stroke-width:14px;stroke-miterlimit:10" />
        </g>
        <g
           id="g3869"
           class="cls-2"
           style="mix-blend-mode:multiply">
          <path
             id="path3867"
             transform="translate(-19.98,-42.89)"
             d="M 434.87,186.09 V 65.35 c 0,-12 8.95,-10.94 20,-11 11.05,-0.06 20,-0.72 20,11 v 120.74"
             class="cls-6"
             inkscape:connector-curvature="0"
             style="fill:none;stroke:#2483c5;stroke-width:14px;stroke-miterlimit:10" />
        </g>
        <g
           id="g3875"
           class="cls-2"
           style="mix-blend-mode:multiply">
          <path
             id="path3871"
             transform="translate(-19.98,-42.89)"
             d="m 328.91,186.09 c 0,23.71 24.69,44.51 52.84,44.51 a 58.61,58.61 0 0 0 37.7,-14 c 9.94,-8.55 15.42,-19.39 15.42,-30.53"
             class="cls-4"
             inkscape:connector-curvature="0"
             style="fill:none;stroke:#72be44;stroke-width:14px;stroke-miterlimit:10" />
          <path
             id="path3873"
             transform="translate(-19.98,-42.89)"
             d="m 474.87,186.09 c 0,45.58 -42.64,84.09 -93.12,84.09 -50.33,0 -92.84,-38.51 -92.84,-84.09"
             class="cls-4"
             inkscape:connector-curvature="0"
             style="fill:none;stroke:#72be44;stroke-width:14px;stroke-miterlimit:10" />
        </g>
        <g
           id="g3913"
           class="cls-2"
           style="mix-blend-mode:multiply">
          <path
             id="path3877"
             transform="translate(-19.98,-42.89)"
             d="M 87.8,111.32"
             class="cls-6"
             inkscape:connector-curvature="0"
             style="fill:none;stroke:#2483c5;stroke-width:14px;stroke-miterlimit:10" />
          <path
             id="path3879"
             transform="translate(-19.98,-42.89)"
             d="M 87.8,84.79"
             class="cls-6"
             inkscape:connector-curvature="0"
             style="fill:none;stroke:#2483c5;stroke-width:14px;stroke-miterlimit:10" />
          <path
             id="path3881"
             transform="translate(-19.98,-42.89)"
             d="M 58.17,236.91 A 109.67,109.67 0 0 1 27,159.79 111.44,111.44 0 0 1 58.55,83"
             class="cls-6"
             inkscape:connector-curvature="0"
             style="fill:none;stroke:#2483c5;stroke-width:14px;stroke-miterlimit:10" />
          <path
             id="path3883"
             transform="translate(-19.98,-42.89)"
             d="M 74.54,240.57"
             class="cls-6"
             inkscape:connector-curvature="0"
             style="fill:none;stroke:#2483c5;stroke-width:14px;stroke-miterlimit:10" />
          <path
             id="path3885"
             transform="translate(-19.98,-42.89)"
             d="M 87.8,235.08"
             class="cls-6"
             inkscape:connector-curvature="0"
             style="fill:none;stroke:#2483c5;stroke-width:14px;stroke-miterlimit:10" />
          <path
             id="path3887"
             transform="translate(-19.98,-42.89)"
             d="m 86.59,110.91 a 70.48,70.48 0 0 0 -14,20.67 68.29,68.29 0 0 0 15.16,76.91"
             class="cls-6"
             inkscape:connector-curvature="0"
             style="fill:none;stroke:#2483c5;stroke-width:14px;stroke-miterlimit:10" />
          <g
             id="g3899"
             class="cls-2"
             style="mix-blend-mode:multiply">
            <path
               id="path3889"
               transform="translate(-19.98,-42.89)"
               d="m 184.25,110.58 a 67.1,67.1 0 0 0 -14.66,-11.34 69.6,69.6 0 0 0 -67.5,-0.25 67.52,67.52 0 0 0 -15.5,11.92"
               class="cls-3"
               inkscape:connector-curvature="0"
               style="fill:none;stroke:#ec125f;stroke-width:14px;stroke-miterlimit:10" />
            <path
               id="path3891"
               transform="translate(-19.98,-42.89)"
               d="M 198.3,116.81"
               class="cls-3"
               inkscape:connector-curvature="0"
               style="fill:none;stroke:#ec125f;stroke-width:14px;stroke-miterlimit:10" />
            <path
               id="path3893"
               transform="translate(-19.98,-42.89)"
               d="M 211.56,111.32"
               class="cls-3"
               inkscape:connector-curvature="0"
               style="fill:none;stroke:#ec125f;stroke-width:14px;stroke-miterlimit:10" />
            <path
               id="path3895"
               transform="translate(-19.98,-42.89)"
               d="m 58.55,83 a 110.27,110.27 0 0 1 155.74,0"
               class="cls-3"
               inkscape:connector-curvature="0"
               style="fill:none;stroke:#ec125f;stroke-width:14px;stroke-miterlimit:10" />
            <path
               id="path3897"
               transform="translate(-19.98,-42.89)"
               d="M 61.28,111.32"
               class="cls-3"
               inkscape:connector-curvature="0"
               style="fill:none;stroke:#ec125f;stroke-width:14px;stroke-miterlimit:10" />
          </g>
          <g
             id="g3909"
             class="cls-2"
             style="mix-blend-mode:multiply">
            <path
               id="path3901"
               transform="translate(-19.98,-42.89)"
               d="m 87.75,208.49 a 70,70 0 0 0 35.87,18.41 69.15,69.15 0 0 0 28.67,-0.91 q 6.38,8 13.5,16.25 8.21,9.48 16.21,17.92 a 110.59,110.59 0 0 1 -37.46,9.58 108.19,108.19 0 0 1 -36.08,-3.34 114,114 0 0 1 -29.34,-13 118.54,118.54 0 0 1 -21,-16.49"
               class="cls-4"
               inkscape:connector-curvature="0"
               style="fill:none;stroke:#72be44;stroke-width:14px;stroke-miterlimit:10" />
            <path
               id="path3903"
               transform="translate(-19.98,-42.89)"
               d="m 214.29,83 a 109.93,109.93 0 0 1 32.45,76.58 v 0 a 104.74,104.74 0 0 1 -2.49,24.86 78.11,78.11 0 0 1 -6,16.5 l -33.87,-36.08 a 70,70 0 0 0 -1.71,-21 71.92,71.92 0 0 0 -18.42,-33.22"
               class="cls-4"
               inkscape:connector-curvature="0"
               style="fill:none;stroke:#72be44;stroke-width:14px;stroke-miterlimit:10" />
            <path
               id="path3905"
               transform="translate(-19.98,-42.89)"
               d="M 185,84.79"
               class="cls-4"
               inkscape:connector-curvature="0"
               style="fill:none;stroke:#72be44;stroke-width:14px;stroke-miterlimit:10" />
            <path
               id="path3907"
               transform="translate(-19.98,-42.89)"
               d="M 185,111.32"
               class="cls-4"
               inkscape:connector-curvature="0"
               style="fill:none;stroke:#72be44;stroke-width:14px;stroke-miterlimit:10" />
          </g>
          <path
             id="path3911"
             transform="translate(-19.98,-42.89)"
             d="m 229.76,268.93 a 3,3 0 0 1 -2.14,-1 L 149.3,180.51 a 6.41,6.41 0 0 1 0.43,-9 l 7.56,-6.88 a 7.51,7.51 0 0 1 10.58,0.5 l 79.38,88.72 c 6.89,7.65 10.71,12 12.42,13.9 a 0.77,0.77 0 0 1 -0.57,1.28 c -5.48,-0.03 -22.88,0.15 -29.34,-0.1 z"
             class="cls-5"
             inkscape:connector-curvature="0"
             style="fill:none;stroke:#f9a51a;stroke-width:14px;stroke-miterlimit:10" />
        </g>
        <path
           id="path3915"
           transform="translate(-19.98,-42.89)"
           d="m 1068,270.59 a 3,3 0 0 1 -2.14,-1 l -78.33,-87.41 a 6.42,6.42 0 0 1 0.43,-9 l 7.57,-6.88 a 7.51,7.51 0 0 1 10.58,0.5 l 79.37,88.72 c 6.9,7.65 10.72,12 12.42,13.9 a 0.77,0.77 0 0 1 -0.57,1.28 c -5.47,0 -22.87,0.14 -29.33,-0.11 z"
           class="cls-5"
           inkscape:connector-curvature="0"
           style="fill:none;stroke:#f9a51a;stroke-width:14px;stroke-miterlimit:10" />
        <path
           id="path3917"
           transform="translate(-19.98,-42.89)"
           d="m 807.84,268.87 a 3,3 0 0 1 -2.14,-1 l -78.33,-87.4 a 6.43,6.43 0 0 1 0.44,-9 l 7.56,-6.88 A 7.51,7.51 0 0 1 746,165 l 79.38,88.71 c 6.89,7.65 10.71,12 12.42,13.9 a 0.77,0.77 0 0 1 -0.57,1.28 c -5.53,0.11 -22.93,0.23 -29.39,-0.02 z"
           class="cls-5"
           inkscape:connector-curvature="0"
           style="fill:none;stroke:#f9a51a;stroke-width:14px;stroke-miterlimit:10" />
      </g>
    </g>
  </g>
</svg>
