<svg width="450" height="700" viewBox="0 0 119.063 185.208" style="enable-background:new" xmlns:xlink="http://www.w3.org/1999/xlink" xmlns="http://www.w3.org/2000/svg"><defs><linearGradient id="a"><stop style="stop-color:#e6e6e6;stop-opacity:1" offset="0"/><stop style="stop-color:#e6e6e6;stop-opacity:0" offset="1"/></linearGradient><linearGradient xlink:href="#a" id="b" x1="-128.672" y1="227.304" x2="-16.119" y2="114.752" gradientUnits="userSpaceOnUse" gradientTransform="translate(53.917 -72.869)"/><linearGradient xlink:href="#a" id="c" x1="-128.672" y1="227.304" x2="-16.119" y2="114.752" gradientUnits="userSpaceOnUse" gradientTransform="translate(53.917 -72.869)"/><linearGradient xlink:href="#a" id="d" x1="69.744" y1="251.713" x2="69.744" y2="92.54" gradientUnits="userSpaceOnUse" gradientTransform="translate(-13.401 -89.651)"/><linearGradient xlink:href="#a" id="e" x1="69.744" y1="251.713" x2="69.744" y2="92.54" gradientUnits="userSpaceOnUse" gradientTransform="translate(-13.401 -89.651)"/><linearGradient xlink:href="#a" id="f" x1="-847.015" y1="801.13" x2="223.358" y2="-269.243" gradientUnits="userSpaceOnUse"/><linearGradient xlink:href="#a" id="g" x1="-128.672" y1="227.304" x2="-16.119" y2="114.752" gradientUnits="userSpaceOnUse" gradientTransform="translate(53.917 -72.869)"/><linearGradient xlink:href="#a" id="k" x1="-533.568" y1="253.428" x2="623.792" y2="-56.686" gradientUnits="userSpaceOnUse"/><linearGradient xlink:href="#a" id="w" x1="69.744" y1="251.713" x2="69.744" y2="92.54" gradientUnits="userSpaceOnUse" gradientTransform="translate(-13.401 -89.651)"/><linearGradient xlink:href="#a" id="x" x1="-128.672" y1="227.304" x2="-16.119" y2="114.752" gradientUnits="userSpaceOnUse" gradientTransform="translate(53.917 -72.869)"/><linearGradient xlink:href="#a" id="y" x1="-183.118" y1="186.256" x2="-45.27" y2="106.67" gradientUnits="userSpaceOnUse" gradientTransform="translate(70.94 -56.431)"/><linearGradient xlink:href="#a" id="J" x1="59.724" y1="38.273" x2="607.316" y2="185" gradientUnits="userSpaceOnUse"/><linearGradient xlink:href="#a" id="P" x1="-225.085" y1="132.515" x2="-71.336" y2="91.318" gradientUnits="userSpaceOnUse" gradientTransform="translate(83.128 -36.148)"/><linearGradient xlink:href="#a" id="Q" x1="-64.815" y1="146.6" x2="482.777" y2="293.327" gradientUnits="userSpaceOnUse"/><linearGradient xlink:href="#a" id="R" x1="69.744" y1="251.713" x2="69.744" y2="92.54" gradientUnits="userSpaceOnUse" gradientTransform="translate(-13.401 -89.651)"/><linearGradient xlink:href="#a" id="S" x1="69.744" y1="251.713" x2="69.744" y2="92.54" gradientUnits="userSpaceOnUse" gradientTransform="translate(-13.401 -89.651)"/><linearGradient xlink:href="#a" id="T" x1="69.744" y1="251.713" x2="69.744" y2="92.54" gradientUnits="userSpaceOnUse" gradientTransform="translate(-13.401 -89.651)"/><linearGradient xlink:href="#a" id="ac" x1="248.556" y1="503.647" x2="1405.915" y2="193.534" gradientUnits="userSpaceOnUse"/><linearGradient xlink:href="#a" id="X" x1="166.763" y1="580.845" x2="1237.136" y2="-489.528" gradientUnits="userSpaceOnUse"/><linearGradient xlink:href="#a" id="U" gradientUnits="userSpaceOnUse" gradientTransform="translate(-52.685 -49.705)" x1="-22.07" y1="204.141" x2="90.482" y2="91.588"/><linearGradient xlink:href="#a" id="V" gradientUnits="userSpaceOnUse" gradientTransform="translate(-35.637 -58.89)" x1="-39.118" y1="213.325" x2="73.435" y2="100.773"/><linearGradient xlink:href="#a" id="W" gradientUnits="userSpaceOnUse" gradientTransform="translate(-77.692 -8.477)" x1="134.035" y1="170.539" x2="134.035" y2="11.365"/><linearGradient xlink:href="#a" id="Y" gradientUnits="userSpaceOnUse" gradientTransform="translate(-52.685 -49.705)" x1="-22.07" y1="204.141" x2="90.482" y2="91.588"/><linearGradient xlink:href="#a" id="ao" gradientUnits="userSpaceOnUse" gradientTransform="translate(-52.685 -49.705)" x1="-22.07" y1="204.141" x2="90.482" y2="91.588"/><linearGradient xlink:href="#a" id="af" gradientUnits="userSpaceOnUse" gradientTransform="rotate(45 175.435 84.833)" x1="145.834" y1="223.653" x2="33.281" y2="111.1"/><linearGradient xlink:href="#a" id="aj" gradientUnits="userSpaceOnUse" gradientTransform="rotate(-63.681 86.432 163.952)" x1="74.785" y1="136.143" x2="217.459" y2="65.571"/><linearGradient xlink:href="#a" id="n" gradientUnits="userSpaceOnUse" gradientTransform="translate(-70.986 -35.296)" x1="127.329" y1="197.358" x2="127.329" y2="38.185"/><linearGradient xlink:href="#a" id="av" gradientUnits="userSpaceOnUse" gradientTransform="translate(8.054 -100.559)" x1="48.289" y1="262.621" x2="48.289" y2="103.448"/><linearGradient xlink:href="#a" id="aE" gradientUnits="userSpaceOnUse" gradientTransform="rotate(45 144.858 30.942)" x1="174.984" y1="186.247" x2="62.432" y2="73.695"/><linearGradient xlink:href="#a" id="aF" x1="223.217" y1="747.899" x2="822.31" y2="-289.761" gradientUnits="userSpaceOnUse"/><linearGradient xlink:href="#a" id="aD" x1="379.029" y1="-540.028" x2="1170.127" y2="359.869" gradientUnits="userSpaceOnUse"/><linearGradient xlink:href="#a" id="aC" x1="156.15" y1="71.104" x2="40.983" y2="-38.772" gradientUnits="userSpaceOnUse"/><linearGradient xlink:href="#a" id="aB" x1="56.343" y1="162.062" x2="56.343" y2="2.889" gradientUnits="userSpaceOnUse"/><linearGradient xlink:href="#a" id="aA" x1="56.343" y1="162.062" x2="56.343" y2="2.889" gradientUnits="userSpaceOnUse"/><linearGradient xlink:href="#a" id="az" x1="132.427" y1="109.096" x2="49.621" y2="-26.844" gradientUnits="userSpaceOnUse"/><linearGradient xlink:href="#a" id="ay" x1="56.343" y1="162.062" x2="56.343" y2="2.889" gradientUnits="userSpaceOnUse"/><linearGradient xlink:href="#a" id="ax" x1="56.343" y1="162.062" x2="56.343" y2="2.889" gradientUnits="userSpaceOnUse"/><linearGradient xlink:href="#a" id="aw" x1="-578.94" y1="-24.517" x2="578.419" y2="-334.63" gradientUnits="userSpaceOnUse"/><linearGradient xlink:href="#a" id="au" x1="464.282" y1="259.485" x2="1011.874" y2="406.212" gradientUnits="userSpaceOnUse"/><linearGradient xlink:href="#a" id="at" x1="-141.957" y1="96.368" x2="11.792" y2="55.17" gradientUnits="userSpaceOnUse"/><linearGradient xlink:href="#a" id="as" x1="590.796" y1="49.145" x2="953.402" y2="677.197" gradientUnits="userSpaceOnUse"/><linearGradient xlink:href="#a" id="ar" x1="551.713" y1="82.286" x2="551.713" y2="986.077" gradientUnits="userSpaceOnUse"/><linearGradient xlink:href="#a" id="ap" x1="-32.237" y1="168.521" x2="47.35" y2="30.673" gradientUnits="userSpaceOnUse"/><linearGradient xlink:href="#a" id="an" x1="56.343" y1="162.062" x2="56.343" y2="2.889" gradientUnits="userSpaceOnUse"/><linearGradient xlink:href="#a" id="am" x1="56.343" y1="162.062" x2="56.343" y2="2.889" gradientUnits="userSpaceOnUse"/><linearGradient xlink:href="#a" id="al" x1="56.343" y1="162.062" x2="56.343" y2="2.889" gradientUnits="userSpaceOnUse"/><linearGradient xlink:href="#a" id="ak" x1="-171.571" y1="1.465" x2="-20.783" y2="52.449" gradientUnits="userSpaceOnUse"/><linearGradient xlink:href="#a" id="ai" x1="56.343" y1="162.062" x2="56.343" y2="2.889" gradientUnits="userSpaceOnUse"/><linearGradient xlink:href="#a" id="ah" x1="-105.556" y1="608.818" x2="493.537" y2="-428.842" gradientUnits="userSpaceOnUse"/><linearGradient xlink:href="#a" id="ag" x1="56.343" y1="162.062" x2="56.343" y2="2.889" gradientUnits="userSpaceOnUse"/><linearGradient xlink:href="#a" id="ae" x1="56.343" y1="162.062" x2="56.343" y2="2.889" gradientUnits="userSpaceOnUse"/><linearGradient xlink:href="#a" id="ad" x1="587.784" y1="318.361" x2="1135.376" y2="171.634" gradientUnits="userSpaceOnUse"/><linearGradient xlink:href="#a" id="ab" x1="324.296" y1="360.453" x2="1481.655" y2="50.339" gradientUnits="userSpaceOnUse"/><linearGradient xlink:href="#a" id="aa" x1="-74.755" y1="154.435" x2="37.798" y2="41.883" gradientUnits="userSpaceOnUse"/><linearGradient xlink:href="#a" id="Z" x1="56.343" y1="162.062" x2="56.343" y2="2.889" gradientUnits="userSpaceOnUse"/><linearGradient xlink:href="#a" id="O" x1="-157.093" y1="776.997" x2="1305.064" y2="385.213" gradientUnits="userSpaceOnUse"/><linearGradient xlink:href="#a" id="N" x1="-141.957" y1="96.368" x2="11.792" y2="55.17" gradientUnits="userSpaceOnUse"/><linearGradient xlink:href="#a" id="M" x1="295.024" y1="-97.859" x2="512.615" y2="279.02" gradientUnits="userSpaceOnUse"/><linearGradient xlink:href="#a" id="L" x1="56.343" y1="162.062" x2="56.343" y2="2.889" gradientUnits="userSpaceOnUse"/><linearGradient xlink:href="#a" id="K" x1="56.343" y1="162.062" x2="56.343" y2="2.889" gradientUnits="userSpaceOnUse"/><linearGradient xlink:href="#a" id="I" x1="189.697" y1="10.357" x2="739.541" y2="-127.694" gradientUnits="userSpaceOnUse"/><linearGradient xlink:href="#a" id="H" x1="203.001" y1="-28.069" x2="750.593" y2="118.658" gradientUnits="userSpaceOnUse"/><linearGradient xlink:href="#a" id="G" x1="-141.957" y1="96.368" x2="11.792" y2="55.17" gradientUnits="userSpaceOnUse"/><linearGradient xlink:href="#a" id="F" x1="-141.957" y1="96.368" x2="11.792" y2="55.17" gradientUnits="userSpaceOnUse"/><linearGradient xlink:href="#a" id="E" x1="886.714" y1="-438.717" x2="886.714" y2="465.074" gradientUnits="userSpaceOnUse"/><linearGradient xlink:href="#a" id="D" x1="-141.957" y1="96.368" x2="11.792" y2="55.17" gradientUnits="userSpaceOnUse"/><linearGradient xlink:href="#a" id="C" x1="-141.957" y1="96.368" x2="11.792" y2="55.17" gradientUnits="userSpaceOnUse"/><linearGradient xlink:href="#a" id="B" x1="56.343" y1="162.062" x2="56.343" y2="2.889" gradientUnits="userSpaceOnUse"/><linearGradient xlink:href="#a" id="A" x1="-141.957" y1="96.368" x2="11.792" y2="55.17" gradientUnits="userSpaceOnUse"/><linearGradient xlink:href="#a" id="z" x1="-417.64" y1="133.563" x2="129.953" y2="-13.164" gradientUnits="userSpaceOnUse"/><linearGradient xlink:href="#a" id="v" x1="-262.086" y1="490.255" x2="895.273" y2="180.142" gradientUnits="userSpaceOnUse"/><linearGradient xlink:href="#a" id="u" x1="1.631" y1="460.831" x2="1158.991" y2="150.717" gradientUnits="userSpaceOnUse"/><linearGradient xlink:href="#a" id="t" x1="-74.755" y1="154.435" x2="37.798" y2="41.883" gradientUnits="userSpaceOnUse"/><linearGradient xlink:href="#a" id="s" x1="56.343" y1="162.062" x2="56.343" y2="2.889" gradientUnits="userSpaceOnUse"/><linearGradient xlink:href="#a" id="r" x1="56.343" y1="162.062" x2="56.343" y2="2.889" gradientUnits="userSpaceOnUse"/><linearGradient xlink:href="#a" id="q" x1="56.343" y1="162.062" x2="56.343" y2="2.889" gradientUnits="userSpaceOnUse"/><linearGradient xlink:href="#a" id="p" x1="56.343" y1="162.062" x2="56.343" y2="2.889" gradientUnits="userSpaceOnUse"/><linearGradient xlink:href="#a" id="o" x1="56.343" y1="162.062" x2="56.343" y2="2.889" gradientUnits="userSpaceOnUse"/><linearGradient xlink:href="#a" id="m" x1="56.343" y1="162.062" x2="56.343" y2="2.889" gradientUnits="userSpaceOnUse"/><linearGradient xlink:href="#a" id="l" x1="181.669" y1="230.296" x2="729.261" y2="83.569" gradientUnits="userSpaceOnUse"/><linearGradient xlink:href="#a" id="j" x1="-457.828" y1="110.233" x2="699.531" y2="-199.88" gradientUnits="userSpaceOnUse"/><linearGradient xlink:href="#a" id="i" x1="-74.755" y1="154.435" x2="37.798" y2="41.883" gradientUnits="userSpaceOnUse"/><linearGradient xlink:href="#a" id="h" x1="56.343" y1="162.062" x2="56.343" y2="2.889" gradientUnits="userSpaceOnUse"/><linearGradient xlink:href="#a" id="aq" gradientUnits="userSpaceOnUse" x1="-32.237" y1="168.521" x2="47.35" y2="30.673" gradientTransform="translate(-38.464 28.126) scale(.79083)"/></defs><g style="display:inline"><path style="display:inline;fill:#fff;fill-opacity:.437238;stroke:none;stroke-width:1.92034;stroke-linejoin:round;stroke-miterlimit:4;stroke-dasharray:none;stroke-dashoffset:0;stroke-opacity:.0784314;enable-background:new" d="M128.36 92.445a27.675 21.132 19.467 0 0-16.817 5.979 27.675 21.132 19.467 0 0-5.379 13.358 20.802 15.884 19.467 0 0-13.673 4.47 20.802 15.884 19.467 0 0-3.185 14.077 29.018 22.157 19.467 0 0-8.973 4.985 29.018 22.157 19.467 0 0-5.577 14.786 18.29 13.966 19.467 0 0-14.649 3.68 18.29 13.966 19.467 0 0-.054.055 29.72 22.693 19.467 0 0-37.166 1.287 29.72 22.693 19.467 0 0 5.746 33.329 29.72 22.693 19.467 0 0 40.642.983 29.72 22.693 19.467 0 0 5.666-10.727 18.29 13.966 19.467 0 0 13.714-3.811 18.29 13.966 19.467 0 0 2.686-3.745 29.018 22.157 19.467 0 0 34.283-2.336 29.018 22.157 19.467 0 0-.92-28.332 20.802 15.884 19.467 0 0 .255-.216 20.802 15.884 19.467 0 0 3.431-5.23 27.675 21.132 19.467 0 0 26.349-4.662 27.675 21.132 19.467 0 0-5.35-31.036 27.675 21.132 19.467 0 0-21.03-6.894z"/></g><g transform="translate(0 -164.708)" style="display:inline"><circle style="opacity:1;fill:#fff;fill-opacity:1;stroke:none;stroke-width:2.0389;stroke-linejoin:round;stroke-miterlimit:4;stroke-dasharray:none;stroke-dashoffset:0;stroke-opacity:.0784314" cx="-285.989" cy="211.56" r="27.574" transform="rotate(-56.42)"/><ellipse style="display:inline;fill:#fff;fill-opacity:1;stroke:none;stroke-width:1.71844;stroke-linejoin:round;stroke-miterlimit:4;stroke-dasharray:none;stroke-dashoffset:0;stroke-opacity:.0784314;enable-background:new" cx="-252.27" cy="229.195" transform="matrix(.51748 -.8557 .80813 .589 0 0)" rx="23.664" ry="22.824"/><ellipse style="opacity:1;fill:#fff;fill-opacity:1;stroke:none;stroke-width:1.98903;stroke-linejoin:round;stroke-miterlimit:4;stroke-dasharray:none;stroke-dashoffset:0;stroke-opacity:.0784314" cx="-247.432" cy="267.225" transform="matrix(.57459 -.81844 .84737 .531 0 0)" rx="26.969" ry="26.83"/><ellipse style="opacity:1;fill:#fff;fill-opacity:1;stroke:none;stroke-width:3.01218;stroke-linejoin:round;stroke-miterlimit:4;stroke-dasharray:none;stroke-dashoffset:0;stroke-opacity:.0784314" cx="-212.298" cy="294.133" transform="matrix(.5545 -.83218 .83421 .55145 0 0)" rx="41.041" ry="40.433"/><ellipse style="opacity:1;fill:#fff;fill-opacity:1;stroke:none;stroke-width:1.56668;stroke-linejoin:round;stroke-miterlimit:4;stroke-dasharray:none;stroke-dashoffset:0;stroke-opacity:.0784314" cx="-173.944" cy="271.633" transform="matrix(.56028 -.8283 .83782 .54595 0 0)" rx="21.111" ry="21.264"/></g><g style="display:inline"><ellipse cx="78.092" cy="90.659" rx=".888" ry="1.191" style="fill:url(#b);fill-opacity:1;stroke-width:.105153" transform="rotate(-45)"/><ellipse cx="66.154" cy="76.355" rx=".888" ry="1.191" style="fill:url(#c);fill-opacity:1;stroke-width:.105153" transform="rotate(-45)"/><path d="M98.12 32.026c-.095.478-.845.317-.735-.159.096-.478.845-.317.735.159z" style="fill:url(#d);fill-opacity:1;stroke-width:.105153"/><path d="M93.808 6.448c-.096.478-.845.317-.735-.159.095-.478.845-.317.735.159z" style="fill:url(#e);fill-opacity:1;stroke-width:.105153"/><path transform="scale(.10515) rotate(-45 737.754 -498.057)" style="fill:url(#f);fill-opacity:1" d="m532.286 129.358.539-2.458 2.457.539.359-1.638-2.457-.539.538-2.458-1.638-.359-.539 2.458-2.457-.538-.359 1.638 2.457.539-.538 2.457z"/><circle cx="46.953" cy="73.637" r="1.125" style="fill:url(#g);fill-opacity:1;stroke-width:.105153" transform="rotate(-45)"/><path d="M106.434 54.07c-.096.478-.845.317-.735-.159.095-.478.845-.317.735.159z" style="fill:url(#h);fill-opacity:1;stroke-width:.105153;enable-background:new"/><ellipse cx="36.959" cy="98.132" rx=".302" ry=".405" style="fill:url(#i);fill-opacity:1;stroke-width:.0357116;enable-background:new" transform="rotate(-45)"/><path transform="scale(.13285) rotate(-75 706.24 90.393)" style="fill:url(#j);fill-opacity:1;enable-background:new" d="m532.084 122.445-.539 2.458-2.457-.538-.359 1.638 2.457.539-.538 2.457 1.638.359.539-2.458 2.457.539.359-1.638-2.457-.539.538-2.458z"/><path transform="scale(.13285) rotate(-75 575.063 112.637)" style="fill:url(#k);fill-opacity:1;enable-background:new" d="m531.186 126.542-.538 2.457 1.638.359.539-2.458 2.457.539.359-1.638-2.457-.539.538-2.458-1.638-.359-.539 2.458-2.457-.538-.359 1.638z"/><path transform="scale(.28077) rotate(-75 417.214 391.366)" style="fill:url(#l);fill-opacity:1;enable-background:new" d="m532.286 129.358.539-2.458 2.457.539.359-1.638-2.457-.539.538-2.458-1.638-.359-.539 2.458-2.457-.538-.359 1.638 2.457.539-.538 2.457z"/><path d="M73.895 34.038c-.096.479-.845.317-.735-.158.095-.479.845-.317.735.158z" style="fill:url(#m);fill-opacity:1;stroke-width:.105153;enable-background:new"/><path d="M40.536 86.38c-.096.48-.845.318-.736-.158.096-.478.845-.317.736.159z" style="display:inline;fill:url(#n);fill-opacity:1;stroke-width:.105153;enable-background:new"/><path d="M16.31 88.393c-.096.479-.845.317-.735-.158.096-.479.845-.317.735.158z" style="display:inline;fill:url(#o);fill-opacity:1;stroke-width:.105153;enable-background:new"/><path d="M43.903 100.659c-.096.478-.845.317-.735-.159.095-.478.845-.317.735.159z" style="fill:url(#p);fill-opacity:1;stroke-width:.105153;enable-background:new"/><path d="M20.42 69.39c-.096.479-.846.317-.736-.158.096-.478.845-.317.736.158z" style="fill:url(#q);fill-opacity:1;stroke-width:.105153;enable-background:new"/><path d="M77.596 57.777c-.096.478-.845.317-.735-.159.096-.478.845-.317.735.159z" style="fill:url(#r);fill-opacity:1;stroke-width:.105153;enable-background:new"/><path d="M51.56 41.057c-.095.479-.845.317-.735-.158.096-.478.845-.317.735.158z" style="fill:url(#s);fill-opacity:1;stroke-width:.105153;enable-background:new"/><ellipse cx="-16.068" cy="126.606" rx=".825" ry="1.106" style="fill:url(#t);fill-opacity:1;stroke-width:.0976289;enable-background:new" transform="rotate(-45)"/><path transform="scale(.13285) rotate(-75 707.516 565.08)" style="fill:url(#u);fill-opacity:1;enable-background:new" d="m532.825 126.9 2.457.539.359-1.638-2.457-.539.538-2.458-1.638-.359-.539 2.458-2.457-.538-.359 1.638 2.457.539-.538 2.457 1.638.359z"/><path transform="scale(.13285) rotate(-75 556.484 407.952)" style="fill:url(#v);fill-opacity:1;enable-background:new" d="m531.186 126.542-.538 2.457 1.638.359.539-2.458 2.457.539.359-1.638-2.457-.539.538-2.458-1.638-.359-.539 2.458-2.457-.538-.359 1.638z"/><path d="M27.01 2.666c-.095.479-.844.317-.734-.158.095-.479.845-.317.735.158z" style="display:inline;fill:url(#w);fill-opacity:1;stroke-width:.105153;enable-background:new"/><ellipse cx="36.413" cy="48.013" rx=".825" ry="1.106" style="display:inline;fill:url(#x);fill-opacity:1;stroke-width:.0976289;enable-background:new" transform="rotate(-45)"/><ellipse cx="8.107" cy="31.813" rx="1.135" ry="1.522" style="display:inline;fill:url(#y);fill-opacity:1;stroke-width:.134402;enable-background:new" transform="rotate(-60)"/><path transform="matrix(.07267 -.2712 .2712 .07267 50.47 39.09)" style="display:inline;fill:url(#z);fill-opacity:1;enable-background:new" d="m531.186 126.542-.538 2.457 1.638.359.539-2.458 2.457.539.359-1.638-2.457-.539.538-2.458-1.638-.359-.539 2.458-2.457-.538-.359 1.638z"/><ellipse cx="-100.16" cy="118.072" rx="1.186" ry="1.59" style="display:inline;fill:url(#A);fill-opacity:1;stroke-width:.140362;enable-background:new" transform="rotate(-75)"/><path d="M92.863 101.083c.156.463-.574.697-.716.23-.157-.462.573-.696.716-.23z" style="display:inline;fill:url(#B);fill-opacity:1;stroke-width:.105153;enable-background:new"/><ellipse cx="-53.499" cy="95.308" rx=".825" ry="1.106" style="display:inline;fill:url(#C);fill-opacity:1;stroke-width:.0976289;enable-background:new" transform="rotate(-75)"/><ellipse cx="-24.079" cy="123.341" rx=".825" ry="1.106" style="display:inline;fill:url(#D);fill-opacity:1;stroke-width:.0976289;enable-background:new" transform="rotate(-75)"/><path transform="matrix(-.17612 0 0 -.17612 212.508 84.796)" style="display:inline;fill:url(#E);fill-opacity:1;enable-background:new" d="m529.088 124.365-.359 1.638 2.457.539-.538 2.457 1.638.359.539-2.458 2.457.539.359-1.638-2.457-.539.538-2.458-1.638-.359-.539 2.458z"/><ellipse cx="-30.103" cy="75.251" rx=".825" ry="1.106" style="display:inline;fill:url(#F);fill-opacity:1;stroke-width:.0976289;enable-background:new" transform="rotate(-75)"/><ellipse cx="-29.902" cy="15.19" rx="1.186" ry="1.59" style="display:inline;fill:url(#G);fill-opacity:1;stroke-width:.140362;enable-background:new" transform="rotate(-75)"/><path transform="scale(-.28077) rotate(75 358.985 -565.67)" style="display:inline;fill:url(#H);fill-opacity:1;enable-background:new" d="m531.186 126.542-.538 2.457 1.638.359.539-2.458 2.457.539.359-1.638-2.457-.539.538-2.458-1.638-.359-.539 2.458-2.457-.538-.359 1.638z"/><path transform="scale(.28077) rotate(-75.906 558.56 286.744)" style="display:inline;fill:url(#I);fill-opacity:1;enable-background:new" d="m533.722 122.804-1.638-.359-.539 2.458-2.457-.538-.359 1.638 2.457.539-.538 2.457 1.638.359.539-2.458 2.457.539.359-1.638-2.457-.539z"/><path transform="scale(-.28077) rotate(75 330.576 -439.137)" style="display:inline;fill:url(#J);fill-opacity:1;enable-background:new" d="m531.186 126.542-.538 2.457 1.638.359.539-2.458 2.457.539.359-1.638-2.457-.539.538-2.458-1.638-.359-.539 2.458-2.457-.538-.359 1.638z"/><path d="M21.457 99.487c.156.462-.574.697-.716.23-.157-.462.573-.697.716-.23z" style="display:inline;fill:url(#K);fill-opacity:1;stroke-width:.105153;enable-background:new"/><path d="M41.115 47.389c.157.462-.573.697-.716.23-.156-.462.574-.697.716-.23z" style="display:inline;fill:url(#L);fill-opacity:1;stroke-width:.105153;enable-background:new"/><path transform="scale(-.36576) rotate(30 714.682 -1108.436)" style="display:inline;fill:url(#M);fill-opacity:1;enable-background:new" d="m533.722 122.804-1.638-.359-.539 2.458-2.457-.538-.359 1.638 2.457.539-.538 2.457 1.638.359.539-2.458 2.457.539.359-1.638-2.457-.539z"/><ellipse cx="-61.658" cy="35.129" rx=".888" ry="1.191" style="display:inline;fill:url(#N);fill-opacity:1;stroke-width:.105153;enable-background:new" transform="rotate(-75)"/><path transform="scale(.10515) rotate(-75 687.332 707.594)" style="display:inline;fill:url(#O);fill-opacity:1;enable-background:new" d="m535.282 127.439.359-1.638-2.457-.539.538-2.458-1.638-.359-.539 2.458-2.457-.538-.359 1.638 2.457.539-.538 2.457 1.638.359.539-2.458z"/><ellipse cx="-15.028" cy="31.426" rx=".825" ry="1.106" style="display:inline;fill:url(#P);fill-opacity:1;stroke-width:.0976289;enable-background:new" transform="rotate(-75)"/><path transform="scale(-.28077) rotate(75 338.894 -303.823)" style="display:inline;fill:url(#Q);fill-opacity:1;enable-background:new" d="m533.722 122.804-1.638-.359-.539 2.458-2.457-.538-.359 1.638 2.457.539-.538 2.457 1.638.359.539-2.458 2.457.539.359-1.638-2.457-.539z"/><path d="M28.942 4.042c.157.462-.573.697-.716.23-.156-.462.574-.697.716-.23z" style="display:inline;fill:url(#R);fill-opacity:1;stroke-width:.105153;enable-background:new"/><path d="M2.686 21.485c.157.463-.573.697-.716.23-.156-.462.574-.696.716-.23z" style="display:inline;fill:url(#S);fill-opacity:1;stroke-width:.105153;enable-background:new"/><path d="M48.5 18.418c.157.462-.572.697-.715.23-.156-.462.573-.697.716-.23z" style="display:inline;fill:url(#T);fill-opacity:1;stroke-width:.105153;enable-background:new"/><ellipse cx="-28.509" cy="113.822" rx=".888" ry="1.191" style="display:inline;fill:url(#U);fill-opacity:1;stroke-width:.105153;enable-background:new" transform="rotate(-45)"/><ellipse cx="-23.4" cy="90.334" rx=".888" ry="1.191" style="display:inline;fill:url(#V);fill-opacity:1;stroke-width:.105153;enable-background:new" transform="rotate(-45)"/><path d="M29.517 87.622c-.096.479-.845.317-.736-.158.096-.479.846-.317.736.158z" style="display:inline;fill:url(#W);fill-opacity:1;stroke-width:.105153;enable-background:new"/><path transform="scale(.10515) rotate(-45 1510.551 615.539)" style="display:inline;fill:url(#X);fill-opacity:1;enable-background:new" d="m531.545 124.903-2.457-.538-.359 1.638 2.457.539-.538 2.457 1.638.359.539-2.458 2.457.539.359-1.638-2.457-.539.538-2.458-1.638-.359z"/><circle cx="-59.648" cy="96.8" r="1.125" style="display:inline;fill:url(#Y);fill-opacity:1;stroke-width:.105153;enable-background:new" transform="rotate(-45)"/><path d="M31.56 151.119c-.097.478-.846.317-.736-.159.096-.478.845-.316.735.159z" style="display:inline;fill:url(#Z);fill-opacity:1;stroke-width:.105153;enable-background:new"/><ellipse cx="-69.643" cy="121.295" rx=".302" ry=".405" style="display:inline;fill:url(#aa);fill-opacity:1;stroke-width:.0357116;enable-background:new" transform="rotate(-45)"/><path transform="scale(.13285) rotate(-75 934.256 725.144)" style="display:inline;fill:url(#ab);fill-opacity:1;enable-background:new" d="m532.825 126.9 2.457.539.359-1.638-2.457-.539.538-2.458-1.638-.359-.539 2.458-2.457-.538-.359 1.638 2.457.539-.538 2.457 1.638.359z"/><path transform="scale(.13285) rotate(-75 803.079 747.388)" style="display:inline;fill:url(#ac);fill-opacity:1;enable-background:new" d="m533.722 122.804-1.638-.359-.539 2.458-2.457-.538-.359 1.638 2.457.539-.538 2.457 1.638.359.539-2.458 2.457.539.359-1.638-2.457-.539z"/><path transform="scale(.28077) rotate(-75 562.887 700.028)" style="display:inline;fill:url(#ad);fill-opacity:1;enable-background:new" d="m532.084 122.445-.539 2.458-2.457-.538-.359 1.638 2.457.539-.538 2.457 1.638.359.539-2.458 2.457.539.359-1.638-2.457-.539.538-2.458z"/><path d="M14.895 125.796c-.095.478-.845.317-.735-.159.096-.478.845-.317.735.159z" style="display:inline;fill:url(#ae);fill-opacity:1;stroke-width:.105153;enable-background:new"/><path d="M104.188 65.692c-.406.27-.821-.374-.407-.632.406-.27.821.373.407.632z" style="display:inline;fill:url(#af);fill-opacity:1;stroke-width:.105153;enable-background:new"/><ellipse cx="94.411" cy="71.796" rx=".302" ry=".405" style="display:inline;fill:url(#ag);fill-opacity:1;stroke-width:.0357116;enable-background:new"/><path transform="scale(.13285) rotate(-30 1299.637 -74.018)" style="display:inline;fill:url(#ah);fill-opacity:1;enable-background:new" d="m528.729 126.003 2.457.539-.538 2.457 1.638.359.539-2.458 2.457.539.359-1.638-2.457-.539.538-2.458-1.638-.359-.539 2.458-2.457-.538z"/><path d="M85.635 49.985c-.406.27-.821-.374-.407-.632.406-.27.821.373.407.632z" style="display:inline;fill:url(#ai);fill-opacity:1;stroke-width:.105153;enable-background:new"/><path d="M59.663 122.72c.387.298-.09.898-.468.589-.386-.298.09-.898.468-.589z" style="display:inline;fill:url(#aj);fill-opacity:1;stroke-width:.105153;enable-background:new"/><ellipse cx="-145.143" cy="23.317" rx=".302" ry=".405" style="display:inline;fill:url(#ak);fill-opacity:1;stroke-width:.0357116;enable-background:new" transform="rotate(-108.681)"/><path d="M50.726 145.327c.387.298-.09.898-.468.589-.386-.299.09-.899.468-.59z" style="display:inline;fill:url(#al);fill-opacity:1;stroke-width:.105153;enable-background:new"/><path d="M18.597 149.534c-.096.479-.846.317-.736-.158.096-.479.845-.317.736.158z" style="display:inline;fill:url(#am);fill-opacity:1;stroke-width:.105153;enable-background:new"/><path d="M50.768 133.905c-.095.478-.845.317-.735-.159.096-.478.845-.317.735.159z" style="display:inline;fill:url(#an);fill-opacity:1;stroke-width:.105153;enable-background:new"/><ellipse cx="-70.188" cy="71.177" rx=".825" ry="1.106" style="display:inline;fill:url(#ao);fill-opacity:1;stroke-width:.0976289;enable-background:new" transform="rotate(-45)"/><ellipse cx="-27.482" cy="148.232" rx=".825" ry="1.106" style="display:inline;fill:url(#ap);fill-opacity:1;stroke-width:.0976289;enable-background:new" transform="rotate(-30)"/><ellipse cx="-60.198" cy="145.352" rx=".652" ry=".875" style="display:inline;fill:url(#aq);fill-opacity:1;stroke-width:.0772079;enable-background:new" transform="rotate(-60)"/><path transform="rotate(179.695 76.755 88.278) scale(.17612)" style="display:inline;fill:url(#ar);fill-opacity:1;enable-background:new" d="m535.641 125.801-2.457-.539.538-2.458-1.638-.359-.539 2.458-2.457-.538-.359 1.638 2.457.539-.538 2.457 1.638.359.539-2.458 2.457.539z"/><path style="display:inline;fill:url(#as);fill-opacity:1;enable-background:new" transform="scale(-.21949) rotate(30 1636.575 -1926.07)" d="m535.641 125.801-2.457-.539.538-2.458-1.638-.359-.539 2.458-2.457-.538-.359 1.638 2.457.539-.538 2.457 1.638.359.539-2.458 2.457.539z"/><ellipse cx="-134.004" cy="42.01" rx=".825" ry="1.106" style="display:inline;fill:url(#at);fill-opacity:1;stroke-width:.0976289;enable-background:new" transform="rotate(-75)"/><path transform="scale(-.28077) rotate(75 677 -592.146)" style="display:inline;fill:url(#au);fill-opacity:1;enable-background:new" d="m533.722 122.804-1.638-.359-.539 2.458-2.457-.538-.359 1.638 2.457.539-.538 2.457 1.638.359.539-2.458 2.457.539.359-1.638-2.457-.539z"/><path d="M119.576 21.118c-.096.478-.845.317-.736-.159.096-.478.845-.317.736.159z" style="display:inline;fill:url(#av);fill-opacity:1;stroke-width:.105153;enable-background:new"/><path transform="scale(.13285) rotate(-75 733.49 -55.9)" style="display:inline;fill:url(#aw);fill-opacity:1;enable-background:new" d="m529.088 124.365-.359 1.638 2.457.539-.538 2.457 1.638.359.539-2.458 2.457.539.359-1.638-2.457-.539.538-2.458-1.638-.359-.539 2.458z"/><path d="M95.35 23.13c-.096.479-.845.317-.735-.158.096-.479.845-.317.735.158z" style="display:inline;fill:url(#ax);fill-opacity:1;stroke-width:.105153;enable-background:new"/><path d="M93.62 87.105c-.487.02-.507-.746-.02-.752.488-.02.508.747.02.752z" style="display:inline;fill:url(#ay);fill-opacity:1;stroke-width:.105153;enable-background:new"/><ellipse cx="140.167" cy="17.81" rx=".302" ry=".405" style="display:inline;fill:url(#az);fill-opacity:1;stroke-width:.0357116;enable-background:new" transform="rotate(31.347)"/><path d="M103.773 104.364c-.199.445-.894.124-.683-.316.199-.446.894-.124.683.316z" style="display:inline;fill:url(#aA);fill-opacity:1;stroke-width:.105153;enable-background:new"/><path d="M114.882 101.708c-.487.02-.507-.746-.02-.752.488-.02.508.747.02.752z" style="display:inline;fill:url(#aB);fill-opacity:1;stroke-width:.105153;enable-background:new"/><ellipse cx="148.395" cy="-6.03" rx=".825" ry="1.106" style="display:inline;fill:url(#aC);fill-opacity:1;stroke-width:.0976289;enable-background:new" transform="rotate(46.347)"/><path transform="matrix(-.09977 -.08771 .08771 -.09977 141.526 141.427)" style="display:inline;fill:url(#aD);fill-opacity:1;enable-background:new" d="m535.641 125.801-2.457-.539.538-2.458-1.638-.359-.539 2.458-2.457-.538-.359 1.638 2.457.539-.538 2.457 1.638.359.539-2.458 2.457.539z"/><path d="M57.126 71.529c-.406.27-.822-.374-.408-.632.406-.27.822.373.408.632z" style="display:inline;fill:url(#aE);fill-opacity:1;stroke-width:.105153;enable-background:new"/><path transform="scale(.13285) rotate(-30 1204.495 609.02)" style="display:inline;fill:url(#aF);fill-opacity:1;enable-background:new" d="m531.545 124.903-2.457-.538-.359 1.638 2.457.539-.538 2.457 1.638.359.539-2.458 2.457.539.359-1.638-2.457-.539.538-2.458-1.638-.359z"/></g><path style="display:inline;fill:#fff;fill-opacity:1;stroke:none;stroke-width:.327687px;stroke-linecap:butt;stroke-linejoin:miter;stroke-opacity:1;enable-background:new" d="M108.751 179.808 63 114.468l3.993-3.992 65.184 45.498z"/><path d="m73.028 127.778-1.434 1.516a1.452 1.452 0 0 1-.807.454c-.28.04-.514-.047-.644-.24l-1.168-1.75c-.22-.329-.091-.874.307-1.295l.792-.837c.399-.421.936-.58 1.277-.378l1.81 1.07c.201.118.302.348.276.629a1.452 1.452 0 0 1-.409.831zM81.956 118.767l-1.434 1.516a1.452 1.452 0 0 1-.808.454c-.279.04-.513-.047-.643-.24l-1.168-1.75c-.22-.329-.091-.874.307-1.295l.792-.837c.398-.421.935-.58 1.277-.378l1.81 1.07c.201.118.301.348.276.629a1.452 1.452 0 0 1-.409.831zM55.486 120.477a.455.455 0 0 1-.5-.737l16.302-17.227a.455.455 0 0 1 .644-.018.456.456 0 0 1 .018.644l-16.302 17.227a.453.453 0 0 1-.162.11z" style="display:inline;fill:#3f3d56;stroke-width:.105153;enable-background:new"/><path transform="rotate(-46.582)" style="display:inline;fill:#fff;fill-opacity:1;stroke-width:.105153;enable-background:new" d="M-47.189 115.504h6.78v22.89h-6.78z"/><path transform="matrix(.07435 -.07435 .07435 .07435 3.75 111)" style="display:inline;fill:#ebebeb;fill-opacity:1;enable-background:new" d="m356.629 366.828.011 153.759 15.096 4.329-2.718-191.837z"/><path d="M49.474 106.933c-.871.922-.004 3.157.618 3.746l1.126 1.066 3.157-3.336-1.126-1.066c-.623-.588-2.903-1.33-3.775-.41zM58.226 120.302a.895.895 0 0 1-1.264.035l-1.833-1.734a.894.894 0 1 1 1.229-1.299l1.833 1.735a.895.895 0 0 1 .035 1.263z" style="display:inline;fill:#3f3d56;stroke-width:.105153;enable-background:new"/><path transform="matrix(.07435 -.07435 .07435 .07435 3.75 111)" style="display:inline;fill:#3f3d56;enable-background:new" d="m320.125 339.284-.305-15.855 4.158-.103.305 15.804 3.769 230.346-4.159.115"/><path d="m59.6 111.118-5.404 5.71c-1.178-.116-3.984-2.825-3.4-4.458l-.304-1.172 3.186-3.512 1.168.385c1.02-.082 4.044 2.374 4.754 3.047z" style="display:inline;fill:#fff;fill-opacity:1;stroke-width:.105153;enable-background:new"/><path d="m56.186 111.887-1.367 1.444c-.263.279-.846.158-1.298-.27-.452-.428-.605-1.003-.341-1.281l1.366-1.444c.264-.28.846-.158 1.298.27.452.428.605 1.002.342 1.281z" style="display:inline;fill:#2f8fc6;fill-opacity:1;stroke-width:.105153;enable-background:new"/><path transform="matrix(.07435 -.07435 .07435 .07435 3.75 111)" style="display:inline;fill:#fff;fill-opacity:1;enable-background:new" d="m271.084 493.088-6.806 62.05 45.448-15.185.317-74.385z"/><path transform="rotate(-46.582)" style="display:inline;fill:#fff;fill-opacity:1;stroke-width:.105153;enable-background:new" d="M-34.104 115.585h6.78v22.89h-6.78z"/><path transform="matrix(.07435 -.07435 .07435 .07435 3.75 111)" style="display:inline;fill:#ebebeb;fill-opacity:1;enable-background:new" d="m442.149 367.222 3.979 153.708-14.979 4.719-2.261-191.843z"/><path d="M58.435 97.58c-.871.922-.004 3.158.618 3.747l1.127 1.066 3.156-3.336-1.126-1.066c-.622-.588-2.902-1.331-3.775-.41z" style="display:inline;fill:#3f3d56;stroke-width:.105153;enable-background:new"/><path transform="matrix(.07435 -.07435 .07435 .07435 3.75 111)" style="display:inline;fill:#3f3d56;enable-background:new" d="m470.459 344.247-.305-15.855 4.158-.104.305 15.805 3.769 230.346-4.159.115"/><path d="m68.561 101.766-5.403 5.71c-.683-.489-3.29-3.347-3.401-4.458l-.304-1.172 3.186-3.513 1.168.385c1.07-.908 4.101 1.432 4.754 3.048z" style="display:inline;fill:#fff;fill-opacity:1;stroke-width:.105153;enable-background:new"/><path d="m65.4 102.774-1.366 1.444c-.264.279-.903.104-1.425-.39s-.732-1.122-.468-1.4l1.367-1.445c.263-.278.902-.104 1.424.39.522.494.732 1.122.468 1.401z" style="display:inline;fill:#2f8fc6;fill-opacity:1;stroke-width:.105153;enable-background:new"/><path transform="matrix(.07435 -.07435 .07435 .07435 3.75 111)" style="display:inline;fill:#fff;fill-opacity:1;enable-background:new" d="m532.641 478.93 3.966 62.297-44.706-17.244 3.077-74.321z"/><path d="M34.079 83.525c-.871.922-.004 3.157.618 3.746l1.127 1.066 3.156-3.336-1.126-1.066c-.622-.588-2.903-1.33-3.775-.41zM77.518 123.098l-1.434 1.515a1.452 1.452 0 0 1-.808.454c-.28.041-.514-.046-.643-.24l-1.168-1.749c-.22-.33-.092-.875.307-1.296l.792-.837c.398-.42.935-.58 1.277-.378l1.81 1.07c.2.119.301.348.276.629a1.452 1.452 0 0 1-.41.832z" style="display:inline;fill:#3f3d56;stroke-width:.105153;enable-background:new"/><path transform="rotate(-46.582)" style="display:inline;fill:#fff;fill-opacity:1;stroke-width:.105153;enable-background:new" d="M-40.635 92.127h6.78v46.269h-6.78z"/><path transform="matrix(.07435 -.07435 .07435 .07435 3.75 111)" style="display:inline;fill:#3f3d56;enable-background:new" d="m397.76 325.949-.305-15.855 4.158-.103.305 15.804 3.769 230.346-4.159.115"/><path d="m47.584 89.962-6.314 6.672c-.797-.571-3.844-3.91-3.974-5.21l-.692-1.012 4.36-4.607 1.065.596c1.192-.096 4.726 2.774 5.555 3.56z" style="display:inline;fill:#fff;fill-opacity:1;stroke-width:.105153;enable-background:new"/><path d="m41.206 85.764-4.499 4.754c-.165.176-.396.227-.515.115a.205.205 0 0 1-.042-.056l-1.495-2.933c-.064-.125-.01-.317.128-.464l2.984-3.153c.138-.147.328-.21.456-.153l3.011 1.33c.154.069.17.284.036.48a.64.64 0 0 1-.064.08z" style="display:inline;fill:#fff;fill-opacity:1;stroke-width:.105153;enable-background:new"/><path d="M55.011 107.91a.802.802 0 0 1-.185.049.59.59 0 0 1-.499-.145l-6.256-5.92c-.259-.244-.224-.703.078-1.022l4.027-4.256c.302-.32.758-.379 1.017-.134l6.256 5.92a.59.59 0 0 1 .172.49.894.894 0 0 1-.25.533l-4.027 4.256a.938.938 0 0 1-.333.228z" style="display:inline;fill:#3f3d56;stroke-width:.105153;enable-background:new"/><path d="m39.295 86.892-1.366 1.444c-.264.278-.8.201-1.194-.172-.395-.374-.501-.904-.238-1.183l1.367-1.444c.263-.279.8-.202 1.194.172.394.373.5.904.237 1.183z" style="display:inline;fill:#2f8fc6;fill-opacity:1;stroke-width:.105153;enable-background:new"/><path d="M71.93 105.808a.895.895 0 0 1-1.264.035l-1.833-1.734a.894.894 0 0 1 1.229-1.299l1.833 1.735a.895.895 0 0 1 .035 1.263z" style="display:inline;fill:#3f3d56;stroke-width:.105153;enable-background:new"/><path transform="matrix(.07435 -.07435 .07435 .07435 3.75 111)" style="display:inline;fill:#fff;fill-opacity:1;enable-background:new" d="m460.93 168.524 3.966 62.297-44.706-17.244 3.078-74.321zM328.71 168.524l-3.966 62.297 44.706-17.244-3.078-74.321z"/></svg>