<svg id="Ebene_1" data-name="Ebene 1" xmlns="http://www.w3.org/2000/svg" width="356" height="495" viewBox="0 0 356 495">
  <defs>
    <style>
      .cls-1 {
        fill: #f1b291;
      }

      .cls-2 {
        fill: #2483c5;
      }

      .cls-3 {
        fill: #3a4449;
      }

      .cls-4 {
        fill: #60757c;
      }

      .cls-5 {
        fill: #40606d;
      }

      .cls-6 {
        fill: #456572;
      }

      .cls-7 {
        opacity: 0.61;
      }

      .cls-8 {
        fill: #a77056;
      }

      .cls-9 {
        opacity: 0.62;
      }

      .cls-10 {
        opacity: 0.51;
      }

      .cls-11 {
        fill: #4a565b;
      }

      .cls-12 {
        opacity: 0.77;
      }

      .cls-13 {
        fill: #2b4c57;
      }

      .cls-14 {
        opacity: 0.81;
      }

      .cls-15 {
        opacity: 0.56;
      }

      .cls-16 {
        opacity: 0.68;
      }

      .cls-17 {
        fill: #755946;
      }

      .cls-18 {
        fill: none;
        stroke: #353e45;
        stroke-miterlimit: 10;
        stroke-width: 3px;
      }

      .cls-19 {
        fill: #a7755c;
      }

      .cls-20 {
        fill: #f7f5f5;
      }

      .cls-21 {
        fill: #684f3c;
      }

      .cls-22 {
        fill: #5b422a;
      }

      .cls-23 {
        fill: #1b6087;
      }

      .cls-24 {
        fill: #65262d;
        opacity: 0.9;
      }

      .cls-25 {
        fill: #cb5b65;
        opacity: 0.84;
      }

      .cls-26 {
        fill: #915a46;
      }

      .cls-27 {
        opacity: 0.8;
      }

      .cls-28 {
        fill: #353e45;
      }
    </style>
  </defs>
  <title>Q_handstand</title>
  <path class="cls-1" d="M246.85,441.21s5.31,7.62-2.21,13.76c-11.16,9.11-25,10.55-35.84,9.88-15.54-1-23.45-7.87-18.35-13.45,4.42-4.84,21-14.55,32.31-15.26S243.71,437.66,246.85,441.21Z"/>
  <path class="cls-1" d="M149.1,416.44c2.82,5.27-1.33,10.06-12.51,11.41-24.19,2.91-45.46,5.59-45.57-4.41-.07-6.61,19.9-15.47,33.77-16.38S146.53,411.63,149.1,416.44Z"/>
  <path class="cls-1" d="M211.24,444.2s-14.44-.13-12.68-4.88,23.59-2,23.59-2Z"/>
  <path class="cls-2" d="M203.87,316s9,35.78,51.15,37.12c51,1.61,53.44-32.93,53.44-32.93s-12.16,11-34.72,16.6c-19.42,4.84-38-1.84-47.11-6.18s-20.31-17.65-20.31-17.65Z"/>
  <path class="cls-2" d="M206.25,308.94s20.31,17.65,38.29,16.34,35.25-14.61,35.25-14.61l2.08,4.46s-15.69,16.56-31.22,16.54c-27,0-40.23-12.8-40.23-12.8Z"/>
  <path class="cls-3" d="M116.86,144s2.63,7.46,3.71,11.94a40.93,40.93,0,0,1,1.14,8s-9.46,2.16-35.46,2.62a158.13,158.13,0,0,1-37.57-3.85s5.26-7.11,18.79-12.49A105.21,105.21,0,0,1,90.86,144Z"/>
  <path class="cls-4" d="M90.86,144a70.39,70.39,0,0,0,11.2,1.64,59.83,59.83,0,0,0,13.33-.56L118.73,127l-20.08-4.32Z"/>
  <path class="cls-5" d="M190.81,130s-13.1-24-41-19.56S120.41,147,120.41,147L83.54,135.61S103.81,83,141.85,75.93c47.19-8.82,73.85,28.32,81.45,43.52C228.26,129.37,190.81,130,190.81,130Z"/>
  <path class="cls-6" d="M194.61,137.28l-4.82-8.58s16.11-11.28,46.14-11.8c36.66-.64,48.84,9.49,48.84,9.49l2.3,17.3Z"/>
  <path class="cls-6" d="M249.38,123.66s-13.31-37.11-34-38.75S173.81,111,173.81,111l-29.18-29.5s34-40.93,86.19-29.17c43.63,9.83,55.56,85.19,55.56,85.19Z"/>
  <path class="cls-5" d="M153.93,252.67s19.23-12.73,25.6-42.28c8.33-38.65-6.67-77.06-6.67-77.06s36.54-6.93,65.9-6.48c40.68.63,71.59,14.09,71.59,14.09s6.4,61.23-16.09,110.3c-19.4,42.34-61,59.73-61,59.73s-26.13,5.41-54.12.08S153.93,252.67,153.93,252.67Z"/>
  <path class="cls-3" d="M171.21,105.05s-2.9,6.05-5.81,11.1a70.28,70.28,0,0,1-6.34,9.11,211.44,211.44,0,0,1-25.83-18.55c-14.84-12.61-27.55-31.53-27.55-31.53a70.57,70.57,0,0,1,23,2.1c9.66,2.42,23.19,10.6,23.19,10.6Z"/>
  <path class="cls-6" d="M217.74,308.24s11.64,37.53,10.26,62.83c-2,37-15.84,67.29-15.84,67.29a86.37,86.37,0,0,0,18.43,5.18c11.53,1.8,18.34.18,18.34.18s15.36-46.77,14.38-74.26c-1.4-39.48-15.39-79.75-15.39-79.75s-6.71-2.21-16.45,3.29C219.59,299.71,217.74,308.24,217.74,308.24Z"/>
  <path class="cls-5" d="M134.09,278.72s9.45,45.79,5.19,70.77c-6.23,36.57-24,57.2-24,57.2A86.37,86.37,0,0,0,133,413.93c11.25,3.1,18.2,2.27,18.2,2.27s19.11-39.84,21.27-67.26c3.1-39.38-8.88-81.09-8.88-81.09s-3.14-2.15-14.08.14A23.6,23.6,0,0,0,134.09,278.72Z"/>
  <path class="cls-1" d="M134.64,422.32s-19,8.45-11.26,11.37c7.46,2.82,23.3-7,24.71-10C151.26,416.94,134.64,422.32,134.64,422.32Z"/>
  <g class="cls-7">
    <path class="cls-8" d="M189.88,457.94c1.91-1.48,3.85-2.8,5.86-4.07a62.73,62.73,0,0,1,6.23-3.46c2.15-1,4.34-1.9,6.56-2.71s4.46-1.52,6.74-2.15l.26.9a84,84,0,0,0-12.85,5.35,61.05,61.05,0,0,0-5.9,3.63c-1.89,1.31-3.76,2.72-5.5,4.19Z"/>
  </g>
  <g class="cls-7">
    <path class="cls-8" d="M203,462.78a58.33,58.33,0,0,1,5.79-3.78q3-1.71,6-3.2c2-1,4.11-1.94,6.22-2.79a48.36,48.36,0,0,1,6.49-2.2l.2.86a47.73,47.73,0,0,0-6.21,2.44c-2,.94-4,2-6,3s-3.89,2.22-5.76,3.43a56.91,56.91,0,0,0-5.36,3.88Z"/>
  </g>
  <g class="cls-9">
    <path class="cls-8" d="M94.36,427.39a42.35,42.35,0,0,1,6.39-3.54,69.12,69.12,0,0,1,6.68-2.65,112,112,0,0,1,13.84-3.57l.26,1.26A110.61,110.61,0,0,0,108,422.84a67.06,67.06,0,0,0-6.42,2.79,40.84,40.84,0,0,0-5.91,3.51Z"/>
  </g>
  <g class="cls-10">
    <path class="cls-8" d="M123,429.2a16.58,16.58,0,0,1,4.87-4.7,17.88,17.88,0,0,1,3-1.57,11,11,0,0,1,3.31-.84c-1.89,1.28-3.71,2.42-5.55,3.62l-2.76,1.77C124.93,428.06,124,428.67,123,429.2Z"/>
  </g>
  <path class="cls-11" d="M105.68,75.18S120.53,95.26,130,104.77s28.7,20.84,28.7,20.84l2.6-3.71s-9.83-9.16-26.41-23.55S105.68,75.18,105.68,75.18Z"/>
  <g class="cls-12">
    <path class="cls-13" d="M173.81,111a60.45,60.45,0,0,1,8.1-11.37,64.71,64.71,0,0,1,4.94-5,56.26,56.26,0,0,1,5.58-4.37l1.49-1,1.56-.88a31.43,31.43,0,0,1,3.23-1.59,41.59,41.59,0,0,1,6.76-2.18,28.75,28.75,0,0,1,7.08-.79,13.61,13.61,0,0,1,6.82,1.71,16.29,16.29,0,0,0-6.74-.24,36.17,36.17,0,0,0-6.53,1.58,54.93,54.93,0,0,0-6.24,2.52c-1,.52-2,.94-2.94,1.55l-1.44.85-1.39.94a84.59,84.59,0,0,0-10.53,8.52C180.25,104.34,177,107.6,173.81,111Z"/>
  </g>
  <g class="cls-12">
    <path class="cls-13" d="M194.08,126a63.86,63.86,0,0,1,11.82-5.55c2-.77,4.14-1.37,6.24-2s4.25-1,6.41-1.44a78.66,78.66,0,0,1,13-1.2,53.57,53.57,0,0,1,13,1.28c-4.35.22-8.61.59-12.87,1.06s-8.47,1.09-12.66,1.81-8.34,1.69-12.5,2.69S198.28,124.81,194.08,126Z"/>
  </g>
  <g class="cls-14">
    <path class="cls-13" d="M173.21,134c10.79-3.49,22.08-5.21,33.34-6.39a271,271,0,0,1,34-1,232.28,232.28,0,0,1,33.8,3.72A171.07,171.07,0,0,1,307,139.67a149.47,149.47,0,0,0-16.21-5q-8.22-2.11-16.58-3.57a245.82,245.82,0,0,0-33.7-3.47,289.87,289.87,0,0,0-33.89.76c-5.63.49-11.25,1.13-16.83,2A135.89,135.89,0,0,0,173.21,134Z"/>
  </g>
  <g class="cls-15">
    <path class="cls-13" d="M177.64,231.35a183.3,183.3,0,0,1,19,.52,160.63,160.63,0,0,1,18.9,2.46c3.12.69,6.2,1.51,9.24,2.43s6.05,2,9,3.1a162.46,162.46,0,0,1,17.39,7.69c-3-1.07-5.94-2.18-8.94-3.19s-6-2.05-9-3a186.38,186.38,0,0,0-18.16-5c-3-.65-6.16-1.15-9.28-1.6s-6.24-.87-9.37-1.27C190.22,232.67,183.94,232,177.64,231.35Z"/>
  </g>
  <g class="cls-15">
    <path class="cls-13" d="M186,221.75c5-.81,10-1.35,15-1.71s10.07-.56,15.13-.46c2.53.07,5.07.22,7.61.54s5,.8,7.48,1.38a81.33,81.33,0,0,1,14.4,4.68q-7.33-1.87-14.7-3.15c-2.46-.39-4.93-.79-7.4-1s-4.93-.39-7.43-.42-5-.07-7.5-.06-5,.05-7.52.07C196.1,221.66,191.08,221.76,186,221.75Z"/>
  </g>
  <g class="cls-16">
    <path class="cls-13" d="M246.9,288.07c2,5.05,3.84,10.2,5.48,15.4s3.11,10.46,4.3,15.79,2.2,10.68,3.09,16l1.24,8.07c.35,2.7.73,5.4,1,8.11-.61-2.66-1.15-5.32-1.75-8l-1.66-8c-1.12-5.32-2.19-10.65-3.37-15.95s-2.53-10.54-3.91-15.8c-.7-2.63-1.44-5.24-2.18-7.85Z"/>
  </g>
  <g class="cls-16">
    <path class="cls-8" d="M112.46,413.55c-3.64,1.19-7.23,2.5-10.7,4-1.74.75-3.38,1.61-5,2.52l-4.94,2.81-.58-.79a33.2,33.2,0,0,1,10-5.93,52.26,52.26,0,0,1,5.53-1.76,46.66,46.66,0,0,1,5.67-1.16Z"/>
  </g>
  <path class="cls-17" d="M68.25,354s22.16,11.82,35.86,9.67c10-1.57,25.72-8.24,25.72-8.24L68.28,343.35Z"/>
  <path class="cls-1" d="M166,254.67s14.86-1.57,25.24,9.86c14.56,16,23.12,67.24,17.39,76.17-5,7.76-47.16,16-85.17,16.87-29.9.68-58.69-8.52-58.69-8.52S51.86,322.6,50.12,298.64a84.17,84.17,0,0,1,5.7-36L150.44,255"/>
  <path class="cls-17" d="M58.3,273.88s16.5,3,29.33.63c11.08-2.09,36.54-9.55,36.54-9.55a104.58,104.58,0,0,0,13.92,4c9.35,1.72,15.27-2.08,15.27-2.08l-19.85-10.12,38.76-1.86s-2.57-7.06-12.4-8.64-41.23-6.83-62.14-5.16c-7.3.58-42.68,5.85-48.07,11.05a11.47,11.47,0,0,0-3.57,8.32,16.44,16.44,0,0,0-11.21,15.22c-1,18,7.91,55.79,14.89,69.35,5.36,10.42,24.6,22,24.6,22s-.57-15.45-3.45-22.69-13.46-25.77-13.46-25.77,8.83,10.72,11.8,13.76,10.44,8.17,10.44,8.17-3.63-14.31-5.74-18.9-14.71-22-14.71-22,6.31,6.5,9.51,9.48a61.49,61.49,0,0,0,7.06,5.5s-1.36-13.66-5.65-23.09S58.3,273.88,58.3,273.88Z"/>
  <line class="cls-18" x1="129.71" y1="269.69" x2="130.76" y2="251.17"/>
  <path class="cls-1" d="M145.69,262.89s-15.77-3.24-19.18-13.18c-4.81-14.05,26.42-15.48,33.66-6.89,6.35,7.53,3.73,13.76,3.73,13.76"/>
  <path class="cls-19" d="M152.47,257.54a19,19,0,0,1-13.09-3.49,12.78,12.78,0,0,1-2.62-2.59,12.51,12.51,0,0,1-1-1.55,11.25,11.25,0,0,1-.72-1.75c-.77-2.39-.49-5.33,1.33-7a12,12,0,0,0,1.88,5.63,18.07,18.07,0,0,0,1.64,2.22,15.58,15.58,0,0,0,2,2,33.13,33.13,0,0,0,4.94,3.41C148.58,255.46,150.48,256.47,152.47,257.54Z"/>
  <path class="cls-20" d="M126.41,277.42c7.77-.94,14.17,4,15.32,12.21a13.65,13.65,0,0,1-11.94,15.58,14,14,0,1,1-3.38-27.8Z"/>
  <path class="cls-20" d="M134.7,329.58c7.7-.42,14.07,3,15.1,10.63,1,7.14-4.52,13.18-12.14,14.41-8.08,1.3-14.35-3.9-15.22-11.05S127.52,330,134.7,329.58Z"/>
  <path class="cls-21" d="M111.28,312.69a99.36,99.36,0,0,1-.35-20.37,66.37,66.37,0,0,1,3.69-16l-4.09.84s-5,3.52-6.08,15.45a60.69,60.69,0,0,0,1.93,19.93Z"/>
  <path class="cls-22" d="M120.4,303.45a10.19,10.19,0,0,1-5.77-4.91,14,14,0,0,1-1.61-7.67,14.22,14.22,0,0,1,2.54-7.4,11.48,11.48,0,0,1,6.09-4.5,19.55,19.55,0,0,0-4,5.7,17.76,17.76,0,0,0-1.58,6.39,16.93,16.93,0,0,0,.76,6.52A15.09,15.09,0,0,0,120.4,303.45Z"/>
  <path class="cls-22" d="M133,354.8a8.76,8.76,0,0,1-6.67-2.12,13.51,13.51,0,0,1-4.05-5.94,12,12,0,0,1-.57-7.2,9.29,9.29,0,0,1,4-5.7,12.54,12.54,0,0,0-2.11,6,13.46,13.46,0,0,0,1.09,6,18.23,18.23,0,0,0,3.09,5.32A12.91,12.91,0,0,0,133,354.8Z"/>
  <path class="cls-21" d="M115.11,331.88a51,51,0,0,0,3.4,13.65,47.8,47.8,0,0,0,7.5,12.81l-3.73.08a21.76,21.76,0,0,1-9-10.06,32.2,32.2,0,0,1-2.55-15.4Z"/>
  <ellipse class="cls-23" cx="129.15" cy="290.54" rx="7.42" ry="5.83" transform="translate(-55.96 32.03) rotate(-11.64)"/>
  <ellipse class="cls-23" cx="136.42" cy="340.83" rx="7.21" ry="5.35" transform="translate(-61.99 31.95) rotate(-10.9)"/>
  <path class="cls-18" d="M136.59,370.08s19.89-8,21-9.4-3.49-31.79-3.49-31.79"/>
  <g>
    <path class="cls-1" d="M112.5,327.08s21.42,3.86,34.36,4.79,23.14-1,24.39-3.25,1.29-8.7-.65-15.43-4.89-9.69-4.89-9.69"/>
    <path class="cls-8" d="M112.5,327.08,134,329c7.16.62,14.28,1.26,21.28.88,1.75-.09,3.49-.24,5.21-.46a40.73,40.73,0,0,0,5-.88,22.84,22.84,0,0,0,2.29-.69l.49-.2a2.26,2.26,0,0,0,.43-.2c.27-.12.45-.3.38-.22a.24.24,0,0,0-.07.13s0-.07,0-.09a2.3,2.3,0,0,0,.12-.34,7.07,7.07,0,0,0,.23-1,16.59,16.59,0,0,0,.21-2.32,32.56,32.56,0,0,0-.26-5,38,38,0,0,0-.92-5c-.82-3.32-1.61-6.52-2.78-10.17a11.75,11.75,0,0,1,4.32,3.84,19.74,19.74,0,0,1,2.6,5.11,36.59,36.59,0,0,1,2,11.29,21.46,21.46,0,0,1-.23,3.05,11.94,11.94,0,0,1-.37,1.66,7.06,7.06,0,0,1-.36.93,4.84,4.84,0,0,1-.26.51,7.19,7.19,0,0,1-.5.66,6,6,0,0,1-1.8,1.33,5.81,5.81,0,0,1-.79.37l-.76.3a24.74,24.74,0,0,1-2.91.76,55.53,55.53,0,0,1-11.21.93,91.68,91.68,0,0,1-11-.75c-3.62-.43-7.19-1-10.75-1.68Q123,329.86,112.5,327.08Z"/>
  </g>
  <path class="cls-24" d="M181.55,328.24s13-6.31,10.84-20.67c-2.54-17.14-23.7-19.51-23.7-19.51"/>
  <path class="cls-25" d="M191.07,315.59s2.27-4.13.17-10.81S181.58,293,181.58,293a47.83,47.83,0,0,0,2.57,12.44A30.35,30.35,0,0,0,191.07,315.59Z"/>
  <path class="cls-20" d="M181.55,328.24s4.27-2.63,4.73-3.45a30.8,30.8,0,0,0,.61-15.27,63.82,63.82,0,0,0-8.2-18.1,39.75,39.75,0,0,0-4.88-1.88,35.64,35.64,0,0,0-4.56-.76s8,14.51,9.93,22.28A107.63,107.63,0,0,1,181.55,328.24Z"/>
  <g>
    <path class="cls-1" d="M180.31,331.72a36.9,36.9,0,0,0,.91-19c-3.41-16.54-13.56-25.22-13.56-25.22"/>
    <path class="cls-26" d="M179.65,331.47a33.77,33.77,0,0,0,.94-5.77,42.84,42.84,0,0,0,.11-5.85,45.35,45.35,0,0,0-2.16-11.45,54.63,54.63,0,0,0-4.64-10.74,47.65,47.65,0,0,0-3.18-4.94,40.32,40.32,0,0,0-3.69-4.5l1.25-1.46a38.65,38.65,0,0,1,8,9.46,46.43,46.43,0,0,1,5.1,11.29c.3,1,.59,2,.8,3s.47,2,.62,3.05a36.24,36.24,0,0,1,.46,6.23A32.68,32.68,0,0,1,181,332Z"/>
  </g>
  <path class="cls-8" d="M164.68,292a6.25,6.25,0,0,1-.42-3.69,7.49,7.49,0,0,1,1.58-3.49,7.28,7.28,0,0,1,3.14-2.24,5.64,5.64,0,0,1,3.74-.14c-1,.8-1.81,1.49-2.57,2.18a20.51,20.51,0,0,0-2,2.1,22.29,22.29,0,0,0-1.69,2.38Z"/>
  <g class="cls-27">
    <path class="cls-8" d="M197.24,315.57a32.67,32.67,0,0,0,1.19-4.53,19.77,19.77,0,0,0,.33-4.3,20.24,20.24,0,0,0-.65-4.27A45.61,45.61,0,0,0,196.7,298a9.6,9.6,0,0,1,3.42,3.67,11.05,11.05,0,0,1,.36,10.06A9.05,9.05,0,0,1,197.24,315.57Z"/>
  </g>
  <path class="cls-8" d="M163.81,255.64a28,28,0,0,1,6.7-.81,31.54,31.54,0,0,1,6.77.66,30.11,30.11,0,0,1,12.44,5.64,34.65,34.65,0,0,1,8.5,10.78,77.83,77.83,0,0,1,5.29,12.53,133.78,133.78,0,0,1,3.6,13c1,4.4,1.92,8.77,2.71,13.22a76.55,76.55,0,0,1,1.07,13.51,74.89,74.89,0,0,1-1.27,13.43,128.19,128.19,0,0,0,0-13.4A100.61,100.61,0,0,0,208.07,311a234.77,234.77,0,0,0-6.65-25.88,85.78,85.78,0,0,0-5-12.25,34.7,34.7,0,0,0-7.78-10.4A30.72,30.72,0,0,0,177,256.54,34.41,34.41,0,0,0,163.81,255.64Z"/>
  <path class="cls-28" d="M135.7,371.33l-4.13-25.5c-1.36-8.5-2.79-17-4.1-25.51q-3.93-25.56-7.1-51.21l4-.47q3.06,25.57,7,51.09c1.29,8.5,2.7,17,4,25.48l4.07,25.48Z"/>
  <path class="cls-18" d="M129.85,320.49s19.18-6.25,20.71-8.78S147.41,276.88,146,274s-24.69-3.78-24.69-3.78"/>
  <polygon class="cls-28" points="137.56 332.69 135.29 319.26 137.82 318.88 139.54 332.4 137.56 332.69"/>
</svg>
