<svg xmlns="http://www.w3.org/2000/svg" width="356" height="545" viewBox="0 0 356 545">
  <defs>
    <style>
      .cls-1 {
        isolation: isolate;
      }

      .cls-2 {
        fill: #3c5968;
      }

      .cls-3 {
        fill: #f1b291;
      }

      .cls-4 {
        opacity: 0.61;
      }

      .cls-5 {
        fill: #a77056;
      }

      .cls-6 {
        fill: #3b5b66;
      }

      .cls-7 {
        fill: #2b4c57;
      }

      .cls-8 {
        fill: #3a4449;
      }

      .cls-9 {
        fill: #40606d;
      }

      .cls-10 {
        fill: #42626d;
      }

      .cls-11 {
        fill: #2f545e;
      }

      .cls-12 {
        fill: #b6e0ef;
      }

      .cls-13 {
        fill: #2483c5;
      }

      .cls-14 {
        opacity: 0.6;
      }

      .cls-15 {
        fill: #405e6b;
      }

      .cls-16 {
        opacity: 0.7;
      }

      .cls-17 {
        fill: #eff4f4;
      }

      .cls-18, .cls-25 {
        fill: #536872;
      }

      .cls-18 {
        stroke: #405a63;
        stroke-width: 1.04px;
      }

      .cls-18, .cls-27 {
        stroke-miterlimit: 10;
      }

      .cls-18, .cls-23 {
        opacity: 0.3;
      }

      .cls-19 {
        mix-blend-mode: multiply;
      }

      .cls-20 {
        fill: #f9a51a;
      }

      .cls-21 {
        fill: #ec125f;
      }

      .cls-22 {
        fill: #72be44;
      }

      .cls-24 {
        fill: #516672;
      }

      .cls-25 {
        opacity: 0.18;
      }

      .cls-26 {
        fill: #755946;
      }

      .cls-27 {
        fill: none;
        stroke: #353e45;
        stroke-width: 3px;
      }

      .cls-28 {
        fill: #a7755c;
      }

      .cls-29 {
        fill: #f7f5f5;
      }

      .cls-30 {
        fill: #684f3c;
      }

      .cls-31 {
        fill: #5b422a;
      }

      .cls-32 {
        fill: #1b6087;
      }

      .cls-33 {
        fill: #65262d;
        opacity: 0.9;
      }

      .cls-34 {
        fill: #cb5b65;
        opacity: 0.84;
      }

      .cls-35 {
        fill: #915a46;
      }

      .cls-36 {
        opacity: 0.8;
      }

      .cls-37 {
        fill: #353e45;
      }
    </style>
  </defs>
  <title>Q_happy</title>
  <g class="cls-1">
    <g id="Ebene_1" data-name="Ebene 1">
      <path class="cls-2" d="M269.54,329.75l3.76,28.86s-29.72,13.8-60.92,19.71-49,8.25-49,8.25l-7.67-44Z"/>
      <path class="cls-3" d="M293.33,81.08c-11.45,6.07-22,3.38-27.91-.59-10.78-7.29-19.51-19.39-16.17-21.06,5.22-2.61,15.06,6.49,15.06,6.49s-1.83-2.29-5-15.48c-2.25-9.25-1.84-21.82,2-22.71s6.61,14.22,7.39,17.65a72.31,72.31,0,0,0,3.48,9.51s-.75-6.89-1.25-14.36c-.54-8,2.2-19.87,4.81-19.55,4.59.57,3.92,11.4,4.94,19.12a58.3,58.3,0,0,0,3,11.26,35.72,35.72,0,0,1,.29-10.74c.85-5.33,3.56-14,6.8-11.69s1.17,15.22,1.9,21.26c1.21,10,3.13,13,4.3,18.88C298.23,75.5,296.94,79.17,293.33,81.08Z"/>
      <g class="cls-4">
        <path class="cls-5" d="M289.76,52.85a65,65,0,0,0-6.51.67c-2.14.33-4.24.71-6.36,1.18s-4.23.93-6.37,1.39S266.24,57,264,57.4a32.13,32.13,0,0,1,6-2.91,45.6,45.6,0,0,1,6.4-1.88,33.47,33.47,0,0,1,6.68-.75A19,19,0,0,1,289.76,52.85Z"/>
      </g>
      <g class="cls-4">
        <path class="cls-5" d="M265.89,66.73a12.11,12.11,0,0,1,6-2.37,11,11,0,0,1,6.61,1.3,14,14,0,0,1,4.82,4.58,12.46,12.46,0,0,1,2,6.12,20.56,20.56,0,0,0-3.3-5.18,19.72,19.72,0,0,0-2.14-2,18.49,18.49,0,0,0-2.42-1.62,12.68,12.68,0,0,0-5.53-1.4A25.22,25.22,0,0,0,265.89,66.73Z"/>
      </g>
      <path class="cls-3" d="M37.49,115.79c12.29,4.79,24.38-2.46,29-8.13C74.92,97.24,80,82.58,76.28,81.87c-5.83-1.12-12.69,11.05-12.69,11.05s-.2-3,.36-17.18c.43-10.82,2.19-21.83-1.48-22.31-4-.52-6.78,7.22-8.2,18.56-.46,3.65-1.75,11-1.75,11a64.28,64.28,0,0,1-1.6-12.59c-.42-10.13.72-19.67-2.77-20.41s-6.36,6.2-6.91,19c-.25,5.73-.81,14.7-.81,14.7A41.09,41.09,0,0,1,39,73.82c-.28-7.49-.13-14.25-3.79-13.72-3,.43-5.11,7.37-5.86,19.54-.76,12.48-.36,17.8.54,24C30.78,109.63,32.53,113.86,37.49,115.79Z"/>
      <g class="cls-4">
        <path class="cls-5" d="M34.71,85.46a32.45,32.45,0,0,1,6.57-2.09,51.59,51.59,0,0,1,6.81-1c1.15-.09,2.31-.11,3.46-.12s2.3.06,3.45.19a29.91,29.91,0,0,1,6.77,1.35c-2.31.18-4.56.29-6.81.39-1.12.07-2.24.09-3.36.18s-2.23.12-3.34.2l-6.73.5C39.27,85.21,37,85.36,34.71,85.46Z"/>
      </g>
      <g class="cls-4">
        <path class="cls-5" d="M62.77,93.76A15.66,15.66,0,0,0,57,95.28a15.06,15.06,0,0,0-2.41,1.53,16.27,16.27,0,0,0-2,2A11.88,11.88,0,0,0,50.14,104a20.09,20.09,0,0,0-.25,6.11,13.09,13.09,0,0,1-1.28-6.3,11.45,11.45,0,0,1,2.22-6.31,11.31,11.31,0,0,1,5.42-4A9.08,9.08,0,0,1,62.77,93.76Z"/>
      </g>
      <path class="cls-6" d="M247,175.53s22.27-5.09,31.72-26c7-15.61-13.78-66.81-13.78-66.81l34.66-4.1s24.61,65.9,9.57,94c-17.15,32-48.64,43.77-55.31,46.54Z"/>
      <path class="cls-7" d="M261,217.22c3.35,12.71,6.07,25.56,8.5,38.46,1.17,6.45,2.38,12.93,3,19.5a148.14,148.14,0,0,1,.66,19.73c-.73-6.53-1.56-13-2.51-19.5s-2.21-12.88-3.36-19.33C265,243.17,262.73,230.25,261,217.22Z"/>
      <path class="cls-8" d="M157.58,478.92s-4.65,3.63-8.67,7.4a41.61,41.61,0,0,0-6.6,8.39,148.11,148.11,0,0,0,22.9,19.9C183.44,527.39,194,527.95,194,527.95s.84-7-6.93-18.57a110.57,110.57,0,0,0-15.91-18.57"/>
      <path class="cls-8" d="M227.53,449.59s-7.27.66-12.41,2.77a31,31,0,0,0-8.1,4.83,188,188,0,0,0,16.53,28.74c13.18,18.42,20.4,21.1,20.4,21.1s4.07-6.64.7-20.26a125.59,125.59,0,0,0-8.76-23"/>
      <path class="cls-2" d="M272.62,353.23s23.25,43.51,19.18,63.6C285.62,447.4,242.45,472,242.45,472s-4.78-.42-14.21-9.67c-7.73-8.66-8.67-14.62-8.67-14.62s29.57-15,35.26-30.64c5.6-15.36-17.92-48.7-17.92-48.7"/>
      <path class="cls-9" d="M259.76,203.9c-2-7.37-10.66-23.7-17.05-24-11.52-.46-29.9.72-54.6,3.81-42.8,5.35-70.18,17.85-70.18,17.85,13.61,67.24,14.94,63.85,20.26,101.91,3.93,28.12,3.43,61.13,3.43,61.13s35.88,9,84.75-.34c38.83-7.42,57.2-17.61,57.2-17.61s-2.8-27.5-12.08-78.63c-4.6-25.34-7.47-43.68-7.47-43.68C262.84,218.87,261.42,209.88,259.76,203.9Z"/>
      <path class="cls-9" d="M265.58,237.73s-3.26-24.25-5.07-32.88a68.25,68.25,0,0,0-14.19-29.6s-31.32.53-53.43,4.49-72.31,17-72.31,17l10.21,62.76Z"/>
      <path class="cls-2" d="M199.79,374.4s2.41,29.08-.34,56.57c-.39,18.57-18.84,62.59-18.84,62.59a33.46,33.46,0,0,1-17.68.14c-11.11-2.16-16.68-7.25-16.68-7.25s16.64-40,17-58.83a409.18,409.18,0,0,0-2.17-55"/>
      <g>
        <polyline class="cls-9" points="192.58 320.36 192.13 335.2 149.48 334.96 149.38 320.46"/>
        <path class="cls-7" d="M192.58,320.36l.64,14.88,0,1h-1.13c-3.55,0-7.11,0-10.66,0l-10.66-.19c-7.11-.21-14.22-.36-21.32-.63l-.51,0V335l.17-7.25.22-7.25.32,7.25L150,335l-.5-.49c7.11-.18,14.22-.26,21.33-.38l10.66-.06c3.55,0,7.11,0,10.66.11l-1.09,1Z"/>
      </g>
      <g>
        <path class="cls-10" d="M222.51,298.39s-23.06-13.8-34.15-22.86-23.92-20.25-23.92-20.25l13.09-10.95-17.48,1S149.9,209.69,150,196.13c0-7.75,7.27-13.94,7.27-13.94l60.13-6.82s11.14,9.59,13.71,13.12,14.53,36.63,14.53,36.63l-12.17,7.1,13.28,2.59s-2.65,15.45-5.3,28-13.05,33.58-13.05,33.58"/>
        <path class="cls-11" d="M222.21,298.89q-7.81-4.63-15.45-9.51c-5.09-3.27-10.15-6.59-15-10.18-2.47-1.78-4.82-3.72-7.16-5.62l-7-5.76q-7-5.8-13.86-11.69l-1-.86,1-.87h0l13.16-10.86.71,1.8h0l-17.47,1.16-.9.06-.26-.88h0q-2.25-8-4.24-16.12c-1.33-5.4-2.58-10.81-3.66-16.28-.54-2.73-1-5.48-1.44-8.24a65.66,65.66,0,0,1-.79-8.42,16.66,16.66,0,0,1,2.25-8.5,26.71,26.71,0,0,1,5.41-6.8l.25-.22.36,0,60.13-6.82h0l.5-.06.37.33c3.67,3.24,7.28,6.51,10.75,10,.87.88,1.71,1.78,2.53,2.77.2.27.41.49.6.8s.35.59.51.88c.29.57.56,1.13.81,1.7,1,2.25,1.92,4.52,2.81,6.79,3.55,9.09,6.86,18.25,10.12,27.44h0l.19.52-.49.3-12,7.38h0l-.31-1.85,13.3,2.46h0l1.1.21-.2,1.1q-1.45,8-3,15.88l-1.62,7.92-.85,4c-.32,1.32-.63,2.67-1,4a144,144,0,0,1-5.63,15.22c-2.12,5-4.37,9.86-6.77,14.7l-1.09-.54c2.31-4.84,4.47-9.76,6.5-14.73a142.51,142.51,0,0,0,5.32-15.13c.38-1.28.65-2.57.94-3.86l.78-4,1.48-7.92q1.44-7.93,2.74-15.89l.9,1.31h0l-13.25-2.72-2.65-.54,2.33-1.31h0l12.33-6.82-.3.82h0c-3.41-9.11-6.86-18.22-10.54-27.22-.93-2.24-1.87-4.48-2.88-6.66-.26-.54-.52-1.08-.79-1.58a6.83,6.83,0,0,0-.92-1.34c-.75-.88-1.58-1.74-2.44-2.58-3.44-3.37-7.11-6.58-10.78-9.73l.87.27h0l-60.13,6.82.61-.27a24.59,24.59,0,0,0-4.89,6.16,14.36,14.36,0,0,0-2,7.38,63.62,63.62,0,0,0,.77,8.12c.4,2.72.89,5.43,1.42,8.13,1.07,5.41,2.31,10.8,3.63,16.17s2.73,10.73,4.22,16h0l-1.16-.82,17.48-.93h0l3.08-.21-2.36,2-13,11h0l0-1.73q6.78,6,13.65,11.89l6.9,5.86c2.32,1.94,4.6,3.88,7,5.67,4.79,3.62,9.78,7,14.81,10.34s10.13,6.56,15.26,9.71Z"/>
      </g>
      <path class="cls-12" d="M223.44,289.94s-27.9-16.38-45.42-48c-13.4-24.15-14.45-49.48-14.45-49.48l55-6.53s13.41,24,15.18,46.59A118.4,118.4,0,0,1,223.44,289.94Z"/>
      <path class="cls-13" d="M202.3,194.55l9.7,11.74s-1.79,2.5-6.74,3.27a21.29,21.29,0,0,1-8.74-.4l4.09-14.34Z"/>
      <g class="cls-14">
        <path class="cls-15" d="M226.18,197.52A27.26,27.26,0,0,1,224,200.9a32.76,32.76,0,0,1-2.53,3q-1.35,1.42-2.81,2.7a37.07,37.07,0,0,1-3.08,2.42h0l-.78.56-.63-.76L199.72,191.3l2.61-.5-7.41,22.5-.21.64-.62,0h0a48.75,48.75,0,0,1-8.35-1,45.11,45.11,0,0,1-8.07-2.46,81.89,81.89,0,0,1-7.56-3.6c-1.23-.68-2.44-1.38-3.63-2.15a32.31,32.31,0,0,1-3.52-2.57l2.05-2.19a30.38,30.38,0,0,0,3.06,2.38c1.1.76,2.23,1.47,3.39,2.16a79.31,79.31,0,0,0,7.2,3.73,43.51,43.51,0,0,0,7.56,2.7,47.07,47.07,0,0,0,7.94,1.37h0l-.83.6,6.14-22.87.78-2.91,1.83,2.41,13.76,18.12-1.4-.2h0a35.29,35.29,0,0,0,2.72-2.43c.87-.86,1.7-1.76,2.48-2.7a30.09,30.09,0,0,0,2.16-2.91,24.4,24.4,0,0,0,1.71-3.11Z"/>
      </g>
      <path class="cls-13" d="M208.1,209.41s10.31,25.06,13.15,36.35,6.92,30.85,6.92,30.85l-4.61,13.31-13.64-10.48-4.79-32.72-2.86-36.54Z"/>
      <g>
        <polyline class="cls-9" points="253.38 306.95 258.65 321.04 281.17 311.56 275.08 299.55"/>
        <path class="cls-7" d="M253.38,306.95l6.31,13.7-1.48-.64c1.87-.82,3.75-1.6,5.63-2.37l5.69-2.24L280.95,311l-.28.77q-2.83-6.11-5.58-12.26,3.32,5.86,6.58,11.76l.28.51-.56.26-11.1,5.11-5.57,2.5c-1.87.81-3.74,1.61-5.63,2.37l-1.15.47-.32-1.1Z"/>
      </g>
      <g class="cls-16">
        <path class="cls-9" d="M224.11,291s4.68,30.21,6.18,44.38,2.31,28.91,2.31,28.91"/>
        <path class="cls-7" d="M224.61,290.89c2,12.15,3.92,24.3,5.62,36.5.87,6.1,1.54,12.24,2.12,18.37s1.08,12.27,1.5,18.43l-2.49.14q-.43-9.19-1.12-18.38c-.46-6.13-1-12.23-1.74-18.33-1.45-12.2-3.14-24.39-4.87-36.57Z"/>
      </g>
      <path class="cls-7" d="M207.92,378.83c4.46-1.15,8.91-2.21,13.36-3.28s8.88-2.14,13.28-3.32,8.72-2.5,13-4.05,8.52-3.25,12.75-5.06a77.25,77.25,0,0,1-12.12,6.62c-2.1,1-4.27,1.77-6.44,2.56s-4.42,1.4-6.64,2c-4.46,1.15-9,2.14-13.5,2.88A128.62,128.62,0,0,1,207.92,378.83Z"/>
      <path class="cls-7" d="M240.74,374.49a44.34,44.34,0,0,1,5.5-1.21c1.81-.3,3.63-.53,5.4-.74l5.35-.68a54.46,54.46,0,0,1,5.6-.45,19,19,0,0,1-5,2.74,24.05,24.05,0,0,1-5.56,1.37,29.55,29.55,0,0,1-5.67.11A20.91,20.91,0,0,1,240.74,374.49Z"/>
      <polygon class="cls-17" points="222.82 208.52 250.76 204.25 257.34 233.93 230.28 237.33 222.82 208.52"/>
      <line class="cls-18" x1="233.62" y1="233.33" x2="252.39" y2="230.81"/>
      <g>
        <g class="cls-19">
          <path class="cls-20" d="M248.27,228.46a1.53,1.53,0,0,1-1.18-.39l-6.69-5.53a2.27,2.27,0,0,1-.67-2.57,1.27,1.27,0,0,1,2.07-.31l6.7,5.53a2.27,2.27,0,0,1,.68,2.58A1.18,1.18,0,0,1,248.27,228.46Z"/>
        </g>
        <g class="cls-19">
          <path class="cls-21" d="M243.37,214.38a1.52,1.52,0,0,1-1.18-.38c-2.78-2.29-6.18-1.77-7.59,1.14a1.26,1.26,0,0,1-2.06.31,2.26,2.26,0,0,1-.67-2.57c2.17-4.5,7.42-5.31,11.72-1.77a2.27,2.27,0,0,1,.68,2.58A1.19,1.19,0,0,1,243.37,214.38Z"/>
        </g>
        <g class="cls-19">
          <path class="cls-13" d="M236.85,227.8a1.51,1.51,0,0,1-1.17-.38,13.43,13.43,0,0,1-4.32-6.91,11.14,11.14,0,0,1,.51-7.62,1.26,1.26,0,0,1,2.06-.31,2.26,2.26,0,0,1,.67,2.57,7.2,7.2,0,0,0-.33,4.94,8.69,8.69,0,0,0,2.8,4.48,2.26,2.26,0,0,1,.67,2.57A1.17,1.17,0,0,1,236.85,227.8Z"/>
        </g>
        <g class="cls-19">
          <path class="cls-22" d="M242.32,229.6a8.59,8.59,0,0,1-6.65-2.18,2.26,2.26,0,0,1-.67-2.57,1.27,1.27,0,0,1,2.06-.3c2.77,2.3,6.18,1.81,7.6-1.1s.31-7.16-2.47-9.45a2.27,2.27,0,0,1-.67-2.58,1.28,1.28,0,0,1,2.08-.31,13.42,13.42,0,0,1,4.36,7,11.11,11.11,0,0,1-.53,7.67A6.66,6.66,0,0,1,242.32,229.6Z"/>
        </g>
      </g>
      <g class="cls-23">
        <polygon class="cls-24" points="223.75 213.33 230.06 238.28 228.96 237.53 233.84 237.16 234.03 238.47 229.24 239.48 228.33 239.67 228.14 238.72 223.03 213.5 223.75 213.33"/>
      </g>
      <polygon class="cls-25" points="246.59 206.8 248.95 206.62 249.3 209.09 247.27 209.15 246.59 206.8"/>
      <path class="cls-26" d="M196.71,45.16s20.22,14.9,24.2,28.17c2.9,9.69,3.67,26.76,3.67,26.76l-37.49-50.3Z"/>
      <path class="cls-3" d="M149,174.41s5.35,17.85,20.15,22.28c20.75,6.21,70.63-8.16,76.22-17.19,4.85-7.84-6-51.45-21.62-86.11-12.29-27.27-33-49.27-33-49.27s-29.43-.19-51.79,8.58a84.17,84.17,0,0,0-30,20.68l34,88.64"/>
      <path class="cls-26" d="M120.12,70.77S130,84.34,133.35,97c2.9,10.9,7.16,37.08,7.16,37.08a104.58,104.58,0,0,1,9.65,10.82c5.58,7.69,4.71,14.68,4.71,14.68L137.16,146l15,35.77s-7.48.73-13.14-7.45-26.55-41-31.47-53.83c-2.61-6.84-13.14-41-10.78-48.14a11.47,11.47,0,0,1,6-6.82,16.44,16.44,0,0,1,8.89-16.68c15.79-8.7,53.74-16.94,69-16.49C192.37,32.7,211.14,45,211.14,45s-14.19,6.15-22,6.68-29.06-1-29.06-1,13.48,3.34,17.5,4.7,11.87,5.89,11.87,5.89-14.47,2.9-19.53,3-26.22-3.77-26.22-3.77,8.59,2.89,12.65,4.49a61.49,61.49,0,0,1,8,4s-12.91,4.67-23.27,4.87S120.12,70.77,120.12,70.77Z"/>
      <line class="cls-27" x1="147.16" y1="136.99" x2="130.9" y2="145.93"/>
      <path class="cls-3" d="M147.92,154.35s-9.73-12.83-20.17-11.61c-14.75,1.73-2.56,30.52,8.31,33.34,9.53,2.48,14-2.58,14-2.58"/>
      <path class="cls-28" d="M146,162.77c-1.83-1.34-3.55-2.61-5.28-3.79a33.13,33.13,0,0,0-5.21-3,15.57,15.57,0,0,0-2.66-.9,18.06,18.06,0,0,0-2.71-.52,12,12,0,0,0-5.89.73c.73-2.36,3.27-3.89,5.75-4.23a11.26,11.26,0,0,1,1.89-.11,12.52,12.52,0,0,1,1.84.25,12.79,12.79,0,0,1,3.46,1.25,19,19,0,0,1,8.79,10.3Z"/>
      <path class="cls-29" d="M152.71,130.68c2.5,7.42,9.76,11,17.63,8.55a13.65,13.65,0,0,0,8.9-17.5,14,14,0,1,0-26.53,8.95Z"/>
      <path class="cls-29" d="M203.34,115.65c2.95,7.13,8.8,11.38,16.11,9,6.86-2.21,9.94-9.76,7.76-17.17-2.31-7.85-9.71-11.26-16.54-9S200.59,109,203.34,115.65Z"/>
      <path class="cls-30" d="M176.3,100.1s-11.14,2.11-19.2,7.26c-9.72,6.21-11.83,12-11.83,12l-1.6-3.3s1.15-8.4,11.59-14.91A36,36,0,0,1,174,95.78Z"/>
      <path class="cls-31" d="M173.59,114a16.11,16.11,0,0,0-7-1.1,15,15,0,0,0-6.37,2.07,18.12,18.12,0,0,0-5.26,4.27,13.54,13.54,0,0,0-2.88,6.43,9.66,9.66,0,0,1,.9-7.74,14.53,14.53,0,0,1,5.78-5.58,13.29,13.29,0,0,1,7.88-1.79A10.83,10.83,0,0,1,173.59,114Z"/>
      <path class="cls-31" d="M225.36,103.26a9.9,9.9,0,0,0-5.29-3.7,17.8,17.8,0,0,0-6.35-.52,12.54,12.54,0,0,0-6,1.77,12.74,12.74,0,0,0-4.41,4.92,9.67,9.67,0,0,1,3.26-6.43,11.77,11.77,0,0,1,6.94-2.83,13.62,13.62,0,0,1,7.37,1.11A7.73,7.73,0,0,1,225.36,103.26Z"/>
      <path class="cls-30" d="M195.77,94.74a35,35,0,0,1,28.61-1l-1.46-3.43a20.7,20.7,0,0,0-12.9-5c-11.18,0-15.06,5-15.06,5Z"/>
      <ellipse class="cls-32" cx="166.64" cy="127.08" rx="5.83" ry="7.42" transform="translate(-25.69 43.85) rotate(-13.93)"/>
      <ellipse class="cls-32" cx="215.14" cy="111.93" rx="5.35" ry="7.21" transform="translate(-21.33 58.12) rotate(-14.67)"/>
      <path class="cls-27" d="M240.68,99.88s1.35,21.4.61,23-30.18,10.57-30.18,10.57"/>
      <g>
        <path class="cls-3" d="M191.5,96.7s12.72,17.66,19.15,28.93,9.1,21.3,7.59,23.41S211,154,204,155.1s-10.85-.23-10.85-.23"/>
        <path class="cls-5" d="M191.5,96.7q7,8.25,13.41,17c2.11,2.94,4.2,5.9,6.16,9a91.67,91.67,0,0,1,5.42,9.6,55.52,55.52,0,0,1,4,10.51,24.74,24.74,0,0,1,.57,3l.06.82a5.81,5.81,0,0,1,0,.87,6,6,0,0,1-.42,2.2,7.16,7.16,0,0,1-.38.73,4.81,4.81,0,0,1-.35.46,7.07,7.07,0,0,1-.68.72,12,12,0,0,1-1.34,1.05,21.46,21.46,0,0,1-2.66,1.52,36.59,36.59,0,0,1-11,3.1,19.74,19.74,0,0,1-5.73-.14,11.75,11.75,0,0,1-5.33-2.24c3.8-.52,7-1.19,10.37-1.88a38,38,0,0,0,4.92-1.34,32.56,32.56,0,0,0,4.61-1.92,16.6,16.6,0,0,0,2-1.19,7.07,7.07,0,0,0,.77-.62,2.32,2.32,0,0,0,.25-.25s.08-.09.07-.08a.24.24,0,0,0-.09.12c0,.1,0-.14,0-.44a2.26,2.26,0,0,0,0-.47l0-.53a22.82,22.82,0,0,0-.37-2.36,40.72,40.72,0,0,0-1.38-4.92c-.55-1.64-1.16-3.28-1.84-4.9-2.68-6.48-6.33-12.62-10-18.82Z"/>
      </g>
      <path class="cls-33" d="M222.35,158.49s0,16.42-13.87,20.7c-16.55,5.11-27.92-15-27.92-15"/>
      <path class="cls-34" d="M215.38,174.53s-2.74,3.83-9.68,4.81-14.79-3.63-14.79-3.63a47.83,47.83,0,0,1,12.33-3.06A30.35,30.35,0,0,1,215.38,174.53Z"/>
      <path class="cls-29" d="M222.35,158.49s-.53,5-1.07,5.75a30.8,30.8,0,0,1-13.52,7.14,63.82,63.82,0,0,1-19.87.42,39.75,39.75,0,0,1-3.8-3.59,35.64,35.64,0,0,1-2.65-3.78s16.55,1,24.39-.66A107.63,107.63,0,0,0,222.35,158.49Z"/>
      <g>
        <path class="cls-3" d="M225,155.86a36.9,36.9,0,0,1-16.75,9c-16.39,4.07-28.6-1.34-28.6-1.34"/>
        <path class="cls-35" d="M225.46,156.35a32.67,32.67,0,0,1-10,7.36,36.23,36.23,0,0,1-5.82,2.27c-1,.31-2,.52-3,.76s-2,.42-3.05.58a46.43,46.43,0,0,1-12.39.28,38.65,38.65,0,0,1-12-3.16l.78-1.75a40.31,40.31,0,0,0,5.66,1.39,47.66,47.66,0,0,0,5.82.73,54.63,54.63,0,0,0,11.69-.45,45.35,45.35,0,0,0,11.26-3,42.85,42.85,0,0,0,5.23-2.63,33.75,33.75,0,0,0,4.8-3.34Z"/>
      </g>
      <path class="cls-5" d="M182.35,158.92l-1.84,2.87a22.3,22.3,0,0,0-1.42,2.55,20.49,20.49,0,0,0-1,2.71c-.3,1-.57,2-.86,3.25a5.64,5.64,0,0,1-1.49-3.44,7.28,7.28,0,0,1,.67-3.8,7.49,7.49,0,0,1,2.46-2.93A6.25,6.25,0,0,1,182.35,158.92Z"/>
      <g class="cls-36">
        <path class="cls-5" d="M217.74,179.11a9.05,9.05,0,0,1-2.08,4.58,11.05,11.05,0,0,1-9.23,4,9.6,9.6,0,0,1-4.79-1.5,45.64,45.64,0,0,0,4.66-.66,20.24,20.24,0,0,0,4.13-1.26,19.76,19.76,0,0,0,3.74-2.16A32.67,32.67,0,0,0,217.74,179.11Z"/>
      </g>
      <path class="cls-5" d="M149.26,174.9c3,8.44,9,15.79,16.84,19.59a35,35,0,0,0,12.69,2.83,82.7,82.7,0,0,0,13.25-.5,206.8,206.8,0,0,0,26.27-5,100.44,100.44,0,0,0,12.6-4.35A128.16,128.16,0,0,0,243,181.75a74.87,74.87,0,0,1-11.58,7,76.47,76.47,0,0,1-12.66,4.87c-4.36,1.22-8.72,2.26-13.13,3.22q-3.31.71-6.64,1.29c-2.23.36-4.47.68-6.72.93a75.62,75.62,0,0,1-13.62.38A34.76,34.76,0,0,1,165.34,196,31,31,0,0,1,155,187.1a32.65,32.65,0,0,1-3.51-5.83A29.79,29.79,0,0,1,149.26,174.9Z"/>
      <path class="cls-37" d="M242.46,102.15l-24.74,7.33c-8.24,2.46-16.51,4.85-24.73,7.36q-24.66,7.52-49.09,15.77l-1.29-3.78q24.53-8.26,49.26-15.7c8.25-2.49,16.52-4.87,24.78-7.31l24.79-7.28Z"/>
      <path class="cls-27" d="M193,115.2s2.64,20,1,22.47-32.78,12.19-36,12.21S144,129.23,144,129.23"/>
      <polygon class="cls-37" points="207.97 118.8 195.03 123.08 194.28 120.64 207.38 116.89 207.97 118.8"/>
      <path class="cls-9" d="M120.93,197s-27.91.21-41.36-17.88c-11.77-15.82-12-67.72-12-67.72l-36.69,5.69s1.7,61.24,21.16,88.35c23.74,33.07,78.18,37.67,78.18,37.67s3.43-6.09,1.56-22.66S120.93,197,120.93,197Z"/>
      <g class="cls-16">
        <path class="cls-9" d="M126.27,243.44s5.16-4.52,5.79-16.8A51.85,51.85,0,0,0,126.64,202"/>
        <path class="cls-7" d="M125.45,242.5a9.88,9.88,0,0,0,.7-.89c.24-.33.47-.68.69-1a21.28,21.28,0,0,0,1.16-2.26,28.69,28.69,0,0,0,1.65-4.89A42.38,42.38,0,0,0,130.85,223a53.8,53.8,0,0,0-1.15-10.61,62.77,62.77,0,0,0-3.06-10.4,44.07,44.07,0,0,1,4.56,10,44.85,44.85,0,0,1,2.1,10.92,38.4,38.4,0,0,1-.84,11.22,26.42,26.42,0,0,1-1.89,5.41,20.23,20.23,0,0,1-1.46,2.52c-.28.4-.57.8-.89,1.19a10,10,0,0,1-1.12,1.15Z"/>
      </g>
      <g>
        <path class="cls-9" d="M248.22,178.45s9.28,10.3,14.49,36.76c4.2,21.35,6.43,38.75,6.43,38.75"/>
        <path class="cls-7" d="M248.22,178.45a39.64,39.64,0,0,1,5.84,8.06,76,76,0,0,1,4.3,9,105.46,105.46,0,0,1,5.48,19.17c1.26,6.49,2.31,13,3.22,19.55s1.65,13.11,2.08,19.7l-7.69-38.78a161,161,0,0,0-5.07-18.92A78.84,78.84,0,0,0,248.22,178.45Z"/>
      </g>
    </g>
  </g>
</svg>
