<svg xmlns="http://www.w3.org/2000/svg" width="457" height="503" viewBox="0 0 457 503">
  <defs>
    <style>
      .cls-1 {
        isolation: isolate;
      }

      .cls-2 {
        fill: #375463;
      }

      .cls-3 {
        fill: #3c5968;
      }

      .cls-4 {
        fill: #415e6d;
      }

      .cls-5 {
        opacity: 0.6;
      }

      .cls-6 {
        fill: #2b4c57;
      }

      .cls-7 {
        fill: #f1b291;
      }

      .cls-8 {
        fill: #b6e0ef;
      }

      .cls-9 {
        fill: #3b5b66;
      }

      .cls-10 {
        fill: #40606d;
      }

      .cls-11 {
        fill: #42626d;
      }

      .cls-12 {
        fill: #2f545e;
      }

      .cls-13 {
        fill: #2483c5;
      }

      .cls-14 {
        fill: #405e6b;
      }

      .cls-15 {
        opacity: 0.7;
      }

      .cls-16 {
        fill: #eff4f4;
      }

      .cls-17, .cls-24 {
        fill: #536872;
      }

      .cls-17 {
        stroke: #405a63;
        stroke-width: 1.04px;
      }

      .cls-17, .cls-28 {
        stroke-miterlimit: 10;
      }

      .cls-17, .cls-22 {
        opacity: 0.3;
      }

      .cls-18 {
        mix-blend-mode: multiply;
      }

      .cls-19 {
        fill: #f9a51a;
      }

      .cls-20 {
        fill: #ec125f;
      }

      .cls-21 {
        fill: #72be44;
      }

      .cls-23 {
        fill: #516672;
      }

      .cls-24 {
        opacity: 0.18;
      }

      .cls-25 {
        fill: #3a4449;
      }

      .cls-26 {
        opacity: 0.8;
      }

      .cls-27 {
        fill: #755946;
      }

      .cls-28 {
        fill: none;
        stroke: #353e45;
        stroke-width: 3px;
      }

      .cls-29 {
        fill: #a7755c;
      }

      .cls-30 {
        fill: #684f3c;
      }

      .cls-31 {
        fill: #5b422a;
      }

      .cls-32 {
        fill: #a77056;
      }

      .cls-33 {
        fill: #915a46;
      }

      .cls-34 {
        fill: #353e45;
      }
    </style>
  </defs>
  <title>Q_meditation</title>
  <g class="cls-1">
    <g id="Ebene_1" data-name="Ebene 1">
      <path class="cls-2" d="M186.51,399.48s38.65,11.26,61.67,11.33c31,.09,50-17.33,50-17.33l-6.67-13L188.76,390.58Z"/>
      <path class="cls-3" d="M179.33,392.1C148.91,406.48,142,428.63,148.6,440c10,17.32,49.39,18.17,86.38,10.11,25.71-5.6,40.47-12.58,40.47-12.58l-16-32.75A240.52,240.52,0,0,1,225,417.61c-18.7,5.34-28.69,4.91-28.69,4.91s.33-2.89,16.12-9.61c19.09-8.12,31.26-9.82,31.26-9.82Z"/>
      <path class="cls-4" d="M301.23,387.23c32.4,11.59,46.48,28.05,42.49,45.39-4.38,19-41.14,23.75-80.83,14.35-23.6-5.59-38.05-11.85-38.05-11.85L242,403.7s10.83,6.27,35.71,12.72c16.91,4.38,22,2.4,22,2.4s-6.7-2.12-19.22-6.68c-10.5-3.82-32.52-8.26-32.52-8.26Z"/>
      <g class="cls-5">
        <path class="cls-6" d="M169.16,397.37c11.61,1.71,23.22,2.9,34.85,3.73q8.72.58,17.44.78c2.91.07,5.81.09,8.72.08l4.36-.08c1.45,0,2.9,0,4.35-.11a311.57,311.57,0,0,0,34.72-3.18c5.75-.87,11.48-1.93,17.15-3.26a122.86,122.86,0,0,0,16.77-5,64.32,64.32,0,0,1-8,3.77c-2.72,1.12-5.51,2.08-8.31,3a157.07,157.07,0,0,1-17.11,4.42c-1.44.32-2.89.58-4.34.84s-2.9.55-4.36.76c-2.92.4-5.83.88-8.76,1.18l-4.39.51c-1.47.15-2.94.24-4.41.36s-2.94.25-4.41.32l-4.42.22c-5.9.3-11.8.17-17.69,0-2.94-.14-5.89-.3-8.82-.56s-5.87-.5-8.79-.86A201,201,0,0,1,169.16,397.37Z"/>
      </g>
      <path class="cls-7" d="M399.66,225.65c2.74-4,5.6-7.33,8-14.86,4.24-13.18,5.43-32.06,1.6-33.23-3.48-1.06-3.37,6.69-5,14.91a25.13,25.13,0,0,1-2.64,7.7s1.55-12,1.65-17.47c.15-8.5-1.84-18-5.32-19.43-4.55-1.83-3.18,15.28-3.34,18.78a93.16,93.16,0,0,1-1.56,12.31s-.34-13.59-10.55-16c-7.86-1.87-15.83,10.4-13.22,12.26,3.95,2.82,7.09-4.87,11.07-3.8s7.68,9.29,3.72,15.32c-3.09,4.69-7.45,5.71-10.36,1.4-2.27-3.37-1.82-10-6-10.94-3.57-.81-4,9.26-2.26,14.13,1.55,4.33,2.83,5.71,4.83,9.26,2.42,4.29,5.15,10.43,12.1,13.05S396.92,229.6,399.66,225.65Z"/>
      <polygon class="cls-8" points="398.5 234.63 401.12 227.67 371.46 217.97 370.49 225.62 398.5 234.63"/>
      <path class="cls-9" d="M295.26,223.07s16.53,40.5,37.78,45.38c21.67,5,36.68-47.18,36.68-47.18L401.53,233s-26.17,77.54-69,71.43c-39.3-5.61-50.67-46.42-50.67-46.42l6.39-36.08"/>
      <path class="cls-10" d="M294.09,222.31s-27.78-12.5-67.64-11c-40.79,1.56-66.3,12.3-66.3,12.3s7.31,79.74,6.48,112.91A396.76,396.76,0,0,1,161,394.61s32.91,10.69,82.7,7.22c39.57-2.76,65.08-11.46,65.08-11.46s-6-18.78-9.77-73.41c-1.69-24.38-3.17-77-3.17-77"/>
      <g>
        <polyline class="cls-10" points="215.92 351.92 213.57 366.68 170.77 363.85 172.28 351.2"/>
        <path class="cls-6" d="M215.92,351.92l-1.28,14.93-.08,1-1.06-.05c-3.57-.17-7.14-.41-10.7-.66l-10.69-.83c-7.12-.64-14.25-1.22-21.37-1.92l-.54-.05.08-.5,1-6.3,1-6.29-.49,6.36-.53,6.35-.46-.56c7.15.25,14.29.61,21.43.91l10.71.58c3.57.22,7.13.45,10.7.75l-1.14.91Z"/>
      </g>
      <g>
        <path class="cls-11" d="M249.5,333.59s-19.15-16.44-29-26.81-19-26-19-26l14.42-9.36-17.51-1s-9.63-35-7.83-48.53c1-7.74,9.13-15.06,9.13-15.06l60.67.38s7.84,10.81,9.94,14.65S279,260.07,279,260.07l-13,5.63,12.87,4.17s-3.25,18.51-7.5,30.7-15.82,31.7-15.82,31.7"/>
        <path class="cls-12" d="M249.12,334q-6.85-5.82-13.54-11.8c-4.46-4-8.89-8-13.17-12.25-2.13-2.11-4.24-4.29-6.2-6.59s-3.82-4.66-5.63-7.07c-3.6-4.83-7-9.8-10.1-15h0l-.56-.94.92-.59,14.48-9.26h0l.49,1.87-17.52-.93-.82,0-.21-.79c-1.47-5.45-2.79-10.9-4-16.4s-2.28-11-3.08-16.61c-.4-2.8-.73-5.61-.9-8.45a35.36,35.36,0,0,1,.32-8.69,23.38,23.38,0,0,1,3.66-8,40.28,40.28,0,0,1,5.63-6.59l.31-.3h.46l60.67.38h.58l.33.47c2.75,3.89,5.47,7.78,8.07,11.8.64,1,1.28,2,1.88,3.14A23.18,23.18,0,0,1,272.4,225c.63,2.32,1.16,4.64,1.69,7,2.06,9.29,3.86,18.62,5.62,28h0l.1.52-.49.23-12.89,5.93h0l-.09-1.87,12.91,4h0l1,.3-.19,1c-1,5.53-2.24,11-3.59,16.45q-1,4.09-2.19,8.14c-.8,2.7-1.64,5.39-2.69,8a157.48,157.48,0,0,1-7.21,15.24q-3.93,7.44-8.24,14.65l-1-.62q4.16-7.25,8-14.72a156,156,0,0,0,6.88-15.19,137.8,137.8,0,0,0,4.56-16c1.25-5.42,2.36-10.9,3.31-16.37l.77,1.28h0l-12.83-4.3-2.58-.86,2.49-1h0l13.14-5.33-.4.75h0c-1.9-9.29-3.85-18.59-6.05-27.81-.56-2.3-1.13-4.6-1.78-6.85a22.7,22.7,0,0,0-1.09-3.17c-.53-1-1.19-2-1.83-2.94-2.62-3.92-5.4-7.77-8.19-11.58l.91.47h0l-60.67-.38.77-.29a38.18,38.18,0,0,0-5.27,6.18,21.17,21.17,0,0,0-3.32,7.2,33.51,33.51,0,0,0-.28,8.07c.16,2.75.49,5.51.88,8.27.79,5.51,1.86,11,3.05,16.45s2.51,10.9,4,16.28l-1-.83,17.5,1.17,3,.2-2.54,1.67h0l-14.35,9.46.36-1.53h0c3,5.1,6.27,10.11,9.75,14.92,1.75,2.41,3.55,4.76,5.44,7.05s3.9,4.44,6,6.57c4.18,4.25,8.53,8.34,12.92,12.4s8.84,8,13.33,12Z"/>
      </g>
      <path class="cls-8" d="M251.51,325.27s-18.57-20.36-31.94-54c-10.22-25.71-14.91-53.45-14.91-53.45l55.5.05s5.2,26.32,4,49.08A188.23,188.23,0,0,1,251.51,325.27Z"/>
      <path class="cls-13" d="M242.91,224.52l8.14,12.87s-2.1,2.28-7.12,2.46a21.19,21.19,0,0,1-8.64-1.44l5.91-13.82Z"/>
      <g class="cls-5">
        <path class="cls-14" d="M264.31,233.09a28.33,28.33,0,0,1-4.79,4.14c-1.68,1.19-3.38,2.28-5.17,3.3h0l-.85.54-.56-.89L240.76,221l2.66-.17-10.26,21.56-.32.67-.66-.19h0c-2.45-.6-4.82-1.31-7.19-2.09s-4.71-1.64-7-2.62a43.09,43.09,0,0,1-6.76-3.5,33.84,33.84,0,0,1-6.08-4.84l2.25-2a25.71,25.71,0,0,0,2.49,2.4c.9.77,1.85,1.49,2.83,2.18a41.65,41.65,0,0,0,6.24,3.57c2.2,1.05,4.45,2,6.73,2.88s4.61,1.69,6.93,2.38h0l-1,.47,9-22.1,1.14-2.79,1.51,2.63,11.35,19.72-1.42-.35h0c1.61-1.1,3.2-2.3,4.7-3.55a25.85,25.85,0,0,0,4-4Z"/>
      </g>
      <path class="cls-13" d="M246.77,240s6,29.25,7.41,40.86,3,28.44,3,28.44l-5.55,15.92-12-15.28-1.65-30,2.85-39.81Z"/>
      <g>
        <polyline class="cls-10" points="279.31 348.08 282.73 362.77 305.2 358.95 300.7 346.23"/>
        <path class="cls-6" d="M279.31,348.08l4.51,14.44-1.27-.85q2.8-.52,5.62-1l5.64-.82,11.3-1.53-.45.77q-2-6.44-4-12.91,2.57,6.25,5.06,12.52l.25.63-.7.14-11.17,2.3-5.6,1.09q-2.8.52-5.62,1l-1.11.17-.16-1Z"/>
      </g>
      <g class="cls-15">
        <path class="cls-10" d="M252,326.37s-.49,30.54-.81,44.86.68,31.77.68,31.77"/>
        <path class="cls-6" d="M252.55,326.38l-.31,38.33-.07,9.57c0,3.18.05,6.37.13,9.55.17,6.37.46,12.75.86,19.1l-2.49.14c-.28-6.41-.45-12.8-.51-19.2,0-3.2,0-6.4,0-9.61l.26-9.59,1.08-38.31Z"/>
      </g>
      <polygon class="cls-16" points="258.21 244.63 286.5 242.81 290.21 273.11 262.88 274.15 258.21 244.63"/>
      <line class="cls-17" x1="266.59" y1="270.43" x2="285.56" y2="269.55"/>
      <g>
        <g class="cls-18">
          <path class="cls-19" d="M281.68,266.84a1.52,1.52,0,0,1-1.14-.49l-6.14-6.12a2.27,2.27,0,0,1-.42-2.64,1.28,1.28,0,0,1,2.1-.12l6.15,6.12a2.27,2.27,0,0,1,.43,2.65A1.2,1.2,0,0,1,281.68,266.84Z"/>
        </g>
        <g class="cls-18">
          <path class="cls-20" d="M278.15,252.31a1.51,1.51,0,0,1-1.14-.48c-2.55-2.53-6-2.32-7.68.47a1.27,1.27,0,0,1-2.09.13,2.27,2.27,0,0,1-.42-2.63c2.6-4.32,7.92-4.66,11.87-.75a2.27,2.27,0,0,1,.42,2.64A1.21,1.21,0,0,1,278.15,252.31Z"/>
        </g>
        <g class="cls-18">
          <path class="cls-13" d="M270.35,265.18a1.5,1.5,0,0,1-1.13-.49,13.37,13.37,0,0,1-3.64-7.3,11.27,11.27,0,0,1,1.25-7.59,1.27,1.27,0,0,1,2.09-.13,2.27,2.27,0,0,1,.42,2.63,7.29,7.29,0,0,0-.81,4.92,8.65,8.65,0,0,0,2.36,4.73,2.27,2.27,0,0,1,.42,2.63A1.19,1.19,0,0,1,270.35,265.18Z"/>
        </g>
        <g class="cls-18">
          <path class="cls-21" d="M275.64,267.45a8.52,8.52,0,0,1-6.42-2.76,2.27,2.27,0,0,1-.42-2.63,1.27,1.27,0,0,1,2.09-.12c2.54,2.54,6,2.35,7.69-.44s1-7.14-1.56-9.68a2.27,2.27,0,0,1-.42-2.64,1.28,1.28,0,0,1,2.11-.13,13.36,13.36,0,0,1,3.68,7.34A11.24,11.24,0,0,1,281.1,264,6.75,6.75,0,0,1,275.64,267.45Z"/>
        </g>
      </g>
      <g class="cls-22">
        <polygon class="cls-23" points="258.67 249.54 262.56 275.08 261.53 274.23 266.44 274.29 266.51 275.61 261.63 276.19 260.7 276.31 260.6 275.33 257.94 249.63 258.67 249.54"/>
      </g>
      <polygon class="cls-24" points="282.1 245 284.48 245.02 284.58 247.53 282.55 247.41 282.1 245"/>
      <path class="cls-7" d="M49.67,225.32c-2.59-4-5.33-7.53-7.48-15.14-3.76-13.32-4.26-32.23-.4-33.26,3.52-.94,3.13,6.81,4.48,15.08a25.13,25.13,0,0,0,2.36,7.79s-1.12-12-1-17.52c.15-8.5,2.49-18,6-19.23,4.61-1.66,2.63,15.38,2.66,18.88a93.16,93.16,0,0,0,1.11,12.36s.83-13.57,11.12-15.64c7.92-1.59,15.44,11,12.77,12.73-4,2.68-6.91-5.13-10.93-4.2s-8,9-4.28,15.18c2.91,4.8,7.24,6,10.3,1.77,2.39-3.29,2.18-9.92,6.36-10.72,3.6-.69,3.66,9.4,1.74,14.2-1.71,4.27-3,5.6-5.16,9.07-2.58,4.2-5.52,10.24-12.56,12.61S52.27,229.37,49.67,225.32Z"/>
      <polygon class="cls-8" points="50.51 234.34 48.14 227.29 78.13 218.67 78.83 226.35 50.51 234.34"/>
      <path class="cls-10" d="M160.15,223.63s-23,41.78-44.43,45.89c-21.84,4.2-36.29-48.66-36.29-48.66L47.54,232.62s27.76,77.85,68.34,73.91c39.52-3.83,58.33-45.45,58.33-45.45l-14.06-37.45"/>
      <path class="cls-25" d="M244.79,407.6a40.69,40.69,0,0,0-9.6-7,68,68,0,0,0-11.31-4.44A92.6,92.6,0,0,0,216.81,409c-2.64,6.2-5.27,12.08-5.27,12.08s7.39-.53,13.19,1.43a57.64,57.64,0,0,1,7.94,3.83Z"/>
      <path class="cls-25" d="M259.88,406.33a46.89,46.89,0,0,1,5.83-4.46c3.41-2.21,11.54-5.6,11.54-5.6a142.58,142.58,0,0,1,7.44,15.94c2.43,6.76,8.76,26,8.76,26l-22.59-2.47Z"/>
      <path class="cls-4" d="M248.52,406.91s13.92,6.36,25.82,9.45,25.62,2.8,25.62,2.8l1.25,26-39.87-4.41Z"/>
      <path class="cls-4" d="M224.84,435.11s4.37-10.52,8.31-18.05A83.88,83.88,0,0,1,242,403.7l13.45,6.48Z"/>
      <path class="cls-6" d="M211,420.95a35.7,35.7,0,0,1-11,2.52,82.05,82.05,0,0,1-11.18-.06c-3.71-.2-7.4-.59-11.08-1.09a88.81,88.81,0,0,1-10.93-2.18c3.72,0,7.41.08,11.1.13l11,.24Z"/>
      <path class="cls-6" d="M286.94,418.39c3.41-.42,6.78-.59,10.14-.69s6.71-.14,10-.3,6.62-.48,10-.77,6.67-.67,10.08-.95a52.05,52.05,0,0,1-9.72,3.16,64,64,0,0,1-10.13,1.53,63.24,63.24,0,0,1-10.24-.25A61.67,61.67,0,0,1,286.94,418.39Z"/>
      <path class="cls-6" d="M224.84,435.11q11.94,4.21,24,7.51c8.07,2.21,16.22,4.1,24.44,5.5l3.08.5c1,.15,2.07.26,3.1.39,2.06.3,4.14.47,6.21.68,4.16.32,8.33.58,12.51.62a193.21,193.21,0,0,0,25.13-1.17,123.6,123.6,0,0,1-25.1,3.33c-4.23.18-8.48.12-12.72-.11A117.78,117.78,0,0,1,272.85,451c-2.11-.29-4.18-.72-6.27-1.1s-4.15-.89-6.2-1.41l-3.08-.77-3.06-.86c-2-.57-4.06-1.22-6.08-1.85-4-1.34-8-2.8-11.89-4.44A110.38,110.38,0,0,1,224.84,435.11Z"/>
      <g class="cls-26">
        <path class="cls-6" d="M175.5,415.61a21,21,0,0,1,5-.83,24.13,24.13,0,0,1,5.11.26c.43.07.86.17,1.29.26s.89.25,1.26.39c.79.28,1.57.58,2.34.91a26.93,26.93,0,0,1,4.5,2.37,27.21,27.21,0,0,1-5.06-.49c-.82-.15-1.63-.33-2.44-.52-.42-.11-.77-.18-1.15-.26s-.76-.15-1.16-.2l-4.82-.77A39.9,39.9,0,0,1,175.5,415.61Z"/>
      </g>
      <g class="cls-26">
        <path class="cls-6" d="M304.68,415.7a21.14,21.14,0,0,1,4.56-3,22.58,22.58,0,0,1,5.17-1.83,15.1,15.1,0,0,1,5.58-.24,15.81,15.81,0,0,1,2.68.63,11.59,11.59,0,0,1,2.53,1.12c-1.85.26-3.6.31-5.32.41a36.22,36.22,0,0,0-5,.5C311.57,413.93,308.24,414.93,304.68,415.7Z"/>
      </g>
      <path class="cls-27" d="M263.74,79.31s16.35,19.07,17.24,32.9c.64,10.09-2.44,25.9-2.44,25.9L253.32,81.66Z"/>
      <path class="cls-7" d="M188,195.29s1.7,14.85,15.12,22.49c18.82,10.73,70.66,7.94,78.13.41,6.49-6.55,5.37-49.51-2.05-86.8C273.36,102.05,258.13,77,258.13,77s-28.63-6.81-52.4-3.3a84.17,84.17,0,0,0-33.91,13.4l13.14,93"/>
      <path class="cls-27" d="M183.35,87s6.56,15.44,7,28.5c.37,11.27-1.37,36.74-1.37,36.74a104.58,104.58,0,0,1,7,12.71c3.71,8.75,1.29,15.36,1.29,15.36L183,163.16l6.61,38.24s-7.45-1-11.13-10.22S161.85,146.29,160,132.65c-1-7.25-3.57-42.93.33-49.33a11.47,11.47,0,0,1,7.35-5.3,16.44,16.44,0,0,1,12.42-14.25c17.34-4.92,56.17-4.41,70.92-.55,11.34,3,26.85,19.22,26.85,19.22s-15.21,2.8-22.89,1.56-28.08-7.53-28.08-7.53,12.38,6.29,16,8.52,10.24,8.41,10.24,8.41-14.75-.43-19.7-1.49-24.7-9.57-24.7-9.57,7.72,4.74,11.32,7.23a61.49,61.49,0,0,1,6.91,5.7s-13.63,1.65-23.77-.49S183.35,87,183.35,87Z"/>
      <line class="cls-28" x1="194.78" y1="156.63" x2="176.93" y2="161.69"/>
      <path class="cls-7" d="M191.62,173.72s-6.59-14.69-17-15.85c-14.76-1.64-9.36,29.16.59,34.36,8.73,4.56,14.24.65,14.24.65"/>
      <path class="cls-29" d="M187.88,181.5c-1.48-1.72-2.87-3.35-4.29-4.88a33.13,33.13,0,0,0-4.4-4.08,15.57,15.57,0,0,0-2.39-1.47,18.06,18.06,0,0,0-2.52-1.11,12,12,0,0,0-5.91-.61c1.25-2.14,4.06-3.05,6.56-2.82a11.26,11.26,0,0,1,1.87.32,12.52,12.52,0,0,1,1.74.66,12.79,12.79,0,0,1,3.1,2,19,19,0,0,1,6.25,12Z"/>
      <path class="cls-30" d="M232.71,132.3a99.36,99.36,0,0,0-20,4.09,66.37,66.37,0,0,0-14.81,7.08l-.07-4.18s2.34-5.67,13.76-9.29a60.69,60.69,0,0,1,19.88-2.45Z"/>
      <path class="cls-31" d="M232.19,152.44a12.57,12.57,0,0,1-5.37,5.86,20.26,20.26,0,0,1-7.69,2.55,18.78,18.78,0,0,1-8.1-.7,15.79,15.79,0,0,1-3.67-1.73,11,11,0,0,1-3-2.69,33.71,33.71,0,0,0,7.25,1.74,33.15,33.15,0,0,0,7.11.08,31.08,31.08,0,0,0,7-1.5A20.4,20.4,0,0,0,232.19,152.44Z"/>
      <path class="cls-31" d="M280,150.39a4.81,4.81,0,0,1-1.37,3.79,9.38,9.38,0,0,1-3.39,2.39,15.38,15.38,0,0,1-3.88,1.1,23.86,23.86,0,0,1-4,.24,20,20,0,0,1-7.67-2,20.31,20.31,0,0,1-6.22-4.53,39.26,39.26,0,0,0,6.92,2.68,25.67,25.67,0,0,0,7,1,34.34,34.34,0,0,0,3.5-.34,29.27,29.27,0,0,0,3.42-.66,14,14,0,0,0,3.16-1.21A6.17,6.17,0,0,0,280,150.39Z"/>
      <path class="cls-30" d="M252.27,131.86a51,51,0,0,1,14.07.35,47.8,47.8,0,0,1,14.14,4.54l-.73-3.66A21.76,21.76,0,0,0,268,126.5a32.2,32.2,0,0,0-15.58.86Z"/>
      <path class="cls-28" d="M294.26,141.52s-2.86,21.7-4,23.14-32.42,3-32.42,3"/>
      <g>
        <path class="cls-7" d="M247.06,127.36s8.42,20.07,12.15,32.49,4.08,22.8,2.13,24.52-8.21,3.16-15.2,2.72-10.52-2.67-10.52-2.67"/>
        <path class="cls-32" d="M247.06,127.36q5,9.62,9.24,19.61c1.39,3.34,2.77,6.69,4,10.13a91.69,91.69,0,0,1,3.12,10.58,55.53,55.53,0,0,1,1.53,11.14,24.74,24.74,0,0,1-.11,3l-.13.81a5.81,5.81,0,0,1-.19.85,6,6,0,0,1-.91,2.05,7.18,7.18,0,0,1-.53.63,4.81,4.81,0,0,1-.44.37,7.06,7.06,0,0,1-.83.55,11.94,11.94,0,0,1-1.54.72,21.47,21.47,0,0,1-2.93.88,36.59,36.59,0,0,1-11.45.54,19.74,19.74,0,0,1-5.56-1.42,11.75,11.75,0,0,1-4.69-3.39c3.82.35,7.12.42,10.53.5a38,38,0,0,0,5.09-.2,32.56,32.56,0,0,0,4.93-.83,16.6,16.6,0,0,0,2.22-.71,7.08,7.08,0,0,0,.9-.43,2.31,2.31,0,0,0,.3-.19l.08-.06a.24.24,0,0,0-.11.1c-.06.09.08-.13.14-.42a2.26,2.26,0,0,0,.11-.46l.09-.52a22.85,22.85,0,0,0,.18-2.38,40.73,40.73,0,0,0-.24-5.11c-.17-1.72-.39-3.46-.69-5.19-1.15-6.91-3.32-13.72-5.48-20.58Z"/>
      </g>
      <g>
        <path class="cls-7" d="M267.3,194.55s-7.21,5-20,5.25c-16.88.36-26-8-26-8"/>
        <path class="cls-33" d="M267.7,195.13a33,33,0,0,1-11.44,4.95,46.29,46.29,0,0,1-12.41,1.17,41.23,41.23,0,0,1-12.28-2.36,31.19,31.19,0,0,1-10.83-6.35l1.3-1.41a30.42,30.42,0,0,0,5,2.92,37.32,37.32,0,0,0,5.45,2.15A47.32,47.32,0,0,0,244,198.27a52,52,0,0,0,11.75-.67,46.31,46.31,0,0,0,5.73-1.4A31.15,31.15,0,0,0,266.9,194Z"/>
      </g>
      <path class="cls-32" d="M225.11,187.94l-2.44,2.38a22.29,22.29,0,0,0-2,2.17,20.51,20.51,0,0,0-1.61,2.4c-.51.89-1,1.84-1.57,3a5.64,5.64,0,0,1-.68-3.68,7.28,7.28,0,0,1,1.5-3.55,7.49,7.49,0,0,1,3.06-2.3A6.25,6.25,0,0,1,225.11,187.94Z"/>
      <g class="cls-26">
        <path class="cls-32" d="M255.5,204.7a5.72,5.72,0,0,1-1.32,2.4,8.8,8.8,0,0,1-2.13,1.78,11.41,11.41,0,0,1-5.3,1.53,15.35,15.35,0,0,1-5.34-.67,14.38,14.38,0,0,1-4.7-2.38c1.75.17,3.41.36,5.06.42a30.15,30.15,0,0,0,4.78-.08,22.78,22.78,0,0,0,4.51-1A20.07,20.07,0,0,0,255.5,204.7Z"/>
      </g>
      <path class="cls-32" d="M188.49,193a34.4,34.4,0,0,0,3.75,12.7,30.72,30.72,0,0,0,8.31,10A34.7,34.7,0,0,0,212.4,221a85.78,85.78,0,0,0,13.05,2.25,234.75,234.75,0,0,0,26.71.86,100.6,100.6,0,0,0,13.24-1.4,128.22,128.22,0,0,0,13.09-2.88A74.89,74.89,0,0,1,265.65,224a76.54,76.54,0,0,1-13.42,1.89c-4.52.2-9,.25-13.5.23a133.75,133.75,0,0,1-13.51-.68A77.84,77.84,0,0,1,211.85,223a34.66,34.66,0,0,1-12.37-6,30.11,30.11,0,0,1-8.21-10.92,31.53,31.53,0,0,1-2.12-6.46A28,28,0,0,1,188.49,193Z"/>
      <path class="cls-34" d="M295.48,144.14l-25.76,1.57c-8.58.54-17.18,1-25.75,1.6q-25.72,1.78-51.38,4.32l-.41-4q25.76-2.53,51.53-4.21c8.6-.57,17.19-1,25.79-1.54l25.79-1.51Z"/>
      <path class="cls-28" d="M244.4,145.73s-1.93,20.08-4.06,22.12-34.68,4.5-37.81,3.8-9.06-23.28-9.06-23.28"/>
      <polygon class="cls-34" points="258.13 152.6 244.56 153.85 244.38 151.31 257.99 150.6 258.13 152.6"/>
    </g>
  </g>
</svg>
