<svg xmlns="http://www.w3.org/2000/svg" width="410" height="561" viewBox="0 0 410 561">
  <defs>
    <style>
      .cls-1 {
        isolation: isolate;
      }

      .cls-2 {
        fill: #3c5968;
      }

      .cls-3 {
        fill: #3b5b66;
      }

      .cls-4 {
        fill: #3a4449;
      }

      .cls-5 {
        fill: #40606d;
      }

      .cls-6 {
        fill: #2b4c57;
      }

      .cls-7 {
        fill: #42626d;
      }

      .cls-8 {
        fill: #2f545e;
      }

      .cls-9 {
        fill: #b6e0ef;
      }

      .cls-10 {
        fill: #2483c5;
      }

      .cls-11 {
        opacity: 0.6;
      }

      .cls-12 {
        fill: #405e6b;
      }

      .cls-13 {
        fill: #755946;
      }

      .cls-14 {
        fill: #f1b291;
      }

      .cls-15 {
        fill: none;
        stroke: #353e45;
        stroke-width: 3px;
      }

      .cls-15, .cls-29 {
        stroke-miterlimit: 10;
      }

      .cls-16 {
        fill: #a7755c;
      }

      .cls-17 {
        fill: #f7f5f5;
      }

      .cls-18 {
        fill: #684f3c;
      }

      .cls-19 {
        fill: #5b422a;
      }

      .cls-20 {
        fill: #1b6087;
      }

      .cls-21 {
        fill: #a77056;
      }

      .cls-22 {
        fill: #65262d;
        opacity: 0.9;
      }

      .cls-23 {
        fill: #cb5b65;
        opacity: 0.84;
      }

      .cls-24 {
        fill: #915a46;
      }

      .cls-25 {
        opacity: 0.8;
      }

      .cls-26 {
        fill: #353e45;
      }

      .cls-27 {
        opacity: 0.7;
      }

      .cls-28 {
        fill: #ebeded;
      }

      .cls-29, .cls-36 {
        fill: #536872;
      }

      .cls-29 {
        stroke: #405a63;
        stroke-width: 1.05px;
      }

      .cls-29, .cls-34 {
        opacity: 0.3;
      }

      .cls-30 {
        mix-blend-mode: multiply;
      }

      .cls-31 {
        fill: #f9a51a;
      }

      .cls-32 {
        fill: #ec125f;
      }

      .cls-33 {
        fill: #72be44;
      }

      .cls-35 {
        fill: #516672;
      }

      .cls-36 {
        opacity: 0.18;
      }

      .cls-37 {
        fill: #456572;
      }

      .cls-38 {
        opacity: 0.64;
      }

      .cls-39 {
        opacity: 0.77;
      }

      .cls-40 {
        fill: #fff;
      }

      .cls-41 {
        opacity: 0.36;
      }

      .cls-42 {
        opacity: 0.41;
      }

      .cls-43 {
        opacity: 0.71;
      }
    </style>
  </defs>
  <title>Q_haelt_Q</title>
  <g class="cls-1">
    <g id="Ebene_1" data-name="Ebene 1">
      <path class="cls-2" d="M143.47,363.2l-.94,29s28.1,12.92,59.45,17.94,51.44,2.67,51.44,2.67l3.27-38.91Z"/>
      <path class="cls-3" d="M159.74,215.32l-6.6,1.53S94,247.44,88.64,276.9C82.82,309,118,331,118,331l16.74-36.54s-11.77-4.15-10.92-15.31c.58-7.57,28.33-22.2,28.33-22.2Z"/>
      <path class="cls-4" d="M260.76,513.52a50.82,50.82,0,0,1,6.57,10.72,31.11,31.11,0,0,1,2.15,9.14s-9.31,5.1-25.8,7.56a135.14,135.14,0,0,1-35.09.69s2.06-6.89,14.14-13.89C231,522.91,245,517.64,245,517.64"/>
      <path class="cls-4" d="M178.57,506.75s4.21,6,6,11.24a31,31,0,0,1,1.59,9.3s-8.76,3.26-25.6,4.38A195.68,195.68,0,0,1,124,530.59s2.53-6.72,15.21-12.73c8.73-4.14,23.18-8.28,23.18-8.28"/>
      <path class="cls-2" d="M143,389.53s-1.09,27.84.35,55.14c.23,22.45,7,67.86,7,67.86a89.6,89.6,0,0,0,17.69.89c11.25-.38,17.12-2.55,17.12-2.55s-5.63-41.37-5.8-64.49c-1.06-21.38-.11-43-.11-43"/>
      <path class="cls-5" d="M155.21,216.46s33.34-8.78,65.72-4.29c42.78,5.94,66.4,20.15,66.4,20.15s-17,75.5-18.55,108.47-.9,58.5-.9,58.5-32.28,8-81.59,1.35c-39.19-5.25-58.13-12.4-58.13-12.4s2.72-39.74,9.89-91.2c3.36-24.1,13.09-63.2,13.09-63.2"/>
      <path class="cls-2" d="M214.46,405.86s2.17,25.8,4.75,53.4c.91,18.55,12.67,62.05,12.67,62.05a139.64,139.64,0,0,0,16.72.22A70.5,70.5,0,0,0,267,518.22s-10.72-40.14-11.62-58.94c-1.81-27.76-1.56-53.14-1.56-53.14"/>
      <g>
        <polyline class="cls-5" points="216.6 352.87 217.87 367.67 260.35 369.05 259.76 356.4"/>
        <path class="cls-6" d="M216.6,352.87l2.35,14.71-1-1c3.54,0,7.08.17,10.62.3l10.62.47c7.07.4,14.15.74,21.22,1.19l-.51.52-.07-6.34,0-6.34.57,6.31.52,6.31,0,.52h-.56c-7.09,0-14.17-.12-21.26-.19l-10.62-.22c-3.54-.1-7.08-.21-10.62-.39l-1-.05v-.93Z"/>
      </g>
      <g>
        <path class="cls-7" d="M185.49,332.6s20.25-15.1,30.82-24.76,20.81-24.59,20.81-24.59L223.45,273l17.51.07s12.12-34.12,11.31-47.66c-.46-7.74-8-15.52-8-15.52l-60.42-3.47s-9,10-11,13.9c-6.87,13.88-11.47,37.4-11.47,37.4L174,264.19l-13.12,3.33s1.9,18.57,5.25,30.94,13.45,32.45,13.45,32.45"/>
        <path class="cls-8" d="M185.14,332.13q7.13-5.43,14.13-11c4.66-3.74,9.28-7.53,13.75-11.48,2.23-2,4.4-4,6.44-6.14s4-4.38,5.93-6.65c3.81-4.56,7.43-9.33,10.79-14.2h0l.26,1.55-13.61-10.29h0L220.42,272h3L241,272l-1.08.76c1.83-5.24,3.53-10.55,5.11-15.87s3-10.7,4.23-16.1c.59-2.7,1.12-5.42,1.48-8.14a33.74,33.74,0,0,0,.32-8,20.68,20.68,0,0,0-2.77-7.37,37.45,37.45,0,0,0-4.81-6.49l.75.34-60.42-3.47h0l.91-.37c-3.16,3.49-6.3,7.06-9.09,10.79a23,23,0,0,0-1.85,2.84c-.49,1.06-1,2.1-1.48,3.18-.94,2.15-1.81,4.34-2.6,6.56-1.6,4.43-3,9-4.23,13.52s-2.38,9.16-3.36,13.78h0l-.36-.73,12.7,6.12h0l2.42,1.17-2.63.7-13.08,3.46h0l.85-1.22c.55,5.48,1.25,11,2.11,16.44A136,136,0,0,0,167.46,300a153.11,153.11,0,0,0,5.75,15.51q3.23,7.64,6.87,15.12l-1.08.54q-3.77-7.45-7.15-15.07a154.57,154.57,0,0,1-6.07-15.59c-.85-2.69-1.49-5.41-2.09-8.13s-1.12-5.47-1.59-8.21c-.95-5.49-1.74-11-2.38-16.54l-.11-1,1-.23h0l13.15-3.19-.21,1.86h0l-12.4-6.7-.45-.24.09-.49h0c.92-4.68,2-9.31,3.16-13.93s2.51-9.19,4.05-13.71q1.15-3.39,2.54-6.72c.45-1.11,1-2.19,1.47-3.29a24.66,24.66,0,0,1,2-3.16c2.83-3.91,5.91-7.52,9.06-11.12l.35-.4.55,0h0l60.42,3.47.46,0,.29.32a39.55,39.55,0,0,1,5.14,6.93,22.89,22.89,0,0,1,3.06,8.2,35.58,35.58,0,0,1-.32,8.65c-.38,2.81-.92,5.57-1.51,8.32-1.21,5.49-2.68,10.9-4.27,16.27s-3.3,10.69-5.15,16l-1.08.76-17.51-.19.61-1.84h0l13.75,10.11.89.65-.63.9h0c-3.51,4.92-7.21,9.65-11.14,14.21-2,2.28-4,4.5-6.11,6.66s-4.37,4.19-6.64,6.14c-4.56,3.91-9.26,7.64-14,11.32s-9.51,7.29-14.33,10.84Z"/>
      </g>
      <path class="cls-9" d="M184.1,324.21s20-19,35.69-51.53c12-24.86,18.7-52.09,18.7-52.09l-55.25-3.47s-7.08,25.78-7.58,48.45A185.71,185.71,0,0,0,184.1,324.21Z"/>
      <path class="cls-10" d="M199.94,224.8l-9,12.26s1.92,2.4,6.91,2.89a21.29,21.29,0,0,0,8.7-.88L201.63,225Z"/>
      <g class="cls-11">
        <path class="cls-12" d="M180.49,230.23a25.38,25.38,0,0,0,3.69,4.24c1.4,1.34,2.9,2.63,4.42,3.82h0l-1.43.25,12.73-18.86,1.69-2.51.94,2.87,7.41,22.5L209,242h0c2.36-.54,4.74-1.2,7.07-1.92s4.65-1.53,6.91-2.43a42.06,42.06,0,0,0,6.47-3.14,31.8,31.8,0,0,0,5.62-4.21l2.11,2.13a34.17,34.17,0,0,1-6.39,4.41,43.48,43.48,0,0,1-7,3c-2.37.82-4.77,1.52-7.18,2.15s-4.83,1.18-7.31,1.62h0l-.68.15-.27-.69-8.65-22,2.64.36-13.5,18.31-.62.84-.81-.59h0c-1.7-1.13-3.32-2.31-4.91-3.6a27.87,27.87,0,0,1-4.48-4.42Z"/>
      </g>
      <path class="cls-13" d="M191.14,74.58s-18.62,16.86-21.23,30.47c-1.91,9.93-1,27-1,27l32.23-53.82Z"/>
      <path class="cls-14" d="M251.57,200.15s-3.55,14.52-17.82,20.42c-20,8.27-71.1-1-77.56-9.42-5.62-7.31.9-49.79,12.95-85.85C178.61,96.92,197,73,197,73s29.26-3.16,52.4,3.31a84.17,84.17,0,0,1,32,17.55l-24.85,91.61"/>
      <path class="cls-13" d="M269.93,92.34s-8.45,14.5-10.52,27.39c-1.79,11.13-3.38,37.61-3.38,37.61a104.58,104.58,0,0,0-8.51,11.74c-4.78,8.21-3.21,15.08-3.21,15.08l16.25-15.25L249.19,206s7.52,0,12.33-8.74,22.29-43.43,25.88-56.73c1.91-7.06,8.94-42.14,5.87-49a11.47,11.47,0,0,0-6.62-6.18,16.44,16.44,0,0,0-10.53-15.7c-16.59-7.06-55.17-11.43-70.29-9.46-11.62,1.52-29,15.7-29,15.7s14.73,4.69,22.52,4.43,28.81-3.94,28.81-3.94S215,81.11,211.16,82.86s-11.22,7.06-11.22,7.06,14.69,1.43,19.73,1,25.7-6.39,25.7-6.39-8.25,3.74-12.14,5.75a61.49,61.49,0,0,0-7.57,4.78s13.32,3.35,23.64,2.5S269.93,92.34,269.93,92.34Z"/>
      <line class="cls-15" x1="249.7" y1="160.95" x2="266.78" y2="168.21"/>
      <path class="cls-14" d="M250.69,178.3s8.38-13.75,18.9-13.58c14.85.23,5.62,30.1-4.91,34-9.23,3.42-14.21-1.15-14.21-1.15"/>
      <path class="cls-16" d="M253.43,186.49a19,19,0,0,1,7.71-11.13,12.79,12.79,0,0,1,3.32-1.59,12.52,12.52,0,0,1,1.81-.44,11.26,11.26,0,0,1,1.89-.08c2.51.09,5.18,1.35,6.15,3.63a12,12,0,0,0-5.94-.13,18.06,18.06,0,0,0-2.64.79,15.57,15.57,0,0,0-2.55,1.16,33.13,33.13,0,0,0-4.88,3.5C256.71,183.53,255.12,185,253.43,186.49Z"/>
      <path class="cls-17" d="M243.55,155.24c-1.74,7.63-8.6,12-16.68,10.29A13.65,13.65,0,0,1,216.25,149a14,14,0,1,1,27.3,6.23Z"/>
      <path class="cls-17" d="M191.66,145.38c-2.22,7.39-7.61,12.21-15.12,10.61-7-1.51-10.87-8.71-9.45-16.3,1.51-8,8.53-12.18,15.55-10.58S193.72,138.5,191.66,145.38Z"/>
      <path class="cls-18" d="M215.48,129.06a99.36,99.36,0,0,1,19.29,6.56,66.37,66.37,0,0,1,13.8,8.89l.6-4.14s-1.61-5.92-12.48-11a60.69,60.69,0,0,0-19.41-4.93Z"/>
      <path class="cls-19" d="M221.09,140.77a10.19,10.19,0,0,1,6.57-3.77,14,14,0,0,1,7.76,1.08,14.22,14.22,0,0,1,6.11,4.89,11.48,11.48,0,0,1,2.17,7.25,19.55,19.55,0,0,0-4-5.74,17.76,17.76,0,0,0-5.48-3.65,16.93,16.93,0,0,0-6.39-1.49A15.09,15.09,0,0,0,221.09,140.77Z"/>
      <path class="cls-19" d="M168.5,135.28a8.76,8.76,0,0,1,4.25-5.56,13.51,13.51,0,0,1,7-1.81,12,12,0,0,1,7,1.9,9.29,9.29,0,0,1,4,5.7,12.54,12.54,0,0,0-5-4,13.46,13.46,0,0,0-6-1,18.23,18.23,0,0,0-6.06,1.11A12.9,12.9,0,0,0,168.5,135.28Z"/>
      <path class="cls-18" d="M196.13,126.17a51,51,0,0,0-14-1.42,47.8,47.8,0,0,0-14.6,2.72l1.18-3.54a21.76,21.76,0,0,1,12.51-5.05,32.2,32.2,0,0,1,15.35,2.81Z"/>
      <ellipse class="cls-20" cx="229.32" cy="153.05" rx="7.42" ry="5.83" transform="translate(45.33 358.38) rotate(-81.86)"/>
      <ellipse class="cls-20" cx="179.54" cy="142.87" rx="7.21" ry="5.35" transform="translate(10.67 298.2) rotate(-81.12)"/>
      <path class="cls-15" d="M152.91,133.45s.82,21.43,1.72,23,31.09,7.48,31.09,7.48"/>
      <g>
        <path class="cls-14" d="M201.52,125.34S190.65,144.19,185.39,156s-6.91,22.11-5.2,24.05,7.75,4.16,14.74,4.61,10.77-1.32,10.77-1.32"/>
        <path class="cls-21" d="M201.52,125.34l-9.14,19.59c-3,6.53-6,13-8,19.73-.51,1.68-1,3.37-1.34,5.06a40.72,40.72,0,0,0-.88,5,22.85,22.85,0,0,0-.13,2.39l0,.53a2.26,2.26,0,0,0,0,.47c0,.29.13.53.08.43a.24.24,0,0,0-.1-.11l.07.07a2.31,2.31,0,0,0,.28.23,7.08,7.08,0,0,0,.83.54,16.59,16.59,0,0,0,2.12,1,32.56,32.56,0,0,0,4.78,1.44,38,38,0,0,0,5,.83c3.4.35,6.68.69,10.51.83a11.75,11.75,0,0,1-5.08,2.77,19.74,19.74,0,0,1-5.69.71,36.59,36.59,0,0,1-11.29-2,21.47,21.47,0,0,1-2.8-1.25,11.94,11.94,0,0,1-1.44-.91,7,7,0,0,1-.75-.65,4.82,4.82,0,0,1-.39-.42,7.19,7.19,0,0,1-.45-.69,6,6,0,0,1-.64-2.15,5.82,5.82,0,0,1-.08-.87l0-.82a24.73,24.73,0,0,1,.27-3,55.52,55.52,0,0,1,2.92-10.86,91.68,91.68,0,0,1,4.43-10.1c1.63-3.26,3.42-6.41,5.22-9.55Q195.36,134.26,201.52,125.34Z"/>
      </g>
      <path class="cls-22" d="M177.06,189.93s1.55,14.34,15.78,17.2c17,3.41,26.38-15.7,26.38-15.7"/>
      <path class="cls-23" d="M185.74,203.17s3.12,3.54,10.11,3.81,14.35-5.1,14.35-5.1a47.83,47.83,0,0,0-12.58-1.8A30.35,30.35,0,0,0,185.74,203.17Z"/>
      <path class="cls-17" d="M177.06,189.93s1,4.91,1.65,5.62a30.8,30.8,0,0,0,14.17,5.74,63.82,63.82,0,0,0,19.81-1.59,39.75,39.75,0,0,0,3.42-4,35.64,35.64,0,0,0,2.26-4S202,194.34,194,193.5A107.63,107.63,0,0,1,177.06,189.93Z"/>
      <g>
        <path class="cls-14" d="M174.21,187.57a36.9,36.9,0,0,0,17.57,7.29c16.72,2.39,28.32-4.22,28.32-4.22"/>
        <path class="cls-24" d="M174.66,187a33.76,33.76,0,0,0,5.11,2.84,42.85,42.85,0,0,0,5.47,2.09,45.36,45.36,0,0,0,11.5,1.84,54.63,54.63,0,0,0,11.68-.73,47.65,47.65,0,0,0,5.72-1.32,40.31,40.31,0,0,0,5.49-2l1,1.67A38.65,38.65,0,0,1,209,195.84a46.43,46.43,0,0,1-12.35,1c-1-.05-2.07-.12-3.09-.27s-2.05-.24-3.08-.45a36.23,36.23,0,0,1-6-1.67,32.67,32.67,0,0,1-10.66-6.32Z"/>
      </g>
      <path class="cls-21" d="M216.9,186.32a6.25,6.25,0,0,1,3.62.86,7.49,7.49,0,0,1,2.75,2.67,7.28,7.28,0,0,1,1,3.71,5.64,5.64,0,0,1-1.14,3.57c-.42-1.2-.79-2.21-1.18-3.15a20.51,20.51,0,0,0-1.3-2.59A22.29,22.29,0,0,0,219,189Z"/>
      <g class="cls-25">
        <path class="cls-21" d="M183.67,209a32.67,32.67,0,0,0,3.86,2.65,19.76,19.76,0,0,0,3.94,1.77,20.24,20.24,0,0,0,4.23.84,45.63,45.63,0,0,0,4.7.18,9.6,9.6,0,0,1-4.62,2,11.05,11.05,0,0,1-9.59-3.07A9.05,9.05,0,0,1,183.67,209Z"/>
      </g>
      <path class="cls-21" d="M251.38,197.8a28,28,0,0,1-1.51,6.57,31.54,31.54,0,0,1-2.91,6.14,30.11,30.11,0,0,1-9.51,9.8,34.66,34.66,0,0,1-13,4.35,77.84,77.84,0,0,1-13.58.74,133.75,133.75,0,0,1-13.49-1c-4.48-.55-8.9-1.16-13.36-1.93a76.54,76.54,0,0,1-13.07-3.56,74.89,74.89,0,0,1-12.21-5.74,128.21,128.21,0,0,0,12.62,4.51,100.6,100.6,0,0,0,13,3.06,234.75,234.75,0,0,0,26.6,2.5,85.78,85.78,0,0,0,13.23-.59,34.7,34.7,0,0,0,12.42-3.81,30.72,30.72,0,0,0,9.51-8.88A34.41,34.41,0,0,0,251.38,197.8Z"/>
      <path class="cls-26" d="M152,132.19l25.39,4.74c8.46,1.6,16.93,3.13,25.39,4.77q25.38,5,50.59,10.66l-.91,3.9q-25.1-5.77-50.43-10.74c-8.43-1.66-16.9-3.21-25.35-4.83l-25.36-4.79Z"/>
      <path class="cls-15" d="M201.85,143.9s-.61,20.17,1.25,22.46,33.84,8.82,37,8.52,11.91-22,11.91-22"/>
      <polygon class="cls-26" points="187.76 147.02 201.17 149.44 200.67 151.94 187.37 148.99 187.76 147.02"/>
      <path class="cls-10" d="M195,240s-8.9,25.6-11.11,37-4.28,31.07-4.28,31.07L184,324.2l13-14.41L200,277l.82-36.64Z"/>
      <g>
        <polyline class="cls-5" points="155.15 342.87 150.68 357.23 128.58 352.01 133.99 339.68"/>
        <path class="cls-6" d="M155.14,342.86l-3.41,14.69-.23,1-1.09-.24q-2.77-.61-5.52-1.31l-5.49-1.44-11-3-.7-.19.3-.61q2.94-6.06,5.94-12.1-2.4,6.3-4.87,12.57l-.4-.8,11.14,2.23,5.55,1.17q2.77.62,5.52,1.3l-1.32.75Z"/>
      </g>
      <g class="cls-27">
        <path class="cls-5" d="M183.48,325.28s-3,30.42-3.7,44.65-.69,29-.69,29"/>
        <path class="cls-6" d="M184,325.33c-1.05,12.25-2.06,24.52-2.83,36.78-.4,6.13-.6,12.25-.72,18.4s-.15,12.29-.1,18.42h-2.5q.11-9.26.47-18.48c.24-6.15.57-12.32,1.1-18.46,1-12.28,2.28-24.51,3.58-36.75Z"/>
      </g>
      <path class="cls-6" d="M206.46,410.52a128.62,128.62,0,0,1-13.73-1.24c-4.56-.62-9.08-1.47-13.58-2.5-2.23-.56-4.49-1.12-6.69-1.83s-4.39-1.47-6.51-2.37a77.25,77.25,0,0,1-12.3-6.28q6.42,2.52,12.89,4.7c4.33,1.43,8.67,2.68,13.11,3.68s8.9,2,13.37,2.95S202,409.49,206.46,410.52Z"/>
      <path class="cls-6" d="M178.5,408.86a20.92,20.92,0,0,1-5.56,1.3,29.55,29.55,0,0,1-5.67,0,24.05,24.05,0,0,1-5.59-1.21,19,19,0,0,1-5.11-2.6,54.46,54.46,0,0,1,5.61.29l5.37.53c1.78.16,3.6.34,5.42.59A44.34,44.34,0,0,1,178.5,408.86Z"/>
      <polygon class="cls-28" points="223.43 245.03 253.23 251.12 246.05 280.32 217.5 273.76 223.43 245.03"/>
      <line class="cls-29" x1="222.54" y1="271.31" x2="241.8" y2="275.64"/>
      <g>
        <g class="cls-30">
          <path class="cls-31" d="M238.62,272a1.37,1.37,0,0,1-.92-.76l-3.7-7.32a2.19,2.19,0,0,1,.53-2.57,1.29,1.29,0,0,1,2.06.44l3.71,7.32a2.19,2.19,0,0,1-.54,2.57A1.35,1.35,0,0,1,238.62,272Z"/>
        </g>
        <g class="cls-30">
          <path class="cls-32" d="M240.43,257.51a1.36,1.36,0,0,1-.92-.75,4.73,4.73,0,0,0-7.54-1.58,1.28,1.28,0,0,1-2-.43,2.19,2.19,0,0,1,.53-2.56c4-3.34,9.27-2.26,11.66,2.42a2.19,2.19,0,0,1-.54,2.57A1.36,1.36,0,0,1,240.43,257.51Z"/>
        </g>
        <g class="cls-30">
          <path class="cls-10" d="M228.34,267.44a1.35,1.35,0,0,1-.91-.75,12.41,12.41,0,0,1,3-14.49,1.28,1.28,0,0,1,2,.43,2.19,2.19,0,0,1-.53,2.56,8,8,0,0,0-2,9.39,2.19,2.19,0,0,1-.53,2.56A1.33,1.33,0,0,1,228.34,267.44Z"/>
        </g>
        <g class="cls-30">
          <path class="cls-33" d="M232.6,271a7.67,7.67,0,0,1-5.18-4.26,2.19,2.19,0,0,1,.53-2.56,1.28,1.28,0,0,1,2,.44,4.73,4.73,0,0,0,7.53,1.61,8,8,0,0,0,2-9.42,2.19,2.19,0,0,1,.54-2.57,1.3,1.3,0,0,1,2.07.43,12.4,12.4,0,0,1-3,14.58A7.59,7.59,0,0,1,232.6,271Z"/>
        </g>
      </g>
      <g class="cls-34">
        <polygon class="cls-35" points="222.11 249.75 216.79 274.63 216.03 273.42 220.95 274.83 220.66 276.14 215.61 275.38 214.57 275.22 214.85 274.17 221.38 249.58 222.11 249.75"/>
      </g>
      <polygon class="cls-36" points="247.88 251.91 250.24 252.57 249.45 254.94 247.46 254.28 247.88 251.91"/>
      <path class="cls-37" d="M286.48,231.5s47,59.48,42.48,89.67c-5.32,35.66-80.7,33-80.7,33a69.31,69.31,0,0,0,2.08-17.58,86.57,86.57,0,0,0-2.68-18.72s36.07,3.28,45.28-6.73c5.28-5.74-23.14-42.41-23.14-42.41s-1.23-7.92,4.07-20.76C277.92,238.12,286.48,231.5,286.48,231.5Z"/>
      <g class="cls-38">
        <path class="cls-6" d="M152.41,230.15c-.73,4.95-1.65,9.85-2.64,14.73s-2.06,9.74-3.17,14.6-2.32,9.68-3.6,14.5-2.62,9.62-4.15,14.38c.72-4.94,1.64-9.84,2.63-14.72s2.07-9.75,3.18-14.6,2.32-9.69,3.61-14.51S150.88,234.9,152.41,230.15Z"/>
      </g>
      <g class="cls-39">
        <path class="cls-6" d="M267.19,267.84a91.67,91.67,0,0,1,8.95,8.59q2.11,2.27,4.09,4.66c1.35,1.57,2.6,3.22,3.86,4.86s2.48,3.32,3.59,5.12a60.1,60.1,0,0,1,3,5.5,55,55,0,0,1,4.16,11.74c-2.15-3.56-4.2-7.1-6.33-10.56s-4.37-6.73-6.8-10l-7.29-9.86C272,274.56,269.54,271.25,267.19,267.84Z"/>
      </g>
      <g>
        <path class="cls-40" d="M213.27,400.14a10.53,10.53,0,0,1-1.88-.17,11.39,11.39,0,0,1-7.82-5.74l-2.63-4.56A54.62,54.62,0,0,1,177.6,395a52.71,52.71,0,0,1-9.38-.84c-16.22-2.94-30.13-13.22-39.18-29s-12.09-34.76-8.78-53.93,12.67-36.12,26.35-47.74C157.84,254,170.89,249,184.36,249c19.53,0,37.6,11,48.33,29.41,9.13,15.67,12.32,34.94,9,54.27A81.6,81.6,0,0,1,221.93,374l2.16,3.73a16.05,16.05,0,0,1-3.4,19.63,11.49,11.49,0,0,1-7.42,2.82ZM183,277.17c-8.11,0-16,3-22.79,8.81-8.43,7.14-14.2,17.6-16.25,29.46s-.13,23.67,5.41,33.27c6.48,11.25,17.41,18,29.23,18a32.45,32.45,0,0,0,8.38-1.11l-12-20.75a16.06,16.06,0,0,1,3.38-19.56,11.47,11.47,0,0,1,7.44-2.84,11.18,11.18,0,0,1,9.62,5.85l12.87,22.21c11.83-15.86,13.52-38.83,3.85-55.47C205.58,283.67,195,277.17,183,277.17Z"/>
        <path class="cls-40" d="M184.36,250.45c18.39,0,36.09,9.89,47,28.67,8.95,15.36,12.08,34.28,8.8,53.26a80.27,80.27,0,0,1-20.11,41.37l2.71,4.69a14.48,14.48,0,0,1-3.06,17.73,10,10,0,0,1-6.46,2.47,9,9,0,0,1-1.61-.14,9.94,9.94,0,0,1-6.79-5l-3.33-5.76a53.6,53.6,0,0,1-23.94,5.77,51,51,0,0,1-9.11-.82c-15.79-2.86-29.33-12.89-38.15-28.23s-11.85-34.1-8.6-52.92,12.43-35.46,25.84-46.86c11.28-9.58,24.19-14.21,36.77-14.21m-5.73,117.73a34.16,34.16,0,0,0,10.63-1.72l-12.94-22.4a14.48,14.48,0,0,1,3.05-17.66,10,10,0,0,1,6.47-2.49,9.63,9.63,0,0,1,8.33,5.1l14,24.13c13.17-16,15.84-40.82,5.33-58.89-7.07-12.17-18.54-18.59-30.45-18.59a36.7,36.7,0,0,0-23.76,9.17c-8.7,7.37-14.65,18.15-16.76,30.34s-.12,24.37,5.59,34.28c7.05,12.24,18.56,18.72,30.53,18.72m5.73-120.73c-13.83,0-27.22,5.16-38.71,14.93C131.7,274.23,122.16,291.5,118.79,311s-.19,39,9,54.93C137,382.06,151.29,392.6,168,395.62a54.22,54.22,0,0,0,9.64.87,55.87,55.87,0,0,0,22.72-4.89l2,3.38a12.86,12.86,0,0,0,8.86,6.46,12.08,12.08,0,0,0,2.15.19,13,13,0,0,0,8.38-3.17,17.38,17.38,0,0,0,3.73-21.53l-1.61-2.79a83.29,83.29,0,0,0,19.37-41.26c3.4-19.68.15-39.31-9.16-55.28a61.84,61.84,0,0,0-21.78-22.44,54.46,54.46,0,0,0-27.84-7.71Zm-5.73,117.73c-11.45,0-21.63-6.28-27.93-17.22-5.36-9.3-7.22-20.76-5.23-32.27S153,294,161.2,287.12c6.53-5.53,14.07-8.46,21.82-8.46,11.39,0,21.55,6.23,27.86,17.1,9,15.49,7.85,36.65-2.42,51.94l-11.7-20.19a12.66,12.66,0,0,0-10.92-6.6,13,13,0,0,0-8.4,3.2,17.38,17.38,0,0,0-3.71,21.46l11,19a30.7,30.7,0,0,1-6.07.61Z"/>
      </g>
      <g>
        <g class="cls-30">
          <path class="cls-10" d="M137.06,369.41a9.8,9.8,0,0,1-6.72-5c-8.8-15.31-11.85-34.1-8.6-52.92s12.43-35.46,25.84-46.86a9.38,9.38,0,0,1,14.72,2.54,14.46,14.46,0,0,1-3,17.63c-8.7,7.37-14.65,18.15-16.76,30.34s-.12,24.37,5.59,34.28a14.47,14.47,0,0,1-3,17.63A9.66,9.66,0,0,1,137.06,369.41Z"/>
        </g>
        <g class="cls-30">
          <path class="cls-33" d="M168.49,392.67c-15.79-2.86-29.33-12.89-38.15-28.23a14.47,14.47,0,0,1,3-17.61c4.9-4.14,11.48-3,14.71,2.62,11.81,20.49,36.1,24.86,54.17,9.67s23.13-44.36,11.21-64.87a14.48,14.48,0,0,1,3.06-17.7,9.5,9.5,0,0,1,14.86,2.56c8.95,15.36,12.08,34.28,8.8,53.26S227.62,368.1,214,379.49,184.31,395.54,168.49,392.67Z"/>
        </g>
        <g class="cls-34">
          <path class="cls-33" d="M168.49,392.67c-15.79-2.86-29.33-12.89-38.15-28.23a14.47,14.47,0,0,1,3-17.61c4.9-4.14,11.48-3,14.71,2.62,11.81,20.49,36.1,24.86,54.17,9.67s23.13-44.36,11.21-64.87a14.48,14.48,0,0,1,3.06-17.7,9.5,9.5,0,0,1,14.86,2.56c8.95,15.36,12.08,34.28,8.8,53.26S227.62,368.1,214,379.49,184.31,395.54,168.49,392.67Z"/>
        </g>
        <g class="cls-30">
          <path class="cls-32" d="M220.26,299.21a9.85,9.85,0,0,1-6.79-5c-11.9-20.47-36.22-24.67-54.21-9.42a9.38,9.38,0,0,1-14.72-2.56,14.47,14.47,0,0,1,3-17.61c27.77-23.58,65.37-17.17,83.8,14.46a14.48,14.48,0,0,1-3.06,17.72A9.83,9.83,0,0,1,220.26,299.21Z"/>
        </g>
        <g class="cls-30">
          <path class="cls-31" d="M211.66,398.49a9.94,9.94,0,0,1-6.79-5l-28.56-49.41a14.48,14.48,0,0,1,3.05-17.66c4.93-4.16,11.55-3,14.8,2.61l28.63,49.43a14.48,14.48,0,0,1-3.06,17.73A9.77,9.77,0,0,1,211.66,398.49Z"/>
        </g>
        <g class="cls-41">
          <path class="cls-31" d="M211.66,398.49a9.94,9.94,0,0,1-6.79-5l-28.56-49.41a14.48,14.48,0,0,1,3.05-17.66c4.93-4.16,11.55-3,14.8,2.61l28.63,49.43a14.48,14.48,0,0,1-3.06,17.73A9.77,9.77,0,0,1,211.66,398.49Z"/>
        </g>
        <g class="cls-42">
          <path class="cls-32" d="M220.26,299.21a9.85,9.85,0,0,1-6.79-5c-11.9-20.47-36.22-24.67-54.21-9.42a9.38,9.38,0,0,1-14.72-2.56,14.47,14.47,0,0,1,3-17.61c27.77-23.58,65.37-17.17,83.8,14.46a14.48,14.48,0,0,1-3.06,17.72A9.83,9.83,0,0,1,220.26,299.21Z"/>
        </g>
      </g>
      <path class="cls-14" d="M112.71,300.08c5.87-10.24,14-11.54,22.15-9.53,11.7,2.89,16,12.18,14.69,21.61s-8.23,13.66-16,13.33c-4.26-.18-10.89-3-10.89-3s-3.72,6.23-9.22,2.8C106.65,321.05,107.6,309,112.71,300.08Z"/>
      <path class="cls-14" d="M255,320.57a19.45,19.45,0,0,0-14.66-8.86c-13.27-1.51-25.21,4.57-27.22,13.42-2.23,9.84,0,14.41,8.29,19.31,5.87,3.49,15.45,1.36,15.45,1.36s2.83,6.49,12.6,5.5C260.25,350.19,263.18,332.26,255,320.57Z"/>
      <g class="cls-43">
        <path class="cls-21" d="M212,327.14a30.06,30.06,0,0,1,6.52-3.48,35.94,35.94,0,0,1,7-2,63.63,63.63,0,0,1,7.13-.83c2.38-.15,4.74-.22,7.14-.19l0,2.3c-2.29,0-4.63.08-6.93.25a61.27,61.27,0,0,0-6.85.86,32.35,32.35,0,0,0-6.5,1.92,27.85,27.85,0,0,0-5.84,3.21Z"/>
      </g>
      <g class="cls-43">
        <path class="cls-21" d="M214.39,339.23a43.11,43.11,0,0,1,5.83-3,31.17,31.17,0,0,1,6.27-2,33.41,33.41,0,0,1,6.53-.43,44.19,44.19,0,0,1,6.45.62l-.25,1.48a42.72,42.72,0,0,0-6.2-.31,31.65,31.65,0,0,0-6.1.68,29,29,0,0,0-5.73,2.1,40.84,40.84,0,0,0-5.31,3.06Z"/>
      </g>
      <g class="cls-43">
        <path class="cls-21" d="M125.18,299.06a32.5,32.5,0,0,1,7.11.77A35.81,35.81,0,0,1,139.1,302a32.49,32.49,0,0,1,6.2,3.65,44.06,44.06,0,0,1,5.43,4.7l-2,1.78a41.78,41.78,0,0,0-4.91-4.6,30.29,30.29,0,0,0-5.63-3.63,33.87,33.87,0,0,0-6.35-2.32,31.06,31.06,0,0,0-6.67-1Z"/>
      </g>
      <g class="cls-43">
        <path class="cls-21" d="M122.57,311.28a37.46,37.46,0,0,1,6.54.8,30.5,30.5,0,0,1,6.3,2,55.12,55.12,0,0,1,5.77,3.12c1.86,1.14,3.66,2.33,5.44,3.62L145,323c-1.63-1.29-3.36-2.56-5.1-3.73a53,53,0,0,0-5.4-3.24,28.77,28.77,0,0,0-5.82-2.18,36,36,0,0,0-6.17-1.05Z"/>
      </g>
    </g>
  </g>
</svg>
