<svg xmlns="http://www.w3.org/2000/svg" width="410" height="561" viewBox="0 0 410 561">
  <defs>
    <style>
      .cls-1 {
        isolation: isolate;
      }

      .cls-2 {
        fill: #3c5968;
      }

      .cls-3 {
        fill: #3b5b66;
      }

      .cls-4 {
        fill: #2b4c57;
      }

      .cls-5 {
        fill: #3a4449;
      }

      .cls-6 {
        fill: #40606d;
      }

      .cls-7 {
        fill: #42626d;
      }

      .cls-8 {
        fill: #2f545e;
      }

      .cls-9 {
        fill: #b6e0ef;
      }

      .cls-10 {
        fill: #2483c5;
      }

      .cls-11 {
        opacity: 0.6;
      }

      .cls-12 {
        fill: #405e6b;
      }

      .cls-13 {
        opacity: 0.7;
      }

      .cls-14 {
        fill: #eff4f4;
      }

      .cls-15, .cls-22 {
        fill: #536872;
      }

      .cls-15 {
        stroke: #405a63;
        stroke-width: 1.04px;
      }

      .cls-15, .cls-29 {
        stroke-miterlimit: 10;
      }

      .cls-15, .cls-20 {
        opacity: 0.3;
      }

      .cls-16 {
        mix-blend-mode: multiply;
      }

      .cls-17 {
        fill: #f9a51a;
      }

      .cls-18 {
        fill: #ec125f;
      }

      .cls-19 {
        fill: #72be44;
      }

      .cls-21 {
        fill: #516672;
      }

      .cls-22 {
        opacity: 0.18;
      }

      .cls-23 {
        fill: #f1b291;
      }

      .cls-24 {
        fill: #456572;
      }

      .cls-25 {
        opacity: 0.77;
      }

      .cls-26 {
        opacity: 0.8;
      }

      .cls-27 {
        fill: #a77056;
      }

      .cls-28 {
        fill: #755946;
      }

      .cls-29 {
        fill: none;
        stroke: #353e45;
        stroke-width: 3px;
      }

      .cls-30 {
        fill: #a7755c;
      }

      .cls-31 {
        fill: #f7f5f5;
      }

      .cls-32 {
        fill: #684f3c;
      }

      .cls-33 {
        fill: #5b422a;
      }

      .cls-34 {
        fill: #1b6087;
      }

      .cls-35 {
        fill: #65262d;
        opacity: 0.9;
      }

      .cls-36 {
        fill: #cb5b65;
        opacity: 0.84;
      }

      .cls-37 {
        fill: #915a46;
      }

      .cls-38 {
        fill: #353e45;
      }
    </style>
  </defs>
  <title>Q_daumen_hoch</title>
  <g class="cls-1">
    <g id="Ebene_1" data-name="Ebene 1">
      <path class="cls-2" d="M244.63,353.38l.44,29s-28.32,12.44-59.75,16.92-51.48,1.79-51.48,1.79l-2.6-39Z"/>
      <path class="cls-3" d="M230.17,207.18l11,2.75s10.25,51.75,24.25,64.75,56-6,56-6,0,11,0,18,3,18,3,18-43.34,14-68,7c-31.79-9-35-72-35-72Z"/>
      <path class="cls-4" d="M243.7,243.88q1.56,10.24,2.7,20.52c.79,6.85,1.45,13.72,2.08,20.58s1.16,13.74,1.57,20.62.75,13.76.91,20.67q-1.53-10.24-2.64-20.53c-.76-6.86-1.43-13.72-2.06-20.58s-1.15-13.73-1.59-20.61S243.88,250.79,243.7,243.88Z"/>
      <path class="cls-5" d="M125.78,501.66A50.82,50.82,0,0,0,119,512.27a31.11,31.11,0,0,0-2.31,9.1s9.22,5.26,25.67,8a135.14,135.14,0,0,0,35.08,1.29s-1.94-6.93-13.9-14.13c-8.24-5-22.1-10.47-22.1-10.47"/>
      <path class="cls-5" d="M209.07,495.3s-4.32,5.88-6.14,11.13a31,31,0,0,0-1.75,9.27s8.71,3.41,25.52,4.81a195.68,195.68,0,0,0,36.55-.44s-2.41-6.76-15-13c-8.66-4.29-23-8.68-23-8.68"/>
      <path class="cls-2" d="M244.7,379.71s2.34,31.76,1.7,55.12c-.62,22.45-9.15,65.73-9.15,65.73a89.6,89.6,0,0,1-17.71.58,116.8,116.8,0,0,1-17.07-2.84s7.34-39.27,7.9-62.38c.57-18-1.15-43-1.15-43"/>
      <path class="cls-6" d="M238.42,209.46s-28.37-11.13-68-7.77C129.86,205.12,102,217.05,102,217.05s14.68,78.78,15.69,111.77-.1,58.51-.1,58.51,32.13,8.51,81.55,2.75c39.27-4.58,58.33-11.4,58.33-11.4s-4-34.78-10.33-86.35c-2.95-24.15-6-65.42-6-65.42"/>
      <path class="cls-2" d="M172.92,394.82s-1.77,29.37-4.66,53.31C167,466.67,154.52,510,154.52,510a139.64,139.64,0,0,1-16.72-.07,70.5,70.5,0,0,1-18.33-3.63s11.41-40,12.63-58.73a525.88,525.88,0,0,0,1.47-53.1"/>
      <g>
        <polyline class="cls-6" points="168.69 341.79 167.17 356.57 124.67 357.22 125.48 344.58"/>
        <path class="cls-4" d="M168.69,341.79l-.45,14.89,0,.93-1,0c-3.54.12-7.08.17-10.62.21l-10.63,0c-7.09-.06-14.17-.06-21.26-.18h-.56l.05-.52.63-6.3.67-6.3-.13,6.34-.18,6.33-.5-.53c7.08-.33,14.16-.55,21.24-.83l10.62-.29c3.54-.07,7.08-.13,10.62-.12l-1.06,1Z"/>
      </g>
      <g>
        <path class="cls-7" d="M200.14,322.06s-20-15.45-30.39-25.29-20.38-24.94-20.38-24.94l13.85-10-17.51-.23s-11.53-34.33-10.49-47.84c.6-7.73,8.27-15.38,8.27-15.38L204,196s8.41,10.37,10.72,14.09,10.83,37.59,10.83,37.59l-12.66,6.19,13.06,3.55s-2.22,18.54-5.78,30.84-14,32.22-14,32.22"/>
        <path class="cls-8" d="M199.78,322.52q-7.14-5.46-14.14-11.09c-4.66-3.76-9.3-7.57-13.79-11.55-2.24-2-4.46-4.07-6.54-6.26s-4.07-4.45-6-6.76c-3.85-4.63-7.47-9.42-10.9-14.4h0l-.61-.91.9-.64L162.62,261h0l.58,1.85-17.51-.11h-.81l-.25-.77q-2.64-8-4.87-16.07c-1.49-5.39-2.87-10.83-4-16.34-.55-2.76-1-5.53-1.37-8.35a35.58,35.58,0,0,1-.17-8.65,22.89,22.89,0,0,1,3.2-8.15,39.55,39.55,0,0,1,5.26-6.84l.3-.31.46,0,60.47-2.43h0l.58,0,.35.44c3,3.73,5.87,7.46,8.67,11.33.7,1,1.38,1.94,2,3a22.74,22.74,0,0,1,1.39,3.49c.75,2.28,1.41,4.56,2.07,6.84,2.57,9.15,4.88,18.34,7.15,27.55h0l.13.52-.49.25-12.51,6.49h0l-.18-1.87,13.09,3.42h0l1,.25-.13,1c-.74,5.54-1.62,11-2.67,16.5q-.78,4.1-1.73,8.18c-.65,2.72-1.33,5.43-2.23,8.1a154.56,154.56,0,0,1-6.34,15.48q-3.51,7.58-7.41,14.95l-1.07-.56q3.75-7.4,7.13-15a153.11,153.11,0,0,0,6-15.41,136,136,0,0,0,3.65-16.11c.95-5.44,1.75-10.93,2.39-16.4l.83,1.23h0l-13-3.68-2.62-.74,2.44-1.13h0l12.8-5.9-.36.77h0c-2.41-9.16-4.87-18.31-7.58-27.37-.68-2.26-1.38-4.52-2.15-6.73a22.37,22.37,0,0,0-1.27-3.09c-.59-.94-1.3-1.9-2-2.84-2.82-3.76-5.8-7.45-8.79-11.1l.93.42h0l-60.47,2.43.76-.33a37.45,37.45,0,0,0-4.92,6.4,20.68,20.68,0,0,0-2.9,7.32,33.73,33.73,0,0,0,.19,8c.32,2.73.8,5.45,1.34,8.16,1.1,5.43,2.46,10.82,3.95,16.17s3.1,10.69,4.84,16l-1.06-.78,17.5.35,3,.06-2.45,1.79h0L150,272.75l.28-1.55h0c3.28,4.93,6.82,9.76,10.55,14.38,1.87,2.31,3.8,4.57,5.81,6.75s4.14,4.23,6.34,6.25c4.4,4,9,7.89,13.55,11.72s9.25,7.58,13.94,11.29Z"/>
      </g>
      <path class="cls-9" d="M201.68,313.7s-19.63-19.37-34.8-52.14c-11.6-25.06-17.81-52.4-17.81-52.4l55.3-2.52s6.63,25.9,6.75,48.57A185.71,185.71,0,0,1,201.68,313.7Z"/>
      <path class="cls-10" d="M187.55,214l8.82,12.41s-2,2.36-7,2.77a21.29,21.29,0,0,1-8.68-1l5.12-14Z"/>
      <g class="cls-11">
        <path class="cls-12" d="M209.33,221.55a27.87,27.87,0,0,1-4.55,4.34c-1.61,1.26-3.24,2.42-5,3.52h0L199,230l-.61-.85L185.21,210.6l2.64-.31-9,21.9-.28.68-.67-.16h0c-2.47-.48-4.88-1.08-7.29-1.74s-4.79-1.42-7.14-2.28a43.48,43.48,0,0,1-6.93-3.16,34.17,34.17,0,0,1-6.32-4.52l2.15-2.1a31.8,31.8,0,0,0,5.55,4.3,42.06,42.06,0,0,0,6.41,3.25c2.25.94,4.54,1.78,6.87,2.55s4.69,1.47,7,2h0l-1,.52L185,209.22l1-2.85,1.65,2.54L200.09,228l-1.43-.27h0c1.54-1.17,3.06-2.43,4.48-3.74a25.38,25.38,0,0,0,3.76-4.17Z"/>
      </g>
      <path class="cls-10" d="M192.25,229.27s8.46,25.74,10.47,37.22,3.75,31.14,3.75,31.14l-4.65,16.07-12.76-14.63-2.47-32.8-.19-36.65Z"/>
      <g>
        <polyline class="cls-6" points="230.31 332.85 234.53 347.28 256.71 342.44 251.52 330.02"/>
        <path class="cls-4" d="M230.31,332.85,235.6,347l-1.31-.78q2.76-.65,5.55-1.21l5.57-1.08,11.17-2-.42.8q-2.36-6.31-4.65-12.65,2.9,6.08,5.73,12.2l.29.62-.7.18-11,2.8-5.52,1.34q-2.76.64-5.54,1.21l-1.09.22-.21-1Z"/>
      </g>
      <g class="cls-13">
        <path class="cls-6" d="M202.28,314.77s2.47,30.47,2.94,44.71.19,29,.19,29"/>
        <path class="cls-4" d="M202.78,314.73c1.09,12.26,2.14,24.52,2.95,36.81.42,6.15.64,12.32.78,18.48s.19,12.32.15,18.49l-2.5,0c.16-6.13.23-12.28.22-18.42s-.11-12.27-.4-18.41c-.56-12.27-1.36-24.55-2.2-36.82Z"/>
      </g>
      <path class="cls-4" d="M180.84,399.61c4.5-1,9-1.8,13.49-2.67s9-1.74,13.42-2.72,8.82-2.1,13.18-3.46,8.66-2.86,13-4.47a77.24,77.24,0,0,1-12.41,6.06c-2.14.87-4.34,1.57-6.55,2.26s-4.48,1.19-6.72,1.71c-4.51.95-9,1.73-13.62,2.27A128.61,128.61,0,0,1,180.84,399.61Z"/>
      <path class="cls-4" d="M208.83,398.43a44.33,44.33,0,0,1,5.55-1c1.82-.22,3.65-.36,5.43-.49l5.38-.44a54.46,54.46,0,0,1,5.61-.2,19,19,0,0,1-5.15,2.51A24.05,24.05,0,0,1,220,400a29.56,29.56,0,0,1-5.67-.15A20.92,20.92,0,0,1,208.83,398.43Z"/>
      <polygon class="cls-14" points="203.9 233.3 231.99 230.18 237.36 260.1 210.18 262.39 203.9 233.3"/>
      <line class="cls-15" x1="213.68" y1="258.53" x2="232.53" y2="256.78"/>
      <g>
        <g class="cls-16">
          <path class="cls-17" d="M228.51,254.26a1.53,1.53,0,0,1-1.17-.43l-6.45-5.8a2.27,2.27,0,0,1-.57-2.6,1.27,1.27,0,0,1,2.08-.22l6.47,5.8a2.27,2.27,0,0,1,.57,2.61A1.18,1.18,0,0,1,228.51,254.26Z"/>
        </g>
        <g class="cls-16">
          <path class="cls-18" d="M224.2,240a1.52,1.52,0,0,1-1.16-.43c-2.68-2.4-6.1-2-7.63.83a1.26,1.26,0,0,1-2.07.22,2.26,2.26,0,0,1-.57-2.59c2.35-4.41,7.63-5,11.79-1.29a2.27,2.27,0,0,1,.57,2.61A1.19,1.19,0,0,1,224.2,240Z"/>
        </g>
        <g class="cls-16">
          <path class="cls-10" d="M217.13,253.14a1.51,1.51,0,0,1-1.15-.43,13.43,13.43,0,0,1-4-7.08,11.14,11.14,0,0,1,.82-7.6,1.26,1.26,0,0,1,2.07-.23,2.26,2.26,0,0,1,.57,2.59,7.2,7.2,0,0,0-.53,4.92,8.69,8.69,0,0,0,2.61,4.59,2.26,2.26,0,0,1,.57,2.59A1.17,1.17,0,0,1,217.13,253.14Z"/>
        </g>
        <g class="cls-16">
          <path class="cls-19" d="M222.53,255.16a8.59,8.59,0,0,1-6.55-2.45,2.26,2.26,0,0,1-.57-2.59,1.27,1.27,0,0,1,2.07-.21c2.67,2.41,6.1,2.06,7.64-.79s.6-7.14-2.09-9.54a2.27,2.27,0,0,1-.57-2.6,1.28,1.28,0,0,1,2.09-.23,13.42,13.42,0,0,1,4.07,7.12,11.11,11.11,0,0,1-.85,7.64A6.66,6.66,0,0,1,222.53,255.16Z"/>
        </g>
      </g>
      <g class="cls-20">
        <polygon class="cls-21" points="204.63 238.15 209.92 263.33 208.85 262.53 213.75 262.37 213.88 263.69 209.05 264.49 208.13 264.64 207.98 263.69 203.91 238.28 204.63 238.15"/>
      </g>
      <polygon class="cls-22" points="227.72 232.55 230.09 232.47 230.34 234.95 228.31 234.93 227.72 232.55"/>
      <path class="cls-23" d="M167.7,294.3c4.66-5.56,5.29-9.8,6.27-14.45s1.33-9.93,6.13-8.69c3.36.87,6,6.86,5.72,11.07-.43,6.57-5,13.14-5,13.14s12.18-3.26,16.29,1.79c5.24,6.43,3.25,22.41-.47,29s-16,6.83-22.29,5.61c-4.6-.89-11.17-2.91-14-11.95S163,300,167.7,294.3Z"/>
      <path class="cls-23" d="M321.78,268c3.46-5.07,5-8.77,5.71-13.46s1.49-11.29,6.43-11c3.71.21,6.45,6.51,6.29,12.61a29.51,29.51,0,0,1-3.08,11.3s9.79-3.54,14.2,1.24c5.61,6.09,6.28,22.15,3,29s-14,7.27-20.41,6.43c-4.64-.61-11.21-1.33-14.61-10.17S317.4,273.94,321.78,268Z"/>
      <path class="cls-24" d="M102.42,216.68s-42.26,67.09-31,99c12,34,95,18,95,18a48.64,48.64,0,0,1-4-15,72.08,72.08,0,0,1,1-20s-46,8-57,0c-6.86-5,16-46,16-46a61.71,61.71,0,0,0-8-23C109.06,220.5,102.42,216.68,102.42,216.68Z"/>
      <g class="cls-25">
        <path class="cls-4" d="M122.92,253.18c-1.59,3.66-3.34,7.2-5.09,10.73l-1.31,2.65-1.34,2.63-2.65,5.26A101,101,0,0,0,107.77,285c-1.4,3.63-2.61,7.34-3.85,11.15a42.57,42.57,0,0,1,1.47-11.91,47.79,47.79,0,0,1,1.91-5.75c.78-1.89,1.67-3.67,2.6-5.43s1.87-3.51,2.89-5.22l1.52-2.56,1.6-2.51A98.83,98.83,0,0,1,122.92,253.18Z"/>
      </g>
      <path class="cls-8" d="M167.42,333.68a195.3,195.3,0,0,1-20.84,2.8c-3.49.33-7,.49-10.5.66s-7,.17-10.53.13a137.5,137.5,0,0,1-21-1.76,77.24,77.24,0,0,1-10.3-2.41,49,49,0,0,1-5-1.85,22.45,22.45,0,0,1-4.6-2.58,26.25,26.25,0,0,0,4.82,2c.82.28,1.67.5,2.5.74s1.68.43,2.53.61a98.49,98.49,0,0,0,10.26,1.73c.86.12,1.72.2,2.59.28l2.59.26c1.73.11,3.46.3,5.2.35,3.47.2,6.94.34,10.42.35,7,.12,13.93,0,20.9-.29S160.42,334.09,167.42,333.68Z"/>
      <path class="cls-8" d="M163.25,298.52c0,3.05-.16,6-.17,9a73.6,73.6,0,0,0,.36,8.86c.39,2.93.87,5.9,1.45,8.83s1.22,5.87,2,8.79a42.89,42.89,0,0,1-3.41-8.45,64.07,64.07,0,0,1-2-8.92,38.64,38.64,0,0,1-.14-9.2A39.89,39.89,0,0,1,163.25,298.52Z"/>
      <g class="cls-26">
        <path class="cls-27" d="M337.13,267.44a16.68,16.68,0,0,0-6.07,7.67,14.32,14.32,0,0,0-.77,4.64q0,2.54,0,5.07a62.17,62.17,0,0,0,1,10,23.18,23.18,0,0,0,1.47,4.7,9.61,9.61,0,0,0,3,3.94,8.28,8.28,0,0,1-4.25-3.21,18.4,18.4,0,0,1-2.43-4.84,37,37,0,0,1-1.68-10.5,50.94,50.94,0,0,1,.13-5.28,14.36,14.36,0,0,1,1.44-5.41A13.35,13.35,0,0,1,337.13,267.44Z"/>
      </g>
      <g class="cls-26">
        <path class="cls-27" d="M328.44,281.84c2.24-.45,4.45-.93,6.68-1.4l6.67-1.41a58.54,58.54,0,0,1,6.8-1.09,66.82,66.82,0,0,1,6.9-.37l-.09,1.76a38.54,38.54,0,0,0-6.64.19,45.8,45.8,0,0,0-6.56,1.25c-2.17.59-4.35,1.17-6.51,1.84s-4.31,1.35-6.43,2.12Z"/>
      </g>
      <g class="cls-26">
        <path class="cls-27" d="M329.78,294.72a1.08,1.08,0,0,1,.76-.39l.81-.16,1.61-.3c1.07-.21,2.15-.38,3.24-.54,2.16-.34,4.34-.61,6.51-.89s4.35-.4,6.53-.62,4.34-.46,6.51-.78l.13,2.11c-2.16.07-4.32.22-6.48.38l-3.23.28q-1.62.12-3.21.39c-2.13.33-4.24.81-6.34,1.29l-3.16.74-1.58.38-.79.19a1,1,0,0,1-.83,0Z"/>
      </g>
      <path class="cls-28" d="M201.37,64.7s18,17.57,20,31.27c1.52,10-.09,27-.09,27L191.2,68Z"/>
      <path class="cls-23" d="M136.12,187.83s3,14.64,17,21.09c19.69,9,71.08,1.76,77.87-6.4,5.9-7.09,1-49.79-9.61-86.29C213,87.51,195.58,62.84,195.58,62.84s-29.11-4.29-52.48,1.28a84.17,84.17,0,0,0-32.61,16.3l21.28,92.51"/>
      <path class="cls-28" d="M122,79.39s7.88,14.81,9.45,27.78c1.35,11.19,1.92,37.71,1.92,37.71a104.58,104.58,0,0,1,8,12.06c4.46,8.39,2.62,15.19,2.62,15.19l-15.64-15.87,9.92,37.52s-7.51-.32-12-9.21-20.58-44.26-23.66-57.69c-1.64-7.13-7.29-42.46-4-49.17a11.47,11.47,0,0,1,6.86-5.92,16.44,16.44,0,0,1,11.13-15.28c16.85-6.41,55.57-9.28,70.61-6.72,11.55,2,28.42,16.81,28.42,16.81s-14.9,4.11-22.67,3.55-28.63-5.05-28.63-5.05,12.88,5.19,16.68,7.1S192,79.68,192,79.68s-14.73.86-19.75.23-25.44-7.38-25.44-7.38,8.1,4.05,11.9,6.21a61.49,61.49,0,0,1,7.38,5.07s-13.44,2.83-23.72,1.58S122,79.39,122,79.39Z"/>
      <line class="cls-29" x1="139.5" y1="148.73" x2="122.16" y2="155.33"/>
      <path class="cls-23" d="M137.84,166S130,152,119.49,151.72c-14.85-.34-6.79,29.86,3.58,34.17,9.09,3.78,14.24-.6,14.24-.6"/>
      <path class="cls-30" d="M134.79,174.11c-1.62-1.58-3.16-3.08-4.7-4.49a33.13,33.13,0,0,0-4.74-3.69,15.57,15.57,0,0,0-2.51-1.26,18.06,18.06,0,0,0-2.61-.89,12,12,0,0,0-5.94-.1c1.06-2.24,3.78-3.4,6.29-3.38a11.26,11.26,0,0,1,1.89.16,12.52,12.52,0,0,1,1.79.51,12.79,12.79,0,0,1,3.26,1.72,19,19,0,0,1,7.27,11.43Z"/>
      <path class="cls-31" d="M145.88,143.26c1.44,7.7,8.13,12.29,16.26,10.93a13.65,13.65,0,0,0,11.25-16.09,14,14,0,1,0-27.52,5.16Z"/>
      <path class="cls-31" d="M198.11,135.43c1.93,7.47,7.13,12.5,14.69,11.19,7.1-1.23,11.2-8.28,10.07-15.92-1.2-8.1-8-12.5-15.13-11.18S196.32,128.47,198.11,135.43Z"/>
      <path class="cls-32" d="M174.94,118.2A99.36,99.36,0,0,0,155.41,124a66.37,66.37,0,0,0-14.13,8.35l-.43-4.16s1.84-5.85,12.9-10.46a60.69,60.69,0,0,1,19.59-4.17Z"/>
      <path class="cls-33" d="M168.88,129.68a15.09,15.09,0,0,0-6.69-1.7,16.93,16.93,0,0,0-6.44,1.25,17.76,17.76,0,0,0-5.62,3.43,19.55,19.55,0,0,0-4.21,5.58,11.48,11.48,0,0,1,2.45-7.16,14.22,14.22,0,0,1,6.29-4.65,14,14,0,0,1,7.8-.78A10.19,10.19,0,0,1,168.88,129.68Z"/>
      <path class="cls-33" d="M221.65,126.23a12.9,12.9,0,0,0-5-3.87,18.23,18.23,0,0,0-6-1.34,13.46,13.46,0,0,0-6,.76,12.54,12.54,0,0,0-5.1,3.83,9.29,9.29,0,0,1,4.23-5.54,12,12,0,0,1,7-1.63,13.51,13.51,0,0,1,6.88,2.07A8.76,8.76,0,0,1,221.65,126.23Z"/>
      <path class="cls-32" d="M194.39,116.06a51,51,0,0,1,14-.87,47.8,47.8,0,0,1,14.48,3.29l-1-3.58a21.76,21.76,0,0,0-12.31-5.54,32.2,32.2,0,0,0-15.45,2.21Z"/>
      <ellipse class="cls-34" cx="160.18" cy="141.63" rx="5.83" ry="7.42" transform="translate(-13.75 17.27) rotate(-5.92)"/>
      <ellipse class="cls-34" cx="210.31" cy="133.39" rx="5.35" ry="7.21" transform="translate(-14.05 25.28) rotate(-6.66)"/>
      <path class="cls-29" d="M237.29,125s-1.65,21.38-2.61,22.9-31.36,6.27-31.36,6.27"/>
      <g>
        <path class="cls-23" d="M189,115s10.14,19.26,14.93,31.31,6,22.36,4.26,24.24-7.91,3.86-14.91,4-10.71-1.74-10.71-1.74"/>
        <path class="cls-27" d="M189,115q5.83,9.15,10.91,18.74c1.68,3.21,3.34,6.43,4.84,9.75a91.69,91.69,0,0,1,4,10.26,55.53,55.53,0,0,1,2.5,11,24.72,24.72,0,0,1,.15,3l-.06.82a5.81,5.81,0,0,1-.11.87,6,6,0,0,1-.73,2.12,7.19,7.19,0,0,1-.48.67,4.82,4.82,0,0,1-.41.4,7.06,7.06,0,0,1-.77.62,12,12,0,0,1-1.47.85,21.46,21.46,0,0,1-2.84,1.14,36.59,36.59,0,0,1-11.36,1.53,19.74,19.74,0,0,1-5.66-.93,11.75,11.75,0,0,1-5-3c3.84,0,7.13-.2,10.53-.42a38,38,0,0,0,5.06-.64,32.56,32.56,0,0,0,4.84-1.26,16.6,16.6,0,0,0,2.15-.9,7.08,7.08,0,0,0,.85-.51,2.31,2.31,0,0,0,.28-.22l.08-.07a.24.24,0,0,0-.1.11c0,.1.07-.14.1-.43a2.26,2.26,0,0,0,.06-.47l0-.53a22.85,22.85,0,0,0,0-2.39,40.73,40.73,0,0,0-.68-5.07c-.32-1.7-.69-3.41-1.14-5.11-1.75-6.79-4.51-13.38-7.25-20Z"/>
      </g>
      <path class="cls-35" d="M211,180.5s-2.1,14.27-16.43,16.57c-17.1,2.75-25.75-16.71-25.75-16.71"/>
      <path class="cls-36" d="M201.78,193.4s-3.25,3.41-10.25,3.42-14.14-5.66-14.14-5.66A47.83,47.83,0,0,1,190,189.85,30.35,30.35,0,0,1,201.78,193.4Z"/>
      <path class="cls-31" d="M211,180.5s-1.22,4.86-1.87,5.55a30.8,30.8,0,0,1-14.38,5.19A63.82,63.82,0,0,1,175,188.88a39.75,39.75,0,0,1-3.27-4.09,35.64,35.64,0,0,1-2.1-4.12s16.25,3.27,24.24,2.74A107.63,107.63,0,0,0,211,180.5Z"/>
      <g>
        <path class="cls-23" d="M213.91,178.26a36.9,36.9,0,0,1-17.84,6.6c-16.8,1.74-28.14-5.32-28.14-5.32"/>
        <path class="cls-37" d="M214.35,178.81a32.67,32.67,0,0,1-10.9,5.9,36.23,36.23,0,0,1-6.08,1.44c-1,.17-2.06.24-3.1.33s-2.07.13-3.1.15a46.43,46.43,0,0,1-12.31-1.45,38.65,38.65,0,0,1-11.44-4.81l1-1.63a40.31,40.31,0,0,0,5.41,2.16,47.66,47.66,0,0,0,5.66,1.54,54.63,54.63,0,0,0,11.64,1.18,45.35,45.35,0,0,0,11.57-1.4,42.84,42.84,0,0,0,5.54-1.87,33.76,33.76,0,0,0,5.22-2.64Z"/>
      </g>
      <path class="cls-27" d="M171.3,175.36l-2.22,2.58a22.3,22.3,0,0,0-1.76,2.33,20.51,20.51,0,0,0-1.4,2.54c-.43.93-.84,1.92-1.3,3.1a5.64,5.64,0,0,1-1-3.61,7.28,7.28,0,0,1,1.19-3.67,7.49,7.49,0,0,1,2.85-2.56A6.25,6.25,0,0,1,171.3,175.36Z"/>
      <g class="cls-26">
        <path class="cls-27" d="M203.62,199.28a9.05,9.05,0,0,1-2.7,4.25,11.05,11.05,0,0,1-9.7,2.7,9.6,9.6,0,0,1-4.53-2.16,45.64,45.64,0,0,0,4.7,0,20.25,20.25,0,0,0,4.26-.67,19.76,19.76,0,0,0,4-1.61A32.67,32.67,0,0,0,203.62,199.28Z"/>
      </g>
      <path class="cls-27" d="M136.4,185.49a34.4,34.4,0,0,0,4.85,12.33,30.72,30.72,0,0,0,9.16,9.25,34.7,34.7,0,0,0,12.26,4.28,85.78,85.78,0,0,0,13.2,1.11A234.75,234.75,0,0,0,202.54,211a100.6,100.6,0,0,0,13.06-2.55,128.21,128.21,0,0,0,12.78-4A74.89,74.89,0,0,1,216,209.68a76.54,76.54,0,0,1-13.2,3.05c-4.49.6-8.93,1-13.42,1.41a133.75,133.75,0,0,1-13.52.5,77.84,77.84,0,0,1-13.54-1.27,34.66,34.66,0,0,1-12.84-4.85,30.11,30.11,0,0,1-9.13-10.16,31.53,31.53,0,0,1-2.67-6.25A28,28,0,0,1,136.4,185.49Z"/>
      <path class="cls-38" d="M238.73,127.51l-25.52,3.81c-8.5,1.28-17,2.51-25.51,3.84q-25.47,4-50.81,8.78l-.75-3.93q25.44-4.76,51-8.68c8.52-1.32,17-2.52,25.56-3.79l25.56-3.75Z"/>
      <path class="cls-29" d="M188,133.55s-.18,20.18-2.12,22.39-34.16,7.5-37.34,7.08-11-22.4-11-22.4"/>
      <polygon class="cls-38" points="202.26 139.19 188.85 141.63 188.44 139.11 201.94 137.22 202.26 139.19"/>
    </g>
  </g>
</svg>
