<svg xmlns="http://www.w3.org/2000/svg" xmlns:xlink="http://www.w3.org/1999/xlink" width="349.22" height="345.05" viewBox="0 0 349.22 345.05">
  <defs>
    <style>
      .cls-1, .cls-26, .cls-37, .cls-38, .cls-39, .cls-40 {
        fill: none;
      }

      .cls-2 {
        isolation: isolate;
      }

      .cls-3 {
        fill: #3b5b66;
      }

      .cls-4 {
        clip-path: url(#clip-path);
      }

      .cls-5 {
        fill: #2b4c57;
      }

      .cls-6 {
        fill: #40606d;
      }

      .cls-7 {
        fill: #42626d;
      }

      .cls-8 {
        fill: #2f545e;
      }

      .cls-9 {
        fill: #b6e0ef;
      }

      .cls-10 {
        fill: #2483c5;
      }

      .cls-11 {
        opacity: 0.6;
      }

      .cls-12 {
        fill: #405e6b;
      }

      .cls-13 {
        opacity: 0.7;
      }

      .cls-14 {
        fill: #eff4f4;
      }

      .cls-15, .cls-18 {
        fill: #536872;
      }

      .cls-15 {
        stroke: #405a63;
        stroke-width: 1.04px;
      }

      .cls-15, .cls-26, .cls-37, .cls-38, .cls-39, .cls-40 {
        stroke-miterlimit: 10;
      }

      .cls-15, .cls-16 {
        opacity: 0.3;
      }

      .cls-17 {
        fill: #516672;
      }

      .cls-18 {
        opacity: 0.18;
      }

      .cls-19 {
        fill: #9cb5b4;
      }

      .cls-20 {
        fill: #f1b291;
      }

      .cls-21 {
        fill: #456572;
      }

      .cls-22 {
        opacity: 0.77;
      }

      .cls-23 {
        opacity: 0.8;
      }

      .cls-24 {
        fill: #a77056;
      }

      .cls-25 {
        fill: #755946;
      }

      .cls-26 {
        stroke: #353e45;
        stroke-width: 3px;
      }

      .cls-27 {
        fill: #a7755c;
      }

      .cls-28 {
        fill: #f7f5f5;
      }

      .cls-29 {
        fill: #684f3c;
      }

      .cls-30 {
        fill: #5b422a;
      }

      .cls-31 {
        fill: #1b6087;
      }

      .cls-32 {
        fill: #65262d;
        opacity: 0.9;
      }

      .cls-33 {
        fill: #cb5b65;
        opacity: 0.84;
      }

      .cls-34 {
        fill: #915a46;
      }

      .cls-35 {
        fill: #353e45;
      }

      .cls-36 {
        mix-blend-mode: multiply;
      }

      .cls-37 {
        stroke: #2582c5;
      }

      .cls-37, .cls-38, .cls-39, .cls-40 {
        stroke-width: 1.21px;
      }

      .cls-38 {
        stroke: #e51a60;
      }

      .cls-39 {
        stroke: #75b747;
      }

      .cls-40 {
        stroke: #f6a31f;
      }
    </style>
    <clipPath id="clip-path">
      <polygon class="cls-1" points="63.05 300.66 247.09 299.55 239.75 173.01 68.08 169.53 63.05 300.66"/>
    </clipPath>
  </defs>
  <g class="cls-2">
    <g id="Ebene_1" data-name="Ebene 1">
      <path class="cls-3" d="M212.53,185.18l11,2.85s11.24,52.41,25.63,65c13.25,11.56,43.34-4.29,43.34-4.29s7.45,9.35,8.54,16.26c1.22,7.73-1.16,18.51-1.16,18.51s-35.47,13.65-60.07,6.43c-31.7-9.3-36.31-72.33-36.31-72.33Z"/>
      <g class="cls-4">
        <path class="cls-5" d="M225.71,222q1.46,10.26,2.5,20.55c.73,6.86,1.32,13.73,1.89,20.6s1,13.76,1.38,20.63.62,13.78.71,20.68q-1.44-10.24-2.45-20.55c-.69-6.87-1.29-13.73-1.86-20.6s-1-13.74-1.39-20.63S225.83,228.91,225.71,222Z"/>
        <path class="cls-6" d="M220.76,187.53s-28.26-11.4-67.93-8.42c-40.58,3-68.51,14.72-68.51,14.72S98.25,272.75,99,305.75s-.66,58.5-.66,58.5,32.05,8.81,81.52,3.52c39.32-4.2,58.44-10.84,58.44-10.84s-3.7-34.81-9.51-86.45C226,246.31,223.36,205,223.36,205"/>
        <g>
          <polyline class="cls-6" points="149.78 319.2 148.11 333.96 105.61 334.21 106.54 321.58"/>
          <path class="cls-5" d="M149.78,319.2l-.59,14.88,0,.93-1,0c-3.54.09-7.08.1-10.62.11l-10.63-.06c-7.08-.13-14.17-.2-21.25-.38l-.56,0,.06-.52.69-6.3.73-6.29-.19,6.33-.24,6.34-.5-.54c7.08-.27,14.17-.42,21.25-.63l10.62-.18c3.54,0,7.09-.07,10.63,0l-1.07,1Z"/>
        </g>
        <g>
          <path class="cls-7" d="M181.41,299.76s-19.84-15.63-30.15-25.57-20.14-25.13-20.14-25.13l13.94-9.83-17.51-.4s-11.2-34.44-10-47.94c.67-7.73,8.41-15.3,8.41-15.3l60.49-1.86s8.32,10.45,10.59,14.19,10.47,37.69,10.47,37.69l-12.72,6.07,13,3.68s-2.4,18.51-6.07,30.78-14.32,32.09-14.32,32.09"/>
          <path class="cls-8" d="M181.05,300.22Q174,294.7,167,289c-4.62-3.8-9.22-7.65-13.68-11.68-2.22-2-4.42-4.11-6.48-6.32s-4-4.49-5.93-6.82c-3.81-4.67-7.38-9.49-10.76-14.5h0l-.6-.92.9-.63,14-9.74h0l.56,1.86-17.5-.28-.81,0-.25-.77c-1.7-5.35-3.27-10.71-4.72-16.12s-2.77-10.85-3.83-16.37c-.52-2.76-1-5.54-1.29-8.36a35.66,35.66,0,0,1-.1-8.65,23.1,23.1,0,0,1,3.28-8.12,39.46,39.46,0,0,1,5.33-6.79l.3-.31h.46l60.49-1.86H187l.34.44c2.92,3.76,5.8,7.52,8.57,11.41.68,1,1.36,1.95,2,3a22.81,22.81,0,0,1,1.36,3.5c.73,2.29,1.37,4.57,2,6.87,2.48,9.17,4.71,18.38,6.89,27.61h0l.12.52-.49.25-12.57,6.37h0l-.16-1.87,13.05,3.54h0l1,.26-.14,1q-1.18,8.3-2.82,16.47-.81,4.11-1.81,8.17c-.67,2.71-1.38,5.41-2.31,8.07a154.1,154.1,0,0,1-6.48,15.43q-3.59,7.55-7.55,14.87l-1.07-.57q3.82-7.37,7.27-14.93a152.23,152.23,0,0,0,6.17-15.35,136,136,0,0,0,3.8-16.07c1-5.43,1.85-10.91,2.55-16.38l.82,1.24h0l-13-3.8-2.61-.77,2.45-1.1h0L207.19,225l-.37.77h0c-2.32-9.18-4.7-18.36-7.32-27.44-.66-2.27-1.33-4.53-2.08-6.75a24.09,24.09,0,0,0-1.24-3.1c-.58-.94-1.28-1.91-2-2.86-2.79-3.78-5.73-7.5-8.69-11.18l.93.43h0L126,176.72l.76-.32a37.49,37.49,0,0,0-5,6.35,20.66,20.66,0,0,0-3,7.3,33.39,33.39,0,0,0,.11,8c.29,2.73.75,5.45,1.26,8.17,1,5.44,2.36,10.84,3.8,16.21s3,10.72,4.69,16l-1.06-.79,17.5.52,3,.09-2.46,1.76h0L131.77,250l.3-1.55h0c3.23,5,6.72,9.82,10.41,14.48,1.85,2.33,3.76,4.61,5.75,6.81s4.1,4.27,6.27,6.31c4.36,4.07,8.89,8,13.44,11.85s9.18,7.67,13.84,11.41Z"/>
        </g>
        <path class="cls-9" d="M183,291.42S163.58,271.87,148.72,239c-11.36-25.17-17.31-52.56-17.31-52.56l55.33-2s6.38,26,6.28,48.63A185.61,185.61,0,0,1,183,291.42Z"/>
        <path class="cls-10" d="M169.84,191.62l8.71,12.49s-2,2.35-7,2.71a21.34,21.34,0,0,1-8.68-1.12l5.26-13.95Z"/>
        <g class="cls-11">
          <path class="cls-12" d="M191.56,199.35a28.32,28.32,0,0,1-4.59,4.29c-1.62,1.25-3.27,2.39-5,3.48h0l-.83.57-.6-.86-13-18.66,2.64-.29-9.24,21.81-.28.68-.68-.16h0c-2.46-.51-4.86-1.13-7.27-1.82s-4.77-1.46-7.11-2.34a43.2,43.2,0,0,1-6.9-3.22,34.7,34.7,0,0,1-6.28-4.58l2.17-2.08a32,32,0,0,0,5.51,4.36,41.41,41.41,0,0,0,6.38,3.31c2.24,1,4.53,1.82,6.84,2.62s4.67,1.51,7,2.11h0l-1,.51,8-22.29,1-2.84L170,186.5l12.22,19.19-1.42-.28h0c1.55-1.16,3.08-2.41,4.51-3.7a25.23,25.23,0,0,0,3.8-4.14Z"/>
        </g>
        <path class="cls-10" d="M174.4,206.9s8.22,25.83,10.12,37.31S188,275.39,188,275.39l-4.81,16-12.62-14.75-2.16-32.82.15-36.65Z"/>
        <g class="cls-13">
          <path class="cls-6" d="M183.62,292.5s2.18,30.49,2.51,44.74-.08,29-.08,29"/>
          <path class="cls-5" d="M184.12,292.46c1,12.27,1.91,24.54,2.6,36.84.36,6.15.53,12.33.6,18.48s.07,12.32,0,18.49l-2.49-.07c.21-6.12.34-12.27.39-18.41s0-12.27-.23-18.41c-.44-12.28-1.12-24.57-1.85-36.84Z"/>
        </g>
      </g>
      <polygon class="cls-14" points="186.01 211.04 214.13 208.19 219.21 238.16 192.02 240.2 186.01 211.04"/>
      <line class="cls-15" x1="195.55" y1="236.36" x2="214.42" y2="234.79"/>
      <g class="cls-16">
        <polygon class="cls-17" points="186.7 215.9 191.75 241.13 190.69 240.32 195.58 240.21 195.7 241.52 190.86 242.28 189.95 242.43 189.81 241.47 185.97 216.02 186.7 215.9"/>
      </g>
      <polygon class="cls-18" points="209.84 210.52 212.21 210.46 212.44 212.95 210.4 212.91 209.84 210.52"/>
      <path class="cls-19" d="M20.44,301.4l16.22-.31,16.23-.23,32.44-.46,64.89-.79,64.89-.57c21.62-.19,43.26-.24,64.89.28v.75c-21.62.9-43.25,1.24-64.88,1.43l-64.89.58-64.89.36-32.45.12-16.22.05-16.23,0Z"/>
      <path class="cls-20" d="M146.6,273.43c4.57-5.64,5.13-9.89,6-14.55s1.17-9.95,6-8.78c3.37.81,6.11,6.76,5.9,11-.32,6.58-4.75,13.22-4.75,13.22s12.13-3.46,16.32,1.52c5.34,6.34,3.62,22.35,0,29s-15.86,7.09-22.2,6c-4.61-.82-11.21-2.73-14.22-11.72S142,279.16,146.6,273.43Z"/>
      <path class="cls-20" d="M293.37,246.76c2.7-5.51,3.73-9.39,3.75-14.13s-.13-11.39,4.8-11.82c3.7-.32,7.31,5.53,8,11.59A29.5,29.5,0,0,1,308.49,244s9.19-4.9,14.23-.79c6.42,5.24,9.35,21,7,28.27s-12.86,9.18-19.29,9.26c-4.68.05-11.29.27-15.91-8S289.88,253.25,293.37,246.76Z"/>
      <path class="cls-21" d="M84.8,193.71S40,259.11,50,291.44c10.67,34.44,94.23,21.67,94.23,21.67A48.54,48.54,0,0,1,140.79,298,72,72,0,0,1,142.57,278s-46.28,6.21-57-2.21c-6.66-5.26,17.77-45.35,17.77-45.35a61.65,61.65,0,0,0-7.1-23.29C91.29,197.79,84.8,193.71,84.8,193.71Z"/>
      <g class="cls-22">
        <path class="cls-5" d="M103.86,231c-1.73,3.59-3.61,7.07-5.5,10.53L97,244.1l-1.44,2.57-2.85,5.15a100.59,100.59,0,0,0-5.17,10.4c-1.54,3.57-2.89,7.24-4.28,11a42.62,42.62,0,0,1,1.93-11.84,49.1,49.1,0,0,1,2.13-5.67,59.56,59.56,0,0,1,2.81-5.32c1-1.73,2-3.43,3.09-5.1l1.62-2.5,1.7-2.44A98.73,98.73,0,0,1,103.86,231Z"/>
      </g>
      <path class="cls-8" d="M140.88,277.64c0,3.05-.16,6-.17,9a74.4,74.4,0,0,0,.37,8.86c.38,2.93.87,5.9,1.45,8.83s1.22,5.86,2,8.78a42.41,42.41,0,0,1-3.42-8.44,63.93,63.93,0,0,1-2-8.92,38.3,38.3,0,0,1-.15-9.2A40,40,0,0,1,140.88,277.64Z"/>
      <g class="cls-23">
        <path class="cls-24" d="M308.49,244a16.72,16.72,0,0,0-4.93,8.45,14.51,14.51,0,0,0-.1,4.7c.21,1.68.47,3.35.75,5a62.47,62.47,0,0,0,2.37,9.75,23.82,23.82,0,0,0,2.12,4.44,9.6,9.6,0,0,0,3.56,3.48,8.25,8.25,0,0,1-4.66-2.58,18.23,18.23,0,0,1-3.1-4.45,36.88,36.88,0,0,1-3.15-10.15,48.62,48.62,0,0,1-.62-5.24,14.44,14.44,0,0,1,.66-5.56A13.31,13.31,0,0,1,308.49,244Z"/>
      </g>
      <g class="cls-23">
        <path class="cls-24" d="M301.92,259.51c2.16-.76,4.28-1.55,6.41-2.33l6.4-2.35a59.48,59.48,0,0,1,6.57-2,68.49,68.49,0,0,1,6.79-1.34l.16,1.76a38.87,38.87,0,0,0-6.55,1.13,46.17,46.17,0,0,0-6.32,2.16c-2.07.89-4.14,1.77-6.18,2.75s-4.08,1.95-6.06,3Z"/>
      </g>
      <g class="cls-23">
        <path class="cls-24" d="M305.07,272.07a1.12,1.12,0,0,1,.7-.49l.77-.27,1.56-.53c1-.35,2.07-.67,3.12-1,2.09-.64,4.21-1.21,6.32-1.8s4.25-1,6.38-1.54,4.23-1.07,6.33-1.7l.43,2.07c-2.13.38-4.24.83-6.36,1.3l-3.16.74q-1.59.34-3.12.84c-2.06.62-4.08,1.4-6.1,2.18l-3,1.18-1.51.59-.75.31a1.06,1.06,0,0,1-.83.08Z"/>
      </g>
      <path class="cls-25" d="M185.08,42.43s17.79,17.74,19.74,31.46c1.43,10-.35,27-.35,27L174.88,45.58Z"/>
      <path class="cls-20" d="M118.67,164.93s2.84,14.68,16.82,21.26c19.6,9.23,71.06,2.42,77.92-5.67,6-7,1.51-49.77-8.79-86.38-8.1-28.79-25.32-53.62-25.32-53.62s-29.07-4.57-52.49.78A84.09,84.09,0,0,0,94,57.29l20.4,92.7"/>
      <path class="cls-25" d="M105.53,56.37s7.74,14.88,9.18,27.86C116,95.44,116.28,122,116.28,122a104,104,0,0,1,7.93,12.14c4.37,8.43,2.48,15.21,2.48,15.21l-15.5-16,9.57,37.61s-7.51-.39-11.89-9.32S88.7,117.12,85.75,103.67c-1.57-7.15-6.89-42.53-3.5-49.21a11.48,11.48,0,0,1,6.91-5.85,16.45,16.45,0,0,1,11.28-15.17c16.91-6.25,55.66-8.76,70.67-6,11.53,2.08,28.25,17.08,28.25,17.08s-14.94,4-22.7,3.34-28.58-5.33-28.58-5.33,12.83,5.31,16.61,7.25,10.86,7.59,10.86,7.59-14.74.72-19.75,0-25.37-7.62-25.37-7.62,8.07,4.13,11.85,6.32a61.51,61.51,0,0,1,7.33,5.14s-13.46,2.7-23.74,1.35S105.53,56.37,105.53,56.37Z"/>
      <line class="cls-26" x1="122.42" y1="125.87" x2="105.01" y2="132.3"/>
      <path class="cls-20" d="M120.59,143.15s-7.71-14.13-18.21-14.48c-14.85-.48-7.07,29.8,3.26,34.21,9,3.86,14.24-.46,14.24-.46"/>
      <path class="cls-27" d="M117.46,151.2c-1.61-1.6-3.12-3.11-4.66-4.53a31.88,31.88,0,0,0-4.7-3.73,15.58,15.58,0,0,0-2.5-1.29,18.26,18.26,0,0,0-2.6-.91,11.83,11.83,0,0,0-5.93-.15c1.07-2.23,3.81-3.37,6.32-3.33a10.78,10.78,0,0,1,1.88.18,11.89,11.89,0,0,1,1.79.52,12.85,12.85,0,0,1,3.24,1.75,19,19,0,0,1,7.16,11.49Z"/>
      <path class="cls-28" d="M128.85,120.46c1.37,7.71,8,12.37,16.16,11.08a13.66,13.66,0,0,0,11.4-16,14,14,0,1,0-27.56,4.91Z"/>
      <path class="cls-28" d="M181.15,113.12c1.86,7.49,7,12.57,14.59,11.33,7.11-1.17,11.28-8.18,10.22-15.82-1.12-8.11-7.93-12.58-15-11.32S179.42,106.15,181.15,113.12Z"/>
      <path class="cls-29" d="M158.14,95.67a99.4,99.4,0,0,0-19.59,5.63,66.23,66.23,0,0,0-14.21,8.21l-.39-4.16s1.89-5.84,13-10.34a60.7,60.7,0,0,1,19.63-4Z"/>
      <path class="cls-30" d="M152,107.1a15.11,15.11,0,0,0-6.68-1.76,16.89,16.89,0,0,0-6.46,1.18,18.08,18.08,0,0,0-5.65,3.38,19.55,19.55,0,0,0-4.26,5.54,11.52,11.52,0,0,1,2.52-7.13,14.13,14.13,0,0,1,6.34-4.59,13.92,13.92,0,0,1,7.8-.71A10.22,10.22,0,0,1,152,107.1Z"/>
      <path class="cls-30" d="M204.77,104.14a12.9,12.9,0,0,0-5-3.92,18.39,18.39,0,0,0-6-1.4,13.48,13.48,0,0,0-6,.71,12.51,12.51,0,0,0-5.14,3.78,9.3,9.3,0,0,1,4.28-5.51,12,12,0,0,1,7.06-1.55,13.44,13.44,0,0,1,6.86,2.14A8.73,8.73,0,0,1,204.77,104.14Z"/>
      <path class="cls-29" d="M177.61,93.72a50.91,50.91,0,0,1,14-.75,47.86,47.86,0,0,1,14.45,3.43l-1-3.6a21.8,21.8,0,0,0-12.25-5.65,32.18,32.18,0,0,0-15.47,2.07Z"/>
      <ellipse class="cls-31" cx="143.16" cy="118.97" rx="5.83" ry="7.42" transform="translate(-10.52 13.94) rotate(-5.38)"/>
      <ellipse class="cls-31" cx="193.37" cy="111.2" rx="5.35" ry="7.21" transform="translate(-10.75 21.23) rotate(-6.12)"/>
      <path class="cls-26" d="M220.42,103.08s-1.85,21.36-2.82,22.87-31.42,6-31.42,6"/>
      <g>
        <path class="cls-20" d="M172.26,92.63s10,19.35,14.64,31.45,5.83,22.41,4,24.27-8,3.79-15,3.89-10.69-1.84-10.69-1.84"/>
        <path class="cls-24" d="M172.26,92.63q5.75,9.2,10.73,18.83c1.65,3.23,3.28,6.46,4.76,9.8a92.31,92.31,0,0,1,3.93,10.3,54.79,54.79,0,0,1,2.39,11,24.38,24.38,0,0,1,.13,3l-.07.82a6,6,0,0,1-.12.87,5.79,5.79,0,0,1-.75,2.11,5.42,5.42,0,0,1-.48.67,5,5,0,0,1-.41.4,7.63,7.63,0,0,1-.78.61,11.94,11.94,0,0,1-1.48.84,22.12,22.12,0,0,1-2.86,1.11,36.6,36.6,0,0,1-11.37,1.42,19.56,19.56,0,0,1-5.66-1,11.87,11.87,0,0,1-4.93-3c3.83,0,7.13-.13,10.54-.31a37.17,37.17,0,0,0,5.06-.6,33.07,33.07,0,0,0,4.85-1.21,15.2,15.2,0,0,0,2.16-.88,6.11,6.11,0,0,0,.86-.5,2,2,0,0,0,.28-.21l.08-.07a.35.35,0,0,0-.1.11c-.05.1.06-.13.1-.42a2,2,0,0,0,.07-.47l.05-.53a23.89,23.89,0,0,0,0-2.39,41,41,0,0,0-.63-5.07c-.3-1.7-.66-3.42-1.09-5.12-1.69-6.8-4.38-13.42-7.07-20.09Z"/>
      </g>
      <path class="cls-32" d="M193.58,158.32s-2.24,14.24-16.59,16.41c-17.13,2.59-25.59-16.95-25.59-16.95"/>
      <path class="cls-33" d="M184.27,171.12S181,174.51,174,174.44s-14.09-5.79-14.09-5.79a48.21,48.21,0,0,1,12.65-1.19A30.39,30.39,0,0,1,184.27,171.12Z"/>
      <path class="cls-28" d="M193.58,158.32s-1.26,4.85-1.92,5.53a30.86,30.86,0,0,1-14.43,5,63.58,63.58,0,0,1-19.7-2.54,38.71,38.71,0,0,1-3.23-4.11,35.18,35.18,0,0,1-2.06-4.14s16.22,3.42,24.21,3A107.78,107.78,0,0,0,193.58,158.32Z"/>
      <g>
        <path class="cls-20" d="M196.54,156.11a37,37,0,0,1-17.9,6.43c-16.81,1.58-28.09-5.58-28.09-5.58"/>
        <path class="cls-34" d="M197,156.66a32.67,32.67,0,0,1-11,5.8,36.24,36.24,0,0,1-6.09,1.37c-1,.17-2.07.22-3.1.3s-2.07.12-3.1.12a46.3,46.3,0,0,1-12.29-1.57,38.75,38.75,0,0,1-11.4-4.91l1-1.62a39.4,39.4,0,0,0,5.38,2.21,48.41,48.41,0,0,0,5.65,1.6,55.56,55.56,0,0,0,11.63,1.29A45.42,45.42,0,0,0,185.31,160a42.48,42.48,0,0,0,5.56-1.82,33.15,33.15,0,0,0,5.24-2.59Z"/>
      </g>
      <path class="cls-24" d="M154,152.8l-2.24,2.56a23.66,23.66,0,0,0-1.79,2.31,22.36,22.36,0,0,0-1.42,2.52c-.44.93-.86,1.91-1.33,3.1a5.69,5.69,0,0,1-1-3.62,7.37,7.37,0,0,1,1.23-3.66,7.48,7.48,0,0,1,2.87-2.53A6.23,6.23,0,0,1,154,152.8Z"/>
      <g class="cls-23">
        <path class="cls-24" d="M186.06,177a9.07,9.07,0,0,1-2.74,4.22,11.06,11.06,0,0,1-9.72,2.6,9.5,9.5,0,0,1-4.52-2.2,46.77,46.77,0,0,0,4.71,0,21,21,0,0,0,4.27-.63,20.32,20.32,0,0,0,4-1.58A34.45,34.45,0,0,0,186.06,177Z"/>
      </g>
      <path class="cls-24" d="M119,162.6A34.58,34.58,0,0,0,123.69,175a30.71,30.71,0,0,0,9.07,9.33A34.7,34.7,0,0,0,145,188.7a86.61,86.61,0,0,0,13.19,1.23,235.91,235.91,0,0,0,26.69-1.21A101.13,101.13,0,0,0,198,186.29a130.25,130.25,0,0,0,12.82-3.89,74.18,74.18,0,0,1-12.47,5.14,76.2,76.2,0,0,1-13.23,2.93c-4.49.56-8.93,1-13.43,1.28a132.46,132.46,0,0,1-13.52.38,78.12,78.12,0,0,1-13.53-1.4,34.64,34.64,0,0,1-12.79-5,30.09,30.09,0,0,1-9-10.25,31.51,31.51,0,0,1-2.62-6.27A28,28,0,0,1,119,162.6Z"/>
      <path class="cls-35" d="M221.84,105.59l-25.56,3.57c-8.51,1.2-17,2.34-25.54,3.6q-25.52,3.76-50.9,8.29l-.71-3.93c17-3,34-5.72,51-8.21,8.53-1.23,17.07-2.36,25.6-3.54l25.59-3.51Z"/>
      <path class="cls-26" d="M171,111.15s-.37,20.17-2.34,22.37-34.23,7.18-37.4,6.72-10.84-22.51-10.84-22.51"/>
      <polygon class="cls-35" points="185.26 116.93 171.83 119.23 171.45 116.71 184.96 114.95 185.26 116.93"/>
      <g class="cls-22">
        <path class="cls-5" d="M90.23,278a88.52,88.52,0,0,0,12.65,1.31q6.33.22,12.66-.15t12.68-.95c4.22-.4,8.45-.82,12.61-1.36l.42,3c-4.29.56-8.54.93-12.81,1.18s-8.55.42-12.82.45a95.48,95.48,0,0,1-12.87-.62,62.26,62.26,0,0,1-6.35-1.05A40.25,40.25,0,0,1,90.23,278Z"/>
      </g>
      <g class="cls-36">
        <path class="cls-37" d="M196.87,230.22a10.65,10.65,0,0,1-2.3-3,11.56,11.56,0,0,1-1.14-3.7,11.22,11.22,0,0,1,.19-4,9.87,9.87,0,0,1,1.41-3.26"/>
        <path class="cls-37" d="M197.63,218.59a6.1,6.1,0,0,0-.88,2,7.1,7.1,0,0,0-.14,2.61,7.23,7.23,0,0,0,.77,2.33,6.83,6.83,0,0,0,1.52,1.91"/>
        <g class="cls-36">
          <path class="cls-38" d="M205.47,217.78a5.82,5.82,0,0,0-1.32-.91,5.14,5.14,0,0,0-2.68-.54,4.88,4.88,0,0,0-2.74,1,5,5,0,0,0-1.1,1.21"/>
          <path class="cls-38" d="M195,216.28a8.74,8.74,0,0,1,1.69-1.82,8,8,0,0,1,4.2-1.72,8.46,8.46,0,0,1,4.51.86,9.87,9.87,0,0,1,2.12,1.44"/>
        </g>
        <g class="cls-36">
          <path class="cls-39" d="M198.9,227.42A5.85,5.85,0,0,0,202,228.8a5,5,0,0,0,2.29-.31c.41.45.83.9,1.28,1.36s1,1,1.52,1.5a8,8,0,0,1-2.89,1.16,8,8,0,0,1-2.94,0,9.32,9.32,0,0,1-2.52-.95,9.69,9.69,0,0,1-1.88-1.33"/>
          <path class="cls-39" d="M207.55,215a10.78,10.78,0,0,1,2.3,2.93,11.66,11.66,0,0,1,1.24,3.75h0a11,11,0,0,1,.1,2.27,7.78,7.78,0,0,1-.28,1.55l-3.16-3a7.44,7.44,0,0,0-.4-1.9,7.09,7.09,0,0,0-1.88-2.86"/>
        </g>
        <path class="cls-40" d="M211.05,231.76a.23.23,0,0,1-.19-.07l-7.35-7.3a.64.64,0,0,1-.08-.82l.53-.68a.55.55,0,0,1,.85,0l7.46,7.41c.65.63,1,1,1.17,1.16a.07.07,0,0,1,0,.12C213,231.58,211.57,231.74,211.05,231.76Z"/>
      </g>
    </g>
  </g>
</svg>
