<svg xmlns="http://www.w3.org/2000/svg" width="449" height="540" viewBox="0 0 449 540">
  <defs>
    <style>
      .cls-1 {
        isolation: isolate;
      }

      .cls-2 {
        fill: #3a4449;
      }

      .cls-3 {
        fill: #385560;
      }

      .cls-4 {
        fill: #3c5968;
      }

      .cls-5 {
        fill: #3b5b66;
      }

      .cls-6 {
        fill: #2b4c57;
      }

      .cls-7 {
        fill: #40606d;
      }

      .cls-8 {
        fill: #42626d;
      }

      .cls-9 {
        fill: #2f545e;
      }

      .cls-10 {
        fill: #b6e0ef;
      }

      .cls-11 {
        fill: #2483c5;
      }

      .cls-12 {
        opacity: 0.6;
      }

      .cls-13 {
        fill: #405e6b;
      }

      .cls-14 {
        opacity: 0.7;
      }

      .cls-15 {
        fill: #eff4f4;
      }

      .cls-16, .cls-19 {
        fill: #536872;
      }

      .cls-16 {
        stroke: #405a63;
        stroke-width: 1.04px;
      }

      .cls-16, .cls-32, .cls-44, .cls-45, .cls-46, .cls-47 {
        stroke-miterlimit: 10;
      }

      .cls-16, .cls-17 {
        opacity: 0.3;
      }

      .cls-18 {
        fill: #516672;
      }

      .cls-19 {
        opacity: 0.18;
      }

      .cls-20 {
        fill: #456572;
      }

      .cls-21 {
        fill: #68aaaf;
      }

      .cls-22, .cls-28, .cls-32, .cls-44, .cls-45, .cls-46, .cls-47 {
        fill: none;
      }

      .cls-22, .cls-28 {
        stroke: #68aaaf;
        stroke-linejoin: round;
      }

      .cls-22 {
        stroke-width: 4.2px;
      }

      .cls-23 {
        fill: #7bb4ba;
      }

      .cls-24 {
        fill: #6a767a;
      }

      .cls-25 {
        fill: #5d787c;
      }

      .cls-26 {
        fill: #f1b291;
      }

      .cls-27 {
        fill: #717d82;
      }

      .cls-28 {
        stroke-width: 3.15px;
      }

      .cls-29 {
        opacity: 0.63;
      }

      .cls-30 {
        fill: #a77056;
      }

      .cls-31 {
        fill: #755946;
      }

      .cls-32 {
        stroke: #353e45;
        stroke-width: 3px;
      }

      .cls-33 {
        fill: #a7755c;
      }

      .cls-34 {
        fill: #f7f5f5;
      }

      .cls-35 {
        fill: #684f3c;
      }

      .cls-36 {
        fill: #5b422a;
      }

      .cls-37 {
        fill: #1b6087;
      }

      .cls-38 {
        fill: #65262d;
        opacity: 0.9;
      }

      .cls-39 {
        fill: #cb5b65;
        opacity: 0.84;
      }

      .cls-40 {
        fill: #915a46;
      }

      .cls-41 {
        opacity: 0.8;
      }

      .cls-42 {
        fill: #353e45;
      }

      .cls-43 {
        mix-blend-mode: multiply;
      }

      .cls-44 {
        stroke: #2582c5;
      }

      .cls-44, .cls-45, .cls-46, .cls-47 {
        stroke-width: 1.16px;
      }

      .cls-45 {
        stroke: #e51a60;
      }

      .cls-46 {
        stroke: #75b747;
      }

      .cls-47 {
        stroke: #f6a31f;
      }

      .cls-48 {
        fill: #a34cb2;
      }

      .cls-49, .cls-55, .cls-56 {
        fill: #b864c9;
      }

      .cls-50 {
        fill: #8b4596;
      }

      .cls-51, .cls-82 {
        fill: #fffcfa;
      }

      .cls-51 {
        opacity: 0.53;
      }

      .cls-52 {
        fill: #68df80;
      }

      .cls-53 {
        fill: #8776c1;
      }

      .cls-54 {
        fill: #ad97dd;
      }

      .cls-55 {
        opacity: 0.57;
      }

      .cls-56 {
        opacity: 0.76;
      }

      .cls-57 {
        fill: #fa89ac;
      }

      .cls-58 {
        fill: #a4d665;
      }

      .cls-59 {
        fill: #af99f2;
      }

      .cls-60 {
        fill: #e3c341;
      }

      .cls-61 {
        fill: #6fb2e0;
      }

      .cls-62 {
        fill: #579bc1;
      }

      .cls-63 {
        fill: #4381a8;
      }

      .cls-64 {
        fill: #f7929b;
      }

      .cls-65 {
        fill: #e8828f;
      }

      .cls-66 {
        fill: #ffb2bb;
      }

      .cls-67 {
        fill: #7ed3dd;
      }

      .cls-68 {
        fill: #ed6262;
      }

      .cls-69 {
        fill: #318651;
      }

      .cls-70 {
        fill: #85c5c7;
      }

      .cls-71 {
        fill: #e5d7ba;
      }

      .cls-72 {
        fill: #ea85cc;
      }

      .cls-73 {
        fill: #d472bb;
      }

      .cls-74 {
        fill: #f7a2e0;
      }

      .cls-75 {
        fill: #e5cb5d;
      }

      .cls-76 {
        fill: #e3a259;
      }

      .cls-77 {
        fill: #cc8542;
      }

      .cls-78 {
        fill: #f5b975;
      }

      .cls-79 {
        fill: #eabc5b;
        opacity: 0.37;
      }

      .cls-80 {
        fill: #f0717a;
      }

      .cls-81 {
        fill: #f5c0da;
      }

      .cls-82 {
        opacity: 0.5;
      }

      .cls-83 {
        fill: #7abb3f;
      }

      .cls-84 {
        fill: #b74e5a;
      }

      .cls-85 {
        fill: #c45567;
      }

      .cls-86 {
        fill: #d46379;
      }

      .cls-87 {
        fill: #e38b7e;
      }
    </style>
  </defs>
  <g class="cls-1">
    <g id="Ebene_1" data-name="Ebene 1">
      <path class="cls-2" d="M70.26,423.7s-7.29-.32-12.67,1.07a31.14,31.14,0,0,0-8.68,3.69,172.49,172.49,0,0,0,13,33.63c9.86,19.26,16.87,20.31,16.87,20.31s4.28-5.76,2.49-19.67c-1.24-9.58-4.58-23.86-4.58-23.86"/>
      <path class="cls-3" d="M169.88,354.83s-15,33.34-31.33,54.67c-13.23,18.14-58.67,41-58.67,41a26.09,26.09,0,0,1-11.66-10.33c-8-11.34-8-18.34-8-18.34s36.1-13.61,49.66-32.33c10.68-14.53,17.67-35.67,17.67-35.67"/>
      <path class="cls-4" d="M179.65,334.33l-2.43,26.5s-21.36,10.37-53,13c-16,1.34-35.67,6.34-45.67-3.66s-14-32-14-32Z"/>
      <path class="cls-5" d="M177,185.54l11.15,3.55s6.21,55.11,19.79,68.54c6.82,6.75,19.71,10.86,27.38,12.22a17.14,17.14,0,0,1,14,19.57c0,.14,0,.27-.07.41-1.67,9.34-9.67,14.67-9.67,14.67s-27.42-2.83-48.7-13.86C161.52,275.44,166,219.1,166,219.1Z"/>
      <path class="cls-6" d="M187.81,225.13q.7,10.34,1,20.68c.22,6.89.3,13.79.36,20.68s0,13.79-.14,20.68-.4,13.78-.81,20.68q-.69-10.34-.93-20.69c-.19-6.9-.28-13.79-.34-20.68s0-13.78.13-20.67S187.42,232,187.81,225.13Z"/>
      <path class="cls-6" d="M112.22,374.17c9.33-.57,18.58-1.07,27.72-2.33A124.7,124.7,0,0,0,153.48,369c4.48-1.17,8.94-2.48,13.4-3.86a94,94,0,0,1-12.95,5.39q-3.33,1.13-6.75,2a68,68,0,0,1-6.93,1.41,101.6,101.6,0,0,1-14,1.08A92.27,92.27,0,0,1,112.22,374.17Z"/>
      <path class="cls-2" d="M126.28,480.18a50.57,50.57,0,0,0-.68,12.55,30.91,30.91,0,0,0,2.46,9.06s10.62.06,26.28-5.63a157.17,157.17,0,0,0,33.19-17.1s-7.09-4.09-21-4.49c-9.61-.28-24.39,1.73-24.39,1.73"/>
      <path class="cls-4" d="M113.88,362.5a188.42,188.42,0,0,1,25,46.81c7.58,17,17,64.52,17,64.52s-3.33,3.34-14.33,8a57.11,57.11,0,0,1-18.62,4.67s-7.59-44.66-15.28-61.83C96.71,399.09,71.88,359.5,71.88,359.5"/>
      <path class="cls-7" d="M185.41,188.39s-27.34-11.45-67.12-11.4c-40.69,0-70.4,11.63-70.4,11.63S57,266.35,55.23,299.31s-5,56.3-5,56.3,31.05,9.89,83.05,8.89c39.53-.76,55.5-7,55.5-7s.44-31.87-1.54-83.8c-.93-24.31-.55-65.68-.55-65.68"/>
      <g>
        <polyline class="cls-7" points="103.43 316.47 100.68 331.07 57.31 327 59.88 311.5"/>
        <path class="cls-6" d="M103.43,316.47l-1.69,14.8-.11,1-1-.1c-7.23-.65-14.45-1.41-21.67-2.11s-14.45-1.49-21.66-2.32l-.79-.09.15-.74,3.27-15.38L58,327.12l-.64-.83c7.24.53,14.47,1.17,21.71,1.75s14.47,1.24,21.69,1.95l-1.16.88Z"/>
      </g>
      <g>
        <path class="cls-8" d="M137.91,299.42s-18.63-17.06-28.18-27.73-18.24-26.55-18.24-26.55l14.62-8.77-17.42-1.69s-8.64-35.17-6.47-48.55c1.23-7.66,9.51-14.64,9.51-14.64l60.46,2.61s9.52,10,11.51,13.93,5.67,39.35,5.67,39.35l-13.13,5.13L169,237.13s-3.75,18.29-8.32,30.25S144,298.33,144,298.33"/>
        <path class="cls-9" d="M137.52,299.85q-6.68-6-13.18-12.23c-4.33-4.13-8.63-8.31-12.78-12.66-2.07-2.17-4.11-4.42-6-6.78s-3.69-4.77-5.42-7.23c-3.46-4.94-6.67-10-9.66-15.26h0l-.54-1,1-.56,14.69-8.68h0l.43,1.89-17.44-1.57-1-.86c-1.3-5.46-2.47-10.92-3.52-16.42s-2-11-2.61-16.61c-.32-2.79-.58-5.6-.68-8.43a35.77,35.77,0,0,1,.55-8.64A22.86,22.86,0,0,1,85.18,177,39.48,39.48,0,0,1,91,170.62l.32-.29.46,0L152.24,173h0l.47,0,.31.33c3.29,3.59,6.51,7.18,9.48,11.09a24.85,24.85,0,0,1,2.09,3.17,10.67,10.67,0,0,1,.62,1.93c.15.61.28,1.21.39,1.81.47,2.41.82,4.8,1.16,7.2,1.32,9.59,2.33,19.19,3.28,28.8h0l.05.51-.47.2-13,5.42h0l0-1.88,12.77,4.5h0l.93.33-.21,1c-1.19,5.45-2.53,10.84-4,16.22q-1.11,4-2.41,8c-.87,2.66-1.77,5.3-2.89,7.89a154.49,154.49,0,0,1-7.6,14.9q-4.14,7.26-8.63,14.28l-1-.65q4.35-7.06,8.35-14.35a154.63,154.63,0,0,0,7.28-14.86,136.43,136.43,0,0,0,5-15.74c1.4-5.34,2.65-10.75,3.74-16.15l.73,1.3h0l-12.67-4.75-2.55-1,2.53-.92h0l13.24-4.82-.43.7h0c-1.1-9.57-2.26-19.16-3.72-28.67-.38-2.38-.77-4.76-1.26-7.08-.12-.58-.25-1.16-.4-1.72a9.25,9.25,0,0,0-.49-1.51,23.13,23.13,0,0,0-1.95-2.83c-2.92-3.73-6.21-7.29-9.5-10.76l.77.35h0l-60.46-2.6.78-.27a37.16,37.16,0,0,0-5.43,6,20.75,20.75,0,0,0-3.5,7.06,33.63,33.63,0,0,0-.48,8c.09,2.74.34,5.5.66,8.25.64,5.5,1.55,11,2.59,16.44s2.2,10.92,3.49,16.31l-1-.86,17.41,1.8,3,.31-2.59,1.58h0l-14.57,8.88.41-1.52h0c2.86,5.19,6,10.29,9.32,15.21q2.51,3.69,5.23,7.21c1.82,2.35,3.77,4.56,5.79,6.76,4.05,4.37,8.27,8.61,12.53,12.8s8.59,8.32,13,12.4Z"/>
      </g>
      <path class="cls-10" d="M140.14,291.22s-18-20.94-30.35-54.86c-9.48-25.94-13.39-53.69-13.39-53.69l55.32,2.09s4.46,26.36,2.69,49A185.88,185.88,0,0,1,140.14,291.22Z"/>
      <path class="cls-11" d="M134.34,190.71l7.76,13.1S140,206,134.94,206a21.4,21.4,0,0,1-8.57-1.75l6.27-13.53Z"/>
      <g class="cls-12">
        <path class="cls-13" d="M155.43,200a27.93,27.93,0,0,1-4.9,3.95c-1.71,1.12-3.43,2.14-5.24,3.09h0l-.87.51-.53-.9-11.6-19.57L135,187l-10.82,21.07-.33.66-.66-.22h0c-2.43-.68-4.77-1.48-7.12-2.34s-4.65-1.81-6.93-2.86a43.89,43.89,0,0,1-6.64-3.72,34.73,34.73,0,0,1-5.91-5l2.31-1.91a31.88,31.88,0,0,0,5.17,4.75,41.87,41.87,0,0,0,6.12,3.77c2.16,1.13,4.38,2.15,6.63,3.12s4.55,1.85,6.85,2.62h0l-1,.44,9.63-21.64,1.22-2.76,1.44,2.67,10.77,20-1.4-.39h0c1.63-1,3.25-2.17,4.77-3.35a25.25,25.25,0,0,0,4.1-3.85Z"/>
      </g>
      <path class="cls-11" d="M137.76,206.29s6.29,26.36,7.34,38,1.14,31.34,1.14,31.34l-6,15.62-11.5-15.63.26-32.9,2.86-36.54Z"/>
      <g>
        <polyline class="cls-7" points="169.08 312.68 172.09 327.41 192.59 323.43 188.38 307.5"/>
        <path class="cls-6" d="M169.08,312.68l4.1,14.51-1.3-.87q2.55-.54,5.12-1l5.15-.87,10.33-1.6-.45.72q-1.86-8-3.65-16.08,2.43,7.88,4.78,15.78l.17.58-.63.15-10.17,2.37-5.1,1.13q-2.56.54-5.13,1l-1.17.2-.13-1.07Z"/>
      </g>
      <g class="cls-14">
        <path class="cls-7" d="M141.65,290.34s-.07,30.56-.79,44.8-2.31,29.69-2.31,29.69"/>
        <path class="cls-6" d="M142.15,290.34c.07,12.44.09,24.87-.13,37.32-.09,6.22-.41,12.46-.8,18.67s-.87,12.42-1.43,18.63l-2.48-.26q1-9.24,1.79-18.53c.51-6.18.94-12.36,1.16-18.57.48-12.4.71-24.84.89-37.27Z"/>
      </g>
      <polygon class="cls-15" points="149.03 211.27 176.93 210.56 180.15 240.77 152.88 240.79 149.03 211.27"/>
      <line class="cls-16" x1="156.68" y1="237.23" x2="175.62" y2="237.06"/>
      <g class="cls-17">
        <polygon class="cls-18" points="149.36 216.17 152.54 241.71 151.54 240.82 156.43 241.06 156.45 242.39 151.57 242.79 150.65 242.87 150.57 241.9 148.63 216.24 149.36 216.17"/>
      </g>
      <polygon class="cls-19" points="172.54 212.91 174.91 213.02 174.95 215.52 172.92 215.33 172.54 212.91"/>
      <path class="cls-20" d="M47.89,188.62S35.38,238,52.88,281c12.4,30.47,88.34,40.5,88.34,40.5a20.73,20.73,0,0,0,10.33-15c1.85-11-4.67-20.33-4.67-20.33S98.38,280,86.38,267c-10.11-11-13-42-13-42a90.2,90.2,0,0,0-12-24C54.83,191.75,47.89,188.62,47.89,188.62Z"/>
      <path class="cls-6" d="M73.38,225c.75,4.2,1.54,8.39,2.48,12.55s1.89,8.3,3.11,12.36a67.11,67.11,0,0,0,4.51,11.76,14.44,14.44,0,0,0,3.65,4.69l2.58,1.75c.89.54,1.82,1,2.72,1.56A101.57,101.57,0,0,0,103.92,275c2,.82,4,1.52,5.94,2.28s4,1.44,6,2.11c4,1.39,8.08,2.64,12.16,3.86s8.17,2.4,12.27,3.54l-.17.77c-4.2-.82-8.35-1.84-12.5-2.88s-8.25-2.26-12.33-3.55-8.13-2.69-12.13-4.26a101.74,101.74,0,0,1-11.71-5.44c-.93-.56-1.88-1.08-2.8-1.66L86,267.88a11.3,11.3,0,0,1-2.37-2.52,22,22,0,0,1-1.72-2.85,61.62,61.62,0,0,1-4.28-12.22A166.24,166.24,0,0,1,73.38,225Z"/>
      <path class="cls-6" d="M54.55,284.83a111.93,111.93,0,0,0,9,8.12,115.15,115.15,0,0,0,9.74,7.18A89,89,0,0,0,94.81,310.8c.94.33,1.9.59,2.86.89l2.92.8c1.94.56,3.91,1,5.86,1.55,3.93,1,7.86,1.89,11.81,2.74s7.91,1.62,11.89,2.32,8,1.33,12,1.83l-.15,1.85a194.7,194.7,0,0,1-24.22-3.55c-4-.78-8-1.75-11.91-2.75-2-.53-4-1-5.9-1.6L97,314c-1-.31-2-.6-2.95-.94a73.92,73.92,0,0,1-11.27-5,91.83,91.83,0,0,1-10.39-6.57A100,100,0,0,1,54.55,284.83Z"/>
      <path class="cls-21" d="M255.3,288.11c6.52,8.59,13,17.16,19.5,25.82l2.42,3.29.61.84.32.46.16.24.08.11,0,.06.12.19a5.84,5.84,0,0,1,.5,1.17l.18.65c.1.39.18.76.26,1.12.57,2.82.95,5.47,1.35,8.17.78,5.37,1.47,10.72,2.14,16.07,2.65,21.42,5,42.83,7.34,64.26h0l-2-2.2,120.76,24.29h0l-2.41,1.49c-.25-.28-.07-.44,0-.64l.16-.59.32-1.16.65-2.34,1.29-4.68,2.59-9.34,5.17-18.7L422,378l5.23-18.68a2,2,0,0,1,3.91,1.07l-5,18.74L421,397.85l-5.08,18.72-2.54,9.36-1.27,4.68-.63,2.34-.32,1.17-.16.59c-.08.18,0,.42-.36.53l-2.41,1.49h0L287.31,413.34a2.55,2.55,0,0,1-2-2.18v0h0c-2.66-21.36-5.38-42.73-8.37-64-.76-5.32-1.53-10.64-2.38-15.91-.43-2.62-.87-5.3-1.42-7.75-.06-.3-.13-.58-.2-.85l-.1-.32.13.24-1-1.38L269.47,318c-6.59-8.46-13.29-16.91-20-25.34h0a3.68,3.68,0,0,1,5.76-4.58Z"/>
      <line class="cls-22" x1="330.36" y1="462.67" x2="408.65" y2="434.69"/>
      <line class="cls-22" x1="194.8" y1="435.91" x2="287.8" y2="410.85"/>
      <polygon class="cls-21" points="206.32 438.42 208.86 493.73 204.67 494.08 197.99 439.11 206.32 438.42"/>
      <polygon class="cls-21" points="295.76 412.53 295.08 469.94 290.88 470.04 287.4 412.74 295.76 412.53"/>
      <g>
        <ellipse class="cls-23" cx="291.15" cy="469.21" rx="13.37" ry="13.01" transform="translate(-242.5 611.11) rotate(-73.07)"/>
        <path class="cls-24" d="M305.68,469a15,15,0,0,1-4.31,10.27,14.27,14.27,0,0,1-10.1,4.27,14,14,0,0,1-10-4.17,14.57,14.57,0,0,1-4.07-10,15,15,0,0,1,3.88-10.1,14.31,14.31,0,0,1,9.91-4.69,14,14,0,0,1,10.41,4A14.14,14.14,0,0,1,305.68,469Zm-3,0a12.61,12.61,0,0,0-3.35-8.33,11.46,11.46,0,0,0-8.28-3.55,11.77,11.77,0,0,0-8.49,3.59,12.42,12.42,0,0,0-3.6,8.7,12.13,12.13,0,0,0,3.54,8.75,11.64,11.64,0,0,0,17-.63A12.39,12.39,0,0,0,302.7,469Z"/>
      </g>
      <ellipse class="cls-25" cx="291.15" cy="469.21" rx="6.69" ry="6.51" transform="translate(-242.5 611.11) rotate(-73.07)"/>
      <polygon class="cls-21" points="326.46 460.73 319.49 512.74 315.31 512.35 318.14 459.95 326.46 460.73"/>
      <polygon class="cls-21" points="403.66 432.54 392.61 486.39 388.46 485.7 395.42 431.17 403.66 432.54"/>
      <g>
        <ellipse class="cls-23" cx="391.73" cy="487.76" rx="14.23" ry="13.82" transform="translate(-169.73 211.85) rotate(-25.06)"/>
        <path class="cls-24" d="M407.21,484.7a15.28,15.28,0,0,1-2.79,11.52,15.83,15.83,0,0,1-9.86,6.16,15.65,15.65,0,0,1-11.27-2.2,14.71,14.71,0,0,1-6.4-9.48,15.2,15.2,0,0,1,2.36-11.25,15.87,15.87,0,0,1,9.61-6.56,15.58,15.58,0,0,1,11.65,1.92,14.7,14.7,0,0,1,4.43,4.21A14.42,14.42,0,0,1,407.21,484.7Zm-3.09.57a12.63,12.63,0,0,0-5.26-7.89,12.94,12.94,0,0,0-9.47-1.93,13.27,13.27,0,0,0-8.39,5.23,13,13,0,0,0-2.15,4.6,12.55,12.55,0,0,0,1.74,9.83,12.1,12.1,0,0,0,3.68,3.55,13,13,0,0,0,4.77,1.83,13.41,13.41,0,0,0,5.09-.17,13.26,13.26,0,0,0,8.12-5.63A12.4,12.4,0,0,0,404.12,485.27Z"/>
      </g>
      <ellipse class="cls-25" cx="390.68" cy="487.78" rx="7.12" ry="6.91" transform="translate(-169.83 211.41) rotate(-25.06)"/>
      <g>
        <ellipse class="cls-23" cx="205.01" cy="494.38" rx="14.61" ry="13.65" transform="translate(-308.49 645.24) rotate(-83.85)"/>
        <path class="cls-24" d="M220.21,494.17a16.8,16.8,0,0,1-4.38,11A14.73,14.73,0,0,1,205.15,510a14.3,14.3,0,0,1-10.57-4.69,16.26,16.26,0,0,1-4.13-10.73,16.75,16.75,0,0,1,3.93-10.86,14.71,14.71,0,0,1,10.49-5.23,14.07,14.07,0,0,1,6,1.05,14.81,14.81,0,0,1,5,3.48A15.72,15.72,0,0,1,220.21,494.17Zm-3.08,0a14.35,14.35,0,0,0-3.44-9.11,11.71,11.71,0,0,0-8.76-4,12.21,12.21,0,0,0-9,4.05,14.36,14.36,0,0,0-2.73,4.37,14.8,14.8,0,0,0-1,5.1,13.72,13.72,0,0,0,3.63,9.52,12.44,12.44,0,0,0,4.2,3,11.68,11.68,0,0,0,5,.87,12.21,12.21,0,0,0,8.78-4.47A14,14,0,0,0,217.13,494.17Z"/>
      </g>
      <ellipse class="cls-25" cx="205.01" cy="494.38" rx="7.31" ry="6.82" transform="translate(-308.49 645.24) rotate(-83.85)"/>
      <g>
        <ellipse class="cls-23" cx="316.8" cy="515.23" rx="13.91" ry="13.63" transform="translate(-273.18 648.45) rotate(-71.14)"/>
        <path class="cls-24" d="M331.94,513.66a15.57,15.57,0,0,1-3.56,11.05,15,15,0,0,1-10.11,5.34,14.76,14.76,0,0,1-10.77-3.36,15,15,0,0,1-5.2-9.94,15.5,15.5,0,0,1,3.12-10.84,15,15,0,0,1,9.89-5.75,14.73,14.73,0,0,1,16.63,13.5Zm-3.06.27a13.05,13.05,0,0,0-4.3-8.33,12.11,12.11,0,0,0-9-2.88,12.43,12.43,0,0,0-8.54,4.5,13.17,13.17,0,0,0-2.41,4.37,13,13,0,0,0-.55,5,12.55,12.55,0,0,0,4.54,8.75A12,12,0,0,0,318,528a12.46,12.46,0,0,0,8.3-4.9A12.84,12.84,0,0,0,328.88,513.93Z"/>
      </g>
      <ellipse class="cls-25" cx="316.88" cy="514.66" rx="6.95" ry="6.82" transform="translate(-272.59 648.14) rotate(-71.14)"/>
      <path class="cls-26" d="M221.86,281.46c9.17-12.77,19-9.82,24.67-7.47,11,4.57,16.6,22.86,7.42,28.43s-20,2.35-24.89-.66C223,298.06,215.76,290,221.86,281.46Z"/>
      <path class="cls-27" d="M145.74,307.6l83.06-17.55a4.73,4.73,0,0,1,2,9.23l-82.74,19a5.47,5.47,0,1,1-2.44-10.66Z"/>
      <path class="cls-21" d="M151.37,310.39c7.26,8.6,14.49,17.2,21.67,25.91l2.69,3.3,1.34,1.69c.23.29.44.56.71.92l.37.52.09.12,0,.07.13.2a5.75,5.75,0,0,1,.34.69l.16.41.11.32.19.6.32,1.11.55,2.12,1,4.17c1.26,5.52,2.44,11,3.6,16.54,4.6,22.05,9,44.12,13.26,66.21h0l-2.53-2.53,33.82,7.07,33.83,7L280,450.29l16.93,3.39c11.3,2.25,22.58,4.53,33.9,6.66a2.37,2.37,0,0,1-.88,4.66h0c-11.28-2.33-22.58-4.51-33.88-6.72l-17-3.29-17-3.21-33.95-6.41-34-6.31a3.15,3.15,0,0,1-2.51-2.44l0-.08h0c-4.45-22-9-44.06-13.7-66-1.19-5.48-2.4-11-3.68-16.39l-1-4-.52-2-.27-.91-.13-.4-.06-.18,0-.08-4.71-5.73c-7.18-8.6-14.49-17.15-21.79-25.68h0a3.68,3.68,0,1,1,5.59-4.78Z"/>
      <line class="cls-28" x1="254.7" y1="326.69" x2="266.26" y2="415.91"/>
      <line class="cls-28" x1="226.68" y1="334.13" x2="238.94" y2="423.5"/>
      <line class="cls-28" x1="197.25" y1="339.83" x2="213.72" y2="429.84"/>
      <line class="cls-28" x1="302.34" y1="328.05" x2="306.19" y2="413.71"/>
      <line class="cls-28" x1="332.46" y1="335.11" x2="330.01" y2="419.29"/>
      <line class="cls-28" x1="397.61" y1="351.94" x2="381.85" y2="428.28"/>
      <line class="cls-28" x1="363.46" y1="343.55" x2="353.13" y2="423.13"/>
      <line class="cls-28" x1="225.98" y1="441.55" x2="310.04" y2="416.1"/>
      <line class="cls-28" x1="258.55" y1="448.04" x2="338.07" y2="420.91"/>
      <line class="cls-28" x1="301.29" y1="456.47" x2="379.05" y2="429.02"/>
      <line class="cls-28" x1="222.47" y1="428.65" x2="354.88" y2="453.19"/>
      <line class="cls-28" x1="268.71" y1="417.09" x2="387.8" y2="442.18"/>
      <line class="cls-22" x1="207.06" y1="469.13" x2="319.15" y2="492.58"/>
      <line class="cls-22" x1="294.28" y1="443.63" x2="394.46" y2="463.77"/>
      <path class="cls-26" d="M138.3,297.7c6.38-15.35,20.83-10.64,26.88-8.35,11.79,4.47,17.38,20.56,8.82,28-8.35,7.3-18.52,3.54-25.71,1.29C140.52,316.26,133.55,309.14,138.3,297.7Z"/>
      <g class="cls-29">
        <path class="cls-30" d="M241.13,304.11a.26.26,0,0,0-.13,0l.09-.08.2-.21c.14-.16.29-.32.42-.49a11,11,0,0,0,.78-1.11,13.9,13.9,0,0,0,1.22-2.44,14.63,14.63,0,0,0,1-5.36,19.76,19.76,0,0,0-.83-5.5,12.38,12.38,0,0,0-1.06-2.54,8,8,0,0,0-1.58-2.1l.76-1.13a10.93,10.93,0,0,1,3.66,5.16,20.29,20.29,0,0,1,1.17,6.08,15.75,15.75,0,0,1-1.09,6.18,15,15,0,0,1-1.47,2.8,12.93,12.93,0,0,1-1,1.27c-.17.2-.36.4-.56.6s-.2.19-.34.3l-.2.15a2.06,2.06,0,0,1-.43.24Z"/>
      </g>
      <g class="cls-29">
        <path class="cls-30" d="M252.38,302.31a28.83,28.83,0,0,0,1-5.09,20.06,20.06,0,0,0-.08-5,29.08,29.08,0,0,0-1.28-4.93,12.68,12.68,0,0,0-2.4-4.38l.31-.56a6.69,6.69,0,0,1,2.19,1.88,12.77,12.77,0,0,1,1.48,2.38,18.6,18.6,0,0,1,1,2.58,16.89,16.89,0,0,1,.67,2.72,14.6,14.6,0,0,1-.22,5.63,12.9,12.9,0,0,1-2.35,5Z"/>
      </g>
      <g class="cls-29">
        <path class="cls-30" d="M160.33,320.42a7.13,7.13,0,0,0,.51-.94,8.33,8.33,0,0,0,.42-1.12,12.58,12.58,0,0,0,.5-2.38,19.88,19.88,0,0,0-.13-5,20.14,20.14,0,0,0-4-9.21l.81-.87a15.68,15.68,0,0,1,3.54,4.37,17.86,17.86,0,0,1,2.08,11,14,14,0,0,1-.71,2.82,10.3,10.3,0,0,1-.63,1.35,6,6,0,0,1-.93,1.31Z"/>
      </g>
      <g class="cls-29">
        <path class="cls-30" d="M169.89,319.05a26.78,26.78,0,0,0,1.37-4.83,18,18,0,0,0,.25-5,22,22,0,0,0-1-4.95,24,24,0,0,0-2-4.67l.95-.73a18.42,18.42,0,0,1,2.84,4.75,21.71,21.71,0,0,1,1.47,5.36,18,18,0,0,1-.22,5.63,19.75,19.75,0,0,1-1.82,5.29Z"/>
      </g>
      <path class="cls-31" d="M160.53,43.05s16.43,19,17.37,32.83c.68,10.09-2.34,26.91-2.34,26.91L150.12,45.45Z"/>
      <path class="cls-26" d="M85.27,160.33s1.76,14.84,15.21,22.43c18.86,10.65,70.69,7.66,78.13.1,6.46-6.57,5.17-49.53-2.4-86.79-6-29.32-21.3-55.35-21.3-55.35S126.25,34,102.5,37.63A84.18,84.18,0,0,0,68.64,51.16l13.52,94"/>
      <path class="cls-31" d="M80.17,51.09s6.62,15.42,7.1,28.47c.42,11.27-1.22,37.74-1.22,37.74a104.14,104.14,0,0,1,7,12.69c3.74,8.73,1.35,15.35,1.35,15.35L80.15,128.22l6.76,38.22s-7.45-.94-11.17-10.18S58.91,110.44,57,96.81c-1-7.25-3.74-42.92.13-49.33a11.43,11.43,0,0,1,7.32-5.33,16.45,16.45,0,0,1,12.37-14.3c17.32-5,56.15-4.63,70.92-.83,11.35,2.92,26.92,19.12,26.92,19.12S159.43,49,151.73,47.79s-28.11-7.41-28.11-7.41,12.41,6.24,16,8.46,10.28,8.36,10.28,8.36-14.76-.36-19.7-1.41-24.74-9.47-24.74-9.47,7.74,4.72,11.35,7.18a62,62,0,0,1,6.93,5.67s-13.63,1.7-23.77-.4S80.17,51.09,80.17,51.09Z"/>
      <line class="cls-32" x1="91.89" y1="121.65" x2="74.06" y2="126.78"/>
      <path class="cls-26" d="M88.79,138.75S82.15,124.08,71.69,123c-14.77-1.58-9.24,29.19.73,34.35,8.75,4.52,14.24.59,14.24.59"/>
      <path class="cls-33" d="M85.08,146.55c-1.49-1.71-2.89-3.34-4.31-4.87a34,34,0,0,0-4.42-4.07A16.79,16.79,0,0,0,74,136.15a18.63,18.63,0,0,0-2.53-1.1,11.82,11.82,0,0,0-5.91-.59c1.24-2.15,4-3.07,6.55-2.85a10.73,10.73,0,0,1,1.87.31,13,13,0,0,1,1.74.65,13.19,13.19,0,0,1,3.1,2,19,19,0,0,1,6.3,12Z"/>
      <path class="cls-34" d="M98.7,116.73c.8,7.79,7.08,12.92,15.3,12.24a13.66,13.66,0,0,0,12.55-15.1,14,14,0,1,0-27.85,2.86Z"/>
      <path class="cls-34" d="M151.4,113.26c1.3,7.61,6.07,13,13.71,12.37,7.18-.63,11.86-7.32,11.37-15-.52-8.17-7-13.13-14.15-12.4S150.19,106.18,151.4,113.26Z"/>
      <path class="cls-35" d="M129.74,94.16a99.48,99.48,0,0,0-20,4.17A66.27,66.27,0,0,0,95,105.48l-.09-4.18s2.32-5.68,13.73-9.35a60.57,60.57,0,0,1,19.86-2.53Z"/>
      <path class="cls-36" d="M122.75,105.11a15.06,15.06,0,0,0-6.53-2.25,17,17,0,0,0-6.53.7,17.81,17.81,0,0,0-5.88,3,19.62,19.62,0,0,0-4.66,5.21,11.41,11.41,0,0,1,3-6.93,14.13,14.13,0,0,1,6.66-4.11,13.9,13.9,0,0,1,7.83-.13A10.14,10.14,0,0,1,122.75,105.11Z"/>
      <path class="cls-36" d="M175.62,106.05a12.85,12.85,0,0,0-4.71-4.28A18.26,18.26,0,0,0,165,99.93a13.5,13.5,0,0,0-6.07.26,12.52,12.52,0,0,0-5.4,3.39,9.29,9.29,0,0,1,4.67-5.17,12.11,12.11,0,0,1,7.16-1,13.55,13.55,0,0,1,6.68,2.64A8.76,8.76,0,0,1,175.62,106.05Z"/>
      <path class="cls-35" d="M149.3,93.65a51.16,51.16,0,0,1,14.07.29,48,48,0,0,1,14.16,4.48l-.75-3.65A21.72,21.72,0,0,0,165,88.23a32.12,32.12,0,0,0-15.58.92Z"/>
      <ellipse class="cls-37" cx="113.08" cy="116.29" rx="5.83" ry="7.42" transform="translate(-2.32 2.3) rotate(-1.15)"/>
      <ellipse class="cls-37" cx="163.73" cy="112.24" rx="5.35" ry="7.21" transform="translate(-3.61 5.46) rotate(-1.89)"/>
      <path class="cls-32" d="M191.31,106.14s-3.42,21.17-4.51,22.61S155,132.38,155,132.38"/>
      <g>
        <path class="cls-26" d="M144.05,92.17s8.5,20,12.28,32.44,4.16,22.79,2.23,24.51-8.21,3.19-15.19,2.78-10.54-2.62-10.54-2.62"/>
        <path class="cls-30" d="M144.05,92.17q5,9.6,9.31,19.58c1.4,3.33,2.79,6.68,4,10.11a90,90,0,0,1,3.16,10.57,55.51,55.51,0,0,1,1.58,11.13,25.72,25.72,0,0,1-.1,3l-.12.81a6.66,6.66,0,0,1-.19.85,6,6,0,0,1-.9,2.06,6.31,6.31,0,0,1-.53.63c-.17.17-.29.24-.44.37a7.83,7.83,0,0,1-.82.55,13.22,13.22,0,0,1-1.54.73,22.11,22.11,0,0,1-2.93.89,36.59,36.59,0,0,1-11.45.58,19.17,19.17,0,0,1-5.56-1.4,11.74,11.74,0,0,1-4.71-3.36c3.83.33,7.12.39,10.54.45a37.55,37.55,0,0,0,5.09-.21,33.91,33.91,0,0,0,4.92-.85,16.66,16.66,0,0,0,2.23-.72,7.39,7.39,0,0,0,.89-.44,2.72,2.72,0,0,0,.3-.19l.08-.06a.22.22,0,0,0-.11.1c-.06.09.08-.13.13-.42a2.22,2.22,0,0,0,.11-.46l.09-.52a22.27,22.27,0,0,0,.16-2.38,38.54,38.54,0,0,0-.26-5.11c-.17-1.72-.4-3.45-.71-5.18-1.17-6.91-3.37-13.71-5.56-20.56Z"/>
      </g>
      <path class="cls-38" d="M160.46,159.25s-3.28,14-17.75,15.15c-17.28,1.32-24.27-18.79-24.27-18.79"/>
      <path class="cls-39" d="M150.23,171.34s-3.52,3.13-10.5,2.55-13.62-6.81-13.62-6.81a47.75,47.75,0,0,1,12.7-.26A30.41,30.41,0,0,1,150.23,171.34Z"/>
      <path class="cls-34" d="M160.46,159.25s-1.61,4.75-2.32,5.37a30.79,30.79,0,0,1-14.76,4,63.84,63.84,0,0,1-19.46-4,39,39,0,0,1-2.92-4.35,35.49,35.49,0,0,1-1.75-4.27s15.92,4.61,23.93,4.75A108.42,108.42,0,0,0,160.46,159.25Z"/>
      <g>
        <path class="cls-26" d="M163.58,157.26a36.8,36.8,0,0,1-18.33,5.1c-16.88.34-27.6-7.63-27.6-7.63"/>
        <path class="cls-40" d="M164,157.85a32.69,32.69,0,0,1-11.36,5,35.63,35.63,0,0,1-6.17.93c-1,.08-2.08.07-3.12.07s-2.07,0-3.1-.12a46.53,46.53,0,0,1-12.14-2.46,38.86,38.86,0,0,1-11-5.75l1.15-1.53a40.17,40.17,0,0,0,5.21,2.6,49,49,0,0,0,5.51,2,55,55,0,0,0,11.5,2.14,45.4,45.4,0,0,0,11.65-.43,43.59,43.59,0,0,0,5.68-1.4,33.31,33.31,0,0,0,5.41-2.2Z"/>
      </g>
      <path class="cls-30" d="M121.36,150.83l-2.42,2.39a21.2,21.2,0,0,0-2,2.17,20.61,20.61,0,0,0-1.61,2.41c-.51.89-1,1.84-1.56,3a5.64,5.64,0,0,1-.69-3.68,7.21,7.21,0,0,1,1.49-3.56,7.45,7.45,0,0,1,3-2.31A6.14,6.14,0,0,1,121.36,150.83Z"/>
      <g class="cls-41">
        <path class="cls-30" d="M151.58,177.35a9.09,9.09,0,0,1-3,4,11.07,11.07,0,0,1-9.89,1.88,9.62,9.62,0,0,1-4.34-2.53c1.66.2,3.19.36,4.69.39a19.23,19.23,0,0,0,8.42-1.59A31.91,31.91,0,0,0,151.58,177.35Z"/>
      </g>
      <path class="cls-30" d="M85.74,158a34.48,34.48,0,0,0,3.8,12.69,30.7,30.7,0,0,0,8.36,10A34.63,34.63,0,0,0,109.76,186a85.41,85.41,0,0,0,13.06,2.2,235.53,235.53,0,0,0,26.71.76,101.77,101.77,0,0,0,13.23-1.46,129.77,129.77,0,0,0,13.08-2.94A75.46,75.46,0,0,1,163,188.75a76.46,76.46,0,0,1-13.41,1.94c-4.51.22-9,.29-13.49.29a132.76,132.76,0,0,1-13.51-.62A78.49,78.49,0,0,1,109.22,188a34.71,34.71,0,0,1-12.39-5.9,30.19,30.19,0,0,1-8.25-10.89,30.71,30.71,0,0,1-2.14-6.45A27.63,27.63,0,0,1,85.74,158Z"/>
      <path class="cls-42" d="M192.53,108.75l-25.75,1.68c-8.58.57-17.17,1.08-25.74,1.7q-25.71,1.89-51.37,4.52l-.42-4c17.16-1.76,34.32-3.2,51.51-4.42,8.6-.61,17.19-1.1,25.79-1.65L192.33,105Z"/>
      <path class="cls-32" d="M141.46,110.55s-1.85,20.09-4,22.14-34.67,4.63-37.8,3.95-9.15-23.25-9.15-23.25"/>
      <polygon class="cls-42" points="155.22 117.36 141.66 118.67 141.46 116.13 155.07 115.37 155.22 117.36"/>
      <polyline class="cls-22" points="175.36 344.89 275.72 320.77 429.14 359.85"/>
      <polyline class="cls-28" points="415.83 412.71 284.47 383.61 189.55 408.17"/>
      <polyline class="cls-28" points="421.08 388.14 280.62 354.98 183.94 380.27"/>
      <g class="cls-43">
        <path class="cls-44" d="M158.82,230.92a10.72,10.72,0,0,1-2.1-3.06,11.35,11.35,0,0,1-1-3.63,10.67,10.67,0,0,1,.33-3.77,9.18,9.18,0,0,1,1.47-3"/>
        <path class="cls-44" d="M160,219.8a5.81,5.81,0,0,0-.92,1.85,6.71,6.71,0,0,0-.22,2.5,6.83,6.83,0,0,0,.66,2.28,6.62,6.62,0,0,0,1.39,1.92"/>
        <g class="cls-43">
          <path class="cls-45" d="M167.52,219.54a6,6,0,0,0-1.23-1,5.28,5.28,0,0,0-2.56-.69,4.6,4.6,0,0,0-2.67.83,4.89,4.89,0,0,0-1.1,1.08"/>
          <path class="cls-45" d="M157.55,217.42a8,8,0,0,1,1.68-1.63,7.52,7.52,0,0,1,4.1-1.38,8.28,8.28,0,0,1,4.29,1.12,9.18,9.18,0,0,1,2,1.52"/>
        </g>
        <g class="cls-43">
          <path class="cls-46" d="M160.87,228.35a5.61,5.61,0,0,0,2.93,1.53,4.72,4.72,0,0,0,2.21-.14c.38.45.77.92,1.19,1.39s.94,1.05,1.4,1.53a7.4,7.4,0,0,1-2.82.93,7.74,7.74,0,0,1-2.82-.21,8.69,8.69,0,0,1-2.38-1.07,10.81,10.81,0,0,1-1.77-1.39"/>
          <path class="cls-46" d="M169.61,217.05a10.72,10.72,0,0,1,2.11,3,11.49,11.49,0,0,1,1.05,3.68h0a10.7,10.7,0,0,1,0,2.18,6.73,6.73,0,0,1-.33,1.46l-2.92-3.08a7.32,7.32,0,0,0-.31-1.84,7.22,7.22,0,0,0-1.71-2.87"/>
        </g>
        <path class="cls-47" d="M172.38,233.32a.26.26,0,0,1-.18-.09l-6.8-7.47a.62.62,0,0,1,0-.8l.53-.62a.54.54,0,0,1,.82,0l6.9,7.59c.59.65.93,1,1.07,1.19s0,.11,0,.11C174.23,233.27,172.88,233.32,172.38,233.32Z"/>
      </g>
    </g>
    <g id="Ebene_5" data-name="Ebene 5">
      <polygon class="cls-48" points="314.6 354.97 342.13 364.74 330.56 428.65 302.78 418.52 314.6 354.97"/>
      <polygon class="cls-49" points="314.6 354.97 330.97 350.38 355.26 361.2 342.13 364.74 314.6 354.97"/>
      <polygon class="cls-50" points="355.26 361.2 340.9 425.28 330.56 428.65 342.13 364.74 355.26 361.2"/>
      <polygon class="cls-51" points="338.21 353.77 324.3 358.71 323.4 363.03 331.86 366.12 333.68 361.8 347.28 357.48 338.21 353.77"/>
      <polygon class="cls-52" points="326.09 396.66 337.58 426.3 344.53 424.44 331.83 395.73 326.09 396.66"/>
      <polygon class="cls-52" points="321.16 415.34 340.78 440.13 346.87 436.25 326.37 412.71 321.16 415.34"/>
      <polygon class="cls-53" points="290.34 436.51 278.63 444.43 298.07 450.18 311.81 439.39 290.34 436.51"/>
      <polygon class="cls-54" points="287.02 443.25 296.21 445.64 302.04 441.5 292.35 439.91 287.02 443.25"/>
      <polygon class="cls-55" points="343.95 369.52 339.72 393.91 346.37 392.67 351.21 367.66 343.95 369.52"/>
      <polygon class="cls-50" points="316.09 365.72 336.91 372.24 334.9 380.02 314.33 374.25 316.09 365.72"/>
      <polygon class="cls-56" points="316.59 368.23 335.15 374.25 334.65 377.26 315.33 372.24 316.59 368.23"/>
    </g>
    <g id="Ebene_4" data-name="Ebene 4">
      <polygon class="cls-57" points="230.74 346.16 246.56 402.54 249.79 402.87 234.29 344.51 230.74 346.16"/>
      <polygon class="cls-58" points="212.66 349.32 234.46 403.6 237.71 403.57 216.44 348.22 212.66 349.32"/>
      <polygon class="cls-59" points="243.29 338.54 253.61 396.24 256.79 396.9 247.08 338.55 243.29 338.54"/>
      <polygon class="cls-60" points="271.46 390.57 264.72 353.54 290.07 347.49 297.16 389.79 271.46 390.57"/>
      <polygon class="cls-61" points="220.27 381.46 249.68 374.25 277.02 380.86 252.32 388.36 220.27 381.46"/>
      <polygon class="cls-62" points="220.27 381.46 225.86 420.49 254.68 429.5 252.32 388.36 220.27 381.46"/>
      <polygon class="cls-63" points="277.02 380.86 252.32 388.36 257.62 428.3 284.08 418.99 277.02 380.86"/>
      <path class="cls-64" d="M272.12,426.59c4.49,7.06,15.56,11.28,22.33,10.87s23.75-3.09,27.6-14.23-8.95-51.65-12.37-54.75-36.8,1.24-39.14,5.35S266,417.05,272.12,426.59Z"/>
      <path class="cls-65" d="M272.55,375s18.3,45.8,20,52-4.7,7.88-11.58,6.31-10.76-28.08-10.74-33S272.55,375,272.55,375Z"/>
      <polygon class="cls-66" points="278.97 379.6 282.86 390.26 317.22 396.77 313.6 385.1 278.97 379.6"/>
      <path class="cls-66" d="M284.38,394.13s34.29,5.19,33.32,5.25-3.69,3.2-14.73,2.55A32.34,32.34,0,0,1,284.38,394.13Z"/>
      <path class="cls-66" d="M282.4,377.41l29.41,4.82s-4.91-6.31-13-6.15A158.91,158.91,0,0,0,282.4,377.41Z"/>
      <polygon class="cls-65" points="293.62 418.35 296.29 425.13 319.82 418.42 318.74 411.21 293.62 418.35"/>
      <path class="cls-67" d="M264.72,353.54c2.75,3.8,30.71-.78,25.35-6.05S261.2,348.69,264.72,353.54Z"/>
      <path class="cls-68" d="M267.17,360a28,28,0,0,0,12.07.67A38,38,0,0,0,291.36,356l.53,4s-4.1,3.61-11.9,4.4-12.32-.65-12.32-.65Z"/>
    </g>
    <g id="Ebene_3" data-name="Ebene 3">
      <path class="cls-69" d="M387.2,387.07c-8.6,7.54-8,32.87-9.12,39.81s25.13,12,27.12,3c1.95-8.88,6.65-32,1.19-38.39s-2-23.63-2-23.63l-10.25-.73S395.79,379.54,387.2,387.07Z"/>
      <path class="cls-70" d="M391.91,367.28c-2.12,5,13.57,6.61,14,1.49S394,362.28,391.91,367.28Z"/>
      <path class="cls-71" d="M382.68,399.75l-.94,16.33s7.65,4.18,15.59,4.45,10.44-1.5,10.44-1.5l1-17a57.63,57.63,0,0,1-13.07,1.31A32.68,32.68,0,0,1,382.68,399.75Z"/>
      <path class="cls-69" d="M356.1,381c-8,8.16-5.5,33.38-6.1,40.38s26,10.11,27.27,1,4.23-32.46-1.7-38.38-3.73-23.41-3.73-23.41l-10.28,0S364.1,372.8,356.1,381Z"/>
      <path class="cls-70" d="M359.33,360.64c-1.9,5.09,13.84,6,14.09.89S361.22,355.56,359.33,360.64Z"/>
      <path class="cls-71" d="M352.55,394l.3,16.35s7.94,3.59,15.87,3.27,10.3-2.29,10.3-2.29l-.3-17a57.64,57.64,0,0,1-12.94,2.29A32.58,32.58,0,0,1,352.55,394Z"/>
      <polygon class="cls-72" points="197.09 429.35 243.4 441.45 240.37 404.57 194.72 391.88 197.09 429.35"/>
      <polygon class="cls-73" points="243.4 441.45 262.45 434.99 259.25 397.06 240.37 404.57 243.4 441.45"/>
      <polygon class="cls-74" points="194.72 391.88 240.37 404.57 259.25 397.06 210.69 387.08 194.72 391.88"/>
      <path class="cls-75" d="M252,411.67s-1.37,23.82,4.2,28.63,22.55,9.46,26.75.15-8.8-39-17.19-38.65S254.78,403.45,252,411.67Z"/>
      <polygon class="cls-76" points="302.29 448.58 327 455.98 329.13 432.05 305.69 426.39 302.29 448.58"/>
      <polygon class="cls-77" points="327 455.98 373.01 440.75 374.29 419.87 329.13 432.05 327 455.98"/>
      <polygon class="cls-78" points="305.37 426.39 353.09 412.9 373.97 419.87 328.81 432.05 305.37 426.39"/>
      <polygon class="cls-79" points="333.75 437.05 334.76 448.07 370.13 432.77 370.73 423.16 333.75 437.05"/>
      <polygon class="cls-80" points="321.67 424.91 330.49 427.91 357.54 420.71 348.72 417.1 321.67 424.91"/>
      <polygon class="cls-80" points="316.21 431.31 315.62 442.42 322.68 444.52 323.85 433.11 316.21 431.31"/>
      <polygon class="cls-81" points="201.16 401.18 202.25 412.02 237 422.54 235.44 409.89 201.16 401.18"/>
      <polygon class="cls-74" points="224.85 425.08 225.56 432.6 237.94 435.93 236.75 426.6 224.85 425.08"/>
      <path class="cls-82" d="M253.65,416.1l2.54,10.23a27.3,27.3,0,0,0,14.17,2.9c8.37-.49,10.65-4.69,10.65-4.69l-4.31-11.62a20.74,20.74,0,0,1-9,4.6C261.93,419,253.65,416.1,253.65,416.1Z"/>
      <path class="cls-83" d="M268.94,419.74c6.57-2.42,9.29,6.72,2.38,8.22S261,422.67,268.94,419.74Z"/>
      <polygon class="cls-84" points="229.14 397.56 227.2 390.3 257.23 374.14 258.52 381.07 229.14 397.56"/>
      <polygon class="cls-85" points="229.14 397.56 221.07 396.57 218.81 389.97 227.2 390.3 229.14 397.56"/>
      <polygon class="cls-86" points="227.2 390.3 257.23 374.14 249.8 372.82 218.81 389.97 227.2 390.3"/>
      <path class="cls-87" d="M385.64,404.55s6.74,3,11.59,3a28.69,28.69,0,0,0,8.58-1.21l-.32,4.31s-2.55,1.66-9.19,1.16a38.1,38.1,0,0,1-11-2.38Z"/>
      <path class="cls-87" d="M356.87,400.33s6.95,2.47,11.79,2.17a28.3,28.3,0,0,0,8.46-1.86V405s-2.42,1.85-9.07,1.85a37.84,37.84,0,0,1-11.18-1.55Z"/>
    </g>
    <g id="Ebene_2" data-name="Ebene 2">
      <line class="cls-28" x1="209.16" y1="353.29" x2="220.37" y2="440.93"/>
      <line class="cls-28" x1="242.44" y1="360.47" x2="250.15" y2="446.07"/>
      <line class="cls-28" x1="275.72" y1="370.1" x2="279.92" y2="452.95"/>
      <line class="cls-28" x1="314.25" y1="379.65" x2="308.99" y2="457.75"/>
      <polyline class="cls-22" points="429.14 359.85 341.39 386.4 175.36 344.89"/>
      <polyline class="cls-28" points="189.55 408.17 333.51 438.83 415.83 412.71"/>
      <polyline class="cls-28" points="183.94 380.27 337.37 412.88 421.08 388.14"/>
      <line class="cls-28" x1="364.69" y1="380.62" x2="352.78" y2="455.32"/>
      <line class="cls-28" x1="371.34" y1="448.04" x2="385.7" y2="373.99"/>
      <line class="cls-28" x1="393.58" y1="440.17" x2="408.3" y2="366.47"/>
      <path class="cls-21" d="M327.91,462.31l11.14-76.25a2.37,2.37,0,0,1,4.69.68L332.81,463a2.47,2.47,0,0,1-4.9-.7Z"/>
    </g>
  </g>
</svg>
