<svg id="Ebene_1" data-name="Ebene 1" xmlns="http://www.w3.org/2000/svg" width="340.63" height="524.72" viewBox="0 0 340.63 524.72">
  <defs>
    <style>
      .cls-1 {
        fill: #bfb58a;
      }

      .cls-2 {
        opacity: 0.59;
      }

      .cls-3 {
        fill: #9b9475;
      }

      .cls-4 {
        opacity: 0.69;
      }

      .cls-5 {
        opacity: 0.79;
      }

      .cls-6 {
        opacity: 0.45;
      }

      .cls-7 {
        fill: #494946;
      }

      .cls-8 {
        fill: #3c5968;
      }

      .cls-9 {
        fill: #2b4c57;
      }

      .cls-10 {
        fill: #3a4449;
      }

      .cls-11 {
        fill: #40606d;
      }

      .cls-12 {
        fill: #42626d;
      }

      .cls-13 {
        fill: #2f545e;
      }

      .cls-14 {
        fill: #b6e0ef;
      }

      .cls-15 {
        fill: #2483c5;
      }

      .cls-16 {
        opacity: 0.6;
      }

      .cls-17 {
        fill: #405e6b;
      }

      .cls-18 {
        opacity: 0.7;
      }

      .cls-19 {
        opacity: 0.3;
      }

      .cls-20 {
        fill: #516672;
      }

      .cls-21 {
        fill: #536872;
        opacity: 0.18;
      }

      .cls-22 {
        fill: #755946;
      }

      .cls-23 {
        fill: #f1b291;
      }

      .cls-24 {
        fill: none;
        stroke: #353e45;
        stroke-miterlimit: 10;
        stroke-width: 3px;
      }

      .cls-25 {
        fill: #a7755c;
      }

      .cls-26 {
        fill: #f7f5f5;
      }

      .cls-27 {
        fill: #684f3c;
      }

      .cls-28 {
        fill: #5b422a;
      }

      .cls-29 {
        fill: #1b6087;
      }

      .cls-30, .cls-35 {
        fill: #a77056;
      }

      .cls-31 {
        fill: #65262d;
        opacity: 0.9;
      }

      .cls-32 {
        fill: #915a46;
      }

      .cls-33 {
        opacity: 0.8;
      }

      .cls-34 {
        fill: #353e45;
      }

      .cls-35 {
        opacity: 0.22;
      }

      .cls-36 {
        fill: #456572;
      }

      .cls-37 {
        fill: #b2a983;
      }

      .cls-38 {
        opacity: 0.82;
      }

      .cls-39 {
        opacity: 0.77;
      }

      .cls-40 {
        opacity: 0.97;
      }

      .cls-41 {
        fill: #938c6d;
      }

      .cls-42 {
        opacity: 0.76;
      }

      .cls-43 {
        opacity: 0.55;
      }

      .cls-44 {
        opacity: 0.56;
      }

      .cls-45 {
        opacity: 0.84;
      }

      .cls-46 {
        opacity: 0.61;
      }
    </style>
  </defs>
  <path class="cls-1" d="M185.14,145.82c22.48-1.33,47.2,3,60.1,15.43s40.38,59.6,47.67,80.09,9.52,30.84,14.44,39.08,18.92,22.48,18.92,22.48a142.92,142.92,0,0,0-24.15,9.48c-13.83,6.78-19.88,21.59-51.89,28.32s-46.49-1.26-53.66-1.19-24.88,6.18-24.88,6.18l-.1-197Z"/>
  <g class="cls-2">
    <path class="cls-3" d="M272.83,332.69a132.06,132.06,0,0,0,12-11.59c1.83-2.08,3.67-4.13,5.32-6.33.84-1.1,1.67-2.19,2.47-3.31s1.6-2.27,2.23-3.39a37.61,37.61,0,0,0,3.21-7.39c.9-2.58,1.56-5.26,2.22-7.95,1.25-5.4,2.2-10.9,3.06-16.46a77.8,77.8,0,0,1-.75,16.9,48,48,0,0,1-5.15,16.41,67.61,67.61,0,0,1-11,13.15A62.94,62.94,0,0,1,272.83,332.69Z"/>
  </g>
  <g class="cls-4">
    <path class="cls-3" d="M210.28,341.83a28.23,28.23,0,0,1-9.28-2,52.23,52.23,0,0,1-8.53-4.09,66.67,66.67,0,0,1-7.77-5.32,48.78,48.78,0,0,1-6.88-6.45c2.83,1.42,5.53,2.95,8.2,4.51l8,4.67c2.65,1.55,5.28,3.1,8,4.56S207.37,340.57,210.28,341.83Z"/>
  </g>
  <g class="cls-5">
    <path class="cls-3" d="M185.2,202.7a36.19,36.19,0,0,1,9.81,6.41c1.51,1.26,2.87,2.68,4.25,4.06.69.69,1.31,1.45,2,2.17s1.29,1.46,1.92,2.21A90.52,90.52,0,0,1,210,227a70.05,70.05,0,0,1,5.55,10.27c-2.59-2.93-5-5.91-7.45-8.9l-7.27-8.91c-2.41-3-4.88-5.87-7.45-8.68A96.08,96.08,0,0,0,185.2,202.7Z"/>
  </g>
  <g class="cls-6">
    <path class="cls-3" d="M285.48,303.32a72.2,72.2,0,0,0,1.9-10.69c.39-3.58.68-7.17.89-10.77s.36-7.2.47-10.82.14-7.22-.1-10.9A36.57,36.57,0,0,1,291.08,271a69.48,69.48,0,0,1,.18,11.08,61.06,61.06,0,0,1-1.59,11A30.48,30.48,0,0,1,285.48,303.32Z"/>
  </g>
  <path class="cls-7" d="M242.91,243.63c.07,0,0-.42-.09-.68s-.17-.63-.29-.93a11.35,11.35,0,0,0-.87-1.83,10.12,10.12,0,0,0-2.58-3,12,12,0,0,0-7.87-2.49l-1.15,0h-.58l-.59.09c-.78.12-1.59.24-2.35.39s-1.37.37-2,.66l-.92.48-.46.23-.42.3A12.93,12.93,0,0,0,218,243.6a20.35,20.35,0,0,0-.88,8.5,13.32,13.32,0,0,0,.37,1.9c.1.25.2.51.28.77a6.36,6.36,0,0,0,.31.59l.06.14.14.18.28.37a5,5,0,0,0,.58.7l.3.33.34.29a4.69,4.69,0,0,0,.69.56,16.77,16.77,0,0,0,7.92,2.57c3.25.37,6.82.35,10.62.48a44.5,44.5,0,0,1,12.31,1.74,19.34,19.34,0,0,1,6.44,3.48c.48.43,1,.84,1.41,1.3s.86.95,1.25,1.44l1.08,1.55.83,1.5a25.25,25.25,0,0,1,2.94,13.12,20.77,20.77,0,0,1-.42,3.41,12.55,12.55,0,0,1-.43,1.68c-.17.56-.32,1.12-.52,1.66a22.37,22.37,0,0,1-3.5,6,26.16,26.16,0,0,1-10.8,7.6l-1.49.57-.75.29-.75.2-3,.82c-1.1.19-2.23.35-3.35.51-1.15,0-2.31,0-3.47,0a24.45,24.45,0,0,1-12.73-5.06,36,36,0,0,1-4.85-4.53c-.72-.82-1.41-1.66-2.08-2.54-.32-.46-.65-.89-1-1.37a17.35,17.35,0,0,1-1-1.6l10.83-5a5,5,0,0,0,.29.84c.12.34.29.68.44,1l.51,1,.58,1a20.64,20.64,0,0,0,2.75,3.49,13.37,13.37,0,0,0,7.18,3.83c.67.09,1.36.08,2.05.14l2.14-.2,2.35-.52.59-.14.55-.2,1.1-.4a15,15,0,0,0,6.92-5.14,13.32,13.32,0,0,0,1.81-3.64c.13-.68.34-1.33.43-2a14.46,14.46,0,0,0,.16-2.08,16.17,16.17,0,0,0-2-8.17l-.51-.91c-.19-.24-.36-.48-.53-.72l-.57-.63c-.2-.2-.43-.37-.63-.56a9.59,9.59,0,0,0-3.29-1.66,35.9,35.9,0,0,0-9.55-1.09c-3.57-.07-7.39,0-11.48-.47a33.09,33.09,0,0,1-6.37-1.27,21.77,21.77,0,0,1-6.4-3.22,12.74,12.74,0,0,1-1.45-1.19l-.69-.63-.63-.69a13.48,13.48,0,0,1-1.18-1.44l-.54-.74c-.09-.13-.18-.25-.26-.38l-.27-.47a17.72,17.72,0,0,1-2.25-7.24,25,25,0,0,1,2.18-13.17,22.57,22.57,0,0,1,9-10.16l.74-.46.78-.37,1.58-.7c1.07-.42,2.17-.7,3.26-1s2.07-.35,3.1-.55c.26,0,.51-.1.78-.13l.8-.06,1.61-.11a26.59,26.59,0,0,1,6.65.56,12.51,12.51,0,0,1,1.66.48c.55.19,1.12.32,1.65.56a21.73,21.73,0,0,1,3.15,1.61,24.48,24.48,0,0,1,2.88,2.08,29.49,29.49,0,0,1,2.48,2.52,25.47,25.47,0,0,1,2.11,2.84c.34.49.61,1,.92,1.55a13.38,13.38,0,0,1,.89,1.9Z"/>
  <polygon class="cls-7" points="220.86 223.66 244.7 313.08 237.92 314.81 216.08 224.88 220.86 223.66"/>
  <polygon class="cls-7" points="249.22 312.21 226.96 222.39 233.76 220.74 255.11 310.78 249.22 312.21"/>
  <path class="cls-8" d="M60.22,335.45l-.07,29s28.37,11.51,59.74,15,49.48.14,49.48.14l3.92-39.13Z"/>
  <path class="cls-9" d="M47.61,228.71q.64,10.35.88,20.68c.18,6.89.23,13.78.25,20.67s-.07,13.78-.21,20.68-.39,13.8-.8,20.69q-.69-10.35-.94-20.67c-.21-6.89-.25-13.78-.28-20.68s.07-13.79.24-20.69S47.18,235.6,47.61,228.71Z"/>
  <path class="cls-10" d="M189.51,477.35A49.64,49.64,0,0,1,196,488a30.56,30.56,0,0,1,2.1,9.1s-9.32,5.25-25.79,8a135.38,135.38,0,0,1-35.05,1.24s2.09-6.93,14.19-14.11c8.33-4.94,22.29-10.43,22.29-10.43"/>
  <path class="cls-10" d="M97.71,473.94s4.38,5.74,6.27,10.92a30.59,30.59,0,0,1,1.86,9.2s-8.65,3.7-25.42,5.66a194.59,194.59,0,0,1-36.49.78s2.33-6.83,14.8-13.47c8.59-4.57,22.89-9.44,22.89-9.44"/>
  <path class="cls-8" d="M60.46,364.47S52.67,399.76,54.88,423c2.65,27.09,12.84,58.13,12.84,58.13a89.6,89.6,0,0,0,17.66-1,117.54,117.54,0,0,0,16.8-4.33s-11.7-27.9-11.39-54.89C89,403,97.05,372.47,97.05,372.47"/>
  <path class="cls-8" d="M132,373.71s-.86,33.45,4.77,56.84c3.35,18.23,22.64,54.81,22.64,54.81A138.7,138.7,0,0,0,175.89,483a71.28,71.28,0,0,0,17.7-6.09S175.78,443.52,172.4,425c-5.45-27.22-.5-63.58-.5-63.58"/>
  <path class="cls-9" d="M124.37,379.62a127.5,127.5,0,0,1-13.68-.55c-4.55-.39-9.07-1-13.58-1.82-2.24-.45-4.5-.89-6.72-1.49s-4.42-1.25-6.57-2.05A75.84,75.84,0,0,1,71.34,368c4.32,1.48,8.64,2.84,13,4.06s8.72,2.24,13.18,3,8.91,1.54,13.39,2.27S119.87,378.82,124.37,379.62Z"/>
  <path class="cls-9" d="M95.4,381.58A20.66,20.66,0,0,1,89.9,383a28.6,28.6,0,0,1-5.63.19,24,24,0,0,1-5.6-1.07,18.85,18.85,0,0,1-5.13-2.48,53.66,53.66,0,0,1,5.58.16l5.35.4c1.77.12,3.59.25,5.4.45A44.28,44.28,0,0,1,95.4,381.58Z"/>
  <path class="cls-11" d="M49.8,194s27.26-13.61,67-13.8c40.69-.2,69.46,9.2,69.46,9.2s-7.59,79.78-5.65,112.73S186,360.35,186,360.35s-31.25,11.34-81,10c-39.53-1.06-58.36-7.61-58.36-7.61s.16-33.54,1.82-85.47c.78-24.32.15-65.69.15-65.69"/>
  <g>
    <polyline class="cls-11" points="131.05 319.54 133.89 334.12 176.27 330.98 174.34 318.46"/>
    <path class="cls-9" d="M131.05,319.54l3.9,14.38-1.14-.87c3.53-.33,7.06-.59,10.59-.84l10.61-.66c7.07-.35,14.15-.77,21.23-1.06l-.46.57-.74-6.3-.7-6.29,1.24,6.21,1.18,6.23.1.51-.55.06c-7.05.75-14.1,1.38-21.16,2.07l-10.58.91c-3.53.28-7.06.54-10.6.74l-1,.06-.11-.93Z"/>
  </g>
  <g>
    <path class="cls-12" d="M98,302.69s18.53-17.16,28-27.89,18.08-26.66,18.08-26.66l-14.68-8.69,17.41-1.79s8.42-35.22,6.18-48.59c-1.28-7.65-9.6-14.58-9.6-14.58l-60.45,3s-7.45,11.08-9.42,15-7.43,38.4-7.43,38.4l13.16,5-12.69,4.7s3.86,18.27,8.51,30.21,16.82,30.84,16.82,30.84"/>
    <path class="cls-13" d="M97.57,302.26q6.51-6.15,12.88-12.48c4.23-4.22,8.43-8.48,12.45-12.88,2-2.2,3.94-4.44,5.75-6.79s3.53-4.78,5.19-7.25c3.3-4.94,6.39-10.06,9.22-15.26h0l.42,1.51-14.62-8.79h0l-2.6-1.56,3-.33,17.41-1.91-1,.87c1.26-5.4,2.39-10.86,3.39-16.32s1.89-11,2.49-16.47c.3-2.75.54-5.5.61-8.25a33.59,33.59,0,0,0-.53-8,20.45,20.45,0,0,0-3.54-7,37.66,37.66,0,0,0-5.47-5.94l.78.26L83,178.6h0l.88-.5c-2.65,3.9-5.29,7.84-7.76,11.84-.6,1-1.23,2-1.73,3a22.74,22.74,0,0,0-1,3.19c-.58,2.27-1.07,4.58-1.55,6.89-1.88,9.27-3.52,18.6-5.1,27.94h0l-.43-.74L79.59,235h0l2.53.9-2.54,1-12.64,4.83h0l.71-1.3c1.13,5.4,2.42,10.79,3.85,16.12a135.88,135.88,0,0,0,5.07,15.72A154.61,154.61,0,0,0,83.94,287q4,7.26,8.44,14.3l-1,.66q-4.53-7-8.71-14.23A154.54,154.54,0,0,1,75,272.88C73.83,270.3,72.9,267.67,72,265s-1.69-5.32-2.45-8c-1.53-5.36-2.9-10.74-4.13-16.19l-.22-1,.94-.33h0L78.88,235v1.88h0l-13-5.34-.51-.21.08-.53h0c1.44-9.38,2.92-18.74,4.66-28.08.45-2.33.9-4.66,1.45-7a23,23,0,0,1,1.08-3.6c.55-1.13,1.15-2.15,1.76-3.19,2.45-4.1,5-8.08,7.63-12l.31-.48.57,0h0l60.44-3,.46,0,.32.28A39.93,39.93,0,0,1,150,180a23,23,0,0,1,3.91,7.83,35.81,35.81,0,0,1,.6,8.64c-.08,2.83-.32,5.64-.62,8.43-.62,5.59-1.51,11.12-2.52,16.63s-2.14,11-3.42,16.44l-.18.79-.81.08-17.43,1.67.42-1.89h0l14.74,8.59,1,.55-.53,1h0c-3,5.27-6.14,10.35-9.57,15.31q-2.56,3.72-5.37,7.27c-1.87,2.37-3.89,4.63-6,6.82-4.12,4.37-8.4,8.57-12.71,12.74s-8.68,8.25-13.09,12.3Z"/>
  </g>
  <path class="cls-14" d="M95.69,294.5s17.83-21,30-55c9.32-26,13.06-53.78,13.06-53.78l-55.3,2.43s-4.3,26.39-2.39,49A185.92,185.92,0,0,0,95.69,294.5Z"/>
  <path class="cls-15" d="M100.87,194l-7.68,13.15s2.17,2.18,7.18,2.14a21.32,21.32,0,0,0,8.56-1.81L102.57,194Z"/>
  <g class="cls-16">
    <path class="cls-17" d="M82.11,201.44a25.23,25.23,0,0,0,4.12,3.82c1.53,1.18,3.16,2.3,4.8,3.33h0l-1.4.4,10.65-20.1,1.42-2.68,1.24,2.75,9.76,21.58-1-.43h0c2.29-.79,4.58-1.7,6.83-2.67s4.46-2,6.61-3.15a42.67,42.67,0,0,0,6.09-3.81,32.33,32.33,0,0,0,5.15-4.78l2.32,1.89a34.05,34.05,0,0,1-5.89,5.07,42.89,42.89,0,0,1-6.61,3.76c-2.27,1.07-4.58,2-6.91,2.9s-4.69,1.69-7.1,2.39h0l-.66.22-.34-.66-11-21,2.66.07L91.43,210l-.53.9-.87-.5h0c-1.82-.95-3.55-1.95-5.26-3.07a27.87,27.87,0,0,1-4.92-3.91Z"/>
  </g>
  <path class="cls-15" d="M97.55,209.57s-6.13,26.39-7.11,38-1,31.35-1,31.35l6.07,15.58L107,278.8l-.46-32.89-3.08-36.53Z"/>
  <g>
    <polyline class="cls-11" points="68.88 314.13 65.96 328.88 43.44 326.04 47.5 313.21"/>
    <path class="cls-9" d="M68.88,314.13l-1.82,15-.13,1L65.82,330c-1.88-.21-3.75-.45-5.63-.71l-5.61-.85-11.21-1.81-.72-.11.23-.65q2.28-6.33,4.62-12.65-1.71,6.51-3.5,13l-.48-.76,11.31,1,5.64.58q2.82.31,5.63.71l-1.23.89Z"/>
  </g>
  <g class="cls-18">
    <path class="cls-11" d="M95.19,295.63s.26,30.56,1.06,44.79,2.39,28.9,2.39,28.9"/>
    <path class="cls-9" d="M95.69,295.62c.25,12.3.56,24.6,1.09,36.88.26,6.13.71,12.24,1.24,18.37s1.16,12.23,1.87,18.32l-2.49.27c-.58-6.15-1.08-12.28-1.49-18.43s-.74-12.31-.88-18.47c-.28-12.32-.34-24.62-.34-36.93Z"/>
  </g>
  <g class="cls-19">
    <polygon class="cls-20" points="86.74 219.58 84.95 245.26 84.89 246.22 83.96 246.15 79.08 245.78 79.09 244.45 83.98 244.18 82.99 245.07 86.01 219.51 86.74 219.58"/>
  </g>
  <polygon class="cls-21" points="62.51 216 60.14 216.13 60.12 218.63 62.14 218.42 62.51 216"/>
  <path class="cls-22" d="M61.21,51.15S47.15,71.68,47.8,85.53c.48,10.1,5.39,26.53,5.39,26.53L71.78,52.48Z"/>
  <path class="cls-23" d="M149,160.24s0,14.94-12.47,23.83c-17.43,12.48-69,14.69-77.22,7.92-7.14-5.89-10.78-48.74-7.55-86.56,2.54-29.74,14.73-57.17,14.73-57.17S94.07,38.73,118,40A84.56,84.56,0,0,1,153,50l-2.62,94.79"/>
  <path class="cls-22" d="M141.57,51.1s-4.78,16-3.77,29c.88,11.25,5.52,37.41,5.52,37.41a104.06,104.06,0,0,0-5.48,13.32c-2.7,9.06.42,15.4.42,15.4l12.15-18.45-2.32,38.68s7.26-1.68,9.88-11.23,11.4-47.25,11.77-61c.2-7.31-1.21-43-5.77-49a11.62,11.62,0,0,0-7.85-4.57,16.73,16.73,0,0,0-13.86-13c-17.69-3.23-56,1-70.2,6.27-10.88,4-24.42,21.7-24.42,21.7S63,57,70.45,55,97.39,44.79,97.39,44.79s-11.55,7.45-14.88,10-9.2,9.35-9.2,9.35,14.54-1.84,19.31-3.38S116,48.89,116,48.89s-7.11,5.46-10.39,8.28a59.57,59.57,0,0,0-6.2,6.32s13.66.33,23.44-2.77S141.57,51.1,141.57,51.1Z"/>
  <line class="cls-24" x1="138.05" y1="122.44" x2="156.26" y2="125.76"/>
  <path class="cls-23" d="M143.06,139.14s4.9-15.25,15.1-17.41c14.42-3,12.48,28.11,3.21,34.24-8.13,5.37-14,2-14,2"/>
  <path class="cls-25" d="M147.63,146.52A18.64,18.64,0,0,1,152.49,134a12.47,12.47,0,0,1,2.86-2.29,11.69,11.69,0,0,1,1.66-.83,11.12,11.12,0,0,1,1.82-.5c2.45-.46,5.32.19,6.75,2.19a11.83,11.83,0,0,0-5.77,1.17,16,16,0,0,0-2.37,1.35,14.15,14.15,0,0,0-2.2,1.69,31.92,31.92,0,0,0-3.9,4.49C150.1,142.9,148.9,144.66,147.63,146.52Z"/>
  <path class="cls-26" d="M130.76,118.22c.1,7.83-5.52,13.57-13.73,13.71a14,14,0,0,1-.38-27.9A14.3,14.3,0,0,1,130.76,118.22Z"/>
  <path class="cls-26" d="M78.26,120.05c-.41,7.7-4.5,13.59-12.14,13.68-7.16.08-12.55-6.1-13-13.81-.42-8.17,5.4-13.75,12.57-13.74S78.65,112.89,78.26,120.05Z"/>
  <path class="cls-27" d="M97.43,95.89s10.58-2,19.87.17a42.54,42.54,0,0,1,15.75,7.6l-.39-4.16s-3.27-7.4-15-9.9c-10.09-2.17-19.61,1.45-19.61,1.45Z"/>
  <path class="cls-28" d="M105.65,109.07a10,10,0,0,1,5.55-5.13,13.75,13.75,0,0,1,7.79-.62,15.67,15.67,0,0,1,3.75,1.22,14.29,14.29,0,0,1,3.26,2.21,11.68,11.68,0,0,1,3.74,6.55,20.13,20.13,0,0,0-5.18-4.68,16.87,16.87,0,0,0-6.13-2.35,16.56,16.56,0,0,0-6.54-.09A14.76,14.76,0,0,0,105.65,109.07Z"/>
  <path class="cls-28" d="M53.5,115.3a8.61,8.61,0,0,1,2.83-6.36,13.23,13.23,0,0,1,6.36-3.3,11.88,11.88,0,0,1,7.19.34A9.42,9.42,0,0,1,75,110.64a12.84,12.84,0,0,0-5.7-2.82,13.27,13.27,0,0,0-6,.33,17.71,17.71,0,0,0-5.62,2.41A12.65,12.65,0,0,0,53.5,115.3Z"/>
  <path class="cls-27" d="M78,97.33A33.27,33.27,0,0,0,64,98a35.59,35.59,0,0,0-13.36,6.87l.31-3.72s3.61-6.58,10.8-8.67a26.24,26.24,0,0,1,15.63.34Z"/>
  <ellipse class="cls-29" cx="116.49" cy="119.23" rx="5.79" ry="7.42" transform="translate(-13.03 14.3) rotate(-6.65)"/>
  <ellipse class="cls-29" cx="65.96" cy="120.27" rx="5.31" ry="7.21" transform="translate(-11.5 7.07) rotate(-5.64)"/>
  <path class="cls-24" d="M38,117s5.8,20.71,7,22,31.82.44,31.82.44"/>
  <g>
    <path class="cls-23" d="M83.12,98.34S77,119.12,74.69,131.83s-1.51,23.08.6,24.6,8.47,2.35,15.33,1.24S100.73,154,100.73,154"/>
    <path class="cls-30" d="M83.12,98.34l-4.25,21.11c-1.38,7-2.77,14-3.14,21-.1,1.74-.14,3.49-.11,5.21a40.14,40.14,0,0,0,.33,5.08,22.37,22.37,0,0,0,.43,2.35c.1.33.19.72.3,1s.24.48.21.46-.21-.14,0-.06a1.64,1.64,0,0,0,.3.15,5.37,5.37,0,0,0,.92.35,16,16,0,0,0,2.26.5,32.36,32.36,0,0,0,5,.36,37.38,37.38,0,0,0,5.07-.28c3.38-.41,6.63-.79,10.38-1.52a11.56,11.56,0,0,1-4.3,3.83,19.73,19.73,0,0,1-5.38,1.95,36,36,0,0,1-11.42.54,18.79,18.79,0,0,1-3-.61,10.08,10.08,0,0,1-1.6-.58,5.92,5.92,0,0,1-.87-.48,4.55,4.55,0,0,1-1.08-.93,6.28,6.28,0,0,1-1-1.9,13.07,13.07,0,0,1-.49-1.6,24.57,24.57,0,0,1-.43-3,55.62,55.62,0,0,1,.29-11.2,89.05,89.05,0,0,1,1.92-10.82c.81-3.54,1.81-7,2.81-10.47C78.21,111.87,80.52,105.06,83.12,98.34Z"/>
  </g>
  <path class="cls-31" d="M85.7,169.36c3.57-1.33,10.8-.05,10.61,3s-6.75,4.76-10.11,1.09A3.59,3.59,0,0,1,85.7,169.36Z"/>
  <path class="cls-32" d="M82.25,170.3a9.46,9.46,0,0,1,3.15-1.94,12.09,12.09,0,0,1,3.63-.79,10.72,10.72,0,0,1,3.76.48,10,10,0,0,1,3.35,1.88,3.77,3.77,0,0,1,1.33,1.93,2.31,2.31,0,0,1-.16,1.47,3,3,0,0,1-.77,1,7,7,0,0,1-3.66,1.47,9.53,9.53,0,0,1-3.72-.2,5.3,5.3,0,0,1-1.72-.8,2.85,2.85,0,0,1-1.11-1.5l.19-.09a3.72,3.72,0,0,0,2.84,1.29,10.23,10.23,0,0,0,3.21-.32,6.29,6.29,0,0,0,2.66-1.27,1,1,0,0,0,.26-.38.4.4,0,0,0,0-.24,1.84,1.84,0,0,0-.69-.83,8.71,8.71,0,0,0-5.75-2.13A11.45,11.45,0,0,0,82.86,171Z"/>
  <g class="cls-33">
    <path class="cls-30" d="M82.51,180.75a33.16,33.16,0,0,0,4.4,1.54,19.82,19.82,0,0,0,4.25.69,20.13,20.13,0,0,0,4.28-.28,44.78,44.78,0,0,0,4.56-1.06,9.36,9.36,0,0,1-3.91,3.12,11,11,0,0,1-10-.48A9.09,9.09,0,0,1,82.51,180.75Z"/>
  </g>
  <path class="cls-30" d="M148.29,158a27.88,27.88,0,0,1,.08,6.71,31.18,31.18,0,0,1-1.36,6.61A29.61,29.61,0,0,1,140.09,183a33.86,33.86,0,0,1-11.62,7.15,76.62,76.62,0,0,1-13,3.71c-2.21.45-4.42.83-6.63,1.16s-4.45.58-6.67.81c-4.46.45-8.88.83-13.37,1.06a76.45,76.45,0,0,1-13.45-.6,74.63,74.63,0,0,1-13.09-2.91A128.54,128.54,0,0,0,75.48,195a100.6,100.6,0,0,0,13.22.14A234,234,0,0,0,115,191.7a84.08,84.08,0,0,0,12.69-3.49,33.85,33.85,0,0,0,11.15-6.47A30.11,30.11,0,0,0,146,171,34.31,34.31,0,0,0,148.29,158Z"/>
  <path class="cls-34" d="M36.89,115.92l25.67-1c8.56-.31,17.12-.68,25.68-.94q25.71-.77,51.42-.76l0,4q-25.62-.09-51.28.64c-8.55.24-17.1.59-25.65.88l-25.65.92Z"/>
  <path class="cls-24" d="M87.78,116.36s4.13,19.8,6.46,21.62,34.8,1.14,37.82.14,6.38-24,6.38-24"/>
  <polygon class="cls-34" points="74.9 122.51 88.44 121.91 88.5 124.46 74.94 124.51 74.9 122.51"/>
  <path class="cls-35" d="M111.37,192.4S112,187.62,119,181c13.71-13.07,21.34-4,21.34-4l-8.37,11.51Z"/>
  <path class="cls-36" d="M51.07,193.35l-2.63,1.7S15,256.16,33.83,287.59s72.65-12.9,72.65-12.9a107.33,107.33,0,0,1-10-12.66c-4-6.26-8.82-15.21-8.82-15.21s-23.44,15.74-30.22,13-4.05-46.23-4.05-46.23S51.73,202.06,51.07,193.35Z"/>
  <path class="cls-13" d="M107.29,275.58c-2.11,1.92-4.29,3.63-6.53,5.31s-4.54,3.25-6.91,4.74A101.26,101.26,0,0,1,79,293.46c-2.58,1.08-5.22,2.05-7.89,2.89a76.79,76.79,0,0,1-8.18,2,49.12,49.12,0,0,1-8.39.67,37.25,37.25,0,0,1-8.3-1.09c2.79,0,5.53-.08,8.24-.32a80.44,80.44,0,0,0,8.06-1.27,76.25,76.25,0,0,0,7.87-2.15c2.58-.88,5.11-1.89,7.6-3a118.3,118.3,0,0,0,14.39-7.8c2.3-1.48,4.57-3,6.79-4.6s4.41-3.28,6.46-5Z"/>
  <path class="cls-37" d="M114.91,206.53s-5.52,6.81-7.37,12.17c-3.39,9.81-2.54,16.55-2.54,16.55s-4,23-5,27.41S85.58,287.51,89.43,295.2s12.68-3.4,12.68-3.4,2.43,17.11,11.93,15.1,3.38-15.53,3.38-15.53,4.75,9.25,13.62,6.06,5.13-6.41,5.16-8.77,4.61-4.4-.84-7.55-14.07-16.45-14.84-18.46,4.25-24.43,4.25-24.43,3.12-1.81,7-8.22S114.91,206.53,114.91,206.53Z"/>
  <path class="cls-1" d="M147.32,210.28S151.57,205,163.51,200,199,194.59,199,194.59l-13.82-48.77s-9.43-.06-26,8.16c-14.32,7.08-27.55,34.21-27.55,34.21Z"/>
  <g class="cls-38">
    <path class="cls-3" d="M135.22,196.92a76,76,0,0,1,10.7-7.87,90.42,90.42,0,0,1,11.84-6.16,86.6,86.6,0,0,1,12.67-4.38c1.08-.32,2.19-.5,3.28-.75l1.65-.35c.55-.1,1.13-.18,1.69-.27a42.27,42.27,0,0,1,6.82-.41c9.1.22,17.86,2.55,26.19,5.62a126.67,126.67,0,0,1,23.79,11.79,221.37,221.37,0,0,0-24.55-9.57,125.05,125.05,0,0,0-12.64-3.32,68.29,68.29,0,0,0-12.84-1.52,39.76,39.76,0,0,0-6.37.31c-.52.08-1,.14-1.57.23l-1.59.33c-1.06.23-2.13.4-3.18.66a101.84,101.84,0,0,0-12.48,3.79A119.54,119.54,0,0,0,135.22,196.92Z"/>
  </g>
  <g class="cls-39">
    <path class="cls-3" d="M135.93,209.15a32.82,32.82,0,0,1,6.54-8.2,39.23,39.23,0,0,1,8.64-6.14,43.75,43.75,0,0,1,9.89-3.65,35.8,35.8,0,0,1,10.42-1.06L162,194.15q-4.65,2-9.05,4.21t-8.53,5C141.6,205.23,138.83,207.17,135.93,209.15Z"/>
  </g>
  <g class="cls-4">
    <path class="cls-3" d="M129.08,196.24a78.16,78.16,0,0,1,8.61-13.86,66.21,66.21,0,0,1,11.48-11.83,70.27,70.27,0,0,1,7-4.5c2.41-1.31,4.84-2.58,7.36-3.65a76.09,76.09,0,0,1,15.54-5c-5,2.23-9.79,4.58-14.52,7.1-2.34,1.29-4.68,2.58-6.94,4a76,76,0,0,0-6.56,4.43,65.06,65.06,0,0,0-6,5.2c-1,.89-1.89,1.87-2.83,2.81s-1.84,1.94-2.73,2.94C135.89,187.84,132.47,192,129.08,196.24Z"/>
  </g>
  <g class="cls-5">
    <path class="cls-3" d="M117.8,213.42c-.67,2.38-1.4,4.69-2.11,7s-1.39,4.63-2.06,7l-2.09,7c-.71,2.33-1.44,4.65-2.29,7A44.9,44.9,0,0,1,110,234a67.84,67.84,0,0,1,1.69-7.17,61.73,61.73,0,0,1,2.52-6.93A37.37,37.37,0,0,1,117.8,213.42Z"/>
  </g>
  <g class="cls-40">
    <path class="cls-3" d="M115.61,243.92a29.33,29.33,0,0,1,1-6.1,42.88,42.88,0,0,1,2-5.79,28,28,0,0,1,1.37-2.81c.52-.91,1-1.72,1.57-2.58a48.12,48.12,0,0,1,3.55-5,25.27,25.27,0,0,1-1.43,6c-.33,1-.76,1.94-1.15,2.83l-1.15,2.7c-.78,1.83-1.6,3.66-2.53,5.46A37.82,37.82,0,0,1,115.61,243.92Z"/>
  </g>
  <path class="cls-3" d="M119.56,242.91a17.76,17.76,0,0,1,1.18-3.45,27.71,27.71,0,0,1,1.65-3.15,29.53,29.53,0,0,1,2-2.94,17.74,17.74,0,0,1,2.51-2.63,17.09,17.09,0,0,1-1.17,3.45,26.25,26.25,0,0,1-1.66,3.15,26.73,26.73,0,0,1-2,2.93A18.42,18.42,0,0,1,119.56,242.91Z"/>
  <g class="cls-40">
    <path class="cls-41" d="M104.93,263.57c0,2.36-.28,4.61-.51,6.85s-.56,4.45-.88,6.66-.65,4.41-1,6.62-.71,4.43-1.12,6.74a22.54,22.54,0,0,1-1.23-6.87,38,38,0,0,1,.37-6.91,40.9,40.9,0,0,1,1.55-6.74A30.65,30.65,0,0,1,104.93,263.57Z"/>
  </g>
  <g class="cls-16">
    <path class="cls-41" d="M117,289.5a28.86,28.86,0,0,1-3.13-6.07,40.94,40.94,0,0,1-1.92-6.49,43.2,43.2,0,0,1-.93-6.7,29,29,0,0,1,.31-6.82,64.68,64.68,0,0,1,2,6.45c.56,2.15,1.07,4.29,1.53,6.44s.87,4.31,1.25,6.49S116.87,287.18,117,289.5Z"/>
  </g>
  <g class="cls-40">
    <path class="cls-41" d="M136.2,288.66a38.3,38.3,0,0,1-5.73-5.06,58.31,58.31,0,0,1-4.82-5.93,65.31,65.31,0,0,1-4-6.47,43.59,43.59,0,0,1-3.12-7c1.55,2,3,4.09,4.45,6.15l4.33,6.14c1.42,2.06,2.92,4.05,4.39,6.08Z"/>
  </g>
  <path class="cls-23" d="M138.44,233.94c-7.69-3.95-19.71-9.67-24.75-21.3-3.55-8.2-.69-16.37,2.6-19.9a20.27,20.27,0,0,1,7.29-4.94s1.39-7,4.74-9.66,6.14-2.11,6.14-2.11,1.49,16,5.61,23.39,9.74,7.66,10.83,7.58,10-5.69,10-5.69.23,6.56-.62,9.9-2.14,7.83-2.58,9.23.85,4,.85,4Z"/>
  <path class="cls-36" d="M186.3,189.35c2.18.56,9.49,10.41,15.59,29.39C207,234.69,216,282.68,201,293.53c-37.52,27.11-69.64-59.32-69.64-59.32s5.34-1.77,14.6-6c6.82-3.14,14.89-9.35,14.89-9.35s7.72,14.17,10.47,18.92c4.09,7.08,7.5,12.3,7.5,12.3a157.08,157.08,0,0,0-5.82-19C170,223.59,181.66,188.16,186.3,189.35Z"/>
  <path class="cls-1" d="M171.53,197.49s8.88-2,14.62-2.2,10.63-.53,10.63-.53-1.32-10.3-13.49-8.29S171.53,197.49,171.53,197.49Z"/>
  <g class="cls-42">
    <path class="cls-30" d="M123.89,184.2c.61,1.94,1.06,3.83,1.68,5.68s1.23,3.67,1.93,5.47A110,110,0,0,0,132.38,206a20,20,0,0,1-4-4.55,28,28,0,0,1-2.79-5.38,27.34,27.34,0,0,1-1.58-5.85A21.76,21.76,0,0,1,123.89,184.2Z"/>
  </g>
  <g class="cls-42">
    <path class="cls-30" d="M115.35,192.79c.33.9.58,1.81.83,2.7s.54,1.77.82,2.64c.59,1.74,1.16,3.45,1.9,5.1a38,38,0,0,0,2.48,4.78,24.12,24.12,0,0,0,3.39,4.32,11.43,11.43,0,0,1-4.64-3.39,18.86,18.86,0,0,1-3.06-4.92,22.51,22.51,0,0,1-1.58-5.53c-.16-.94-.2-1.9-.27-2.85S115.25,193.74,115.35,192.79Z"/>
  </g>
  <g class="cls-43">
    <path class="cls-30" d="M134.94,180.56c.9,3.26,1.77,6.5,2.81,9.66a43.83,43.83,0,0,0,1.75,4.61,23.52,23.52,0,0,0,1.1,2.12c.42.67.89,1.38,1.37,2a24.73,24.73,0,0,0,3.12,3.7,11.2,11.2,0,0,0,3.85,2.58,7.06,7.06,0,0,0,2.23.48,5.62,5.62,0,0,0,2.25-.32,12.31,12.31,0,0,0,4.16-2.6,10.22,10.22,0,0,1-3.76,3.53,6.67,6.67,0,0,1-2.64.73,8.37,8.37,0,0,1-2.73-.31,12,12,0,0,1-4.65-2.7,24.73,24.73,0,0,1-3.46-3.93c-.5-.71-1-1.42-1.41-2.18a18.11,18.11,0,0,1-1.16-2.39,32.58,32.58,0,0,1-1.52-4.93A49.11,49.11,0,0,1,134.94,180.56Z"/>
  </g>
  <path class="cls-3" d="M153.77,204.77a31,31,0,0,1,6.84-5,41.94,41.94,0,0,1,7.86-3.35c1.35-.45,2.76-.8,4.13-1.12l4.07-.95a64.4,64.4,0,0,1,8.42-1.56A34.49,34.49,0,0,1,198,194.91a19.13,19.13,0,0,1,2,.89l1,.49.94.55a47.1,47.1,0,0,1,12.67,11.24,75.73,75.73,0,0,0-13.78-9.17l-.91-.44-.93-.38a19.34,19.34,0,0,0-1.87-.71,26.84,26.84,0,0,0-3.88-.94,28.16,28.16,0,0,0-7.91-.65,73.75,73.75,0,0,0-8.07,1.34l-4.14.75c-1.37.26-2.69.48-4,.8A52.33,52.33,0,0,0,153.77,204.77Z"/>
  <path class="cls-13" d="M161.63,218.42,169,231.1c2.5,4.19,5,8.38,7.63,12.5s5.3,8.2,8.09,12.2,5.69,7.95,8.84,11.72a91.09,91.09,0,0,1-10.13-10.74c-3.13-3.81-6-7.79-8.81-11.87s-5.35-8.27-7.79-12.55-4.69-8.66-6.78-13.11Z"/>
  <g class="cls-44">
    <path class="cls-3" d="M175.88,152a76.17,76.17,0,0,1,8.92-2c3-.52,6-.9,9.08-1.13,1.53-.08,3.06-.17,4.62-.12a26.4,26.4,0,0,1,4.64.58,29.56,29.56,0,0,1,8.65,3.12,67.11,67.11,0,0,0-8.89-1.58,34.67,34.67,0,0,0-4.41-.23c-1.48,0-3,.11-4.47.22-3,.19-6,.48-9,.69S178.94,151.93,175.88,152Z"/>
  </g>
  <g class="cls-45">
    <path class="cls-13" d="M184.07,256.14a15,15,0,0,1,4.76-.44,17.13,17.13,0,0,1,4.76.91,16.24,16.24,0,0,1,7.47,5.94,77.17,77.17,0,0,0-8.15-4.06c-1.36-.48-2.84-.88-4.3-1.25Z"/>
  </g>
  <g class="cls-45">
    <path class="cls-13" d="M181,252.17a9.17,9.17,0,0,1,3.49-2.3,12.34,12.34,0,0,1,4.13-.92,11.67,11.67,0,0,1,2.14.12,16.05,16.05,0,0,1,2,.42,8.48,8.48,0,0,1,3.73,1.86,34.25,34.25,0,0,0-4-.33c-1.32-.05-2.62-.13-3.84-.07a31.15,31.15,0,0,0-3.79.42C183.65,251.6,182.35,251.83,181,252.17Z"/>
  </g>
  <path class="cls-23" d="M89.54,253.24a25,25,0,0,1,6-21.92c3.78-4.27,10.11-3.47,10.11-3.47s-1.51,5.62-.06,7.61c1.86,2.56,12.69,3.21,17.41,2.2,2.69-.57,6.61-3.88,6.61-3.88a12.77,12.77,0,0,1,2.64,6.82c.28,4.64-4,7.4-4,7.4s1.13,5.85-4.58,13.05c-6.2,7.81-18.09,8.15-25,6.32C97,266.93,91.05,260.71,89.54,253.24Z"/>
  <path class="cls-13" d="M87.67,246.82a113.63,113.63,0,0,1-14.91,10,48.78,48.78,0,0,1-8.33,3.79,16.83,16.83,0,0,1-4.77.93,7.53,7.53,0,0,1-2.74-.4,8.76,8.76,0,0,1-.85-.47,6.63,6.63,0,0,1-.61-.57,3.47,3.47,0,0,1-.47-.59,5.82,5.82,0,0,1-.38-.59,18,18,0,0,1-1.54-4.64,44.74,44.74,0,0,1-.71-4.55c-.29-3-.46-6-.45-9a124.6,124.6,0,0,1,1.14-17.91c.42,6,.74,11.91,1.2,17.81.27,3,.49,5.89.93,8.78.21,1.44.43,2.88.75,4.27a15.42,15.42,0,0,0,1.3,3.8,2.43,2.43,0,0,0,.74.92,4.56,4.56,0,0,0,1.65.24,16.19,16.19,0,0,0,4-.7,59.92,59.92,0,0,0,8.11-3.17C77.06,252.3,82.3,249.46,87.67,246.82Z"/>
  <path class="cls-13" d="M131.34,234.21c2.82,6.32,6,12.43,9.25,18.46,1.68,3,3.34,6,5.14,8.91s3.57,5.84,5.49,8.66,3.86,5.64,5.95,8.33,4.27,5.3,6.57,7.8c4.66,4.92,9.85,9.47,16.28,12.12a30.14,30.14,0,0,1-9.64-4,52.41,52.41,0,0,1-8.29-6.46,82.4,82.4,0,0,1-7.15-7.69c-2.21-2.71-4.25-5.55-6.21-8.43a139.26,139.26,0,0,1-10.21-18.18A105.81,105.81,0,0,1,131.34,234.21Z"/>
  <path class="cls-13" d="M170.89,224.12c2.55,6.88,4.92,13.83,6.91,21l-2.94.59C173.88,238.48,172.48,231.27,170.89,224.12Z"/>
  <g class="cls-42">
    <path class="cls-30" d="M128.26,248a14.41,14.41,0,0,1-4.77,2.41,19.28,19.28,0,0,1-5.32.82,22.65,22.65,0,0,1-5.33-.55,16.5,16.5,0,0,1-5-1.9l5.19.36c1.7.09,3.39.11,5.07.09a44.73,44.73,0,0,0,5-.34C124.85,248.71,126.49,248.32,128.26,248Z"/>
  </g>
  <g class="cls-46">
    <path class="cls-30" d="M125.45,258.85a17.16,17.16,0,0,1-4.76,2,21.28,21.28,0,0,1-5.15.74,20.53,20.53,0,0,1-5.18-.52,14.75,14.75,0,0,1-4.81-1.92,82.12,82.12,0,0,0,10,.44c1.63-.05,3.27-.1,4.91-.27S123.71,259,125.45,258.85Z"/>
  </g>
  <g class="cls-43">
    <path class="cls-30" d="M105.62,227.85a25.48,25.48,0,0,0-.3,4.14c0,1.31.26,2.76,1.09,3.19a13.27,13.27,0,0,0,3.65,1.21,38.26,38.26,0,0,0,4,.65,39.19,39.19,0,0,0,4,.3,15.63,15.63,0,0,0,3.94-.32,27.77,27.77,0,0,0,7.51-3.24,17.71,17.71,0,0,1-7.09,4.74,20.5,20.5,0,0,1-8.65.5,34.24,34.24,0,0,1-4.23-.8,12.08,12.08,0,0,1-4.12-1.79L105,236c-.12-.2-.26-.39-.36-.59s-.16-.4-.23-.6l-.12-.6a8.85,8.85,0,0,1,.06-2.25A15.69,15.69,0,0,1,105.62,227.85Z"/>
  </g>
</svg>
