<svg xmlns="http://www.w3.org/2000/svg" xmlns:xlink="http://www.w3.org/1999/xlink" width="326.76" height="597.38" viewBox="0 0 326.76 597.38">
  <defs>
    <style>
      .cls-1 {
        isolation: isolate;
      }

      .cls-2 {
        fill: #f1b291;
      }

      .cls-3 {
        fill: #3b5b66;
      }

      .cls-4 {
        opacity: 0.66;
      }

      .cls-5 {
        fill: #a77056;
      }

      .cls-6 {
        fill: #3c5968;
      }

      .cls-7 {
        fill: #2b4c57;
      }

      .cls-8 {
        fill: #3a4449;
      }

      .cls-9 {
        fill: #40606d;
      }

      .cls-10 {
        fill: #42626d;
      }

      .cls-11 {
        fill: #2f545e;
      }

      .cls-12 {
        fill: #b6e0ef;
      }

      .cls-13 {
        fill: #2483c5;
      }

      .cls-14 {
        opacity: 0.6;
      }

      .cls-15 {
        fill: #405e6b;
      }

      .cls-16 {
        opacity: 0.7;
      }

      .cls-17 {
        fill: #eff4f4;
      }

      .cls-18, .cls-21 {
        fill: #536872;
      }

      .cls-18 {
        stroke: #405a63;
        stroke-width: 1.04px;
      }

      .cls-18, .cls-26, .cls-49, .cls-50, .cls-51, .cls-52 {
        stroke-miterlimit: 10;
      }

      .cls-18, .cls-19 {
        opacity: 0.3;
      }

      .cls-20 {
        fill: #516672;
      }

      .cls-21 {
        opacity: 0.18;
      }

      .cls-22 {
        opacity: 0.67;
      }

      .cls-23 {
        fill: #456572;
      }

      .cls-24 {
        opacity: 0.77;
      }

      .cls-25 {
        fill: #755946;
      }

      .cls-26, .cls-49, .cls-50, .cls-51, .cls-52 {
        fill: none;
      }

      .cls-26 {
        stroke: #353e45;
        stroke-width: 3px;
      }

      .cls-27 {
        fill: #a7755c;
      }

      .cls-28 {
        fill: #f7f5f5;
      }

      .cls-29 {
        fill: #684f3c;
      }

      .cls-30 {
        fill: #5b422a;
      }

      .cls-31 {
        fill: #1b6087;
      }

      .cls-32 {
        fill: #65262d;
        opacity: 0.9;
      }

      .cls-33 {
        fill: #cb5b65;
        opacity: 0.84;
      }

      .cls-34 {
        fill: #915a46;
      }

      .cls-35 {
        opacity: 0.8;
      }

      .cls-36 {
        fill: #353e45;
      }

      .cls-37 {
        fill: url(#Unbenannter_Verlauf_153);
      }

      .cls-38 {
        fill: #75adba;
      }

      .cls-39, .cls-42 {
        fill: #97d2db;
      }

      .cls-39 {
        opacity: 0.36;
      }

      .cls-40 {
        fill: #f2f8f9;
      }

      .cls-41 {
        fill: #b3d7e0;
      }

      .cls-42 {
        opacity: 0.59;
      }

      .cls-43 {
        opacity: 0.33;
      }

      .cls-44 {
        fill: #005a6f;
      }

      .cls-45 {
        fill: #efc94c;
      }

      .cls-46 {
        opacity: 0.83;
      }

      .cls-47 {
        fill: #f9da58;
      }

      .cls-48 {
        mix-blend-mode: multiply;
      }

      .cls-49 {
        stroke: #2582c5;
      }

      .cls-49, .cls-50, .cls-51, .cls-52 {
        stroke-width: 1.2px;
      }

      .cls-50 {
        stroke: #e51a60;
      }

      .cls-51 {
        stroke: #75b747;
      }

      .cls-52 {
        stroke: #f6a31f;
      }
    </style>
    <linearGradient id="Unbenannter_Verlauf_153" data-name="Unbenannter Verlauf 153" x1="167.46" y1="257.87" x2="182.78" y2="257.87" gradientTransform="translate(89.69 -141.32) rotate(10.77)" gradientUnits="userSpaceOnUse">
      <stop offset="0" stop-color="#65a0a8"/>
      <stop offset="0.94" stop-color="#65a0a8"/>
    </linearGradient>
  </defs>
  <g class="cls-1">
    <g id="Ebene_1" data-name="Ebene 1">
      <path class="cls-2" d="M255.48,401.48c-.78,12,9.36,24.42,12.22,21.39,4.13-4.39-3.23-14-1.24-13.64,6.86,1.36,9.44,17,17.18,17.36s11.9-10.9,10.86-17-4.45-17-14.19-22.44C273.55,383.3,264,383,264,383Z"/>
      <path class="cls-3" d="M198.18,256.71l4.38,1.84s19,59.1,30.51,79.21,42.49,46.4,42.49,46.4-7.06,5.66-10.16,8.61-10.47,11.48-10.47,11.48-29.66-20.16-45.85-50.72-24.43-77.78-24.43-77.78Z"/>
      <g class="cls-4">
        <path class="cls-5" d="M277.22,405.3a47.48,47.48,0,0,1,3.79,4.34,49.74,49.74,0,0,1,3.26,4.74,46.87,46.87,0,0,1,2.7,5.1,28.91,28.91,0,0,1,1.88,5.49l-.87.27c-.81-1.67-1.72-3.32-2.62-5s-1.85-3.24-2.82-4.84-2-3.17-3-4.72l-3.19-4.66Z"/>
      </g>
      <g class="cls-4">
        <path class="cls-5" d="M284.6,399a46.88,46.88,0,0,1,6.1,7.83,38,38,0,0,1,2.35,4.41,20.41,20.41,0,0,1,1.5,4.83l-1.24.31c-.62-1.42-1.34-2.89-2-4.31s-1.44-2.86-2.23-4.27-1.61-2.78-2.47-4.16-1.76-2.72-2.64-4.09Z"/>
      </g>
      <path class="cls-6" d="M216.39,403.77l.74,29s-28.19,12.72-59.58,17.52-51.46,2.31-51.46,2.31l-3-38.93Z"/>
      <path class="cls-7" d="M206.44,290.48q2.38,10.08,4.34,20.24c1.34,6.76,2.55,13.55,3.74,20.34s2.26,13.61,3.22,20.43,1.86,13.66,2.57,20.53Q218,361.94,216,351.77c-1.31-6.78-2.53-13.56-3.71-20.35s-2.26-13.59-3.25-20.42S207.18,297.35,206.44,290.48Z"/>
      <path class="cls-8" d="M95.85,553.86a50.8,50.8,0,0,0-6.66,10.67A31.15,31.15,0,0,0,87,573.64s9.27,5.19,25.74,7.79a135.13,135.13,0,0,0,35.08,1s-2-6.91-14-14c-8.28-4.89-22.19-10.29-22.19-10.29"/>
      <path class="cls-8" d="M177.74,545.61s-4.35,5.86-6.21,11.1a30.86,30.86,0,0,0-1.8,9.26s8.68,3.46,25.49,5a195.82,195.82,0,0,0,36.55-.22s-2.37-6.77-14.91-13.08c-8.63-4.34-23-8.81-23-8.81"/>
      <path class="cls-6" d="M217.07,430.73s1.16,31.79-.36,55.11c-1.45,22.41-10.59,65.42-10.59,65.42a89.55,89.55,0,0,1-17.72-.08,116.53,116.53,0,0,1-17-3.48s7.8-39,9.22-62.11c1.25-18,.46-43,.46-43"/>
      <path class="cls-9" d="M198.4,256.59s-29.13-8.6-68.4-2.27c-41.81,6.74-66.91,20.82-66.91,20.82s21,64.16,24.69,97,4.55,71.51,4.55,71.51,32.72,5.9,81.51-3.82c38.78-7.73,57.23-16.06,57.23-16.06s-6.82-34.34-17.25-85.24c-4.88-23.84-11.25-64.72-11.25-64.72"/>
      <path class="cls-6" d="M145.38,447s0,30.27-4,54.07c-2,18.46-16.39,60.3-16.39,60.3a138.86,138.86,0,0,1-16.7-.79,70.6,70.6,0,0,1-18.15-4.41s13.12-38.56,15.15-57.27a269.23,269.23,0,0,0,.75-54"/>
      <g>
        <polyline class="cls-9" points="139.56 394.11 139.23 408.96 96.92 413.03 96.71 400.37"/>
        <path class="cls-7" d="M139.56,394.11l.75,14.87.05.94-1,.11c-3.52.41-7,.74-10.57,1.07l-10.59.89c-7.06.52-14.12,1.08-21.2,1.54l-.55,0V413l.12-6.34.16-6.33.38,6.33.33,6.32-.54-.48c7-.91,14.07-1.7,21.1-2.54l10.57-1.14c3.52-.36,7-.7,10.58-1l-1,1.05Z"/>
      </g>
      <g>
        <path class="cls-10" d="M169.32,371.91S148.15,358.12,137,349.15s-22.33-23.22-22.33-23.22l13-11-17.46,1.17s-14.26-33.28-14.31-46.84c0-7.76,7-16,7-16L163,245.94s9.22,9.66,11.82,13.17,13.82,36.6,13.82,36.6l-12.12,7.19,13.3,2.49s-.72,18.65-3.28,31.21-11.36,33.24-11.36,33.24"/>
        <path class="cls-11" d="M169,372.4q-7.56-4.87-15-9.92c-4.95-3.37-9.88-6.79-14.68-10.4-2.39-1.81-4.77-3.7-7-5.71s-4.41-4.11-6.52-6.26c-4.22-4.31-8.21-8.78-12-13.48h0l-.69-.86.85-.71L127,314.11h0l.73,1.79-17.46,1.3-.8.06-.32-.75q-3.27-7.75-6.15-15.63c-1.93-5.25-3.74-10.56-5.29-16-.77-2.7-1.49-5.42-2-8.21a35.22,35.22,0,0,1-.87-8.6,22.82,22.82,0,0,1,2.53-8.39,40,40,0,0,1,4.7-7.23l.27-.34.46-.05,60.07-7.29h0l.58-.07.38.41c3.25,3.48,6.45,7,9.56,10.59.77.93,1.54,1.82,2.28,2.85a22.19,22.19,0,0,1,1.66,3.36c.94,2.21,1.78,4.43,2.62,6.66,3.29,8.91,6.34,17.88,9.34,26.88h0l.17.51-.47.29L177,303.76h0l-.32-1.84L190,304.27h0l1,.18,0,1c-.29,5.58-.73,11.12-1.33,16.66-.3,2.77-.65,5.54-1.07,8.3s-.89,5.51-1.57,8.25a153.09,153.09,0,0,1-5.08,15.94q-2.88,7.83-6.18,15.5l-1.11-.48c2.09-5.12,4.07-10.3,5.9-15.52a154.67,154.67,0,0,0,4.76-15.84,137.22,137.22,0,0,0,2.34-16.35c.51-5.5.86-11,1.06-16.54l.93,1.16h0l-13.27-2.62-2.68-.53L176,302h0l12.28-6.91-.29.8h0c-3.14-8.94-6.34-17.86-9.76-26.67-.86-2.2-1.74-4.4-2.69-6.54a21.05,21.05,0,0,0-1.51-3c-.66-.89-1.44-1.79-2.21-2.67-3.11-3.52-6.38-7-9.65-10.36l1,.34h0L103,254.35l.73-.39a37.65,37.65,0,0,0-4.39,6.78,20.53,20.53,0,0,0-2.3,7.53,33.59,33.59,0,0,0,.83,8c.54,2.69,1.24,5.37,2,8,1.53,5.32,3.32,10.58,5.23,15.8s4,10.41,6.11,15.52l-1.12-.69,17.48-1.06,3-.19-2.3,2h0L115.4,326.8l.16-1.57h0c3.66,4.65,7.58,9.18,11.67,13.49,2,2.15,4.16,4.25,6.34,6.26s4.46,3.89,6.81,5.72c4.71,3.66,9.57,7.15,14.45,10.59s9.83,6.81,14.81,10.13Z"/>
      </g>
      <path class="cls-12" d="M170.18,363.45s-21.13-17.72-38.89-49.16c-13.58-24.05-22-50.8-22-50.8l54.92-7s8.7,25.28,10.64,47.87A185.85,185.85,0,0,1,170.18,363.45Z"/>
      <path class="cls-13" d="M148.07,265.24l9.79,11.66s-1.77,2.52-6.71,3.33a21.31,21.31,0,0,1-8.74-.33l4-14.38Z"/>
      <g class="cls-14">
        <path class="cls-15" d="M170.39,271a28,28,0,0,1-4.19,4.69c-1.5,1.39-3,2.67-4.67,3.91h0l-.77.64-.67-.8L145.46,262l2.61-.52L140.83,284l-.23.71-.68-.11h0c-2.5-.28-4.95-.68-7.4-1.15s-4.89-1-7.3-1.69a44.43,44.43,0,0,1-7.16-2.59,33.72,33.72,0,0,1-6.66-4l2-2.26a31.54,31.54,0,0,0,5.88,3.84,42.19,42.19,0,0,0,6.65,2.73c2.31.76,4.67,1.41,7,2s4.79,1.08,7.18,1.47h0l-.91.59,6-22.92.76-2.92,1.85,2.4,13.89,18-1.45-.15h0c1.44-1.29,2.85-2.67,4.16-4.1a24.94,24.94,0,0,0,3.41-4.46Z"/>
      </g>
      <path class="cls-13" d="M154,280.05s10.51,25,13.43,36.25S173.65,347,173.65,347l-3.34,16.39-13.9-13.55-5.1-32.5-3.15-36.52Z"/>
      <g>
        <polyline class="cls-9" points="200.26 380.23 205.63 394.28 227.35 387.67 221.17 375.71"/>
        <path class="cls-7" d="M200.26,380.23l6.41,13.65-1.37-.66q2.72-.87,5.43-1.65L216.2,390l11-2.93-.35.83q-2.87-6.1-5.66-12.23,3.39,5.82,6.7,11.69l.33.6-.68.23-10.75,3.68-5.39,1.78q-2.7.87-5.43,1.66l-1.07.31-.29-1Z"/>
      </g>
      <g class="cls-16">
        <path class="cls-9" d="M170.86,364.47s4.92,30.17,6.53,44.33,2.53,28.89,2.53,28.89"/>
        <path class="cls-7" d="M171.36,364.39c2.07,12.14,4.1,24.27,5.9,36.46.91,6.09,1.63,12.23,2.26,18.35s1.18,12.26,1.65,18.42l-2.5.15c-.33-6.12-.76-12.26-1.26-18.37s-1.1-12.23-1.88-18.32c-1.55-12.19-3.33-24.36-5.16-36.52Z"/>
      </g>
      <path class="cls-7" d="M153.07,450.65c4.49-1,9-1.89,13.46-2.8s9-1.83,13.39-2.85,8.8-2.2,13.14-3.59,8.63-3,12.92-4.61A76.94,76.94,0,0,1,193.64,443c-2.14.89-4.33,1.62-6.53,2.33s-4.47,1.24-6.71,1.78c-4.5,1-9,1.82-13.59,2.41A129,129,0,0,1,153.07,450.65Z"/>
      <path class="cls-7" d="M180.52,448.1a44.5,44.5,0,0,1,5.59-.75c1.82-.15,3.66-.23,5.44-.29l5.39-.24a52.72,52.72,0,0,1,5.62,0,19.42,19.42,0,0,1-5.24,2.32,24,24,0,0,1-5.65.9,29.65,29.65,0,0,1-5.66-.35A21.27,21.27,0,0,1,180.52,448.1Z"/>
      <polygon class="cls-17" points="165.92 283.13 193.67 277.76 201.43 307.16 174.52 311.63 165.92 283.13"/>
      <line class="cls-18" x1="177.7" y1="307.49" x2="196.35" y2="304.23"/>
      <g class="cls-19">
        <polygon class="cls-20" points="167.04 287.9 174.34 312.58 173.21 311.87 178.07 311.32 178.31 312.62 173.56 313.81 172.66 314.04 172.43 313.1 166.33 288.1 167.04 287.9"/>
      </g>
      <polygon class="cls-21" points="189.6 280.47 191.96 280.19 192.4 282.65 190.38 282.79 189.6 280.47"/>
      <path class="cls-2" d="M136.17,352.36c3.85-10.87,13-18.53,23.61-25.59,6.63-4.42,18.72-10.94,21.68-7.4s-9.1,9.69-14.6,14.13a59.71,59.71,0,0,0-8.53,8.23s9.52-.26,15,4.23c7.86,6.37,7.08,19.76-.42,26.82s-17.67,1.39-17.67,1.39,1.83,1.33-4.74,3.05S130.37,368.68,136.17,352.36Z"/>
      <g class="cls-22">
        <path class="cls-5" d="M155.14,374.51a7.72,7.72,0,0,1-3.59-1.91,5.19,5.19,0,0,1-1.28-1.86,4.52,4.52,0,0,1-.3-2.39,6.78,6.78,0,0,1,2.17-3.87,9.36,9.36,0,0,1,3.71-2.06,12.49,12.49,0,0,1,4.07-.49A9,9,0,0,1,164,363a3.3,3.3,0,0,1,1.54,1.92,2.91,2.91,0,0,1-.48,2.39,8.2,8.2,0,0,1-3.1,2.56l-.4-.65a8.27,8.27,0,0,0,2.31-2.59,1.61,1.61,0,0,0,.13-1.24,1.77,1.77,0,0,0-.89-.83,7.18,7.18,0,0,0-3.22-.59,10.91,10.91,0,0,0-3.37.54,7.8,7.8,0,0,0-2.82,1.62,5.22,5.22,0,0,0-1.49,2.57,3.42,3.42,0,0,0,.74,2.67,12.14,12.14,0,0,0,2.5,2.45Z"/>
      </g>
      <g class="cls-4">
        <path class="cls-5" d="M158.49,350.53a21.54,21.54,0,0,1,7,.35,15.1,15.1,0,0,1,6.59,3,14.56,14.56,0,0,1,4.11,6,18.76,18.76,0,0,1,1.22,6.93l-.59,0a26.84,26.84,0,0,0-2.25-6.26A13,13,0,0,0,168,354a30.63,30.63,0,0,0-3-1.17c-2.1-.69-4.29-1.2-6.51-1.73Z"/>
      </g>
      <path class="cls-23" d="M63.16,274.87S31.59,347.61,47.58,377.43c17,31.78,96.63,3.34,96.63,3.34A48.6,48.6,0,0,1,138,366.56a72.29,72.29,0,0,1-2.05-19.92s-44.25,14.9-56.34,8.67c-7.54-3.89,8.82-47.9,8.82-47.9A61.68,61.68,0,0,0,77,285.89C70.3,277.63,63.16,274.87,63.16,274.87Z"/>
      <g class="cls-24">
        <path class="cls-7" d="M89,307.83c-1,3.85-2.2,7.62-3.4,11.38L84.68,322l-.93,2.8-1.82,5.6a103.8,103.8,0,0,0-3.09,11.19c-.83,3.8-1.46,7.66-2.11,11.61a42.68,42.68,0,0,1-.36-12,49,49,0,0,1,1-6c.49-2,1.1-3.88,1.75-5.76s1.32-3.75,2.06-5.59l1.12-2.76,1.2-2.72A97.19,97.19,0,0,1,89,307.83Z"/>
      </g>
      <path class="cls-11" d="M145.2,380.62A193.39,193.39,0,0,1,125,386.55c-3.4.86-6.84,1.55-10.28,2.26s-6.91,1.23-10.39,1.73a137.25,137.25,0,0,1-21,1.46,76,76,0,0,1-10.54-.82,47.57,47.57,0,0,1-5.18-1.07,22.56,22.56,0,0,1-4.94-1.84,27,27,0,0,0,5.07,1.23c.85.14,1.72.23,2.58.35s1.73.17,2.59.22a97.69,97.69,0,0,0,10.41.15c.86,0,1.73-.06,2.6-.12l2.6-.13c1.73-.15,3.46-.24,5.19-.44,3.45-.33,6.91-.72,10.35-1.24,6.9-.94,13.76-2.16,20.61-3.46S138.34,382.08,145.2,380.62Z"/>
      <path class="cls-11" d="M130.65,351.41c.21,3,.33,6,.56,9a72.93,72.93,0,0,0,1.07,8.8c.62,2.89,1.35,5.81,2.15,8.69s1.69,5.75,2.73,8.59a43,43,0,0,1-4.08-8.14,63.92,63.92,0,0,1-2.7-8.73,38.36,38.36,0,0,1-.88-9.16A39.53,39.53,0,0,1,130.65,351.41Z"/>
      <path class="cls-25" d="M145.38,115.49s19.56,15.75,23,29.19c2.48,9.81,2.51,26.9,2.51,26.9l-35.29-51.87Z"/>
      <path class="cls-2" d="M92.31,244.34s4.39,14.29,19,19.35c20.47,7.1,70.92-5.11,76.88-13.88,5.19-7.63-3.77-49.66-17.88-85-11.11-27.77-30.86-50.64-30.86-50.64s-29.39-1.46-52.12,6.34a84.16,84.16,0,0,0-30.89,19.37l30.11,90"/>
      <path class="cls-25" d="M67.75,137.78s9.27,14,12.08,26.73c2.43,11,5.55,37.36,5.55,37.36a104.45,104.45,0,0,1,9.18,11.22C99.8,221,98.63,228,98.63,228l-17.1-14.29L95,250.05s-7.5.41-12.81-8S57.45,200,53.09,186.9c-2.31-6.94-11.35-41.55-8.69-48.55a11.45,11.45,0,0,1,6.25-6.55,16.45,16.45,0,0,1,9.61-16.28c16.15-8,54.42-14.61,69.63-13.51,11.68.85,29.9,14,29.9,14s-14.43,5.54-22.22,5.73-29-2.27-29-2.27,13.32,3.92,17.28,5.45,11.61,6.4,11.61,6.4-14.58,2.28-19.64,2.14-26-4.9-26-4.9,8.46,3.26,12.45,5a61.25,61.25,0,0,1,7.83,4.33S99,142,88.64,141.78,67.75,137.78,67.75,137.78Z"/>
      <line class="cls-26" x1="91.91" y1="205.1" x2="75.28" y2="213.34"/>
      <path class="cls-2" d="M91.92,222.48S82.76,209.24,72.27,210c-14.81,1.09-3.87,30.38,6.87,33.67,9.41,2.88,14.11-2,14.11-2"/>
      <path class="cls-27" d="M89.66,230.81c-1.77-1.42-3.44-2.76-5.11-4a32.76,32.76,0,0,0-5.08-3.21,15.12,15.12,0,0,0-2.61-1,17.49,17.49,0,0,0-2.69-.64,12,12,0,0,0-5.92.48c.84-2.33,3.44-3.75,5.94-4a10.85,10.85,0,0,1,1.89,0,12.29,12.29,0,0,1,1.83.33,13,13,0,0,1,3.41,1.39,19,19,0,0,1,8.34,10.67Z"/>
      <path class="cls-28" d="M97.72,199c2.18,7.52,9.28,11.45,17.25,9.3a13.66,13.66,0,0,0,9.65-17.1,14,14,0,1,0-26.9,7.8Z"/>
      <path class="cls-28" d="M149,186.2c2.64,7.25,8.3,11.75,15.7,9.72,7-1.91,10.35-9.33,8.49-16.82-2-7.94-9.21-11.67-16.13-9.66S146.5,179.45,149,186.2Z"/>
      <path class="cls-29" d="M123.24,168.52S112.7,171,104.61,176.1A50.34,50.34,0,0,0,92,187.39l-1-4s.83-7.05,11.11-13.2a47.47,47.47,0,0,1,18.92-6Z"/>
      <path class="cls-30" d="M119.31,183.3a15.16,15.16,0,0,0-6.83-1,16.87,16.87,0,0,0-6.29,1.86,17.73,17.73,0,0,0-5.26,4,19.47,19.47,0,0,0-3.65,6A11.49,11.49,0,0,1,99,186.68a14.28,14.28,0,0,1,5.82-5.24,14,14,0,0,1,7.69-1.53A10.25,10.25,0,0,1,119.31,183.3Z"/>
      <path class="cls-30" d="M171.49,174.77a13,13,0,0,0-5.39-3.37,18.16,18.16,0,0,0-6.11-.75,13.29,13.29,0,0,0-5.93,1.34,12.51,12.51,0,0,0-4.71,4.3,9.32,9.32,0,0,1,3.67-5.93,12,12,0,0,1,6.86-2.29,13.35,13.35,0,0,1,7.05,1.4A8.76,8.76,0,0,1,171.49,174.77Z"/>
      <path class="cls-29" d="M142.64,165.58a50.85,50.85,0,0,1,14-1.84A47.74,47.74,0,0,1,171.26,166l-1.29-3.5a21.77,21.77,0,0,0-12.66-4.67,32.19,32.19,0,0,0-15.26,3.28Z"/>
      <ellipse class="cls-31" cx="115.72" cy="192.82" rx="5.84" ry="7.65" transform="translate(-53.56 44.78) rotate(-17.86)"/>
      <ellipse class="cls-31" cx="164.92" cy="180.13" rx="5.19" ry="7.2" transform="translate(-49.1 62.48) rotate(-18.73)"/>
      <path class="cls-26" d="M187,172.05s.42,21.44-.39,23S156,204.36,156,204.36"/>
      <g>
        <path class="cls-2" d="M138,166.76s12,18.19,17.88,29.73,8.18,21.67,6.58,23.71-7.5,4.61-14.45,5.45-10.83-.7-10.83-.7"/>
        <path class="cls-5" d="M138,166.76q6.68,8.55,12.66,17.6c2,3,3.95,6.07,5.77,9.23a92.52,92.52,0,0,1,5,9.83,55.68,55.68,0,0,1,3.55,10.67,27,27,0,0,1,.44,3l0,.82a6.6,6.6,0,0,1,0,.87,6,6,0,0,1-.52,2.19,7.24,7.24,0,0,1-.41.71,4.48,4.48,0,0,1-.37.44,6.48,6.48,0,0,1-.71.69,12.37,12.37,0,0,1-1.38,1,22.78,22.78,0,0,1-2.72,1.41,36.94,36.94,0,0,1-11.17,2.62,20,20,0,0,1-5.72-.38,11.84,11.84,0,0,1-5.23-2.48c3.82-.35,7.08-.89,10.45-1.43a39.72,39.72,0,0,0,5-1.12,33,33,0,0,0,4.69-1.72,18.07,18.07,0,0,0,2.06-1.1,8.8,8.8,0,0,0,.8-.59,1.58,1.58,0,0,0,.26-.25l.07-.07a.27.27,0,0,0-.09.12c0,.1,0-.14.06-.44a2.25,2.25,0,0,0,0-.47v-.53a23.16,23.16,0,0,0-.26-2.37,41.65,41.65,0,0,0-1.17-5c-.48-1.66-1-3.33-1.62-5-2.4-6.59-5.78-12.89-9.16-19.23Z"/>
      </g>
      <path class="cls-32" d="M166,229.08s1.54,16.51-12.58,19.88c-19,4.54-28.44-14.89-28.44-14.89"/>
      <path class="cls-33" d="M160.23,245s-3.69,3.37-10.66,4.05-13.67-3.7-13.67-3.7a38.73,38.73,0,0,1,12.27-2.95A28.78,28.78,0,0,1,160.23,245Z"/>
      <path class="cls-28" d="M166,229.08s-.74,5-1.32,5.7-6.07,4.39-14.19,5.86c-12.1,2.17-19.49.25-19.49.25a39.75,39.75,0,0,1-3.64-3.75,35.23,35.23,0,0,1-2.49-3.9s16.49,1.69,24.39.39A107.09,107.09,0,0,0,166,229.08Z"/>
      <g>
        <path class="cls-2" d="M168.74,226.57a45.88,45.88,0,0,1-17.61,7.48c-16.54,3.35-27.93-.56-27.93-.56"/>
        <path class="cls-34" d="M169.18,227.12a39,39,0,0,1-10.49,6.11,45,45,0,0,1-5.79,1.89c-1,.26-2,.46-3,.64s-2,.38-3,.5a59,59,0,0,1-12.1.48,58.38,58.38,0,0,1-6-.74,36.49,36.49,0,0,1-5.91-1.6l.62-1.82a43.54,43.54,0,0,0,5.67.94c1.92.23,3.85.36,5.78.41a76,76,0,0,0,11.57-.64,58.86,58.86,0,0,0,11.27-2.48,52,52,0,0,0,10.51-4.8Z"/>
      </g>
      <path class="cls-5" d="M125.57,229.23,124.4,232a19.35,19.35,0,0,0-.85,2.45,16.07,16.07,0,0,0-.49,2.52c-.11.89-.19,1.84-.26,3a5,5,0,0,1-1.82-2.78,6.37,6.37,0,0,1,0-3.41,6.6,6.6,0,0,1,1.71-2.93A5.51,5.51,0,0,1,125.57,229.23Z"/>
      <g class="cls-35">
        <path class="cls-5" d="M161.78,249.72a9,9,0,0,1-2.46,4.39,11,11,0,0,1-9.53,3.22,9.62,9.62,0,0,1-4.65-1.9,46.08,46.08,0,0,0,4.7-.26,19.9,19.9,0,0,0,4.22-.91,19.25,19.25,0,0,0,3.91-1.83A32.44,32.44,0,0,0,161.78,249.72Z"/>
      </g>
      <path class="cls-5" d="M92.36,242a34.42,34.42,0,0,0,6,11.81,30.62,30.62,0,0,0,10,8.31A34.74,34.74,0,0,0,121,265.19a84.9,84.9,0,0,0,13.24-.18,234.75,234.75,0,0,0,26.42-4,101.24,101.24,0,0,0,12.75-3.8A131.84,131.84,0,0,0,185.75,252a75.37,75.37,0,0,1-11.85,6.44,76.68,76.68,0,0,1-12.85,4.31c-4.4,1-8.79,1.9-13.22,2.7a133.72,133.72,0,0,1-13.41,1.8,78.18,78.18,0,0,1-13.6.05,34.81,34.81,0,0,1-13.25-3.59,30.12,30.12,0,0,1-10.06-9.24,31.08,31.08,0,0,1-3.26-6A27.82,27.82,0,0,1,92.36,242Z"/>
      <path class="cls-36" d="M188.62,174.41l-25,6.25c-8.34,2.1-16.71,4.14-25,6.28q-25,6.45-49.73,13.64l-1.13-3.84q24.87-7.19,49.9-13.56c8.35-2.13,16.71-4.15,25.07-6.24l25.08-6.2Z"/>
      <path class="cls-26" d="M138.69,185.31s1.78,20.1.05,22.49-33.28,10.76-36.48,10.65S89.1,197.22,89.1,197.22"/>
      <polygon class="cls-36" points="153.45 189.55 140.34 193.27 139.69 190.8 152.94 187.61 153.45 189.55"/>
      <path class="cls-37" d="M207.09,138s-2.82,8.61,4,11.52,10.5-6.15,10.5-6.15"/>
      <path class="cls-38" d="M207.23,119.42l-5.41,15.17s1.81,4.94,12.2,8.73,14.15,2.29,14.15,2.29l7.2-16.93"/>
      <polygon class="cls-39" points="218.56 126.75 212.19 142.29 222.1 145.22 228.44 130.09 218.56 126.75"/>
      <g>
        <path class="cls-40" d="M249.37,49.79a37,37,0,0,0-42.08,58.06l-2.4,8.37s2.42,5.09,15.65,10.26c12.41,4.84,16.93,3.35,16.93,3.35l4.92-9.34a37,37,0,0,0,7-70.7Z"/>
        <path class="cls-41" d="M249.07,50.53a36.19,36.19,0,0,0-41.18,56.82h0l.26.35-.11.36-2.66,8.31h0l0-.37a8.84,8.84,0,0,0,1.3,1.66,21.11,21.11,0,0,0,1.62,1.51,30.4,30.4,0,0,0,3.66,2.57,55.7,55.7,0,0,0,8.1,4,66.54,66.54,0,0,0,8.56,2.84,37.17,37.17,0,0,0,4.41.82,18.37,18.37,0,0,0,2.21.15,9.12,9.12,0,0,0,2.09-.19h0l-.3.26,4.6-9.51h0l.19-.37.44-.09a37.79,37.79,0,0,0,19.9-11.17,36.33,36.33,0,0,0,9.38-20.78,36.11,36.11,0,0,0-22.44-37.13Zm.59-1.48a37.8,37.8,0,0,1,20.66,50.58,37.22,37.22,0,0,1-27.76,21.74l.62-.47h0l-5.24,9.16-.12.21-.19.05h0a9.49,9.49,0,0,1-2.43.24,19.94,19.94,0,0,1-2.32-.16,38.24,38.24,0,0,1-4.54-.85,67.84,67.84,0,0,1-8.71-2.89,57.14,57.14,0,0,1-8.24-4,31.77,31.77,0,0,1-3.78-2.66,21.45,21.45,0,0,1-1.71-1.59,9.12,9.12,0,0,1-1.48-1.93l-.09-.16.06-.21h0l2.16-8.45.15.71h0a37.77,37.77,0,0,1,43-59.29Z"/>
      </g>
      <path class="cls-42" d="M208.09,116.11s7.11,5.88,13.08,8a75.24,75.24,0,0,0,14.21,3.12s-3-4.49-12.47-7.93S208.09,116.11,208.09,116.11Z"/>
      <g class="cls-43">
        <path class="cls-44" d="M203.31,129.79a15,15,0,0,0,2.33,2.86,21,21,0,0,0,2.79,2.38,33.06,33.06,0,0,0,6.33,3.61c2.23,1,4.56,1.85,6.87,2.65,1.16.39,2.33.75,3.51,1a21.7,21.7,0,0,0,3.51.68h.08a.53.53,0,0,1,.49.58.54.54,0,0,1-.53.48,25.27,25.27,0,0,1-7.52-1.35,54.15,54.15,0,0,1-7-2.77,27.81,27.81,0,0,1-6.34-4.17A16.52,16.52,0,0,1,203.31,129.79Z"/>
      </g>
      <g class="cls-43">
        <path class="cls-44" d="M205.16,125.14a15.1,15.1,0,0,0,2.36,2.85,24.18,24.18,0,0,0,2.79,2.36,33.26,33.26,0,0,0,6.31,3.64c2.22,1,4.54,1.9,6.84,2.73,1.16.4,2.33.78,3.51,1.11a23.46,23.46,0,0,0,3.55.77h0a.29.29,0,0,1,.26.33.31.31,0,0,1-.28.27,23.83,23.83,0,0,1-7.49-1.2,50.13,50.13,0,0,1-7.05-2.69,27.43,27.43,0,0,1-6.35-4.14A16.11,16.11,0,0,1,205.16,125.14Z"/>
      </g>
      <g class="cls-43">
        <path class="cls-44" d="M206.8,120.66a14.65,14.65,0,0,0,2.33,2.86,21.11,21.11,0,0,0,2.78,2.39,33.71,33.71,0,0,0,6.35,3.6c2.22,1,4.56,1.84,6.87,2.63,1.16.39,2.33.74,3.51,1a20.65,20.65,0,0,0,3.5.66h.09a.58.58,0,0,1,0,1.16,25,25,0,0,1-7.53-1.39,52.68,52.68,0,0,1-7-2.78,27.79,27.79,0,0,1-6.33-4.18A16.43,16.43,0,0,1,206.8,120.66Z"/>
      </g>
      <path class="cls-45" d="M216.71,119.59c.78-4,1.47-8.07,2.09-12.12s1.18-8.12,1.59-12.19c.19-2,.37-4.07.47-6.11a20.71,20.71,0,0,0-.26-5.91,8,8,0,0,0-1-2.55,2.27,2.27,0,0,0-.78-.77.56.56,0,0,0-.6,0A3.68,3.68,0,0,0,217.11,82a12.56,12.56,0,0,0-.24,1.41,5.92,5.92,0,0,0,0,1.33,9.68,9.68,0,0,0,2.35,5,8.39,8.39,0,0,0,4.55,3,4.36,4.36,0,0,0,4.48-1.88,12.25,12.25,0,0,0,2.53-5.07,6.06,6.06,0,0,0,.13-1.31,2,2,0,0,0-.22-.93c-.05,0,0,0,0,0s-.12,0-.24.06a3.17,3.17,0,0,0-.93.73,12.53,12.53,0,0,0-1.69,2.3l-.67,1.27c-.16.44-.35.88-.48,1.33a6.59,6.59,0,0,0,.44,5.21,3.65,3.65,0,0,0,4.27,1.68,5.73,5.73,0,0,0,1.21-.5,8.28,8.28,0,0,0,1.17-.79,13,13,0,0,0,2.07-2,17.53,17.53,0,0,0,3-5,10.22,10.22,0,0,0,.39-1.35,3.45,3.45,0,0,0,.08-1.15c0-.12-.06-.09.09,0s.08,0,0,.06a3.77,3.77,0,0,0-1,.66,7.81,7.81,0,0,0-2.39,4.83,10.09,10.09,0,0,0,.68,5.53,5.18,5.18,0,0,0,3.9,3.19,7.56,7.56,0,0,0,5.24-1.23,12.61,12.61,0,0,0,3.92-4.13,11.9,11.9,0,0,0,1.2-2.59,5.84,5.84,0,0,0,.28-1.3,1.59,1.59,0,0,0-.09-.81s0,0,0,0,0,0-.05,0a1.12,1.12,0,0,0-.4.09,5.35,5.35,0,0,0-1.12.66c-.38.26-.73.63-1.1.94a11.47,11.47,0,0,0-1.08,1,66.11,66.11,0,0,0-7.31,9.67,225.59,225.59,0,0,0-11.88,21.49l-1.14-.53A191.18,191.18,0,0,1,238.55,101a63.18,63.18,0,0,1,7.46-10,12.25,12.25,0,0,1,1.17-1.1c.41-.35.77-.73,1.24-1.06A6.68,6.68,0,0,1,250,87.9a3,3,0,0,1,1.1-.21,1.7,1.7,0,0,1,1.33.61,3,3,0,0,1,.53,2.14,8.26,8.26,0,0,1-.35,1.7,14.87,14.87,0,0,1-1.38,3,14.51,14.51,0,0,1-4.51,4.72,9.32,9.32,0,0,1-6.51,1.49A6.63,6.63,0,0,1,237,99.89a7.86,7.86,0,0,1-2.06-2.78,11.91,11.91,0,0,1-.82-6.55,11.33,11.33,0,0,1,.95-3.2,8.13,8.13,0,0,1,2.06-2.77,5.39,5.39,0,0,1,1.58-1,1.89,1.89,0,0,1,1.48,0A1.75,1.75,0,0,1,241,84.9a4.9,4.9,0,0,1-.07,1.9,13.11,13.11,0,0,1-.47,1.61A19.36,19.36,0,0,1,237.22,94a15.85,15.85,0,0,1-2.35,2.28,12,12,0,0,1-1.39.93,7.76,7.76,0,0,1-1.63.67,5.4,5.4,0,0,1-3.61-.14,5.82,5.82,0,0,1-2.74-2.34,8.43,8.43,0,0,1-.65-6.71c.16-.54.38-1,.57-1.57l.77-1.46A14.21,14.21,0,0,1,228.14,83a5,5,0,0,1,1.51-1.14,2.35,2.35,0,0,1,1.26-.2,1.91,1.91,0,0,1,1.25.75,3.48,3.48,0,0,1,.6,2,8.33,8.33,0,0,1-.15,1.75,14.25,14.25,0,0,1-2.9,5.88A7.06,7.06,0,0,1,227,94.21a6,6,0,0,1-3.57.36A10.27,10.27,0,0,1,217.77,91a11.35,11.35,0,0,1-2.72-6,7.23,7.23,0,0,1,0-1.74,11.92,11.92,0,0,1,.3-1.63A7.68,7.68,0,0,1,216,80a3.79,3.79,0,0,1,1.31-1.52,2.35,2.35,0,0,1,2.33,0A4,4,0,0,1,221,79.74a9.38,9.38,0,0,1,1.24,3.16,22.09,22.09,0,0,1,.24,6.37c-.12,2.07-.32,4.12-.54,6.18a245.26,245.26,0,0,1-4.1,24.39Z"/>
      <g class="cls-46">
        <polygon class="cls-47" points="185.65 103.76 173.13 109.75 172.13 106.89 185.65 103.76"/>
      </g>
      <g class="cls-46">
        <polygon class="cls-47" points="205.63 48.85 194.21 35.98 196.64 34.18 205.63 48.85"/>
      </g>
      <g class="cls-46">
        <polygon class="cls-47" points="187.88 73.33 172.52 70.67 173.32 67.76 187.88 73.33"/>
      </g>
      <g class="cls-46">
        <polygon class="cls-47" points="257.79 44.93 265.27 26.52 267.98 27.86 257.79 44.93"/>
      </g>
      <g class="cls-46">
        <polygon class="cls-47" points="232.65 37.53 230.34 23.62 233.36 23.45 232.65 37.53"/>
      </g>
      <g class="cls-46">
        <polygon class="cls-47" points="274.62 106.84 289.94 116.7 288.1 119.1 274.62 106.84"/>
      </g>
      <g class="cls-46">
        <polygon class="cls-47" points="281.81 81.85 297.35 77.89 297.81 80.87 281.81 81.85"/>
      </g>
      <g class="cls-46">
        <polygon class="cls-47" points="261.08 129.88 267.58 138.45 264.94 139.92 261.08 129.88"/>
      </g>
      <g class="cls-46">
        <polygon class="cls-47" points="275.27 57.23 284.82 51.08 286.11 53.81 275.27 57.23"/>
      </g>
      <g class="cls-48">
        <path class="cls-49" d="M178.58,301a10.63,10.63,0,0,1-2.54-2.78,11.59,11.59,0,0,1-1.5-3.57,11.44,11.44,0,0,1-.21-3.94,9.77,9.77,0,0,1,1-3.39"/>
        <path class="cls-49" d="M178.13,289.34a6.46,6.46,0,0,0-.65,2.07,7,7,0,0,0,.13,2.61,7,7,0,0,0,1,2.23,6.89,6.89,0,0,0,1.67,1.75"/>
        <g class="cls-48">
          <path class="cls-50" d="M185.67,287.73a5.56,5.56,0,0,0-1.37-.76,4.94,4.94,0,0,0-2.67-.27,4.77,4.77,0,0,0-2.56,1.34,5.24,5.24,0,0,0-.94,1.3"/>
          <path class="cls-50" d="M175.37,287.32a8.43,8.43,0,0,1,1.45-2,7.77,7.77,0,0,1,3.92-2.15,8.06,8.06,0,0,1,4.46.39,9.06,9.06,0,0,1,2.22,1.22"/>
        </g>
        <g class="cls-48">
          <path class="cls-51" d="M180.27,298a5.57,5.57,0,0,0,3.16,1.05,4.74,4.74,0,0,0,2.2-.54c.44.4.9.81,1.39,1.22s1.1.92,1.63,1.33a7.58,7.58,0,0,1-2.7,1.46,7.74,7.74,0,0,1-2.86.29,9.27,9.27,0,0,1-2.54-.68,10.22,10.22,0,0,1-2-1.13"/>
          <path class="cls-51" d="M187.42,284.8a10.43,10.43,0,0,1,2.53,2.67,11.65,11.65,0,0,1,1.59,3.6h0a10.87,10.87,0,0,1,.33,2.25,7.38,7.38,0,0,1-.12,1.57l-3.38-2.66a7.23,7.23,0,0,0-.57-1.84,7.08,7.08,0,0,0-2.13-2.66"/>
        </g>
        <path class="cls-52" d="M192.53,301.07a.23.23,0,0,1-.19-.06l-7.9-6.5a.65.65,0,0,1-.16-.81l.45-.73a.53.53,0,0,1,.82-.13l8,6.6,1.26,1s0,.12,0,.13C194.38,300.69,193,301,192.53,301.07Z"/>
      </g>
    </g>
  </g>
</svg>
