<svg xmlns="http://www.w3.org/2000/svg" width="384" height="541" viewBox="0 0 384 541">
  <defs>
    <style>
      .cls-1 {
        isolation: isolate;
      }

      .cls-2 {
        fill: #72be44;
      }

      .cls-3 {
        fill: #f1b291;
      }

      .cls-4 {
        fill: #69afca;
      }

      .cls-5 {
        fill: #d6d6c8;
      }

      .cls-6 {
        fill: #a8a89d;
      }

      .cls-7 {
        fill: #6fb7d3;
      }

      .cls-8 {
        fill: #eaab8f;
      }

      .cls-9 {
        fill: #6096a5;
      }

      .cls-10 {
        fill: #75bad5;
      }

      .cls-11 {
        fill: #3098d1;
      }

      .cls-12 {
        fill: #fff;
      }

      .cls-13, .cls-24 {
        opacity: 0.9;
      }

      .cls-13 {
        mix-blend-mode: multiply;
      }

      .cls-14 {
        fill: #f9a51a;
      }

      .cls-15 {
        fill: #ec125f;
      }

      .cls-16 {
        fill: #2483c5;
      }

      .cls-17 {
        fill: #755946;
      }

      .cls-18 {
        fill: none;
        stroke: #353e45;
        stroke-miterlimit: 10;
        stroke-width: 3px;
      }

      .cls-19 {
        fill: #a7755c;
      }

      .cls-20 {
        fill: #f7f5f5;
      }

      .cls-21, .cls-28 {
        fill: #684f3c;
      }

      .cls-22 {
        fill: #5b422a;
      }

      .cls-23 {
        fill: #1b6087;
      }

      .cls-24 {
        fill: #65262d;
      }

      .cls-25 {
        fill: #cb5b65;
        opacity: 0.84;
      }

      .cls-26 {
        fill: #915a46;
      }

      .cls-27 {
        fill: #a77056;
      }

      .cls-28 {
        opacity: 0.16;
      }

      .cls-29 {
        opacity: 0.8;
      }

      .cls-30 {
        fill: #353e45;
      }

      .cls-31 {
        fill: #379b4c;
      }

      .cls-32 {
        fill: #5198b3;
      }

      .cls-33 {
        fill: #7e8c8c;
      }

      .cls-34 {
        fill: #e24d83;
      }

      .cls-35 {
        opacity: 0.64;
      }
    </style>
  </defs>
  <title>Q_jogging</title>
  <g class="cls-1">
    <g id="Ebene_1" data-name="Ebene 1">
      <path class="cls-2" d="M247,339,244.36,377s-28.36,10.19-60,12.43-51.48-1.88-51.48-1.88l.18-39.05Z"/>
      <path class="cls-3" d="M308.27,293.6s-41.55-2.38-50.57-11.63c-8-8.16-9.63-40.32-9.63-40.32L224.58,246s4.36,39.84,16.55,56.26c12.37,16.65,65,9.34,65,9.34Z"/>
      <path class="cls-4" d="M238.11,205.5c14.69,11.35,23,57.21,23,57.21a92,92,0,0,1-16.6,7A49.53,49.53,0,0,1,228.62,272s-8.27-36.35-9.27-48.66C218.11,208.17,225.37,195.66,238.11,205.5Z"/>
      <g>
        <path class="cls-5" d="M93.65,446.66a46.2,46.2,0,0,0-11.67,1,32.86,32.86,0,0,0-9.7,4.48s1.13,12.25,8.53,27.19c10.61,21.42,15.06,24.48,19.88,24.36,2.27-.06,4.68-7.49,3.35-21.39a107.88,107.88,0,0,0-4.56-20.39"/>
        <path class="cls-6" d="M93.56,448.16a50.72,50.72,0,0,0-5.42.18,35.48,35.48,0,0,0-5.3.84,24.51,24.51,0,0,0-4.92,1.8,32.89,32.89,0,0,0-4.56,2.66h0l.79-1.72c.33,2,.78,4.12,1.31,6.16s1.12,4.11,1.76,6.14a106.49,106.49,0,0,0,4.6,11.93c1.8,3.86,3.74,7.81,5.78,11.58a62.43,62.43,0,0,0,6.86,10.61,9.94,9.94,0,0,0,4.32,3.22,5.83,5.83,0,0,0,1.22.22l.33,0h.26a.43.43,0,0,0-.25.08,2.28,2.28,0,0,0,.52-.69,8.9,8.9,0,0,0,.55-1.24,26.61,26.61,0,0,0,1.2-6,57.18,57.18,0,0,0,.24-6.37c0-8.57-1.86-17.1-4.24-25.42l1.71-.57a113.38,113.38,0,0,1,3.71,12.7c.49,2.16.92,4.34,1.23,6.55s.5,4.42.62,6.65a60.3,60.3,0,0,1,0,6.73,29.79,29.79,0,0,1-1.12,6.86,12.43,12.43,0,0,1-.71,1.79,5.67,5.67,0,0,1-1.45,1.9,3.15,3.15,0,0,1-1.73.72H99.81a9.58,9.58,0,0,1-2-.3,10.46,10.46,0,0,1-3.55-1.76A19.08,19.08,0,0,1,91.55,501a65.85,65.85,0,0,1-7.66-11.16c-1.1-1.92-2.16-3.86-3.2-5.81s-2-3.89-3-5.93a83.91,83.91,0,0,1-4.76-12.54c-.63-2.15-1.17-4.32-1.61-6.52a55.26,55.26,0,0,1-.95-6.74l-.08-1.15.87-.57h0a36.25,36.25,0,0,1,5.23-2.85,27.67,27.67,0,0,1,5.68-1.87,38.75,38.75,0,0,1,5.83-.7,53.49,53.49,0,0,1,5.81,0Z"/>
      </g>
      <g>
        <path class="cls-5" d="M233,493.34s-2.63,6.81-3,12.35a31,31,0,0,0,.74,9.4,116,116,0,0,0,29.31-.88c21.69-3.28,30-6.44,31-9.89s-5.59-7.56-19.35-10.29c-9.48-1.88-22.31-1.91-22.31-1.91"/>
        <path class="cls-6" d="M234.38,493.88c-.57,1.67-1.09,3.44-1.52,5.18a40.52,40.52,0,0,0-1,5.24,28,28,0,0,0-.06,5.21,27.62,27.62,0,0,0,.84,5.05h0l-1.7-1.49c2.11.14,4.37.24,6.57.24s4.43,0,6.65-.07c4.43-.18,8.86-.49,13.26-1.06s8.88-1.24,13.27-2a93.78,93.78,0,0,0,12.87-3.09,25.46,25.46,0,0,0,2.91-1.18,8.38,8.38,0,0,0,2.25-1.48,1.94,1.94,0,0,0,.45-.64.69.69,0,0,0,0-.43,4.46,4.46,0,0,0-1.49-1.73,23,23,0,0,0-5.51-2.92,59.24,59.24,0,0,0-6.27-2c-8.54-2.36-17.55-3.09-26.51-3.5v-2c4.57-.08,9.11,0,13.67.36,2.28.17,4.56.38,6.84.71s4.53.78,6.79,1.3a62.56,62.56,0,0,1,6.7,1.92,26.34,26.34,0,0,1,6.53,3.21,8,8,0,0,1,2.85,3.36,4.56,4.56,0,0,1,.14,2.9,5.68,5.68,0,0,1-1.31,2.22,12,12,0,0,1-3.3,2.37,29.4,29.4,0,0,1-3.34,1.46,97.51,97.51,0,0,1-13.41,3.58c-4.5.91-8.93,1.73-13.49,2.38a105.29,105.29,0,0,1-13.77,1,85.88,85.88,0,0,1-13.87-.81l-1.39-.21-.31-1.28h0a26.57,26.57,0,0,1-.5-3q-.16-1.47-.2-2.93a31.66,31.66,0,0,1,.36-5.88,43.88,43.88,0,0,1,1.32-5.62c.55-1.83,1.16-3.6,1.88-5.4Z"/>
      </g>
      <path class="cls-3" d="M214.53,392.31s10,23.17,12.35,35.19c3.27,16.93,6.23,65,6.23,65l21.67-2.67s4.72-46.65.52-68.5a157.51,157.51,0,0,0-12.79-38.46Z"/>
      <path class="cls-3" d="M138.68,387.08s1.86,24.21-3.66,31.37c-9.15,11.86-37.51,25.18-37.51,25.18l7,19.26s47-11.73,57.84-32.62,8.33-34.62,8.33-34.62Z"/>
      <path class="cls-2" d="M134.32,361.17s-2.86,18.29-3.9,25.74-3.67,21.65-3.67,21.65a88.51,88.51,0,0,0,21.44,7.66,122.59,122.59,0,0,0,26.48,2.69s3.65-16.17,5.43-27.07,2.43-21.37,2.43-21.37Z"/>
      <path class="cls-2" d="M244.52,358s3.84,10.45,7.26,22.48c3.5,12.33,7,24.49,7,24.49a141.33,141.33,0,0,1-21.55,6.84,167.24,167.24,0,0,1-25,3.82s-2.74-13.5-6-20.61-6.53-14.74-6.53-14.74Z"/>
      <path class="cls-7" d="M252.86,360.45s-15.05,7.82-55.41,11.05c-41.56,3.33-72.67-6.67-72.67-6.67s7-42.12,6.87-72.54c-.2-40.49,1.77-41.7-4-84.18,0,0,13.75-11.95,54.69-13.24,33.4-1.06,52.15,9,52.15,9a608.58,608.58,0,0,1,14.55,81.76A682.7,682.7,0,0,1,252.86,360.45Z"/>
      <g>
        <path class="cls-8" d="M202.32,221.45c-17.75,2.64-33.8-6.19-36.34-15-1.9-6.56,8.23-11.88,20.52-12.77s21.73,1,25.58,7.12C216.19,207.35,216.17,219.39,202.32,221.45Z"/>
        <path class="cls-9" d="M202.48,222.55a45.56,45.56,0,0,1-15.84-.64,39.88,39.88,0,0,1-14.59-6.23,21.33,21.33,0,0,1-5.67-5.82,11.52,11.52,0,0,1-1.62-4,6.76,6.76,0,0,1,.85-4.46,11.19,11.19,0,0,1,2.87-3.21A20.14,20.14,0,0,1,172,196a35,35,0,0,1,7.62-2.65,50.53,50.53,0,0,1,7.91-1.14,66.48,66.48,0,0,1,8-.08,38.17,38.17,0,0,1,8,1.22,18.79,18.79,0,0,1,7.45,3.82,13.17,13.17,0,0,1,2.74,3.38,17.31,17.31,0,0,1,1.6,3.93,15.69,15.69,0,0,1,0,8.43,12.38,12.38,0,0,1-5,6.85A18.41,18.41,0,0,1,202.48,222.55Zm-.33-2.2a16.12,16.12,0,0,0,6.72-2.55,9.81,9.81,0,0,0,3.85-5.56,13.11,13.11,0,0,0-.22-6.94,14.52,14.52,0,0,0-1.4-3.23,10.18,10.18,0,0,0-2.15-2.62,16.43,16.43,0,0,0-6.31-3.18,35.29,35.29,0,0,0-7.36-1.2,65.66,65.66,0,0,0-7.61,0,47.79,47.79,0,0,0-7.51.9,32.82,32.82,0,0,0-7.12,2.28,12.63,12.63,0,0,0-5.49,4.33,4.54,4.54,0,0,0-.67,3,9.35,9.35,0,0,0,1.28,3.2,19.36,19.36,0,0,0,5.06,5.32A35.09,35.09,0,0,0,187,220,42.64,42.64,0,0,0,202.15,220.35Z"/>
      </g>
      <path class="cls-3" d="M179.51,310.15s-36.87-4.35-44.44-13c-7.11-8.12,2.1-43.1,2.1-43.1l-24.7-5.65S103,289.51,109,308.57c7.3,22.92,69.5,21.7,69.5,21.7Z"/>
      <path class="cls-10" d="M129.67,206.67c-16.61,3.5-28.22,66.45-28.22,66.45a88.91,88.91,0,0,0,37.41,7.78s5.14-33.79,4.95-46S141.09,204.27,129.67,206.67Z"/>
      <path class="cls-11" d="M254.78,492.17s-3,3.33-9.67,3.67a35.9,35.9,0,0,1-12.41-1.72l-1.56-20.36,25.5-1.25Z"/>
      <path class="cls-11" d="M99.08,465.2c.51,1.41-4.46-2.2-7-9.42a16.14,16.14,0,0,1-.36-8.68l16.22-9.85,9.73,21.86Z"/>
      <g>
        <path class="cls-12" d="M224.12,308.55a5.7,5.7,0,0,1-4.29-2.12l-19.71-22.81a9.72,9.72,0,0,1-.75-11.16,5.66,5.66,0,0,1,4.71-2.78,5.78,5.78,0,0,1,4.36,2.16l19.64,22.81a9.73,9.73,0,0,1,.75,11.08,5.68,5.68,0,0,1-4.32,2.79Z"/>
        <path class="cls-12" d="M204.07,270.68a4.78,4.78,0,0,1,3.6,1.82l19.64,22.81a8.79,8.79,0,0,1,.67,9.89,4.71,4.71,0,0,1-3.55,2.33h-.3a4.7,4.7,0,0,1-3.53-1.78L200.87,283a8.79,8.79,0,0,1-.67-10,4.65,4.65,0,0,1,3.87-2.32m0-2h0a6.64,6.64,0,0,0-5.54,3.23,10.77,10.77,0,0,0,.83,12.36l19.71,22.81a6.68,6.68,0,0,0,5,2.47l.46,0a6.74,6.74,0,0,0,5.08-3.25,10.78,10.78,0,0,0-.83-12.28l-19.64-22.81a6.76,6.76,0,0,0-5.12-2.51Z"/>
      </g>
      <g>
        <path class="cls-12" d="M181.43,256.32a5.87,5.87,0,0,1-4.42-2.19,9.73,9.73,0,0,1-.75-11.22c5.62-8.53,13.88-13.42,22.65-13.42,7.83,0,15.41,3.83,21.35,10.79a9.73,9.73,0,0,1,.75,11.1,5.61,5.61,0,0,1-4.34,2.74h-.31a5.77,5.77,0,0,1-4.36-2.18c-3.52-4.11-8-6.37-12.53-6.37-5.13,0-10,2.91-13.31,8A5.69,5.69,0,0,1,181.43,256.32Z"/>
        <path class="cls-12" d="M198.91,230.49c7.26,0,14.63,3.46,20.59,10.44a8.79,8.79,0,0,1,.67,9.9,4.64,4.64,0,0,1-3.57,2.28h-.25a4.78,4.78,0,0,1-3.6-1.83c-3.85-4.5-8.61-6.72-13.29-6.72-5.29,0-10.47,2.83-14.14,8.43a4.68,4.68,0,0,1-3.89,2.31,4.87,4.87,0,0,1-3.66-1.84,8.8,8.8,0,0,1-.67-10c5.68-8.62,13.67-13,21.82-13m0-2h0c-9.12,0-17.68,5.06-23.49,13.87a10.78,10.78,0,0,0,.83,12.42,6.85,6.85,0,0,0,5.18,2.54A6.67,6.67,0,0,0,187,254.1c3.19-4.86,7.61-7.53,12.47-7.53,4.27,0,8.45,2.14,11.77,6a6.75,6.75,0,0,0,5.12,2.53h.37a6.67,6.67,0,0,0,5.12-3.19,10.78,10.78,0,0,0-.82-12.29c-6.13-7.19-14-11.15-22.11-11.15Z"/>
      </g>
      <g>
        <path class="cls-12" d="M184.53,303a5.82,5.82,0,0,1-4.37-2.14c-6.39-7.33-10.31-17.4-11.05-28.36s1.8-21.46,7.15-29.58a5.69,5.69,0,0,1,4.72-2.75,5.87,5.87,0,0,1,4.43,2.2,9.74,9.74,0,0,1,.75,11.19A31.22,31.22,0,0,0,188.54,289a9.74,9.74,0,0,1,.76,11.19,5.77,5.77,0,0,1-4.39,2.8Z"/>
        <path class="cls-12" d="M181,241.15a4.88,4.88,0,0,1,3.67,1.85,8.8,8.8,0,0,1,.67,10,32.22,32.22,0,0,0,2.47,36.63,8.8,8.8,0,0,1,.67,10,4.81,4.81,0,0,1-3.63,2.35h-.3a4.82,4.82,0,0,1-3.61-1.8c-6.24-7.16-10.08-17-10.81-27.77s1.76-21,7-29a4.68,4.68,0,0,1,3.88-2.3m0-2h0a6.67,6.67,0,0,0-5.55,3.2c-5.47,8.3-8.06,19-7.31,30.2s4.76,21.45,11.3,28.95a6.8,6.8,0,0,0,5.12,2.49l.45,0a6.84,6.84,0,0,0,5.16-3.26,10.79,10.79,0,0,0-.84-12.39A30.23,30.23,0,0,1,187,254.1a10.79,10.79,0,0,0-.83-12.39,6.85,6.85,0,0,0-5.19-2.55Z"/>
      </g>
      <g>
        <path class="cls-12" d="M201.21,311.36c-7.67,0-15.15-3.73-21.06-10.51a9.73,9.73,0,0,1-.76-11.22,5.73,5.73,0,0,1,4.76-2.81,5.82,5.82,0,0,1,4.38,2.16c3.5,4,7.91,6.26,12.42,6.26,5.18,0,10.07-3,13.4-8.11,6.58-10.18,5.52-26-2.37-35.18a9.72,9.72,0,0,1-.75-11.12,5.59,5.59,0,0,1,4.65-2.73,5.77,5.77,0,0,1,4.37,2.19c6.23,7.31,10.06,17.27,10.79,28.05s-1.73,21.17-6.93,29.24-12.75,13.07-21,13.71C202.46,311.33,201.83,311.36,201.21,311.36Z"/>
        <path class="cls-12" d="M215.89,239.09a4.78,4.78,0,0,1,3.61,1.84c6.1,7.15,9.84,16.9,10.55,27.47s-1.69,20.74-6.77,28.63S211,309.67,203,310.29q-.89.07-1.79.07c-7.39,0-14.54-3.56-20.3-10.17a8.8,8.8,0,0,1-.67-10,4.73,4.73,0,0,1,3.93-2.35,4.82,4.82,0,0,1,3.62,1.81c3.84,4.43,8.55,6.6,13.18,6.6,5.34,0,10.57-2.9,14.24-8.57,6.82-10.55,5.72-26.83-2.45-36.37a8.78,8.78,0,0,1-.67-9.92,4.58,4.58,0,0,1,3.81-2.28m0-2h0a6.57,6.57,0,0,0-5.48,3.19,10.76,10.76,0,0,0,.82,12.32c7.62,8.9,8.65,24.15,2.29,34-3.14,4.86-7.72,7.65-12.56,7.65-4.21,0-8.36-2.1-11.67-5.91a6.8,6.8,0,0,0-5.13-2.5,6.71,6.71,0,0,0-5.6,3.26,10.78,10.78,0,0,0,.84,12.42c6.1,7,13.85,10.85,21.81,10.85.64,0,1.3,0,1.94-.08,8.61-.67,16.36-5.7,21.81-14.16,5.31-8.25,7.83-18.85,7.09-29.85s-4.66-21.17-11-28.64a6.75,6.75,0,0,0-5.13-2.54Z"/>
      </g>
      <g class="cls-13">
        <path class="cls-14" d="M224.42,307.54a4.62,4.62,0,0,1-3.84-1.77L200.87,283a8.79,8.79,0,0,1-.67-10,4.42,4.42,0,0,1,7.47-.51l19.64,22.81a8.79,8.79,0,0,1,.67,9.89A4.71,4.71,0,0,1,224.42,307.54Z"/>
      </g>
      <g class="cls-13">
        <path class="cls-15" d="M216.6,253.11a4.71,4.71,0,0,1-3.85-1.82c-8.2-9.58-20.51-8.85-27.43,1.71-1.9,2.89-5.28,3.1-7.55.47a8.8,8.8,0,0,1-.67-10c10.74-16.3,29.76-17.35,42.41-2.53a8.79,8.79,0,0,1,.67,9.9A4.64,4.64,0,0,1,216.6,253.11Z"/>
      </g>
      <g class="cls-13">
        <path class="cls-16" d="M184.83,302a4.74,4.74,0,0,1-3.92-1.79c-6.24-7.16-10.08-17-10.81-27.77s1.76-21,7-29c1.9-2.89,5.28-3.09,7.55-.45a8.8,8.8,0,0,1,.67,10,32.22,32.22,0,0,0,2.47,36.63,8.8,8.8,0,0,1,.67,10A4.81,4.81,0,0,1,184.83,302Z"/>
      </g>
      <g class="cls-13">
        <path class="cls-2" d="M203,310.29c-8,.62-15.87-3-22.09-10.1a8.8,8.8,0,0,1-.67-10,4.49,4.49,0,0,1,7.55-.54c8.28,9.53,20.57,8.62,27.42-2s5.72-26.83-2.45-36.37a8.78,8.78,0,0,1-.67-9.92c1.87-2.86,5.19-3.06,7.42-.44,6.1,7.15,9.84,16.9,10.55,27.47s-1.69,20.74-6.77,28.63S211,309.67,203,310.29Z"/>
      </g>
      <path class="cls-3" d="M178.1,311.85s3.2-13.32,12.3-16.09,11.79,6,11.79,6,8.93-1.47,11.47,7c2.92,9.77.65,23-8.7,26.82s-17.76,2.42-23.6-2.18S177.49,317.67,178.1,311.85Z"/>
      <path class="cls-3" d="M291.92,294.28s3.33-13.1,12.31-15.85S314.8,284,314.8,284s7.06-2.45,11.36,6.65,1.54,24-7.69,27.82a22.71,22.71,0,0,1-23.36-3.05C289.29,310.84,291.31,300,291.92,294.28Z"/>
      <path class="cls-17" d="M228.36,63.23A61.49,61.49,0,0,1,240.64,97c.44,10.1-2.57,26.75-2.57,26.75L215.61,65.18Z"/>
      <path class="cls-3" d="M144.95,176.58s1,14.91,14,23.18c18.29,11.61,70.2,11.28,78,4.11,6.8-6.23,7.71-49.2,2.06-86.8-4.44-29.58-18.43-56.37-18.43-56.37s-28.27-8.16-52.18-5.78A84.17,84.17,0,0,0,134,66.7l8.67,94.53"/>
      <path class="cls-17" d="M145.46,67.22S151.29,83,151.1,96c-.16,11.27-3.16,37.63-3.16,37.63l8.48,21.71-4.73,7.86-2.82-8.72-5.81,1.89,3.88,29.47s-7.8-1-11.3-13.83c-2.61-9.6-14.46-46.62-15.71-60.34-.66-7.29-4.27-37.07,2.56-48.26a14.43,14.43,0,0,1,7.7-5.94s1.22-10.26,13.08-13.64c25.67-7.33,56.56-2.44,70.87,2.82,21.23,7.8,30.4,29.44,30.4,29.44s-19.81-6.89-27.43-8.49-27.69-8.85-27.69-8.85,15.54,6.91,19,9.31,18.36,11.35,18.36,11.35A99.38,99.38,0,0,1,195.76,76c-8.78-2.48-21.18-10.9-21.18-10.9A96.14,96.14,0,0,0,182,71.51c3.48,2.65,18.68,9.82,18.68,9.82s-18.5,1.67-33.4-2.25C157.22,76.45,145.46,67.22,145.46,67.22Z"/>
      <line class="cls-18" x1="153.54" y1="138.29" x2="135.47" y2="142.5"/>
      <path class="cls-3" d="M149.58,155.21s-5.89-15-16.27-16.64c-14.67-2.33-10.73,28.68-1,34.34,8.51,5,14.19,1.32,14.19,1.32"/>
      <path class="cls-19" d="M145.46,162.8c-1.4-1.78-2.71-3.48-4.06-5.08a33.14,33.14,0,0,0-4.2-4.29,15.57,15.57,0,0,0-2.31-1.58,18.05,18.05,0,0,0-2.47-1.23,12,12,0,0,0-5.87-.89c1.35-2.08,4.2-2.86,6.69-2.51a11.25,11.25,0,0,1,1.85.41,12.53,12.53,0,0,1,1.7.74,12.79,12.79,0,0,1,3,2.14,19,19,0,0,1,5.67,12.3Z"/>
      <path class="cls-20" d="M160.6,133.72c.4,7.82,6.41,13.27,14.65,13a13.65,13.65,0,0,0,13.31-14.43,14,14,0,1,0-28,1.42Z"/>
      <path class="cls-20" d="M213.41,133c.91,7.66,5.39,13.34,13.06,13.06,7.2-.27,12.21-6.71,12.12-14.42-.1-8.19-6.3-13.47-13.49-13.11S212.56,125.84,213.41,133Z"/>
      <path class="cls-21" d="M192.76,112.79a99.36,99.36,0,0,0-20.13,3.14,66.37,66.37,0,0,0-15.13,6.37l.13-4.18s2.61-5.55,14.19-8.63a60.69,60.69,0,0,1,20-1.5Z"/>
      <path class="cls-22" d="M185.21,123.35a15.09,15.09,0,0,0-6.41-2.58,16.93,16.93,0,0,0-6.55.37,17.76,17.76,0,0,0-6,2.65,19.55,19.55,0,0,0-4.92,5A11.48,11.48,0,0,1,164.7,122a14.22,14.22,0,0,1,6.86-3.76,14,14,0,0,1,7.83.28A10.19,10.19,0,0,1,185.21,123.35Z"/>
      <path class="cls-22" d="M238,127a12.9,12.9,0,0,0-4.48-4.52,18.23,18.23,0,0,0-5.78-2.14,13.46,13.46,0,0,0-6.08-.05,12.54,12.54,0,0,0-5.57,3.11,9.29,9.29,0,0,1,4.94-4.93,12,12,0,0,1,7.2-.67,13.51,13.51,0,0,1,6.54,3A8.76,8.76,0,0,1,238,127Z"/>
      <path class="cls-21" d="M212.32,113.28a51,51,0,0,1,14,1,47.8,47.8,0,0,1,13.91,5.2l-.55-3.69a21.76,21.76,0,0,0-11.45-7.14,32.2,32.2,0,0,0-15.61.12Z"/>
      <ellipse class="cls-23" cx="174.98" cy="134.03" rx="7.42" ry="5.83" transform="translate(35.54 304.73) rotate(-88.21)"/>
      <ellipse class="cls-23" cx="225.77" cy="132.59" rx="7.21" ry="5.35" transform="matrix(0.02, -1, 1, 0.02, 89.05, 355.88)"/>
      <path class="cls-18" d="M253.63,127.91s-5,21.26-6.12,22.64-31.45,1.71-31.45,1.71"/>
      <path class="cls-24" d="M220.1,179.36s-4,13.86-18.51,14.22c-17.32.43-23.27-20-23.27-20"/>
      <path class="cls-25" d="M209.26,190.91s-3.68,2.95-10.62,2-13.25-7.5-13.25-7.5a47.83,47.83,0,0,1,12.7.4A30.35,30.35,0,0,1,209.26,190.91Z"/>
      <path class="cls-20" d="M220.1,179.36s-1.86,4.66-2.59,5.25a30.8,30.8,0,0,1-14.94,3.21,63.82,63.82,0,0,1-19.24-5,39.75,39.75,0,0,1-2.69-4.49A35.64,35.64,0,0,1,179.1,174s15.67,5.42,23.65,6A107.63,107.63,0,0,0,220.1,179.36Z"/>
      <g>
        <path class="cls-3" d="M223.32,177.54a36.9,36.9,0,0,1-18.57,4.15c-16.88-.53-27.17-9-27.17-9"/>
        <path class="cls-26" d="M223.68,178.14a32.67,32.67,0,0,1-11.59,4.38,36.23,36.23,0,0,1-6.22.61c-1,0-2.08,0-3.11-.09s-2.07-.14-3.09-.27a46.43,46.43,0,0,1-12-3.09,38.65,38.65,0,0,1-10.7-6.3l1.22-1.48a40.31,40.31,0,0,0,5.07,2.87,47.65,47.65,0,0,0,5.41,2.28A54.63,54.63,0,0,0,200,179.8a45.36,45.36,0,0,0,11.65.17,42.85,42.85,0,0,0,5.75-1.11,33.76,33.76,0,0,0,5.52-1.92Z"/>
      </g>
      <path class="cls-27" d="M181.48,168.94l-2.55,2.26a22.29,22.29,0,0,0-2.06,2.07,20.51,20.51,0,0,0-1.73,2.32c-.55.86-1.09,1.79-1.71,2.9a5.64,5.64,0,0,1-.51-3.71,7.28,7.28,0,0,1,1.67-3.47,7.49,7.49,0,0,1,3.17-2.16A6.25,6.25,0,0,1,181.48,168.94Z"/>
      <path class="cls-28" d="M242.13,155.15s-7.21,16.64-36.37,16.42c-29.67-.22-51.87-20.68-51.87-20.68l-5.15,1.1s3,12.72,2.1,18.85c-.83,5.94-4.86,7.51-4.86,7.51s0,6.37,8,17.32,31.9,11.76,46.86,12.92,28.55-.35,35.69-5.76S242.13,155.15,242.13,155.15Zm-41,44.75c-18.53-.72-27.63-24.53-24.68-26.89s7.92,5.69,23.85,7.18c18.92,1.77,20.34-5,22.12-1.4C224.38,182.71,214.87,200.42,201.11,199.89Z"/>
      <g>
        <path class="cls-3" d="M207.15,111.53s7.46,20.45,10.6,33,3,23,1,24.59-8.35,2.76-15.31,2S193,168,193,168"/>
        <path class="cls-27" d="M207.15,111.53q4.54,9.85,8.3,20c1.23,3.4,2.45,6.82,3.49,10.31a91.69,91.69,0,0,1,2.62,10.71,55.52,55.52,0,0,1,1,11.2,24.71,24.71,0,0,1-.25,3l-.17.8a5.8,5.8,0,0,1-.23.84,6,6,0,0,1-1,2,7.15,7.15,0,0,1-.56.6,4.81,4.81,0,0,1-.46.34,7.07,7.07,0,0,1-.85.51,11.93,11.93,0,0,1-1.58.65,21.47,21.47,0,0,1-3,.74,36.59,36.59,0,0,1-11.46,0,19.74,19.74,0,0,1-5.48-1.68A11.75,11.75,0,0,1,193,168c3.8.53,7.09.76,10.5,1a38,38,0,0,0,5.1,0,32.56,32.56,0,0,0,5-.6,16.59,16.59,0,0,0,2.25-.6,7.07,7.07,0,0,0,.91-.39,2.3,2.3,0,0,0,.31-.18l.08-.05a.24.24,0,0,0-.12.09c-.06.09.08-.13.16-.41a2.26,2.26,0,0,0,.13-.46l.12-.51a22.83,22.83,0,0,0,.29-2.37,40.74,40.74,0,0,0,0-5.11c-.08-1.73-.23-3.47-.44-5.21-.82-7-2.67-13.87-4.5-20.82Z"/>
      </g>
      <g class="cls-29">
        <path class="cls-27" d="M210.3,197a9.05,9.05,0,0,1-3.24,3.85,11.05,11.05,0,0,1-10,1.37,9.6,9.6,0,0,1-4.2-2.75,45.64,45.64,0,0,0,4.66.63,20.24,20.24,0,0,0,4.32-.09,19.76,19.76,0,0,0,4.18-1.06A32.67,32.67,0,0,0,210.3,197Z"/>
      </g>
      <path class="cls-27" d="M145.53,174.3a34.41,34.41,0,0,0,3.15,12.87,30.72,30.72,0,0,0,7.83,10.39,34.7,34.7,0,0,0,11.57,5.89A85.78,85.78,0,0,0,181,206.31a234.75,234.75,0,0,0,26.63,2.13,100.6,100.6,0,0,0,13.29-.78,128.23,128.23,0,0,0,13.21-2.26,74.89,74.89,0,0,1-13,3.55,76.55,76.55,0,0,1-13.49,1.26c-4.52,0-9-.17-13.49-.41a133.75,133.75,0,0,1-13.46-1.32,77.84,77.84,0,0,1-13.25-3.07,34.66,34.66,0,0,1-12.07-6.53,30.11,30.11,0,0,1-7.68-11.29,31.53,31.53,0,0,1-1.81-6.55A28,28,0,0,1,145.53,174.3Z"/>
      <path class="cls-30" d="M254.72,130.58l-25.8.35c-8.6.13-17.21.2-25.8.38q-25.77.56-51.53,1.88l-.22-4q25.85-1.3,51.67-1.77c8.62-.16,17.22-.21,25.83-.32l25.83-.29Z"/>
      <path class="cls-18" d="M203.62,129.75s-3,20.61-5.27,22.55-34.69,2.21-37.78,1.36S152.62,130,152.62,130"/>
      <polygon class="cls-30" points="217.01 137.26 203.4 137.87 203.34 135.32 216.96 135.26 217.01 137.26"/>
      <path class="cls-31" d="M179.83,389.39c4.68-.64,9.34-1.19,14-1.74,2.33-.3,4.66-.54,7-.87s4.64-.6,6.95-.94,4.58-.73,6.85-1.21,4.51-1.11,6.75-1.74c4.47-1.32,8.9-2.85,13.3-4.55a71.58,71.58,0,0,1-12.78,6.12c-2.22.83-4.5,1.52-6.8,2.13s-4.68,1-7,1.38c-4.68.69-9.38,1.14-14.09,1.38A129.48,129.48,0,0,1,179.83,389.39Z"/>
      <path class="cls-31" d="M207.22,390.41a40.6,40.6,0,0,1,5.75-.72c1.89-.12,3.78-.15,5.64-.15l5.53-.06a55.06,55.06,0,0,1,5.76.2,19,19,0,0,1-5.46,2.17,23.62,23.62,0,0,1-5.84.68,36.71,36.71,0,0,1-5.76-.53A25.7,25.7,0,0,1,207.22,390.41Z"/>
      <path class="cls-32" d="M138.11,280.79c.19-1.91.45-3.81.68-5.72l.81-5.7c.54-3.8,1.18-7.59,1.81-11.37s1.14-7.55,1.67-11.35l.75-5.71.79-5.72c.06,1.93,0,3.85,0,5.78s-.13,3.85-.21,5.77c-.18,3.85-.51,7.7-1,11.53s-1.09,7.61-1.73,11.4l-1,5.68c-.37,1.89-.69,3.78-1.09,5.66Z"/>
      <path class="cls-32" d="M239.45,227c1.52,4.67,2.78,9.4,3.93,14.17s2.15,9.56,3,14.38c.42,2.41.82,4.83,1.17,7.27s.64,4.86.88,7.3c.5,4.87.88,9.76,1,14.66-1.92-9.62-3.25-19.3-5-28.88l-2.59-14.41C241,236.68,240.16,231.86,239.45,227Z"/>
      <polygon class="cls-7" points="82.41 449.45 90.46 470.66 86.65 484.27 83.09 476.95 86.1 468.7 79.88 449.67 82.41 449.45"/>
      <polygon class="cls-7" points="231.81 507.18 252.25 506.13 258.87 512.11 266.97 510.78 255.66 502.79 231.79 503.9 231.81 507.18"/>
      <g>
        <line class="cls-5" x1="95.32" y1="470.79" x2="104.12" y2="476.51"/>
        <path class="cls-33" d="M95.69,470.22a45,45,0,0,1,4.57,2.6,30.72,30.72,0,0,1,4.23,3.12l-.74,1.14a30.71,30.71,0,0,1-4.57-2.6A45.07,45.07,0,0,1,95,471.36Z"/>
      </g>
      <g>
        <line class="cls-5" x1="96.21" y1="477.87" x2="105.56" y2="482.64"/>
        <path class="cls-33" d="M96.52,477.27a45.05,45.05,0,0,1,4.82,2.1,30.73,30.73,0,0,1,4.53,2.66l-.62,1.21a30.7,30.7,0,0,1-4.82-2.1,45.05,45.05,0,0,1-4.53-2.66Z"/>
      </g>
      <g>
        <line class="cls-5" x1="253.86" y1="497.41" x2="262.39" y2="491.3"/>
        <path class="cls-33" d="M253.46,496.86a45.07,45.07,0,0,1,4.08-3.31,30.72,30.72,0,0,1,4.45-2.8l.79,1.11a30.71,30.71,0,0,1-4.08,3.31,45,45,0,0,1-4.45,2.8Z"/>
      </g>
      <g>
        <line class="cls-5" x1="260.78" y1="499.17" x2="268.62" y2="492.2"/>
        <path class="cls-33" d="M260.32,498.66a45.06,45.06,0,0,1,3.72-3.72,30.71,30.71,0,0,1,4.13-3.25l.9,1a30.72,30.72,0,0,1-3.72,3.72,45.07,45.07,0,0,1-4.13,3.25Z"/>
      </g>
      <path class="cls-34" d="M120,117.33s22.88-11.14,69-15.33c40.33-3.66,52.33,3,52.33,3s1.21-5.69.67-9.67c-1-7.33-2.33-10-2.33-10s-21.7-6.29-59-2C143,87.66,117.64,99,117.64,99a43.24,43.24,0,0,0-.33,8.33C117.64,111,120,117.33,120,117.33Z"/>
      <g class="cls-35">
        <path class="cls-27" d="M315.55,283.68A15.28,15.28,0,0,1,317.1,289a5.19,5.19,0,0,1-.58,3.11,3.21,3.21,0,0,1-1.37,1.25,4.22,4.22,0,0,1-1.67.38,5.37,5.37,0,0,1-3-.88,10.09,10.09,0,0,1-2.18-1.84,17,17,0,0,1-2.89-4.59h0l.79-.29a20.6,20.6,0,0,1,1.35,6,14.3,14.3,0,0,1-.79,6.39,6.62,6.62,0,0,1-.87,1.56,6,6,0,0,1-.61.71l-.35.32-.33.25a11.42,11.42,0,0,1-2.85,1.57,10.51,10.51,0,0,1-6.21.5,19.1,19.1,0,0,0,5.38-2.22,13,13,0,0,0,2.19-1.67l.25-.22.19-.2a3.58,3.58,0,0,0,.34-.45,6.9,6.9,0,0,0,.54-1.09,18.33,18.33,0,0,0,.9-5.42c.09-1.92.06-3.9.07-5.89v-3l.78,2.71h0a24.38,24.38,0,0,0,3.3,3.83,5.85,5.85,0,0,0,3.92,1.91,1.54,1.54,0,0,0,1.39-.7,3.92,3.92,0,0,0,.32-2,18.77,18.77,0,0,0-1.07-4.78Z"/>
      </g>
      <g class="cls-35">
        <path class="cls-27" d="M311,292.56c-.5,4.6-1.31,9.14-2.21,13.67a32.39,32.39,0,0,0-.61,6.7,31.45,31.45,0,0,0,.83,6.81,20.45,20.45,0,0,1-2.2-6.69,25.44,25.44,0,0,1-.1-7.14c.61-4.6,1.31-9.19,2.33-13.72Z"/>
      </g>
      <g class="cls-35">
        <path class="cls-27" d="M326.44,299.47c-2.82-.28-5.66-.5-8.49-.65s-5.67-.23-8.45-.09l0-2c2.91,0,5.77.28,8.62.58s5.68.69,8.51,1.14Z"/>
      </g>
      <g class="cls-35">
        <path class="cls-27" d="M325.73,312.24c-3-.36-6-.64-9-.81a63.58,63.58,0,0,0-8.9,0l-.15-2a65.16,65.16,0,0,1,9.18.39c3,.31,6,.72,9,1.22Z"/>
      </g>
      <g class="cls-35">
        <path class="cls-27" d="M202.24,302.71a52.5,52.5,0,0,1-5.79.33,40.53,40.53,0,0,1-5.88-.28,27,27,0,0,1,5.72-1.53,33.37,33.37,0,0,1,5.85-.52Z"/>
      </g>
      <path class="cls-34" d="M292.78,291.17a28.41,28.41,0,0,0-2.33,10.33c-.42,8.05,1.33,12.33,1.33,12.33l-13.33.33s-1.78-8.29-.67-14.67c1.33-7.67,3.33-10.33,3.33-10.33Z"/>
      <path class="cls-34" d="M177.3,308.73a40.26,40.26,0,0,0-2.63,9.88c-.9,6.08,1.62,13.25,1.62,13.25L160.51,331a57.65,57.65,0,0,1-.1-15.37c1.16-7.1,3.37-8.93,3.37-8.93Z"/>
    </g>
  </g>
</svg>
