<svg xmlns="http://www.w3.org/2000/svg" width="518" height="430" viewBox="0 0 518 430">
  <defs>
    <style>
      .cls-1 {
        isolation: isolate;
      }

      .cls-2 {
        fill: #3c5968;
      }

      .cls-3 {
        fill: #3b5b66;
      }

      .cls-4 {
        opacity: 0.74;
      }

      .cls-5 {
        fill: #2b4c57;
      }

      .cls-6 {
        fill: #40606d;
      }

      .cls-7 {
        fill: #42626d;
      }

      .cls-8 {
        fill: #2f545e;
      }

      .cls-9 {
        fill: #b6e0ef;
      }

      .cls-10 {
        fill: #2483c5;
      }

      .cls-11, .cls-22 {
        opacity: 0.6;
      }

      .cls-12 {
        fill: #405e6b;
      }

      .cls-13 {
        opacity: 0.7;
      }

      .cls-14 {
        fill: #fff;
      }

      .cls-15 {
        fill: #9cb5b4;
      }

      .cls-16 {
        fill: #c0d9dd;
      }

      .cls-17 {
        fill: #90adb5;
      }

      .cls-18 {
        fill: #9ab5bc;
      }

      .cls-19 {
        opacity: 0.4;
      }

      .cls-20 {
        fill: #95b0b7;
      }

      .cls-21, .cls-22, .cls-23, .cls-29, .cls-30, .cls-32, .cls-52 {
        fill: none;
        stroke-miterlimit: 10;
      }

      .cls-21, .cls-22, .cls-23 {
        stroke: #95b0b7;
        stroke-width: 0.51px;
      }

      .cls-21 {
        opacity: 0.59;
      }

      .cls-23 {
        opacity: 0.44;
      }

      .cls-24 {
        fill: #83a6ae;
      }

      .cls-25 {
        fill: #7f9ea6;
      }

      .cls-26 {
        fill: #79979e;
      }

      .cls-27 {
        fill: #6c8e95;
      }

      .cls-28 {
        fill: #88adb5;
      }

      .cls-29 {
        stroke: #88adb5;
        stroke-width: 2.09px;
      }

      .cls-30 {
        stroke: #6c8e95;
        stroke-width: 2.06px;
      }

      .cls-31 {
        fill: #456572;
      }

      .cls-32 {
        stroke: #ed618d;
        stroke-width: 7.15px;
      }

      .cls-33 {
        fill: #ff6892;
      }

      .cls-34 {
        fill: #d85976;
        opacity: 0.71;
      }

      .cls-35 {
        fill: #f1b291;
      }

      .cls-36 {
        opacity: 0.8;
      }

      .cls-37 {
        fill: #a77056;
      }

      .cls-38 {
        opacity: 0.66;
      }

      .cls-39 {
        fill: #8c6444;
      }

      .cls-40 {
        opacity: 0.77;
      }

      .cls-41 {
        opacity: 0.52;
      }

      .cls-42 {
        opacity: 0.49;
      }

      .cls-43, .cls-58 {
        opacity: 0.9;
      }

      .cls-44 {
        mix-blend-mode: multiply;
      }

      .cls-45 {
        fill: #72be44;
      }

      .cls-46 {
        opacity: 0.3;
      }

      .cls-47 {
        fill: #ec125f;
      }

      .cls-48 {
        fill: #f9a51a;
      }

      .cls-49 {
        opacity: 0.36;
      }

      .cls-50 {
        opacity: 0.41;
      }

      .cls-51 {
        fill: #755946;
      }

      .cls-52 {
        stroke: #353e45;
        stroke-width: 3px;
      }

      .cls-53 {
        fill: #a7755c;
      }

      .cls-54 {
        fill: #f7f5f5;
      }

      .cls-55 {
        fill: #684f3c;
      }

      .cls-56 {
        fill: #5b422a;
      }

      .cls-57 {
        fill: #1b6087;
      }

      .cls-58 {
        fill: #65262d;
      }

      .cls-59 {
        fill: #cb5b65;
        opacity: 0.84;
      }

      .cls-60 {
        fill: #915a46;
      }

      .cls-61 {
        fill: #353e45;
      }
    </style>
  </defs>
  <title>Q_kaffee</title>
  <g class="cls-1">
    <g id="Ebene_1" data-name="Ebene 1">
      <path class="cls-2" d="M232,339.85l.37,29S204,381.21,172.6,385.61s-51.48,1.66-51.48,1.66l-2.5-39Z"/>
      <path class="cls-3" d="M217.93,193.62l11,2.78s20.76,58.22,32.75,73.09C285.39,298.93,299,302.1,299,302.1s3.37,7.42,3.35,14.42-15.71,12.38-15.71,12.38S262,325.5,247.15,310.35C224,286.78,209.1,226.1,209.1,226.1Z"/>
      <g class="cls-4">
        <path class="cls-5" d="M230.94,229.4q1.68,10.35,2.86,20.75T235.87,271c.29,3.48.55,7,.74,10.45l.67,10.43c.44,7,.84,13.93,1.14,20.91q-1.6-10.36-2.75-20.76c-.38-3.47-.75-6.94-1-10.42l-.94-10.41q-.95-10.41-1.69-20.85T230.94,229.4Z"/>
      </g>
      <path class="cls-6" d="M226.18,195.91s-28.34-11.2-68-7.95c-40.56,3.33-68.41,15.19-68.41,15.19S104.27,282,105.19,315s-.25,58.51-.25,58.51,32.11,8.59,81.54,3c39.28-4.48,58.36-11.25,58.36-11.25s-3.94-34.79-10.1-86.38c-2.88-24.16-5.84-65.43-5.84-65.43"/>
      <g>
        <polyline class="cls-6" points="156.11 328.07 154.55 342.84 112.05 343.38 112.89 330.75"/>
        <path class="cls-5" d="M156.11,328.07,155.62,343l0,.93-1,0c-3.54.11-7.08.15-10.62.18H133.31c-7.08-.08-14.17-.1-21.25-.23h-.56l.05-.52.65-6.3.69-6.3-.15,6.34-.19,6.33-.5-.53c7.08-.32,14.16-.52,21.24-.78l10.62-.26c3.54-.06,7.08-.11,10.62-.09l-1.06,1Z"/>
      </g>
      <g>
        <path class="cls-7" d="M187.61,308.42s-19.95-15.5-30.33-25.36-20.32-25-20.32-25l13.87-9.93-17.5-.28S121.89,213.5,123,200c.62-7.73,8.3-15.36,8.3-15.36l60.48-2.27s8.38,10.39,10.68,14.11,10.73,37.62,10.73,37.62l-12.67,6.16,13,3.58s-2.26,18.53-5.86,30.83-14.09,32.18-14.09,32.18"/>
        <path class="cls-8" d="M187.25,308.88q-7.13-5.48-14.11-11.12c-4.65-3.77-9.28-7.59-13.76-11.59-2.24-2-4.45-4.08-6.52-6.27s-4.06-4.46-6-6.78c-3.84-4.64-7.45-9.44-10.86-14.43h0l-.61-.92.9-.63,13.94-9.83h0l.58,1.85L133.31,249h-.81l-.25-.77q-2.62-8-4.83-16.08c-1.48-5.4-2.85-10.83-3.94-16.35-.54-2.76-1-5.53-1.35-8.35a35.58,35.58,0,0,1-.15-8.65,22.89,22.89,0,0,1,3.22-8.14,39.55,39.55,0,0,1,5.28-6.82l.3-.31.46,0,60.48-2.27h0l.58,0,.35.44c2.94,3.74,5.85,7.48,8.64,11.35.69,1,1.38,1.94,2,3a22.74,22.74,0,0,1,1.38,3.5c.75,2.28,1.4,4.56,2,6.85,2.55,9.15,4.84,18.35,7.08,27.56h0l.13.52-.49.25-12.53,6.45h0l-.17-1.87,13.08,3.45h0l1,.25-.13,1c-.75,5.53-1.65,11-2.71,16.49q-.79,4.1-1.76,8.18c-.66,2.71-1.35,5.42-2.25,8.09a154.57,154.57,0,0,1-6.38,15.47q-3.53,7.57-7.45,14.93l-1.07-.57q3.77-7.39,7.17-15a153.1,153.1,0,0,0,6.06-15.39,135.93,135.93,0,0,0,3.7-16.1c1-5.44,1.77-10.92,2.43-16.4l.83,1.23h0l-13-3.71-2.62-.75,2.45-1.12h0l12.81-5.87-.36.77h0c-2.39-9.16-4.83-18.32-7.51-27.39-.68-2.26-1.37-4.52-2.13-6.73a22.37,22.37,0,0,0-1.26-3.09c-.59-.94-1.3-1.9-2-2.84-2.81-3.77-5.78-7.46-8.76-11.12l.93.42h0l-60.48,2.27.76-.33a37.45,37.45,0,0,0-4.94,6.39,20.68,20.68,0,0,0-2.92,7.31,33.73,33.73,0,0,0,.16,8c.31,2.73.79,5.45,1.32,8.17,1.08,5.43,2.44,10.82,3.91,16.18s3.08,10.7,4.8,16l-1.06-.78,17.5.39,3,.07L151.43,249h0l-13.81,10,.29-1.55h0c3.27,4.94,6.79,9.78,10.51,14.41,1.87,2.31,3.79,4.58,5.8,6.77s4.13,4.24,6.32,6.27c4.39,4,8.94,7.91,13.52,11.75S183.29,304.24,188,308Z"/>
      </g>
      <path class="cls-9" d="M189.17,300.06s-19.58-19.42-34.67-52.23c-11.54-25.09-17.67-52.45-17.67-52.45L192.14,193s6.57,25.92,6.62,48.59A185.71,185.71,0,0,1,189.17,300.06Z"/>
      <path class="cls-10" d="M175.29,200.35l8.79,12.43s-2,2.36-7,2.76a21.29,21.29,0,0,1-8.68-1.06l5.16-14Z"/>
      <g class="cls-11">
        <path class="cls-12" d="M197.06,207.93a27.86,27.86,0,0,1-4.56,4.33c-1.61,1.26-3.25,2.41-5,3.51h0l-.82.58-.6-.85L173,196.92l2.64-.3-9.09,21.87-.28.68-.67-.16h0c-2.47-.49-4.87-1.09-7.28-1.76s-4.78-1.43-7.14-2.29a43.48,43.48,0,0,1-6.92-3.18,34.17,34.17,0,0,1-6.31-4.54l2.15-2.09a31.81,31.81,0,0,0,5.54,4.32,42.06,42.06,0,0,0,6.4,3.27c2.24.95,4.54,1.79,6.86,2.57s4.68,1.48,7,2.06h0l-1,.52,7.85-22.35,1-2.85,1.64,2.54,12.35,19.1-1.43-.28h0c1.54-1.16,3.07-2.42,4.49-3.73a25.38,25.38,0,0,0,3.77-4.16Z"/>
      </g>
      <path class="cls-10" d="M180,215.6s8.4,25.77,10.38,37.24S194,284,194,284L189.3,300l-12.72-14.66-2.39-32.81-.1-36.65Z"/>
      <g>
        <polyline class="cls-6" points="217.75 319.28 221.94 333.73 244.13 328.94 238.97 316.51"/>
        <path class="cls-5" d="M217.75,319.28,223,333.42l-1.3-.78q2.77-.64,5.55-1.19l5.58-1.06,11.18-2-.42.8q-2.34-6.32-4.62-12.66,2.89,6.09,5.7,12.21l.29.62-.7.18-11,2.77-5.52,1.33q-2.77.64-5.55,1.2l-1.09.22-.21-1Z"/>
      </g>
      <g class="cls-13">
        <path class="cls-6" d="M189.77,301.14s2.39,30.47,2.82,44.72.12,29,.12,29"/>
        <path class="cls-5" d="M190.27,301.1c1.06,12.26,2.07,24.52,2.85,36.82.4,6.15.61,12.32.73,18.48s.16,12.32.11,18.49l-2.5-.05c.17-6.13.26-12.28.27-18.42s-.08-12.27-.36-18.41c-.53-12.28-1.29-24.56-2.1-36.83Z"/>
      </g>
      <path class="cls-5" d="M168.11,385.92c4.51-.94,9-1.78,13.5-2.63s9-1.72,13.42-2.68,8.83-2.08,13.18-3.42,8.66-2.84,13-4.44a77.24,77.24,0,0,1-12.43,6c-2.14.86-4.35,1.56-6.56,2.25s-4.48,1.18-6.72,1.7c-4.51.94-9.05,1.7-13.62,2.23A128.64,128.64,0,0,1,168.11,385.92Z"/>
      <path class="cls-5" d="M196.1,384.81a44.34,44.34,0,0,1,5.55-.94c1.82-.21,3.65-.35,5.43-.48l5.38-.43a54.46,54.46,0,0,1,5.61-.18,19,19,0,0,1-5.16,2.5,24.05,24.05,0,0,1-5.61,1.1,29.56,29.56,0,0,1-5.67-.16A20.91,20.91,0,0,1,196.1,384.81Z"/>
      <path class="cls-8" d="M154.86,320A195.31,195.31,0,0,1,134,322.7c-3.49.32-7,.47-10.51.63s-7,.16-10.53.11a137.5,137.5,0,0,1-21-1.81,77.23,77.23,0,0,1-10.29-2.44,49,49,0,0,1-5-1.86,22.45,22.45,0,0,1-4.59-2.59,26.25,26.25,0,0,0,4.82,2c.82.28,1.66.5,2.49.75s1.68.44,2.53.62a98.5,98.5,0,0,0,10.26,1.76c.86.12,1.72.2,2.59.29l2.59.27c1.73.12,3.46.31,5.2.37,3.47.21,6.94.36,10.42.38,7,.14,13.93,0,20.9-.23S147.86,320.34,154.86,320Z"/>
      <polygon class="cls-14" points="33.37 326.77 425.9 303.13 501.14 369.24 88.85 402.22 33.37 326.77"/>
      <path class="cls-15" d="M19.47,327l26.22-1.74,26.22-1.67,52.45-3.32,104.9-6.53,104.92-6.3c35-2.11,70-4.07,105-5.46l0,.74c-34.93,2.82-69.89,5.07-104.87,7.17l-104.92,6.32-104.93,6.1-52.47,3-26.23,1.49-26.24,1.42Z"/>
      <polygon class="cls-16" points="197.86 326.03 343.4 317.01 376.56 338.67 223.49 349.97 197.86 326.03"/>
      <polygon class="cls-17" points="222.41 357.94 223.49 349.97 376.56 338.67 375.93 344.94 222.41 357.94"/>
      <polygon class="cls-18" points="197.86 326.03 197.14 329.77 222.41 357.94 223.49 349.97 197.86 326.03"/>
      <g class="cls-19">
        <path class="cls-20" d="M209.28,327.85c6.36,5.81,12.56,11.45,18.71,17.3l-.38-.14L366,335.23l-.24.93-25.19-16.64.1,0C296.79,322.45,253.09,325.21,209.28,327.85Zm-1-.34c44.12-2.89,88.35-5.66,132.36-8.3h.06l0,0,25.56,16.07,1.31.82-1.54.11L227.68,346l-.22,0-.16-.15C220.88,339.85,214.53,333.59,208.32,327.51Z"/>
      </g>
      <line class="cls-21" x1="212.97" y1="331.08" x2="345.62" y2="322.5"/>
      <line class="cls-21" x1="218.71" y1="336.2" x2="351.58" y2="326.61"/>
      <line class="cls-21" x1="223.46" y1="341.61" x2="358.83" y2="331.17"/>
      <line class="cls-22" x1="224.21" y1="326.65" x2="244.07" y2="344.71"/>
      <line class="cls-22" x1="325.53" y1="320.15" x2="348.13" y2="336.85"/>
      <line class="cls-22" x1="239.88" y1="325.61" x2="259.96" y2="342.9"/>
      <line class="cls-22" x1="257.07" y1="324.77" x2="276.39" y2="341.83"/>
      <line class="cls-23" x1="272.73" y1="323.73" x2="293.32" y2="340.75"/>
      <line class="cls-23" x1="289.14" y1="322.41" x2="311.52" y2="339.87"/>
      <line class="cls-22" x1="308.36" y1="321.5" x2="329.45" y2="338.5"/>
      <polygon class="cls-24" points="280.32 354.75 349.06 352.15 364.48 366.6 295.71 373.12 280.32 354.75"/>
      <polygon class="cls-25" points="243.65 320.9 403.89 317.34 420.48 206.74 247.2 206.11 243.65 320.9"/>
      <polygon class="cls-26" points="310.7 363.09 308.02 360.55 309.04 306.44 314.04 307.36 310.7 363.09"/>
      <polygon class="cls-27" points="310.7 363.09 314.23 305 347.67 303.85 336.03 361.89 310.7 363.09"/>
      <polygon class="cls-24" points="275.37 308.56 379.64 306.49 388.31 238.98 280.17 239.75 275.37 308.56"/>
      <polygon class="cls-27" points="243.65 320.9 236.72 317.28 240.42 203.42 249.35 208.15 243.65 320.9"/>
      <polygon class="cls-28" points="249.37 208.15 420.5 206.74 413.01 203.8 240.44 203.42 249.37 208.15"/>
      <polyline class="cls-29" points="275.37 308.56 280.17 239.75 388.31 238.98"/>
      <polygon class="cls-27" points="295.71 373.12 295.56 377.05 363.55 370.81 364.48 366.6 295.71 373.12"/>
      <polygon class="cls-26" points="280.32 354.75 280.16 358.68 295.56 377.05 295.71 373.12 280.32 354.75"/>
      <line class="cls-30" x1="272.68" y1="261.28" x2="271.61" y2="281.99"/>
      <line class="cls-30" x1="268.04" y1="261.47" x2="266.97" y2="282.17"/>
      <line class="cls-30" x1="263.22" y1="261.66" x2="262.15" y2="282.37"/>
      <line class="cls-30" x1="396.12" y1="260.5" x2="393.83" y2="281.26"/>
      <line class="cls-30" x1="391.31" y1="260.69" x2="389.01" y2="281.45"/>
      <path class="cls-31" d="M90.16,202.79s-46.48,65.08-35.3,97c11.91,34,85.37,35.63,85.37,35.63s-2.66-6.44-1-20.48c1.18-10,6.52-20.16,6.52-20.16s-38,2.42-53.82-10.94c-6.49-5.46,18.14-45,18.14-45a61.71,61.71,0,0,0-7.94-23C96.79,206.63,90.16,202.79,90.16,202.79Z"/>
      <path class="cls-32" d="M183.06,294.57s-4.52-6.18-13.24-1.55c-7.69,4.08-4.56,19.21,2.67,21.8s10.78-.3,10.78-.3"/>
      <path class="cls-33" d="M178.61,281.71l.56,43.87s4.77,6.07,19,6.57c16.46.58,20-5.16,20-5.16l1.67-44.29s-1.92-5.39-20.49-6.22C182.48,275.72,178.61,281.71,178.61,281.71Z"/>
      <path class="cls-34" d="M182.39,283.11s3.22,3.37,16.68,3.61c14.54.26,18.19-3.16,18.19-3.16s-5.93-4.34-18.83-4.08S182.39,283.11,182.39,283.11Z"/>
      <path class="cls-35" d="M131.58,314.54c1.1-13.27,8.87-18.55,16.78-20.11s20.28,1,23.2,2.4c6.87,3.26,6,10.34,1.82,11.54a29.17,29.17,0,0,1-8.21,1.43,20.18,20.18,0,0,1-3.57,20c-5.28,6.3-19.53,4.88-23.43,2.51C131.29,328.13,131.05,320.89,131.58,314.54Z"/>
      <g class="cls-36">
        <path class="cls-37" d="M172.93,309a11.75,11.75,0,0,1-4.26,2.14,19.15,19.15,0,0,1-4.65.7,22,22,0,0,1-2.34-.06c-.39,0-.78,0-1.16-.1l-1.15-.18a18.59,18.59,0,0,1-4.46-1.34l.09-.54c1.55-.17,3-.2,4.51-.3s2.92-.18,4.37-.29l4.31-.41c1.44-.12,2.9-.28,4.4-.38Z"/>
      </g>
      <g class="cls-38">
        <path class="cls-37" d="M166.08,323.06a6.92,6.92,0,0,1-2.92,1.84,12.14,12.14,0,0,1-3.21.65,13.44,13.44,0,0,1-3.22-.13,11,11,0,0,1-3.1-1v0a12.07,12.07,0,0,1,1.56-.45c.51-.12,1-.24,1.52-.32,1-.22,2-.34,3-.51s1.93-.31,2.87-.48,1.91-.39,2.73-.59Z"/>
      </g>
      <path class="cls-39" d="M186,285a63.07,63.07,0,0,0,15,1.64,65,65,0,0,0,13-1.48s-3.21-1.59-13.39-2S186,285,186,285Z"/>
      <g class="cls-40">
        <path class="cls-5" d="M110.06,238.84a92.3,92.3,0,0,1-3.84,8.63c-1.37,2.81-2.84,5.56-4.28,8.29s-2.75,5.52-4.29,8.26a74.51,74.51,0,0,1-5,8,74.12,74.12,0,0,1,2.85-9,70.82,70.82,0,0,1,3.77-8.68,80.69,80.69,0,0,1,4.92-8.07A63.41,63.41,0,0,1,110.06,238.84Z"/>
      </g>
      <g class="cls-41">
        <path class="cls-5" d="M103.1,289.15c3.45.85,6.9,1.47,10.36,2s6.93,1,10.42,1.36l10.5,1.1,10.54,1.15a73.11,73.11,0,0,1-10.64.4c-3.55-.07-7.08-.32-10.61-.67a78.88,78.88,0,0,1-10.52-1.82A47.3,47.3,0,0,1,103.1,289.15Z"/>
      </g>
      <g class="cls-42">
        <path class="cls-14" d="M202.14,280.62a23,23,0,0,1,1.78-8.58,28.15,28.15,0,0,1,4.9-7.43,69.37,69.37,0,0,0,5.27-6.45,23.81,23.81,0,0,0,3.23-7.16,19.45,19.45,0,0,0,.46-7.71,66.69,66.69,0,0,0-1.86-8.09c-.36-1.4-.72-2.83-1-4.29a31.16,31.16,0,0,1-.43-4.45,21.81,21.81,0,0,1,1.65-8.62,29.6,29.6,0,0,0,.34,8.43,45.89,45.89,0,0,0,2.43,8,46.13,46.13,0,0,1,2.63,8.47,21.23,21.23,0,0,1-.39,9.32,24.53,24.53,0,0,1-4,8.31,47.06,47.06,0,0,1-6.11,6.39,32.81,32.81,0,0,0-5.43,6.21A31.33,31.33,0,0,0,202.14,280.62Z"/>
      </g>
      <g class="cls-42">
        <path class="cls-14" d="M203.25,253.81a21.15,21.15,0,0,0,3.62-12.45,19.46,19.46,0,0,0-1.35-6.16c-.19-.5-.4-1-.64-1.46s-.5-1.08-.74-1.62a21.89,21.89,0,0,1-1.09-3.49,22.32,22.32,0,0,1-.37-7.23,27.64,27.64,0,0,1,1.63-6.92,34.84,34.84,0,0,1,7.29-11.76,51.31,51.31,0,0,0-5.23,12.41,26.21,26.21,0,0,0-.44,12.83,19.45,19.45,0,0,0,1,3l.66,1.5c.26.55.48,1.11.69,1.69a18.61,18.61,0,0,1,1.16,7.2A17.12,17.12,0,0,1,203.25,253.81Z"/>
      </g>
      <g>
        <path class="cls-14" d="M201.79,323.37a9.84,9.84,0,0,1-7.57-3.71A14.85,14.85,0,0,1,191,310a16.69,16.69,0,0,1,3.36-10.06,11.24,11.24,0,0,1,8.75-4.68,9.83,9.83,0,0,1,7.53,3.65,14.81,14.81,0,0,1,3.29,9.74,16.89,16.89,0,0,1-2.28,8.46l.41.48a3.27,3.27,0,0,1,0,4,2.38,2.38,0,0,1-1.73,1h-.12a2.14,2.14,0,0,1-1.65-.8l-.47-.56a10.44,10.44,0,0,1-5.72,2.18Zm1-22.38a6.49,6.49,0,0,0-5,2.72,10,10,0,0,0-2,6,8.82,8.82,0,0,0,1.92,5.76,5.59,5.59,0,0,0,4.29,2.11,5.71,5.71,0,0,0,2.53-.61l-2.63-3.12a3.27,3.27,0,0,1,0-4,2.37,2.37,0,0,1,1.85-1,2.13,2.13,0,0,1,1.64.79l2.77,3.27a9.67,9.67,0,0,0-1.05-9.91A5.59,5.59,0,0,0,202.83,301Z"/>
        <path class="cls-14" d="M203.09,295.71a9.34,9.34,0,0,1,7.17,3.48,14.34,14.34,0,0,1,3.17,9.43,16.44,16.44,0,0,1-2.39,8.51l.63.74a2.81,2.81,0,0,1,0,3.4,1.92,1.92,0,0,1-1.39.78h-.09a1.67,1.67,0,0,1-1.28-.63l-.77-.92a10.05,10.05,0,0,1-5.81,2.36h-.51a9.33,9.33,0,0,1-7.21-3.54,14.37,14.37,0,0,1-3.13-9.38,16.2,16.2,0,0,1,3.26-9.77,10.7,10.7,0,0,1,8.37-4.49M202,318.09a6.26,6.26,0,0,0,3.27-1l-3-3.56a2.81,2.81,0,0,1,0-3.39,1.89,1.89,0,0,1,1.47-.79A1.65,1.65,0,0,1,205,310l3.24,3.83c1.9-3.54,1.64-8.22-.79-11.09a6,6,0,0,0-4.64-2.26,6.92,6.92,0,0,0-5.41,2.9,10.48,10.48,0,0,0-2.12,6.33,9.29,9.29,0,0,0,2,6.07,6,6,0,0,0,4.66,2.28m1.1-23.33a11.71,11.71,0,0,0-9.13,4.87A17.16,17.16,0,0,0,190.5,310a15.32,15.32,0,0,0,3.35,10,10.31,10.31,0,0,0,7.94,3.88l.57,0a10.83,10.83,0,0,0,5.61-2l.19.22a2.61,2.61,0,0,0,2,1h.14a2.85,2.85,0,0,0,2.08-1.15,3.76,3.76,0,0,0,0-4.61l-.19-.23a17.41,17.41,0,0,0,2.18-8.4,15.29,15.29,0,0,0-3.4-10.06,10.3,10.3,0,0,0-7.89-3.82ZM202,317.13a5.12,5.12,0,0,1-3.93-1.94,8.34,8.34,0,0,1-1.8-5.45,9.52,9.52,0,0,1,1.92-5.75,6,6,0,0,1,4.66-2.53,5.12,5.12,0,0,1,3.91,1.92,9.08,9.08,0,0,1,1.27,8.68l-2.25-2.67a2.6,2.6,0,0,0-2-1,2.85,2.85,0,0,0-2.23,1.16,3.76,3.76,0,0,0,0,4.59l2.21,2.62a5.09,5.09,0,0,1-1.75.32Z"/>
      </g>
      <g class="cls-43">
        <g class="cls-44">
          <path class="cls-10" d="M195.94,320a1.64,1.64,0,0,1-1.36-.62,14.37,14.37,0,0,1-3.13-9.38,16.2,16.2,0,0,1,3.26-9.77,1.69,1.69,0,0,1,2.73-.18,2.81,2.81,0,0,1,0,3.38,10.48,10.48,0,0,0-2.12,6.33,9.29,9.29,0,0,0,2,6.07,2.81,2.81,0,0,1,0,3.38A1.89,1.89,0,0,1,195.94,320Z"/>
        </g>
        <g class="cls-44">
          <path class="cls-45" d="M202.3,322.88a9.28,9.28,0,0,1-7.72-3.53,2.81,2.81,0,0,1,0-3.38,1.69,1.69,0,0,1,2.73-.16c2.74,3.26,7.25,3,10.05-.59s2.85-9.19.09-12.45a2.81,2.81,0,0,1,0-3.4,1.71,1.71,0,0,1,2.76-.18,14.34,14.34,0,0,1,3.17,9.43,16.18,16.18,0,0,1-3.31,9.83A10.79,10.79,0,0,1,202.3,322.88Z"/>
        </g>
        <g class="cls-46">
          <path class="cls-45" d="M202.3,322.88a9.28,9.28,0,0,1-7.72-3.53,2.81,2.81,0,0,1,0-3.38,1.69,1.69,0,0,1,2.73-.16c2.74,3.26,7.25,3,10.05-.59s2.85-9.19.09-12.45a2.81,2.81,0,0,1,0-3.4,1.71,1.71,0,0,1,2.76-.18,14.34,14.34,0,0,1,3.17,9.43,16.18,16.18,0,0,1-3.31,9.83A10.79,10.79,0,0,1,202.3,322.88Z"/>
        </g>
        <g class="cls-44">
          <path class="cls-47" d="M208.85,303.38a1.64,1.64,0,0,1-1.37-.62c-2.75-3.25-7.26-3-10.05.64a1.69,1.69,0,0,1-2.73.17,2.81,2.81,0,0,1,0-3.38c4.3-5.56,11.27-6,15.54-1a2.81,2.81,0,0,1,0,3.4A1.93,1.93,0,0,1,208.85,303.38Z"/>
        </g>
        <g class="cls-44">
          <path class="cls-48" d="M210.25,322.06a1.66,1.66,0,0,1-1.37-.63l-6.62-7.85a2.81,2.81,0,0,1,0-3.39A1.7,1.7,0,0,1,205,310l6.63,7.85a2.81,2.81,0,0,1,0,3.4A1.92,1.92,0,0,1,210.25,322.06Z"/>
        </g>
        <g class="cls-49">
          <path class="cls-48" d="M210.25,322.06a1.66,1.66,0,0,1-1.37-.63l-6.62-7.85a2.81,2.81,0,0,1,0-3.39A1.7,1.7,0,0,1,205,310l6.63,7.85a2.81,2.81,0,0,1,0,3.4A1.92,1.92,0,0,1,210.25,322.06Z"/>
        </g>
        <g class="cls-50">
          <path class="cls-47" d="M208.85,303.38a1.64,1.64,0,0,1-1.37-.62c-2.75-3.25-7.26-3-10.05.64a1.69,1.69,0,0,1-2.73.17,2.81,2.81,0,0,1,0-3.38c4.3-5.56,11.27-6,15.54-1a2.81,2.81,0,0,1,0,3.4A1.93,1.93,0,0,1,208.85,303.38Z"/>
        </g>
      </g>
      <path class="cls-51" d="M189.5,51.06s17.91,17.61,20,31.32c1.5,10-.16,27-.16,27l-30-55.11Z"/>
      <path class="cls-35" d="M123.93,174s2.95,14.65,17,21.14c19.66,9.1,71.08,1.94,77.88-6.2,5.92-7.07,1.16-49.79-9.38-86.32-8.3-28.74-25.69-53.45-25.69-53.45s-29.1-4.37-52.49,1.14A84.17,84.17,0,0,0,98.57,66.55l21,92.56"/>
      <path class="cls-51" d="M110,65.55s7.84,14.83,9.38,27.8c1.32,11.2,1.82,37.72,1.82,37.72a104.58,104.58,0,0,1,8,12.08c4.43,8.41,2.58,15.2,2.58,15.2l-15.6-15.91L126.06,180s-7.51-.34-12-9.24S93.64,126.42,90.59,113c-1.62-7.14-7.19-42.47-3.84-49.18a11.47,11.47,0,0,1,6.87-5.9A16.44,16.44,0,0,1,104.8,42.66c16.87-6.37,55.6-9.14,70.62-6.54C187,38.12,203.8,53,203.8,53s-14.91,4.08-22.68,3.5-28.62-5.13-28.62-5.13,12.87,5.22,16.66,7.14S180.07,66,180.07,66s-14.74.82-19.75.18-25.42-7.45-25.42-7.45S143,62.83,146.79,65a61.49,61.49,0,0,1,7.36,5.09s-13.44,2.79-23.72,1.52S110,65.55,110,65.55Z"/>
      <line class="cls-52" x1="127.42" y1="134.94" x2="110.05" y2="141.48"/>
      <path class="cls-35" d="M125.71,152.23s-7.81-14.08-18.32-14.35c-14.85-.38-6.86,29.85,3.5,34.18,9.09,3.8,14.24-.56,14.24-.56"/>
      <path class="cls-53" d="M122.63,160.3c-1.62-1.58-3.15-3.09-4.69-4.5a33.13,33.13,0,0,0-4.73-3.7,15.57,15.57,0,0,0-2.5-1.26,18.06,18.06,0,0,0-2.61-.9,12,12,0,0,0-5.94-.11c1.06-2.24,3.79-3.39,6.3-3.37a11.26,11.26,0,0,1,1.89.16,12.52,12.52,0,0,1,1.79.51,12.79,12.79,0,0,1,3.25,1.72,19,19,0,0,1,7.24,11.44Z"/>
      <path class="cls-54" d="M133.8,129.48c1.42,7.7,8.1,12.31,16.24,11a13.65,13.65,0,0,0,11.3-16.06c-1.42-7.7-7.72-11.83-15.32-10.42S132.38,121.78,133.8,129.48Z"/>
      <path class="cls-54" d="M186.06,121.78c1.91,7.48,7.1,12.52,14.66,11.22,7.1-1.21,11.22-8.26,10.11-15.89-1.18-8.1-8-11.53-15.07-10.21A12,12,0,0,0,186.06,121.78Z"/>
      <path class="cls-55" d="M162.93,104.49a99.36,99.36,0,0,0-19.55,5.76,66.37,66.37,0,0,0-14.16,8.31l-.42-4.16s1.86-5.85,12.93-10.42a60.69,60.69,0,0,1,19.6-4.12Z"/>
      <path class="cls-56" d="M156.84,116a16.43,16.43,0,0,0-6.63-.92,21.31,21.31,0,0,0-6.29,1.37,20.6,20.6,0,0,0-5.63,3,17.49,17.49,0,0,0-4.43,5,10.33,10.33,0,0,1,2.79-6.74,14.82,14.82,0,0,1,6.26-4.12,15.63,15.63,0,0,1,7.42-.88A10.45,10.45,0,0,1,156.84,116Z"/>
      <path class="cls-56" d="M210.41,114.14a16.56,16.56,0,0,0-5.14-4,17.78,17.78,0,0,0-6-1.67,18.32,18.32,0,0,0-6.24.34,12.22,12.22,0,0,0-5.6,3.16,8.92,8.92,0,0,1,4.93-5,14.21,14.21,0,0,1,7.18-1,13.66,13.66,0,0,1,6.82,2.51A10.26,10.26,0,0,1,210.41,114.14Z"/>
      <path class="cls-55" d="M182.39,102.4a51,51,0,0,1,14-.84,47.8,47.8,0,0,1,14.47,3.32l-1-3.59a21.76,21.76,0,0,0-12.29-5.57,32.2,32.2,0,0,0-15.46,2.17Z"/>
      <ellipse class="cls-57" cx="150.6" cy="132.51" rx="7.42" ry="5.74" transform="translate(-9.33 253.61) rotate(-78.48)"/>
      <ellipse class="cls-57" cx="200.41" cy="125.43" rx="7.21" ry="5.35" transform="matrix(0.1, -0.99, 0.99, 0.1, 54.81, 311.71)"/>
      <path class="cls-52" d="M225.26,111.46s-1.7,21.38-2.67,22.9-31.37,6.19-31.37,6.19"/>
      <g>
        <path class="cls-35" d="M177,101.35s10.09,19.28,14.85,31.35,6,22.37,4.2,24.25-7.92,3.84-14.92,4-10.71-1.77-10.71-1.77"/>
        <path class="cls-37" d="M177,101.35q5.8,9.16,10.86,18.76c1.67,3.21,3.32,6.43,4.82,9.76a91.68,91.68,0,0,1,4,10.27,55.53,55.53,0,0,1,2.47,11,24.72,24.72,0,0,1,.14,3l-.06.82a5.81,5.81,0,0,1-.12.87,6,6,0,0,1-.73,2.12,7.18,7.18,0,0,1-.48.67,4.83,4.83,0,0,1-.41.4,7.06,7.06,0,0,1-.78.62,11.94,11.94,0,0,1-1.48.85,21.47,21.47,0,0,1-2.85,1.13,36.59,36.59,0,0,1-11.37,1.5,19.74,19.74,0,0,1-5.66-.95,11.75,11.75,0,0,1-5-3c3.84,0,7.13-.18,10.54-.39a38,38,0,0,0,5.06-.63,32.56,32.56,0,0,0,4.84-1.25A16.6,16.6,0,0,0,193,156a7.08,7.08,0,0,0,.86-.51,2.31,2.31,0,0,0,.28-.22l.08-.07a.24.24,0,0,0-.1.11c0,.1.07-.14.1-.43a2.27,2.27,0,0,0,.07-.47l0-.53a22.86,22.86,0,0,0,0-2.39,40.74,40.74,0,0,0-.67-5.07c-.31-1.7-.69-3.41-1.13-5.11-1.73-6.79-4.47-13.39-7.2-20Z"/>
      </g>
      <path class="cls-58" d="M198.8,166.89s-2.14,14.26-16.48,16.53c-17.11,2.71-25.71-16.78-25.71-16.78"/>
      <path class="cls-59" d="M189.57,179.76s-3.26,3.41-10.26,3.39-14.13-5.69-14.13-5.69a47.83,47.83,0,0,1,12.64-1.28A30.35,30.35,0,0,1,189.57,179.76Z"/>
      <path class="cls-54" d="M198.8,166.89s-1.23,4.86-1.88,5.54a30.8,30.8,0,0,1-14.39,5.15,63.82,63.82,0,0,1-19.72-2.4,39.75,39.75,0,0,1-3.26-4.1,35.64,35.64,0,0,1-2.09-4.12s16.24,3.31,24.23,2.81A107.63,107.63,0,0,0,198.8,166.89Z"/>
      <g>
        <path class="cls-35" d="M201.75,164.66a36.9,36.9,0,0,1-17.86,6.56c-16.8,1.7-28.12-5.39-28.12-5.39"/>
        <path class="cls-60" d="M202.18,165.21a32.67,32.67,0,0,1-10.92,5.87,36.23,36.23,0,0,1-6.08,1.42c-1,.17-2.07.23-3.1.32s-2.07.13-3.1.14a46.43,46.43,0,0,1-12.3-1.48,38.65,38.65,0,0,1-11.43-4.83l1-1.63a40.32,40.32,0,0,0,5.4,2.18,47.65,47.65,0,0,0,5.66,1.55A54.63,54.63,0,0,0,179,170a45.35,45.35,0,0,0,11.57-1.37,42.86,42.86,0,0,0,5.55-1.86,33.76,33.76,0,0,0,5.22-2.63Z"/>
      </g>
      <path class="cls-37" d="M159.15,161.64l-2.23,2.58a22.3,22.3,0,0,0-1.77,2.33,20.5,20.5,0,0,0-1.4,2.53c-.43.93-.85,1.91-1.31,3.1a5.64,5.64,0,0,1-1-3.61,7.28,7.28,0,0,1,1.2-3.66,7.49,7.49,0,0,1,2.86-2.55A6.25,6.25,0,0,1,159.15,161.64Z"/>
      <g class="cls-36">
        <path class="cls-37" d="M191.4,185.65a9.05,9.05,0,0,1-2.71,4.24,11.05,11.05,0,0,1-9.71,2.67,9.6,9.6,0,0,1-4.53-2.17,45.65,45.65,0,0,0,4.7,0,20.24,20.24,0,0,0,4.27-.66,19.76,19.76,0,0,0,4-1.6A32.68,32.68,0,0,0,191.4,185.65Z"/>
      </g>
      <path class="cls-37" d="M124.22,171.68A34.4,34.4,0,0,0,129,184a30.72,30.72,0,0,0,9.13,9.27,34.7,34.7,0,0,0,12.25,4.32,85.78,85.78,0,0,0,13.2,1.14,234.76,234.76,0,0,0,26.68-1.4,100.6,100.6,0,0,0,13.07-2.52,128.2,128.2,0,0,0,12.8-4,74.89,74.89,0,0,1-12.43,5.23,76.54,76.54,0,0,1-13.21,3c-4.49.58-8.93,1-13.43,1.37a133.75,133.75,0,0,1-13.52.47,77.84,77.84,0,0,1-13.54-1.3,34.66,34.66,0,0,1-12.82-4.89,30.11,30.11,0,0,1-9.1-10.18,31.54,31.54,0,0,1-2.65-6.26A28,28,0,0,1,124.22,171.68Z"/>
      <path class="cls-61" d="M226.7,114l-25.53,3.74c-8.51,1.26-17,2.46-25.52,3.77q-25.48,3.95-50.83,8.65l-.74-3.93q25.45-4.7,51-8.55c8.52-1.29,17-2.48,25.57-3.72l25.57-3.69Z"/>
      <path class="cls-52" d="M175.93,119.88s-.23,20.18-2.18,22.39-34.18,7.41-37.36,7-11-22.43-11-22.43"/>
      <polygon class="cls-61" points="190.19 125.56 176.78 127.96 176.38 125.44 189.88 123.58 190.19 125.56"/>
    </g>
  </g>
</svg>
