<svg xmlns="http://www.w3.org/2000/svg" width="324.12" height="541.89" viewBox="0 0 324.12 541.89">
  <defs>
    <style>
      .cls-1 {
        isolation: isolate;
      }

      .cls-2 {
        fill: #252e33;
      }

      .cls-3 {
        fill: #353e45;
      }

      .cls-4 {
        opacity: 0.68;
      }

      .cls-5 {
        fill: #f1b291;
      }

      .cls-6 {
        fill: #3b5b66;
      }

      .cls-7 {
        fill: #3c5968;
      }

      .cls-8 {
        fill: #2b4c57;
      }

      .cls-9 {
        fill: #3a4449;
      }

      .cls-10 {
        fill: #40606d;
      }

      .cls-11 {
        fill: #42626d;
      }

      .cls-12 {
        fill: #2f545e;
      }

      .cls-13 {
        fill: #b6e0ef;
      }

      .cls-14 {
        fill: #2483c5;
      }

      .cls-15 {
        opacity: 0.6;
      }

      .cls-16 {
        fill: #405e6b;
      }

      .cls-17 {
        opacity: 0.7;
      }

      .cls-18 {
        fill: #755946;
      }

      .cls-19, .cls-47, .cls-48, .cls-49, .cls-50 {
        fill: none;
      }

      .cls-19 {
        stroke: #353e45;
        stroke-width: 3px;
      }

      .cls-19, .cls-45, .cls-47, .cls-48, .cls-49, .cls-50 {
        stroke-miterlimit: 10;
      }

      .cls-20 {
        fill: #a7755c;
      }

      .cls-21 {
        fill: #f7f5f5;
      }

      .cls-22 {
        fill: #684f3c;
      }

      .cls-23 {
        fill: #5b422a;
      }

      .cls-24 {
        fill: #1b6087;
      }

      .cls-25 {
        fill: #a77056;
      }

      .cls-26 {
        fill: #915a46;
      }

      .cls-27 {
        fill: #a38954;
      }

      .cls-28 {
        fill: #605238;
      }

      .cls-29 {
        fill: #9ec1c6;
      }

      .cls-30 {
        fill: #89bc5c;
      }

      .cls-31 {
        opacity: 0.8;
      }

      .cls-32 {
        opacity: 0.72;
      }

      .cls-33 {
        fill: #456572;
      }

      .cls-34 {
        opacity: 0.77;
      }

      .cls-35 {
        fill: #d1b87f;
      }

      .cls-36 {
        fill: #b29c71;
      }

      .cls-37 {
        fill: #d8d068;
      }

      .cls-38 {
        fill: #4198c4;
      }

      .cls-39 {
        fill: #72b240;
      }

      .cls-40 {
        fill: #e25d64;
      }

      .cls-41 {
        fill: #be8bd8;
      }

      .cls-42 {
        fill: #e2eced;
      }

      .cls-43 {
        opacity: 0.64;
      }

      .cls-44 {
        fill: #eff4f4;
      }

      .cls-45, .cls-53 {
        fill: #536872;
      }

      .cls-45 {
        stroke: #405a63;
        stroke-width: 1.05px;
      }

      .cls-45, .cls-51 {
        opacity: 0.3;
      }

      .cls-46 {
        mix-blend-mode: multiply;
      }

      .cls-47 {
        stroke: #2582c5;
      }

      .cls-47, .cls-48, .cls-49, .cls-50 {
        stroke-width: 1.21px;
      }

      .cls-48 {
        stroke: #e51a60;
      }

      .cls-49 {
        stroke: #75b747;
      }

      .cls-50 {
        stroke: #f6a31f;
      }

      .cls-52 {
        fill: #516672;
      }

      .cls-53 {
        opacity: 0.18;
      }
    </style>
  </defs>
  <g class="cls-1">
    <g id="Ebene_1" data-name="Ebene 1">
      <path class="cls-2" d="M250.15,49.33s1.63-5.92,4.27-8.52,5.48-2.43,6.79-1.37,4.3,5.31,2.86,5.9-3.85-1.36-5.48.25a26.7,26.7,0,0,0-4.17,5.67Z"/>
      <path class="cls-3" d="M172.37,82.68s-25.22,1.23-32.5-19.09,18.38-43.72,32-46.87,43.91-1.61,58.16,10,62.65,54.51,62.42,71.06-51.87,2.32-51.87,2.32"/>
      <g class="cls-4">
        <path class="cls-2" d="M150.38,57.87a87.52,87.52,0,0,1,12.74-3.07c2.15-.4,4.32-.64,6.5-.91s4.36-.38,6.56-.47,4.42,0,6.61.1,4.39.38,6.56.75A50.68,50.68,0,0,1,202,57.88c-4.33-.64-8.61-1.07-12.89-1.35-2.15-.1-4.28-.25-6.42-.26s-4.27-.05-6.41.06c-4.27.1-8.57.44-12.88.72S154.76,57.68,150.38,57.87Z"/>
      </g>
      <path class="cls-5" d="M64.1,285.34c-1.67-11.25-2.26-12.49-7.41-17.81-3.82-3.95-6.34-16.83-10-15.79-5.52,1.55-4.43,7.88-4.43,7.88s-9.55-1.8-13.2,2.89-1.49,10.42-1.49,10.42-3.92,8.82-1.44,16.55,13.16,15.7,25.73,15.41C64.57,304.6,64.44,287.64,64.1,285.34Z"/>
      <path class="cls-6" d="M139.85,210.4l-3.07,1.23s-10.82,61.63-31.7,73.3-42.76-14.44-42.76-14.44a64.42,64.42,0,0,1-3.07,18.43c-3.07,8.91-10.13,16.89-10.13,16.89S83.35,336.44,115,319.86s38.69-53.26,38.69-53.26Z"/>
      <path class="cls-7" d="M136.57,354l-.45,29s28.32,12.44,59.75,16.92,51.48,1.79,51.48,1.79l2.6-39Z"/>
      <path class="cls-8" d="M133.88,245.22q-.13,10.36-.69,20.68c-.35,6.89-.82,13.76-1.31,20.63s-1.11,13.74-1.78,20.61-1.43,13.73-2.36,20.57q.11-10.36.63-20.69c.31-6.88.79-13.76,1.29-20.63s1.1-13.75,1.8-20.61S132.93,252.06,133.88,245.22Z"/>
      <path class="cls-9" d="M252.42,503.33a50.77,50.77,0,0,1,6.75,10.6,31.12,31.12,0,0,1,2.31,9.1s-9.22,5.27-25.66,8a135,135,0,0,1-35.08,1.29s1.94-6.93,13.9-14.13c8.23-5,22.09-10.48,22.09-10.48"/>
      <path class="cls-9" d="M171.12,496s4.32,5.88,6.15,11.13a31.13,31.13,0,0,1,1.74,9.27s-8.7,3.41-25.52,4.81a195.39,195.39,0,0,1-36.55-.43s2.42-6.77,15-13c8.66-4.29,23-8.68,23-8.68"/>
      <path class="cls-7" d="M136.5,380.38s-1.35,31.76-.7,55.12c.62,22.45,7.15,65.73,7.15,65.73a89.73,89.73,0,0,0,17.7.58A116.68,116.68,0,0,0,177.73,499s-5.34-39.26-5.91-62.38c-.57-18,.15-43,.15-43"/>
      <path class="cls-10" d="M138.68,210.73s28.21-11.52,67.89-8.71c40.6,2.88,68.57,14.43,68.57,14.43s-13.6,79-14.15,112,.9,58.5.9,58.5-32,8.95-81.5,3.86c-39.33-4-58.49-10.59-58.49-10.59s3.56-34.83,9.15-86.49c2.61-24.19,5.1-65.49,5.1-65.49"/>
      <path class="cls-7" d="M208.28,395.48s1.76,29.37,4.66,53.31c1.23,18.54,10.74,61.83,10.74,61.83a140.66,140.66,0,0,0,16.72-.07,70.63,70.63,0,0,0,18.32-3.63s-8.4-39.95-9.63-58.73a526.84,526.84,0,0,1-1.47-53.1"/>
      <g>
        <path class="cls-11" d="M178.5,322.79s19.77-15.72,30-25.7,20-25.22,20-25.22l-14-9.77,17.5-.47s11.06-34.48,9.83-48c-.7-7.73-8.48-15.27-8.48-15.27L173,196.78s-8.27,10.49-10.53,14.23-10.31,37.74-10.31,37.74l12.74,6-13,3.73s2.47,18.5,6.2,30.76,14.45,32,14.45,32"/>
        <path class="cls-12" d="M178.13,322.33q7-5.64,13.79-11.47C196.46,307,201,303,205.31,299c2.17-2,4.27-4.13,6.25-6.34s3.88-4.5,5.72-6.83c3.66-4.68,7.13-9.55,10.35-14.53h0l.3,1.55L214,262.94h0l-2.47-1.76,3-.1,17.5-.59-1,.79c1.66-5.29,3.2-10.65,4.62-16s2.7-10.78,3.72-16.23c.51-2.72.95-5.45,1.23-8.18a33.35,33.35,0,0,0,.08-8,20.56,20.56,0,0,0-3-7.28,37.11,37.11,0,0,0-5-6.33l.76.32-60.49-1.6h0l.92-.43c-2.94,3.69-5.87,7.42-8.64,11.22-.67.95-1.37,1.92-2,2.86a22.93,22.93,0,0,0-1.22,3.11c-.74,2.22-1.41,4.49-2.06,6.75-2.58,9.1-4.92,18.29-7.2,27.47h0l-.37-.76,12.88,5.72h0l2.46,1.1-2.61.77-13,3.86h0l.81-1.24c.72,5.46,1.59,10.94,2.62,16.37a135.46,135.46,0,0,0,3.87,16,152.17,152.17,0,0,0,6.23,15.32c2.31,5,4.77,10,7.33,14.9l-1.06.58q-4-7.33-7.61-14.84a152.7,152.7,0,0,1-6.55-15.4c-.94-2.66-1.66-5.36-2.34-8.07s-1.29-5.42-1.85-8.15q-1.68-8.19-2.89-16.46l-.15-1,1-.27h0l13-3.59-.15,1.87h0l-12.6-6.31-.49-.24.12-.53h0c2.14-9.24,4.33-18.46,6.77-27.64.62-2.29,1.25-4.58,2-6.87a21.73,21.73,0,0,1,1.34-3.51c.64-1.09,1.31-2,2-3,2.75-3.9,5.61-7.67,8.51-11.44l.35-.45.58,0h0l60.49,1.59.46,0,.31.31a39.47,39.47,0,0,1,5.35,6.76,22.74,22.74,0,0,1,3.31,8.11,35.71,35.71,0,0,1,0,8.65c-.29,2.82-.75,5.6-1.26,8.36-1,5.52-2.34,11-3.76,16.39s-3,10.78-4.66,16.14l-.24.77-.81,0-17.5.35.55-1.86h0l14,9.67.91.63-.6.92h0c-3.35,5-6.91,9.86-10.7,14.55-1.9,2.33-3.86,4.62-5.9,6.84s-4.24,4.32-6.45,6.35c-4.45,4-9,7.91-13.64,11.74s-9.28,7.58-14,11.28Z"/>
      </g>
      <path class="cls-13" d="M176.85,314.46s19.36-19.64,34.08-52.62C222.19,236.63,228,209.21,228,209.21l-55.33-1.76s-6.28,26-6.08,48.66A185.69,185.69,0,0,0,176.85,314.46Z"/>
      <path class="cls-14" d="M189.61,214.6,181,227.13s2,2.34,7,2.68a21.25,21.25,0,0,0,8.67-1.16l-5.31-13.93Z"/>
      <g class="cls-15">
        <path class="cls-16" d="M170.34,220.63a24.88,24.88,0,0,0,3.82,4.12,57.27,57.27,0,0,0,4.53,3.68h0l-1.43.29,12.14-19.23,1.62-2.57,1,2.84,8.1,22.26-1-.51h0c2.35-.61,4.71-1.35,7-2.14s4.59-1.67,6.83-2.65a41.81,41.81,0,0,0,6.36-3.34,30.71,30.71,0,0,0,5.49-4.38l2.18,2.07a34.41,34.41,0,0,1-6.26,4.61,43.15,43.15,0,0,1-6.88,3.25c-2.34.89-4.72,1.67-7.11,2.37s-4.79,1.33-7.26,1.84h0l-.67.18-.29-.69-9.33-21.77,2.64.28L179,229.86l-.59.86-.83-.57h0c-1.73-1.08-3.39-2.21-5-3.45a28.36,28.36,0,0,1-4.61-4.28Z"/>
      </g>
      <path class="cls-14" d="M185.12,229.9s-8.11,25.86-10,37.36-3.32,31.18-3.32,31.18l4.87,16,12.56-14.8,2-32.83L191,230.16Z"/>
      <g>
        <polyline class="cls-10" points="148.48 333.99 144.46 348.49 122.21 343.95 127.23 331.46"/>
        <path class="cls-8" d="M148.48,334l-2.95,14.79-.2,1-1.1-.2c-1.86-.35-3.71-.74-5.56-1.14l-5.53-1.27-11-2.65-.71-.17.28-.62q2.74-6.15,5.56-12.27c-1.46,4.24-3,8.48-4.47,12.71l-.43-.79,11.2,1.88,5.59,1c1.86.36,3.71.73,5.56,1.13l-1.3.8Z"/>
      </g>
      <g class="cls-17">
        <path class="cls-10" d="M176.26,315.54s-2,30.49-2.32,44.74.2,29,.2,29"/>
        <path class="cls-8" d="M176.76,315.57c-.68,12.28-1.3,24.57-1.69,36.85-.21,6.14-.23,12.27-.15,18.41s.23,12.29.47,18.41l-2.5.08q-.18-9.26-.1-18.48c.05-6.16.19-12.34.53-18.49.64-12.3,1.52-24.57,2.44-36.85Z"/>
      </g>
      <path class="cls-8" d="M200.36,400.28a131.83,131.83,0,0,1-13.76-1C182,398.73,177.5,398,173,397c-2.24-.52-4.51-1-6.72-1.71s-4.42-1.4-6.56-2.26A78.31,78.31,0,0,1,147.3,387q6.47,2.42,13,4.48c4.35,1.35,8.72,2.52,13.18,3.45s8.93,1.84,13.41,2.72S195.85,399.33,200.36,400.28Z"/>
      <path class="cls-8" d="M172.37,399.1a21,21,0,0,1-5.54,1.39,29,29,0,0,1-5.67.15,24.16,24.16,0,0,1-5.61-1.12A19.06,19.06,0,0,1,150.4,397a54,54,0,0,1,5.61.2l5.38.44c1.78.13,3.61.28,5.43.49A44.82,44.82,0,0,1,172.37,399.1Z"/>
      <path class="cls-18" d="M167.25,67.3S150.69,86.19,149.65,100c-.75,10.08,2.15,26.93,2.15,26.93l25.84-57.17Z"/>
      <path class="cls-5" d="M241.69,185.1s-1.86,14.83-15.37,22.33c-18.94,10.52-70.74,7.16-78.12-.45-6.42-6.62-4.83-49.57,3-86.77C157.36,90.94,172.89,65,172.89,65s28.7-6.5,52.43-2.72a84.08,84.08,0,0,1,33.76,13.77L244.9,169.92"/>
      <path class="cls-18" d="M247.55,75.9s-6.73,15.37-7.3,28.42c-.5,11.26,1,37.75,1,37.75a104.49,104.49,0,0,0-7.11,12.64c-3.8,8.7-1.45,15.34-1.45,15.34L247,153l-7,38.17s7.47-.89,11.24-10.1,17.16-45.7,19.2-59.32c1.09-7.24,4-42.89.21-49.33a11.47,11.47,0,0,0-7.28-5.38A16.44,16.44,0,0,0,251.1,52.69c-17.28-5.11-56.12-5-70.91-1.33-11.37,2.84-27.06,18.93-27.06,18.93s15.18,3,22.88,1.82,28.16-7.22,28.16-7.22S191.73,71,188.08,73.23s-10.33,8.3-10.33,8.3,14.76-.27,19.71-1.27,24.8-9.3,24.8-9.3-7.77,4.66-11.4,7.1a61.63,61.63,0,0,0-7,5.62s13.61,1.79,23.77-.24S247.55,75.9,247.55,75.9Z"/>
      <line class="cls-19" x1="235.34" y1="146.38" x2="253.13" y2="151.63"/>
      <path class="cls-5" d="M238.31,163.5s6.75-14.62,17.21-15.66c14.78-1.48,9,29.26-1,34.34-8.78,4.46-14.24.49-14.24.49"/>
      <path class="cls-20" d="M242,171.32a19,19,0,0,1,6.39-11.95,12.67,12.67,0,0,1,3.11-2,14,14,0,0,1,1.75-.64,11.75,11.75,0,0,1,1.87-.3c2.5-.2,5.3.75,6.53,2.9a11.94,11.94,0,0,0-5.91.55,18.09,18.09,0,0,0-2.54,1.08,15.47,15.47,0,0,0-2.4,1.45,32.59,32.59,0,0,0-4.45,4C244.88,168,243.47,169.62,242,171.32Z"/>
      <path class="cls-21" d="M228.57,141.41c-.86,7.78-7.17,12.87-15.39,12.13a13.66,13.66,0,0,1-12.45-15.19,14,14,0,1,1,27.84,3.06Z"/>
      <path class="cls-21" d="M175.89,137.58c-1.36,7.59-6.16,13-13.8,12.27-7.18-.69-11.8-7.41-11.26-15.1.58-8.17,7.07-13.09,14.23-12.3S177.15,130.5,175.89,137.58Z"/>
      <path class="cls-22" d="M197.61,121.75a59,59,0,0,0,19.1.08c10.76-1.83,17,3.57,17,3.57l-.67-4.7s-3.54-7.43-17.77-5a104.51,104.51,0,0,1-17.35,1.63Z"/>
      <path class="cls-23" d="M204.59,129.62a10.19,10.19,0,0,1,6.1-4.5,13.94,13.94,0,0,1,7.84.18,14.26,14.26,0,0,1,6.63,4.16,11.41,11.41,0,0,1,3,6.95,19.34,19.34,0,0,0-4.62-5.25,17.69,17.69,0,0,0-5.86-3,16.81,16.81,0,0,0-6.52-.75A15.09,15.09,0,0,0,204.59,129.62Z"/>
      <path class="cls-23" d="M151.72,130.19a8.76,8.76,0,0,1,3.58-6,13.52,13.52,0,0,1,6.71-2.59,12.09,12.09,0,0,1,7.15,1.08,9.31,9.31,0,0,1,4.64,5.21,12.65,12.65,0,0,0-5.38-3.43,13.49,13.49,0,0,0-6.07-.3,18.25,18.25,0,0,0-5.89,1.8A12.9,12.9,0,0,0,151.72,130.19Z"/>
      <path class="cls-22" d="M180.18,116A31.77,31.77,0,0,0,166.72,110c-8.1-1.48-13.42.37-13.42.37l.89-3.67s4.42-3.82,13.28-2.48a24.86,24.86,0,0,1,14.07,7.41Z"/>
      <ellipse class="cls-24" cx="210.18" cy="141.87" rx="5.48" ry="7.71" transform="translate(-4.63 7.11) rotate(-1.92)"/>
      <ellipse class="cls-24" cx="159.56" cy="137.47" rx="5.03" ry="7.49" transform="translate(-3.1 3.68) rotate(-1.31)"/>
      <path class="cls-19" d="M136,130.17s3.27,21.2,4.35,22.64,31.74,3.86,31.74,3.86"/>
      <g>
        <path class="cls-5" d="M183.39,116.53s-8.65,20-12.51,32.36-4.32,22.76-2.4,24.49,8.18,3.25,15.17,2.89,10.55-2.55,10.55-2.55"/>
        <path class="cls-25" d="M183.39,116.53l-6.83,20.52c-2.23,6.83-4.48,13.62-5.71,20.52-.31,1.72-.56,3.45-.74,5.18a40.3,40.3,0,0,0-.3,5.1c0,.83.07,1.63.15,2.38l.09.53a1.75,1.75,0,0,0,.1.46c0,.28.19.51.13.42a.23.23,0,0,0-.11-.11s.06,0,.08.06a1.72,1.72,0,0,0,.3.2,6.71,6.71,0,0,0,.89.44,16,16,0,0,0,2.22.73,32.5,32.5,0,0,0,4.91.89,37.57,37.57,0,0,0,5.09.25c3.42,0,6.72-.08,10.54-.38a11.77,11.77,0,0,1-4.72,3.33,19.73,19.73,0,0,1-5.58,1.36,36.26,36.26,0,0,1-11.44-.66,21.7,21.7,0,0,1-2.92-.91,12.62,12.62,0,0,1-1.54-.74c-.27-.18-.52-.32-.82-.56s-.26-.2-.44-.37a7.91,7.91,0,0,1-.52-.63,6.24,6.24,0,0,1-.89-2.07,6.52,6.52,0,0,1-.18-.85l-.12-.81a25.6,25.6,0,0,1-.08-3,55.65,55.65,0,0,1,1.66-11.13,91.81,91.81,0,0,1,3.24-10.54c1.25-3.42,2.66-6.76,4.09-10.08Q178.29,126.1,183.39,116.53Z"/>
      </g>
      <g>
        <path class="cls-5" d="M162.34,185.74A45.8,45.8,0,0,0,181,190.08c16.88.46,27.42-5.35,27.42-5.35"/>
        <path class="cls-26" d="M162.67,185.12a52.29,52.29,0,0,0,11.18,2.93,59.15,59.15,0,0,0,11.53.5,76.75,76.75,0,0,0,11.51-1.36c1.89-.38,3.77-.85,5.62-1.4a45,45,0,0,0,5.42-1.9l.93,1.68a37.15,37.15,0,0,1-5.55,2.6c-1.91.69-3.85,1.26-5.81,1.76a58.61,58.61,0,0,1-12,1.61c-1,.05-2,.05-3,0s-2,0-3-.12a43.56,43.56,0,0,1-6-.86A38.87,38.87,0,0,1,162,186.36Z"/>
      </g>
      <path class="cls-25" d="M205.33,180.94a5.51,5.51,0,0,1,3.11,1.08,6.67,6.67,0,0,1,2.19,2.59,6.56,6.56,0,0,1,.59,3.37,5,5,0,0,1-1.32,3c-.26-1.1-.5-2-.76-2.88a17.86,17.86,0,0,0-.92-2.4,21.71,21.71,0,0,0-1.26-2.26Z"/>
      <path class="cls-25" d="M241.23,182.79a27.53,27.53,0,0,1-.74,6.7,30.77,30.77,0,0,1-2.19,6.44A30,30,0,0,1,230,206.76a34.6,34.6,0,0,1-12.43,5.81,77.88,77.88,0,0,1-13.41,2.3c-4.5.43-9,.55-13.52.53s-9-.13-13.49-.38a77.34,77.34,0,0,1-13.39-2A75.45,75.45,0,0,1,151,208.67a129.24,129.24,0,0,0,13.06,3,99.9,99.9,0,0,0,13.22,1.55,233.2,233.2,0,0,0,26.71-.57A85.7,85.7,0,0,0,217,210.57a34.81,34.81,0,0,0,11.9-5.2,30.71,30.71,0,0,0,8.42-9.92A34.39,34.39,0,0,0,241.23,182.79Z"/>
      <path class="cls-3" d="M135,129l25.77,1.8c8.59.61,17.17,1.16,25.77,1.82q25.77,2,51.48,4.78l-.45,4q-25.6-2.86-51.34-4.88c-8.56-.69-17.15-1.26-25.73-1.89l-25.74-1.85Z"/>
      <path class="cls-19" d="M185.84,134.93s1.72,20.11,3.83,22.17,34.63,4.87,37.76,4.21,9.32-23.18,9.32-23.18"/>
      <polygon class="cls-3" points="172.21 139.65 185.81 140.51 185.59 143.05 172.04 141.65 172.21 139.65"/>
      <polygon class="cls-27" points="30.68 221.54 34.71 259.5 43.65 259.59 35.82 219.12 30.68 221.54"/>
      <path class="cls-27" d="M40.82,300.3s3.79,27,7,27.52S46,300.18,46,300.18Z"/>
      <path class="cls-28" d="M30.68,221.54s-9.59-3.24-10.44-15.62,11.65-32.84,11.65-32.84-.36,9.52,1.79,15.24a85.94,85.94,0,0,0,4,9.13s-3.39-9.72-3.19-13.48a24.93,24.93,0,0,1,2.41-8.12s-.35,9.81,3.42,23.56c2.18,8,.57,12.38-.51,15.58a18.14,18.14,0,0,1-3.62,5.85Z"/>
      <polygon class="cls-29" points="30.68 221.54 31.6 236.8 39.93 235.45 36.14 220.84 30.68 221.54"/>
      <path class="cls-30" d="M32.19,171.7s-6.3,9.45-8.8,15.4-2.27,9.5-2.27,9.5,1.45,9.12,3.48,9.69,1.1-12.89,1.87-12.91,1.33,10.67,3.38,12.33,1.65-16.16,1.65-16.16.45,6.19,2.06,8.79.57-9-.44-12.55S32.19,171.7,32.19,171.7Z"/>
      <path class="cls-30" d="M37.06,174.69s-3.08,7.67-2.87,10.15,3.08,6.13,4.33,6.41-.17-7.44-.38-9.91S37.06,174.69,37.06,174.69Z"/>
      <g class="cls-31">
        <path class="cls-25" d="M34.7,259.31a20,20,0,0,1,8.15.18A19.26,19.26,0,0,1,50.4,263a14.66,14.66,0,0,1,3,3.08,9.2,9.2,0,0,1,1.74,4.19,11.82,11.82,0,0,1,0,1.19,5.68,5.68,0,0,1-.23,1.26,3.82,3.82,0,0,1-1.52,2.18,5.56,5.56,0,0,1-2.28,1,7.69,7.69,0,0,1-2.3.06l.57-1.85h0a7.33,7.33,0,0,1,1.28.88,9.19,9.19,0,0,1,1.06,1,15.41,15.41,0,0,1,1.76,2.28,18.93,18.93,0,0,1,2.22,5.2,27,27,0,0,1,.89,5.52,9.73,9.73,0,0,1-1.48,5.83,11.06,11.06,0,0,1-4.5,3.89,18.15,18.15,0,0,1-5.43,1.67,23.63,23.63,0,0,1-11-.89l.3-1.2a33.74,33.74,0,0,0,10.24-.33,18.55,18.55,0,0,0,4.71-1.52,8.52,8.52,0,0,0,3.48-3,7.44,7.44,0,0,0,1.08-4.35,25.82,25.82,0,0,0-.69-5,19.2,19.2,0,0,0-1.81-4.64,12.46,12.46,0,0,0-1.39-2,9.45,9.45,0,0,0-1.69-1.58h0l-4-1.86h4.53a4.91,4.91,0,0,0,3-.83,2.73,2.73,0,0,0,.71-2.56,7.12,7.12,0,0,0-1.33-3.09A13.2,13.2,0,0,0,49,264.82a21.52,21.52,0,0,0-6.6-3.58,31,31,0,0,0-7.63-1.55Z"/>
      </g>
      <g class="cls-31">
        <path class="cls-25" d="M31.7,270a17.7,17.7,0,0,1,4.92-.67,25.68,25.68,0,0,1,4.94.62,34.14,34.14,0,0,1,4.73,1.49,32.47,32.47,0,0,1,4.54,2.18L49,276.23a32,32,0,0,0-3.84-2.41A31.06,31.06,0,0,0,41,271.94a23,23,0,0,0-4.45-1.09,16,16,0,0,0-4.58.09Z"/>
      </g>
      <g class="cls-31">
        <path class="cls-25" d="M28.92,283.17a33.43,33.43,0,0,1,7,0,43.51,43.51,0,0,1,6.89,1.36,57.13,57.13,0,0,1,6.63,2.31A53.76,53.76,0,0,1,55.81,290L54,292.67a54.49,54.49,0,0,0-5.71-3.41,55.31,55.31,0,0,0-6.15-2.73,42.59,42.59,0,0,0-6.47-1.83,32.72,32.72,0,0,0-6.7-.56Z"/>
      </g>
      <path class="cls-3" d="M165.41,47.54a293.77,293.77,0,0,1,51.61,12c26.41,8.92,48.26,27.43,54.84,36.25,3.42,4.57,6.86-11.82-.45-23.7s-12.77-17.63-27.58-22.9C206.51,35.91,165.41,47.54,165.41,47.54Z"/>
      <g class="cls-32">
        <path class="cls-2" d="M155.19,49.43a96.49,96.49,0,0,1,21.35-1c3.58.16,7.14.56,10.68,1,1.78.2,3.55.59,5.33.92s3.51.78,5.24,1.26A153.63,153.63,0,0,1,218,58.9,173.5,173.5,0,0,1,237,68.52c-6.65-2.54-13.26-5.08-19.9-7.5l-5-1.79c-1.67-.56-3.33-1.16-5-1.69-3.34-1.12-6.7-2.18-10.09-3.07-1.68-.49-3.39-.88-5.08-1.3s-3.4-.7-5.15-1c-3.46-.62-7-1.07-10.45-1.49A186.18,186.18,0,0,0,155.19,49.43Z"/>
      </g>
      <path class="cls-33" d="M275.14,216.45s30.75,72.8,12.23,110.57c-17.71,36.14-73.69,31.85-73.69,31.85s-1.48-33.7,1.85-33.7,39.63-.37,44.44-21.47-5.8-47-5.55-50.36A48.34,48.34,0,0,1,275.14,216.45Z"/>
      <g class="cls-34">
        <path class="cls-8" d="M254.42,253.34a117.14,117.14,0,0,1,6.38,25.18,87.5,87.5,0,0,1,.87,13.07l-.12,3.29c-.07,1.1-.23,2.2-.34,3.29l-.19,1.65-.34,1.63-.33,1.64a10.36,10.36,0,0,1-.4,1.62l-1.06,3.19a20.46,20.46,0,0,1-1.48,3.1,21.9,21.9,0,0,1-4.33,5.29,33.06,33.06,0,0,1-11.68,6.41,58.8,58.8,0,0,1-12.86,2.53,69.8,69.8,0,0,1-13-.06,93,93,0,0,0,12.84-1.23,65,65,0,0,0,12.34-3.19,32.86,32.86,0,0,0,10.68-6.31,20.72,20.72,0,0,0,3.76-4.75,17.6,17.6,0,0,0,1.29-2.74l.94-3a53.51,53.51,0,0,0,1.75-12.47,97.23,97.23,0,0,0-.42-12.76A187.4,187.4,0,0,0,254.42,253.34Z"/>
      </g>
      <g class="cls-34">
        <path class="cls-8" d="M213.83,357.38a107.48,107.48,0,0,0,11.93.34,116.94,116.94,0,0,0,12-.92,92.16,92.16,0,0,0,11.76-2.29,74.37,74.37,0,0,0,11.27-4l.74,1.53A76.22,76.22,0,0,1,250,356.46a94.58,94.58,0,0,1-12,2.67,118.66,118.66,0,0,1-12.2,1.27,107.79,107.79,0,0,1-12.32,0Z"/>
      </g>
      <path class="cls-35" d="M197,328.46c8.93,2,12.46-2.95,26.28-.83,12.56,1.93,17.11,25.77-10.35,34s-82.43,1.68-96.52-18.59c-17-24.5,26.36-34,45.2-34.18,23.73-.21,33.47,3.51,35.79,7.81C201.53,324.36,188.62,326.59,197,328.46Z"/>
      <path class="cls-36" d="M116.41,343.08a30.73,30.73,0,0,0,5.61,5c1,.77,2.07,1.42,3.11,2.11s2.16,1.25,3.24,1.88a81.63,81.63,0,0,0,13.82,5.72l3.59,1.08c1.2.32,2.43.6,3.64.91,2.4.65,4.88,1.06,7.33,1.53a148.48,148.48,0,0,0,14.89,1.89c2.49.3,5,.32,7.5.48s5,.12,7.51.15,5-.1,7.5-.18c1.26,0,2.49-.18,3.74-.28s2.49-.18,3.73-.35a77.26,77.26,0,0,0,14.6-3.17c4.68-1.61,9.4-3.69,12.92-7.36a21.05,21.05,0,0,1-5.6,5.16,37.85,37.85,0,0,1-3.32,1.94l-1.71.88-1.77.75A69,69,0,0,1,202,365.36a129.18,129.18,0,0,1-30.56.85,141.47,141.47,0,0,1-15.17-2.1c-2.5-.55-5-1-7.46-1.77-1.23-.36-2.47-.66-3.69-1L141.44,360a72.34,72.34,0,0,1-13.81-6.67c-1.06-.73-2.13-1.42-3.16-2.18s-2-1.54-3-2.42A27.68,27.68,0,0,1,116.41,343.08Z"/>
      <path class="cls-37" d="M149.63,312.7c-6.47,1.3,2.28,5.95,5.12,6.48s-2.79,1.54.5,2.8,13.29,1.37,17.93-.21,5.82-5.35,3.59-6.73S167.65,309.06,149.63,312.7Z"/>
      <path class="cls-38" d="M128.18,319.06c8.93-.91,19.48.79,21.07,2.52s-5.6,2-5.6,2,10.69,1.06,11.8,2.51-6.35,1.69-6.35,1.69,6.68,1.36,3,2.78-19.44,2.44-21.68,1.48,0-3.22,0-3.22-8.58.73-12.35-.66,3-4.3,3-4.3S116.61,320.24,128.18,319.06Z"/>
      <path class="cls-30" d="M160.1,333.69c-8.43.35-7.27,4.06-1.08,5.39s10.89-.94,11.27-2.05S166.45,333.43,160.1,333.69Z"/>
      <path class="cls-39" d="M126.1,334.76c8.25-1,18.31-.4,18.78.57s-1.34,1.92-1.34,1.92,8.4,1.55,7.34,3.5-8.72,4.37-13.24,3.9-15.86-1.18-16.26-2.82,4.65-3.64,4.65-3.64S115.7,336,126.1,334.76Z"/>
      <path class="cls-40" d="M148.15,344.82c-7.4.83-10.06,5.6-7.83,7s8.08.83,8.08.83-3.15,2.42.72,3.28,15.27,0,18.63-2,5.94-4,5-5-5.14-1.21-5.57-2.17S163.07,343.16,148.15,344.82Z"/>
      <path class="cls-41" d="M184.16,348.08c-8,1.84-12.83,4.4-11.41,5.92s12.81.87,12.81.87-6.6,2.75-4.28,3.22,12.18,1.94,17.27,1.09,9-2.73,8.83-3.89-5-2.13-5-2.13,8.24-.75,8.95-2.51S197,348.27,197,348.27s5.92-1.22,5.73-1.93S190.36,346.66,184.16,348.08Z"/>
      <path class="cls-42" d="M217.66,342.39c-7.53.84-6.48,4.13-2.57,4.54s11.46,1.18,13.31-1.38S225.12,341.55,217.66,342.39Z"/>
      <path class="cls-5" d="M213.19,327a12.32,12.32,0,0,0-10.37-6.19c-5.08-.17-14.62,8.46-10.42,11.73,5.69,4.42,11.92-3.89,11.92-3.89Z"/>
      <g class="cls-43">
        <path class="cls-25" d="M191.89,332.42a14.81,14.81,0,0,0,4.11.6,9.08,9.08,0,0,0,3.82-.79,7,7,0,0,0,1.61-1.06,16.13,16.13,0,0,0,1.5-1.38c1-1,1.9-2,2.88-3.1a14,14,0,0,1-2,3.83,9.28,9.28,0,0,1-3.37,3,8.08,8.08,0,0,1-4.48.6A8.41,8.41,0,0,1,191.89,332.42Z"/>
      </g>
      <polygon class="cls-44" points="214.31 231.84 243.99 238.49 236.26 267.56 207.84 260.46 214.31 231.84"/>
      <line class="cls-45" x1="212.93" y1="258.1" x2="232.1" y2="262.79"/>
      <g class="cls-46">
        <path class="cls-47" d="M216.29,252.67a9.45,9.45,0,0,1-.82-3.62,11.11,11.11,0,0,1,.59-3.82,12.06,12.06,0,0,1,2-3.54,11.46,11.46,0,0,1,2.76-2.49"/>
        <path class="cls-47" d="M222.21,242.13a7.11,7.11,0,0,0-1.7,1.52,7.4,7.4,0,0,0-1.29,2.36,6.86,6.86,0,0,0-.3,2.41,5.89,5.89,0,0,0,.59,2.29"/>
        <g class="cls-46">
          <path class="cls-48" d="M230,244a4.88,4.88,0,0,0-3.16-2.63,5.5,5.5,0,0,0-3,.06,6.55,6.55,0,0,0-1.56.73"/>
          <path class="cls-48" d="M220.78,239.2a10.47,10.47,0,0,1,2.37-1.08,8.84,8.84,0,0,1,4.68-.18,7.94,7.94,0,0,1,3.87,2.22,8.55,8.55,0,0,1,1.41,2"/>
        </g>
        <g class="cls-46">
          <path class="cls-49" d="M219.51,250.71a5,5,0,0,0,2.36,2.35,5.28,5.28,0,0,0,2.35.49c.19.56.4,1.14.63,1.73s.54,1.33.81,2a8.9,8.9,0,0,1-3.33.13,7.86,7.86,0,0,1-2.84-1,8.25,8.25,0,0,1-2-1.77,8.73,8.73,0,0,1-1.21-1.9"/>
          <path class="cls-49" d="M233.11,242.16a9.45,9.45,0,0,1,1,3.42,10.7,10.7,0,0,1-.4,3.89h0a10.56,10.56,0,0,1-.86,2.16,9.24,9.24,0,0,1-.93,1.36l-1.76-3.88a7.24,7.24,0,0,0,.44-1.88A6.29,6.29,0,0,0,230,244"/>
        </g>
        <path class="cls-50" d="M229.32,259a.23.23,0,0,1-.15-.14l-3.91-9.42a.66.66,0,0,1,.29-.8l.8-.46a.57.57,0,0,1,.83.25l4,9.53c.36.84.55,1.31.64,1.53,0,0,0,.12-.08.1C231.27,259.48,229.84,259.14,229.32,259Z"/>
      </g>
      <g class="cls-51">
        <polygon class="cls-52" points="212.9 236.54 207.12 261.32 206.38 260.1 211.27 261.59 210.96 262.9 205.92 262.04 204.88 261.87 205.18 260.82 212.18 236.36 212.9 236.54"/>
      </g>
      <polygon class="cls-53" points="238.62 239.18 240.97 239.89 240.14 242.24 238.16 241.54 238.62 239.18"/>
    </g>
  </g>
</svg>
