<svg xmlns="http://www.w3.org/2000/svg" width="369.04" height="524.72" viewBox="0 0 369.04 524.72">
  <defs>
    <style>
      .cls-1 {
        isolation: isolate;
      }

      .cls-2 {
        fill: #3c5968;
      }

      .cls-3 {
        fill: #3b5b66;
      }

      .cls-4 {
        fill: #2b4c57;
      }

      .cls-5 {
        fill: #3a4449;
      }

      .cls-6 {
        fill: #40606d;
      }

      .cls-7 {
        fill: #42626d;
      }

      .cls-8 {
        fill: #2f545e;
      }

      .cls-9 {
        fill: #b6e0ef;
      }

      .cls-10 {
        fill: #2483c5;
      }

      .cls-11 {
        opacity: 0.6;
      }

      .cls-12 {
        fill: #405e6b;
      }

      .cls-13 {
        fill: #755946;
      }

      .cls-14 {
        fill: #f1b291;
      }

      .cls-15, .cls-30, .cls-31, .cls-32, .cls-33 {
        fill: none;
      }

      .cls-15 {
        stroke: #353e45;
        stroke-width: 3px;
      }

      .cls-15, .cls-28, .cls-30, .cls-31, .cls-32, .cls-33 {
        stroke-miterlimit: 10;
      }

      .cls-16 {
        fill: #a7755c;
      }

      .cls-17 {
        fill: #f7f5f5;
      }

      .cls-18 {
        fill: #684f3c;
      }

      .cls-19 {
        fill: #5b422a;
      }

      .cls-20 {
        fill: #1b6087;
      }

      .cls-21 {
        fill: #a77056;
      }

      .cls-22 {
        fill: #915a46;
      }

      .cls-23 {
        opacity: 0.8;
      }

      .cls-24 {
        fill: #353e45;
      }

      .cls-25 {
        opacity: 0.77;
      }

      .cls-26 {
        opacity: 0.7;
      }

      .cls-27 {
        fill: #eff4f4;
      }

      .cls-28, .cls-36 {
        fill: #536872;
      }

      .cls-28 {
        stroke: #405a63;
        stroke-width: 1.05px;
      }

      .cls-28, .cls-34 {
        opacity: 0.3;
      }

      .cls-29 {
        mix-blend-mode: multiply;
      }

      .cls-30 {
        stroke: #2582c5;
      }

      .cls-30, .cls-31, .cls-32, .cls-33 {
        stroke-width: 1.21px;
      }

      .cls-31 {
        stroke: #e51a60;
      }

      .cls-32 {
        stroke: #75b747;
      }

      .cls-33 {
        stroke: #f6a31f;
      }

      .cls-35 {
        fill: #516672;
      }

      .cls-36 {
        opacity: 0.18;
      }

      .cls-37 {
        fill: #7ebec1;
      }

      .cls-38 {
        fill: #caecef;
      }

      .cls-39 {
        fill: #fff;
        opacity: 0.34;
      }

      .cls-40 {
        fill: #6798a0;
      }
    </style>
  </defs>
  <g class="cls-1">
    <g id="Ebene_1" data-name="Ebene 1">
      <path class="cls-2" d="M161,329.32l-3,29.79s30.58,11.82,62,16.5,51.47,2.12,51.47,2.12l2.85-39Z"/>
      <path class="cls-3" d="M180.42,183.52l-8.07,1.25s-16.13,47.56-34.49,66.74c-20.11,21-50.16,15.37-50.16,15.37s.2,9-.21,17c-.59,11.65-3.83,16.16-3.83,16.16s39.41,5.44,64.7-12.63,41.09-78.07,41.09-78.07"/>
      <path class="cls-4" d="M168.54,218.46q-.66,10.33-1.72,20.62c-.68,6.86-1.49,13.7-2.33,20.54s-1.79,13.67-2.79,20.5-2.11,13.64-3.38,20.42q.62-10.35,1.65-20.63c.65-6.85,1.47-13.7,2.31-20.54s1.79-13.68,2.82-20.5S167.25,225.24,168.54,218.46Z"/>
      <path class="cls-5" d="M291,477.44a50.85,50.85,0,0,1,6.68,10.65,31.15,31.15,0,0,1,2.26,9.11s-9.26,5.21-25.72,7.83a134.93,134.93,0,0,1-35.09,1.07s2-6.92,14-14c8.27-4.91,22.16-10.34,22.16-10.34"/>
      <path class="cls-5" d="M182.32,472.56s4.23,5.95,6,11.22a31.16,31.16,0,0,1,1.61,9.3s-8.75,3.28-25.59,4.44a195.36,195.36,0,0,1-36.53-1s2.51-6.73,15.17-12.77c8.71-4.16,23.16-8.34,23.16-8.34"/>
      <path class="cls-2" d="M158.36,356.52s-6.8,28.88-8.36,56.91c-.86,22.39,1.81,63.67,1.81,63.67a89.09,89.09,0,0,0,17.66.84,120.87,120.87,0,0,0,17.25-2.59S185,438.09,185.93,415a302.5,302.5,0,0,1,7-44.84"/>
      <path class="cls-6" d="M175.05,184.25s38.57-10.76,70.89-5.88c40.24,6.07,65,20.36,65,20.36s-17.42,76.2-19.61,109.14-2,58.47-2,58.47-32.42,7.35-81.6-.18c-39.08-6-60.74-17.59-60.74-17.59s8.14-30.5,16.28-81.82c3.81-24,8.34-65.16,8.34-65.16"/>
      <path class="cls-2" d="M232.73,371.17s4.76,29,9.27,52.6c7.11,32.58,20.92,62.68,20.92,62.68s7.36.27,17.33-.23c12-1.25,16.19-4.74,16.19-4.74s-13.36-34-18.78-59c-5.05-31.95-5.84-51.46-5.84-51.46"/>
      <g>
        <polyline class="cls-6" points="239.98 319 240.97 333.82 283.42 336 283.06 323.34"/>
        <path class="cls-4" d="M240,319l2.07,14.75-1-1c3.54.12,7.07.3,10.61.5l10.61.67c7.06.53,14.13,1,21.19,1.59l-.52.51.05-6.34.09-6.33.45,6.32.4,6.32,0,.52h-.56c-7.08-.14-14.16-.39-21.25-.58l-10.61-.42c-3.54-.17-7.08-.35-10.61-.59l-1-.08v-.93Z"/>
      </g>
      <g>
        <path class="cls-7" d="M209.26,298.15s20.53-14.72,31.28-24.18,21.26-24.19,21.26-24.19l-13.48-10.46,17.5.4s12.76-33.89,12.2-47.44c-.32-7.75-7.71-15.67-7.71-15.67L210,172s-8.78,10.06-11.22,13.69-12.17,37.18-12.17,37.18L199,229.53l-13.18,3.08s1.55,18.61,4.67,31,12.84,32.7,12.84,32.7"/>
        <path class="cls-8" d="M208.92,297.67q7.23-5.3,14.33-10.78c4.73-3.65,9.43-7.35,14-11.22,2.27-1.94,4.47-3.91,6.56-6s4.1-4.3,6-6.54c3.9-4.49,7.61-9.18,11.06-14h0l.23,1.56L247.7,240.13h0l-2.39-1.88,3,.05,17.5.28-1.09.74c1.92-5.2,3.73-10.48,5.41-15.78s3.24-10.63,4.53-16c.63-2.69,1.21-5.4,1.63-8.11a33.18,33.18,0,0,0,.47-8,20.63,20.63,0,0,0-2.63-7.43,38.24,38.24,0,0,0-4.69-6.57l.75.36-60.35-4.6h0l1-.38c-3.12,3.54-6.23,7.12-9.19,10.78-.72.91-1.46,1.84-2.09,2.76a22.24,22.24,0,0,0-1.37,3c-.85,2.18-1.63,4.41-2.39,6.65-3,8.95-5.82,18-8.56,27.07h0l-.33-.79,12.58,6.36h0l2.4,1.21-2.64.65-13.15,3.21h0l.88-1.2c.44,5.49,1,11,1.8,16.48a135.65,135.65,0,0,0,3.07,16.22,153,153,0,0,0,5.46,15.62c2.06,5.13,4.27,10.22,6.59,15.24l-1.09.52q-3.63-7.52-6.87-15.2a152.59,152.59,0,0,1-5.78-15.7c-.8-2.7-1.39-5.44-1.94-8.17s-1-5.49-1.44-8.24q-1.26-8.26-2.07-16.58l-.1-1,1-.22h0l13.2-2.94-.24,1.86h0l-12.27-6.94-.47-.26.14-.52h0c2.6-9.13,5.24-18.23,8.13-27.27.74-2.26,1.48-4.52,2.32-6.77a22.3,22.3,0,0,1,1.51-3.44c.7-1.05,1.42-2,2.15-2.94,2.94-3.76,6-7.39,9.07-11l.37-.43.58,0h0l60.34,4.6.46,0,.28.32a39.09,39.09,0,0,1,5,7,22.8,22.8,0,0,1,2.9,8.26,35.78,35.78,0,0,1-.48,8.64c-.43,2.8-1,5.55-1.67,8.29-1.31,5.47-2.89,10.84-4.57,16.18s-3.5,10.62-5.45,15.89l-.28.76-.81,0-17.5-.51.65-1.82h0l13.55,10.36.88.66-.65.9h0q-5.4,7.27-11.41,14c-2,2.24-4.08,4.43-6.23,6.54s-4.45,4.11-6.76,6c-4.64,3.82-9.4,7.46-14.2,11.05s-9.64,7.11-14.53,10.57Z"/>
      </g>
      <path class="cls-9" d="M208,289.74s20.32-18.65,36.65-50.86c12.5-24.63,19.68-51.72,19.68-51.72l-55.18-4.5s-7.55,25.64-8.48,48.29A185.54,185.54,0,0,0,208,289.74Z"/>
      <path class="cls-10" d="M225.72,190.64l-9.26,12.08s1.87,2.44,6.85,3A21.19,21.19,0,0,0,232,205l-4.62-14.17Z"/>
      <g class="cls-11">
        <path class="cls-12" d="M206.17,195.71a25.51,25.51,0,0,0,3.61,4.3c1.37,1.37,2.85,2.68,4.34,3.9h0l-1.43.22,13.07-18.61L227.5,183l.89,2.89,7,22.63-.94-.56h0c2.38-.49,4.77-1.11,7.11-1.79s4.68-1.44,6.95-2.3a42.59,42.59,0,0,0,6.53-3,32.25,32.25,0,0,0,5.7-4.1L262.8,199a34.48,34.48,0,0,1-6.48,4.29,44.16,44.16,0,0,1-7,2.91c-2.38.77-4.8,1.43-7.22,2s-4.85,1.09-7.34,1.48h0l-.68.14-.26-.69-8.24-22.21,2.63.41-13.83,18-.64.83-.8-.61h0c-1.68-1.16-3.28-2.37-4.84-3.69a28.42,28.42,0,0,1-4.39-4.5Z"/>
      </g>
      <path class="cls-13" d="M217.26,40.91s-18.57,16.92-21.14,30.53c-1.88,9.94-.88,27-.88,27l32.07-53.92Z"/>
      <path class="cls-14" d="M278.05,166.3s-3.51,14.53-17.76,20.47c-20,8.33-71.1-.8-77.59-9.19-5.64-7.29.75-49.8,12.7-85.89,9.4-28.4,27.72-52.43,27.72-52.43s29.25-3.24,52.41,3.16a84.33,84.33,0,0,1,32,17.46L283,151.57"/>
      <path class="cls-13" d="M296.1,58.44S287.69,73,285.66,85.86c-1.75,11.14-3.27,37.63-3.27,37.63a104.5,104.5,0,0,0-8.47,11.76c-4.76,8.23-3.17,15.08-3.17,15.08L287,135,275.7,172.17s7.51,0,12.3-8.77,22.16-43.5,25.72-56.81c1.89-7.07,8.81-42.16,5.72-49a11.45,11.45,0,0,0-6.64-6.16,16.44,16.44,0,0,0-10.57-15.67c-16.61-7-55.21-11.27-70.32-9.25-11.62,1.55-29,15.78-29,15.78s14.75,4.65,22.53,4.37,28.8-4,28.8-4-13.06,4.72-16.92,6.49-11.2,7.09-11.2,7.09,14.69,1.39,19.73.94,25.68-6.46,25.68-6.46-8.24,3.76-12.12,5.78a61.42,61.42,0,0,0-7.55,4.8s13.33,3.31,23.65,2.43S296.1,58.44,296.1,58.44Z"/>
      <line class="cls-15" x1="276.08" y1="127.11" x2="293.17" y2="134.32"/>
      <path class="cls-14" d="M277.12,144.46s8.34-13.78,18.85-13.64c14.86.19,5.71,30.08-4.8,34-9.23,3.45-14.21-1.11-14.21-1.11"/>
      <path class="cls-16" d="M279.88,152.64a18.27,18.27,0,0,1,2.75-6.2,18,18,0,0,1,4.93-5,12.89,12.89,0,0,1,3.32-1.6,13.14,13.14,0,0,1,1.8-.44,10.9,10.9,0,0,1,1.9-.09c2.5.08,5.18,1.33,6.16,3.61a12,12,0,0,0-5.94-.12,18.55,18.55,0,0,0-2.64.8,15.81,15.81,0,0,0-2.55,1.17,33.46,33.46,0,0,0-4.87,3.51C283.14,149.67,281.56,151.12,279.88,152.64Z"/>
      <path class="cls-17" d="M269.9,121.41c-1.72,7.64-8.56,12-16.64,10.34a13.66,13.66,0,0,1-10.67-16.49,14,14,0,1,1,27.31,6.15Z"/>
      <path class="cls-17" d="M218,111.71c-2.19,7.4-7.57,12.23-15.08,10.65-7.05-1.48-10.9-8.68-9.5-16.27,1.49-8,8.49-12.2,15.52-10.62S220,104.82,218,111.71Z"/>
      <path class="cls-18" d="M241.79,98s13.21-.16,22.46,2.27,13,6.3,13,6.3l-.24-4.17s-1.45-6.16-13.55-8.13a111.44,111.44,0,0,0-20.86-1.1Z"/>
      <path class="cls-19" d="M247.4,107a10.26,10.26,0,0,1,6.56-3.79,14,14,0,0,1,7.77,1.06,14.19,14.19,0,0,1,6.12,4.87,11.56,11.56,0,0,1,2.2,7.25,19.6,19.6,0,0,0-4-5.73,17.74,17.74,0,0,0-5.49-3.63,16.76,16.76,0,0,0-6.4-1.48A15.08,15.08,0,0,0,247.4,107Z"/>
      <path class="cls-19" d="M194.8,101.67A8.74,8.74,0,0,1,199,96.1a13.53,13.53,0,0,1,7-1.83,12.06,12.06,0,0,1,7,1.88,9.24,9.24,0,0,1,4,5.69,12.53,12.53,0,0,0-5-4,13.51,13.51,0,0,0-6-1A18.43,18.43,0,0,0,200,98,12.86,12.86,0,0,0,194.8,101.67Z"/>
      <path class="cls-18" d="M222.73,94.93A125.18,125.18,0,0,0,207,90.5c-8.05-1.75-12.66-.27-12.66-.27L196.12,87s4.77-3.23,12.21-1.91A46,46,0,0,1,224,90.59Z"/>
      <ellipse class="cls-20" cx="255.67" cy="119.27" rx="7.42" ry="5.83" transform="translate(102.08 355.92) rotate(-82.02)"/>
      <ellipse class="cls-20" cx="205.86" cy="109.23" rx="7.21" ry="5.35" transform="translate(66.7 296.17) rotate(-81.29)"/>
      <path class="cls-15" d="M179.21,99.89s.88,21.43,1.78,23,31.12,7.38,31.12,7.38"/>
      <g>
        <path class="cls-14" d="M227.79,91.64s-10.82,18.88-16,30.76-6.85,22.12-5.13,24.06,7.76,4.15,14.75,4.57,10.77-1.36,10.77-1.36"/>
        <path class="cls-21" d="M227.79,91.64l-9.08,19.62c-3,6.54-6,13-8,19.75-.51,1.68-.95,3.38-1.33,5.07a43,43,0,0,0-.86,5,22.1,22.1,0,0,0-.12,2.39l0,.53a2.12,2.12,0,0,0,.05.47c0,.29.13.53.08.43a.18.18,0,0,0-.1-.11l.08.06a1.75,1.75,0,0,0,.27.23,6.82,6.82,0,0,0,.84.54,16,16,0,0,0,2.12,1,33.25,33.25,0,0,0,4.79,1.43,40,40,0,0,0,5,.82c3.4.34,6.68.67,10.51.79a11.74,11.74,0,0,1-5.07,2.79,19.59,19.59,0,0,1-5.69.73,36.9,36.9,0,0,1-11.3-1.94,20.67,20.67,0,0,1-2.8-1.24,11.63,11.63,0,0,1-1.44-.9,6.09,6.09,0,0,1-.75-.65,4.11,4.11,0,0,1-.4-.42,8,8,0,0,1-.45-.68,6.17,6.17,0,0,1-.65-2.15,7.39,7.39,0,0,1-.08-.87l0-.82a23.75,23.75,0,0,1,.26-3,55.86,55.86,0,0,1,2.89-10.87,91.07,91.07,0,0,1,4.4-10.11c1.62-3.27,3.4-6.42,5.19-9.57Q221.65,100.58,227.79,91.64Z"/>
      </g>
      <g>
        <path class="cls-14" d="M204.25,160s3.85-.07,14.75,1.75a205.37,205.37,0,0,1,21.25,4.5"/>
        <path class="cls-22" d="M204.24,159.29a52.16,52.16,0,0,1,9.29.28c3.06.3,6.09.76,9.11,1.29s6,1.17,9,1.94a75.33,75.33,0,0,1,8.8,2.77l-.39,1.35-9-1.53-9-1.58-9-1.62c-3-.52-6-1.09-8.91-1.49Z"/>
      </g>
      <g class="cls-23">
        <path class="cls-21" d="M210.19,165.32a32.91,32.91,0,0,0,3.86,2.65,19.25,19.25,0,0,0,8.18,2.58,47,47,0,0,0,4.7.17,9.57,9.57,0,0,1-4.61,2,11,11,0,0,1-9.59-3A9,9,0,0,1,210.19,165.32Z"/>
      </g>
      <path class="cls-21" d="M277.86,164a27.75,27.75,0,0,1-1.49,6.58,30.79,30.79,0,0,1-2.89,6.15,30.17,30.17,0,0,1-9.48,9.83,34.67,34.67,0,0,1-13,4.39,78.29,78.29,0,0,1-13.58.78,134.88,134.88,0,0,1-13.49-1c-4.48-.53-8.9-1.13-13.36-1.89a76.28,76.28,0,0,1-13.08-3.52,74.39,74.39,0,0,1-12.23-5.71A129.14,129.14,0,0,0,197.89,184a100.19,100.19,0,0,0,13,3,235.52,235.52,0,0,0,26.61,2.42,84.57,84.57,0,0,0,13.23-.63A35,35,0,0,0,263.1,185a30.86,30.86,0,0,0,9.48-8.91A34.58,34.58,0,0,0,277.86,164Z"/>
      <path class="cls-24" d="M178.33,98.63l25.41,4.67c8.46,1.57,16.94,3.08,25.4,4.7q25.4,4.89,50.62,10.51l-.89,3.9q-25.12-5.7-50.46-10.59c-8.44-1.64-16.91-3.17-25.36-4.75l-25.37-4.73Z"/>
      <path class="cls-15" d="M228.18,110.2s-.55,20.17,1.31,22.45,33.87,8.72,37.06,8.41,11.85-22,11.85-22"/>
      <polygon class="cls-24" points="214.09 113.36 227.51 115.73 227.02 118.24 213.71 115.33 214.09 113.36"/>
      <path class="cls-14" d="M306.46,336.43s-11.06,2.28-17.85,9.73c-7.69,8.44-10.31,24-5.42,31.79s15.91,9.9,22.13,7.16c5.13-2.26,9.74-15.31,9.74-15.31s2.82-.49,7.78-6.33a21.2,21.2,0,0,0,4.73-12.21C328.23,336,315.48,332.28,306.46,336.43Z"/>
      <g class="cls-23">
        <path class="cls-21" d="M296.71,386.23a34.46,34.46,0,0,1,.34-6.71,58.92,58.92,0,0,1,1.25-6.46,40.4,40.4,0,0,1,2.08-6.3,38,38,0,0,1,3.15-5.85l2,1.22a48.35,48.35,0,0,0-2.59,5.66c-.36,1-.72,1.94-1,2.93s-.53,2-.78,3c-.51,2-.9,4.11-1.22,6.18-.16,1-.29,2.06-.38,3.1a29,29,0,0,0-.16,3Z"/>
      </g>
      <g class="cls-23">
        <path class="cls-21" d="M284.79,381.41c0-2.25.13-4.43.33-6.64a48.79,48.79,0,0,1,1-6.61,36.76,36.76,0,0,1,2.28-6.34,50.49,50.49,0,0,1,3.18-5.87l1.86,1.18a50.1,50.1,0,0,0-2.92,5.64,33.75,33.75,0,0,0-2,6,45.93,45.93,0,0,0-.86,6.27c-.17,2.12-.24,4.28-.22,6.39Z"/>
      </g>
      <path class="cls-6" d="M303.34,197.51l8.26,1.71s32.78,43.87,37.89,78.52-20,77.45-20,77.45-5.28-5.25-17.12-11.42a48,48,0,0,0-15-4.61S317.47,308,316,284s-19.18-47.82-19.18-47.82"/>
      <g class="cls-25">
        <path class="cls-4" d="M289.86,228.92a66.34,66.34,0,0,1,8.17,7.9c1.27,1.4,2.47,2.87,3.66,4.34s2.3,3,3.38,4.56a44.57,44.57,0,0,1,3,4.95,45.67,45.67,0,0,1,2.37,5.24A42.54,42.54,0,0,1,313.17,267c-1.51-3.48-3.08-6.86-4.81-10.13a86.75,86.75,0,0,0-5.73-9.41l-6.48-9.13C294,235.24,291.87,232.15,289.86,228.92Z"/>
      </g>
      <path class="cls-10" d="M220.48,205.7s-9.38,25.42-11.8,36.81-4.86,31-4.86,31l4.07,16.22,13.28-14.16,3.64-32.69,1.51-36.62Z"/>
      <g>
        <polyline class="cls-6" points="178.72 307.85 173.98 322.12 151.99 316.49 157.63 304.26"/>
        <path class="cls-4" d="M178.72,307.85,175,322.47l-.25,1-1.08-.26c-1.84-.44-3.67-.92-5.5-1.41l-5.46-1.54-10.9-3.19-.7-.21.31-.61q3-6,6.17-12-2.52,6.25-5.11,12.47l-.38-.81,11.09,2.44,5.53,1.28q2.76.66,5.5,1.4l-1.33.73Z"/>
      </g>
      <g class="cls-26">
        <path class="cls-6" d="M207.38,290.79s-3.56,30.36-4.54,44.58-1.23,29-1.23,29"/>
        <path class="cls-4" d="M207.88,290.85c-1.28,12.23-2.52,24.47-3.52,36.72-.51,6.12-.83,12.24-1.06,18.38s-.38,12.28-.44,18.41l-2.5,0q.28-9.26.82-18.47c.35-6.15.8-12.31,1.44-18.44,1.25-12.25,2.73-24.46,4.27-36.68Z"/>
      </g>
      <path class="cls-4" d="M224.53,376a131.55,131.55,0,0,1-13.75-1.1c-4.56-.57-9.1-1.37-13.6-2.35-2.24-.54-4.5-1.07-6.71-1.76s-4.4-1.42-6.54-2.3a77,77,0,0,1-12.37-6.15c4.3,1.64,8.6,3.17,12.94,4.56s8.7,2.58,13.15,3.54,8.92,1.9,13.4,2.8S220,375,224.53,376Z"/>
      <path class="cls-4" d="M193.57,374.53a20.28,20.28,0,0,1-5.52,1.36,30.33,30.33,0,0,1-5.64.12,24,24,0,0,1-5.58-1.15,18.75,18.75,0,0,1-5.1-2.55,53.23,53.23,0,0,1,5.58.24l5.34.47c1.78.14,3.59.29,5.4.52A44.23,44.23,0,0,1,193.57,374.53Z"/>
      <polygon class="cls-27" points="248.82 211.31 278.5 217.95 270.78 247.02 242.36 239.92 248.82 211.31"/>
      <line class="cls-28" x1="247.45" y1="237.56" x2="266.62" y2="242.25"/>
      <g class="cls-29">
        <path class="cls-30" d="M250.8,232.13a9.48,9.48,0,0,1-.81-3.62,11.11,11.11,0,0,1,.59-3.82,11.83,11.83,0,0,1,2-3.54,11.46,11.46,0,0,1,2.76-2.49"/>
        <path class="cls-30" d="M256.73,221.59a7.58,7.58,0,0,0-1.7,1.52,7.19,7.19,0,0,0-1.29,2.36,6.79,6.79,0,0,0-.31,2.41,5.81,5.81,0,0,0,.6,2.29"/>
        <g class="cls-29">
          <path class="cls-31" d="M264.5,223.43a4.87,4.87,0,0,0-3.17-2.63,5.46,5.46,0,0,0-3,.06,6.36,6.36,0,0,0-1.56.73"/>
          <path class="cls-31" d="M255.3,218.66a10.27,10.27,0,0,1,2.37-1.08,8.84,8.84,0,0,1,4.68-.18,8,8,0,0,1,3.87,2.22,8.18,8.18,0,0,1,1.4,2"/>
        </g>
        <g class="cls-29">
          <path class="cls-32" d="M254,230.17a5,5,0,0,0,2.36,2.35,5.12,5.12,0,0,0,2.35.49c.19.56.4,1.14.63,1.73s.54,1.33.81,1.95a8.71,8.71,0,0,1-3.33.13,7.86,7.86,0,0,1-2.84-1,8.25,8.25,0,0,1-2-1.77,8.73,8.73,0,0,1-1.21-1.9"/>
          <path class="cls-32" d="M267.62,221.62a9.12,9.12,0,0,1,1,3.42,10.87,10.87,0,0,1-.39,3.89h0a10.73,10.73,0,0,1-.87,2.16,8.51,8.51,0,0,1-.93,1.36l-1.75-3.88a6.88,6.88,0,0,0,.43-1.88,6.21,6.21,0,0,0-.57-3.26"/>
        </g>
        <path class="cls-33" d="M263.83,238.45a.24.24,0,0,1-.14-.14l-3.91-9.42a.64.64,0,0,1,.29-.79l.8-.46a.56.56,0,0,1,.83.25l4,9.53c.36.83.55,1.31.64,1.52,0,.05,0,.12-.08.1C265.79,238.94,264.36,238.6,263.83,238.45Z"/>
      </g>
      <g class="cls-34">
        <polygon class="cls-35" points="247.42 216 241.64 240.78 240.9 239.56 245.78 241.06 245.47 242.36 240.44 241.5 239.4 241.33 239.7 240.28 246.69 215.82 247.42 216"/>
      </g>
      <polygon class="cls-36" points="273.14 218.64 275.49 219.35 274.66 221.7 272.68 221 273.14 218.64"/>
      <path class="cls-37" d="M66,186.75C91.86,178.17,114,168.62,114,168.62l-.38,3,.39-3s19.46,13.5,43.73,27.26C179.81,208.41,196.59,213,196.59,213s-8.88,56-25.1,98c-15.1,39.17-78,69.51-85.15,72.88l-.06.43L86,384.1l-.35.16.06-.44c-6-5.67-55.48-53.71-59.29-93.57-4-42.19,1.4-94.89,1.4-94.89S43.35,194.28,66,186.75Z"/>
      <path class="cls-38" d="M72.78,202.05a358.29,358.29,0,0,0,38.84-15.39l-.31,2.4.32-2.4a343.84,343.84,0,0,0,34.93,23.17c17.63,10.14,31,13.88,31,13.88s-7.07,44.77-20,78.5c-12.06,31.47-62.78,58.25-68.59,61l0,.35-.24-.21-.28.13,0-.35C83.62,358.6,43.71,318,40.59,285.75c-3.3-34.2,1.13-76.91,1.13-76.91S54.37,208,72.78,202.05Z"/>
      <path class="cls-39" d="M66,186.75C91.86,178.17,114,168.62,114,168.62l-.38,3,.39-3L88.81,364.41l-3.17,19.85.06-.44c-6-5.67-55.48-53.71-59.29-93.57-4-42.19,1.4-94.89,1.4-94.89S43.35,194.28,66,186.75Z"/>
      <path class="cls-40" d="M127.4,189a3.5,3.5,0,0,0,3.1,4,3.78,3.78,0,0,0,4.06-3.27,3.49,3.49,0,0,0-3.11-4A3.77,3.77,0,0,0,127.4,189Z"/>
      <path class="cls-40" d="M153.84,205a3.55,3.55,0,0,0,3.16,4,3.79,3.79,0,0,0,4.14-3.28,3.54,3.54,0,0,0-3.17-4A3.8,3.8,0,0,0,153.84,205Z"/>
      <path class="cls-40" d="M182.47,217.9a3.62,3.62,0,0,0,3.24,4.09,3.85,3.85,0,0,0,4.23-3.3,3.61,3.61,0,0,0-3.25-4.09A3.86,3.86,0,0,0,182.47,217.9Z"/>
      <path class="cls-40" d="M178.19,246.72a3.67,3.67,0,0,0,3.23,4.13,3.79,3.79,0,0,0,4.22-3.24,3.68,3.68,0,0,0-3.24-4.14A3.81,3.81,0,0,0,178.19,246.72Z"/>
      <path class="cls-40" d="M169.71,278.25a3.74,3.74,0,1,0,4.19-3.2A3.72,3.72,0,0,0,169.71,278.25Z"/>
      <path class="cls-40" d="M160.68,307.38a3.75,3.75,0,0,0,3.19,4.18,3.66,3.66,0,0,0,4.17-3.13,3.75,3.75,0,0,0-3.2-4.19A3.66,3.66,0,0,0,160.68,307.38Z"/>
      <path class="cls-40" d="M137.66,337.33a3.77,3.77,0,0,0,3.14,4.19,3.55,3.55,0,0,0,4.09-3.07,3.76,3.76,0,0,0-3.14-4.19A3.57,3.57,0,0,0,137.66,337.33Z"/>
      <path class="cls-40" d="M112.25,357.77a3.75,3.75,0,0,0,3.07,4.17,3.46,3.46,0,0,0,4-3,3.76,3.76,0,0,0-3.08-4.18A3.47,3.47,0,0,0,112.25,357.77Z"/>
      <path class="cls-40" d="M95.84,185.93a3.69,3.69,0,0,1-3.94,3.23,3.41,3.41,0,0,1-3-3.91A3.67,3.67,0,0,1,92.82,182,3.42,3.42,0,0,1,95.84,185.93Z"/>
      <path class="cls-40" d="M67.3,196.08a3.6,3.6,0,0,1-3.85,3.18,3.38,3.38,0,0,1-2.93-3.88,3.59,3.59,0,0,1,3.84-3.18A3.39,3.39,0,0,1,67.3,196.08Z"/>
      <path class="cls-40" d="M39,202.58a3.51,3.51,0,0,1-3.76,3.14,3.35,3.35,0,0,1-2.87-3.84,3.51,3.51,0,0,1,3.75-3.14A3.34,3.34,0,0,1,39,202.58Z"/>
      <path class="cls-40" d="M35.72,229.86A3.46,3.46,0,0,1,32,233a3.39,3.39,0,0,1-2.86-3.87A3.47,3.47,0,0,1,32.85,226,3.38,3.38,0,0,1,35.72,229.86Z"/>
      <path class="cls-40" d="M35.3,259.64a3.34,3.34,0,1,1-2.87-3.91A3.41,3.41,0,0,1,35.3,259.64Z"/>
      <path class="cls-40" d="M36.66,288.17a3.37,3.37,0,0,1-3.76,3A3.5,3.5,0,0,1,30,287.23a3.38,3.38,0,0,1,3.76-3A3.49,3.49,0,0,1,36.66,288.17Z"/>
      <path class="cls-40" d="M49.3,322.56a3.36,3.36,0,0,1-3.81,3,3.57,3.57,0,0,1-2.9-4,3.35,3.35,0,0,1,3.8-3A3.57,3.57,0,0,1,49.3,322.56Z"/>
      <path class="cls-40" d="M68.46,350.19a3.36,3.36,0,0,1-3.87,3,3.66,3.66,0,0,1-2.94-4.08,3.35,3.35,0,0,1,3.85-3A3.66,3.66,0,0,1,68.46,350.19Z"/>
      <path class="cls-40" d="M91.8,373.24a3.39,3.39,0,0,1-3.94,2.95,3.74,3.74,0,0,1-3-4.15,3.38,3.38,0,0,1,3.93-3A3.75,3.75,0,0,1,91.8,373.24Z"/>
      <path class="cls-40" d="M85.64,384.26c8-4.22,15.84-8.65,23.54-13.36s15.28-9.57,22.58-14.85a165.89,165.89,0,0,0,20.65-17.25l2.29-2.44,1.15-1.22,1.05-1.29c1.44-1.69,2.68-3.55,3.95-5.38a113.15,113.15,0,0,0,6.55-11.69,208.89,208.89,0,0,0,10-25c2.85-8.53,5.31-17.2,7.59-25.91s4.3-17.51,6.13-26.33,3.54-17.69,5-26.58l.88.12a499.5,499.5,0,0,1-10.21,53.25c-2.15,8.78-4.69,17.48-7.53,26.08a209.29,209.29,0,0,1-10.1,25.25,113.26,113.26,0,0,1-6.79,11.85,67.61,67.61,0,0,1-4.11,5.49l-1.09,1.33L156,337.56,153.65,340a154.7,154.7,0,0,1-21.08,17.17A349,349,0,0,1,85.64,384.26Z"/>
    </g>
  </g>
</svg>
