<svg xmlns="http://www.w3.org/2000/svg" width="392" height="545" viewBox="0 0 392 545">
  <defs>
    <style>
      .cls-1 {
        isolation: isolate;
      }

      .cls-2 {
        fill: #3c5968;
      }

      .cls-3 {
        fill: #3b5b66;
      }

      .cls-4 {
        fill: #2b4c57;
      }

      .cls-5 {
        fill: #3a4449;
      }

      .cls-6 {
        fill: #40606d;
      }

      .cls-7 {
        fill: #42626d;
      }

      .cls-8 {
        fill: #2f545e;
      }

      .cls-9 {
        fill: #b6e0ef;
      }

      .cls-10 {
        fill: #2483c5;
      }

      .cls-11 {
        opacity: 0.6;
      }

      .cls-12 {
        fill: #405e6b;
      }

      .cls-13 {
        fill: #755946;
      }

      .cls-14 {
        fill: #f1b291;
      }

      .cls-15 {
        fill: none;
        stroke: #353e45;
        stroke-width: 3px;
      }

      .cls-15, .cls-28 {
        stroke-miterlimit: 10;
      }

      .cls-16 {
        fill: #a7755c;
      }

      .cls-17 {
        fill: #f7f5f5;
      }

      .cls-18 {
        fill: #684f3c;
      }

      .cls-19 {
        fill: #5b422a;
      }

      .cls-20 {
        fill: #1b6087;
      }

      .cls-21 {
        fill: #a77056;
      }

      .cls-22 {
        fill: #915a46;
      }

      .cls-23 {
        opacity: 0.8;
      }

      .cls-24 {
        fill: #353e45;
      }

      .cls-25 {
        opacity: 0.77;
      }

      .cls-26 {
        opacity: 0.7;
      }

      .cls-27 {
        fill: #eff4f4;
      }

      .cls-28, .cls-35 {
        fill: #536872;
      }

      .cls-28 {
        stroke: #405a63;
        stroke-width: 1.05px;
      }

      .cls-28, .cls-33, .cls-38 {
        opacity: 0.3;
      }

      .cls-29 {
        mix-blend-mode: multiply;
      }

      .cls-30 {
        fill: #f9a51a;
      }

      .cls-31 {
        fill: #ec125f;
      }

      .cls-32 {
        fill: #72be44;
      }

      .cls-34 {
        fill: #516672;
      }

      .cls-35 {
        opacity: 0.18;
      }

      .cls-36 {
        fill: #7ebec1;
      }

      .cls-37 {
        fill: #6798a0;
      }

      .cls-38 {
        fill: #a3e2e5;
      }

      .cls-39 {
        fill: #90cbd1;
      }

      .cls-40 {
        fill: #79b1b7;
      }

      .cls-41 {
        fill: #77acb2;
      }

      .cls-42 {
        fill: #80bcbf;
      }
    </style>
  </defs>
  <title>Q_security</title>
  <g class="cls-1">
    <g id="Ebene_1" data-name="Ebene 1">
      <path class="cls-2" d="M167.92,341.35l-3,29.79s30.58,11.82,62,16.5,51.47,2.12,51.47,2.12l2.84-38.95Z"/>
      <path class="cls-3" d="M187.31,195.55l-8.07,1.25s-16.13,47.55-34.49,66.73c-20.1,21-50.16,15.37-50.16,15.37s.2,9-.2,17c-.6,11.65-3.83,16.16-3.83,16.16s39.41,5.44,64.7-12.63,41.08-78.07,41.08-78.07"/>
      <path class="cls-4" d="M175.43,230.49q-.65,10.34-1.72,20.62c-.68,6.86-1.49,13.7-2.33,20.54s-1.79,13.66-2.8,20.49-2.11,13.64-3.38,20.43q.61-10.35,1.65-20.63c.65-6.86,1.47-13.7,2.31-20.55S171,257.72,172,250.9,174.14,237.27,175.43,230.49Z"/>
      <path class="cls-5" d="M297.84,489.47a50.82,50.82,0,0,1,6.69,10.65,31.11,31.11,0,0,1,2.25,9.11s-9.26,5.21-25.72,7.83A135.14,135.14,0,0,1,246,518.13s2-6.92,14-14c8.27-4.91,22.16-10.33,22.16-10.33"/>
      <path class="cls-5" d="M189.21,484.59s4.23,5.94,6,11.22a31,31,0,0,1,1.61,9.29s-8.75,3.28-25.59,4.45a195.68,195.68,0,0,1-36.53-1s2.51-6.73,15.17-12.77c8.72-4.16,23.16-8.34,23.16-8.34"/>
      <path class="cls-2" d="M165.25,368.55s-6.8,28.88-8.36,56.92c-.87,22.39,1.81,63.67,1.81,63.67a89.09,89.09,0,0,0,17.66.83,120.06,120.06,0,0,0,17.25-2.59s-1.75-37.26-.79-60.31a303.1,303.1,0,0,1,7-44.84"/>
      <path class="cls-6" d="M181.94,196.28s38.57-10.75,70.89-5.88c40.24,6.07,65,20.36,65,20.36S300.45,287,298.26,319.9s-2,58.47-2,58.47-32.42,7.35-81.6-.18c-39.08-6-60.74-17.59-60.74-17.59s8.13-30.5,16.27-81.82c3.81-24,8.35-65.16,8.35-65.16"/>
      <path class="cls-2" d="M239.62,383.2s4.76,29,9.27,52.61c7.11,32.58,20.92,62.68,20.92,62.68s7.36.27,17.34-.22c12-1.26,16.18-4.74,16.18-4.74s-13.35-34-18.78-59c-5-31.94-5.83-51.46-5.83-51.46"/>
      <g>
        <polyline class="cls-6" points="246.87 331.03 247.86 345.85 290.31 348.03 289.95 335.37"/>
        <path class="cls-4" d="M246.87,331l2.07,14.75-1-1c3.54.12,7.08.3,10.61.5l10.6.67c7.07.53,14.13,1,21.2,1.59l-.52.51.05-6.34.09-6.34.45,6.32.4,6.32,0,.52h-.56c-7.09-.14-14.17-.39-21.25-.59l-10.62-.42c-3.54-.17-7.08-.34-10.61-.59l-1-.07v-.93Z"/>
      </g>
      <g>
        <path class="cls-7" d="M216.15,310.18s20.53-14.72,31.28-24.18,21.27-24.19,21.27-24.19l-13.48-10.45,17.5.4s12.75-33.89,12.2-47.44c-.32-7.75-7.71-15.67-7.71-15.67L216.86,184s-8.78,10.06-11.22,13.69-12.17,37.18-12.17,37.18l12.43,6.65-13.18,3.08s1.55,18.6,4.67,31,12.84,32.7,12.84,32.7"/>
        <path class="cls-8" d="M215.81,309.7q7.23-5.3,14.34-10.78c4.73-3.66,9.42-7.36,14-11.22,2.27-1.94,4.47-3.91,6.56-6s4.1-4.3,6.05-6.54c3.89-4.49,7.6-9.18,11.06-14h0l.23,1.56-13.41-10.55h0l-2.38-1.87,3,0,17.51.28-1.09.74c1.92-5.2,3.73-10.48,5.41-15.77s3.24-10.64,4.53-16c.64-2.69,1.22-5.4,1.63-8.11a33.74,33.74,0,0,0,.47-8,20.68,20.68,0,0,0-2.63-7.42,37.45,37.45,0,0,0-4.69-6.57l.74.36-60.34-4.6h0l.94-.39c-3.12,3.54-6.23,7.12-9.18,10.78-.72.91-1.47,1.85-2.09,2.76a22.37,22.37,0,0,0-1.38,3c-.85,2.18-1.63,4.41-2.39,6.65-3,9-5.82,18-8.55,27.08h0l-.33-.79,12.58,6.36h0l2.4,1.21-2.65.65L193,245.75h0l.87-1.2c.45,5.49,1,11,1.8,16.48a136,136,0,0,0,3.07,16.23,153.06,153.06,0,0,0,5.46,15.61q3.09,7.7,6.59,15.24l-1.09.52q-3.63-7.52-6.87-15.2a154.54,154.54,0,0,1-5.78-15.7c-.8-2.7-1.39-5.43-1.94-8.17s-1-5.49-1.44-8.24c-.85-5.51-1.53-11-2.07-16.58l-.1-1,1-.22h0l13.2-2.95-.24,1.86h0l-12.27-6.93-.48-.27.15-.52h0c2.59-9.12,5.24-18.22,8.13-27.27.73-2.26,1.48-4.52,2.31-6.77a22.74,22.74,0,0,1,1.51-3.44c.69-1.06,1.42-2,2.15-2.94,2.94-3.76,6-7.39,9.07-11l.37-.43.58,0h0l60.34,4.6.46,0,.29.32a39.55,39.55,0,0,1,5,7,22.89,22.89,0,0,1,2.9,8.26,35.58,35.58,0,0,1-.48,8.64c-.43,2.8-1,5.56-1.67,8.29-1.31,5.47-2.88,10.85-4.57,16.18s-3.5,10.62-5.45,15.89l-.28.76-.81,0-17.5-.51.65-1.83h0l13.55,10.36.87.67-.65.89h0c-3.6,4.86-7.39,9.51-11.41,14-2,2.24-4.08,4.43-6.24,6.54s-4.44,4.11-6.76,6c-4.64,3.82-9.4,7.46-14.2,11.05s-9.64,7.11-14.53,10.57Z"/>
      </g>
      <path class="cls-9" d="M214.91,301.77s20.32-18.65,36.65-50.86c12.49-24.63,19.68-51.73,19.68-51.73l-55.18-4.5s-7.56,25.65-8.48,48.3A185.71,185.71,0,0,0,214.91,301.77Z"/>
      <path class="cls-10" d="M232.61,202.67l-9.26,12.09s1.88,2.43,6.85,3a21.29,21.29,0,0,0,8.72-.72l-4.62-14.18Z"/>
      <g class="cls-11">
        <path class="cls-12" d="M213.06,207.74a25.38,25.38,0,0,0,3.61,4.3c1.37,1.36,2.85,2.68,4.34,3.9h0l-1.44.22,13.08-18.61,1.74-2.48.89,2.88,7,22.63-.94-.56h0c2.37-.49,4.76-1.11,7.11-1.79s4.68-1.44,7-2.3a42.07,42.07,0,0,0,6.53-3,31.8,31.8,0,0,0,5.7-4.1l2.07,2.17a34.18,34.18,0,0,1-6.48,4.29,43.48,43.48,0,0,1-7,2.91c-2.38.78-4.79,1.43-7.22,2s-4.86,1.09-7.34,1.48h0l-.68.14-.26-.69-8.24-22.21,2.63.41-13.84,18.06-.64.83-.8-.61h0c-1.68-1.16-3.28-2.38-4.84-3.7a27.87,27.87,0,0,1-4.39-4.5Z"/>
      </g>
      <path class="cls-13" d="M224.15,52.94S205.58,69.86,203,83.48c-1.88,9.94-.88,27-.88,27l32.07-53.92Z"/>
      <path class="cls-14" d="M284.94,178.33s-3.51,14.53-17.77,20.47c-20,8.33-71.1-.8-77.59-9.19-5.64-7.29.75-49.8,12.7-85.89C211.69,75.32,230,51.29,230,51.29s29.25-3.24,52.4,3.16a84.17,84.17,0,0,1,32,17.46L289.84,163.6"/>
      <path class="cls-13" d="M303,70.47S294.58,85,292.55,97.89c-1.75,11.14-3.27,37.62-3.27,37.62a104.58,104.58,0,0,0-8.47,11.76c-4.75,8.23-3.16,15.09-3.16,15.09l16.2-15.3L282.59,184.2s7.52,0,12.3-8.78,22.16-43.49,25.72-56.8c1.89-7.07,8.81-42.17,5.73-49a11.47,11.47,0,0,0-6.64-6.16A16.44,16.44,0,0,0,309.12,47.8c-16.61-7-55.2-11.27-70.32-9.25-11.61,1.55-29,15.78-29,15.78S224.54,59,232.32,58.7s28.79-4,28.79-4-13.06,4.72-16.92,6.49S233,68.25,233,68.25s14.69,1.39,19.73.94,25.69-6.46,25.69-6.46-8.24,3.76-12.12,5.78a61.49,61.49,0,0,0-7.55,4.8s13.32,3.31,23.65,2.43S303,70.47,303,70.47Z"/>
      <line class="cls-15" x1="282.97" y1="139.14" x2="300.07" y2="146.35"/>
      <path class="cls-14" d="M284,156.49s8.34-13.77,18.86-13.64c14.85.19,5.71,30.09-4.81,34-9.22,3.45-14.21-1.11-14.21-1.11"/>
      <path class="cls-16" d="M286.77,164.67a19,19,0,0,1,7.68-11.16,12.79,12.79,0,0,1,3.32-1.6,12.51,12.51,0,0,1,1.81-.44,11.25,11.25,0,0,1,1.89-.09c2.51.08,5.19,1.33,6.16,3.61a12,12,0,0,0-5.94-.12,18.05,18.05,0,0,0-2.64.8,15.57,15.57,0,0,0-2.55,1.17,33.14,33.14,0,0,0-4.87,3.51C290,161.7,288.45,163.15,286.77,164.67Z"/>
      <path class="cls-17" d="M276.79,133.44c-1.72,7.64-8.56,12-16.65,10.33a13.65,13.65,0,0,1-10.67-16.48,14,14,0,1,1,27.32,6.15Z"/>
      <path class="cls-17" d="M224.87,123.74c-2.19,7.4-7.58,12.23-15.09,10.65-7-1.49-10.9-8.68-9.5-16.27,1.49-8.05,8.49-12.21,15.52-10.63S226.92,116.85,224.87,123.74Z"/>
      <path class="cls-18" d="M248.68,110s13.21-.16,22.46,2.27,13,6.31,13,6.31l-.24-4.17s-1.45-6.16-13.56-8.13a111.91,111.91,0,0,0-20.86-1.1Z"/>
      <path class="cls-19" d="M254.29,119a10.19,10.19,0,0,1,6.56-3.79,14,14,0,0,1,7.77,1.06,14.22,14.22,0,0,1,6.12,4.87,11.48,11.48,0,0,1,2.19,7.24,19.55,19.55,0,0,0-4-5.73,17.76,17.76,0,0,0-5.49-3.63,16.93,16.93,0,0,0-6.4-1.48A15.09,15.09,0,0,0,254.29,119Z"/>
      <path class="cls-19" d="M201.69,113.7a8.76,8.76,0,0,1,4.23-5.57,13.51,13.51,0,0,1,7-1.83,12,12,0,0,1,7,1.88,9.29,9.29,0,0,1,4,5.69,12.54,12.54,0,0,0-5-4,13.46,13.46,0,0,0-6-1,18.23,18.23,0,0,0-6.05,1.12A12.91,12.91,0,0,0,201.69,113.7Z"/>
      <path class="cls-18" d="M229.62,107a125.07,125.07,0,0,0-15.73-4.43c-8-1.75-12.66-.27-12.66-.27L203,99s4.76-3.23,12.21-1.91a45.94,45.94,0,0,1,15.62,5.56Z"/>
      <ellipse class="cls-20" cx="262.56" cy="131.3" rx="7.42" ry="5.83" transform="translate(96.1 373.1) rotate(-82.02)"/>
      <ellipse class="cls-20" cx="212.76" cy="121.26" rx="7.21" ry="5.35" transform="translate(60.66 313.19) rotate(-81.29)"/>
      <path class="cls-15" d="M186.1,111.92s.88,21.43,1.79,23S219,142.29,219,142.29"/>
      <g>
        <path class="cls-14" d="M234.68,103.67s-10.82,18.88-16,30.76-6.85,22.13-5.13,24.07,7.76,4.14,14.75,4.56S239,161.7,239,161.7"/>
        <path class="cls-21" d="M234.68,103.67l-9.08,19.62c-3,6.54-6,13-8,19.75-.5,1.68-.94,3.37-1.32,5.06a40.73,40.73,0,0,0-.86,5,22.86,22.86,0,0,0-.12,2.39l0,.53a2.26,2.26,0,0,0,0,.47c0,.29.13.53.08.43a.24.24,0,0,0-.1-.11l.07.07a2.31,2.31,0,0,0,.28.23,7.08,7.08,0,0,0,.84.54,16.59,16.59,0,0,0,2.12,1,32.56,32.56,0,0,0,4.79,1.43,38,38,0,0,0,5,.82c3.4.34,6.68.67,10.51.8a11.75,11.75,0,0,1-5.07,2.79,19.74,19.74,0,0,1-5.69.73,36.59,36.59,0,0,1-11.3-1.94,21.46,21.46,0,0,1-2.8-1.24,11.94,11.94,0,0,1-1.44-.91,7.06,7.06,0,0,1-.75-.65,4.84,4.84,0,0,1-.39-.42,7.18,7.18,0,0,1-.45-.69,6,6,0,0,1-.65-2.15,5.81,5.81,0,0,1-.08-.87l0-.82a24.74,24.74,0,0,1,.26-3,55.53,55.53,0,0,1,2.89-10.87,91.7,91.7,0,0,1,4.4-10.11c1.62-3.26,3.4-6.42,5.19-9.57Q228.54,112.61,234.68,103.67Z"/>
      </g>
      <g>
        <path class="cls-14" d="M211.14,172s3.85-.07,14.75,1.75a205.37,205.37,0,0,1,21.25,4.5"/>
        <path class="cls-22" d="M211.13,171.32a52.73,52.73,0,0,1,9.3.27c3.06.3,6.09.77,9.11,1.29s6,1.18,9,1.95a75.58,75.58,0,0,1,8.81,2.77l-.39,1.35-9-1.54-9-1.58-9-1.62c-3-.52-6-1.09-8.91-1.49Z"/>
      </g>
      <g class="cls-23">
        <path class="cls-21" d="M217.08,177.35a32.68,32.68,0,0,0,3.87,2.64,19.76,19.76,0,0,0,3.94,1.76,20.25,20.25,0,0,0,4.24.83,45.64,45.64,0,0,0,4.7.17,9.6,9.6,0,0,1-4.61,2,11.05,11.05,0,0,1-9.6-3A9.05,9.05,0,0,1,217.08,177.35Z"/>
      </g>
      <path class="cls-21" d="M284.75,176a28,28,0,0,1-1.49,6.58,31.54,31.54,0,0,1-2.89,6.15,30.11,30.11,0,0,1-9.49,9.83,34.66,34.66,0,0,1-13,4.39,77.83,77.83,0,0,1-13.58.78,133.75,133.75,0,0,1-13.49-1c-4.48-.53-8.9-1.13-13.36-1.89a76.55,76.55,0,0,1-13.08-3.53,74.9,74.9,0,0,1-12.22-5.71,128.22,128.22,0,0,0,12.63,4.47,100.6,100.6,0,0,0,13,3,234.75,234.75,0,0,0,26.61,2.42,85.78,85.78,0,0,0,13.23-.63A34.7,34.7,0,0,0,270,197a30.72,30.72,0,0,0,9.48-8.91A34.41,34.41,0,0,0,284.75,176Z"/>
      <path class="cls-24" d="M185.22,110.67l25.41,4.67c8.47,1.57,16.94,3.08,25.4,4.7q25.39,4.88,50.62,10.51l-.89,3.9q-25.12-5.7-50.46-10.59c-8.44-1.64-16.91-3.16-25.36-4.75l-25.37-4.72Z"/>
      <path class="cls-15" d="M235.07,122.23s-.55,20.17,1.32,22.45,33.87,8.72,37.06,8.41,11.85-22,11.85-22"/>
      <polygon class="cls-24" points="220.99 125.39 234.4 127.77 233.91 130.27 220.6 127.36 220.99 125.39"/>
      <path class="cls-14" d="M313.35,348.46s-11.07,2.28-17.85,9.73c-7.69,8.44-10.32,24-5.42,31.79s15.91,9.9,22.13,7.16c5.13-2.26,9.74-15.31,9.74-15.31s2.82-.49,7.78-6.33a21.27,21.27,0,0,0,4.73-12.21C335.12,348,322.37,344.31,313.35,348.46Z"/>
      <g class="cls-23">
        <path class="cls-21" d="M303.6,398.26a34.77,34.77,0,0,1,.34-6.71,60.32,60.32,0,0,1,1.26-6.46,39.8,39.8,0,0,1,2.08-6.3,38,38,0,0,1,3.15-5.86l2,1.23a49.67,49.67,0,0,0-2.59,5.66c-.36,1-.72,1.94-1,2.93s-.53,2-.79,3c-.51,2-.89,4.11-1.22,6.17-.16,1-.29,2.07-.38,3.1a27.73,27.73,0,0,0-.16,3Z"/>
      </g>
      <g class="cls-23">
        <path class="cls-21" d="M291.68,393.44c0-2.24.13-4.42.34-6.63a47.52,47.52,0,0,1,1-6.61,36,36,0,0,1,2.29-6.34,52.1,52.1,0,0,1,3.17-5.88l1.86,1.19a50.11,50.11,0,0,0-2.92,5.64,33.62,33.62,0,0,0-2,5.94,45.13,45.13,0,0,0-.87,6.27c-.16,2.12-.23,4.29-.22,6.39Z"/>
      </g>
      <path class="cls-6" d="M310.23,209.54l8.26,1.72s32.78,43.87,37.89,78.52-20,77.45-20,77.45-5.27-5.26-17.11-11.42a48,48,0,0,0-15-4.62s20-31.14,18.56-55.14-19.18-47.82-19.18-47.82"/>
      <g class="cls-25">
        <path class="cls-4" d="M296.75,240.95a67,67,0,0,1,8.17,7.9c1.27,1.4,2.46,2.87,3.65,4.34s2.3,3,3.39,4.56a44.32,44.32,0,0,1,3,4.95,45.48,45.48,0,0,1,2.37,5.24A41.94,41.94,0,0,1,320.06,279c-1.51-3.48-3.08-6.86-4.81-10.14a85,85,0,0,0-5.73-9.41L303,250.34C300.89,247.27,298.76,244.18,296.75,240.95Z"/>
      </g>
      <path class="cls-10" d="M227.37,217.73s-9.38,25.42-11.8,36.82-4.86,31-4.86,31l4.07,16.22,13.28-14.16,3.65-32.69,1.51-36.62Z"/>
      <g>
        <polyline class="cls-6" points="185.61 319.88 180.87 334.15 158.88 328.52 164.52 316.29"/>
        <path class="cls-4" d="M185.61,319.88l-3.68,14.63-.25,1-1.08-.26q-2.76-.66-5.5-1.41l-5.46-1.54-10.9-3.2-.7-.2.31-.61q3-6,6.17-12-2.51,6.25-5.1,12.47L159,328l11.09,2.44,5.53,1.28q2.76.67,5.5,1.41l-1.33.73Z"/>
      </g>
      <g class="cls-26">
        <path class="cls-6" d="M214.27,302.82s-3.56,30.36-4.54,44.58-1.24,29-1.24,29"/>
        <path class="cls-4" d="M214.77,302.88c-1.28,12.23-2.52,24.47-3.52,36.72-.51,6.12-.83,12.24-1.06,18.38s-.38,12.28-.44,18.41l-2.5,0q.28-9.25.82-18.47c.36-6.15.8-12.31,1.44-18.44,1.25-12.25,2.74-24.47,4.27-36.68Z"/>
      </g>
      <path class="cls-4" d="M231.42,388a128.62,128.62,0,0,1-13.75-1.1c-4.56-.57-9.1-1.38-13.6-2.35-2.24-.53-4.5-1.07-6.71-1.76s-4.4-1.42-6.54-2.3a77.24,77.24,0,0,1-12.37-6.14q6.45,2.45,12.94,4.56c4.35,1.38,8.7,2.58,13.15,3.54s8.92,1.9,13.4,2.8S226.92,387,231.42,388Z"/>
      <path class="cls-4" d="M200.46,386.56a20.82,20.82,0,0,1-5.52,1.36,29.46,29.46,0,0,1-5.64.12,23.65,23.65,0,0,1-5.58-1.15,18.65,18.65,0,0,1-5.11-2.55,55.5,55.5,0,0,1,5.58.24l5.34.47c1.77.14,3.59.3,5.4.52A43.53,43.53,0,0,1,200.46,386.56Z"/>
      <polygon class="cls-27" points="255.71 223.34 285.39 229.98 277.67 259.05 249.25 251.95 255.71 223.34"/>
      <line class="cls-28" x1="254.34" y1="249.59" x2="273.51" y2="254.29"/>
      <g>
        <g class="cls-29">
          <path class="cls-30" d="M270.4,250.55a1.37,1.37,0,0,1-.91-.77l-3.57-7.38a2.19,2.19,0,0,1,.58-2.56,1.29,1.29,0,0,1,2,.47l3.58,7.39a2.19,2.19,0,0,1-.58,2.56A1.35,1.35,0,0,1,270.4,250.55Z"/>
        </g>
        <g class="cls-29">
          <path class="cls-31" d="M272.48,236.13a1.36,1.36,0,0,1-.91-.77,4.73,4.73,0,0,0-7.51-1.72,1.28,1.28,0,0,1-2-.47,2.19,2.19,0,0,1,.58-2.55c4.1-3.26,9.31-2.09,11.61,2.64a2.19,2.19,0,0,1-.58,2.56A1.36,1.36,0,0,1,272.48,236.13Z"/>
        </g>
        <g class="cls-29">
          <path class="cls-10" d="M260.21,245.84a1.35,1.35,0,0,1-.9-.77,12.41,12.41,0,0,1,3.29-14.43,1.28,1.28,0,0,1,2,.46,2.19,2.19,0,0,1-.58,2.55,8,8,0,0,0-2.13,9.35,2.19,2.19,0,0,1-.58,2.55A1.33,1.33,0,0,1,260.21,245.84Z"/>
        </g>
        <g class="cls-29">
          <path class="cls-32" d="M264.4,249.43a7.67,7.67,0,0,1-5.1-4.36,2.19,2.19,0,0,1,.58-2.55,1.28,1.28,0,0,1,2,.48,4.73,4.73,0,0,0,7.5,1.75,8,8,0,0,0,2.14-9.38,2.19,2.19,0,0,1,.58-2.56,1.3,1.3,0,0,1,2.06.47,12.4,12.4,0,0,1-3.31,14.52A7.59,7.59,0,0,1,264.4,249.43Z"/>
        </g>
      </g>
      <g class="cls-33">
        <polygon class="cls-34" points="254.31 228.03 248.53 252.81 247.79 251.59 252.68 253.09 252.36 254.39 247.33 253.53 246.29 253.36 246.59 252.31 253.59 227.85 254.31 228.03"/>
      </g>
      <polygon class="cls-35" points="280.03 230.67 282.38 231.38 281.55 233.73 279.57 233.03 280.03 230.67"/>
      <path class="cls-36" d="M72.91,198.78c25.83-8.58,47.94-18.13,47.94-18.13l-.38,3,.39-3s19.46,13.51,43.73,27.26c22.11,12.53,38.89,17.14,38.89,17.14s-8.87,55.95-25.1,98c-15.1,39.17-78,69.52-85.15,72.88l-.06.44-.29-.27-.35.16.06-.44c-6-5.67-55.48-53.72-59.29-93.58-4-42.18,1.4-94.89,1.4-94.89S50.24,206.31,72.91,198.78Z"/>
      <path class="cls-37" d="M79.67,214.08a358.15,358.15,0,0,0,38.84-15.38l-.31,2.4.32-2.4a344.44,344.44,0,0,0,34.93,23.16c17.64,10.14,31,13.88,31,13.88s-7.06,44.77-20,78.5c-12.06,31.46-62.78,58.25-68.58,61l0,.35-.24-.22-.28.13,0-.35c-4.83-4.54-44.74-45.1-47.85-77.39-3.3-34.19,1.12-76.91,1.12-76.91S61.26,220.07,79.67,214.08Z"/>
      <path class="cls-38" d="M72.91,198.78c25.83-8.58,47.94-18.13,47.94-18.13l-.38,3,.39-3L95.7,376.45l-3.17,19.84.06-.44c-6-5.67-55.48-53.72-59.29-93.58-4-42.18,1.4-94.89,1.4-94.89S50.24,206.31,72.91,198.78Z"/>
      <path class="cls-37" d="M134.29,201.05a3.49,3.49,0,0,0,3.1,4,3.77,3.77,0,0,0,4.06-3.27,3.49,3.49,0,0,0-3.11-4A3.77,3.77,0,0,0,134.29,201.05Z"/>
      <path class="cls-37" d="M160.73,217a3.56,3.56,0,0,0,3.17,4A3.81,3.81,0,0,0,168,217.8a3.56,3.56,0,0,0-3.18-4A3.81,3.81,0,0,0,160.73,217Z"/>
      <path class="cls-37" d="M189.36,229.93a3.63,3.63,0,0,0,3.24,4.1,3.86,3.86,0,0,0,4.23-3.3,3.63,3.63,0,0,0-3.25-4.1A3.86,3.86,0,0,0,189.36,229.93Z"/>
      <path class="cls-37" d="M185.08,258.76a3.67,3.67,0,0,0,3.23,4.13,3.8,3.8,0,0,0,4.22-3.25,3.67,3.67,0,0,0-3.24-4.13A3.8,3.8,0,0,0,185.08,258.76Z"/>
      <path class="cls-37" d="M176.6,290.28a3.73,3.73,0,1,0,4.18-3.19A3.71,3.71,0,0,0,176.6,290.28Z"/>
      <path class="cls-37" d="M167.57,319.41a3.75,3.75,0,0,0,3.19,4.18,3.66,3.66,0,0,0,4.17-3.13,3.75,3.75,0,0,0-3.2-4.19A3.66,3.66,0,0,0,167.57,319.41Z"/>
      <path class="cls-37" d="M144.55,349.36a3.76,3.76,0,0,0,3.13,4.19,3.56,3.56,0,0,0,4.1-3.06,3.76,3.76,0,0,0-3.14-4.19A3.56,3.56,0,0,0,144.55,349.36Z"/>
      <path class="cls-37" d="M119.14,369.8a3.76,3.76,0,0,0,3.07,4.17,3.46,3.46,0,0,0,4-3,3.75,3.75,0,0,0-3.08-4.17A3.46,3.46,0,0,0,119.14,369.8Z"/>
      <path class="cls-37" d="M102.73,198a3.68,3.68,0,0,1-3.94,3.23,3.42,3.42,0,0,1-3-3.91A3.68,3.68,0,0,1,99.71,194,3.42,3.42,0,0,1,102.73,198Z"/>
      <path class="cls-37" d="M74.2,208.11a3.59,3.59,0,0,1-3.85,3.18,3.39,3.39,0,0,1-2.94-3.88,3.59,3.59,0,0,1,3.84-3.18A3.38,3.38,0,0,1,74.2,208.11Z"/>
      <path class="cls-37" d="M45.85,214.61a3.51,3.51,0,0,1-3.77,3.13,3.35,3.35,0,0,1-2.87-3.84A3.51,3.51,0,0,1,43,210.77,3.35,3.35,0,0,1,45.85,214.61Z"/>
      <path class="cls-37" d="M42.61,241.89A3.46,3.46,0,0,1,38.86,245,3.39,3.39,0,0,1,36,241.11,3.46,3.46,0,0,1,39.74,238,3.39,3.39,0,0,1,42.61,241.89Z"/>
      <path class="cls-37" d="M42.19,271.67a3.34,3.34,0,1,1-2.87-3.91A3.41,3.41,0,0,1,42.19,271.67Z"/>
      <path class="cls-37" d="M43.55,300.2a3.37,3.37,0,0,1-3.76,3,3.49,3.49,0,0,1-2.87-3.95,3.37,3.37,0,0,1,3.75-3A3.49,3.49,0,0,1,43.55,300.2Z"/>
      <path class="cls-37" d="M56.19,334.59a3.35,3.35,0,0,1-3.8,3,3.57,3.57,0,0,1-2.9-4,3.35,3.35,0,0,1,3.79-3A3.57,3.57,0,0,1,56.19,334.59Z"/>
      <path class="cls-37" d="M75.35,362.22a3.35,3.35,0,0,1-3.86,3,3.65,3.65,0,0,1-2.95-4.08,3.35,3.35,0,0,1,3.85-3A3.65,3.65,0,0,1,75.35,362.22Z"/>
      <path class="cls-37" d="M98.69,385.27a3.37,3.37,0,0,1-3.93,2.95,3.73,3.73,0,0,1-3-4.15,3.37,3.37,0,0,1,3.93-3A3.73,3.73,0,0,1,98.69,385.27Z"/>
      <g class="cls-11">
        <g class="cls-29">
          <path class="cls-39" d="M130.36,329.67a6.17,6.17,0,0,1-4.46-3l-19.76-31.16a9.86,9.86,0,0,1,1.28-11.72,5.8,5.8,0,0,1,9.41,1.06L136.64,316a9.86,9.86,0,0,1-1.29,11.76A6.06,6.06,0,0,1,130.36,329.67Z"/>
        </g>
        <g class="cls-29">
          <path class="cls-40" d="M132.18,264.17a6.11,6.11,0,0,1-4.45-3c-8.23-12.9-23.69-14.58-34.45-3.79a5.76,5.76,0,0,1-9.35-1,9.85,9.85,0,0,1,1.28-11.69c16.62-16.69,40.52-14.14,53.26,5.79a9.86,9.86,0,0,1-1.29,11.76A6.1,6.1,0,0,1,132.18,264.17Z"/>
        </g>
        <g class="cls-29">
          <path class="cls-41" d="M82.36,313.88a6.08,6.08,0,0,1-4.41-3c-6.09-9.66-8.69-21.85-7.33-34.34s6.54-23.81,14.57-31.87a5.76,5.76,0,0,1,9.35,1,9.85,9.85,0,0,1-1.28,11.7,36.13,36.13,0,0,0-4.69,42.88A9.85,9.85,0,0,1,87.3,312,6,6,0,0,1,82.36,313.88Z"/>
        </g>
        <g class="cls-29">
          <path class="cls-42" d="M103,327.75c-10-1.18-18.92-7.16-25-16.84a9.85,9.85,0,0,1,1.28-11.69,5.76,5.76,0,0,1,9.35,1.07c8.17,12.92,23.62,14.72,34.44,4s13-30.12,4.71-43A9.86,9.86,0,0,1,129,249.47a5.83,5.83,0,0,1,9.45,1c6.19,9.68,8.84,22,7.46,34.55s-6.62,24-14.74,32.05S113,328.94,103,327.75Z"/>
        </g>
      </g>
      <path class="cls-37" d="M92.53,396.29q12-6.33,23.54-13.36c7.71-4.67,15.29-9.57,22.58-14.85a165.43,165.43,0,0,0,20.65-17.25l2.3-2.44,1.15-1.22,1-1.29a66.13,66.13,0,0,0,3.95-5.38,112.52,112.52,0,0,0,6.55-11.7,207.48,207.48,0,0,0,10-25c2.86-8.53,5.31-17.2,7.59-25.91s4.29-17.5,6.13-26.33,3.53-17.69,5-26.58l.88.12a496.93,496.93,0,0,1-10.21,53.24c-2.15,8.79-4.69,17.48-7.53,26.08a208.4,208.4,0,0,1-10.09,25.25,114.39,114.39,0,0,1-6.79,11.85,68,68,0,0,1-4.11,5.49l-1.09,1.33-1.18,1.24-2.37,2.47a154.72,154.72,0,0,1-21.07,17.17A349.69,349.69,0,0,1,92.53,396.29Z"/>
    </g>
  </g>
</svg>
