<svg xmlns="http://www.w3.org/2000/svg" width="449" height="540" viewBox="0 0 449 540">
  <defs>
    <style>
      .cls-1 {
        isolation: isolate;
      }

      .cls-2 {
        fill: #3a4449;
      }

      .cls-3 {
        fill: #385560;
      }

      .cls-4 {
        fill: #3c5968;
      }

      .cls-5 {
        fill: #3b5b66;
      }

      .cls-6 {
        fill: #2b4c57;
      }

      .cls-7 {
        fill: #40606d;
      }

      .cls-8 {
        fill: #42626d;
      }

      .cls-9 {
        fill: #2f545e;
      }

      .cls-10 {
        fill: #b6e0ef;
      }

      .cls-11 {
        fill: #2483c5;
      }

      .cls-12 {
        opacity: 0.6;
      }

      .cls-13 {
        fill: #405e6b;
      }

      .cls-14 {
        opacity: 0.7;
      }

      .cls-15 {
        fill: #eff4f4;
      }

      .cls-16, .cls-23 {
        fill: #536872;
      }

      .cls-16 {
        stroke: #405a63;
        stroke-width: 1.04px;
      }

      .cls-16, .cls-36 {
        stroke-miterlimit: 10;
      }

      .cls-16, .cls-21 {
        opacity: 0.3;
      }

      .cls-17 {
        mix-blend-mode: multiply;
      }

      .cls-18 {
        fill: #f9a51a;
      }

      .cls-19 {
        fill: #ec125f;
      }

      .cls-20 {
        fill: #72be44;
      }

      .cls-22 {
        fill: #516672;
      }

      .cls-23 {
        opacity: 0.18;
      }

      .cls-24 {
        fill: #456572;
      }

      .cls-25 {
        fill: #68aaaf;
      }

      .cls-26, .cls-32, .cls-36 {
        fill: none;
      }

      .cls-26, .cls-32 {
        stroke: #68aaaf;
        stroke-linejoin: round;
      }

      .cls-26 {
        stroke-width: 4.2px;
      }

      .cls-27 {
        fill: #7bb4ba;
      }

      .cls-28 {
        fill: #6a767a;
      }

      .cls-29 {
        fill: #5d787c;
      }

      .cls-30 {
        fill: #f1b291;
      }

      .cls-31 {
        fill: #717d82;
      }

      .cls-32 {
        stroke-width: 3.15px;
      }

      .cls-33 {
        opacity: 0.63;
      }

      .cls-34 {
        fill: #a77056;
      }

      .cls-35 {
        fill: #755946;
      }

      .cls-36 {
        stroke: #353e45;
        stroke-width: 3px;
      }

      .cls-37 {
        fill: #a7755c;
      }

      .cls-38 {
        fill: #f7f5f5;
      }

      .cls-39 {
        fill: #684f3c;
      }

      .cls-40 {
        fill: #5b422a;
      }

      .cls-41 {
        fill: #1b6087;
      }

      .cls-42 {
        fill: #65262d;
        opacity: 0.9;
      }

      .cls-43 {
        fill: #cb5b65;
        opacity: 0.84;
      }

      .cls-44 {
        fill: #915a46;
      }

      .cls-45 {
        opacity: 0.8;
      }

      .cls-46 {
        fill: #353e45;
      }
    </style>
  </defs>
  <title>Q_shopping</title>
  <g class="cls-1">
    <g id="Ebene_1" data-name="Ebene 1">
      <path class="cls-2" d="M70.26,423.7s-7.29-.32-12.67,1.07a31,31,0,0,0-8.68,3.69,172.75,172.75,0,0,0,13,33.63c9.86,19.26,16.87,20.31,16.87,20.31s4.28-5.76,2.49-19.67c-1.24-9.58-4.58-23.86-4.58-23.86"/>
      <path class="cls-3" d="M169.88,354.83s-15,33.33-31.33,54.67c-13.23,18.15-58.67,41-58.67,41a26.09,26.09,0,0,1-11.67-10.33c-8-11.33-8-18.33-8-18.33s36.11-13.61,49.67-32.33c10.68-14.53,17.67-35.67,17.67-35.67"/>
      <path class="cls-4" d="M179.65,334.33l-2.43,26.51s-21.36,10.36-53,13c-16,1.33-35.67,6.33-45.67-3.67s-14-32-14-32Z"/>
      <path class="cls-5" d="M177,185.54l11.15,3.55s6.2,55.11,19.78,68.54c6.82,6.75,19.71,10.86,27.38,12.22a17.13,17.13,0,0,1,14,19.57l-.07.41c-1.67,9.33-9.67,14.67-9.67,14.67s-27.42-2.83-48.7-13.86C161.52,275.44,166,219.1,166,219.1Z"/>
      <path class="cls-6" d="M187.81,225.13q.7,10.33,1,20.68c.22,6.89.3,13.79.37,20.69s0,13.79-.15,20.68-.4,13.78-.81,20.68q-.68-10.33-.93-20.68c-.19-6.9-.28-13.79-.34-20.68s0-13.78.13-20.67S187.42,232,187.81,225.13Z"/>
      <path class="cls-6" d="M112.22,374.17c9.33-.57,18.58-1.07,27.72-2.32A124.31,124.31,0,0,0,153.48,369c4.49-1.16,8.94-2.48,13.41-3.86a93.12,93.12,0,0,1-13,5.39c-2.22.76-4.47,1.42-6.76,2a68.4,68.4,0,0,1-6.93,1.4,101,101,0,0,1-14,1.08A91.4,91.4,0,0,1,112.22,374.17Z"/>
      <path class="cls-2" d="M126.28,480.18a50.82,50.82,0,0,0-.68,12.56,31.11,31.11,0,0,0,2.45,9.06s10.62.06,26.29-5.64a157.47,157.47,0,0,0,33.19-17.1s-7.09-4.08-21-4.49c-9.61-.28-24.39,1.73-24.39,1.73"/>
      <path class="cls-4" d="M113.88,362.5a188.58,188.58,0,0,1,25,46.81c7.57,17,17,64.52,17,64.52s-3.33,3.33-14.33,8a57.06,57.06,0,0,1-18.62,4.66s-7.59-44.65-15.28-61.83C96.71,399.09,71.88,359.5,71.88,359.5"/>
      <path class="cls-7" d="M185.41,188.39s-27.34-11.45-67.12-11.4c-40.7.05-70.41,11.63-70.41,11.63S57,266.35,55.23,299.31s-5,56.3-5,56.3,31.05,9.89,83.05,8.89c39.53-.76,55.5-7,55.5-7s.44-31.87-1.54-83.79c-.93-24.31-.55-65.69-.55-65.69"/>
      <g>
        <polyline class="cls-7" points="103.43 316.47 100.68 331.07 57.31 327 59.88 311.5"/>
        <path class="cls-6" d="M103.43,316.47l-1.69,14.8-.11,1-1.05-.09c-7.23-.65-14.45-1.41-21.68-2.11s-14.44-1.49-21.66-2.32l-.79-.09.16-.73,3.27-15.38L58,327.12l-.64-.83c7.24.53,14.47,1.17,21.71,1.75s14.47,1.25,21.69,2l-1.16.88Z"/>
      </g>
      <g>
        <path class="cls-8" d="M137.91,299.42s-18.64-17.05-28.18-27.73-18.24-26.55-18.24-26.55l14.63-8.78-17.43-1.69s-8.64-35.17-6.47-48.55c1.24-7.65,9.51-14.64,9.51-14.64l60.46,2.61s9.52,10,11.51,13.93,5.67,39.36,5.67,39.36l-13.13,5.12L169,237.13s-3.75,18.29-8.32,30.26S144,298.33,144,298.33"/>
        <path class="cls-9" d="M137.52,299.85q-6.66-6-13.17-12.23c-4.34-4.14-8.63-8.31-12.78-12.66-2.07-2.17-4.11-4.42-6-6.78s-3.68-4.78-5.42-7.24c-3.45-4.94-6.66-10-9.66-15.26h0l-.53-1,.95-.56,14.69-8.68h0l.43,1.89-17.44-1.57-1-.86c-1.31-5.46-2.47-10.92-3.52-16.42s-2-11-2.61-16.61c-.32-2.79-.58-5.6-.67-8.43a35.58,35.58,0,0,1,.55-8.63A22.89,22.89,0,0,1,85.18,177,39.56,39.56,0,0,1,91,170.62l.32-.29.46,0L152.24,173h0l.47,0,.31.33c3.29,3.58,6.51,7.18,9.49,11.09a24.4,24.4,0,0,1,2.08,3.17,10.58,10.58,0,0,1,.62,1.93c.15.61.28,1.21.39,1.81.47,2.4.82,4.8,1.16,7.2,1.32,9.59,2.33,19.19,3.28,28.8h0l0,.5-.48.2-13,5.42h0l0-1.88,12.76,4.5h0l.94.33-.21,1c-1.2,5.46-2.53,10.85-4,16.22q-1.12,4-2.41,8c-.87,2.65-1.78,5.3-2.9,7.88a154.55,154.55,0,0,1-7.6,14.9q-4.13,7.26-8.62,14.28l-1-.65q4.35-7.06,8.35-14.35a153.11,153.11,0,0,0,7.28-14.86,135.93,135.93,0,0,0,5-15.75c1.4-5.34,2.65-10.75,3.75-16.15l.73,1.3h0l-12.67-4.75-2.55-1,2.53-.92h0l13.24-4.82-.43.7h0c-1.1-9.58-2.27-19.16-3.73-28.68-.38-2.37-.77-4.75-1.26-7.08-.12-.58-.25-1.16-.4-1.72a9.51,9.51,0,0,0-.5-1.51,22.92,22.92,0,0,0-1.94-2.84c-2.93-3.73-6.21-7.28-9.51-10.76l.78.35h0l-60.46-2.61.78-.27a37.45,37.45,0,0,0-5.44,6,20.68,20.68,0,0,0-3.5,7.06,33.74,33.74,0,0,0-.48,8c.09,2.74.35,5.5.66,8.25.64,5.5,1.56,11,2.59,16.45s2.2,10.91,3.5,16.3l-1-.86,17.41,1.8,3,.31-2.59,1.58h0l-14.57,8.88.41-1.52h0c2.86,5.19,6,10.29,9.31,15.21,1.67,2.46,3.41,4.87,5.23,7.21s3.77,4.56,5.79,6.76c4,4.38,8.27,8.61,12.53,12.8s8.59,8.32,13,12.4Z"/>
      </g>
      <path class="cls-10" d="M140.14,291.22s-18-20.93-30.35-54.85c-9.48-25.94-13.39-53.7-13.39-53.7l55.32,2.09s4.46,26.36,2.69,49A185.71,185.71,0,0,1,140.14,291.22Z"/>
      <path class="cls-11" d="M134.34,190.71l7.76,13.1s-2.15,2.19-7.16,2.19a21.29,21.29,0,0,1-8.57-1.75l6.27-13.53Z"/>
      <g class="cls-12">
        <path class="cls-13" d="M155.43,200a27.87,27.87,0,0,1-4.9,3.95c-1.71,1.13-3.43,2.14-5.24,3.09h0l-.87.51-.53-.9L132.29,187.1,135,187l-10.82,21.07-.34.66-.66-.22h0c-2.42-.69-4.77-1.48-7.12-2.34s-4.65-1.81-6.93-2.86a43.48,43.48,0,0,1-6.64-3.72,34.17,34.17,0,0,1-5.92-5l2.31-1.91a31.8,31.8,0,0,0,5.17,4.75,42.06,42.06,0,0,0,6.12,3.78c2.16,1.13,4.38,2.15,6.63,3.11s4.55,1.85,6.84,2.62h0l-1,.44,9.63-21.64,1.23-2.76,1.43,2.67,10.77,20-1.4-.39h0c1.63-1,3.25-2.17,4.78-3.36a25.38,25.38,0,0,0,4.09-3.84Z"/>
      </g>
      <path class="cls-11" d="M137.76,206.29s6.29,26.36,7.34,38,1.14,31.34,1.14,31.34l-6,15.63-11.5-15.64.26-32.89,2.85-36.54Z"/>
      <g>
        <polyline class="cls-7" points="169.08 312.68 172.09 327.41 192.59 323.43 188.38 307.5"/>
        <path class="cls-6" d="M169.08,312.68l4.1,14.52-1.3-.87q2.56-.54,5.13-1l5.15-.86,10.33-1.61-.45.72q-1.86-8-3.64-16.08,2.43,7.88,4.77,15.78l.17.58-.63.15-10.18,2.37-5.1,1.13q-2.56.54-5.13,1l-1.17.21-.14-1.08Z"/>
      </g>
      <g class="cls-14">
        <path class="cls-7" d="M141.65,290.34s-.07,30.57-.79,44.8-2.31,29.7-2.31,29.7"/>
        <path class="cls-6" d="M142.15,290.34c.07,12.44.09,24.87-.13,37.32-.09,6.23-.41,12.46-.8,18.67s-.87,12.42-1.43,18.63l-2.49-.26q1-9.24,1.79-18.53c.51-6.19.95-12.37,1.17-18.57.47-12.41.7-24.84.88-37.27Z"/>
      </g>
      <polygon class="cls-15" points="149.03 211.27 177.29 210.5 180.15 240.77 152.88 240.79 149.03 211.27"/>
      <line class="cls-16" x1="156.68" y1="237.23" x2="175.62" y2="237.06"/>
      <g>
        <g class="cls-17">
          <path class="cls-18" d="M171.82,234.21a1.53,1.53,0,0,1-1.13-.53l-6-6.32a2.27,2.27,0,0,1-.35-2.64,1.27,1.27,0,0,1,2.1,0l6,6.32a2.27,2.27,0,0,1,.35,2.65A1.18,1.18,0,0,1,171.82,234.21Z"/>
        </g>
        <g class="cls-17">
          <path class="cls-19" d="M168.7,219.64a1.52,1.52,0,0,1-1.12-.52c-2.47-2.61-5.91-2.52-7.67.19a1.26,1.26,0,0,1-2.08.05,2.26,2.26,0,0,1-.35-2.63c2.71-4.2,8-4.35,11.85-.31a2.27,2.27,0,0,1,.35,2.64A1.19,1.19,0,0,1,168.7,219.64Z"/>
        </g>
        <g class="cls-17">
          <path class="cls-11" d="M160.57,232.15a1.51,1.51,0,0,1-1.11-.53,13.43,13.43,0,0,1-3.43-7.39,11.14,11.14,0,0,1,1.45-7.5,1.26,1.26,0,0,1,2.08-.05,2.26,2.26,0,0,1,.35,2.63,7.2,7.2,0,0,0-.94,4.86,8.69,8.69,0,0,0,2.22,4.79,2.26,2.26,0,0,1,.35,2.63A1.17,1.17,0,0,1,160.57,232.15Z"/>
        </g>
        <g class="cls-17">
          <path class="cls-20" d="M165.78,234.61a8.59,8.59,0,0,1-6.33-3,2.26,2.26,0,0,1-.35-2.63,1.27,1.27,0,0,1,2.08,0c2.46,2.62,5.91,2.56,7.67-.15s1.19-7.06-1.29-9.68a2.27,2.27,0,0,1-.35-2.64,1.28,1.28,0,0,1,2.1-.05,13.42,13.42,0,0,1,3.47,7.44,11.11,11.11,0,0,1-1.48,7.55A6.66,6.66,0,0,1,165.78,234.61Z"/>
        </g>
      </g>
      <g class="cls-21">
        <polygon class="cls-22" points="149.36 216.17 152.54 241.71 151.54 240.82 156.43 241.06 156.45 242.39 151.57 242.79 150.65 242.87 150.57 241.9 148.63 216.24 149.36 216.17"/>
      </g>
      <polygon class="cls-23" points="172.84 212.51 175.21 212.63 175.25 215.12 173.22 214.93 172.84 212.51"/>
      <path class="cls-24" d="M47.89,188.62S35.38,238,52.88,281c12.4,30.47,88.33,40.5,88.33,40.5a20.73,20.73,0,0,0,10.33-15c1.85-11-4.67-20.33-4.67-20.33S98.38,280,86.38,267c-10.12-11-13-42-13-42a90.2,90.2,0,0,0-12-24C54.83,191.75,47.89,188.62,47.89,188.62Z"/>
      <path class="cls-6" d="M73.38,225c.75,4.2,1.53,8.39,2.48,12.55s1.89,8.3,3.11,12.36a66.2,66.2,0,0,0,4.51,11.76,14.23,14.23,0,0,0,3.65,4.69l2.58,1.75c.89.55,1.82,1,2.72,1.57A101.2,101.2,0,0,0,103.92,275c1.95.83,4,1.53,5.94,2.29s4,1.44,6,2.11c4,1.39,8.09,2.64,12.16,3.86s8.17,2.4,12.27,3.53l-.18.78c-4.2-.82-8.35-1.84-12.5-2.88s-8.25-2.26-12.33-3.55-8.13-2.69-12.13-4.27a99.48,99.48,0,0,1-11.71-5.44c-.93-.56-1.88-1.08-2.8-1.66L86,267.88a11.31,11.31,0,0,1-2.37-2.51,22,22,0,0,1-1.72-2.86,61.19,61.19,0,0,1-4.28-12.22A165.81,165.81,0,0,1,73.38,225Z"/>
      <path class="cls-6" d="M54.55,284.83a110.94,110.94,0,0,0,9,8.12,113.41,113.41,0,0,0,9.74,7.18A89.07,89.07,0,0,0,94.81,310.8c.94.32,1.9.59,2.86.89l2.92.81c1.94.55,3.91,1,5.86,1.54,3.93,1,7.86,1.89,11.81,2.75s7.92,1.62,11.9,2.32,8,1.33,12,1.83l-.15,1.85a194.41,194.41,0,0,1-24.21-3.55c-4-.78-8-1.75-11.91-2.76-2-.53-3.94-1-5.9-1.6L97,314c-1-.31-2-.6-2.95-.94a73.48,73.48,0,0,1-11.27-5,91.74,91.74,0,0,1-10.38-6.57A100.16,100.16,0,0,1,54.55,284.83Z"/>
      <path class="cls-25" d="M255.3,288.11c6.52,8.59,13,17.15,19.49,25.82l2.42,3.29.61.84.32.46.16.23.08.12,0,.06.11.19a5.48,5.48,0,0,1,.5,1.17l.18.65c.1.39.18.76.26,1.12.57,2.82,1,5.47,1.36,8.17.78,5.37,1.46,10.72,2.14,16.08,2.65,21.41,5,42.82,7.34,64.26h0l-2-2.2L409,432.65h0l-2.41,1.49c-.25-.28-.07-.44,0-.64l.16-.58.32-1.17.65-2.34,1.29-4.67,2.58-9.35,5.17-18.7,5.17-18.7,5.24-18.68a2,2,0,0,1,3.91,1.07l-5,18.74L421,397.85l-5.08,18.72-2.54,9.36-1.27,4.68-.63,2.34-.32,1.17-.16.59c-.08.19,0,.42-.36.53l-2.41,1.49h0L287.31,413.34a2.52,2.52,0,0,1-2-2.17v0h0c-2.66-21.36-5.38-42.73-8.37-64-.76-5.32-1.53-10.64-2.38-15.91-.43-2.62-.87-5.3-1.41-7.75-.07-.31-.14-.58-.21-.85l-.1-.32s-.09-.17.13.24l-1-1.38L269.47,318c-6.59-8.47-13.29-16.91-20-25.34h0a3.68,3.68,0,0,1,5.77-4.57Z"/>
      <polygon class="cls-26" points="175.36 344.89 275.72 320.77 429.14 359.85 341.39 386.4 175.36 344.89"/>
      <line class="cls-26" x1="330.36" y1="462.67" x2="408.65" y2="434.69"/>
      <line class="cls-26" x1="194.8" y1="435.91" x2="287.8" y2="410.85"/>
      <polygon class="cls-25" points="206.32 438.42 208.86 493.73 204.67 494.08 197.99 439.11 206.32 438.42"/>
      <polygon class="cls-25" points="295.76 412.53 295.08 469.94 290.88 470.04 287.4 412.74 295.76 412.53"/>
      <g>
        <path class="cls-27" d="M304.19,469a13.45,13.45,0,0,1-13,13.54,13,13,0,0,1-13-13.14,13.45,13.45,0,0,1,13-13.54A13,13,0,0,1,304.19,469Z"/>
        <path class="cls-28" d="M305.68,469a15.08,15.08,0,0,1-4.31,10.27,14.31,14.31,0,0,1-10.1,4.27,14,14,0,0,1-10-4.17,14.55,14.55,0,0,1-4.07-10,15,15,0,0,1,3.88-10.1,14.29,14.29,0,0,1,9.92-4.68,14,14,0,0,1,10.41,4A14.13,14.13,0,0,1,305.68,469Zm-3,0a12.63,12.63,0,0,0-3.35-8.33,11.46,11.46,0,0,0-8.28-3.55,11.82,11.82,0,0,0-8.49,3.59,12.39,12.39,0,0,0-3.6,8.7,12.14,12.14,0,0,0,3.54,8.75,11.85,11.85,0,0,0,4,2.63,11.76,11.76,0,0,0,13-3.25A12.39,12.39,0,0,0,302.7,469Z"/>
      </g>
      <path class="cls-29" d="M297.67,469.1a6.72,6.72,0,0,1-6.52,6.77,6.48,6.48,0,0,1-6.52-6.57,6.72,6.72,0,0,1,6.52-6.77A6.48,6.48,0,0,1,297.67,469.1Z"/>
      <polygon class="cls-25" points="326.46 460.73 319.49 512.74 315.31 512.35 318.14 459.95 326.46 460.73"/>
      <polygon class="cls-25" points="403.66 432.54 392.61 486.39 388.46 485.7 395.42 431.17 403.66 432.54"/>
      <g>
        <path class="cls-27" d="M405.67,485a14.27,14.27,0,0,1-11.42,16.39,13.79,13.79,0,0,1-16.45-10.84,14.27,14.27,0,0,1,11.42-16.39A13.79,13.79,0,0,1,405.67,485Z"/>
        <path class="cls-28" d="M407.21,484.7a15.27,15.27,0,0,1-2.78,11.52,15.89,15.89,0,0,1-9.87,6.16,15.62,15.62,0,0,1-11.27-2.2,14.68,14.68,0,0,1-6.4-9.48,15.18,15.18,0,0,1,2.36-11.25,15.87,15.87,0,0,1,9.61-6.56,15.54,15.54,0,0,1,11.66,1.93,14.64,14.64,0,0,1,4.42,4.2A14.28,14.28,0,0,1,407.21,484.7Zm-3.08.57a12.61,12.61,0,0,0-5.27-7.88,12.93,12.93,0,0,0-9.47-1.93,13.26,13.26,0,0,0-8.38,5.23,13,13,0,0,0-2.16,4.6,12.59,12.59,0,0,0,1.75,9.83,12.2,12.2,0,0,0,3.67,3.55,13.1,13.1,0,0,0,4.77,1.83,13.41,13.41,0,0,0,5.09-.18,13.25,13.25,0,0,0,8.12-5.62A12.44,12.44,0,0,0,404.12,485.27Z"/>
      </g>
      <path class="cls-29" d="M397.65,486.39a7.13,7.13,0,0,1-5.71,8.19,6.9,6.9,0,0,1-8.22-5.42,7.13,7.13,0,0,1,5.71-8.19A6.9,6.9,0,0,1,397.65,486.39Z"/>
      <g>
        <path class="cls-27" d="M218.67,494.17c0,8.06-6.12,14.69-13.66,14.81s-13.66-6.32-13.66-14.39,6.12-14.69,13.66-14.81S218.67,486.11,218.67,494.17Z"/>
        <path class="cls-28" d="M220.21,494.17a16.79,16.79,0,0,1-4.38,11A14.74,14.74,0,0,1,205.15,510a14.26,14.26,0,0,1-10.56-4.69,16.25,16.25,0,0,1-4.14-10.73,16.77,16.77,0,0,1,3.93-10.86,14.71,14.71,0,0,1,10.49-5.23,14,14,0,0,1,6,1,14.82,14.82,0,0,1,5,3.47A15.71,15.71,0,0,1,220.21,494.17Zm-3.08,0a14.33,14.33,0,0,0-3.45-9.11,11.67,11.67,0,0,0-8.76-4,12.19,12.19,0,0,0-9,4.05,14.08,14.08,0,0,0-2.73,4.37,14.64,14.64,0,0,0-1,5.1,13.7,13.7,0,0,0,3.63,9.52,12.46,12.46,0,0,0,4.2,3,11.78,11.78,0,0,0,5,.86,12.18,12.18,0,0,0,8.79-4.47A14,14,0,0,0,217.13,494.17Z"/>
      </g>
      <path class="cls-29" d="M211.84,494.27a7.21,7.21,0,0,1-6.83,7.41,7,7,0,0,1-6.83-7.19,7.21,7.21,0,0,1,6.83-7.41A7,7,0,0,1,211.84,494.27Z"/>
      <g>
        <path class="cls-27" d="M330.41,513.79A14,14,0,0,1,318,529a13.52,13.52,0,0,1-14.85-12.37,14,14,0,0,1,12.36-15.24A13.52,13.52,0,0,1,330.41,513.79Z"/>
        <path class="cls-28" d="M331.94,513.66a15.58,15.58,0,0,1-3.56,11.06A15,15,0,0,1,318.27,530a14.74,14.74,0,0,1-10.77-3.36,15,15,0,0,1-5.2-9.95,15.52,15.52,0,0,1,3.13-10.84,15,15,0,0,1,9.89-5.74,14.73,14.73,0,0,1,16.63,13.49Zm-3.07.28a13,13,0,0,0-4.3-8.33,12.12,12.12,0,0,0-9-2.88,12.47,12.47,0,0,0-8.54,4.5,12.81,12.81,0,0,0-3,9.37,12.48,12.48,0,0,0,9,11.08,12.44,12.44,0,0,0,13.28-4.58A12.8,12.8,0,0,0,328.88,513.93Z"/>
      </g>
      <path class="cls-29" d="M323.68,513.95a7,7,0,0,1-6.18,7.62,6.76,6.76,0,0,1-7.43-6.19,7,7,0,0,1,6.18-7.62A6.76,6.76,0,0,1,323.68,513.95Z"/>
      <path class="cls-30" d="M221.86,281.46c9.17-12.77,19-9.82,24.67-7.47,11,4.57,16.6,22.86,7.42,28.43s-20,2.35-24.89-.65C223,298.06,215.76,290,221.86,281.46Z"/>
      <path class="cls-31" d="M145.74,307.6,228.8,290a4.73,4.73,0,0,1,2,9.24l-82.74,19a5.47,5.47,0,1,1-2.45-10.65Z"/>
      <path class="cls-25" d="M151.37,310.39c7.26,8.61,14.5,17.2,21.68,25.91l2.68,3.3,1.35,1.69c.23.29.44.55.7.92l.38.51.09.13,0,.07.12.2a5.23,5.23,0,0,1,.34.68l.16.42.11.32.19.6.32,1.11.55,2.12,1,4.16c1.27,5.53,2.44,11,3.6,16.55,4.61,22.05,9,44.11,13.26,66.2h0l-2.53-2.53,135.4,27.58h0l-2.8,2,11-76.27a2.37,2.37,0,1,1,4.69.68l-11,76.27a2.37,2.37,0,0,1-2.69,2l-.12,0h0L194.18,439.05a3.18,3.18,0,0,1-2.52-2.49v0h0c-4.45-22-9-44.06-13.7-66-1.19-5.48-2.4-11-3.69-16.39l-1-4-.52-2-.27-.92-.13-.4-.06-.18,0-.07-4.71-5.73c-7.18-8.6-14.49-17.15-21.79-25.68h0a3.68,3.68,0,0,1,5.59-4.78Z"/>
      <line class="cls-32" x1="209.16" y1="353.29" x2="220.37" y2="440.93"/>
      <line class="cls-32" x1="242.44" y1="360.47" x2="250.15" y2="446.07"/>
      <line class="cls-32" x1="275.72" y1="370.1" x2="279.92" y2="452.95"/>
      <line class="cls-32" x1="314.25" y1="379.65" x2="308.99" y2="457.75"/>
      <line class="cls-32" x1="364.69" y1="380.62" x2="352.78" y2="455.32"/>
      <line class="cls-32" x1="371.34" y1="448.04" x2="385.7" y2="373.99"/>
      <line class="cls-32" x1="393.58" y1="440.17" x2="408.3" y2="366.47"/>
      <line class="cls-32" x1="254.7" y1="326.69" x2="266.26" y2="415.91"/>
      <line class="cls-32" x1="226.68" y1="334.13" x2="238.94" y2="423.5"/>
      <line class="cls-32" x1="197.25" y1="339.83" x2="213.72" y2="429.84"/>
      <line class="cls-32" x1="302.34" y1="328.05" x2="306.19" y2="413.71"/>
      <line class="cls-32" x1="332.46" y1="335.11" x2="330.01" y2="419.29"/>
      <line class="cls-32" x1="397.61" y1="351.94" x2="381.85" y2="428.28"/>
      <line class="cls-32" x1="363.46" y1="343.55" x2="353.13" y2="423.13"/>
      <polygon class="cls-32" points="189.55 408.17 333.51 438.83 415.83 412.71 284.47 383.61 189.55 408.17"/>
      <polygon class="cls-32" points="183.94 380.27 337.37 412.88 421.08 388.14 280.62 354.98 183.94 380.27"/>
      <line class="cls-32" x1="225.98" y1="441.55" x2="310.04" y2="416.1"/>
      <line class="cls-32" x1="258.55" y1="448.04" x2="338.07" y2="420.91"/>
      <line class="cls-32" x1="301.29" y1="456.47" x2="379.05" y2="429.02"/>
      <line class="cls-32" x1="222.47" y1="428.65" x2="354.88" y2="453.19"/>
      <line class="cls-32" x1="268.71" y1="417.09" x2="387.8" y2="442.18"/>
      <line class="cls-26" x1="207.06" y1="469.13" x2="319.15" y2="492.58"/>
      <line class="cls-26" x1="294.28" y1="443.63" x2="394.46" y2="463.77"/>
      <path class="cls-30" d="M138.3,297.7c6.37-15.35,20.83-10.64,26.88-8.35,11.79,4.47,17.38,20.57,8.82,28.06-8.35,7.3-18.52,3.53-25.7,1.29C140.52,316.26,133.55,309.14,138.3,297.7Z"/>
      <g class="cls-33">
        <path class="cls-34" d="M241.13,304.11s-.14.06-.12,0l.08-.08.2-.21c.14-.15.29-.32.42-.49a10.53,10.53,0,0,0,.77-1.11,13.93,13.93,0,0,0,1.23-2.44,14.63,14.63,0,0,0,1-5.36,20.12,20.12,0,0,0-.83-5.51,12.91,12.91,0,0,0-1.07-2.54,8.05,8.05,0,0,0-1.58-2.1l.76-1.13a10.91,10.91,0,0,1,3.66,5.16,20.52,20.52,0,0,1,1.18,6.08,15.92,15.92,0,0,1-1.09,6.18,15.6,15.6,0,0,1-1.47,2.8,12.57,12.57,0,0,1-1,1.27c-.17.21-.36.4-.56.6s-.2.19-.33.3l-.2.16a2.13,2.13,0,0,1-.44.24Z"/>
      </g>
      <g class="cls-33">
        <path class="cls-34" d="M252.38,302.31a28.94,28.94,0,0,0,1-5.09,20.52,20.52,0,0,0-.08-5,29.34,29.34,0,0,0-1.28-4.93,12.64,12.64,0,0,0-2.4-4.38l.31-.56a6.63,6.63,0,0,1,2.18,1.88,13.08,13.08,0,0,1,1.49,2.38,18.67,18.67,0,0,1,1,2.58,17.67,17.67,0,0,1,.67,2.72,14.68,14.68,0,0,1-.22,5.62,12.9,12.9,0,0,1-2.34,5Z"/>
      </g>
      <g class="cls-33">
        <path class="cls-34" d="M160.33,320.42a7.79,7.79,0,0,0,.51-.94,8.76,8.76,0,0,0,.42-1.12,12.82,12.82,0,0,0,.5-2.38,20,20,0,0,0-.13-5,20.66,20.66,0,0,0-1.4-4.83,20.28,20.28,0,0,0-2.58-4.37l.81-.87a15.52,15.52,0,0,1,3.54,4.37,18,18,0,0,1,2.08,11,14,14,0,0,1-.71,2.83,10.91,10.91,0,0,1-.63,1.35,6.43,6.43,0,0,1-.93,1.31Z"/>
      </g>
      <g class="cls-33">
        <path class="cls-34" d="M169.89,319a26.35,26.35,0,0,0,1.37-4.82,17.87,17.87,0,0,0,.26-5,22.69,22.69,0,0,0-1-5,24.22,24.22,0,0,0-2-4.67l.95-.73a18.33,18.33,0,0,1,2.84,4.75,21.86,21.86,0,0,1,1.47,5.36,18.25,18.25,0,0,1-.22,5.62,19.57,19.57,0,0,1-1.82,5.29Z"/>
      </g>
      <path class="cls-35" d="M160.53,43.05s16.43,19,17.37,32.83c.68,10.09-2.34,26.91-2.34,26.91L150.12,45.45Z"/>
      <path class="cls-30" d="M85.27,160.33s1.76,14.84,15.21,22.43c18.87,10.65,70.69,7.66,78.13.09,6.47-6.57,5.17-49.53-2.4-86.79-6-29.31-21.3-55.35-21.3-55.35S126.25,34,102.5,37.63A84.17,84.17,0,0,0,68.64,51.16l13.52,94"/>
      <path class="cls-35" d="M80.17,51.09s6.62,15.42,7.11,28.47c.42,11.27-1.22,37.74-1.22,37.74a104.58,104.58,0,0,1,7,12.68c3.74,8.74,1.35,15.36,1.35,15.36L80.15,128.22l6.76,38.21s-7.46-.94-11.17-10.17S58.91,110.44,57,96.81c-1-7.24-3.74-42.91.13-49.33a11.47,11.47,0,0,1,7.33-5.33,16.44,16.44,0,0,1,12.36-14.3c17.32-5,56.15-4.63,70.92-.83,11.35,2.92,26.92,19.12,26.92,19.12S159.43,49,151.73,47.79s-28.11-7.42-28.11-7.42,12.4,6.24,16,8.46,10.28,8.37,10.28,8.37-14.75-.37-19.7-1.41-24.74-9.47-24.74-9.47,7.74,4.71,11.35,7.18a61.49,61.49,0,0,1,6.93,5.67s-13.62,1.7-23.77-.4S80.17,51.09,80.17,51.09Z"/>
      <line class="cls-36" x1="91.89" y1="121.65" x2="74.06" y2="126.78"/>
      <path class="cls-30" d="M88.79,138.75S82.15,124.08,71.69,123c-14.77-1.58-9.25,29.2.73,34.35,8.75,4.52,14.24.59,14.24.59"/>
      <path class="cls-37" d="M85.08,146.55c-1.49-1.71-2.89-3.34-4.31-4.86a33.13,33.13,0,0,0-4.42-4.07A15.57,15.57,0,0,0,74,136.15a18.07,18.07,0,0,0-2.53-1.1,12,12,0,0,0-5.91-.59c1.24-2.14,4-3.07,6.55-2.85a11.26,11.26,0,0,1,1.87.31,12.52,12.52,0,0,1,1.74.65,12.79,12.79,0,0,1,3.1,2,19,19,0,0,1,6.3,12Z"/>
      <path class="cls-38" d="M98.7,116.73c.8,7.79,7.08,12.92,15.3,12.24a13.65,13.65,0,0,0,12.55-15.1,14,14,0,1,0-27.85,2.86Z"/>
      <path class="cls-38" d="M151.4,113.26c1.3,7.61,6.07,13,13.71,12.37,7.18-.64,11.85-7.32,11.36-15-.52-8.17-7-13.13-14.15-12.39S150.19,106.18,151.4,113.26Z"/>
      <path class="cls-39" d="M129.74,94.16a99.36,99.36,0,0,0-19.95,4.17A66.37,66.37,0,0,0,95,105.48l-.09-4.18s2.32-5.68,13.72-9.35a60.69,60.69,0,0,1,19.87-2.53Z"/>
      <path class="cls-40" d="M122.75,105.11a15.09,15.09,0,0,0-6.53-2.25,16.93,16.93,0,0,0-6.53.71,17.76,17.76,0,0,0-5.88,3,19.55,19.55,0,0,0-4.66,5.21,11.48,11.48,0,0,1,3-6.93,14.22,14.22,0,0,1,6.66-4.11,14,14,0,0,1,7.84-.13A10.19,10.19,0,0,1,122.75,105.11Z"/>
      <path class="cls-40" d="M175.62,106a12.9,12.9,0,0,0-4.71-4.28A18.23,18.23,0,0,0,165,99.93a13.46,13.46,0,0,0-6.07.26,12.54,12.54,0,0,0-5.4,3.39,9.29,9.29,0,0,1,4.68-5.17,12,12,0,0,1,7.15-1,13.51,13.51,0,0,1,6.69,2.64A8.76,8.76,0,0,1,175.62,106Z"/>
      <path class="cls-39" d="M149.3,93.65a51,51,0,0,1,14.07.3,47.8,47.8,0,0,1,14.16,4.48l-.74-3.66A21.76,21.76,0,0,0,165,88.23a32.2,32.2,0,0,0-15.58.92Z"/>
      <ellipse class="cls-41" cx="113.08" cy="116.29" rx="5.83" ry="7.42" transform="translate(-2.32 2.3) rotate(-1.15)"/>
      <ellipse class="cls-41" cx="163.73" cy="112.24" rx="5.35" ry="7.21" transform="translate(-3.61 5.46) rotate(-1.89)"/>
      <path class="cls-36" d="M191.31,106.14s-3.42,21.17-4.5,22.61S155,132.38,155,132.38"/>
      <g>
        <path class="cls-30" d="M144,92.17s8.5,20,12.28,32.44,4.17,22.78,2.23,24.51-8.2,3.19-15.19,2.78-10.53-2.62-10.53-2.62"/>
        <path class="cls-34" d="M144,92.17q5,9.6,9.31,19.58c1.4,3.33,2.79,6.68,4,10.12a91.7,91.7,0,0,1,3.16,10.56,55.53,55.53,0,0,1,1.58,11.13,24.73,24.73,0,0,1-.1,3l-.13.81a5.81,5.81,0,0,1-.18.86,6,6,0,0,1-.9,2.05,7.19,7.19,0,0,1-.53.63,4.82,4.82,0,0,1-.44.37,7,7,0,0,1-.82.55,11.94,11.94,0,0,1-1.54.73,21.46,21.46,0,0,1-2.93.9,36.59,36.59,0,0,1-11.45.58,19.74,19.74,0,0,1-5.56-1.4,11.75,11.75,0,0,1-4.7-3.37c3.82.33,7.12.39,10.53.46a38,38,0,0,0,5.09-.22,32.56,32.56,0,0,0,4.92-.85,16.59,16.59,0,0,0,2.22-.72,7.08,7.08,0,0,0,.89-.44,2.31,2.31,0,0,0,.3-.19l.08-.06a.24.24,0,0,0-.11.1c-.06.09.08-.13.14-.42a2.28,2.28,0,0,0,.1-.46l.09-.52a22.85,22.85,0,0,0,.17-2.38,40.73,40.73,0,0,0-.26-5.1c-.17-1.72-.41-3.46-.71-5.18-1.18-6.91-3.38-13.71-5.57-20.56Z"/>
      </g>
      <path class="cls-42" d="M160.46,159.25s-3.28,14-17.75,15.15c-17.27,1.32-24.27-18.79-24.27-18.79"/>
      <path class="cls-43" d="M150.23,171.34s-3.52,3.13-10.5,2.55-13.62-6.81-13.62-6.81a47.83,47.83,0,0,1,12.7-.25A30.35,30.35,0,0,1,150.23,171.34Z"/>
      <path class="cls-38" d="M160.46,159.25s-1.62,4.75-2.32,5.37a30.8,30.8,0,0,1-14.76,4,63.82,63.82,0,0,1-19.47-4,39.75,39.75,0,0,1-2.92-4.35,35.64,35.64,0,0,1-1.75-4.28s15.92,4.61,23.93,4.75A107.63,107.63,0,0,0,160.46,159.25Z"/>
      <g>
        <path class="cls-30" d="M163.58,157.26a36.9,36.9,0,0,1-18.33,5.1c-16.88.34-27.6-7.64-27.6-7.64"/>
        <path class="cls-44" d="M164,157.85a32.67,32.67,0,0,1-11.35,5,36.23,36.23,0,0,1-6.18.93c-1,.08-2.08.07-3.11.07s-2.07,0-3.1-.11a46.43,46.43,0,0,1-12.14-2.47,38.65,38.65,0,0,1-11-5.74l1.15-1.54a40.31,40.31,0,0,0,5.21,2.61,47.66,47.66,0,0,0,5.52,2,54.63,54.63,0,0,0,11.5,2.15,45.35,45.35,0,0,0,11.64-.43,42.85,42.85,0,0,0,5.68-1.4,33.76,33.76,0,0,0,5.42-2.2Z"/>
      </g>
      <path class="cls-34" d="M121.36,150.83l-2.43,2.39a22.3,22.3,0,0,0-2,2.18,20.52,20.52,0,0,0-1.6,2.41c-.51.89-1,1.84-1.56,3a5.64,5.64,0,0,1-.7-3.68,7.28,7.28,0,0,1,1.49-3.55,7.49,7.49,0,0,1,3.05-2.32A6.25,6.25,0,0,1,121.36,150.83Z"/>
      <g class="cls-45">
        <path class="cls-34" d="M151.58,177.35a9.05,9.05,0,0,1-3,4,11.05,11.05,0,0,1-9.89,1.88,9.6,9.6,0,0,1-4.34-2.53,45.63,45.63,0,0,0,4.69.39,20.25,20.25,0,0,0,4.31-.32,19.76,19.76,0,0,0,4.12-1.28A32.67,32.67,0,0,0,151.58,177.35Z"/>
      </g>
      <path class="cls-34" d="M85.74,158a34.41,34.41,0,0,0,3.8,12.69,30.72,30.72,0,0,0,8.36,10A34.7,34.7,0,0,0,109.76,186a85.78,85.78,0,0,0,13.06,2.2,234.75,234.75,0,0,0,26.71.76,100.6,100.6,0,0,0,13.23-1.46,128.21,128.21,0,0,0,13.07-2.94A74.89,74.89,0,0,1,163,188.75a76.54,76.54,0,0,1-13.41,1.95c-4.52.22-9,.29-13.49.29a133.75,133.75,0,0,1-13.51-.62A77.84,77.84,0,0,1,109.22,188a34.66,34.66,0,0,1-12.39-5.9,30.11,30.11,0,0,1-8.25-10.88,31.53,31.53,0,0,1-2.14-6.45A28,28,0,0,1,85.74,158Z"/>
      <path class="cls-46" d="M192.53,108.75l-25.75,1.67c-8.58.57-17.17,1.08-25.74,1.7q-25.71,1.88-51.37,4.52l-.43-4Q115,110,140.76,108.26c8.6-.6,17.19-1.1,25.78-1.65L192.33,105Z"/>
      <path class="cls-36" d="M141.46,110.55s-1.85,20.09-4,22.14-34.67,4.64-37.8,4-9.15-23.24-9.15-23.24"/>
      <polygon class="cls-46" points="155.22 117.36 141.66 118.67 141.46 116.13 155.07 115.37 155.22 117.36"/>
    </g>
  </g>
</svg>
