<svg xmlns="http://www.w3.org/2000/svg" width="274.58" height="524.72" viewBox="0 0 274.58 524.72">
  <defs>
    <style>
      .cls-1 {
        isolation: isolate;
      }

      .cls-2 {
        fill: #f1b291;
      }

      .cls-3 {
        fill: #3a4449;
      }

      .cls-4 {
        fill: #345160;
      }

      .cls-5 {
        fill: #3b5b66;
      }

      .cls-6 {
        fill: #3c5968;
      }

      .cls-7 {
        fill: #2b4c57;
      }

      .cls-8 {
        fill: #40606d;
      }

      .cls-9 {
        fill: #42626d;
      }

      .cls-10 {
        fill: #2f545e;
      }

      .cls-11 {
        fill: #b6e0ef;
      }

      .cls-12 {
        fill: #2483c5;
      }

      .cls-13 {
        opacity: 0.6;
      }

      .cls-14 {
        fill: #405e6b;
      }

      .cls-15 {
        opacity: 0.7;
      }

      .cls-16 {
        fill: #eff4f4;
      }

      .cls-17, .cls-20 {
        fill: #536872;
      }

      .cls-17 {
        stroke: #405a63;
        stroke-width: 1.04px;
      }

      .cls-17, .cls-22, .cls-39, .cls-41, .cls-42, .cls-43, .cls-44 {
        stroke-miterlimit: 10;
      }

      .cls-17, .cls-18 {
        opacity: 0.3;
      }

      .cls-19 {
        fill: #516672;
      }

      .cls-20 {
        opacity: 0.18;
      }

      .cls-21 {
        fill: #755946;
      }

      .cls-22, .cls-41, .cls-42, .cls-43, .cls-44 {
        fill: none;
      }

      .cls-22 {
        stroke: #353e45;
        stroke-width: 3px;
      }

      .cls-23 {
        fill: #a7755c;
      }

      .cls-24 {
        fill: #f7f5f5;
      }

      .cls-25 {
        fill: #684f3c;
      }

      .cls-26 {
        fill: #5b422a;
      }

      .cls-27 {
        fill: #1b6087;
      }

      .cls-28, .cls-36 {
        fill: #a77056;
      }

      .cls-29 {
        fill: #65262d;
        opacity: 0.9;
      }

      .cls-30 {
        fill: #cb5b65;
        opacity: 0.84;
      }

      .cls-31 {
        fill: #915a46;
      }

      .cls-32, .cls-36 {
        opacity: 0.8;
      }

      .cls-33 {
        fill: #353e45;
      }

      .cls-34 {
        fill: #1d3f47;
      }

      .cls-35 {
        fill: #4b7d8c;
      }

      .cls-37 {
        fill: #456572;
      }

      .cls-38 {
        opacity: 0.66;
      }

      .cls-39 {
        fill: #162c35;
        stroke: #1b6087;
        stroke-width: 0.87px;
        opacity: 0.68;
      }

      .cls-40 {
        mix-blend-mode: multiply;
      }

      .cls-41 {
        stroke: #2582c5;
      }

      .cls-41, .cls-42, .cls-43, .cls-44 {
        stroke-width: 1.21px;
      }

      .cls-42 {
        stroke: #e51a60;
      }

      .cls-43 {
        stroke: #75b747;
      }

      .cls-44 {
        stroke: #f6a31f;
      }
    </style>
  </defs>
  <g class="cls-1">
    <g id="Ebene_1" data-name="Ebene 1">
      <path class="cls-2" d="M207.57,344.57c-4.38,11.23,1.53,26.11,5.17,24.08,5.27-2.93,1.17-14.36,2.95-13.38,6.13,3.38,3.87,19,11.12,21.75s14.65-6.79,15.51-12.95.9-17.53-6.73-25.69c-5.3-5.67-14.26-8.89-14.26-8.89Z"/>
      <path class="cls-3" d="M87.23,445.9s-7.22-1-12.72-.2a27.44,27.44,0,0,0-9.15,3.17s.9,18.6,7.54,34.11c7.88,18.37,28.54,17.38,28.54,17.38s2-5-5.25-16.1c-4.63-7.14-3.28-23.91-3.28-23.91"/>
      <path class="cls-4" d="M166.56,361.42s-2.5,36.79-12.87,57.74c-14.86,31.32-58.88,53-58.88,53A89.27,89.27,0,0,1,85.66,457a116.32,116.32,0,0,1-5.86-16.29s28.85-12.89,41-34.21c8.86-16.73,8.19-40.6,8.19-40.6"/>
      <path class="cls-5" d="M179.86,191.8l3.91,2.69s6.49,61.73,13.7,83.77,32.11,54.1,32.11,54.1-8.06,4.1-11.7,6.36-12.59,9.1-12.59,9.1-24.92-25.8-34.53-59-8-81.13-8-81.13Z"/>
      <path class="cls-6" d="M170.05,332.12l.45,29S142.18,373.56,110.75,378s-31.62,3.89-31.62,3.89l-13.77-41Z"/>
      <path class="cls-7" d="M182.3,226.87q.78,10.32,1.14,20.67c.27,6.89.41,13.79.53,20.68s.12,13.79,0,20.68-.3,13.78-.66,20.68q-.75-10.32-1.08-20.67c-.24-6.9-.39-13.79-.5-20.68s-.11-13.78,0-20.67S182,233.77,182.3,226.87Z"/>
      <path class="cls-3" d="M113.28,485.93a50.9,50.9,0,0,0-1.51,12.48,30.87,30.87,0,0,0,1.84,9.21s10.88,1.11,26.79-3.86c22.37-5.72,31.9-14.66,31.9-14.66s-4.79-5.77-18.71-6.81c-9.59-.71-24.6,2-24.6,2"/>
      <path class="cls-7" d="M108.33,377.66l13-2.35c2.15-.42,4.31-.78,6.46-1.23s4.29-.86,6.42-1.34c4.27-.9,8.46-2.08,12.65-3.38s8.31-2.77,12.45-4.32a76.89,76.89,0,0,1-11.9,5.87,84,84,0,0,1-12.73,3.93c-2.16.49-4.35.89-6.53,1.27s-4.38.66-6.58.89A99.18,99.18,0,0,1,108.33,377.66Z"/>
      <path class="cls-6" d="M115.21,365.85s9.7,30.06,15.15,53.56c5.16,17.84,11,61.78,11,61.78a139.45,139.45,0,0,1-15.74,5.63,70.46,70.46,0,0,1-18.46,2.85s-7.68-47.36-12.94-65.43c-9.18-31.82-26-64.47-26-64.47"/>
      <path class="cls-8" d="M180.39,192.12S153,178.53,113.18,178.06c-43.44-.51-69.33,10.85-69.33,10.85s9,79.36,7.49,112.33-4.81,58.64-4.81,58.64,31.4,10.91,81.11,8.9c39.51-1.6,59-7,59-7s-1.85-33.72-4.23-85.62c-1.12-24.31-.6-66.95-.6-66.95"/>
      <g>
        <polyline class="cls-8" points="100.88 318.33 98.25 332.95 55.83 330.39 57.58 317.85"/>
        <path class="cls-7" d="M100.88,318.33l-1.57,14.81-.1.93-1-.05c-3.54-.14-7.07-.36-10.61-.59L77,332.67c-7.06-.59-14.13-1.13-21.19-1.78l-.55-.05.09-.52,1.11-6.24,1.14-6.23L57,324.16l-.65,6.3-.47-.57c7.09.2,14.17.52,21.25.78l10.61.51c3.54.2,7.07.41,10.6.69l-1.12.89Z"/>
      </g>
      <g>
        <path class="cls-9" d="M133.73,301s-18.76-16.91-28.39-27.5-18.45-26.41-18.45-26.41l14.56-8.89L84,236.67s-8.91-35.1-6.85-48.5c1.18-7.67,9.41-14.71,9.41-14.71l60.48,2.14s7.6,11,9.62,14.86,8,38.29,8,38.29L151.55,234l12.75,4.52s-3.61,18.32-8.09,30.32-16.4,31.07-16.4,31.07"/>
        <path class="cls-10" d="M133.34,301.46q-6.7-6-13.26-12.12c-4.37-4.11-8.7-8.25-12.88-12.57-2.09-2.15-4.14-4.39-6-6.73s-3.72-4.75-5.47-7.19c-3.49-4.92-6.74-10-9.78-15.19h0l-.54-1,.94-.56,14.62-8.79h0l.44,1.88L83.92,237.8l-.81-.07-.2-.78c-1.35-5.45-2.55-10.9-3.64-16.4s-2-11-2.75-16.59c-.34-2.79-.62-5.59-.73-8.42a35.17,35.17,0,0,1,.48-8.64,22.83,22.83,0,0,1,3.8-7.89,39.38,39.38,0,0,1,5.77-6.42l.32-.29.46,0,60.48,2.14h0l.57,0,.32.47c2.66,3.94,5.29,7.88,7.79,12,.62,1,1.24,2,1.81,3.16a22.2,22.2,0,0,1,1.12,3.59c.58,2.33,1.07,4.65,1.55,7,1.87,9.31,3.48,18.65,5.05,28h0l.08.53-.5.21-13,5.53h0l0-1.88,12.79,4.4h0l.94.32-.2,1c-1.16,5.47-2.45,10.87-3.91,16.25q-1.08,4-2.34,8c-.86,2.66-1.74,5.31-2.84,7.9a154.64,154.64,0,0,1-7.49,15q-4.07,7.29-8.51,14.35l-1-.64c2.86-4.73,5.62-9.55,8.24-14.42a149.84,149.84,0,0,0,7.16-14.91,132.75,132.75,0,0,0,4.86-15.78c1.36-5.36,2.57-10.77,3.63-16.18l.73,1.29h0l-12.7-4.65-2.56-.94,2.52-.94h0l13.21-4.92-.42.75h0c-1.71-9.31-3.48-18.63-5.49-27.86-.51-2.31-1-4.61-1.63-6.87a22.88,22.88,0,0,0-1-3.18c-.52-1-1.16-2-1.77-3-2.53-4-5.22-7.87-7.93-11.73l.9.49h0l-60.48-2.15.79-.27a37.22,37.22,0,0,0-5.4,6,20.86,20.86,0,0,0-3.44,7.08,33.78,33.78,0,0,0-.42,8c.11,2.74.39,5.5.72,8.24.68,5.5,1.64,11,2.72,16.43s2.28,10.89,3.62,16.28l-1-.86,17.42,1.67,3,.29-2.57,1.6h0l-14.5,9,.4-1.53h0c2.89,5.17,6.06,10.25,9.43,15.14q2.54,3.68,5.28,7.18c1.84,2.33,3.81,4.53,5.85,6.71,4.08,4.34,8.33,8.54,12.63,12.7s8.65,8.26,13,12.31Z"/>
      </g>
      <path class="cls-11" d="M135.9,292.81s-18.12-20.8-30.77-54.62c-9.68-25.87-13.8-53.59-13.8-53.59l55.33,1.66s4.66,26.33,3.06,48.94A185.51,185.51,0,0,1,135.9,292.81Z"/>
      <path class="cls-12" d="M129.33,192.35l7.86,13s-2.13,2.21-7.15,2.24a21.19,21.19,0,0,1-8.58-1.68l6.17-13.58Z"/>
      <g class="cls-13">
        <path class="cls-14" d="M150.49,201.5a28,28,0,0,1-4.87,4c-1.7,1.14-3.42,2.17-5.22,3.14h0l-.86.51-.54-.89-11.74-19.48,2.65-.11L119.26,209.8l-.34.66-.65-.21h0c-2.42-.67-4.78-1.45-7.13-2.29s-4.67-1.77-6.95-2.81a43.87,43.87,0,0,1-6.67-3.67,33.83,33.83,0,0,1-6-5l2.29-1.93a32.4,32.4,0,0,0,5.21,4.71,42.49,42.49,0,0,0,6.15,3.73c2.17,1.11,4.4,2.11,6.66,3.06s4.56,1.81,6.86,2.57h0l-1,.45,9.46-21.72,1.2-2.76,1.46,2.65,10.92,20-1.4-.37h0c1.62-1,3.24-2.19,4.75-3.39a25,25,0,0,0,4.06-3.87Z"/>
      </g>
      <path class="cls-12" d="M132.87,207.9s6.49,26.31,7.63,37.9,1.38,31.33,1.38,31.33L136,292.8l-11.62-15.55V244.36L127,207.8Z"/>
      <g>
        <polyline class="cls-8" points="163 314.06 166.12 328.77 188.6 325.62 184.36 312.84"/>
        <path class="cls-7" d="M163,314.06l4.21,14.48-1.24-.87q2.81-.44,5.62-.78l5.64-.66L188.52,325l-.47.77q-1.87-6.48-3.69-13c1.63,4.19,3.22,8.39,4.8,12.6l.24.64-.72.12-11.18,2-5.6.93c-1.87.28-3.75.55-5.62.79l-1.11.14-.14-1Z"/>
      </g>
      <g class="cls-15">
        <path class="cls-8" d="M136.42,293.92s.16,30.57-.45,44.81-1.83,30-1.83,30"/>
        <path class="cls-7" d="M136.92,293.92c.16,12.48.28,25,.15,37.45,0,6.25-.32,12.5-.62,18.73s-.66,12.47-1.07,18.71l-2.49-.19q.8-9.31,1.44-18.64c.41-6.22.8-12.43,1-18.65.39-12.46.52-24.93.61-37.4Z"/>
      </g>
      <path class="cls-7" d="M134.25,377.18a44.82,44.82,0,0,1,5.55-1c1.82-.21,3.65-.36,5.43-.49l5.37-.44a54.32,54.32,0,0,1,5.62-.2,19.06,19.06,0,0,1-5.15,2.51,24.16,24.16,0,0,1-5.61,1.12,29,29,0,0,1-5.67-.15A21,21,0,0,1,134.25,377.18Z"/>
      <polygon class="cls-16" points="144.18 212.8 172.43 211.81 175.52 242.06 148.25 242.29 144.18 212.8"/>
      <line class="cls-17" x1="152.03" y1="238.7" x2="170.96" y2="238.38"/>
      <g class="cls-18">
        <polygon class="cls-19" points="144.55 217.69 147.91 243.21 146.91 242.33 151.81 242.53 151.84 243.86 146.96 244.3 146.04 244.38 145.96 243.42 143.81 217.77 144.55 217.69"/>
      </g>
      <polygon class="cls-20" points="167.99 213.86 170.36 213.95 170.42 216.45 168.4 216.27 167.99 213.86"/>
      <path class="cls-10" d="M98.72,274.77c-.26,3-.61,6-.85,9a75.34,75.34,0,0,0-.31,8.86c.17,2.95.43,5.95.78,8.92s.77,5.94,1.36,8.91a43,43,0,0,1-2.77-8.68,63.51,63.51,0,0,1-1.31-9,38.62,38.62,0,0,1,.55-9.19A40.37,40.37,0,0,1,98.72,274.77Z"/>
      <path class="cls-21" d="M179,54.73s12.34,21.42,10.52,35.21c-1.33,10-7.63,26.13-7.63,26.13L168.31,55.38Z"/>
      <path class="cls-2" d="M81.92,158s-1.22,14.92,10.46,24.61c16.39,13.6,66.85,18.16,75.64,11.92,7.65-5.41,15.87-47,15.83-84.94,0-29.87-9.9-58-9.9-58s-26.78-11.3-50.79-11.65a86.3,86.3,0,0,0-35.89,7.78l-5.38,94.83"/>
      <path class="cls-21" d="M98.59,49.46S102,65.74,99.91,78.68c-1.83,11.17-8.69,37-8.69,37a100.44,100.44,0,0,1,4.37,13.66c1.94,9.22-1.73,15.35-1.73,15.35L83.27,125.48l-1,38.77s-7.13-2.15-8.94-11.86S66,104.47,66.76,90.7c.42-7.31,4.84-42.91,9.91-48.59a11.87,11.87,0,0,1,8.24-4A17.2,17.2,0,0,1,99.87,26c18-2.07,56,4.65,69.72,10.83,10.55,4.74,22.62,23.26,22.62,23.26s-15.47.33-22.78-2.12S143.33,46,143.33,46s10.93,8.19,14,11,8.41,9.93,8.41,9.93-14.39-2.78-19-4.62-22.38-13.4-22.38-13.4,6.65,5.92,9.7,8.94a58.4,58.4,0,0,1,5.68,6.73s-13.7-.56-23.23-4.3S98.59,49.46,98.59,49.46Z"/>
      <line class="cls-22" x1="96.08" y1="120.93" x2="77.58" y2="123.05"/>
      <path class="cls-2" d="M89.66,137.27S86.05,121.73,76,118.91c-14.17-4-14.86,27.26-6.1,34,7.68,5.89,13.85,2.92,13.85,2.92"/>
      <path class="cls-23" d="M84.47,144.35c-1.12-1.95-2.17-3.79-3.27-5.54a30.21,30.21,0,0,0-3.53-4.75,14.75,14.75,0,0,0-2-1.83,17.2,17.2,0,0,0-2.26-1.48,12,12,0,0,0-5.68-1.53c1.56-1.88,4.44-2.37,6.86-1.76A10,10,0,0,1,77.93,129a12.26,12.26,0,0,1,2.69,2.49,17.3,17.3,0,0,1,3.18,6.17A17.83,17.83,0,0,1,84.47,144.35Z"/>
      <path class="cls-24" d="M104.74,117.19c-.76,7.81,4.38,13.9,12.58,14.58A14.22,14.22,0,0,0,132.62,119a13.52,13.52,0,0,0-12.56-15A14.68,14.68,0,0,0,104.74,117.19Z"/>
      <path class="cls-24" d="M156.12,122.43c-.24,7.71,3.36,13.86,11,14.44,7.16.55,13.08-5.27,14.12-12.94,1.11-8.14-4.24-14.09-11.41-14.54S156.33,115.25,156.12,122.43Z"/>
      <path class="cls-25" d="M139.66,100.05S129,98.3,119.55,99.91a52.19,52.19,0,0,0-16.19,5.59l.74-4.14s3.68-6.18,15.59-7.93a47,47,0,0,1,19.71,1.74Z"/>
      <path class="cls-26" d="M130.63,109.69a14.25,14.25,0,0,0-6-3.33,17.07,17.07,0,0,0-6.57-.31,17.94,17.94,0,0,0-6.31,2,20.51,20.51,0,0,0-5.54,4.31,11.92,11.92,0,0,1,4.24-6.27,14.6,14.6,0,0,1,7.23-3,13.92,13.92,0,0,1,7.78,1.08A9.8,9.8,0,0,1,130.63,109.69Z"/>
      <path class="cls-26" d="M181.3,119.3a12.22,12.22,0,0,0-3.81-5,17.27,17.27,0,0,0-5.44-2.77,12.45,12.45,0,0,0-11.9,1.75A9.61,9.61,0,0,1,165.6,109a11.91,11.91,0,0,1,7.21.07,13.27,13.27,0,0,1,6.15,3.7A8.49,8.49,0,0,1,181.3,119.3Z"/>
      <path class="cls-25" d="M158,102.75a50.46,50.46,0,0,1,13.74,2.6,45.88,45.88,0,0,1,13,6.74v-3.72A20.73,20.73,0,0,0,174.4,100a32,32,0,0,0-15.46-1.65Z"/>
      <ellipse class="cls-27" cx="120.26" cy="123.3" rx="7.83" ry="4.99" transform="translate(-49.53 152.24) rotate(-55.39)"/>
      <ellipse class="cls-27" cx="169.66" cy="128.21" rx="7.61" ry="4.58" transform="translate(-31.53 197.08) rotate(-55.98)"/>
      <path class="cls-22" d="M196.66,122s-7.55,20.3-8.9,21.54-31.88-1.63-31.88-1.63"/>
      <g>
        <path class="cls-2" d="M153.09,100.43s4.36,21.14,5.6,34S158.26,157.57,156,159s-8.68,1.8-15.45.24-9.81-4.31-9.81-4.31"/>
        <path class="cls-28" d="M153.09,100.43q3,10.36,5.26,20.95c.72,3.54,1.41,7.08,1.93,10.68a92.26,92.26,0,0,1,1,10.94,55.83,55.83,0,0,1-.67,11.19,25.44,25.44,0,0,1-.69,2.91l-.28.77a6.43,6.43,0,0,1-.35.79,6.34,6.34,0,0,1-1.22,1.8,6,6,0,0,1-.61.52,5.45,5.45,0,0,1-.5.3,6.77,6.77,0,0,1-.9.4,10.45,10.45,0,0,1-1.63.47,20.6,20.6,0,0,1-3,.41,36.14,36.14,0,0,1-11.36-1.27,19.44,19.44,0,0,1-5.24-2.3,11.48,11.48,0,0,1-4.05-4.11c3.69,1,6.92,1.57,10.26,2.2a38.74,38.74,0,0,0,5,.61,32.9,32.9,0,0,0,5-.05,14.59,14.59,0,0,0,2.3-.35,7.81,7.81,0,0,0,.95-.28,3,3,0,0,0,.33-.14s.14-.06.07,0a.14.14,0,0,0-.1.07,2.31,2.31,0,0,0,.24-.43,8.43,8.43,0,0,0,.39-.93,23.22,23.22,0,0,0,.63-2.3,40.75,40.75,0,0,0,.76-5c.18-1.72.29-3.45.34-5.2.23-7-.57-14.05-1.36-21.17Z"/>
      </g>
      <path class="cls-29" d="M156.09,168.52s-4.68,16-19.06,14.44c-19.36-2.15-20.91-23.61-20.91-23.61"/>
      <path class="cls-30" d="M144.81,181.5a19.59,19.59,0,0,1-11.41.21c-6.73-1.72-11.33-8.1-11.33-8.1a38.33,38.33,0,0,1,12.5,1.38A27.53,27.53,0,0,1,144.81,181.5Z"/>
      <path class="cls-24" d="M156.09,168.52s-2.53,4.41-3.34,4.91-7.27,2.09-15.36.72c-12-2-18.21-6.35-18.21-6.35a38.05,38.05,0,0,1-2-4.76,33.46,33.46,0,0,1-.87-4.5s14.7,7.16,22.52,8.61A106.86,106.86,0,0,0,156.09,168.52Z"/>
      <g>
        <path class="cls-2" d="M159.54,167.07a46.26,46.26,0,0,1-19.14,1.09c-16.62-2.44-25.75-10-25.75-10"/>
        <path class="cls-31" d="M159.76,167.74A39.8,39.8,0,0,1,147.9,170a47.19,47.19,0,0,1-6.06-.17c-1-.09-2-.23-3-.4s-2-.3-3-.52a58.78,58.78,0,0,1-11.49-3.63c-1.83-.84-3.63-1.74-5.38-2.75a35.43,35.43,0,0,1-5-3.54l1.22-1.48a44.79,44.79,0,0,0,4.95,2.82c1.71.87,3.47,1.64,5.26,2.35a75.2,75.2,0,0,0,11,3.29,56.83,56.83,0,0,0,11.38,1.45,52.94,52.94,0,0,0,11.45-1Z"/>
      </g>
      <path class="cls-28" d="M118.43,155l-2.09,2.23a21.86,21.86,0,0,0-1.71,2,17.61,17.61,0,0,0-1.4,2.2c-.44.8-.87,1.66-1.35,2.7a5.13,5.13,0,0,1-.66-3.29,6.76,6.76,0,0,1,1.27-3.2,7,7,0,0,1,2.66-2.14A5.69,5.69,0,0,1,118.43,155Z"/>
      <g class="cls-32">
        <path class="cls-28" d="M144.49,186.49a9.2,9.2,0,0,1-3.81,3.28,11.28,11.28,0,0,1-5,1.14,10.94,10.94,0,0,1-5-1.28,9.41,9.41,0,0,1-3.71-3.39,40.35,40.35,0,0,0,4.49,1.37,19.76,19.76,0,0,0,4.27.55,20.5,20.5,0,0,0,4.3-.43A35.43,35.43,0,0,0,144.49,186.49Z"/>
      </g>
      <path class="cls-28" d="M82.84,155.77A34.08,34.08,0,0,0,84.08,169a30,30,0,0,0,2.58,6.06,26.16,26.16,0,0,0,3.82,5.28,34.09,34.09,0,0,0,10.87,7.16,85.68,85.68,0,0,0,12.6,4.27,227.8,227.8,0,0,0,26.31,5,88.61,88.61,0,0,0,13.34.26A118.11,118.11,0,0,0,167,195.69a74,74,0,0,1-26.87,2.88c-2.29-.23-4.52-.53-6.74-.86s-4.47-.65-6.69-1c-4.46-.74-8.9-1.61-13.29-2.79a77.76,77.76,0,0,1-12.88-4.5,34,34,0,0,1-11.32-7.86A28.65,28.65,0,0,1,83,169.28a31.06,31.06,0,0,1-.84-6.78A28.1,28.1,0,0,1,82.84,155.77Z"/>
      <path class="cls-33" d="M197.42,124.74l-25.6-2.58c-8.53-.85-17.06-1.75-25.59-2.55-17.07-1.57-34.17-2.93-51.26-4l.24-4c17.16,1.08,34.27,2.48,51.38,4.1,8.55.81,17.08,1.74,25.62,2.61L197.83,121Z"/>
      <path class="cls-22" d="M146.9,118.12s-5.8,19.5-8.29,21.17-34.91-1.12-37.85-2.31-4.36-24.41-4.36-24.41"/>
      <polygon class="cls-33" points="159.08 127.1 145.53 126.16 145.75 123.62 159.26 125.1 159.08 127.1"/>
      <polygon class="cls-34" points="191.62 271.22 204.32 242.57 236.23 245.28 210.23 307.75 178.91 306.86 191.62 271.22"/>
      <polygon class="cls-35" points="176.9 304.8 202.26 240.24 233.98 242.81 236.4 245.28 204.56 242.76 178.8 306.71 176.9 304.8"/>
      <path class="cls-2" d="M166.34,279.29s8.07-15.26,13.59-18.48c8.17-4.76,15.22-2.54,15.22-2.54l-4.22,10.67a58.51,58.51,0,0,0,12.39.88c4.51-.14,13.74-3.1,15.77,1.84s.44,19.53-11.68,25-23.51,3.84-29.63,2.41c-3-.72-14-.59-14-.59Z"/>
      <path class="cls-36" d="M191,268.86s-3.18-1.22-2.89-2.46,4.29-1,4.29-1Z"/>
      <path class="cls-37" d="M43.85,188.91a23.57,23.57,0,0,0-2.1,8.92c-.48,7.72.9,35.95,4.41,54.82,4.45,23.84,13.3,37.25,30.32,47.58,34.22,20.78,97,4.46,97,4.46s1.38-10.38.53-18.62-5.43-17.75-5.43-17.75-50.26,13.37-72,1.53c-18.92-10.29-28.3-42.72-28.3-42.72a92.07,92.07,0,0,0-9.83-21.77A72.64,72.64,0,0,0,43.85,188.91Z"/>
      <path class="cls-10" d="M70.62,229.3a132.89,132.89,0,0,0,5.64,14.21,90.12,90.12,0,0,0,7.39,13.25c2.87,4.11,6.18,8,10.35,10.57a18.8,18.8,0,0,0,3.25,1.59c1.18.41,2.34.87,3.55,1.2a64.92,64.92,0,0,0,7.32,1.74,96.09,96.09,0,0,0,15.07,1.4,151.41,151.41,0,0,0,15.2-.47c5.07-.39,10.13-1,15.17-1.74s10.06-1.65,15.06-2.73a161.67,161.67,0,0,1-30.06,6.24,110.3,110.3,0,0,1-30.84-.47,64.2,64.2,0,0,1-7.57-1.84c-1.25-.36-2.47-.84-3.69-1.28a19.3,19.3,0,0,1-3.6-1.82,37,37,0,0,1-10.69-11.41,81.35,81.35,0,0,1-6.93-13.8A108.08,108.08,0,0,1,70.62,229.3Z"/>
      <path class="cls-10" d="M50.15,268.28a81.69,81.69,0,0,0,9.61,14.58A76.63,76.63,0,0,0,72.12,295a62.07,62.07,0,0,0,31.42,12.92A143.13,143.13,0,0,0,120.88,309c5.81.05,11.64-.17,17.46-.53,11.64-.76,23.26-2.07,34.87-3.79-5.67,1.54-11.43,2.71-17.21,3.76q-4.33.75-8.71,1.38c-2.91.41-5.83.74-8.76,1.05-11.7,1.15-23.57,1.53-35.38,0a61,61,0,0,1-32.45-14.1,70.94,70.94,0,0,1-12.05-13A69.16,69.16,0,0,1,50.15,268.28Z"/>
      <g class="cls-38">
        <path class="cls-28" d="M220.28,279.36l-3.28.56-3.3.49c-2.21.28-4.42.55-6.64.72s-4.45.29-6.7.3a38.25,38.25,0,0,1-6.83-.5l.46-2a36.64,36.64,0,0,0,6.36.37c2.17,0,4.35-.15,6.52-.35s4.35-.48,6.52-.78l3.24-.52,3.24-.58Z"/>
      </g>
      <g class="cls-38">
        <path class="cls-28" d="M215.68,291.16a90.67,90.67,0,0,1-11.85.84,91.74,91.74,0,0,1-11.83-.6l.11-1a92.58,92.58,0,0,0,11.66,0,88.81,88.81,0,0,0,11.53-1.44Z"/>
      </g>
      <g class="cls-38">
        <path class="cls-28" d="M227.14,354.79a46.36,46.36,0,0,1,2.29,5.27,50.19,50.19,0,0,1,1.68,5.52,45.22,45.22,0,0,1,1,5.67,29.53,29.53,0,0,1,.13,5.8h-.91c-.26-1.84-.63-3.69-1-5.52s-.79-3.65-1.23-5.47-.93-3.62-1.47-5.42l-1.63-5.4Z"/>
      </g>
      <g class="cls-38">
        <path class="cls-28" d="M236.08,351a46.76,46.76,0,0,1,3.45,9.3,37,37,0,0,1,.9,4.92,19.87,19.87,0,0,1,0,5l-1.27-.07c-.16-1.55-.4-3.16-.64-4.73s-.52-3.16-.84-4.74-.69-3.15-1.09-4.72-.85-3.12-1.29-4.7Z"/>
      </g>
      <ellipse class="cls-39" cx="209.53" cy="251.55" rx="3.69" ry="2.59" transform="translate(-116.78 277.98) rotate(-54.84)"/>
      <g class="cls-40">
        <path class="cls-41" d="M154,232.5a10.79,10.79,0,0,1-2.08-3.18,11.32,11.32,0,0,1-.89-3.77,11,11,0,0,1,.46-3.92,9.71,9.71,0,0,1,1.63-3.16"/>
        <path class="cls-41" d="M155.57,220.94a6.15,6.15,0,0,0-1,1.92,7.2,7.2,0,0,0-.32,2.6,7.31,7.31,0,0,0,.62,2.37,6.86,6.86,0,0,0,1.38,2"/>
        <g class="cls-40">
          <path class="cls-42" d="M163.45,220.67a6,6,0,0,0-1.25-1,5.27,5.27,0,0,0-2.64-.73,4.92,4.92,0,0,0-2.81.87,5.37,5.37,0,0,0-1.18,1.12"/>
          <path class="cls-42" d="M153.14,218.47a8.32,8.32,0,0,1,1.8-1.7,8,8,0,0,1,4.31-1.43,8.41,8.41,0,0,1,4.44,1.16,9.45,9.45,0,0,1,2,1.58"/>
        </g>
        <g class="cls-40">
          <path class="cls-43" d="M156.24,229.84a5.7,5.7,0,0,0,3,1.59,5,5,0,0,0,2.31-.15c.37.47.77,1,1.18,1.45s.95,1.09,1.42,1.59a8,8,0,0,1-3,1,7.78,7.78,0,0,1-2.93-.22,9,9,0,0,1-2.45-1.11,11.09,11.09,0,0,1-1.79-1.45"/>
          <path class="cls-43" d="M165.71,218.08a10.64,10.64,0,0,1,2.09,3.08,11.36,11.36,0,0,1,1,3.83h0a10.55,10.55,0,0,1-.05,2.27,7.4,7.4,0,0,1-.38,1.52l-2.95-3.21a7.49,7.49,0,0,0-.27-1.91,7.15,7.15,0,0,0-1.68-3"/>
        </g>
        <path class="cls-44" d="M168.07,235a.21.21,0,0,1-.18-.09L161,227.14a.66.66,0,0,1,0-.83l.57-.64a.56.56,0,0,1,.86,0l6.94,7.89,1.08,1.24a.06.06,0,0,1,0,.11C170,235,168.59,235,168.07,235Z"/>
      </g>
    </g>
  </g>
</svg>
