<svg xmlns="http://www.w3.org/2000/svg" width="369" height="545" viewBox="0 0 369 545">
  <defs>
    <style>
      .cls-1 {
        isolation: isolate;
      }

      .cls-2 {
        fill: #5b9e38;
      }

      .cls-3 {
        fill: #67b444;
      }

      .cls-4 {
        opacity: 0.49;
      }

      .cls-5 {
        fill: #569133;
      }

      .cls-6 {
        fill: #79c44d;
      }

      .cls-7 {
        fill: #3c5968;
      }

      .cls-8 {
        fill: #3b5b66;
      }

      .cls-9 {
        fill: #3a4449;
      }

      .cls-10 {
        fill: #40606d;
      }

      .cls-11 {
        fill: #2b4c57;
      }

      .cls-12 {
        fill: #42626d;
      }

      .cls-13 {
        fill: #2f545e;
      }

      .cls-14 {
        fill: #b6e0ef;
      }

      .cls-15 {
        fill: #2483c5;
      }

      .cls-16 {
        opacity: 0.6;
      }

      .cls-17 {
        fill: #405e6b;
      }

      .cls-18 {
        fill: #755946;
      }

      .cls-19 {
        fill: #64af41;
      }

      .cls-20 {
        fill: #f1b291;
      }

      .cls-21 {
        fill: #e25681;
      }

      .cls-22 {
        fill: none;
        stroke: #353e45;
        stroke-width: 3px;
      }

      .cls-22, .cls-40 {
        stroke-miterlimit: 10;
      }

      .cls-23 {
        fill: #a7755c;
      }

      .cls-24 {
        fill: #f7f5f5;
      }

      .cls-25 {
        fill: #913348;
      }

      .cls-26 {
        fill: #1b6087;
      }

      .cls-27 {
        fill: #a77056;
      }

      .cls-28 {
        fill: #915a46;
      }

      .cls-29 {
        opacity: 0.8;
      }

      .cls-30 {
        fill: #353e45;
      }

      .cls-31 {
        opacity: 0.7;
      }

      .cls-32 {
        fill: #456572;
      }

      .cls-33 {
        opacity: 0.64;
      }

      .cls-34 {
        opacity: 0.77;
      }

      .cls-35 {
        opacity: 0.71;
      }

      .cls-36 {
        fill: #f9a51a;
      }

      .cls-37, .cls-40 {
        opacity: 0.3;
      }

      .cls-38 {
        fill: #516672;
      }

      .cls-39 {
        fill: #ebeded;
      }

      .cls-40, .cls-44 {
        fill: #536872;
      }

      .cls-40 {
        stroke: #405a63;
        stroke-width: 1.05px;
      }

      .cls-41 {
        mix-blend-mode: multiply;
      }

      .cls-42 {
        fill: #ec125f;
      }

      .cls-43 {
        fill: #72be44;
      }

      .cls-44 {
        opacity: 0.18;
      }

      .cls-45 {
        fill: #72bc48;
      }
    </style>
  </defs>
  <title>Q_super</title>
  <g class="cls-1">
    <g id="Ebene_1" data-name="Ebene 1">
      <path class="cls-2" d="M160.38,423.5c2.83,4,22.5,3.5,22.5,3.5a104.21,104.21,0,0,1-5-26c-.78-11.74,1.5-51,1.5-51S158.53,420.89,160.38,423.5Z"/>
      <path class="cls-3" d="M208.88,182.5s8.89-3.38,22.17,9.33c18.1,17.33,24.27,74.5,32.83,103.17,10,33.5,21.5,51.5,30.5,73,6.74,16.11,14,43.5,14,43.5s-4.68,6.64-26,9c-13.45,1.49-12.5-1.5-25.5-.5-10.09.78-14.87,11.45-50.5,3.5-44.83-10-46,0-46,0s-5.67-24.33,3-82.5c4.2-28.21-4-122.5-4-122.5Z"/>
      <g class="cls-4">
        <path class="cls-5" d="M242.38,266.75q2.11,11.1,4.12,22.19c1.38,7.39,2.72,14.78,4.34,22.09.8,3.64,1.77,7.29,2.65,10.94s1.77,7.31,2.61,11q2.58,11,4.78,22.06-3.33-10.79-6.29-21.68c-2-7.27-3.94-14.5-5.69-21.86-1.6-7.39-2.86-14.81-3.93-22.27S243,274.25,242.38,266.75Z"/>
      </g>
      <path class="cls-6" d="M308.38,411.5s-2.5-2.75-12.75-2a70.59,70.59,0,0,0-16.25,3s3-17-5-45.5-11-42.5-16.5-65.5-5.27-56.07-5.27-56.07,6.27,39.57,15.77,57.07,21.5,45.5,28.5,63.5S308.38,411.5,308.38,411.5Z"/>
      <path class="cls-7" d="M116,339.2l-.94,29s28.1,12.92,59.45,17.94,51.44,2.67,51.44,2.67l3.27-38.91Z"/>
      <path class="cls-8" d="M132.24,191.32l-6.6,1.53S67.72,224.53,62.38,254c-5.81,32.13,33,66,33,66l12.5-31s-14.5-15-14.5-27c0-7.59,31.24-29.05,31.24-29.05Z"/>
      <path class="cls-9" d="M234.26,489.52a50.82,50.82,0,0,1,6.57,10.72,31.11,31.11,0,0,1,2.15,9.14s-9.31,5.1-25.8,7.56a135.14,135.14,0,0,1-35.09.69s2.06-6.89,14.14-13.89c8.32-4.82,22.27-10.09,22.27-10.09"/>
      <path class="cls-9" d="M156.07,483.74s4.21,6,6,11.24a31,31,0,0,1,1.59,9.3s-8.76,3.26-25.6,4.38a195.68,195.68,0,0,1-36.53-1.07s2.53-6.72,15.21-12.73c8.73-4.14,23.18-8.28,23.18-8.28"/>
      <path class="cls-7" d="M115.38,357.5s-2.06,26,.42,63.17c.23,22.45,12,68.86,12,68.86a89.6,89.6,0,0,0,17.69.89c11.25-.38,17.12-2.55,17.12-2.55s-10.63-42.37-10.8-65.49c-1.06-21.38-.11-43-.11-43"/>
      <path class="cls-10" d="M127.71,192.46s33.34-8.78,65.72-4.29c42.78,5.94,66.4,20.15,66.4,20.15S242,278.69,238.38,311.5c-2.33,21.33-10.33,42.33-10.33,42.33s-15.69,19.94-65,13.33c-39.19-5.25-47.67-25.67-47.67-25.67s-8.33-32.33-3.83-68.45c3-24.14,12.09-63.2,12.09-63.2"/>
      <path class="cls-7" d="M187,381.86s.86,16.64,4.75,53.4c.91,18.55,13.67,62.05,13.67,62.05a139.64,139.64,0,0,0,16.72.22,70.5,70.5,0,0,0,18.39-3.31s-12.72-42.14-13.62-60.94a484,484,0,0,1-.56-51.14"/>
      <g>
        <polyline class="cls-10" points="191.05 328.17 190.37 343.67 232.85 346.05 232.26 333.4"/>
        <path class="cls-11" d="M191.05,328.17l.4,15.55-1-1.12c3.54.13,7.08.34,10.62.55l10.61.72c7.07.56,14.14,1.07,21.21,1.69l-.53.52-.07-6.34,0-6.34.56,6.31.52,6.31,0,.53h-.57c-7.09-.17-14.18-.46-21.27-.69l-10.63-.47c-3.54-.18-7.08-.38-10.62-.64l-1.14-.08.12-1Z"/>
      </g>
      <g>
        <path class="cls-12" d="M158,308.6s20.25-15.1,30.82-24.76,20.81-24.59,20.81-24.59L196,249l17.51.07s12.12-34.12,11.31-47.66c-.46-7.74-8-15.52-8-15.52l-60.42-3.47s-9,10-11,13.9c-6.87,13.88-11.47,37.4-11.47,37.4l12.55,6.41-13.12,3.33s1.9,18.57,5.25,30.94S152,306.9,152,306.9"/>
        <path class="cls-13" d="M157.65,308.13q7.13-5.43,14.13-11c4.66-3.74,9.28-7.53,13.75-11.48,2.23-2,4.4-4,6.44-6.14s4-4.38,5.93-6.65c3.81-4.56,7.43-9.33,10.79-14.2h0l.26,1.55-13.6-10.29h0L192.93,248h3l17.51,0-1.08.76c1.83-5.24,3.53-10.55,5.11-15.87s3-10.7,4.23-16.1c.59-2.7,1.12-5.42,1.48-8.14a33.73,33.73,0,0,0,.32-8,20.68,20.68,0,0,0-2.77-7.37,37.45,37.45,0,0,0-4.81-6.49l.75.34-60.42-3.47h0l.91-.37c-3.16,3.49-6.3,7.06-9.09,10.79a23,23,0,0,0-1.85,2.84c-.49,1.06-1,2.1-1.48,3.18-.94,2.15-1.81,4.34-2.6,6.56-1.6,4.43-3,9-4.23,13.52s-2.38,9.16-3.36,13.78h0l-.36-.73,12.7,6.12h0l2.42,1.17-2.63.7-13.08,3.46h0l.85-1.22c.55,5.48,1.25,11,2.11,16.44A136,136,0,0,0,140,276a153.13,153.13,0,0,0,5.75,15.51q3.23,7.64,6.87,15.12l-1.08.54q-3.77-7.45-7.15-15.07a154.57,154.57,0,0,1-6.07-15.59c-.85-2.69-1.49-5.41-2.09-8.13s-1.12-5.47-1.59-8.21c-.95-5.49-1.74-11-2.38-16.54l-.11-1,1-.23h0l13.15-3.19-.21,1.86h0l-12.4-6.7-.45-.24.09-.49h0c.92-4.68,2-9.31,3.16-13.93s2.51-9.19,4.05-13.71q1.15-3.39,2.54-6.72c.45-1.11,1-2.19,1.47-3.29a24.66,24.66,0,0,1,2-3.16c2.83-3.91,5.91-7.52,9.06-11.12l.35-.4.56,0h0l60.42,3.47.46,0,.29.32a39.55,39.55,0,0,1,5.14,6.93,22.89,22.89,0,0,1,3.06,8.2,35.58,35.58,0,0,1-.32,8.65c-.38,2.81-.92,5.57-1.51,8.32-1.21,5.49-2.68,10.9-4.27,16.27s-3.3,10.69-5.15,16l-1.08.76-17.51-.19.61-1.84h0l13.75,10.11.89.65-.63.9h0c-3.51,4.92-7.21,9.65-11.14,14.21-2,2.28-4,4.5-6.11,6.66s-4.37,4.19-6.64,6.14c-4.56,3.91-9.26,7.64-14,11.32s-9.51,7.29-14.33,10.84Z"/>
      </g>
      <path class="cls-14" d="M156.6,300.21s20-19,35.69-51.53c12-24.86,18.7-52.09,18.7-52.09l-55.25-3.47s-7.08,25.78-7.58,48.45A185.71,185.71,0,0,0,156.6,300.21Z"/>
      <path class="cls-15" d="M172.44,200.8l-9,12.26s1.92,2.4,6.91,2.89a21.29,21.29,0,0,0,8.7-.88L174.14,201Z"/>
      <g class="cls-16">
        <path class="cls-17" d="M153,206.23a25.39,25.39,0,0,0,3.69,4.24c1.4,1.34,2.9,2.63,4.42,3.82h0l-1.43.25,12.73-18.86,1.69-2.51L175,196l7.41,22.5-.95-.54h0c2.36-.54,4.74-1.2,7.07-1.92s4.65-1.53,6.91-2.43a42.07,42.07,0,0,0,6.47-3.14,31.81,31.81,0,0,0,5.62-4.21l2.11,2.13a34.18,34.18,0,0,1-6.39,4.41,43.48,43.48,0,0,1-7,3c-2.37.82-4.77,1.52-7.18,2.15s-4.83,1.18-7.31,1.62h0l-.68.15-.27-.69-8.65-22,2.64.36-13.5,18.31-.62.84-.81-.59h0c-1.7-1.13-3.32-2.31-4.91-3.6a27.86,27.86,0,0,1-4.48-4.42Z"/>
      </g>
      <path class="cls-18" d="M163.64,50.58S145,67.44,142.41,81.05c-1.91,9.93-1,27-1,27l32.23-53.82Z"/>
      <path class="cls-19" d="M155.05,180.83s6.28,27.26,16.33,27.33c22.67.17,44.33-21.33,44.33-21.33Z"/>
      <path class="cls-20" d="M224.07,176.15s-3.55,14.52-17.82,20.42c-20,8.27-71.1-1-77.56-9.42-5.62-7.31.9-49.79,12.95-85.85,9.48-28.37,27.88-52.34,27.88-52.34s29.26-3.16,52.4,3.31a84.17,84.17,0,0,1,32,17.55L229,161.43"/>
      <path class="cls-18" d="M242.43,68.34S234,82.84,231.91,95.73c-1.79,11.13-3.38,37.61-3.38,37.61A104.58,104.58,0,0,0,220,145.08c-4.78,8.21-3.21,15.08-3.21,15.08l16.25-15.25L221.69,182s7.52,0,12.33-8.74,22.29-43.43,25.88-56.73c1.91-7.06,8.94-42.14,5.87-49a11.47,11.47,0,0,0-6.62-6.18,16.44,16.44,0,0,0-10.53-15.7c-16.59-7.06-55.17-11.43-70.29-9.46-11.62,1.52-29,15.7-29,15.7S164,56.62,171.8,56.36s28.81-3.94,28.81-3.94-13.07,4.68-16.94,6.44-11.22,7.06-11.22,7.06,14.69,1.43,19.73,1,25.7-6.39,25.7-6.39-8.25,3.74-12.14,5.75a61.49,61.49,0,0,0-7.57,4.78s13.32,3.35,23.64,2.5S242.43,68.34,242.43,68.34Z"/>
      <path class="cls-21" d="M142.72,94.83s-3.75,9.33-6.08,17.67-4.25,16.67-4.25,16.67l22.67,5.33,2.67-4.67S181.63,140,196.05,142.5c15.88,2.75,34.67,2.33,34.67,2.33l17.33,1,7.52-18.08s-19.19-13.92-37.19-19.25S142.72,94.83,142.72,94.83Z"/>
      <line class="cls-22" x1="222.21" y1="136.95" x2="239.28" y2="144.21"/>
      <path class="cls-20" d="M223.2,154.3s8.38-13.75,18.9-13.58c14.85.23,5.62,30.1-4.91,34C228,178.15,223,173.57,223,173.57"/>
      <path class="cls-23" d="M225.94,162.49a19,19,0,0,1,7.71-11.13,12.79,12.79,0,0,1,3.32-1.59,12.52,12.52,0,0,1,1.81-.44,11.26,11.26,0,0,1,1.89-.08c2.51.09,5.18,1.35,6.15,3.63a12,12,0,0,0-5.94-.13,18.06,18.06,0,0,0-2.64.79,15.57,15.57,0,0,0-2.55,1.16,33.13,33.13,0,0,0-4.88,3.5C229.21,159.53,227.62,161,225.94,162.49Z"/>
      <path class="cls-24" d="M215.55,131.11c-1.68,7.36-8.29,11.53-16.07,9.91a13.15,13.15,0,0,1-10.24-15.91,13.49,13.49,0,1,1,26.31,6Z"/>
      <path class="cls-24" d="M163.49,121.22c-2.09,7-7.19,11.54-14.28,10-6.66-1.42-10.27-8.23-8.93-15.4,1.43-7.6,8.06-11.51,14.69-10S165.44,114.72,163.49,121.22Z"/>
      <path class="cls-25" d="M193.91,117.18a9.82,9.82,0,0,1,6.33-3.64,13.49,13.49,0,0,1,7.48,1,13.7,13.7,0,0,1,5.89,4.71,11.06,11.06,0,0,1,2.09,7,18.84,18.84,0,0,0-3.84-5.53,17.11,17.11,0,0,0-5.28-3.52,16.32,16.32,0,0,0-6.16-1.44A14.54,14.54,0,0,0,193.91,117.18Z"/>
      <path class="cls-25" d="M141.6,111.67a8.27,8.27,0,0,1,4-5.25,12.87,12.87,0,0,1,6.58-1.71,11.46,11.46,0,0,1,6.59,1.79,8.77,8.77,0,0,1,3.79,5.39,11.85,11.85,0,0,0-4.68-3.8,11.67,11.67,0,0,0-2.75-.8,16.36,16.36,0,0,0-2.91-.14,17,17,0,0,0-5.72,1A12.19,12.19,0,0,0,141.6,111.67Z"/>
      <ellipse class="cls-26" cx="201.83" cy="129.05" rx="7.42" ry="5.83" transform="translate(45.49 310.56) rotate(-81.86)"/>
      <ellipse class="cls-26" cx="152.05" cy="118.87" rx="7.21" ry="5.35" transform="translate(11.13 250.74) rotate(-81.12)"/>
      <path class="cls-22" d="M125.42,109.45s.82,21.43,1.72,23,31.09,7.48,31.09,7.48"/>
      <g>
        <path class="cls-20" d="M174,101.34S163.15,120.19,157.89,132s-6.91,22.11-5.2,24.05,7.75,4.16,14.74,4.61,10.77-1.32,10.77-1.32"/>
        <path class="cls-27" d="M174,101.34l-9.14,19.59c-3,6.53-6,13-8,19.73-.51,1.68-1,3.37-1.34,5.06a40.72,40.72,0,0,0-.88,5,22.88,22.88,0,0,0-.13,2.39l0,.53a2.26,2.26,0,0,0,0,.47c0,.29.13.53.08.43a.24.24,0,0,0-.1-.11l.07.07a2.29,2.29,0,0,0,.28.23,7.08,7.08,0,0,0,.83.54,16.6,16.6,0,0,0,2.12,1,32.56,32.56,0,0,0,4.78,1.44,38,38,0,0,0,5,.83c3.4.35,6.68.69,10.51.83a11.75,11.75,0,0,1-5.08,2.77,19.74,19.74,0,0,1-5.69.71,36.59,36.59,0,0,1-11.29-2,21.47,21.47,0,0,1-2.8-1.25,12,12,0,0,1-1.44-.91,7.06,7.06,0,0,1-.75-.65,4.84,4.84,0,0,1-.39-.42,7.21,7.21,0,0,1-.45-.69,6,6,0,0,1-.64-2.15,5.81,5.81,0,0,1-.08-.87l0-.82a24.74,24.74,0,0,1,.27-3,55.52,55.52,0,0,1,2.92-10.86,91.69,91.69,0,0,1,4.43-10.1c1.63-3.26,3.42-6.41,5.22-9.55Q167.86,110.26,174,101.34Z"/>
      </g>
      <path class="cls-21" d="M157.63,127.5a52.35,52.35,0,0,1,10,1.5c6.75,1.5,9.5,8,9.5,8l-1.25-37.25-2.25.5s-9.75,14.75-11.25,17.5S157.63,127.5,157.63,127.5Z"/>
      <g>
        <path class="cls-20" d="M147.13,164.5s6.22,4.8,17.15,6.36c16.72,2.39,27.1-2.61,27.1-2.61"/>
        <path class="cls-28" d="M147.56,163.94a33.42,33.42,0,0,0,5,2.42,47.36,47.36,0,0,0,5.3,1.76,56.24,56.24,0,0,0,11,1.72,68.09,68.09,0,0,0,11.19-.15,54.84,54.84,0,0,0,5.53-.86,38,38,0,0,0,5.34-1.44l.83,1.73a31.1,31.1,0,0,1-5.57,2.14,50,50,0,0,1-17.53,1.57c-1-.06-2-.17-2.92-.31s-1.94-.25-2.92-.44a41,41,0,0,1-5.73-1.49,33.06,33.06,0,0,1-10.42-5.54Z"/>
      </g>
      <path class="cls-27" d="M187.4,163.32a6.25,6.25,0,0,1,3.62.86,7.49,7.49,0,0,1,2.75,2.67,7.28,7.28,0,0,1,1,3.71,5.64,5.64,0,0,1-1.14,3.57c-.42-1.2-.79-2.21-1.18-3.15a20.5,20.5,0,0,0-1.3-2.59,22.28,22.28,0,0,0-1.67-2.4Z"/>
      <g class="cls-29">
        <path class="cls-27" d="M156.17,174a32.68,32.68,0,0,0,3.86,2.65,19.76,19.76,0,0,0,3.94,1.77,20.25,20.25,0,0,0,4.23.84,45.63,45.63,0,0,0,4.7.18,9.6,9.6,0,0,1-4.62,2,11.05,11.05,0,0,1-9.59-3.07A9.05,9.05,0,0,1,156.17,174Z"/>
      </g>
      <path class="cls-27" d="M223.88,173.8a28,28,0,0,1-1.51,6.57,31.54,31.54,0,0,1-2.91,6.14,30.11,30.11,0,0,1-9.51,9.8,34.65,34.65,0,0,1-13,4.35,77.83,77.83,0,0,1-13.58.74,133.75,133.75,0,0,1-13.49-1c-4.48-.55-8.9-1.16-13.36-1.93a76.54,76.54,0,0,1-13.07-3.56,74.89,74.89,0,0,1-12.21-5.74,128.21,128.21,0,0,0,12.62,4.51,100.61,100.61,0,0,0,13,3.06,234.75,234.75,0,0,0,26.6,2.5,85.78,85.78,0,0,0,13.23-.59,34.7,34.7,0,0,0,12.42-3.81,30.72,30.72,0,0,0,9.51-8.88A34.41,34.41,0,0,0,223.88,173.8Z"/>
      <path class="cls-30" d="M124.54,108.19l25.39,4.74c8.46,1.6,16.93,3.13,25.39,4.77q25.38,5,50.59,10.66l-.91,3.9q-25.1-5.77-50.43-10.74c-8.43-1.66-16.9-3.21-25.35-4.83l-25.36-4.79Z"/>
      <path class="cls-22" d="M174.35,119.9s-.61,20.17,1.25,22.46,33.84,8.82,37,8.52,11.91-22,11.91-22"/>
      <polygon class="cls-30" points="160.26 123.02 173.68 125.43 173.17 127.94 159.87 124.98 160.26 123.02"/>
      <path class="cls-15" d="M167.48,216s-8.9,25.6-11.11,37-4.28,31.07-4.28,31.07l4.38,16.15,13-14.41,3-32.75.82-36.64Z"/>
      <g>
        <polyline class="cls-10" points="130.65 321.2 128.51 336.56 108.42 331.34 110.72 317.17"/>
        <path class="cls-11" d="M130.65,321.2l-1,15.52-.08,1.24-1.3-.32q-2.52-.61-5-1.31l-5-1.44-9.95-3-.53-.16.1-.5q1.4-7,2.88-14.08-.82,7.14-1.72,14.27l-.43-.66L118.71,333l5.06,1.17q2.52.62,5,1.3l-1.38.92Z"/>
      </g>
      <g class="cls-31">
        <path class="cls-10" d="M156,301.28s-3,30.42-3.7,44.65-.69,29-.69,29"/>
        <path class="cls-11" d="M156.48,301.32c-1.05,12.25-2.06,24.52-2.83,36.78-.4,6.13-.6,12.25-.72,18.4s-.15,12.29-.1,18.42h-2.5q.11-9.26.47-18.48c.24-6.15.57-12.32,1.1-18.46,1-12.28,2.28-24.51,3.58-36.75Z"/>
      </g>
      <path class="cls-11" d="M179,386.52a128.61,128.61,0,0,1-13.73-1.24c-4.56-.62-9.08-1.47-13.58-2.5-2.23-.56-4.49-1.12-6.69-1.83s-4.39-1.47-6.51-2.37a77.25,77.25,0,0,1-12.3-6.28q6.42,2.52,12.89,4.7c4.33,1.43,8.67,2.68,13.11,3.68s8.9,2,13.37,2.95S174.47,385.49,179,386.52Z"/>
      <path class="cls-11" d="M151,384.86a20.91,20.91,0,0,1-5.56,1.3,29.55,29.55,0,0,1-5.67,0,24,24,0,0,1-5.59-1.21,19,19,0,0,1-5.11-2.6,54.46,54.46,0,0,1,5.61.29l5.37.53c1.78.16,3.6.34,5.42.59A44.34,44.34,0,0,1,151,384.86Z"/>
      <path class="cls-32" d="M259,207.5s51.9,50.5,50.4,81.5c-1.48,30.66-57.5,48-57.5,48s-11.26-10.95-11.5-20c-.26-10,.5-14,.5-14s22.5-7,32-19c4.84-6.11-30.59-39.29-30.59-39.29s-1.23-7.92,4.07-20.76C250.42,214.12,259,207.5,259,207.5Z"/>
      <g class="cls-33">
        <path class="cls-11" d="M124.91,206.15c-.61,5-1.41,10-2.29,14.91s-1.83,9.88-2.83,14.8-2.09,9.83-3.26,14.71-2.39,9.76-3.81,14.59c.61-5,1.41-10,2.29-14.92s1.83-9.88,2.83-14.8,2.09-9.82,3.27-14.71S123.49,211,124.91,206.15Z"/>
      </g>
      <g class="cls-34">
        <path class="cls-11" d="M240.38,244.25a60.66,60.66,0,0,1,10.2,6.72c1.61,1.25,3.13,2.6,4.66,3.94s3,2.79,4.4,4.23a61.46,61.46,0,0,1,7.66,9.62,67,67,0,0,1,5.82,10.74c-5.25-6.22-10-12.66-15.62-18.25-1.4-1.43-2.8-2.86-4.24-4.26s-2.85-2.81-4.26-4.25Z"/>
      </g>
      <path class="cls-20" d="M99.86,297.82c6.58-9.77,15.61-9.38,23.52-6.76,11.34,3.76,14.87,13.35,12.87,22.66s-9.17,13-16.78,12.09c-4.19-.5-10.54-3.79-10.54-3.79s-5.06,3.86-10.23,0C92.28,317.28,94.14,306.32,99.86,297.82Z"/>
      <path class="cls-20" d="M243.84,306.21s-5.53-5.74-16.06-4.95c-13.31,1-23.9,9.23-24.21,18.3-.34,10.09,2,14.43,11.06,17.69,6.42,2.32,16.14-1.86,16.14-1.86s4,4.84,13.41,2C254.58,334.31,254.08,316.15,243.84,306.21Z"/>
      <g class="cls-35">
        <path class="cls-27" d="M202.83,321.75a30.06,30.06,0,0,1,5.75-4.64,35.94,35.94,0,0,1,6.51-3.25,63.62,63.62,0,0,1,6.84-2.15c2.31-.6,4.61-1.11,7-1.53l.39,2.27c-2.25.42-4.53.95-6.76,1.55a61.27,61.27,0,0,0-6.56,2.13,32.35,32.35,0,0,0-6,3.11,27.85,27.85,0,0,0-5.13,4.25Z"/>
      </g>
      <g class="cls-35">
        <path class="cls-27" d="M207.47,333.18a43.11,43.11,0,0,1,5.16-4.06,31.17,31.17,0,0,1,5.79-3.12,33.4,33.4,0,0,1,6.33-1.65,44.19,44.19,0,0,1,6.45-.6l0,1.5a42.72,42.72,0,0,0-6.15.86,31.65,31.65,0,0,0-5.87,1.81,29,29,0,0,0-5.23,3.14,40.84,40.84,0,0,0-4.64,4Z"/>
      </g>
      <g class="cls-35">
        <path class="cls-27" d="M113.18,298.82a32,32,0,0,1,7,1.31,35.31,35.31,0,0,1,6.57,2.69,32.24,32.24,0,0,1,5.84,4.1,43.81,43.81,0,0,1,5,5.09l-2.09,1.61a41.54,41.54,0,0,0-4.49-4.94,30.05,30.05,0,0,0-5.28-4,33.38,33.38,0,0,0-6.1-2.79,30.52,30.52,0,0,0-6.52-1.51Z"/>
      </g>
      <g class="cls-35">
        <path class="cls-27" d="M109.67,310.81a36.79,36.79,0,0,1,6.41,1.3,30,30,0,0,1,6.08,2.52,54.51,54.51,0,0,1,5.46,3.55c1.75,1.28,3.43,2.6,5.1,4l-1.77,2c-1.51-1.41-3.12-2.8-4.75-4.1a52.38,52.38,0,0,0-5.08-3.63,28.29,28.29,0,0,0-5.58-2.62,35.33,35.33,0,0,0-6-1.52Z"/>
      </g>
      <g class="cls-31">
        <path class="cls-11" d="M115.38,340.5c9.09,1.55,18.15,3.23,27.21,4.87,4.53.79,9.05,1.64,13.59,2.36s9.06,1.5,13.59,1.95c1.13.09,2.24.2,3.38.26l3.45.1,6.9.21c4.6.19,9.2.33,13.8.56,9.2.42,18.39.93,27.59,1.68-9.22.28-18.44.32-27.66.27-4.61,0-9.22-.1-13.83-.15l-6.91-.14-3.46-.07c-1.16,0-2.35-.15-3.51-.24a274.52,274.52,0,0,1-27.31-4.89C133.2,345.27,124.25,343.06,115.38,340.5Z"/>
      </g>
      <path class="cls-36" d="M114.38,340.17s15.59,7,50.33,10.33c38.67,3.67,64.67,1.67,64.67,1.67l-.33,18.33s-10.33-.67-25,4.67c-8.62,3.13-17.33,13-17.33,13s-8,1.33-20-.67a81.07,81.07,0,0,1-16-4.33,65.15,65.15,0,0,0-21.33-17.67c-10-5.26-15.33-7.33-15.33-7.33Z"/>
      <g class="cls-37">
        <polygon class="cls-38" points="146.97 335.83 144.35 361.13 143.41 360.01 166.09 361.5 166.02 362.84 143.31 362.01 142.21 361.96 142.37 360.88 146.23 335.73 146.97 335.83"/>
      </g>
      <polygon class="cls-39" points="147.72 330.5 178.05 333.84 174.06 363.65 144.96 360.19 147.72 330.5"/>
      <line class="cls-40" x1="149.71" y1="357.21" x2="169.33" y2="359.45"/>
      <g>
        <g class="cls-41">
          <path class="cls-36" d="M165.77,356.13a1.37,1.37,0,0,1-1-.65l-4.47-6.88a2.19,2.19,0,0,1,.26-2.61,1.29,1.29,0,0,1,2.09.21l4.48,6.88a2.19,2.19,0,0,1-.26,2.62A1.35,1.35,0,0,1,165.77,356.13Z"/>
        </g>
        <g class="cls-41">
          <path class="cls-42" d="M166,341.57a1.36,1.36,0,0,1-1-.65,4.73,4.73,0,0,0-7.67-.76,1.28,1.28,0,0,1-2.08-.21,2.19,2.19,0,0,1,.26-2.6c3.65-3.75,9-3.24,11.85,1.16a2.19,2.19,0,0,1-.26,2.62A1.36,1.36,0,0,1,166,341.57Z"/>
        </g>
        <g class="cls-41">
          <path class="cls-15" d="M155.06,352.74a1.35,1.35,0,0,1-1-.65,12.41,12.41,0,0,1,1.45-14.73,1.28,1.28,0,0,1,2.08.2,2.19,2.19,0,0,1-.26,2.6,8,8,0,0,0-.94,9.54,2.19,2.19,0,0,1-.26,2.6A1.33,1.33,0,0,1,155.06,352.74Z"/>
        </g>
        <g class="cls-41">
          <path class="cls-43" d="M159.68,355.78a7.67,7.67,0,0,1-5.6-3.68,2.19,2.19,0,0,1,.26-2.6,1.28,1.28,0,0,1,2.08.22,4.73,4.73,0,0,0,7.66.79,8,8,0,0,0,.94-9.58,2.19,2.19,0,0,1,.26-2.61,1.3,1.3,0,0,1,2.1.2,12.4,12.4,0,0,1-1.45,14.82A7.59,7.59,0,0,1,159.68,355.78Z"/>
        </g>
      </g>
      <polygon class="cls-44" points="172.82 335.2 175.24 335.61 174.71 338.04 172.66 337.6 172.82 335.2"/>
      <g class="cls-4">
        <path class="cls-5" d="M279.38,412.5c-.22-3.24-.41-6.47-.7-9.69s-.54-6.45-.87-9.66-.69-6.42-1.17-9.6-1-6.36-1.63-9.5-1.47-6.27-2.23-9.41l-2.34-9.42q-2.37-9.42-4.55-18.9,3.28,9.17,6,18.5c1.85,6.23,3.61,12.44,5,18.83A133.9,133.9,0,0,1,279.37,393,165,165,0,0,1,279.38,412.5Z"/>
      </g>
      <g class="cls-4">
        <path class="cls-5" d="M242.88,418.75l-1.63-19.82-.82-9.9-.88-9.89c-.61-6.58-1.38-13.14-2.25-19.7l-2.66-19.7c1.75,6.41,3.16,12.91,4.29,19.45s2,13.14,2.57,19.77,1,13.24,1.22,19.87S243,412.11,242.88,418.75Z"/>
      </g>
      <path class="cls-45" d="M162.76,200s-8.57,1-13.69,3.28-12,9.88-12,9.88,12.46,1.16,18.55-.52,12.14-7.82,12.14-7.82Z"/>
      <path class="cls-45" d="M174.38,205.17s2,12.5,5.5,16.5,12.5,8.33,12.5,8.33-.5-13-3-17a72.93,72.93,0,0,0-7-8.83Z"/>
      <g class="cls-31">
        <path class="cls-11" d="M186.72,388.17a41,41,0,0,1,8-7.81,46.73,46.73,0,0,1,4.72-3.11,41.86,41.86,0,0,1,5.14-2.43,63,63,0,0,1,10.83-2.93,52.54,52.54,0,0,1,11.13-.9c-3.61.89-7.17,1.81-10.69,2.8-1.75.53-3.51,1-5.24,1.59s-3.48,1.11-5.14,1.78a58.93,58.93,0,0,0-9.66,4.81C192.72,383.87,189.69,385.93,186.72,388.17Z"/>
      </g>
    </g>
  </g>
</svg>
