<svg xmlns="http://www.w3.org/2000/svg" width="661" height="540" viewBox="0 0 661 540">
  <defs>
    <style>
      .cls-1 {
        isolation: isolate;
      }

      .cls-2 {
        fill: #6196a3;
      }

      .cls-3 {
        fill: #3c5354;
      }

      .cls-4 {
        fill: #659daa;
      }

      .cls-5 {
        fill: #bdc0c1;
      }

      .cls-6 {
        fill: #79b2bc;
      }

      .cls-7 {
        fill: #74989e;
      }

      .cls-8 {
        fill: #7bb5bf;
      }

      .cls-9 {
        fill: #7eb3bc;
      }

      .cls-10 {
        fill: #6da7ad;
      }

      .cls-11 {
        fill: #76aeb7;
      }

      .cls-12 {
        fill: #e2e2e2;
      }

      .cls-13 {
        fill: #ededed;
      }

      .cls-14 {
        fill: #3c5968;
      }

      .cls-15 {
        fill: #3b5b66;
      }

      .cls-16 {
        fill: #2b4c57;
      }

      .cls-17 {
        fill: #3a4449;
      }

      .cls-18 {
        fill: #40606d;
      }

      .cls-19 {
        fill: #42626d;
      }

      .cls-20 {
        fill: #2f545e;
      }

      .cls-21 {
        fill: #b6e0ef;
      }

      .cls-22 {
        fill: #2483c5;
      }

      .cls-23 {
        opacity: 0.6;
      }

      .cls-24 {
        fill: #405e6b;
      }

      .cls-25 {
        opacity: 0.7;
      }

      .cls-26 {
        fill: #eff4f4;
      }

      .cls-27, .cls-34 {
        fill: #536872;
      }

      .cls-27 {
        stroke: #405a63;
        stroke-width: 1.04px;
      }

      .cls-27, .cls-37, .cls-46 {
        stroke-miterlimit: 10;
      }

      .cls-27, .cls-32 {
        opacity: 0.3;
      }

      .cls-28 {
        mix-blend-mode: multiply;
      }

      .cls-29 {
        fill: #f9a51a;
      }

      .cls-30 {
        fill: #ec125f;
      }

      .cls-31 {
        fill: #72be44;
      }

      .cls-33 {
        fill: #516672;
      }

      .cls-34 {
        opacity: 0.18;
      }

      .cls-35 {
        fill: #f1b291;
      }

      .cls-36 {
        fill: #6da8b2;
      }

      .cls-37, .cls-46 {
        fill: none;
        stroke-width: 3px;
      }

      .cls-37 {
        stroke: #6eadb7;
      }

      .cls-38 {
        fill: #639ea8;
      }

      .cls-39 {
        opacity: 0.67;
      }

      .cls-40 {
        fill: #a77056;
      }

      .cls-41 {
        opacity: 0.66;
      }

      .cls-42 {
        fill: #456572;
      }

      .cls-43 {
        opacity: 0.77;
      }

      .cls-44 {
        opacity: 0.8;
      }

      .cls-45 {
        fill: #755946;
      }

      .cls-46 {
        stroke: #353e45;
      }

      .cls-47 {
        fill: #a7755c;
      }

      .cls-48 {
        fill: #f7f5f5;
      }

      .cls-49 {
        fill: #684f3c;
      }

      .cls-50 {
        fill: #5b422a;
      }

      .cls-51 {
        fill: #1b6087;
      }

      .cls-52 {
        fill: #65262d;
        opacity: 0.9;
      }

      .cls-53 {
        fill: #cb5b65;
        opacity: 0.84;
      }

      .cls-54 {
        fill: #915a46;
      }

      .cls-55 {
        fill: #353e45;
      }

      .cls-56 {
        fill: #6eadb7;
      }
    </style>
  </defs>
  <title>Q_whiteboard</title>
  <g class="cls-1">
    <g id="Ebene_1" data-name="Ebene 1">
      <polygon class="cls-2" points="438.36 454.55 396.88 104.03 390.24 105.31 427.83 453.02 438.36 454.55"/>
      <polygon class="cls-3" points="425.91 456.11 440.23 456.08 436.59 437.03 425.42 438.31 425.91 456.11"/>
      <path class="cls-2" d="M393.08,93.48c.31,7.62-3,14.17-7.38,14.63s-8.21-5.35-8.52-13,3-14.17,7.38-14.63S392.77,85.86,393.08,93.48Z"/>
      <polygon class="cls-4" points="381.64 88.96 379.71 91.85 571.32 121.43 574.5 106.56 381.64 88.96"/>
      <polygon class="cls-5" points="620.01 367.09 511.16 351.61 578.97 102.86 620.01 367.09"/>
      <polyline class="cls-2" points="617.17 371.57 507.78 356.12 509.04 347.9 615.17 361.87"/>
      <polygon class="cls-4" points="577.73 109.99 519.3 520.28 508.2 518.1 570.08 108.16 577.73 109.99"/>
      <polygon class="cls-4" points="386.85 89.59 309.42 482.21 298.48 479.99 379.2 87.76 386.85 89.59"/>
      <polyline class="cls-6" points="301 371.5 316.55 362.63 532.62 402.25 514.43 414.79"/>
      <polygon class="cls-7" points="292.71 374.05 514.58 415.99 515.34 405.62 294.01 363.66 292.71 374.05"/>
      <polygon class="cls-8" points="390.34 85.49 380.93 89.18 574.49 107.42 578.97 102.86 390.34 85.49"/>
      <polygon class="cls-4" points="638.89 472.67 584.29 111.33 577.68 112.71 628.28 473.18 638.89 472.67"/>
      <path class="cls-9" d="M586.87,111.75c-.15,7.61-3.64,13.93-7.81,14.12s-7.41-5.83-7.27-13.44,3.64-13.93,7.81-14.12S587,104.14,586.87,111.75Z"/>
      <path class="cls-4" d="M582.63,111.94c-.07,3.33-1.59,6.1-3.42,6.18s-3.24-2.55-3.18-5.88,1.59-6.1,3.42-6.18S582.7,108.62,582.63,111.94Z"/>
      <polyline class="cls-10" points="547.31 313.42 576.58 308.83 576.97 316.7 544.92 323.59"/>
      <path class="cls-11" d="M606.07,293.73,578,305.52c-5.24,2.2-5.25,15.24,3.12,11.11,7.48-3.69,25.86-13.14,25.86-13.14"/>
      <path class="cls-12" d="M317.4,347.36l-8.49,12.9s90.7,21.64,134.35,29.33c47.18,8.32,76.82,12.12,76.82,12.12s14.28-56.6,19.83-87.86,23.67-171.21,23.67-171.21"/>
      <path class="cls-13" d="M300.81,353s69.74,19.21,110.79,26.59,98.11,17.77,98.11,17.77a472.39,472.39,0,0,0,26.37-83.89c10.28-47.8,34-205.33,34-205.33l-187.87-18S370.48,140.84,365,168.29s-31.22,128.28-42.64,150.56S300.81,353,300.81,353Z"/>
      <polygon class="cls-3" points="295.45 482.73 311.19 485.22 313.83 467.51 300.33 464.37 295.45 482.73"/>
      <polygon class="cls-3" points="504.84 521.7 521.61 523.92 524.14 503.07 509.5 500.12 504.84 521.7"/>
      <polygon class="cls-3" points="626.41 476.32 641.46 475.8 636.86 455.2 624.47 458.63 626.41 476.32"/>
      <path class="cls-5" d="M301.22,352.35a98.31,98.31,0,0,0,10.89-15.07,148.32,148.32,0,0,0,8.53-16.49c5-11.35,9.23-23,13.14-34.83s7.43-23.72,10.83-35.68q2.52-9,4.88-18c1.61-6,3.13-12,4.64-18.08-2.38,12.22-5.23,24.34-8.34,36.4l-2.38,9-2.54,9c-.89,3-1.74,6-2.67,9s-1.85,5.95-2.83,8.91-1.94,5.92-3,8.86-2.08,5.88-3.2,8.79C327,310,324.63,315.74,322,321.42a134.06,134.06,0,0,1-9.08,16.38c-1.68,2.63-3.53,5.15-5.46,7.6A62.54,62.54,0,0,1,301.22,352.35Z"/>
      <path class="cls-5" d="M300.81,353q10.28,2.74,20.6,5.33T342,363.58c13.76,3.42,27.52,6.85,41.35,10s27.7,6,41.62,8.74q10.44,2,20.9,3.95T466.84,390q-10.54-1.48-21-3.15t-21-3.59q-20.94-3.79-41.72-8.46-20.73-4.83-41.31-10.26-10.28-2.73-20.53-5.58T300.81,353Z"/>
      <path class="cls-5" d="M509.71,397.38c2-5.13,4-10.25,5.88-15.43s3.77-10.34,5.52-15.54c3.5-10.42,6.77-20.92,9.33-31.59s4.86-21.45,7.16-32.21q1.72-8.07,3.36-16.16l3.34-16.18c-.74,5.46-1.64,10.89-2.51,16.33s-1.89,10.85-2.89,16.27q-3,16.25-6.79,32.35a292.56,292.56,0,0,1-9.76,31.62q-2.87,7.76-6,15.41C514.24,387.33,512.08,392.41,509.71,397.38Z"/>
      <path class="cls-5" d="M514.48,397.88c.9-2.51,1.79-5,2.64-7.53s1.72-5,2.55-7.56c1.66-5.05,3.31-10.11,4.84-15.2s3.07-10.18,4.47-15.31q1.06-3.84,2-7.72c.67-2.58,1.28-5.17,1.87-7.76-.83,5.26-2,10.47-3.25,15.64s-2.75,10.3-4.29,15.4-3.24,10.15-5,15.17S516.61,393,514.48,397.88Z"/>
      <path class="cls-4" d="M581.37,311.4c0,2-1,3.7-2.07,3.75s-2-1.55-1.93-3.56,1-3.7,2.07-3.75S581.41,309.39,581.37,311.4Z"/>
      <path class="cls-14" d="M195.75,341.1l.44,29S167.88,382.53,136.45,387,85,388.8,85,388.8l-2.6-39Z"/>
      <path class="cls-15" d="M185.73,194.66l10.73,3.66s16.81,63.87,29.51,78.14c19.43,21.84,48.61,26.23,48.61,26.23s.35,10.94-1.63,17.65c-2.56,8.69-8.92,18-8.92,18s-37.29-8.69-57.05-32c-21.35-25.21-32.69-80-32.69-80Z"/>
      <path class="cls-16" d="M198.44,232.27q1.42,10.26,2.42,20.56c.7,6.86,1.26,13.74,1.8,20.61s1,13.76,1.29,20.64.56,13.77.63,20.68q-1.39-10.26-2.36-20.57c-.67-6.87-1.24-13.74-1.78-20.61s-1-13.75-1.31-20.63S198.53,239.18,198.44,232.27Z"/>
      <path class="cls-17" d="M79.9,490.38A50.82,50.82,0,0,0,73.15,501a31.11,31.11,0,0,0-2.31,9.1s9.22,5.26,25.67,8a135.14,135.14,0,0,0,35.08,1.29s-1.94-6.93-13.9-14.13c-8.24-5-22.1-10.47-22.1-10.47"/>
      <path class="cls-17" d="M161.2,483s-4.32,5.88-6.14,11.13a31,31,0,0,0-1.75,9.27s8.71,3.41,25.52,4.81a195.68,195.68,0,0,0,36.55-.44s-2.41-6.76-15-13c-8.66-4.29-23-8.68-23-8.68"/>
      <path class="cls-14" d="M195.82,367.43s1.34,31.76.7,55.12c-.62,22.45-7.15,65.73-7.15,65.73a89.6,89.6,0,0,1-17.71.58A116.8,116.8,0,0,1,154.59,486s5.34-39.27,5.9-62.38c.57-18-.15-43-.15-43"/>
      <path class="cls-18" d="M193.64,197.78s-28.21-11.52-67.89-8.7C85.15,192,57.18,203.5,57.18,203.5s13.6,79,14.15,112-.9,58.5-.9,58.5,32,8.95,81.51,3.87c39.33-4,58.48-10.6,58.48-10.6s-3.56-34.83-9.14-86.49c-2.62-24.19-5.11-65.49-5.11-65.49"/>
      <path class="cls-14" d="M124,382.53s-1.77,29.37-4.66,53.31c-1.23,18.54-10.74,61.82-10.74,61.82a139.64,139.64,0,0,1-16.72-.07A70.5,70.5,0,0,1,73.6,494s8.41-40,9.63-58.73a525.88,525.88,0,0,0,1.47-53.1"/>
      <g>
        <polyline class="cls-18" points="122.1 329.15 120.38 343.9 77.88 343.97 78.86 331.34"/>
        <path class="cls-16" d="M122.1,329.15,121.45,344l0,.93-1,0c-3.54.07-7.08.07-10.62.06l-10.63-.11c-7.08-.16-14.17-.26-21.25-.47l-.56,0,.06-.52.72-6.3.76-6.29-.22,6.33L78.37,344l-.5-.54c7.08-.24,14.17-.36,21.25-.54l10.62-.14c3.54,0,7.08,0,10.63,0l-1.07,1Z"/>
      </g>
      <g>
        <path class="cls-19" d="M153.82,309.84s-19.78-15.72-30-25.7-20-25.22-20-25.22l14-9.77-17.5-.47s-11.06-34.48-9.83-48c.7-7.72,8.47-15.26,8.47-15.26l60.5-1.6s8.27,10.49,10.52,14.23S180.2,235.8,180.2,235.8l-12.74,6,13,3.73s-2.47,18.5-6.2,30.76-14.45,32-14.45,32"/>
        <path class="cls-20" d="M153.46,310.3q-7.07-5.56-14-11.28c-4.61-3.82-9.19-7.69-13.63-11.74-2.22-2-4.4-4.13-6.45-6.34s-4-4.51-5.91-6.84c-3.79-4.69-7.34-9.52-10.7-14.55h0l-.6-.92.91-.62,14.05-9.68h0l.56,1.86-17.5-.35-.81,0-.24-.77q-2.53-8-4.65-16.14c-1.42-5.41-2.73-10.86-3.76-16.39-.51-2.76-1-5.54-1.26-8.36a35.57,35.57,0,0,1-.06-8.65,22.89,22.89,0,0,1,3.31-8.11,39.55,39.55,0,0,1,5.36-6.76l.3-.31h.46l60.5-1.6h0l.58,0,.34.45c2.9,3.77,5.77,7.54,8.52,11.45.68,1,1.36,2,2,3a22.73,22.73,0,0,1,1.34,3.51c.72,2.29,1.35,4.58,2,6.87,2.44,9.18,4.63,18.4,6.77,27.64h0l.12.52-.49.25-12.6,6.31h0l-.15-1.87,13,3.6h0l1,.26-.14,1c-.81,5.53-1.77,11-2.89,16.46q-.83,4.09-1.85,8.16c-.69,2.71-1.41,5.41-2.34,8.06a154.58,154.58,0,0,1-6.55,15.4q-3.61,7.53-7.61,14.84l-1.06-.58q3.85-7.35,7.33-14.9a153.18,153.18,0,0,0,6.23-15.32,135.94,135.94,0,0,0,3.87-16.05c1-5.43,1.9-10.9,2.61-16.37l.81,1.24h0l-13-3.86-2.61-.78,2.46-1.09h0l12.88-5.73-.37.77h0c-2.28-9.19-4.62-18.37-7.2-27.47-.65-2.27-1.32-4.54-2.06-6.76a22.38,22.38,0,0,0-1.22-3.11c-.58-.94-1.27-1.91-2-2.86-2.77-3.8-5.7-7.53-8.64-11.22l.92.43h0l-60.5,1.6.76-.32a37.45,37.45,0,0,0-5,6.33,20.69,20.69,0,0,0-3,7.28,33.75,33.75,0,0,0,.08,8c.28,2.73.73,5.46,1.23,8.18,1,5.44,2.32,10.85,3.73,16.23s3,10.73,4.62,16l-1.05-.79,17.5.59,3,.1L118.31,250h0l-13.92,9.87.31-1.55h0c3.21,5,6.68,9.85,10.35,14.53,1.84,2.34,3.74,4.62,5.72,6.83S124.84,284,127,286c4.34,4.08,8.85,8,13.39,11.9s9.15,7.71,13.79,11.47Z"/>
      </g>
      <path class="cls-21" d="M155.47,301.51s-19.37-19.63-34.09-52.61c-11.26-25.22-17.09-52.64-17.09-52.64l55.33-1.76s6.28,26,6.08,48.66A185.71,185.71,0,0,1,155.47,301.51Z"/>
      <path class="cls-22" d="M142.71,201.65l8.65,12.53s-2,2.34-7,2.68a21.29,21.29,0,0,1-8.67-1.15L141,201.77Z"/>
      <g class="cls-23">
        <path class="cls-24" d="M164.39,209.47a27.86,27.86,0,0,1-4.61,4.28c-1.62,1.24-3.28,2.37-5,3.45h0l-.83.57-.59-.86-12.93-18.72,2.65-.27-9.33,21.77-.29.68-.67-.17h0c-2.47-.52-4.86-1.14-7.26-1.84s-4.77-1.48-7.11-2.37a43.48,43.48,0,0,1-6.88-3.25,34.18,34.18,0,0,1-6.25-4.61l2.17-2.07a31.8,31.8,0,0,0,5.49,4.38,42.07,42.07,0,0,0,6.37,3.34c2.23,1,4.52,1.84,6.83,2.65s4.67,1.53,7,2.14h0l-1,.51,8.1-22.26,1-2.83,1.62,2.56,12.14,19.24-1.42-.29h0c1.56-1.15,3.1-2.39,4.53-3.68a25.38,25.38,0,0,0,3.82-4.12Z"/>
      </g>
      <path class="cls-22" d="M147.2,217s8.11,25.86,10,37.36,3.32,31.19,3.32,31.19l-4.87,16L143,286.7l-2-32.83.31-36.65Z"/>
      <g>
        <polyline class="cls-18" points="183.84 321.05 187.86 335.54 210.11 331 205.09 318.51"/>
        <path class="cls-16" d="M183.84,321l5.1,14.2-1.3-.79q2.77-.61,5.56-1.13l5.59-1,11.2-1.89-.43.79q-2.27-6.34-4.48-12.71,2.82,6.12,5.56,12.27l.28.62-.7.17-11,2.65-5.53,1.27q-2.77.6-5.56,1.14l-1.1.21-.2-1Z"/>
      </g>
      <g class="cls-25">
        <path class="cls-18" d="M156.06,302.59s2.05,30.5,2.32,44.75-.2,29-.2,29"/>
        <path class="cls-16" d="M156.56,302.56c.92,12.27,1.8,24.54,2.44,36.85.34,6.15.47,12.33.53,18.49s0,12.32-.1,18.49l-2.5-.08c.24-6.13.4-12.27.47-18.41s.06-12.27-.15-18.41c-.39-12.28-1-24.57-1.69-36.85Z"/>
      </g>
      <path class="cls-16" d="M132,387.33c4.5-1,9-1.8,13.49-2.67s9-1.74,13.42-2.72,8.82-2.1,13.18-3.46,8.66-2.86,13-4.47a77.24,77.24,0,0,1-12.41,6.06c-2.14.87-4.34,1.57-6.55,2.26s-4.48,1.19-6.72,1.71c-4.51.95-9,1.73-13.62,2.27A128.61,128.61,0,0,1,132,387.33Z"/>
      <path class="cls-16" d="M160,386.15a44.34,44.34,0,0,1,5.55-1c1.82-.22,3.65-.36,5.43-.49l5.38-.44a54.46,54.46,0,0,1,5.61-.2,19,19,0,0,1-5.15,2.51,24,24,0,0,1-5.61,1.12,29.55,29.55,0,0,1-5.67-.15A20.91,20.91,0,0,1,160,386.15Z"/>
      <polygon class="cls-26" points="158.8 221.14 186.93 218.41 191.88 248.4 164.68 250.32 158.8 221.14"/>
      <line class="cls-27" x1="168.23" y1="246.51" x2="187.1" y2="245.02"/>
      <g>
        <g class="cls-28">
          <path class="cls-29" d="M183.12,242.44A1.53,1.53,0,0,1,182,242l-6.37-5.89a2.27,2.27,0,0,1-.53-2.61,1.27,1.27,0,0,1,2.09-.19l6.39,5.89a2.27,2.27,0,0,1,.53,2.62A1.18,1.18,0,0,1,183.12,242.44Z"/>
        </g>
        <g class="cls-28">
          <path class="cls-30" d="M179,228.12a1.52,1.52,0,0,1-1.16-.44c-2.65-2.44-6.08-2.11-7.64.72a1.26,1.26,0,0,1-2.07.2,2.26,2.26,0,0,1-.53-2.6c2.41-4.38,7.7-4.89,11.8-1.13a2.27,2.27,0,0,1,.53,2.61A1.19,1.19,0,0,1,179,228.12Z"/>
        </g>
        <g class="cls-28">
          <path class="cls-22" d="M171.75,241.17a1.51,1.51,0,0,1-1.15-.45,13.43,13.43,0,0,1-3.93-7.14,11.14,11.14,0,0,1,.93-7.59,1.26,1.26,0,0,1,2.07-.2,2.26,2.26,0,0,1,.53,2.6,7.2,7.2,0,0,0-.6,4.91,8.69,8.69,0,0,0,2.55,4.62,2.26,2.26,0,0,1,.53,2.6A1.17,1.17,0,0,1,171.75,241.17Z"/>
        </g>
        <g class="cls-28">
          <path class="cls-31" d="M177.12,243.26a8.59,8.59,0,0,1-6.52-2.54,2.26,2.26,0,0,1-.53-2.6,1.27,1.27,0,0,1,2.08-.19c2.64,2.44,6.07,2.14,7.65-.69s.7-7.13-2-9.57a2.27,2.27,0,0,1-.53-2.61,1.28,1.28,0,0,1,2.09-.2,13.42,13.42,0,0,1,4,7.18,11.11,11.11,0,0,1-1,7.63A6.66,6.66,0,0,1,177.12,243.26Z"/>
        </g>
      </g>
      <g class="cls-32">
        <polygon class="cls-33" points="159.46 226 164.4 251.26 163.35 250.44 168.24 250.35 168.36 251.67 163.51 252.41 162.6 252.55 162.46 251.59 158.74 226.12 159.46 226"/>
      </g>
      <polygon class="cls-34" points="182.63 220.73 185 220.67 185.21 223.16 183.18 223.11 182.63 220.73"/>
      <path class="cls-35" d="M268.38,305.37c.15-.4,8.9-8.4,18.85-6.69,10.92,1.87,8.16,13,8.16,13l-24.74-8.42"/>
      <polygon class="cls-36" points="361.95 218.72 325.52 266.74 322.35 264.3 359.48 216.82 361.95 218.72"/>
      <line class="cls-37" x1="403.77" y1="161.18" x2="359.55" y2="219.4"/>
      <polygon class="cls-38" points="327.05 265.19 291.8 313.7 286.99 310.12 323.3 262.4 327.05 265.19"/>
      <path class="cls-35" d="M277.06,301a10.06,10.06,0,0,1,9.81,3.63s9.72,4.55,10.78,11.44c1.34,8.77-6.77,22.33-13.8,26.42s-15.72.37-20.87-4.71c-2.48-2.45-7.1-6.16-4.84-16S268,302.28,277.06,301Z"/>
      <path class="cls-35" d="M116.72,291.65c5.6-10.08,15.91-16.12,27.52-21.32,7.27-3.26,20.28-7.68,22.61-3.7s-10.59,8.05-16.74,11.51a60.21,60.21,0,0,0-9.78,6.7s9.43,1.33,14.15,6.67c6.69,7.58,3.7,20.66-4.86,26.38S132,316.33,132,316.33s1.59,1.62-5.18,2.23S108.3,306.79,116.72,291.65Z"/>
      <g class="cls-39">
        <path class="cls-40" d="M131.76,316.65a7.78,7.78,0,0,1-3.23-2.48,5.35,5.35,0,0,1-1-2,4.54,4.54,0,0,1,.1-2.4,6.77,6.77,0,0,1,2.79-3.46,9.36,9.36,0,0,1,4-1.41,12.56,12.56,0,0,1,4.1.19,9,9,0,0,1,3.83,1.73,3.29,3.29,0,0,1,1.21,2.16,2.92,2.92,0,0,1-.87,2.27,8.22,8.22,0,0,1-3.49,2l-.28-.7a8.41,8.41,0,0,0,2.7-2.18,1.56,1.56,0,0,0,.33-1.19,1.71,1.71,0,0,0-.74-1,7.29,7.29,0,0,0-3.08-1.12,10.77,10.77,0,0,0-3.41,0,7.74,7.74,0,0,0-3,1.13,5.13,5.13,0,0,0-1.9,2.29,3.45,3.45,0,0,0,.28,2.76,12.32,12.32,0,0,0,2.06,2.82Z"/>
      </g>
      <g class="cls-41">
        <path class="cls-40" d="M139,293.55a21.69,21.69,0,0,1,6.86,1.5,15.19,15.19,0,0,1,6,4.07,14.61,14.61,0,0,1,3.05,6.58,18.79,18.79,0,0,1,.06,7l-.58-.06a27.21,27.21,0,0,0-1.18-6.55,14.8,14.8,0,0,0-3-5.55,15.12,15.12,0,0,0-2.37-2,30.62,30.62,0,0,0-2.8-1.66c-2-1-4-1.89-6.13-2.79Z"/>
      </g>
      <path class="cls-42" d="M57.55,203.14S14.37,269.65,25.2,301.71c11.53,34.16,94.74,19.3,94.74,19.3A48.64,48.64,0,0,1,116.15,306a72.08,72.08,0,0,1,1.27-20s-46.11,7.37-57-.78c-6.79-5.08,16.63-45.78,16.63-45.78a61.71,61.71,0,0,0-7.68-23.11C64.14,207.05,57.55,203.14,57.55,203.14Z"/>
      <g class="cls-43">
        <path class="cls-16" d="M77.55,239.92c-1.64,3.63-3.44,7.15-5.23,10.66L71,253.21l-1.38,2.61L66.86,261A101,101,0,0,0,62,271.56c-1.45,3.61-2.71,7.31-4,11.09a42.58,42.58,0,0,1,1.63-11.89,47.82,47.82,0,0,1,2-5.72c.8-1.88,1.72-3.65,2.68-5.39s1.92-3.48,3-5.18l1.56-2.54,1.64-2.49A98.83,98.83,0,0,1,77.55,239.92Z"/>
      </g>
      <path class="cls-20" d="M120.94,321a195.31,195.31,0,0,1-20.87,2.51c-3.5.28-7,.39-10.51.52s-7,.08-10.54,0a137.5,137.5,0,0,1-21-2,77.25,77.25,0,0,1-10.26-2.55,49,49,0,0,1-4.93-1.91,22.46,22.46,0,0,1-4.56-2.64,26.26,26.26,0,0,0,4.79,2.05c.82.29,1.66.52,2.49.78s1.68.46,2.52.65a98.51,98.51,0,0,0,10.24,1.87c.86.13,1.72.22,2.58.31l2.59.3c1.73.14,3.46.34,5.19.42,3.46.25,6.94.43,10.42.5,7,.22,13.93.15,20.9,0S113.94,321.33,120.94,321Z"/>
      <path class="cls-20" d="M117.26,285.8c-.08,3-.24,6-.29,9a73.6,73.6,0,0,0,.24,8.86c.34,2.93.79,5.91,1.32,8.85s1.14,5.88,1.91,8.81a42.89,42.89,0,0,1-3.3-8.49,64.09,64.09,0,0,1-1.87-8.95,38.65,38.65,0,0,1,0-9.2A39.89,39.89,0,0,1,117.26,285.8Z"/>
      <g class="cls-44">
        <path class="cls-40" d="M286.87,304.64a17.87,17.87,0,0,0-10,3.18,15.8,15.8,0,0,0-3.45,3.66c-1,1.48-2,3-3,4.52a67.86,67.86,0,0,0-5.11,9.45,24.84,24.84,0,0,0-1.51,5.06,10.29,10.29,0,0,0,.33,5.32,8.87,8.87,0,0,1-1.86-5.39,19.71,19.71,0,0,1,.74-5.76,39.2,39.2,0,0,1,4.78-10.34,56,56,0,0,1,3.27-4.61,15.08,15.08,0,0,1,4.52-3.95A14.31,14.31,0,0,1,286.87,304.64Z"/>
      </g>
      <g class="cls-44">
        <path class="cls-40" d="M271.51,311.67c2.21,1,4.36,2,6.51,3.09s4.3,2.11,6.39,3.29a52.09,52.09,0,0,1,6.13,3.86,53.23,53.23,0,0,1,5.6,4.67l-1.39,1.28a34.17,34.17,0,0,0-5.21-4.56,42.68,42.68,0,0,0-6-3.58c-2.12-1-4.28-1.94-6.48-2.78s-4.44-1.62-6.68-2.25Z"/>
      </g>
      <g class="cls-44">
        <path class="cls-40" d="M264,324.47a1.08,1.08,0,0,1,.93.08l.83.33,1.64.68c1.09.46,2.16,1,3.22,1.52s2.11,1.08,3.14,1.67,2.07,1.17,3.08,1.8q3,1.83,5.91,3.89,1.45,1,2.86,2.09c1,.71,1.87,1.43,2.82,2.21l-1.54,1.65a48.61,48.61,0,0,0-5.23-4.45,69,69,0,0,0-5.76-3.83,44.38,44.38,0,0,0-6.21-3c-1.07-.43-2.15-.81-3.23-1.21l-1.62-.57-.81-.27c-.27-.09-.56-.14-.72-.49Z"/>
      </g>
      <path class="cls-45" d="M165.07,54.36s16.56,18.88,17.6,32.71c.75,10.08-2.15,26.92-2.15,26.92L154.68,56.82Z"/>
      <path class="cls-35" d="M90.63,172.16S92.49,187,106,194.48c18.94,10.52,70.74,7.16,78.13-.45,6.42-6.62,4.83-49.57-3-86.77C175,78,159.43,52.06,159.43,52.06s-28.7-6.5-52.43-2.72A84.17,84.17,0,0,0,73.24,63.11L87.42,157"/>
      <path class="cls-45" d="M84.77,63s6.73,15.37,7.3,28.42c.5,11.26-1,37.75-1,37.75a104.58,104.58,0,0,1,7.1,12.64c3.8,8.71,1.46,15.35,1.46,15.35l-14.39-17,7,38.17s-7.46-.89-11.24-10.1-17.15-45.7-19.2-59.33c-1.09-7.24-4-42.89-.21-49.33A11.47,11.47,0,0,1,69,54.12,16.44,16.44,0,0,1,81.22,39.74c17.29-5.11,56.12-5,70.91-1.33,11.37,2.84,27.06,18.93,27.06,18.93s-15.17,3-22.87,1.82-28.16-7.22-28.16-7.22,12.45,6.15,16.09,8.35,10.33,8.3,10.33,8.3-14.76-.27-19.71-1.27-24.8-9.3-24.8-9.3,7.77,4.66,11.4,7.1a61.49,61.49,0,0,1,7,5.62s-13.61,1.8-23.77-.23S84.77,63,84.77,63Z"/>
      <line class="cls-46" x1="96.98" y1="133.43" x2="79.19" y2="138.68"/>
      <path class="cls-35" d="M94,150.55s-6.75-14.62-17.21-15.66c-14.78-1.47-9,29.26,1,34.35,8.78,4.46,14.24.49,14.24.49"/>
      <path class="cls-47" d="M90.35,158.37c-1.5-1.7-2.91-3.32-4.35-4.83a33.14,33.14,0,0,0-4.45-4,15.57,15.57,0,0,0-2.4-1.44A18,18,0,0,0,76.61,147a12,12,0,0,0-5.91-.55c1.22-2.15,4-3.1,6.53-2.9a11.26,11.26,0,0,1,1.87.3,12.52,12.52,0,0,1,1.74.64,12.79,12.79,0,0,1,3.12,2,19,19,0,0,1,6.38,11.95Z"/>
      <path class="cls-48" d="M103.75,128.46c.85,7.78,7.17,12.87,15.39,12.13a13.65,13.65,0,0,0,12.45-15.19,14,14,0,1,0-27.83,3.05Z"/>
      <path class="cls-48" d="M156.43,124.63c1.35,7.6,6.16,13,13.8,12.27,7.17-.69,11.8-7.41,11.26-15.1-.58-8.17-7.07-13.08-14.23-12.3S155.17,117.55,156.43,124.63Z"/>
      <path class="cls-49" d="M134.64,105.68s-10.83.11-19.84,3.31a50.29,50.29,0,0,0-14.8,8.24l-.12-4.18s2.36-6.69,13.73-10.44a47.43,47.43,0,0,1,19.77-1.67Z"/>
      <path class="cls-50" d="M127.73,116.67a15.09,15.09,0,0,0-6.55-2.2,16.93,16.93,0,0,0-6.52.75,17.76,17.76,0,0,0-5.86,3,19.55,19.55,0,0,0-4.62,5.24,11.48,11.48,0,0,1,3-7,14.22,14.22,0,0,1,6.63-4.16,14,14,0,0,1,7.84-.18A10.19,10.19,0,0,1,127.73,116.67Z"/>
      <path class="cls-50" d="M180.6,117.25a12.91,12.91,0,0,0-4.74-4.25A18.23,18.23,0,0,0,170,111.2a13.46,13.46,0,0,0-6.07.3,12.54,12.54,0,0,0-5.38,3.43,9.29,9.29,0,0,1,4.64-5.2,12,12,0,0,1,7.15-1.08,13.51,13.51,0,0,1,6.71,2.59A8.76,8.76,0,0,1,180.6,117.25Z"/>
      <path class="cls-49" d="M154.2,105a51,51,0,0,1,14.07.2,47.8,47.8,0,0,1,14.19,4.38l-.77-3.65a21.76,21.76,0,0,0-11.85-6.46,32.2,32.2,0,0,0-15.57,1Z"/>
      <ellipse class="cls-51" cx="118.14" cy="127.92" rx="5.83" ry="7.42" transform="translate(-3.42 3.25) rotate(-1.55)"/>
      <ellipse class="cls-51" cx="168.75" cy="123.52" rx="5.35" ry="7.21" transform="translate(-4.8 6.84) rotate(-2.29)"/>
      <path class="cls-46" d="M196.29,117.23s-3.27,21.19-4.35,22.64-31.74,3.86-31.74,3.86"/>
      <g>
        <path class="cls-35" d="M148.93,103.59s8.64,20,12.51,32.36,4.33,22.75,2.4,24.49-8.18,3.25-15.17,2.88-10.55-2.55-10.55-2.55"/>
        <path class="cls-40" d="M148.93,103.59q5.11,9.57,9.45,19.51c1.43,3.32,2.84,6.66,4.09,10.09a91.71,91.71,0,0,1,3.24,10.54,55.52,55.52,0,0,1,1.66,11.12,24.71,24.71,0,0,1-.08,3l-.12.81a5.82,5.82,0,0,1-.18.86,6,6,0,0,1-.89,2.06,7.17,7.17,0,0,1-.53.63,4.84,4.84,0,0,1-.44.37,7.06,7.06,0,0,1-.82.56,12,12,0,0,1-1.53.74,21.46,21.46,0,0,1-2.92.92,36.59,36.59,0,0,1-11.45.66,19.75,19.75,0,0,1-5.57-1.36,11.75,11.75,0,0,1-4.72-3.33c3.82.3,7.12.34,10.54.39a38,38,0,0,0,5.09-.25,32.55,32.55,0,0,0,4.92-.89,16.58,16.58,0,0,0,2.22-.73,7.08,7.08,0,0,0,.89-.44,2.31,2.31,0,0,0,.3-.2l.08-.06a.24.24,0,0,0-.11.1c-.06.09.08-.13.13-.42a2.27,2.27,0,0,0,.1-.46l.09-.52a22.87,22.87,0,0,0,.15-2.39,40.69,40.69,0,0,0-.29-5.1c-.19-1.72-.43-3.45-.75-5.18-1.23-6.9-3.47-13.69-5.71-20.52Z"/>
      </g>
      <path class="cls-52" d="M165.87,169.8s-1.32,16.53-15.81,17.42c-19.52,1.2-25.45-19.56-25.45-19.56"/>
      <path class="cls-53" d="M157.43,184.46s-4.21,2.68-11.2,2.15-12.83-6-12.83-6a38.71,38.71,0,0,1,12.6-.79A28.84,28.84,0,0,1,157.43,184.46Z"/>
      <path class="cls-48" d="M165.87,169.8s-1.58,4.76-2.28,5.39-6.73,3.29-15,3.33c-12.29.06-19.24-3.1-19.24-3.1a39.75,39.75,0,0,1-2.95-4.33,35.64,35.64,0,0,1-1.78-4.26s16,4.5,24,4.58A107.63,107.63,0,0,0,165.87,169.8Z"/>
      <g>
        <path class="cls-35" d="M169,167.8a45.84,45.84,0,0,1-18.63,4.34c-16.88.46-27.42-5.35-27.42-5.35"/>
        <path class="cls-54" d="M169.31,168.42a39.13,39.13,0,0,1-11.38,4.22,45.56,45.56,0,0,1-6,.86c-1,.08-2,.11-3,.12s-2,0-3,0a59,59,0,0,1-12-1.61c-2-.5-3.9-1.07-5.81-1.77a36.18,36.18,0,0,1-5.55-2.6l.93-1.68a45.89,45.89,0,0,0,5.42,1.9c1.85.55,3.73,1,5.63,1.4a76.42,76.42,0,0,0,11.51,1.36,58.81,58.81,0,0,0,11.53-.5,52.24,52.24,0,0,0,11.18-2.92Z"/>
      </g>
      <path class="cls-40" d="M126,163l-1.63,2.54a19.72,19.72,0,0,0-1.26,2.26,18.16,18.16,0,0,0-.92,2.4c-.26.87-.5,1.78-.76,2.88a5,5,0,0,1-1.32-3,6.46,6.46,0,0,1,.59-3.36,6.64,6.64,0,0,1,2.19-2.6A5.54,5.54,0,0,1,126,163Z"/>
      <g class="cls-44">
        <path class="cls-40" d="M158.14,189.41a9.05,9.05,0,0,1-3.18,3.9,11.05,11.05,0,0,1-9.95,1.53,9.6,9.6,0,0,1-4.25-2.68,45.63,45.63,0,0,0,4.67.55,20.25,20.25,0,0,0,4.31-.17,19.77,19.77,0,0,0,4.16-1.13A32.68,32.68,0,0,0,158.14,189.41Z"/>
      </g>
      <path class="cls-40" d="M91.09,169.84A34.41,34.41,0,0,0,95,182.5a30.72,30.72,0,0,0,8.42,9.92,34.7,34.7,0,0,0,11.9,5.21,85.78,85.78,0,0,0,13.08,2.11,234.75,234.75,0,0,0,26.71.57,100.6,100.6,0,0,0,13.22-1.55,128.22,128.22,0,0,0,13.05-3,74.9,74.9,0,0,1-12.78,4.3,76.55,76.55,0,0,1-13.39,2c-4.52.25-9,.35-13.49.38a133.75,133.75,0,0,1-13.52-.53,77.84,77.84,0,0,1-13.41-2.29,34.66,34.66,0,0,1-12.43-5.82A30.11,30.11,0,0,1,94,183a31.51,31.51,0,0,1-2.19-6.44A28,28,0,0,1,91.09,169.84Z"/>
      <path class="cls-55" d="M197.54,119.83l-25.74,1.85c-8.58.63-17.16,1.2-25.73,1.88q-25.7,2.06-51.33,4.88l-.45-4q25.73-2.81,51.48-4.78c8.59-.66,17.18-1.22,25.77-1.83l25.77-1.8Z"/>
      <path class="cls-46" d="M146.48,122s-1.71,20.1-3.82,22.17S108,149,104.88,148.36s-9.31-23.18-9.31-23.18"/>
      <polygon class="cls-55" points="160.28 128.7 146.73 130.11 146.51 127.56 160.11 126.71 160.28 128.7"/>
      <polygon class="cls-38" points="270.23 339.71 249.75 367.63 244.9 363.94 266.33 336.75 270.23 339.71"/>
      <path class="cls-56" d="M406.58,162.6c-.5.89-2,.76-3.45-.29s-2.13-2.64-1.62-3.53,2-.76,3.45.29S407.08,161.71,406.58,162.6Z"/>
    </g>
  </g>
</svg>
