<svg xmlns="http://www.w3.org/2000/svg" width="369.04" height="524.72" viewBox="0 0 369.04 524.72">
  <defs>
    <style>
      .cls-1 {
        isolation: isolate;
      }

      .cls-2 {
        fill: #263438;
      }

      .cls-3 {
        fill: #1a2326;
      }

      .cls-4 {
        fill: #3c5968;
      }

      .cls-5 {
        fill: #3b5b66;
      }

      .cls-6 {
        fill: #2b4c57;
      }

      .cls-7 {
        fill: #3a4449;
      }

      .cls-8 {
        fill: #40606d;
      }

      .cls-9 {
        fill: #42626d;
      }

      .cls-10 {
        fill: #2f545e;
      }

      .cls-11 {
        fill: #b6e0ef;
      }

      .cls-12 {
        fill: #2483c5;
      }

      .cls-13 {
        opacity: 0.6;
      }

      .cls-14 {
        fill: #405e6b;
      }

      .cls-15 {
        opacity: 0.7;
      }

      .cls-16, .cls-41 {
        fill: #536872;
      }

      .cls-16 {
        opacity: 0.18;
      }

      .cls-17 {
        fill: #755946;
      }

      .cls-18 {
        fill: #f1b291;
      }

      .cls-19, .cls-38, .cls-43, .cls-44, .cls-45, .cls-46 {
        fill: none;
      }

      .cls-19 {
        stroke: #353e45;
        stroke-width: 3px;
      }

      .cls-19, .cls-38, .cls-41, .cls-43, .cls-44, .cls-45, .cls-46 {
        stroke-miterlimit: 10;
      }

      .cls-20 {
        fill: #a7755c;
      }

      .cls-21 {
        fill: #f7f5f5;
      }

      .cls-22 {
        fill: #684f3c;
      }

      .cls-23 {
        fill: #5b422a;
      }

      .cls-24 {
        fill: #1b6087;
      }

      .cls-25 {
        fill: #a77056;
      }

      .cls-26 {
        fill: #65262d;
        opacity: 0.9;
      }

      .cls-27 {
        fill: #cb5b65;
        opacity: 0.84;
      }

      .cls-28 {
        fill: #915a46;
      }

      .cls-29 {
        opacity: 0.8;
      }

      .cls-30 {
        fill: #353e45;
      }

      .cls-31, .cls-32 {
        fill: #34494f;
      }

      .cls-31 {
        opacity: 0.54;
      }

      .cls-33 {
        fill: #c9d1d3;
      }

      .cls-34 {
        fill: #d3dadd;
      }

      .cls-35 {
        fill: #d3aeae;
      }

      .cls-36 {
        fill: #adbabc;
      }

      .cls-37 {
        fill: #456572;
      }

      .cls-38 {
        stroke: #a77056;
      }

      .cls-39 {
        fill: #edc932;
      }

      .cls-40 {
        fill: #eff4f4;
      }

      .cls-41 {
        stroke: #405a63;
        stroke-width: 1.03px;
      }

      .cls-41, .cls-47 {
        opacity: 0.3;
      }

      .cls-42 {
        mix-blend-mode: multiply;
      }

      .cls-43 {
        stroke: #2582c5;
      }

      .cls-43, .cls-44, .cls-45, .cls-46 {
        stroke-width: 1.18px;
      }

      .cls-44 {
        stroke: #e51a60;
      }

      .cls-45 {
        stroke: #75b747;
      }

      .cls-46 {
        stroke: #f6a31f;
      }

      .cls-48 {
        fill: #516672;
      }
    </style>
  </defs>
  <g class="cls-1">
    <g id="Ebene_1" data-name="Ebene 1">
      <path class="cls-2" d="M249.61,164.55c47,1.47,62.67,31.19,67.7,80S351.24,395.47,348.11,405s-34.51,15.75-34.51,15.75l.74-12.36A37.46,37.46,0,0,0,292.19,404C280,405.65,266,408.25,258,407.91s-13.82-12.12-22.74-12-21.46,9.38-36,9.14S177,395,167.09,395.15a27.07,27.07,0,0,0-16.35,6s5.58-63.88,28.91-128.67C191.34,240,189.92,162.67,249.61,164.55Z"/>
      <path class="cls-3" d="M313.6,420.77l.09-29.14c.07-9.73,0-19.36-.47-29q-.3-7.26-.77-14.51c-.26-4.84-.63-9.68-.95-14.51l-2.16-29.06c2,9.53,3.38,19.17,4.51,28.83l.43,3.63.36,3.63c.25,2.42.45,4.85.67,7.27.39,4.86.68,9.72.91,14.59l.22,7.31c0,2.43.07,4.87.06,7.31-.1,4.89-.21,9.75-.49,14.61C315.52,401.4,314.82,411.11,313.6,420.77Z"/>
      <path class="cls-4" d="M184.31,328.53l-.45,29s28.32,12.43,59.75,16.91,51.48,1.79,51.48,1.79l2.6-39Z"/>
      <path class="cls-5" d="M194.1,183l-10.5,2.73s-11,63-28.84,81.66c-8.1,8.47-36.5-2.74-36.5-2.74s-4.54,5.54-7.82,18.9c-2.52,11.84,1,20.24,1,20.24s40.93,12,63.7-8.4c24.52-22,30.6-81.67,30.6-81.67Z"/>
      <path class="cls-6" d="M181.62,219.7q-.13,10.37-.69,20.69c-.35,6.88-.82,13.75-1.31,20.63s-1.11,13.73-1.78,20.61-1.43,13.72-2.36,20.56q.11-10.37.63-20.68c.31-6.88.79-13.76,1.29-20.64s1.1-13.75,1.8-20.61S180.67,226.54,181.62,219.7Z"/>
      <path class="cls-7" d="M307.12,477.3A50.76,50.76,0,0,1,313.79,488a31.17,31.17,0,0,1,2.24,9.12s-9.27,5.19-25.73,7.78a135,135,0,0,1-35.09,1s2-6.91,14-14c8.28-4.89,22.18-10.29,22.18-10.29"/>
      <path class="cls-7" d="M218.86,470.45s4.32,5.88,6.15,11.13a31.18,31.18,0,0,1,1.74,9.27s-8.7,3.42-25.52,4.82a195.86,195.86,0,0,1-36.55-.44s2.42-6.76,15-13c8.66-4.29,23-8.67,23-8.67"/>
      <path class="cls-4" d="M184.24,354.86s-1.34,31.77-.7,55.13c.62,22.45,7.15,65.73,7.15,65.73a89.73,89.73,0,0,0,17.7.58,116.68,116.68,0,0,0,17.08-2.84s-5.34-39.27-5.91-62.38c-.57-18,.15-43,.15-43"/>
      <path class="cls-8" d="M186.42,185.21s28.22-11.52,67.89-8.7c40.6,2.87,68.57,14.43,68.57,14.43s-13.6,79-14.15,112,.9,58.5.9,58.5-32,8.95-81.5,3.87c-39.33-4-58.49-10.6-58.49-10.6s3.56-34.82,9.15-86.48c2.61-24.19,5.1-65.49,5.1-65.49"/>
      <path class="cls-4" d="M255.82,370.83s3.46,29.21,7.73,52.95c2.3,18.43,14.29,61.1,14.29,61.1a138.93,138.93,0,0,0,16.69-1,70.32,70.32,0,0,0,18.09-4.68s-10.7-39.4-13-58.07a527.07,527.07,0,0,1-4.54-52.93"/>
      <g>
        <polyline class="cls-8" points="257.96 316.58 259.68 331.33 302.18 331.4 301.2 318.77"/>
        <path class="cls-6" d="M258,316.58l2.8,14.63-1.08-1c3.55-.06,7.09-.05,10.63,0l10.62.14c7.09.18,14.17.31,21.25.54l-.49.54-.27-6.33-.22-6.34.76,6.3.72,6.29.06.52-.56,0c-7.08.21-14.17.31-21.25.47l-10.62.1c-3.55,0-7.09,0-10.63-.06l-1,0,0-.93Z"/>
      </g>
      <g>
        <path class="cls-9" d="M226.24,297.28s19.77-15.72,30-25.7,20-25.22,20-25.22l-14-9.77,17.5-.48s11.06-34.48,9.83-48c-.7-7.72-8.48-15.26-8.48-15.26l-60.49-1.6s-8.27,10.48-10.53,14.23-10.31,37.73-10.31,37.73l12.74,6-13,3.73s2.47,18.51,6.2,30.76,14.45,32,14.45,32"/>
        <path class="cls-10" d="M225.87,296.82q7-5.65,13.79-11.48c4.54-3.88,9.05-7.81,13.39-11.9,2.17-2.05,4.27-4.12,6.25-6.33s3.88-4.5,5.72-6.84c3.66-4.67,7.13-9.55,10.35-14.53h0l.3,1.55-13.91-9.87h0l-2.47-1.75,3-.1,17.5-.59-1.05.79c1.66-5.29,3.2-10.65,4.62-16s2.7-10.79,3.72-16.23c.51-2.72.95-5.45,1.23-8.18a33.36,33.36,0,0,0,.08-8,20.56,20.56,0,0,0-3-7.28,37.58,37.58,0,0,0-5-6.34l.76.32-60.49-1.6h0l.92-.43c-2.94,3.69-5.87,7.42-8.64,11.22-.67.95-1.37,1.92-1.95,2.86a22.93,22.93,0,0,0-1.22,3.11c-.74,2.22-1.41,4.49-2.06,6.76-2.58,9.09-4.92,18.28-7.2,27.47h0l-.37-.77L213,228.35h0l2.46,1.09-2.61.78-13,3.86h0l.81-1.25c.72,5.47,1.59,10.94,2.62,16.37a135.46,135.46,0,0,0,3.87,16.05,153.3,153.3,0,0,0,6.23,15.33c2.31,5,4.77,10,7.33,14.9l-1.06.57q-4-7.32-7.61-14.84a151.73,151.73,0,0,1-6.55-15.4c-.94-2.65-1.66-5.35-2.34-8.06s-1.29-5.43-1.85-8.16c-1.12-5.46-2.08-10.93-2.89-16.46l-.15-1,1-.26h0l13-3.6-.15,1.87h0l-12.6-6.31-.49-.25.12-.52h0c2.14-9.25,4.33-18.47,6.77-27.65.62-2.29,1.25-4.58,2-6.87a22.09,22.09,0,0,1,1.34-3.51c.64-1.09,1.31-2.05,2-3,2.75-3.91,5.61-7.68,8.51-11.45l.35-.45.58,0h0l60.49,1.6h.46l.31.31a39.86,39.86,0,0,1,5.35,6.76,22.74,22.74,0,0,1,3.31,8.11,35.71,35.71,0,0,1,0,8.65c-.29,2.82-.75,5.6-1.26,8.37-1,5.52-2.34,11-3.76,16.38s-3,10.79-4.66,16.14l-.24.77-.81,0-17.5.35.55-1.85h0L277,245.43l.91.62-.6.92h0q-5,7.54-10.7,14.55-2.85,3.51-5.9,6.85c-2.05,2.21-4.24,4.32-6.45,6.34-4.45,4.05-9,7.92-13.64,11.74s-9.27,7.58-14,11.29Z"/>
      </g>
      <path class="cls-11" d="M224.59,288.94s19.36-19.63,34.08-52.61c11.26-25.22,17.09-52.64,17.09-52.64l-55.33-1.76s-6.28,26-6.08,48.66A185.69,185.69,0,0,0,224.59,288.94Z"/>
      <path class="cls-12" d="M237.35,189.08l-8.65,12.53s2,2.34,7,2.68a21.36,21.36,0,0,0,8.67-1.15l-5.31-13.93Z"/>
      <g class="cls-13">
        <path class="cls-14" d="M218.08,195.12a25.69,25.69,0,0,0,3.82,4.12c1.43,1.29,3,2.53,4.53,3.68h0l-1.43.29L237.14,184l1.62-2.56,1,2.83,8.1,22.26-1-.51h0c2.34-.61,4.7-1.34,7-2.14s4.59-1.67,6.83-2.64a43.68,43.68,0,0,0,6.36-3.34,31.62,31.62,0,0,0,5.49-4.38l2.18,2.06a33.94,33.94,0,0,1-6.26,4.61,43.15,43.15,0,0,1-6.88,3.25c-2.34.9-4.72,1.67-7.11,2.38s-4.79,1.32-7.26,1.84h0l-.67.17-.29-.68L237,185.35l2.65.27-12.93,18.72-.59.86-.83-.57h0c-1.74-1.08-3.39-2.21-5-3.45a27.92,27.92,0,0,1-4.61-4.28Z"/>
      </g>
      <path class="cls-12" d="M232.86,204.39s-8.11,25.85-10,37.35-3.32,31.19-3.32,31.19l4.87,16L237,274.13l2-32.83-.31-36.65Z"/>
      <g>
        <polyline class="cls-8" points="196.22 308.48 192.2 322.97 169.95 318.43 174.97 305.94"/>
        <path class="cls-6" d="M196.22,308.48l-2.95,14.79-.2,1-1.1-.21q-2.79-.53-5.56-1.14l-5.53-1.26-11-2.65-.71-.17.28-.63q2.75-6.15,5.56-12.27c-1.46,4.25-3,8.48-4.47,12.71l-.43-.79,11.2,1.89,5.59,1c1.86.35,3.71.72,5.56,1.13l-1.3.79Z"/>
      </g>
      <g class="cls-15">
        <path class="cls-8" d="M224,290s-2.05,30.5-2.32,44.75.2,29,.2,29"/>
        <path class="cls-6" d="M224.5,290.06c-.67,12.27-1.3,24.56-1.69,36.85-.21,6.13-.23,12.26-.15,18.41s.23,12.28.47,18.41l-2.5.08q-.18-9.26-.1-18.49c.05-6.16.19-12.33.53-18.49.64-12.3,1.52-24.57,2.44-36.84Z"/>
      </g>
      <path class="cls-6" d="M248.1,374.76a126.6,126.6,0,0,1-13.76-1c-4.56-.54-9.1-1.31-13.61-2.26-2.24-.52-4.51-1-6.72-1.72s-4.42-1.39-6.56-2.26A77.41,77.41,0,0,1,195,361.45q6.47,2.42,13,4.47c4.36,1.35,8.72,2.53,13.18,3.46s8.93,1.84,13.41,2.72S243.59,373.81,248.1,374.76Z"/>
      <path class="cls-6" d="M220.11,373.58a21,21,0,0,1-5.54,1.4,29.8,29.8,0,0,1-5.67.14,23.66,23.66,0,0,1-5.61-1.12,19,19,0,0,1-5.15-2.5,54.08,54.08,0,0,1,5.61.19l5.38.44c1.78.14,3.61.28,5.43.5A44.76,44.76,0,0,1,220.11,373.58Z"/>
      <polygon class="cls-16" points="197.43 208.16 195.06 208.1 194.85 210.59 196.88 210.54 197.43 208.16"/>
      <path class="cls-10" d="M262.8,273.23a39.52,39.52,0,0,1,2,8.91,38.79,38.79,0,0,1,0,9.2,62.93,62.93,0,0,1-1.87,9,42.92,42.92,0,0,1-3.3,8.49c.78-2.93,1.38-5.87,1.91-8.81s1-5.92,1.33-8.85a74.62,74.62,0,0,0,.24-8.86C263.05,279.27,262.88,276.28,262.8,273.23Z"/>
      <path class="cls-17" d="M215,41.79s-16.56,18.88-17.6,32.71c-.75,10.08,2.15,26.92,2.15,26.92l25.84-57.17Z"/>
      <path class="cls-18" d="M289.43,159.59s-1.86,14.83-15.37,22.32c-18.94,10.52-70.74,7.17-78.12-.45-6.42-6.61-4.83-49.56,3-86.77,6.16-29.27,21.69-55.2,21.69-55.2s28.7-6.49,52.43-2.72a84.24,84.24,0,0,1,33.76,13.77L292.64,144.4"/>
      <path class="cls-17" d="M295.29,50.39S288.56,65.76,288,78.8c-.5,11.27,1,37.76,1,37.76a104,104,0,0,0-7.11,12.63c-3.8,8.71-1.45,15.35-1.45,15.35l14.38-17-7,38.16s7.47-.88,11.24-10.09,17.16-45.7,19.2-59.33c1.09-7.24,4-42.89.21-49.33a11.44,11.44,0,0,0-7.28-5.37,16.46,16.46,0,0,0-12.27-14.39c-17.28-5.11-56.12-5-70.91-1.32-11.37,2.84-27.06,18.92-27.06,18.92s15.18,3,22.88,1.82,28.16-7.22,28.16-7.22-12.44,6.15-16.09,8.35S225.49,56,225.49,56s14.76-.26,19.71-1.27,24.8-9.3,24.8-9.3-7.77,4.66-11.39,7.1a61.2,61.2,0,0,0-7,5.62s13.61,1.8,23.77-.23S295.29,50.39,295.29,50.39Z"/>
      <line class="cls-19" x1="283.08" y1="120.87" x2="300.87" y2="126.12"/>
      <path class="cls-18" d="M286.05,138s6.75-14.62,17.21-15.66c14.78-1.47,9.05,29.26-1,34.35-8.78,4.46-14.24.49-14.24.49"/>
      <path class="cls-20" d="M289.71,145.8a18.27,18.27,0,0,1,2-6.46,18,18,0,0,1,4.35-5.48,12.38,12.38,0,0,1,3.11-2,11.8,11.8,0,0,1,1.75-.64,10.72,10.72,0,0,1,1.87-.3c2.5-.21,5.3.74,6.53,2.89a11.94,11.94,0,0,0-5.91.55,18.15,18.15,0,0,0-2.54,1.09,15.41,15.41,0,0,0-2.4,1.44,33.94,33.94,0,0,0-4.45,4C292.62,142.49,291.21,144.1,289.71,145.8Z"/>
      <path class="cls-21" d="M276.31,115.89c-.86,7.78-7.17,12.88-15.39,12.13a13.65,13.65,0,0,1-12.45-15.18,14,14,0,1,1,27.84,3Z"/>
      <path class="cls-21" d="M223.63,112.06c-1.36,7.6-6.16,13-13.8,12.27-7.17-.68-11.8-7.4-11.26-15.1.58-8.17,7.07-13.08,14.23-12.29S224.89,105,223.63,112.06Z"/>
      <path class="cls-22" d="M245.42,91.11s10.83-.89,19.84,2.31a42.12,42.12,0,0,1,14.81,9.25l.11-4.18s-2.35-7.7-13.73-11.44c-9.82-3.24-19.77-.67-19.77-.67Z"/>
      <path class="cls-23" d="M252.33,104.1a10.23,10.23,0,0,1,6.1-4.5,14,14,0,0,1,7.84.18,14.26,14.26,0,0,1,6.63,4.16,11.51,11.51,0,0,1,3,7,19.5,19.5,0,0,0-4.63-5.24,17.9,17.9,0,0,0-5.86-3,17,17,0,0,0-6.52-.75A15.22,15.22,0,0,0,252.33,104.1Z"/>
      <path class="cls-23" d="M199.46,104.68a8.73,8.73,0,0,1,3.58-6,13.43,13.43,0,0,1,6.71-2.59,12,12,0,0,1,7.15,1.08,9.29,9.29,0,0,1,4.64,5.2,12.53,12.53,0,0,0-5.38-3.42,13.35,13.35,0,0,0-6.07-.3,18,18,0,0,0-5.89,1.79A12.84,12.84,0,0,0,199.46,104.68Z"/>
      <path class="cls-22" d="M225.86,90.46a33.55,33.55,0,0,0-14.07-.8A36.48,36.48,0,0,0,197.6,95l.77-3.65s4.41-6.16,11.85-7.46a26.44,26.44,0,0,1,15.58,2Z"/>
      <ellipse class="cls-24" cx="261.92" cy="115.36" rx="7.42" ry="5.83" transform="translate(139.52 374.06) rotate(-88.45)"/>
      <ellipse class="cls-24" cx="211.31" cy="110.96" rx="7.21" ry="5.35" transform="translate(92 317.66) rotate(-87.71)"/>
      <path class="cls-19" d="M183.77,104.66s3.27,21.19,4.35,22.64,31.74,3.86,31.74,3.86"/>
      <g>
        <path class="cls-18" d="M231.13,91s-8.64,20-12.51,32.36-4.32,22.75-2.4,24.49,8.18,3.24,15.17,2.88,10.55-2.55,10.55-2.55"/>
        <path class="cls-25" d="M231.13,91l-6.83,20.51c-2.23,6.84-4.48,13.62-5.71,20.52-.31,1.73-.56,3.46-.74,5.18a40.3,40.3,0,0,0-.3,5.1c0,.83.07,1.64.15,2.39l.09.52a1.75,1.75,0,0,0,.1.46c.05.29.19.51.13.42a.22.22,0,0,0-.11-.1l.08.06a2.72,2.72,0,0,0,.3.19,6.68,6.68,0,0,0,.89.45,16,16,0,0,0,2.22.73,31.29,31.29,0,0,0,4.91.88,37.57,37.57,0,0,0,5.09.26c3.42-.05,6.72-.08,10.54-.39a11.8,11.8,0,0,1-4.72,3.34,20.07,20.07,0,0,1-5.58,1.36,36.86,36.86,0,0,1-11.44-.66,21.78,21.78,0,0,1-2.92-.92,11.3,11.3,0,0,1-1.54-.74,6.68,6.68,0,0,1-.82-.56,4.12,4.12,0,0,1-.44-.37A7.91,7.91,0,0,1,214,149a6.21,6.21,0,0,1-.89-2.06,6.31,6.31,0,0,1-.18-.86l-.12-.81a25.6,25.6,0,0,1-.08-3,55.44,55.44,0,0,1,1.66-11.12,91.81,91.81,0,0,1,3.24-10.54c1.25-3.43,2.66-6.76,4.09-10.09Q226,100.59,231.13,91Z"/>
      </g>
      <path class="cls-26" d="M214.19,157.24s1.31,16.52,15.8,17.41c19.52,1.21,25.46-19.56,25.46-19.56"/>
      <path class="cls-27" d="M222.63,171.89s4.22,2.69,11.2,2.16,12.83-6,12.83-6a38.75,38.75,0,0,0-12.6-.79A28.9,28.9,0,0,0,222.63,171.89Z"/>
      <path class="cls-21" d="M214.19,157.24s1.58,4.75,2.28,5.38,6.73,3.29,15,3.33c12.29.07,19.24-3.1,19.24-3.1a39.64,39.64,0,0,0,2.95-4.32,36.13,36.13,0,0,0,1.78-4.27s-15.95,4.5-24,4.58A108.14,108.14,0,0,1,214.19,157.24Z"/>
      <g>
        <path class="cls-18" d="M211.08,155.23a45.8,45.8,0,0,0,18.63,4.34c16.88.46,27.42-5.36,27.42-5.36"/>
        <path class="cls-28" d="M211.41,154.61a52.27,52.27,0,0,0,11.18,2.92,59.15,59.15,0,0,0,11.53.5,76.75,76.75,0,0,0,11.51-1.36c1.89-.38,3.77-.84,5.62-1.39a46.2,46.2,0,0,0,5.42-1.91l.93,1.68a35.75,35.75,0,0,1-5.55,2.6c-1.91.69-3.85,1.27-5.81,1.77a59.31,59.31,0,0,1-12,1.61c-1,.05-2,0-3,0s-2,0-3-.11a46.81,46.81,0,0,1-6-.86,39.15,39.15,0,0,1-11.38-4.22Z"/>
      </g>
      <path class="cls-25" d="M254.07,150.43a5.5,5.5,0,0,1,3.11,1.07,6.63,6.63,0,0,1,2.19,2.6,6.53,6.53,0,0,1,.59,3.36,5,5,0,0,1-1.32,3c-.26-1.1-.5-2-.76-2.89a17.72,17.72,0,0,0-.92-2.39A19.84,19.84,0,0,0,255.7,153Z"/>
      <g class="cls-29">
        <path class="cls-25" d="M221.92,176.84a34.92,34.92,0,0,0,4.22,2,19,19,0,0,0,8.48,1.29,45.71,45.71,0,0,0,4.67-.55,9.65,9.65,0,0,1-4.24,2.68,11.23,11.23,0,0,1-5.16.43,11.09,11.09,0,0,1-4.79-2A9,9,0,0,1,221.92,176.84Z"/>
      </g>
      <path class="cls-25" d="M289,157.28a27.64,27.64,0,0,1-.74,6.7,31.53,31.53,0,0,1-2.18,6.44,30.2,30.2,0,0,1-8.33,10.82,34.63,34.63,0,0,1-12.43,5.82,77.86,77.86,0,0,1-13.41,2.29,132.85,132.85,0,0,1-13.52.53c-4.5,0-9-.13-13.49-.38a76.39,76.39,0,0,1-13.39-2,75.41,75.41,0,0,1-12.79-4.3,129.24,129.24,0,0,0,13.06,3A99.88,99.88,0,0,0,225,187.73a235.5,235.5,0,0,0,26.71-.56,87,87,0,0,0,13.08-2.11,34.83,34.83,0,0,0,11.9-5.21,30.67,30.67,0,0,0,8.42-9.91A34.45,34.45,0,0,0,289,157.28Z"/>
      <path class="cls-30" d="M182.76,103.51l25.77,1.79c8.59.61,17.18,1.17,25.77,1.83,17.18,1.34,34.33,2.9,51.48,4.78l-.45,4Q259.73,113,234,111c-8.56-.68-17.15-1.25-25.73-1.88l-25.74-1.86Z"/>
      <path class="cls-19" d="M233.59,109.42s1.71,20.1,3.82,22.16,34.63,4.88,37.77,4.21,9.31-23.18,9.31-23.18"/>
      <polygon class="cls-30" points="219.95 114.14 233.55 114.99 233.33 117.54 219.78 116.13 219.95 114.14"/>
      <path class="cls-18" d="M124.42,280.72s.6,15.14-12.94,19.52c-8.81,2.85-15.73-8.56-13.74-17.32s9-14.74,9-14.74Z"/>
      <path class="cls-2" d="M37.48,272.27s-.78,16.7-3.65,30-9.65,30-9.65,30,4.45,13.24,34.72,20.29,41.73-1.5,41.73-1.5,1.3-20.62,3.65-35.49A127.08,127.08,0,0,1,111.59,289Z"/>
      <path class="cls-31" d="M54.85,284.11s-3,17.17-6,28.73-10.57,31.38-10.57,31.38a62.51,62.51,0,0,0,10.9,5c5.29,1.65,11.89,3,11.89,3s4-22.46,6.94-34.35S75,292,75,292Z"/>
      <path class="cls-32" d="M65.46,290.15c45,13.29,65.69,4.08,71-1.22s-15.51-23.26-49-32.65-64.87-7.75-70.58,0S29.55,279.54,65.46,290.15Z"/>
      <path class="cls-3" d="M38.94,262.4c-4.76,3.46,13.46,12.24,32.23,18s39.17,6.93,44.89,3.67S100.55,271,81,265.67,43.43,259.14,38.94,262.4Z"/>
      <path class="cls-33" d="M59.62,275.84a203.32,203.32,0,0,0,.19-21.69c-.46-11.79-6-43.13.17-43.37,7.78-.32,13.53,26.53,15,38.92s-.86,30.95-.86,30.95-4.76-1.11-7.45-1.86A54,54,0,0,1,59.62,275.84Z"/>
      <path class="cls-34" d="M72.58,280.16a237.08,237.08,0,0,1,10.35-29C89.34,236.59,99.48,222,108,223.48c5.87,1.06-2.76,17-9.48,36.89-3.29,9.74-7,24.19-7,24.19a92.36,92.36,0,0,1-9.6-1.7C78.09,282,72.58,280.16,72.58,280.16Z"/>
      <path class="cls-35" d="M79.14,282s3.84-13.41,7.62-22.38c6.17-14.64,11.45-22.79,14.42-22.57,1.68.13-7.73,21.69-10.46,30.17a170.63,170.63,0,0,0-4.48,16.48A41.72,41.72,0,0,1,79.14,282Z"/>
      <path class="cls-36" d="M71.32,279.8c1-2.84,2.05-5.59,3.18-8.34s2.35-5.44,3.64-8.1q-1.47,4.18-2.69,8.43c-.82,2.83-1.57,5.7-2.2,8.54Z"/>
      <path class="cls-3" d="M34.41,278a123.19,123.19,0,0,0,12.22,5.7c4.15,1.71,8.37,3.23,12.64,4.63s8.57,2.61,12.93,3.66,8.73,2,13.15,2.62A129.74,129.74,0,0,0,98.69,296a127.62,127.62,0,0,0,13.41.13,65.35,65.35,0,0,0,6.63-.56c2.18-.41,4.38-.91,6.53-1.49a48.44,48.44,0,0,0,6.36-2.13,20.94,20.94,0,0,0,3-1.53,5.75,5.75,0,0,0,2.34-2.32,5.94,5.94,0,0,1-2.17,2.57,20.62,20.62,0,0,1-2.93,1.75,48.31,48.31,0,0,1-6.29,2.58c-2.16.72-4.34,1.31-6.56,1.85a64,64,0,0,1-6.8.83,120.27,120.27,0,0,1-27.14-1.12,142.42,142.42,0,0,1-26.29-6.79A118.53,118.53,0,0,1,34.41,278Z"/>
      <path class="cls-18" d="M123.82,272.36s2.2-9-6-13.14c-4.35-2.23-19.11,5.77-14.53,10,4.88,4.46,14.33-.8,14.33-.8A28.28,28.28,0,0,1,123.82,272.36Z"/>
      <path class="cls-2" d="M129.5,187.23s25.93,53.69,38.88,77.75c18.39,34.14,29.47,51.92,29.47,51.92l6.08-3.3S189.45,289,175,261.68s-37.87-78.52-37.87-78.52S134.31,183.67,129.5,187.23Z"/>
      <path class="cls-18" d="M207,272.48s-7-11.39-15.25-12.3-14.34,6.38-14.34,6.38-15.48,5.23-15,14.11,8.88,3.87,8.88,3.87.45,10.24,7.74,16.85,21.85.91,25.95-1.37S210.17,276.12,207,272.48Z"/>
      <path class="cls-37" d="M322.88,190.94c2.88,13.88-6.6,77.34-30.91,101S208.3,302.7,208.3,302.7s.95-11.37.64-19.89a57.88,57.88,0,0,0-3.79-17.05s40.73,12.94,61.56-1.27,24.41-37.58,27.79-46.73C299.87,203.24,322.42,188.68,322.88,190.94Z"/>
      <path class="cls-10" d="M208.44,301.92c5.48.72,11,1.28,16.56,1.61s11.08.58,16.62.51a157,157,0,0,0,16.53-1,82.09,82.09,0,0,0,16.05-3.46,48.8,48.8,0,0,0,7.46-3.22,51.9,51.9,0,0,0,6.8-4.49,60.83,60.83,0,0,0,6.05-5.53,76.56,76.56,0,0,0,5.3-6.31,85.16,85.16,0,0,0,8.51-14.2,98.51,98.51,0,0,0,6.07-15.52,88.09,88.09,0,0,1-13.1,30.78,60.72,60.72,0,0,1-11.36,12.61,52.74,52.74,0,0,1-7.05,4.85,51.74,51.74,0,0,1-7.82,3.53,82.65,82.65,0,0,1-16.58,3.67,132.06,132.06,0,0,1-16.85.91,188.65,188.65,0,0,1-33.46-3.17Z"/>
      <path class="cls-10" d="M205.15,265.76c4.57,1.09,9.18,2,13.82,2.68s9.29,1.2,14,1.44a92.75,92.75,0,0,0,13.95-.27,52.74,52.74,0,0,0,13.48-3,36.39,36.39,0,0,0,6.14-3c.48-.29.93-.64,1.4-1a13.36,13.36,0,0,0,1.37-1l2.68-2.21a67.35,67.35,0,0,0,9.35-10.25,65.85,65.85,0,0,0,7-12.07,60.79,60.79,0,0,0,4.31-13.34,59.25,59.25,0,0,1-10,26.31,64,64,0,0,1-9.37,10.76l-2.74,2.31a12.91,12.91,0,0,1-1.43,1.1c-.5.35-1,.72-1.49,1a37.39,37.39,0,0,1-6.49,3.23,53.34,53.34,0,0,1-14,3,84.51,84.51,0,0,1-14.23-.06A121.57,121.57,0,0,1,205.15,265.76Z"/>
      <path class="cls-38" d="M169.81,283.84a92.18,92.18,0,0,1,23.83-4"/>
      <path class="cls-38" d="M175.18,295.42c15.16-3.22,20.48-2.71,20.48-2.71"/>
      <path class="cls-33" d="M129.3,187.41l7.93,15.93,7.5-4s-7.63-16.46-7.63-16.21S134.11,182.59,129.3,187.41Z"/>
      <polygon class="cls-39" points="99.77 185.04 89.09 193.9 103.07 194.53 106.91 207.55 111.33 192.57 123.83 195.01 116.52 186.27 125.13 176.62 109.58 179.65 99.84 168 99.77 185.04"/>
      <polygon class="cls-39" points="123.35 148.56 116.03 151.56 123.53 154.29 123.41 162.03 128.36 154.63 135.75 157.99 133.26 151.99 138.03 146.04 129.61 147.3 124.54 138.29 123.35 148.56"/>
      <polygon class="cls-39" points="77.09 176.34 72.44 179.71 78.2 180.35 79.44 185.84 81.67 179.76 87.47 180.87 84.69 177.06 87.04 172.04 81.3 174.37 76.17 168.87 77.09 176.34"/>
      <polygon class="cls-39" points="108.58 127.28 104.74 130.07 109.5 130.6 110.52 135.13 112.36 130.11 117.15 131.03 114.85 127.88 116.79 123.74 112.05 125.66 107.82 121.13 108.58 127.28"/>
      <polygon class="cls-39" points="131.07 169.45 126.94 170.04 130.43 172.4 129.37 176.34 132.85 173.2 136.21 175.87 135.7 172.48 138.91 170.04 134.44 169.61 133 164.34 131.07 169.45"/>
      <polygon class="cls-39" points="85.07 150.3 86.63 159.49 91.7 151.57 100.56 153.71 95.15 146.2 100.98 138.5 92.12 140.13 88.7 132.73 85.24 142.78 75.33 145.73 85.07 150.3"/>
      <polygon class="cls-39" points="153.92 176.6 159.51 183.13 161.15 174.2 169.33 170.18 159.75 167.27 159.98 156.08 153.22 164.71 145.06 161.91 149.72 171.7 143.96 179.34 153.92 176.6"/>
      <polygon class="cls-39" points="143.53 134.58 144.91 139.8 148.28 135.2 154.01 135.16 149.38 130.9 152.58 124.63 146.39 127.66 142.54 123.84 142.5 130.66 137.15 133.4 143.53 134.58"/>
      <polygon class="cls-40" points="260.94 207.62 289.2 214.26 281.85 243.33 254.78 236.24 260.94 207.62"/>
      <line class="cls-41" x1="259.63" y1="233.88" x2="277.89" y2="238.57"/>
      <g class="cls-42">
        <path class="cls-43" d="M262.83,228.45a9.9,9.9,0,0,1-.78-3.63,11.37,11.37,0,0,1,.56-3.81,12.09,12.09,0,0,1,1.86-3.54,11,11,0,0,1,2.64-2.49"/>
        <path class="cls-43" d="M268.47,217.91a6.69,6.69,0,0,0-1.62,1.52,7.52,7.52,0,0,0-1.23,2.35,7.2,7.2,0,0,0-.29,2.41,6.24,6.24,0,0,0,.56,2.3"/>
        <g class="cls-42">
          <path class="cls-44" d="M275.87,219.74a5.38,5.38,0,0,0-.82-1.26,4.66,4.66,0,0,0-2.2-1.37,5,5,0,0,0-2.9.06,6,6,0,0,0-1.48.74"/>
          <path class="cls-44" d="M267.11,215a9.07,9.07,0,0,1,2.25-1.09,8,8,0,0,1,4.46-.18,7.53,7.53,0,0,1,3.68,2.23,8.23,8.23,0,0,1,1.34,2"/>
        </g>
        <g class="cls-42">
          <path class="cls-45" d="M265.89,226.49a5.07,5.07,0,0,0,2.25,2.35,4.67,4.67,0,0,0,2.24.48c.18.57.38,1.14.6,1.74s.51,1.33.77,1.95a8.11,8.11,0,0,1-3.17.12,7.23,7.23,0,0,1-2.7-1,8.09,8.09,0,0,1-1.91-1.76,9.48,9.48,0,0,1-1.15-1.9"/>
          <path class="cls-45" d="M278.84,217.93a9.72,9.72,0,0,1,.92,3.43,11.47,11.47,0,0,1-.38,3.88h0a11.12,11.12,0,0,1-.82,2.16,8.3,8.3,0,0,1-.89,1.36L276,224.89a7.43,7.43,0,0,0,.41-1.89,6.62,6.62,0,0,0-.54-3.26"/>
        </g>
        <path class="cls-46" d="M275.23,234.76a.22.22,0,0,1-.14-.13l-3.72-9.43a.66.66,0,0,1,.28-.79l.76-.46a.53.53,0,0,1,.79.25l3.79,9.53c.34.84.53,1.31.61,1.52a.08.08,0,0,1-.08.11C277.09,235.25,275.73,234.92,275.23,234.76Z"/>
      </g>
      <g class="cls-47">
        <polygon class="cls-48" points="259.61 212.31 254.12 237.08 253.41 235.9 258.06 237.39 257.74 238.66 252.94 237.79 251.95 237.61 252.23 236.61 258.9 212.14 259.61 212.31"/>
      </g>
      <polygon class="cls-16" points="284.1 214.95 286.33 215.66 285.54 218.01 283.66 217.31 284.1 214.95"/>
    </g>
  </g>
</svg>
