<?xml version="1.0" encoding="UTF-8" standalone="no"?>
<svg
   width="428.64"
   height="540"
   viewBox="0 0 428.64 540"
   version="1.1"
   id="svg201"
   sodipodi:docname="Q_zeigestock-02.svg"
   inkscape:version="1.1 (1:1.1+202105261517+ce6663b3b7)"
   xmlns:inkscape="http://www.inkscape.org/namespaces/inkscape"
   xmlns:sodipodi="http://sodipodi.sourceforge.net/DTD/sodipodi-0.dtd"
   xmlns="http://www.w3.org/2000/svg"
   xmlns:svg="http://www.w3.org/2000/svg">
  <sodipodi:namedview
     id="namedview203"
     pagecolor="#ffffff"
     bordercolor="#666666"
     borderopacity="1.0"
     inkscape:pageshadow="2"
     inkscape:pageopacity="0.0"
     inkscape:pagecheckerboard="0"
     showgrid="false"
     inkscape:zoom="1.5851852"
     inkscape:cx="214.17056"
     inkscape:cy="320.46729"
     inkscape:window-width="1920"
     inkscape:window-height="1005"
     inkscape:window-x="0"
     inkscape:window-y="0"
     inkscape:window-maximized="1"
     inkscape:current-layer="svg201" />
  <defs
     id="defs4">
    <style
       id="style2">
      .cls-1 {
        isolation: isolate;
      }

      .cls-2 {
        fill: #3c5968;
      }

      .cls-3 {
        fill: #3b5b66;
      }

      .cls-4 {
        fill: #2b4c57;
      }

      .cls-5 {
        fill: #3a4449;
      }

      .cls-6 {
        fill: #40606d;
      }

      .cls-7 {
        fill: #42626d;
      }

      .cls-8 {
        fill: #2f545e;
      }

      .cls-9 {
        fill: #b6e0ef;
      }

      .cls-10 {
        fill: #2483c5;
      }

      .cls-11 {
        opacity: 0.6;
      }

      .cls-12 {
        fill: #405e6b;
      }

      .cls-13 {
        opacity: 0.7;
      }

      .cls-14 {
        fill: #eff4f4;
      }

      .cls-15, .cls-18 {
        fill: #536872;
      }

      .cls-15 {
        stroke: #405a63;
        stroke-width: 1.04px;
      }

      .cls-15, .cls-21, .cls-30, .cls-42, .cls-43, .cls-44, .cls-45 {
        stroke-miterlimit: 10;
      }

      .cls-15, .cls-16 {
        opacity: 0.3;
      }

      .cls-17 {
        fill: #516672;
      }

      .cls-18 {
        opacity: 0.18;
      }

      .cls-19 {
        fill: #f1b291;
      }

      .cls-20 {
        fill: #6da8b2;
      }

      .cls-21, .cls-30, .cls-42, .cls-43, .cls-44, .cls-45 {
        fill: none;
      }

      .cls-21 {
        stroke: #6eadb7;
      }

      .cls-21, .cls-30 {
        stroke-width: 3px;
      }

      .cls-22 {
        fill: #639ea8;
      }

      .cls-23 {
        opacity: 0.67;
      }

      .cls-24 {
        fill: #a77056;
      }

      .cls-25 {
        opacity: 0.66;
      }

      .cls-26 {
        fill: #456572;
      }

      .cls-27 {
        opacity: 0.77;
      }

      .cls-28 {
        opacity: 0.8;
      }

      .cls-29 {
        fill: #755946;
      }

      .cls-30 {
        stroke: #353e45;
      }

      .cls-31 {
        fill: #a7755c;
      }

      .cls-32 {
        fill: #f7f5f5;
      }

      .cls-33 {
        fill: #684f3c;
      }

      .cls-34 {
        fill: #5b422a;
      }

      .cls-35 {
        fill: #1b6087;
      }

      .cls-36 {
        fill: #65262d;
        opacity: 0.9;
      }

      .cls-37 {
        fill: #cb5b65;
        opacity: 0.84;
      }

      .cls-38 {
        fill: #915a46;
      }

      .cls-39 {
        fill: #353e45;
      }

      .cls-40 {
        fill: #6eadb7;
      }

      .cls-41 {
        mix-blend-mode: multiply;
      }

      .cls-42 {
        stroke: #2582c5;
      }

      .cls-42, .cls-43, .cls-44, .cls-45 {
        stroke-width: 1.2px;
      }

      .cls-43 {
        stroke: #e51a60;
      }

      .cls-44 {
        stroke: #75b747;
      }

      .cls-45 {
        stroke: #f6a31f;
      }
    </style>
  </defs>
  <g
     class="cls-1"
     id="g199"
     transform="matrix(-1,0,0,1,430.19011,0)">
    <g
       id="Ebene_1"
       data-name="Ebene 1">
      <path
         class="cls-2"
         d="m 195.75,341.1 0.45,29 c 0,0 -28.32,12.43 -59.75,16.9 -31.43,4.47 -51.45,1.8 -51.45,1.8 l -2.6,-39 z"
         id="path6" />
      <path
         class="cls-3"
         d="m 185.73,194.66 10.73,3.67 c 0,0 16.81,63.86 29.51,78.14 19.43,21.84 48.61,26.23 48.61,26.23 0,0 0.35,10.93 -1.63,17.65 -2.56,8.69 -8.92,18 -8.92,18 0,0 -37.29,-8.69 -57.06,-32 -21.35,-25.21 -32.69,-80 -32.69,-80 z"
         id="path8" />
      <path
         class="cls-4"
         d="m 198.44,232.27 q 1.42,10.26 2.42,20.56 c 0.7,6.86 1.26,13.73 1.8,20.61 0.54,6.88 1,13.76 1.29,20.64 0.29,6.88 0.56,13.77 0.63,20.68 q -1.4,-10.26 -2.36,-20.57 c -0.67,-6.87 -1.24,-13.73 -1.78,-20.6 -0.54,-6.87 -1,-13.75 -1.31,-20.64 -0.31,-6.89 -0.6,-13.77 -0.69,-20.68 z"
         id="path10" />
      <path
         class="cls-5"
         d="m 79.9,490.38 a 50.66,50.66 0 0 0 -6.75,10.62 31,31 0 0 0 -2.31,9.1 c 0,0 9.22,5.26 25.66,8 a 135,135 0 0 0 35.08,1.29 c 0,0 -1.94,-6.93 -13.9,-14.13 -8.23,-5 -22.09,-10.47 -22.09,-10.47"
         id="path12" />
      <path
         class="cls-5"
         d="m 161.2,483 c 0,0 -4.32,5.88 -6.15,11.13 a 31.13,31.13 0 0 0 -1.74,9.27 c 0,0 8.7,3.41 25.52,4.82 a 195.86,195.86 0 0 0 36.55,-0.44 c 0,0 -2.42,-6.76 -15,-13 -8.66,-4.29 -23,-8.68 -23,-8.68"
         id="path14" />
      <path
         class="cls-2"
         d="m 195.82,367.43 c 0,0 1.34,31.76 0.7,55.13 -0.62,22.44 -7.15,65.72 -7.15,65.72 a 89.3,89.3 0 0 1 -17.7,0.59 118.26,118.26 0 0 1 -17.08,-2.87 c 0,0 5.34,-39.27 5.91,-62.38 0.57,-18 -0.15,-43 -0.15,-43"
         id="path16" />
      <path
         class="cls-6"
         d="m 193.64,197.78 c 0,0 -28.21,-11.52 -67.89,-8.71 -40.6,2.93 -68.57,14.43 -68.57,14.43 0,0 13.6,79 14.15,112 0.55,33 -0.9,58.5 -0.9,58.5 0,0 32,8.95 81.5,3.87 39.33,-4 58.49,-10.6 58.49,-10.6 0,0 -3.56,-34.83 -9.15,-86.48 -2.61,-24.19 -5.1,-65.5 -5.1,-65.5"
         id="path18" />
      <path
         class="cls-2"
         d="m 124,382.53 c 0,0 -1.76,29.37 -4.66,53.32 -1.23,18.53 -10.74,61.82 -10.74,61.82 A 140.66,140.66 0 0 1 91.88,497.6 70.14,70.14 0 0 1 73.6,494 c 0,0 8.4,-40 9.63,-58.73 a 526.84,526.84 0 0 0 1.47,-53.1"
         id="path20" />
      <g
         id="g26">
        <polyline
           class="cls-6"
           points="122.1 329.15 120.38 343.9 77.88 343.97 78.86 331.34"
           id="polyline22" />
        <path
           class="cls-4"
           d="M 122.1,329.15 121.45,344 v 0.94 h -1 c -3.54,0.07 -7.08,0.07 -10.63,0.06 L 99.2,344.9 c -7.08,-0.16 -14.17,-0.26 -21.25,-0.47 h -0.56 l 0.06,-0.52 0.72,-6.3 0.76,-6.29 -0.22,6.34 -0.34,6.34 -0.49,-0.54 c 7.08,-0.24 14.16,-0.36 21.25,-0.54 l 10.62,-0.14 c 3.54,0 7.08,0 10.63,0 l -1.08,0.95 z"
           id="path24" />
      </g>
      <g
         id="g32">
        <path
           class="cls-7"
           d="m 153.82,309.84 c 0,0 -19.77,-15.71 -30,-25.7 -10.23,-9.99 -20,-25.21 -20,-25.21 l 14,-9.78 -17.5,-0.47 c 0,0 -11.06,-34.48 -9.83,-48 0.7,-7.72 8.48,-15.27 8.48,-15.27 l 60.49,-1.6 c 0,0 8.27,10.49 10.53,14.24 2.26,3.75 10.21,37.75 10.21,37.75 l -12.74,6 13,3.73 c 0,0 -2.47,18.5 -6.2,30.76 -3.73,12.26 -14.45,32 -14.45,32"
           id="path28" />
        <path
           class="cls-8"
           d="m 153.46,310.3 q -7.08,-5.55 -14,-11.28 c -4.62,-3.82 -9.19,-7.69 -13.64,-11.74 -2.21,-2 -4.4,-4.13 -6.45,-6.35 -2.05,-2.22 -4,-4.5 -5.9,-6.84 -3.79,-4.69 -7.35,-9.52 -10.7,-14.55 v 0 l -0.6,-0.92 0.91,-0.63 14,-9.67 v 0 l 0.55,1.85 -17.5,-0.35 h -0.81 l -0.24,-0.77 c -1.69,-5.35 -3.23,-10.72 -4.66,-16.14 -1.43,-5.42 -2.66,-10.91 -3.7,-16.41 -0.51,-2.76 -1,-5.54 -1.26,-8.36 a 35.71,35.71 0 0 1 0,-8.65 22.74,22.74 0 0 1 3.31,-8.11 39.86,39.86 0 0 1 5.35,-6.76 l 0.31,-0.31 h 0.46 l 60.49,-1.6 v 0 h 0.58 l 0.35,0.45 c 2.9,3.77 5.76,7.54 8.51,11.45 0.69,1 1.36,1.95 2,3 a 21.73,21.73 0 0 1 1.34,3.51 c 0.73,2.29 1.36,4.58 2,6.87 2.44,9.18 4.63,18.4 6.77,27.64 v 0 l 0.12,0.53 -0.49,0.24 -12.6,6.32 v 0 l -0.15,-1.87 13,3.6 v 0 l 1,0.26 -0.15,1 c -0.81,5.53 -1.77,11 -2.89,16.46 -0.56,2.73 -1.17,5.45 -1.85,8.16 -0.68,2.71 -1.4,5.4 -2.34,8.06 a 151.73,151.73 0 0 1 -6.55,15.4 q -3.6,7.53 -7.61,14.84 l -1.06,-0.57 c 2.56,-4.9 5,-9.88 7.33,-14.9 a 153.3,153.3 0 0 0 6.23,-15.33 135.46,135.46 0 0 0 3.87,-16.05 c 1,-5.43 1.9,-10.91 2.62,-16.37 l 0.81,1.24 v 0 l -13,-3.85 -2.61,-0.78 2.46,-1.09 v 0 l 12.88,-5.72 -0.37,0.77 v 0 c -2.28,-9.19 -4.62,-18.38 -7.2,-27.47 -0.65,-2.27 -1.32,-4.54 -2.06,-6.76 a 22.93,22.93 0 0 0 -1.22,-3.11 c -0.58,-0.94 -1.28,-1.91 -1.95,-2.86 -2.77,-3.8 -5.7,-7.53 -8.64,-11.22 l 0.92,0.43 v 0 l -60.49,1.6 0.76,-0.32 a 37.11,37.11 0 0 0 -5,6.33 20.61,20.61 0 0 0 -3,7.29 33.28,33.28 0 0 0 0.08,8 c 0.28,2.73 0.72,5.47 1.23,8.19 1,5.44 2.31,10.85 3.72,16.22 1.41,5.37 3,10.74 4.62,16 l -1,-0.78 17.5,0.58 3,0.11 -2.54,1.79 v 0 l -13.92,9.87 0.3,-1.55 v 0 c 3.22,5 6.69,9.85 10.35,14.53 q 2.76,3.51 5.72,6.83 c 2,2.21 4.08,4.29 6.25,6.34 4.34,4.08 8.85,8 13.39,11.9 4.54,3.9 9.15,7.71 13.79,11.47 z"
           id="path30" />
      </g>
      <path
         class="cls-9"
         d="m 155.47,301.51 c 0,0 -19.36,-19.64 -34.08,-52.61 -11.26,-25.22 -17.09,-52.64 -17.09,-52.64 l 55.33,-1.76 c 0,0 6.28,26 6.08,48.66 a 185.69,185.69 0 0 1 -10.24,58.35 z"
         id="path34" />
      <path
         class="cls-10"
         d="m 142.71,201.65 8.65,12.53 c 0,0 -2,2.34 -7,2.68 a 21.36,21.36 0 0 1 -8.67,-1.15 L 141,201.77 Z"
         id="path36" />
      <g
         class="cls-11"
         id="g40">
        <path
           class="cls-12"
           d="m 164.39,209.47 a 27.92,27.92 0 0 1 -4.61,4.28 c -1.63,1.24 -3.28,2.37 -5,3.45 v 0 l -0.83,0.57 -0.59,-0.86 -12.93,-18.72 2.65,-0.27 -9.33,21.77 -0.29,0.68 -0.67,-0.17 v 0 c -2.47,-0.52 -4.86,-1.15 -7.26,-1.85 -2.4,-0.7 -4.77,-1.48 -7.11,-2.37 a 43.15,43.15 0 0 1 -6.88,-3.25 34.41,34.41 0 0 1 -6.26,-4.61 l 2.18,-2.06 a 31.11,31.11 0 0 0 5.49,4.37 42.78,42.78 0 0 0 6.36,3.35 c 2.24,1 4.52,1.84 6.83,2.64 2.31,0.8 4.67,1.53 7,2.14 v 0 l -1,0.51 8.1,-22.26 1,-2.83 1.62,2.56 12.14,19.24 -1.43,-0.29 v 0 a 57.39,57.39 0 0 0 4.53,-3.69 25.23,25.23 0 0 0 3.82,-4.11 z"
           id="path38" />
      </g>
      <path
         class="cls-10"
         d="m 147.2,217 c 0,0 8.11,25.86 10,37.36 1.89,11.5 3.32,31.18 3.32,31.18 l -4.87,16 -12.56,-14.8 -2,-32.83 0.31,-36.66 z"
         id="path42" />
      <g
         id="g48">
        <polyline
           class="cls-6"
           points="183.84 321.05 187.86 335.54 210.11 331 205.09 318.51"
           id="polyline44" />
        <path
           class="cls-4"
           d="m 183.84,321 5.1,14.2 -1.3,-0.79 c 1.85,-0.41 3.7,-0.78 5.56,-1.13 l 5.59,-1 11.2,-1.88 -0.43,0.79 c -1.51,-4.23 -3,-8.46 -4.47,-12.71 q 2.82,6.12 5.56,12.27 l 0.28,0.63 -0.71,0.16 -11,2.66 -5.53,1.26 q -2.78,0.61 -5.56,1.14 l -1.1,0.21 -0.2,-1 z"
           id="path46" />
      </g>
      <g
         class="cls-13"
         id="g54">
        <path
           class="cls-6"
           d="m 156.06,302.59 c 0,0 2.05,30.5 2.32,44.75 0.27,14.25 -0.2,29 -0.2,29"
           id="path50" />
        <path
           class="cls-4"
           d="m 156.56,302.56 c 0.92,12.27 1.8,24.54 2.44,36.84 0.34,6.15 0.48,12.33 0.53,18.49 0.05,6.16 0,12.32 -0.1,18.49 l -2.5,-0.08 q 0.36,-9.19 0.47,-18.42 c 0.08,-6.14 0.06,-12.27 -0.15,-18.41 -0.39,-12.28 -1,-24.57 -1.69,-36.85 z"
           id="path52" />
      </g>
      <path
         class="cls-4"
         d="m 132,387.33 c 4.51,-0.95 9,-1.8 13.5,-2.67 4.5,-0.87 9,-1.73 13.41,-2.71 4.41,-0.98 8.82,-2.11 13.18,-3.46 4.36,-1.35 8.66,-2.87 13,-4.47 a 78.26,78.26 0 0 1 -12.41,6.06 c -2.14,0.86 -4.35,1.57 -6.56,2.26 -2.21,0.69 -4.48,1.2 -6.72,1.72 -4.51,0.94 -9.05,1.72 -13.61,2.26 A 126.6,126.6 0 0 1 132,387.33 Z"
         id="path56" />
      <path
         class="cls-4"
         d="m 160,386.15 a 44.82,44.82 0 0 1 5.55,-1 c 1.82,-0.21 3.65,-0.36 5.43,-0.49 l 5.38,-0.44 a 54,54 0 0 1 5.61,-0.2 18.77,18.77 0 0 1 -5.15,2.51 24.16,24.16 0 0 1 -5.61,1.12 29,29 0 0 1 -5.67,-0.15 20.57,20.57 0 0 1 -5.54,-1.35 z"
         id="path58" />
      <polygon
         class="cls-14"
         points="186.93,218.41 191.88,248.4 164.68,250.32 158.8,221.14 "
         id="polygon60" />
      <line
         class="cls-15"
         x1="168.23"
         y1="246.50999"
         x2="187.10001"
         y2="245.02"
         id="line62" />
      <g
         class="cls-16"
         id="g66">
        <polygon
           class="cls-17"
           points="164.4,251.26 163.35,250.44 168.24,250.35 168.36,251.67 163.51,252.41 162.6,252.55 162.46,251.59 158.74,226.12 159.46,226 "
           id="polygon64" />
      </g>
      <polygon
         class="cls-18"
         points="185,220.67 185.21,223.16 183.18,223.11 182.63,220.73 "
         id="polygon68" />
      <path
         class="cls-19"
         d="m 268.38,305.37 c 0.15,-0.4 8.9,-8.39 18.85,-6.69 10.92,1.87 8.16,13 8.16,13 l -24.74,-8.42"
         id="path70" />
      <polygon
         class="cls-20"
         points="325.52,266.74 322.35,264.3 359.48,216.82 361.95,218.72 "
         id="polygon72" />
      <line
         class="cls-21"
         x1="403.76999"
         y1="161.17999"
         x2="359.54999"
         y2="219.39999"
         id="line74" />
      <polygon
         class="cls-22"
         points="291.8,313.7 286.99,310.12 323.3,262.4 327.05,265.19 "
         id="polygon76" />
      <path
         class="cls-19"
         d="m 277.06,301 a 10.06,10.06 0 0 1 9.81,3.63 c 0,0 9.73,4.55 10.78,11.44 1.34,8.78 -6.77,22.34 -13.8,26.42 -7.03,4.08 -15.72,0.38 -20.87,-4.71 -2.48,-2.45 -7.1,-6.16 -4.83,-16.05 2.27,-9.89 9.85,-19.45 18.91,-20.73 z"
         id="path78" />
      <path
         class="cls-19"
         d="m 116.72,291.65 c 5.6,-10.08 15.91,-16.12 27.52,-21.32 7.27,-3.26 20.28,-7.68 22.61,-3.7 2.33,3.98 -10.59,8.05 -16.74,11.51 a 60.08,60.08 0 0 0 -9.78,6.7 c 0,0 9.43,1.33 14.15,6.67 6.69,7.58 3.7,20.66 -4.86,26.38 -8.56,5.72 -17.62,-1.56 -17.62,-1.56 0,0 1.59,1.62 -5.17,2.23 -6.76,0.61 -18.53,-11.77 -10.11,-26.91 z"
         id="path80" />
      <g
         class="cls-23"
         id="g84">
        <path
           class="cls-24"
           d="m 131.76,316.65 a 7.8,7.8 0 0 1 -3.23,-2.49 5.19,5.19 0 0 1 -1,-2 4.49,4.49 0 0 1 0.1,-2.41 6.78,6.78 0 0 1 2.79,-3.46 9.26,9.26 0 0 1 4,-1.41 12.26,12.26 0 0 1 4.1,0.19 9,9 0 0 1 3.83,1.72 3.33,3.33 0 0 1 1.21,2.16 3,3 0 0 1 -0.87,2.27 8.28,8.28 0 0 1 -3.49,2 l -0.28,-0.71 a 8.31,8.31 0 0 0 2.7,-2.18 1.55,1.55 0 0 0 0.33,-1.19 1.74,1.74 0 0 0 -0.73,-1 7.24,7.24 0 0 0 -3.08,-1.12 10.9,10.9 0 0 0 -3.42,0 7.79,7.79 0 0 0 -3,1.13 5.14,5.14 0 0 0 -1.9,2.29 3.48,3.48 0 0 0 0.28,2.75 12.26,12.26 0 0 0 2.07,2.83 z"
           id="path82" />
      </g>
      <g
         class="cls-25"
         id="g88">
        <path
           class="cls-24"
           d="m 139,293.55 a 21.76,21.76 0 0 1 6.87,1.5 15.26,15.26 0 0 1 6,4.08 14.62,14.62 0 0 1 3.06,6.58 19,19 0 0 1 0,7 l -0.58,-0.05 a 27.85,27.85 0 0 0 -1.18,-6.55 15,15 0 0 0 -3,-5.56 16.16,16.16 0 0 0 -2.38,-2 30.74,30.74 0 0 0 -2.8,-1.65 c -1.95,-1 -4,-1.89 -6.12,-2.79 z"
           id="path86" />
      </g>
      <path
         class="cls-26"
         d="m 57.55,203.14 c 0,0 -43.18,66.51 -32.35,98.57 11.53,34.16 94.74,19.3 94.74,19.3 a 48.5,48.5 0 0 1 -3.79,-15.01 71.82,71.82 0 0 1 1.27,-20 c 0,0 -46.11,7.37 -57,-0.78 -6.8,-5.09 16.62,-45.78 16.62,-45.78 A 61.79,61.79 0 0 0 69.36,216.33 C 64.14,207.05 57.55,203.14 57.55,203.14 Z"
         id="path90" />
      <g
         class="cls-27"
         id="g94">
        <path
           class="cls-4"
           d="m 77.55,239.92 c -1.64,3.63 -3.44,7.15 -5.24,10.66 L 71,253.21 69.63,255.82 66.86,261 A 100,100 0 0 0 62,271.56 c -1.46,3.61 -2.71,7.31 -4,11.09 a 42.73,42.73 0 0 1 1.63,-11.88 46.64,46.64 0 0 1 2,-5.72 58.78,58.78 0 0 1 2.68,-5.39 c 0.94,-1.76 1.91,-3.49 2.95,-5.18 l 1.56,-2.54 1.64,-2.48 a 97.08,97.08 0 0 1 7.09,-9.54 z"
           id="path92" />
      </g>
      <path
         class="cls-8"
         d="m 120.94,321 a 195.12,195.12 0 0 1 -20.87,2.51 c -3.5,0.28 -7,0.39 -10.51,0.52 -3.51,0.13 -7,0.08 -10.54,0 A 137.27,137.27 0 0 1 58,322 a 77.28,77.28 0 0 1 -10.26,-2.55 48.28,48.28 0 0 1 -4.93,-1.91 22.48,22.48 0 0 1 -4.56,-2.64 26.27,26.27 0 0 0 4.79,2.05 c 0.82,0.29 1.66,0.52 2.49,0.78 0.83,0.26 1.67,0.45 2.52,0.65 a 101.08,101.08 0 0 0 10.23,1.87 c 0.86,0.13 1.72,0.22 2.59,0.31 l 2.58,0.3 c 1.74,0.13 3.46,0.34 5.2,0.42 3.46,0.25 6.93,0.44 10.41,0.5 7,0.22 13.93,0.15 20.9,0 6.97,-0.15 13.98,-0.45 20.98,-0.78 z"
         id="path96" />
      <path
         class="cls-8"
         d="m 117.26,285.8 c -0.08,3.05 -0.25,6 -0.3,9 a 74.5,74.5 0 0 0 0.24,8.86 c 0.35,2.94 0.79,5.92 1.33,8.85 0.54,2.93 1.13,5.89 1.91,8.82 a 43.16,43.16 0 0 1 -3.3,-8.49 62.93,62.93 0 0 1 -1.87,-8.95 38.79,38.79 0 0 1 0,-9.2 39.4,39.4 0 0 1 1.99,-8.89 z"
         id="path98" />
      <g
         class="cls-28"
         id="g102">
        <path
           class="cls-24"
           d="m 286.87,304.64 a 17.85,17.85 0 0 0 -10,3.19 15.65,15.65 0 0 0 -3.46,3.66 q -1.56,2.22 -3,4.52 a 67.56,67.56 0 0 0 -5.12,9.45 25.81,25.81 0 0 0 -1.51,5.06 10.31,10.31 0 0 0 0.34,5.32 8.89,8.89 0 0 1 -1.86,-5.4 19.59,19.59 0 0 1 0.73,-5.76 39.13,39.13 0 0 1 4.79,-10.34 53.3,53.3 0 0 1 3.27,-4.61 15.29,15.29 0 0 1 4.51,-4 14.35,14.35 0 0 1 11.31,-1.09 z"
           id="path100" />
      </g>
      <g
         class="cls-28"
         id="g106">
        <path
           class="cls-24"
           d="m 271.51,311.67 c 2.21,1 4.36,2 6.51,3.1 2.15,1.1 4.3,2.11 6.4,3.29 a 54.14,54.14 0 0 1 11.73,8.52 l -1.39,1.28 a 34.06,34.06 0 0 0 -5.21,-4.56 43.69,43.69 0 0 0 -6,-3.58 c -2.12,-1 -4.28,-1.94 -6.48,-2.78 -2.2,-0.84 -4.44,-1.62 -6.68,-2.25 z"
           id="path104" />
      </g>
      <g
         class="cls-28"
         id="g110">
        <path
           class="cls-24"
           d="m 264,324.47 a 1.09,1.09 0 0 1 0.93,0.08 l 0.83,0.33 1.64,0.68 c 1.09,0.46 2.16,1 3.22,1.52 1.06,0.52 2.11,1.08 3.14,1.67 1.03,0.59 2.07,1.17 3.08,1.8 2,1.22 4,2.52 5.91,3.89 1,0.67 1.92,1.37 2.86,2.09 0.94,0.72 1.87,1.43 2.82,2.21 l -1.54,1.66 a 48,48 0 0 0 -5.24,-4.45 c -1.85,-1.38 -3.78,-2.64 -5.76,-3.83 a 44.76,44.76 0 0 0 -6.21,-3 c -1.06,-0.43 -2.15,-0.81 -3.23,-1.21 l -1.62,-0.57 -0.81,-0.27 c -0.27,-0.1 -0.56,-0.14 -0.73,-0.49 z"
           id="path108" />
      </g>
      <path
         class="cls-29"
         d="m 165.07,54.36 c 0,0 16.56,18.88 17.6,32.7 0.75,10.09 -2.15,26.93 -2.15,26.93 L 154.68,56.82 Z"
         id="path112" />
      <path
         class="cls-19"
         d="m 90.63,172.16 c 0,0 1.86,14.84 15.37,22.32 18.94,10.52 70.74,7.17 78.12,-0.45 6.42,-6.61 4.83,-49.56 -3,-86.77 C 175,78 159.43,52.06 159.43,52.06 c 0,0 -28.7,-6.5 -52.43,-2.72 A 84.24,84.24 0 0 0 73.24,63.11 L 87.42,157"
         id="path114" />
      <path
         class="cls-29"
         d="m 84.77,63 c 0,0 6.73,15.36 7.3,28.41 0.5,11.27 -1,37.75 -1,37.75 a 104.49,104.49 0 0 1 7.11,12.64 c 3.8,8.71 1.45,15.34 1.45,15.34 l -14.38,-17 7,38.16 c 0,0 -7.47,-0.89 -11.24,-10.09 -3.77,-9.2 -17.16,-45.71 -19.2,-59.33 -1.09,-7.24 -4,-42.89 -0.21,-49.33 A 11.47,11.47 0 0 1 69,54.12 16.45,16.45 0 0 1 81.22,39.74 c 17.28,-5.11 56.12,-5 70.91,-1.33 11.37,2.85 27.06,18.93 27.06,18.93 0,0 -15.18,3 -22.88,1.82 -7.7,-1.18 -28.16,-7.22 -28.16,-7.22 0,0 12.44,6.15 16.09,8.34 3.65,2.19 10.33,8.3 10.33,8.3 0,0 -14.76,-0.26 -19.71,-1.27 -4.95,-1.01 -24.8,-9.3 -24.8,-9.3 0,0 7.77,4.66 11.4,7.1 a 61.63,61.63 0 0 1 7,5.62 c 0,0 -13.61,1.8 -23.77,-0.23 C 94.53,68.47 84.77,63 84.77,63 Z"
         id="path116" />
      <line
         class="cls-30"
         x1="96.980003"
         y1="133.42999"
         x2="79.190002"
         y2="138.67999"
         id="line118" />
      <path
         class="cls-19"
         d="m 94,150.55 c 0,0 -6.75,-14.62 -17.21,-15.66 -14.78,-1.48 -9,29.26 1,34.35 8.78,4.46 14.24,0.48 14.24,0.48"
         id="path120" />
      <path
         class="cls-31"
         d="m 90.35,158.37 c -1.5,-1.7 -2.91,-3.31 -4.35,-4.83 a 33.94,33.94 0 0 0 -4.45,-4 14.67,14.67 0 0 0 -2.4,-1.44 18.15,18.15 0 0 0 -2.54,-1.1 11.94,11.94 0 0 0 -5.91,-0.55 c 1.23,-2.15 4,-3.1 6.53,-2.89 a 10.72,10.72 0 0 1 1.87,0.3 11.8,11.8 0 0 1 1.75,0.64 12.38,12.38 0 0 1 3.11,2 17.93,17.93 0 0 1 4.35,5.48 18.27,18.27 0 0 1 2.04,6.39 z"
         id="path122" />
      <path
         class="cls-32"
         d="m 103.75,128.46 c 0.86,7.78 7.17,12.87 15.39,12.13 a 13.65,13.65 0 0 0 12.45,-15.18 14.003286,14.003286 0 1 0 -27.84,3.05 z"
         id="path124" />
      <path
         class="cls-32"
         d="m 156.43,124.63 c 1.36,7.6 6.16,13 13.8,12.27 7.17,-0.69 11.8,-7.4 11.26,-15.1 -0.58,-8.17 -7.07,-13.08 -14.23,-12.3 -7.16,0.78 -12.09,8.05 -10.83,15.13 z"
         id="path126" />
      <path
         class="cls-33"
         d="m 134.64,105.68 c 0,0 -10.83,0.11 -19.84,3.31 a 50.33,50.33 0 0 0 -14.8,8.24 l -0.11,-4.17 c 0,0 2.35,-6.7 13.73,-10.45 a 47.53,47.53 0 0 1 19.77,-1.67 z"
         id="path128" />
      <path
         class="cls-34"
         d="m 127.73,116.67 a 15.22,15.22 0 0 0 -6.55,-2.2 17,17 0 0 0 -6.52,0.75 17.53,17.53 0 0 0 -5.86,3 19.5,19.5 0 0 0 -4.63,5.24 11.48,11.48 0 0 1 3,-6.95 14.26,14.26 0 0 1 6.63,-4.16 14,14 0 0 1 7.84,-0.18 10.19,10.19 0 0 1 6.09,4.5 z"
         id="path130" />
      <path
         class="cls-34"
         d="m 180.6,117.25 a 12.84,12.84 0 0 0 -4.74,-4.25 18.25,18.25 0 0 0 -5.89,-1.8 13.49,13.49 0 0 0 -6.07,0.31 12.53,12.53 0 0 0 -5.38,3.42 9.29,9.29 0 0 1 4.64,-5.2 12,12 0 0 1 7.15,-1.09 13.53,13.53 0 0 1 6.71,2.6 8.73,8.73 0 0 1 3.58,6.01 z"
         id="path132" />
      <path
         class="cls-33"
         d="m 154.2,105 a 51,51 0 0 1 14.07,0.2 47.87,47.87 0 0 1 14.19,4.38 l -0.77,-3.66 a 21.77,21.77 0 0 0 -11.85,-6.45 32.13,32.13 0 0 0 -15.58,1 z"
         id="path134" />
      <ellipse
         class="cls-35"
         cx="118.14"
         cy="127.92"
         rx="5.8299999"
         ry="7.4200001"
         transform="rotate(-1.55,118.41899,128.03766)"
         id="ellipse136" />
      <ellipse
         class="cls-35"
         cx="168.75"
         cy="123.52"
         rx="5.3499999"
         ry="7.21"
         transform="rotate(-2.29,168.71396,123.49997)"
         id="ellipse138" />
      <path
         class="cls-30"
         d="m 196.29,117.23 c 0,0 -3.27,21.19 -4.35,22.63 -1.08,1.44 -31.74,3.86 -31.74,3.86"
         id="path140" />
      <g
         id="g146">
        <path
           class="cls-19"
           d="m 148.93,103.59 c 0,0 8.64,20 12.51,32.35 3.87,12.35 4.32,22.76 2.4,24.5 -1.92,1.74 -8.18,3.24 -15.17,2.88 -6.99,-0.36 -10.55,-2.55 -10.55,-2.55"
           id="path142" />
        <path
           class="cls-24"
           d="m 148.93,103.59 q 5.12,9.55 9.45,19.51 c 1.43,3.32 2.84,6.66 4.09,10.09 a 91.2,91.2 0 0 1 3.24,10.54 55.44,55.44 0 0 1 1.66,11.12 25.6,25.6 0 0 1 -0.08,3 l -0.12,0.81 a 6.31,6.31 0 0 1 -0.18,0.86 6.21,6.21 0 0 1 -0.89,2.06 7.91,7.91 0 0 1 -0.52,0.63 c -0.18,0.17 -0.29,0.25 -0.44,0.37 a 6.68,6.68 0 0 1 -0.82,0.56 11.3,11.3 0 0 1 -1.54,0.74 23.32,23.32 0 0 1 -2.92,0.92 36.86,36.86 0 0 1 -11.44,0.66 19.74,19.74 0 0 1 -5.58,-1.37 11.77,11.77 0 0 1 -4.72,-3.33 c 3.82,0.3 7.12,0.34 10.54,0.38 a 37.57,37.57 0 0 0 5.09,-0.25 33.79,33.79 0 0 0 4.91,-0.88 17.51,17.51 0 0 0 2.22,-0.73 8.14,8.14 0 0 0 0.89,-0.45 2.72,2.72 0 0 0 0.3,-0.19 l 0.08,-0.06 a 0.18,0.18 0 0 0 -0.11,0.1 c -0.06,0.09 0.08,-0.13 0.13,-0.42 a 1.75,1.75 0 0 0 0.1,-0.46 l 0.09,-0.52 c 0.08,-0.76 0.14,-1.56 0.15,-2.39 a 40.3,40.3 0 0 0 -0.3,-5.1 c -0.18,-1.72 -0.43,-3.45 -0.74,-5.18 -1.23,-6.9 -3.48,-13.69 -5.71,-20.52 z"
           id="path144" />
      </g>
      <path
         class="cls-36"
         d="m 165.87,169.8 c 0,0 -1.31,16.53 -15.8,17.42 -19.52,1.2 -25.46,-19.56 -25.46,-19.56"
         id="path148" />
      <path
         class="cls-37"
         d="m 157.43,184.46 c 0,0 -4.22,2.68 -11.2,2.15 -6.98,-0.53 -12.83,-6 -12.83,-6 a 38.75,38.75 0 0 1 12.6,-0.79 28.9,28.9 0 0 1 11.43,4.64 z"
         id="path150" />
      <path
         class="cls-32"
         d="m 165.87,169.8 c 0,0 -1.58,4.76 -2.28,5.39 -0.7,0.63 -6.73,3.29 -15,3.33 -12.29,0.07 -19.24,-3.1 -19.24,-3.1 a 39.1,39.1 0 0 1 -3,-4.33 35.57,35.57 0 0 1 -1.78,-4.26 c 0,0 16,4.5 24,4.58 a 107.56,107.56 0 0 0 17.3,-1.61 z"
         id="path152" />
      <g
         id="g158">
        <path
           class="cls-19"
           d="m 169,167.8 a 45.8,45.8 0 0 1 -18.63,4.34 c -16.88,0.45 -27.42,-5.36 -27.42,-5.36"
           id="path154" />
        <path
           class="cls-38"
           d="m 169.31,168.42 a 39.15,39.15 0 0 1 -11.38,4.22 46.81,46.81 0 0 1 -6,0.86 c -1,0.08 -2,0.11 -3,0.11 -1,0 -2,0 -3,0 a 59.31,59.31 0 0 1 -12,-1.61 c -2,-0.51 -3.9,-1.08 -5.81,-1.77 a 36.69,36.69 0 0 1 -5.55,-2.6 l 0.93,-1.68 a 45,45 0 0 0 5.42,1.9 c 1.85,0.56 3.73,1 5.62,1.4 a 76.75,76.75 0 0 0 11.51,1.36 59.15,59.15 0 0 0 11.53,-0.5 52.87,52.87 0 0 0 11.18,-2.92 z"
           id="path156" />
      </g>
      <path
         class="cls-24"
         d="m 126,163 -1.63,2.54 a 21.71,21.71 0 0 0 -1.26,2.26 17.86,17.86 0 0 0 -0.92,2.4 c -0.26,0.87 -0.5,1.79 -0.76,2.88 a 5,5 0 0 1 -1.32,-3 6.53,6.53 0 0 1 0.59,-3.36 6.63,6.63 0 0 1 2.19,-2.6 A 5.59,5.59 0 0 1 126,163 Z"
         id="path160" />
      <g
         class="cls-28"
         id="g164">
        <path
           class="cls-24"
           d="m 158.14,189.41 a 9,9 0 0 1 -3.18,3.9 11,11 0 0 1 -4.79,2 11.1,11.1 0 0 1 -5.16,-0.43 9.54,9.54 0 0 1 -4.24,-2.67 45.71,45.71 0 0 0 4.67,0.55 20.51,20.51 0 0 0 4.31,-0.16 20.07,20.07 0 0 0 4.17,-1.14 32.72,32.72 0 0 0 4.22,-2.05 z"
           id="path162" />
      </g>
      <path
         class="cls-24"
         d="m 91.09,169.84 a 34.34,34.34 0 0 0 3.91,12.66 30.61,30.61 0 0 0 8.42,9.92 34.83,34.83 0 0 0 11.9,5.21 85.69,85.69 0 0 0 13.08,2.1 233.2,233.2 0 0 0 26.71,0.57 99.9,99.9 0 0 0 13.22,-1.55 126.58,126.58 0 0 0 13.06,-3 74.57,74.57 0 0 1 -12.81,4.25 76.39,76.39 0 0 1 -13.39,2 c -4.52,0.25 -9,0.35 -13.49,0.38 a 132.85,132.85 0 0 1 -13.52,-0.53 77.86,77.86 0 0 1 -13.41,-2.29 34.63,34.63 0 0 1 -12.43,-5.82 A 30,30 0 0 1 94,183 a 30.88,30.88 0 0 1 -2.19,-6.43 27.67,27.67 0 0 1 -0.72,-6.73 z"
         id="path166" />
      <path
         class="cls-39"
         d="m 197.54,119.83 -25.74,1.85 c -8.58,0.64 -17.17,1.21 -25.73,1.89 q -25.71,2.06 -51.34,4.88 l -0.45,-4 q 25.73,-2.81 51.48,-4.77 c 8.6,-0.67 17.18,-1.22 25.77,-1.83 l 25.77,-1.8 z"
         id="path168" />
      <path
         class="cls-30"
         d="m 146.48,122 c 0,0 -1.72,20.11 -3.83,22.17 -2.11,2.06 -34.65,4.83 -37.77,4.19 -3.12,-0.64 -9.31,-23.18 -9.31,-23.18"
         id="path170" />
      <polygon
         class="cls-39"
         points="146.73,130.11 146.51,127.56 160.11,126.71 160.28,128.7 "
         id="polygon172" />
      <polygon
         class="cls-22"
         points="249.75,367.63 244.9,363.94 266.33,336.75 270.23,339.71 "
         id="polygon174" />
      <ellipse
         class="cls-40"
         cx="404.04001"
         cy="160.69"
         rx="1.83"
         ry="3.1900001"
         transform="rotate(-49.14,404.04624,160.69322)"
         id="ellipse176" />
      <g
         class="cls-41"
         id="g196">
        <path
           class="cls-42"
           d="m 170.47,240.58 a 10.44,10.44 0 0 1 -2.47,-2.88 11.22,11.22 0 0 1 -1.36,-3.62 11.5,11.5 0 0 1 -0.06,-4 10.05,10.05 0 0 1 1.17,-3.35"
           id="path178" />
        <path
           class="cls-42"
           d="m 170.47,228.91 a 6.14,6.14 0 0 0 -0.73,2 6.89,6.89 0 0 0 0,2.62 7.45,7.45 0 0 0 0.9,2.27 6.78,6.78 0 0 0 1.61,1.8"
           id="path180" />
        <g
           class="cls-41"
           id="g186">
          <path
             class="cls-43"
             d="m 178.07,227.6 a 5.69,5.69 0 0 0 -1.34,-0.83 5.13,5.13 0 0 0 -2.66,-0.36 4.78,4.78 0 0 0 -2.61,1.23 5.31,5.31 0 0 0 -1,1.27"
             id="path182" />
          <path
             class="cls-43"
             d="m 167.79,226.78 a 8.48,8.48 0 0 1 1.53,-1.92 7.67,7.67 0 0 1 4,-2 8,8 0 0 1 4.45,0.56 9.36,9.36 0 0 1 2.17,1.3"
             id="path184" />
        </g>
        <g
           class="cls-41"
           id="g192">
          <path
             class="cls-44"
             d="m 172.28,237.64 a 5.54,5.54 0 0 0 3.12,1.18 4.87,4.87 0 0 0 2.21,-0.46 c 0.43,0.42 0.87,0.84 1.34,1.27 0.47,0.43 1.07,1 1.58,1.4 a 7.7,7.7 0 0 1 -2.75,1.35 7.87,7.87 0 0 1 -2.87,0.18 9,9 0 0 1 -2.52,-0.78 10.59,10.59 0 0 1 -1.92,-1.2"
             id="path188" />
          <path
             class="cls-44"
             d="m 179.93,224.73 a 10.46,10.46 0 0 1 2.43,2.76 11.8,11.8 0 0 1 1.44,3.67 v 0 a 10.73,10.73 0 0 1 0.25,2.26 7.9,7.9 0 0 1 -0.18,1.55 l -3.27,-2.78 a 7.41,7.41 0 0 0 -0.51,-1.86 6.89,6.89 0 0 0 -2,-2.73"
             id="path190" />
        </g>
        <path
           class="cls-45"
           d="m 184.41,241.18 a 0.23,0.23 0 0 1 -0.19,-0.06 l -7.64,-6.8 a 0.65,0.65 0 0 1 -0.13,-0.81 l 0.47,-0.72 a 0.54,0.54 0 0 1 0.84,-0.09 l 7.74,6.89 1.22,1.09 c 0,0 0,0.11 0,0.12 -0.45,0.08 -1.8,0.32 -2.31,0.38 z"
           id="path194" />
      </g>
    </g>
  </g>
</svg>
