<svg xmlns="http://www.w3.org/2000/svg" width="428.64" height="540" viewBox="0 0 428.64 540">
  <defs>
    <style>
      .cls-1 {
        isolation: isolate;
      }

      .cls-2 {
        fill: #3c5968;
      }

      .cls-3 {
        fill: #3b5b66;
      }

      .cls-4 {
        fill: #2b4c57;
      }

      .cls-5 {
        fill: #3a4449;
      }

      .cls-6 {
        fill: #40606d;
      }

      .cls-7 {
        fill: #42626d;
      }

      .cls-8 {
        fill: #2f545e;
      }

      .cls-9 {
        fill: #b6e0ef;
      }

      .cls-10 {
        fill: #2483c5;
      }

      .cls-11 {
        opacity: 0.6;
      }

      .cls-12 {
        fill: #405e6b;
      }

      .cls-13 {
        opacity: 0.7;
      }

      .cls-14 {
        fill: #eff4f4;
      }

      .cls-15, .cls-18 {
        fill: #536872;
      }

      .cls-15 {
        stroke: #405a63;
        stroke-width: 1.04px;
      }

      .cls-15, .cls-21, .cls-30, .cls-42, .cls-43, .cls-44, .cls-45 {
        stroke-miterlimit: 10;
      }

      .cls-15, .cls-16 {
        opacity: 0.3;
      }

      .cls-17 {
        fill: #516672;
      }

      .cls-18 {
        opacity: 0.18;
      }

      .cls-19 {
        fill: #f1b291;
      }

      .cls-20 {
        fill: #6da8b2;
      }

      .cls-21, .cls-30, .cls-42, .cls-43, .cls-44, .cls-45 {
        fill: none;
      }

      .cls-21 {
        stroke: #6eadb7;
      }

      .cls-21, .cls-30 {
        stroke-width: 3px;
      }

      .cls-22 {
        fill: #639ea8;
      }

      .cls-23 {
        opacity: 0.67;
      }

      .cls-24 {
        fill: #a77056;
      }

      .cls-25 {
        opacity: 0.66;
      }

      .cls-26 {
        fill: #456572;
      }

      .cls-27 {
        opacity: 0.77;
      }

      .cls-28 {
        opacity: 0.8;
      }

      .cls-29 {
        fill: #755946;
      }

      .cls-30 {
        stroke: #353e45;
      }

      .cls-31 {
        fill: #a7755c;
      }

      .cls-32 {
        fill: #f7f5f5;
      }

      .cls-33 {
        fill: #684f3c;
      }

      .cls-34 {
        fill: #5b422a;
      }

      .cls-35 {
        fill: #1b6087;
      }

      .cls-36 {
        fill: #65262d;
        opacity: 0.9;
      }

      .cls-37 {
        fill: #cb5b65;
        opacity: 0.84;
      }

      .cls-38 {
        fill: #915a46;
      }

      .cls-39 {
        fill: #353e45;
      }

      .cls-40 {
        fill: #6eadb7;
      }

      .cls-41 {
        mix-blend-mode: multiply;
      }

      .cls-42 {
        stroke: #2582c5;
      }

      .cls-42, .cls-43, .cls-44, .cls-45 {
        stroke-width: 1.2px;
      }

      .cls-43 {
        stroke: #e51a60;
      }

      .cls-44 {
        stroke: #75b747;
      }

      .cls-45 {
        stroke: #f6a31f;
      }
    </style>
  </defs>
  <g class="cls-1">
    <g id="Ebene_1" data-name="Ebene 1">
      <path class="cls-2" d="M195.75,341.1l.45,29S167.88,382.53,136.45,387,85,388.8,85,388.8l-2.6-39Z"/>
      <path class="cls-3" d="M185.73,194.66l10.73,3.67s16.81,63.86,29.51,78.14c19.43,21.84,48.61,26.23,48.61,26.23s.35,10.93-1.63,17.65c-2.56,8.69-8.92,18-8.92,18s-37.29-8.69-57.06-32c-21.35-25.21-32.69-80-32.69-80Z"/>
      <path class="cls-4" d="M198.44,232.27q1.42,10.26,2.42,20.56c.7,6.86,1.26,13.73,1.8,20.61s1,13.76,1.29,20.64.56,13.77.63,20.68q-1.4-10.26-2.36-20.57c-.67-6.87-1.24-13.73-1.78-20.6s-1-13.75-1.31-20.64S198.53,239.18,198.44,232.27Z"/>
      <path class="cls-5" d="M79.9,490.38A50.66,50.66,0,0,0,73.15,501a31,31,0,0,0-2.31,9.1s9.22,5.26,25.66,8a135,135,0,0,0,35.08,1.29s-1.94-6.93-13.9-14.13c-8.23-5-22.09-10.47-22.09-10.47"/>
      <path class="cls-5" d="M161.2,483s-4.32,5.88-6.15,11.13a31.13,31.13,0,0,0-1.74,9.27s8.7,3.41,25.52,4.82a195.86,195.86,0,0,0,36.55-.44s-2.42-6.76-15-13c-8.66-4.29-23-8.68-23-8.68"/>
      <path class="cls-2" d="M195.82,367.43s1.34,31.76.7,55.13c-.62,22.44-7.15,65.72-7.15,65.72a89.3,89.3,0,0,1-17.7.59A118.26,118.26,0,0,1,154.59,486s5.34-39.27,5.91-62.38c.57-18-.15-43-.15-43"/>
      <path class="cls-6" d="M193.64,197.78s-28.21-11.52-67.89-8.71C85.15,192,57.18,203.5,57.18,203.5s13.6,79,14.15,112-.9,58.5-.9,58.5,32,8.95,81.5,3.87c39.33-4,58.49-10.6,58.49-10.6s-3.56-34.83-9.15-86.48c-2.61-24.19-5.1-65.5-5.1-65.5"/>
      <path class="cls-2" d="M124,382.53s-1.76,29.37-4.66,53.32c-1.23,18.53-10.74,61.82-10.74,61.82a140.66,140.66,0,0,1-16.72-.07A70.14,70.14,0,0,1,73.6,494s8.4-40,9.63-58.73a526.84,526.84,0,0,0,1.47-53.1"/>
      <g>
        <polyline class="cls-6" points="122.1 329.15 120.38 343.9 77.88 343.97 78.86 331.34"/>
        <path class="cls-4" d="M122.1,329.15,121.45,344l0,.94-1,0c-3.54.07-7.08.07-10.63.06l-10.62-.1c-7.08-.16-14.17-.26-21.25-.47l-.56,0,.06-.52.72-6.3.76-6.29-.22,6.34L78.37,344l-.49-.54c7.08-.24,14.16-.36,21.25-.54l10.62-.14c3.54,0,7.08,0,10.63,0l-1.08.95Z"/>
      </g>
      <g>
        <path class="cls-7" d="M153.82,309.84s-19.77-15.71-30-25.7-20-25.21-20-25.21l14-9.78-17.5-.47s-11.06-34.48-9.83-48c.7-7.72,8.48-15.27,8.48-15.27l60.49-1.6s8.27,10.49,10.53,14.24S180.2,235.8,180.2,235.8l-12.74,6,13,3.73s-2.47,18.5-6.2,30.76-14.45,32-14.45,32"/>
        <path class="cls-8" d="M153.46,310.3q-7.08-5.55-14-11.28c-4.62-3.82-9.19-7.69-13.64-11.74-2.21-2-4.4-4.13-6.45-6.35s-4-4.5-5.9-6.84c-3.79-4.69-7.35-9.52-10.7-14.55h0l-.6-.92.91-.63,14-9.67h0l.55,1.85-17.5-.35-.81,0-.24-.77c-1.69-5.35-3.23-10.72-4.66-16.14S91.76,222,90.72,216.5c-.51-2.76-1-5.54-1.26-8.36a35.71,35.71,0,0,1,0-8.65,22.74,22.74,0,0,1,3.31-8.11,39.86,39.86,0,0,1,5.35-6.76l.31-.31h.46l60.49-1.6h0l.58,0,.35.45c2.9,3.77,5.76,7.54,8.51,11.45.69,1,1.36,1.95,2,3a21.73,21.73,0,0,1,1.34,3.51c.73,2.29,1.36,4.58,2,6.87,2.44,9.18,4.63,18.4,6.77,27.64h0l.12.53-.49.24-12.6,6.32h0l-.15-1.87,13,3.6h0l1,.26-.15,1c-.81,5.53-1.77,11-2.89,16.46-.56,2.73-1.17,5.45-1.85,8.16s-1.4,5.4-2.34,8.06a151.73,151.73,0,0,1-6.55,15.4q-3.6,7.53-7.61,14.84l-1.06-.57c2.56-4.9,5-9.88,7.33-14.9a153.3,153.3,0,0,0,6.23-15.33,135.46,135.46,0,0,0,3.87-16.05c1-5.43,1.9-10.91,2.62-16.37l.81,1.24h0l-13-3.85-2.61-.78,2.46-1.09h0l12.88-5.72-.37.77h0c-2.28-9.19-4.62-18.38-7.2-27.47-.65-2.27-1.32-4.54-2.06-6.76a22.93,22.93,0,0,0-1.22-3.11c-.58-.94-1.28-1.91-1.95-2.86-2.77-3.8-5.7-7.53-8.64-11.22l.92.43h0l-60.49,1.6.76-.32a37.11,37.11,0,0,0-5,6.33,20.61,20.61,0,0,0-3,7.29,33.28,33.28,0,0,0,.08,8c.28,2.73.72,5.47,1.23,8.19,1,5.44,2.31,10.85,3.72,16.22s3,10.74,4.62,16l-1-.78,17.5.58,3,.11L118.31,250h0l-13.92,9.87.3-1.55h0c3.22,5,6.69,9.85,10.35,14.53q2.76,3.51,5.72,6.83c2,2.21,4.08,4.29,6.25,6.34,4.34,4.08,8.85,8,13.39,11.9s9.15,7.71,13.79,11.47Z"/>
      </g>
      <path class="cls-9" d="M155.47,301.51s-19.36-19.64-34.08-52.61c-11.26-25.22-17.09-52.64-17.09-52.64l55.33-1.76s6.28,26,6.08,48.66A185.69,185.69,0,0,1,155.47,301.51Z"/>
      <path class="cls-10" d="M142.71,201.65l8.65,12.53s-2,2.34-7,2.68a21.36,21.36,0,0,1-8.67-1.15L141,201.77Z"/>
      <g class="cls-11">
        <path class="cls-12" d="M164.39,209.47a27.92,27.92,0,0,1-4.61,4.28c-1.63,1.24-3.28,2.37-5,3.45h0l-.83.57-.59-.86-12.93-18.72,2.65-.27-9.33,21.77-.29.68-.67-.17h0c-2.47-.52-4.86-1.15-7.26-1.85s-4.77-1.48-7.11-2.37a43.15,43.15,0,0,1-6.88-3.25,34.41,34.41,0,0,1-6.26-4.61l2.18-2.06a31.11,31.11,0,0,0,5.49,4.37,42.78,42.78,0,0,0,6.36,3.35c2.24,1,4.52,1.84,6.83,2.64s4.67,1.53,7,2.14h0l-1,.51,8.1-22.26,1-2.83,1.62,2.56,12.14,19.24-1.43-.29h0a57.39,57.39,0,0,0,4.53-3.69,25.23,25.23,0,0,0,3.82-4.11Z"/>
      </g>
      <path class="cls-10" d="M147.2,217s8.11,25.86,10,37.36,3.32,31.18,3.32,31.18l-4.87,16-12.56-14.8-2-32.83.31-36.66Z"/>
      <g>
        <polyline class="cls-6" points="183.84 321.05 187.86 335.54 210.11 331 205.09 318.51"/>
        <path class="cls-4" d="M183.84,321l5.1,14.2-1.3-.79c1.85-.41,3.7-.78,5.56-1.13l5.59-1,11.2-1.88-.43.79c-1.51-4.23-3-8.46-4.47-12.71q2.82,6.12,5.56,12.27l.28.63-.71.16-11,2.66-5.53,1.26q-2.78.61-5.56,1.14l-1.1.21-.2-1Z"/>
      </g>
      <g class="cls-13">
        <path class="cls-6" d="M156.06,302.59s2.05,30.5,2.32,44.75-.2,29-.2,29"/>
        <path class="cls-4" d="M156.56,302.56c.92,12.27,1.8,24.54,2.44,36.84.34,6.15.48,12.33.53,18.49s0,12.32-.1,18.49l-2.5-.08q.36-9.19.47-18.42c.08-6.14.06-12.27-.15-18.41-.39-12.28-1-24.57-1.69-36.85Z"/>
      </g>
      <path class="cls-4" d="M132,387.33c4.51-.95,9-1.8,13.5-2.67s9-1.73,13.41-2.71,8.82-2.11,13.18-3.46,8.66-2.87,13-4.47a78.26,78.26,0,0,1-12.41,6.06c-2.14.86-4.35,1.57-6.56,2.26s-4.48,1.2-6.72,1.72c-4.51.94-9.05,1.72-13.61,2.26A126.6,126.6,0,0,1,132,387.33Z"/>
      <path class="cls-4" d="M160,386.15a44.82,44.82,0,0,1,5.55-1c1.82-.21,3.65-.36,5.43-.49l5.38-.44a54,54,0,0,1,5.61-.2,18.77,18.77,0,0,1-5.15,2.51,24.16,24.16,0,0,1-5.61,1.12,29,29,0,0,1-5.67-.15A20.57,20.57,0,0,1,160,386.15Z"/>
      <polygon class="cls-14" points="158.8 221.14 186.93 218.41 191.88 248.4 164.68 250.32 158.8 221.14"/>
      <line class="cls-15" x1="168.23" y1="246.51" x2="187.1" y2="245.02"/>
      <g class="cls-16">
        <polygon class="cls-17" points="159.46 226 164.4 251.26 163.35 250.44 168.24 250.35 168.36 251.67 163.51 252.41 162.6 252.55 162.46 251.59 158.74 226.12 159.46 226"/>
      </g>
      <polygon class="cls-18" points="182.63 220.73 185 220.67 185.21 223.16 183.18 223.11 182.63 220.73"/>
      <path class="cls-19" d="M268.38,305.37c.15-.4,8.9-8.39,18.85-6.69,10.92,1.87,8.16,13,8.16,13l-24.74-8.42"/>
      <polygon class="cls-20" points="361.95 218.72 325.52 266.74 322.35 264.3 359.48 216.82 361.95 218.72"/>
      <line class="cls-21" x1="403.77" y1="161.18" x2="359.55" y2="219.4"/>
      <polygon class="cls-22" points="327.05 265.19 291.8 313.7 286.99 310.12 323.3 262.4 327.05 265.19"/>
      <path class="cls-19" d="M277.06,301a10.06,10.06,0,0,1,9.81,3.63s9.73,4.55,10.78,11.44c1.34,8.78-6.77,22.34-13.8,26.42s-15.72.38-20.87-4.71c-2.48-2.45-7.1-6.16-4.83-16.05S268,302.28,277.06,301Z"/>
      <path class="cls-19" d="M116.72,291.65c5.6-10.08,15.91-16.12,27.52-21.32,7.27-3.26,20.28-7.68,22.61-3.7s-10.59,8.05-16.74,11.51a60.08,60.08,0,0,0-9.78,6.7s9.43,1.33,14.15,6.67c6.69,7.58,3.7,20.66-4.86,26.38S132,316.33,132,316.33s1.59,1.62-5.17,2.23S108.3,306.79,116.72,291.65Z"/>
      <g class="cls-23">
        <path class="cls-24" d="M131.76,316.65a7.8,7.8,0,0,1-3.23-2.49,5.19,5.19,0,0,1-1-2,4.49,4.49,0,0,1,.1-2.41,6.78,6.78,0,0,1,2.79-3.46,9.26,9.26,0,0,1,4-1.41,12.26,12.26,0,0,1,4.1.19,9,9,0,0,1,3.83,1.72,3.33,3.33,0,0,1,1.21,2.16,3,3,0,0,1-.87,2.27,8.28,8.28,0,0,1-3.49,2l-.28-.71a8.31,8.31,0,0,0,2.7-2.18,1.55,1.55,0,0,0,.33-1.19,1.74,1.74,0,0,0-.73-1,7.24,7.24,0,0,0-3.08-1.12,10.9,10.9,0,0,0-3.42,0,7.79,7.79,0,0,0-3,1.13,5.14,5.14,0,0,0-1.9,2.29,3.48,3.48,0,0,0,.28,2.75,12.26,12.26,0,0,0,2.07,2.83Z"/>
      </g>
      <g class="cls-25">
        <path class="cls-24" d="M139,293.55a21.76,21.76,0,0,1,6.87,1.5,15.26,15.26,0,0,1,6,4.08,14.62,14.62,0,0,1,3.06,6.58,19,19,0,0,1,0,7l-.58-.05a27.85,27.85,0,0,0-1.18-6.55,15,15,0,0,0-3-5.56,16.16,16.16,0,0,0-2.38-2,30.74,30.74,0,0,0-2.8-1.65c-1.95-1-4-1.89-6.12-2.79Z"/>
      </g>
      <path class="cls-26" d="M57.55,203.14S14.37,269.65,25.2,301.71c11.53,34.16,94.74,19.3,94.74,19.3A48.5,48.5,0,0,1,116.15,306a71.82,71.82,0,0,1,1.27-20s-46.11,7.37-57-.78c-6.8-5.09,16.62-45.78,16.62-45.78a61.79,61.79,0,0,0-7.68-23.11C64.14,207.05,57.55,203.14,57.55,203.14Z"/>
      <g class="cls-27">
        <path class="cls-4" d="M77.55,239.92c-1.64,3.63-3.44,7.15-5.24,10.66L71,253.21l-1.37,2.61L66.86,261A100,100,0,0,0,62,271.56c-1.46,3.61-2.71,7.31-4,11.09a42.73,42.73,0,0,1,1.63-11.88,46.64,46.64,0,0,1,2-5.72,58.78,58.78,0,0,1,2.68-5.39c.94-1.76,1.91-3.49,2.95-5.18l1.56-2.54,1.64-2.48A97.08,97.08,0,0,1,77.55,239.92Z"/>
      </g>
      <path class="cls-8" d="M120.94,321a195.12,195.12,0,0,1-20.87,2.51c-3.5.28-7,.39-10.51.52s-7,.08-10.54,0A137.27,137.27,0,0,1,58,322a77.28,77.28,0,0,1-10.26-2.55,48.28,48.28,0,0,1-4.93-1.91,22.48,22.48,0,0,1-4.56-2.64,26.27,26.27,0,0,0,4.79,2.05c.82.29,1.66.52,2.49.78s1.67.45,2.52.65a101.08,101.08,0,0,0,10.23,1.87c.86.13,1.72.22,2.59.31l2.58.3c1.74.13,3.46.34,5.2.42,3.46.25,6.93.44,10.41.5,7,.22,13.93.15,20.9,0S113.94,321.33,120.94,321Z"/>
      <path class="cls-8" d="M117.26,285.8c-.08,3.05-.25,6-.3,9a74.5,74.5,0,0,0,.24,8.86c.35,2.94.79,5.92,1.33,8.85s1.13,5.89,1.91,8.82a43.16,43.16,0,0,1-3.3-8.49,62.93,62.93,0,0,1-1.87-8.95,38.79,38.79,0,0,1,0-9.2A39.4,39.4,0,0,1,117.26,285.8Z"/>
      <g class="cls-28">
        <path class="cls-24" d="M286.87,304.64a17.85,17.85,0,0,0-10,3.19,15.65,15.65,0,0,0-3.46,3.66q-1.56,2.22-3,4.52a67.56,67.56,0,0,0-5.12,9.45,25.81,25.81,0,0,0-1.51,5.06,10.31,10.31,0,0,0,.34,5.32,8.89,8.89,0,0,1-1.86-5.4,19.59,19.59,0,0,1,.73-5.76,39.13,39.13,0,0,1,4.79-10.34,53.3,53.3,0,0,1,3.27-4.61,15.29,15.29,0,0,1,4.51-4A14.35,14.35,0,0,1,286.87,304.64Z"/>
      </g>
      <g class="cls-28">
        <path class="cls-24" d="M271.51,311.67c2.21,1,4.36,2,6.51,3.1s4.3,2.11,6.4,3.29a54.14,54.14,0,0,1,11.73,8.52l-1.39,1.28a34.06,34.06,0,0,0-5.21-4.56,43.69,43.69,0,0,0-6-3.58c-2.12-1-4.28-1.94-6.48-2.78s-4.44-1.62-6.68-2.25Z"/>
      </g>
      <g class="cls-28">
        <path class="cls-24" d="M264,324.47a1.09,1.09,0,0,1,.93.08l.83.33,1.64.68c1.09.46,2.16,1,3.22,1.52s2.11,1.08,3.14,1.67,2.07,1.17,3.08,1.8c2,1.22,4,2.52,5.91,3.89,1,.67,1.92,1.37,2.86,2.09s1.87,1.43,2.82,2.21l-1.54,1.66a48,48,0,0,0-5.24-4.45c-1.85-1.38-3.78-2.64-5.76-3.83a44.76,44.76,0,0,0-6.21-3c-1.06-.43-2.15-.81-3.23-1.21l-1.62-.57-.81-.27c-.27-.1-.56-.14-.73-.49Z"/>
      </g>
      <path class="cls-29" d="M165.07,54.36s16.56,18.88,17.6,32.7c.75,10.09-2.15,26.93-2.15,26.93L154.68,56.82Z"/>
      <path class="cls-19" d="M90.63,172.16S92.49,187,106,194.48c18.94,10.52,70.74,7.17,78.12-.45,6.42-6.61,4.83-49.56-3-86.77C175,78,159.43,52.06,159.43,52.06s-28.7-6.5-52.43-2.72A84.24,84.24,0,0,0,73.24,63.11L87.42,157"/>
      <path class="cls-29" d="M84.77,63s6.73,15.36,7.3,28.41c.5,11.27-1,37.75-1,37.75a104.49,104.49,0,0,1,7.11,12.64c3.8,8.71,1.45,15.34,1.45,15.34l-14.38-17,7,38.16s-7.47-.89-11.24-10.09-17.16-45.71-19.2-59.33c-1.09-7.24-4-42.89-.21-49.33A11.47,11.47,0,0,1,69,54.12,16.45,16.45,0,0,1,81.22,39.74c17.28-5.11,56.12-5,70.91-1.33,11.37,2.85,27.06,18.93,27.06,18.93s-15.18,3-22.88,1.82-28.16-7.22-28.16-7.22,12.44,6.15,16.09,8.34,10.33,8.3,10.33,8.3-14.76-.26-19.71-1.27-24.8-9.3-24.8-9.3,7.77,4.66,11.4,7.1a61.63,61.63,0,0,1,7,5.62s-13.61,1.8-23.77-.23S84.77,63,84.77,63Z"/>
      <line class="cls-30" x1="96.98" y1="133.43" x2="79.19" y2="138.68"/>
      <path class="cls-19" d="M94,150.55s-6.75-14.62-17.21-15.66c-14.78-1.48-9,29.26,1,34.35,8.78,4.46,14.24.48,14.24.48"/>
      <path class="cls-31" d="M90.35,158.37c-1.5-1.7-2.91-3.31-4.35-4.83a33.94,33.94,0,0,0-4.45-4,14.67,14.67,0,0,0-2.4-1.44A18.15,18.15,0,0,0,76.61,147a11.94,11.94,0,0,0-5.91-.55c1.23-2.15,4-3.1,6.53-2.89a10.72,10.72,0,0,1,1.87.3,11.8,11.8,0,0,1,1.75.64,12.38,12.38,0,0,1,3.11,2,17.93,17.93,0,0,1,4.35,5.48A18.27,18.27,0,0,1,90.35,158.37Z"/>
      <path class="cls-32" d="M103.75,128.46c.86,7.78,7.17,12.87,15.39,12.13a13.65,13.65,0,0,0,12.45-15.18,14,14,0,1,0-27.84,3.05Z"/>
      <path class="cls-32" d="M156.43,124.63c1.36,7.6,6.16,13,13.8,12.27,7.17-.69,11.8-7.4,11.26-15.1-.58-8.17-7.07-13.08-14.23-12.3S155.17,117.55,156.43,124.63Z"/>
      <path class="cls-33" d="M134.64,105.68s-10.83.11-19.84,3.31A50.33,50.33,0,0,0,100,117.23l-.11-4.17s2.35-6.7,13.73-10.45a47.53,47.53,0,0,1,19.77-1.67Z"/>
      <path class="cls-34" d="M127.73,116.67a15.22,15.22,0,0,0-6.55-2.2,17,17,0,0,0-6.52.75,17.53,17.53,0,0,0-5.86,3,19.5,19.5,0,0,0-4.63,5.24,11.48,11.48,0,0,1,3-6.95,14.26,14.26,0,0,1,6.63-4.16,14,14,0,0,1,7.84-.18A10.19,10.19,0,0,1,127.73,116.67Z"/>
      <path class="cls-34" d="M180.6,117.25a12.84,12.84,0,0,0-4.74-4.25,18.25,18.25,0,0,0-5.89-1.8,13.49,13.49,0,0,0-6.07.31,12.53,12.53,0,0,0-5.38,3.42,9.29,9.29,0,0,1,4.64-5.2,12,12,0,0,1,7.15-1.09,13.53,13.53,0,0,1,6.71,2.6A8.73,8.73,0,0,1,180.6,117.25Z"/>
      <path class="cls-33" d="M154.2,105a51,51,0,0,1,14.07.2,47.87,47.87,0,0,1,14.19,4.38l-.77-3.66a21.77,21.77,0,0,0-11.85-6.45,32.13,32.13,0,0,0-15.58,1Z"/>
      <ellipse class="cls-35" cx="118.14" cy="127.92" rx="5.83" ry="7.42" transform="translate(-3.42 3.25) rotate(-1.55)"/>
      <ellipse class="cls-35" cx="168.75" cy="123.52" rx="5.35" ry="7.21" transform="translate(-4.8 6.84) rotate(-2.29)"/>
      <path class="cls-30" d="M196.29,117.23s-3.27,21.19-4.35,22.63-31.74,3.86-31.74,3.86"/>
      <g>
        <path class="cls-19" d="M148.93,103.59s8.64,20,12.51,32.35,4.32,22.76,2.4,24.5-8.18,3.24-15.17,2.88-10.55-2.55-10.55-2.55"/>
        <path class="cls-24" d="M148.93,103.59q5.12,9.55,9.45,19.51c1.43,3.32,2.84,6.66,4.09,10.09a91.2,91.2,0,0,1,3.24,10.54,55.44,55.44,0,0,1,1.66,11.12,25.6,25.6,0,0,1-.08,3l-.12.81a6.31,6.31,0,0,1-.18.86,6.21,6.21,0,0,1-.89,2.06,7.91,7.91,0,0,1-.52.63c-.18.17-.29.25-.44.37a6.68,6.68,0,0,1-.82.56,11.3,11.3,0,0,1-1.54.74,23.32,23.32,0,0,1-2.92.92,36.86,36.86,0,0,1-11.44.66,19.74,19.74,0,0,1-5.58-1.37,11.77,11.77,0,0,1-4.72-3.33c3.82.3,7.12.34,10.54.38a37.57,37.57,0,0,0,5.09-.25,33.79,33.79,0,0,0,4.91-.88,17.51,17.51,0,0,0,2.22-.73,8.14,8.14,0,0,0,.89-.45,2.72,2.72,0,0,0,.3-.19l.08-.06a.18.18,0,0,0-.11.1c-.06.09.08-.13.13-.42a1.75,1.75,0,0,0,.1-.46l.09-.52c.08-.76.14-1.56.15-2.39a40.3,40.3,0,0,0-.3-5.1c-.18-1.72-.43-3.45-.74-5.18-1.23-6.9-3.48-13.69-5.71-20.52Z"/>
      </g>
      <path class="cls-36" d="M165.87,169.8s-1.31,16.53-15.8,17.42c-19.52,1.2-25.46-19.56-25.46-19.56"/>
      <path class="cls-37" d="M157.43,184.46s-4.22,2.68-11.2,2.15-12.83-6-12.83-6a38.75,38.75,0,0,1,12.6-.79A28.9,28.9,0,0,1,157.43,184.46Z"/>
      <path class="cls-32" d="M165.87,169.8s-1.58,4.76-2.28,5.39-6.73,3.29-15,3.33c-12.29.07-19.24-3.1-19.24-3.1a39.1,39.1,0,0,1-3-4.33,35.57,35.57,0,0,1-1.78-4.26s16,4.5,24,4.58A107.56,107.56,0,0,0,165.87,169.8Z"/>
      <g>
        <path class="cls-19" d="M169,167.8a45.8,45.8,0,0,1-18.63,4.34c-16.88.45-27.42-5.36-27.42-5.36"/>
        <path class="cls-38" d="M169.31,168.42a39.15,39.15,0,0,1-11.38,4.22,46.81,46.81,0,0,1-6,.86c-1,.08-2,.11-3,.11s-2,0-3,0a59.31,59.31,0,0,1-12-1.61c-2-.51-3.9-1.08-5.81-1.77a36.69,36.69,0,0,1-5.55-2.6l.93-1.68a45,45,0,0,0,5.42,1.9c1.85.56,3.73,1,5.62,1.4a76.75,76.75,0,0,0,11.51,1.36,59.15,59.15,0,0,0,11.53-.5,52.87,52.87,0,0,0,11.18-2.92Z"/>
      </g>
      <path class="cls-24" d="M126,163l-1.63,2.54a21.71,21.71,0,0,0-1.26,2.26,17.86,17.86,0,0,0-.92,2.4c-.26.87-.5,1.79-.76,2.88a5,5,0,0,1-1.32-3,6.53,6.53,0,0,1,.59-3.36,6.63,6.63,0,0,1,2.19-2.6A5.59,5.59,0,0,1,126,163Z"/>
      <g class="cls-28">
        <path class="cls-24" d="M158.14,189.41a9,9,0,0,1-3.18,3.9,11,11,0,0,1-4.79,2,11.1,11.1,0,0,1-5.16-.43,9.54,9.54,0,0,1-4.24-2.67,45.71,45.71,0,0,0,4.67.55,20.51,20.51,0,0,0,4.31-.16,20.07,20.07,0,0,0,4.17-1.14A32.72,32.72,0,0,0,158.14,189.41Z"/>
      </g>
      <path class="cls-24" d="M91.09,169.84A34.34,34.34,0,0,0,95,182.5a30.61,30.61,0,0,0,8.42,9.92,34.83,34.83,0,0,0,11.9,5.21,85.69,85.69,0,0,0,13.08,2.1,233.2,233.2,0,0,0,26.71.57,99.9,99.9,0,0,0,13.22-1.55,126.58,126.58,0,0,0,13.06-3A74.57,74.57,0,0,1,168.58,200a76.39,76.39,0,0,1-13.39,2c-4.52.25-9,.35-13.49.38a132.85,132.85,0,0,1-13.52-.53,77.86,77.86,0,0,1-13.41-2.29,34.63,34.63,0,0,1-12.43-5.82A30,30,0,0,1,94,183a30.88,30.88,0,0,1-2.19-6.43A27.67,27.67,0,0,1,91.09,169.84Z"/>
      <path class="cls-39" d="M197.54,119.83l-25.74,1.85c-8.58.64-17.17,1.21-25.73,1.89q-25.71,2.06-51.34,4.88l-.45-4q25.73-2.81,51.48-4.77c8.6-.67,17.18-1.22,25.77-1.83l25.77-1.8Z"/>
      <path class="cls-30" d="M146.48,122s-1.72,20.11-3.83,22.17S108,149,104.88,148.36s-9.31-23.18-9.31-23.18"/>
      <polygon class="cls-39" points="160.28 128.7 146.73 130.11 146.51 127.56 160.11 126.71 160.28 128.7"/>
      <polygon class="cls-22" points="270.23 339.71 249.75 367.63 244.9 363.94 266.33 336.75 270.23 339.71"/>
      <ellipse class="cls-40" cx="404.04" cy="160.69" rx="1.83" ry="3.19" transform="translate(18.18 361.15) rotate(-49.14)"/>
      <g class="cls-41">
        <path class="cls-42" d="M170.47,240.58A10.44,10.44,0,0,1,168,237.7a11.22,11.22,0,0,1-1.36-3.62,11.5,11.5,0,0,1-.06-4,10.05,10.05,0,0,1,1.17-3.35"/>
        <path class="cls-42" d="M170.47,228.91a6.14,6.14,0,0,0-.73,2,6.89,6.89,0,0,0,0,2.62,7.45,7.45,0,0,0,.9,2.27,6.78,6.78,0,0,0,1.61,1.8"/>
        <g class="cls-41">
          <path class="cls-43" d="M178.07,227.6a5.69,5.69,0,0,0-1.34-.83,5.13,5.13,0,0,0-2.66-.36,4.78,4.78,0,0,0-2.61,1.23,5.31,5.31,0,0,0-1,1.27"/>
          <path class="cls-43" d="M167.79,226.78a8.48,8.48,0,0,1,1.53-1.92,7.67,7.67,0,0,1,4-2,8,8,0,0,1,4.45.56,9.36,9.36,0,0,1,2.17,1.3"/>
        </g>
        <g class="cls-41">
          <path class="cls-44" d="M172.28,237.64a5.54,5.54,0,0,0,3.12,1.18,4.87,4.87,0,0,0,2.21-.46c.43.42.87.84,1.34,1.27s1.07,1,1.58,1.4a7.7,7.7,0,0,1-2.75,1.35,7.87,7.87,0,0,1-2.87.18,9,9,0,0,1-2.52-.78,10.59,10.59,0,0,1-1.92-1.2"/>
          <path class="cls-44" d="M179.93,224.73a10.46,10.46,0,0,1,2.43,2.76,11.8,11.8,0,0,1,1.44,3.67h0a10.73,10.73,0,0,1,.25,2.26,7.9,7.9,0,0,1-.18,1.55l-3.27-2.78a7.41,7.41,0,0,0-.51-1.86,6.89,6.89,0,0,0-2-2.73"/>
        </g>
        <path class="cls-45" d="M184.41,241.18a.23.23,0,0,1-.19-.06l-7.64-6.8a.65.65,0,0,1-.13-.81l.47-.72a.54.54,0,0,1,.84-.09l7.74,6.89,1.22,1.09s0,.11,0,.12C186.27,240.88,184.92,241.12,184.41,241.18Z"/>
      </g>
    </g>
  </g>
</svg>
